<?xml version="1.0" standalone="no"?>
<!DOCTYPE svg PUBLIC "-//W3C//DTD SVG 20010904//EN"
 "http://www.w3.org/TR/2001/REC-SVG-20010904/DTD/svg10.dtd">
<svg version="1.0" xmlns="http://www.w3.org/2000/svg"
 width="700.000000pt" height="700.000000pt" viewBox="0 0 700.000000 700.000000"
 preserveAspectRatio="xMidYMid meet">
<metadata>
Created by potrace 1.14, written by Peter Selinger 2001-2017
</metadata>
<g transform="translate(0.000000,700.000000) scale(0.100000,-0.100000)"
fill="#000000" stroke="none">
<path d="M3246 4513 c1 -1347 5 -2464 8 -2483 52 -356 207 -663 460 -915 214
-214 455 -368 779 -500 190 -77 501 -169 672 -200 17 -2 41 -7 55 -10 27 -5
113 -21 170 -30 66 -11 245 -34 320 -40 41 -4 86 -8 100 -11 113 -17 700 -24
970 -10 137 7 196 14 147 17 -10 1 -20 2 -24 3 -5 1 -39 6 -78 10 -131 14
-320 47 -479 82 -719 160 -1228 480 -1548 974 -60 92 -168 299 -168 322 0 8
-4 18 -9 23 -11 12 -73 195 -95 281 -42 164 -76 388 -90 599 -3 39 -5 813 -6
1720 -1 1810 2 1723 -62 1910 -50 150 -97 213 -221 297 -53 36 -246 138 -261
138 -4 0 -25 9 -49 20 -23 10 -143 62 -267 116 -124 53 -244 105 -267 115 -23
10 -46 19 -51 19 -5 0 -8 -995 -6 -2447z"/>
<path d="M1629 6523 c0 -15 -1 -939 -1 -2053 0 -1831 2 -2190 16 -2270 3 -14
7 -54 11 -89 7 -80 48 -292 75 -391 99 -357 277 -673 520 -920 43 -44 76 -80
74 -80 -9 0 -173 106 -239 154 -191 139 -366 324 -493 518 -139 214 -259 518
-307 778 -3 14 -9 48 -15 75 -5 28 -12 66 -14 85 -2 19 -7 62 -11 95 -4 33 -9
71 -12 85 -4 14 -8 470 -10 1015 -5 1670 -6 1697 -32 1785 -36 122 -102 248
-163 308 -60 61 -179 143 -283 195 -65 33 -494 223 -646 287 l-66 27 2 -2016
c1 -1109 5 -2036 9 -2061 4 -25 16 -89 27 -143 129 -627 624 -1103 1424 -1369
136 -45 401 -114 515 -134 25 -4 47 -8 50 -9 40 -8 84 -15 125 -20 28 -4 57
-8 65 -10 8 -2 41 -7 73 -10 32 -4 66 -8 75 -10 16 -3 130 -14 202 -21 32 -2
210 -12 355 -19 40 -2 109 -20 209 -54 132 -46 362 -109 456 -125 19 -3 46 -8
60 -11 23 -5 243 -39 315 -50 17 -2 66 -7 110 -10 44 -4 87 -9 96 -10 47 -9
323 -19 544 -19 202 -1 376 5 553 16 7 1 9 5 5 9 -4 4 -42 10 -83 13 -41 4
-91 9 -110 12 -140 23 -265 45 -325 59 -38 8 -79 17 -90 19 -94 18 -422 120
-439 137 -6 5 -16 9 -24 9 -28 0 -270 117 -375 182 -43 26 -81 48 -84 48 -2 0
-50 35 -106 78 -178 135 -341 304 -447 462 -24 36 -51 77 -61 91 -30 45 -126
240 -157 319 -58 150 -122 382 -137 495 -3 22 -7 49 -9 60 -4 18 -10 71 -22
170 -14 126 -17 431 -18 1830 l-2 1590 -22 83 c-12 46 -36 111 -54 145 -41 78
-175 214 -283 286 -81 54 -329 178 -745 373 -36 17 -68 33 -72 35 -5 2 -8 -8
-9 -24z"/>
</g>
</svg>
