<?xml version="1.0" standalone="no"?>
<!DOCTYPE svg PUBLIC "-//W3C//DTD SVG 20010904//EN"
 "http://www.w3.org/TR/2001/REC-SVG-20010904/DTD/svg10.dtd">
<svg version="1.0" xmlns="http://www.w3.org/2000/svg"
 width="700.000000pt" height="700.000000pt" viewBox="0 0 700.000000 700.000000"
 preserveAspectRatio="xMidYMid meet">
<metadata>
Created by potrace 1.14, written by Peter Selinger 2001-2017
</metadata>
<g transform="translate(0.000000,700.000000) scale(0.100000,-0.100000)"
fill="#000000" stroke="none">
<path d="M6898 5143 c-9 -16 -25 -37 -35 -48 -10 -11 -43 -51 -73 -90 -30 -38
-63 -79 -72 -90 -9 -11 -72 -90 -139 -175 -68 -85 -272 -342 -454 -570 -182
-228 -380 -477 -440 -552 -60 -76 -111 -138 -115 -138 -4 0 -131 105 -213 177
-124 108 -156 132 -148 111 13 -32 89 -192 225 -472 64 -131 116 -242 116
-246 0 -4 6 -13 14 -19 11 -9 23 3 62 66 26 43 71 114 99 158 69 107 464 735
478 760 7 11 27 41 45 68 17 26 32 49 32 51 0 2 75 122 166 267 148 235 264
420 375 597 20 31 52 83 73 115 20 31 33 57 28 57 -4 0 -15 -12 -24 -27z"/>
<path d="M3458 4449 c-226 -45 -395 -133 -537 -281 -189 -198 -280 -407 -286
-658 -8 -325 135 -637 376 -818 105 -79 218 -131 379 -174 118 -31 377 -32
545 -2 129 22 278 69 371 116 l42 21 1 153 1 152 -77 -44 c-259 -147 -592
-207 -817 -145 -229 63 -408 214 -489 411 -108 263 -48 595 145 800 104 112
276 194 453 218 99 13 224 5 365 -24 105 -22 180 -49 294 -105 54 -27 100 -49
101 -49 1 0 2 65 2 145 l-1 144 -106 39 c-94 35 -222 75 -283 88 -124 26 -178
32 -277 31 -64 0 -154 -8 -202 -18z"/>
<path d="M5400 4462 c-72 -9 -215 -47 -287 -76 -92 -38 -226 -123 -294 -188
-192 -181 -301 -440 -299 -713 1 -112 3 -128 26 -240 11 -53 56 -178 92 -255
96 -207 351 -406 601 -470 101 -26 156 -32 279 -32 355 2 660 141 845 384 159
211 222 445 193 721 -9 87 -29 161 -66 251 -42 101 -120 230 -131 219 -5 -5
-43 -63 -84 -128 -70 -113 -73 -121 -60 -145 38 -68 67 -209 67 -320 -1 -78
-22 -198 -48 -272 -44 -127 -170 -276 -293 -347 -139 -80 -267 -112 -436 -107
-366 11 -622 226 -695 586 -43 208 8 425 138 599 128 170 360 278 592 276 103
-2 149 -11 265 -51 55 -19 106 -36 114 -37 18 -2 173 192 164 206 -22 36 -273
119 -403 133 -70 7 -239 11 -280 6z"/>
<path d="M50 4258 c-2 -798 -2 -1725 -1 -1735 1 -10 33 -13 126 -13 112 0 125
2 126 18 0 9 1 342 2 740 1 397 3 722 4 722 1 0 42 -46 90 -102 48 -57 90
-105 93 -108 3 -3 28 -32 55 -65 28 -33 53 -62 56 -65 3 -3 103 -120 223 -260
120 -140 240 -280 266 -310 26 -30 65 -75 86 -101 61 -71 122 -142 266 -309
l133 -155 118 -3 117 -3 0 966 0 965 -128 0 -129 0 0 -740 c0 -407 -2 -743 -5
-745 -3 -3 -34 30 -69 72 -35 43 -69 83 -75 88 -6 6 -75 87 -155 180 -79 94
-148 175 -154 181 -5 6 -31 35 -56 65 -26 30 -133 155 -238 279 -106 124 -202
236 -214 250 -12 14 -89 103 -170 198 l-148 172 -109 0 -110 0 0 -182z"/>
<path d="M2135 4429 c-4 -5 -10 -1871 -6 -1905 1 -15 258 -16 263 -1 3 10 2
1889 -1 1909 -1 9 -251 7 -256 -3z"/>
</g>
</svg>
