<?xml version="1.0" encoding="utf-8"?>
<!-- Generator: Adobe Illustrator 25.2.3, SVG Export Plug-In . SVG Version: 6.00 Build 0)  -->
<svg version="1.0" id="Layer_1" xmlns="http://www.w3.org/2000/svg" xmlns:xlink="http://www.w3.org/1999/xlink" x="0px" y="0px"
	 viewBox="0 0 250 250" style="enable-background:new 0 0 250 250;" xml:space="preserve">
<style type="text/css">
	.st0{fill:#676767;}
	.st1{fill:#6B388D;}
</style>
<path class="st0" d="M54.9,148.17v5.73c0,24.87-0.95,33.91-4.3,42.54c-2.52,5.65-5.57,9.39-8.84,10.81
	c-4.37,1.09-8.76,1.58-13.15,1.47c-10.88,0-13.8-1.21-17.97-7.54c-5.47-7.54-7.84-20.12-8.51-43.75
	c-0.27-9.46-0.47-29.84-0.47-44.99c0-34.59,1.23-47.25,5.49-57.95c4.73-11.95,9.46-14.7,24.77-14.7c10.03,0,14,2.26,17.19,9.46
	c2.65,5.99,4.3,14.7,4.83,26.87c0.19,3.99,0.29,8.97,0.37,20.39H42.33c-0.19-26.6-1.32-29.35-12.11-29.35
	c-8.02,0-11.46,1.77-13.43,6.48c-1.6,4.22-2.26,10.21-2.45,22.87c-0.1,4.22-0.1,4.22-0.1,26.87c0,54.45,0.86,57.95,14.33,57.95
	c12.29,0,14.33-3.99,14.33-26.38c0-1.51,0-3.77-0.09-6.97L54.9,148.17z"/>
<path class="st0" d="M62.94,41.46h25.53c6.72,0,7.38,0,9.74,0.49c5.57,1.02,9.93,7.23,12.29,17.41c2.08,9.19,2.87,19.9,2.87,40.06
	c0,30.82-2.87,46.01-10.22,51.7c-2.55,2.26-2.55,2.26-14,2.75H75.04v53.4H62.94V41.46z M88.66,126.54
	c10.69,0,12.39-3.77,12.39-27.58c0-18.43-0.76-25.13-3.22-28.6c-1.69-2-2.87-2.49-7.94-2.49H75.04v58.67H88.66z"/>
<path class="st0" d="M127.23,175.53l-3.87,31.73h-12.68l20.99-165.8h17.88l21.36,165.8h-12.38l-4.07-31.84L127.23,175.53z
	 M140.84,65.87l-10.77,86.03h21.65L140.84,65.87z"/>
<path class="st1" d="M229.16,207.26h-11.63L191.05,94.21l-4.3-18.65l-2.18-9.19l-2.08-9.23h-0.19l0.1,6.22v143.91h-7.09V41.46h11.73
	l22.93,98.99l6.05,25.85l3.04,12.92l2.87,12.92h0.19l-0.09-6.22V41.46h7.09L229.16,207.26z"/>
<path class="st1" d="M248.26,207.26h-7.09V41.46h7.09V207.26z"/>
<g>
</g>
<g>
</g>
<g>
</g>
<g>
</g>
<g>
</g>
<g>
</g>
</svg>
