<?xml version="1.0" encoding="utf-8"?>
<!-- Generator: Adobe Illustrator 25.2.3, SVG Export Plug-In . SVG Version: 6.00 Build 0)  -->
<svg version="1.0" id="Layer_1" xmlns="http://www.w3.org/2000/svg" xmlns:xlink="http://www.w3.org/1999/xlink" x="0px" y="0px"
	 viewBox="0 0 250 250" style="enable-background:new 0 0 250 250;" xml:space="preserve">
<style type="text/css">
	.st0{display:none;}
	.st1{display:inline;fill:#AB293E;}
	.st2{display:inline;fill:#06727C;}
	.st3{fill:#FFFFFF;}
	.st4{fill:#AB293E;}
	.st5{fill:#06727C;}
</style>
<g>
	<g class="st0">
		<path class="st1" d="M301.5,104.1c0,3.8-0.6,7.1-1.91,9.9c-1.31,2.8-3.12,5.2-5.33,7.1c-2.31,1.9-5.02,3.3-8.24,4.3
			c-3.22,0.9-6.73,1.4-10.45,1.4h-20.6l-1.11,1.1V156l-1.11,1.1H239.7l-1.11-1.1V82.5l1.11-1.1h35.78c3.72,0,7.24,0.5,10.45,1.4
			c3.22,0.9,5.93,2.4,8.24,4.3s4.02,4.3,5.33,7.1C300.9,97,301.5,100.3,301.5,104.1z M286.33,104.1c0-3.7-1-6.3-3.01-7.7
			s-4.62-2.1-7.84-2.1h-20.6l-1.11,1.1v17.3l1.11,1.1h20.6c1.61,0,3.01-0.1,4.42-0.4c1.31-0.3,2.51-0.8,3.52-1.6
			c1-0.8,1.71-1.8,2.21-3C286.03,107.5,286.33,105.9,286.33,104.1z"/>
		<path class="st1" d="M372.05,136.5c0,3.8-0.6,7-1.81,9.6c-1.21,2.6-2.91,4.7-4.92,6.3c-2.11,1.6-4.42,2.8-7.03,3.5
			c-2.61,0.7-5.23,1.1-7.94,1.1h-36.88l-1.11-1.1V82.5l1.11-1.1h34.77c2.71,0,5.33,0.4,7.94,1.1c2.61,0.7,4.92,1.9,7.03,3.4
			c2.11,1.5,3.72,3.5,4.92,6c1.21,2.4,1.81,5.4,1.81,9c0,3.8-0.8,7.2-2.51,10.2c-1.71,2.9-4.52,5-8.34,6v1.1
			c4.32,1.1,7.64,3.2,9.75,6.3C370.94,127.5,372.05,131.5,372.05,136.5z M354.66,103c0-2.7-0.6-4.9-1.91-6.4s-3.52-2.3-6.73-2.3
			h-17.39l-1.11,1.1v15.1l1.11,1.1h17.39c3.22,0,5.53-0.9,6.73-2.7C354.06,107.1,354.66,105.1,354.66,103z M356.88,134.3
			c0-3.2-0.8-5.7-2.51-7.3c-1.71-1.6-4.42-2.4-8.34-2.4h-17.39l-1.11,1.1V143l1.11,1.1h17.39c3.92,0,6.73-0.8,8.34-2.4
			C356.07,140,356.88,137.5,356.88,134.3z"/>
		<path class="st1" d="M386.12,81.4h15.17l2.21,1.1l29.34,49.7h1.11V82.5l1.11-1.1h13.06l1.11,1.1v73.4l-1.11,1.1h-15.17l-2.21-1.1
			l-29.34-49.7h-1.11v49.7l-1.11,1.1h-13.06l-1.11-1.1V82.5L386.12,81.4z"/>
		<path class="st1" d="M480.58,157h-13.06l-1.11-1.1V82.5l1.11-1.1h13.06l1.11,1.1v73.4L480.58,157z"/>
	</g>
	<g class="st0">
		<path class="st2" d="M527.01,89.8c0,2.5-0.7,4.4-2.01,5.6c-1.41,1.2-3.52,1.8-6.53,1.8h-8.94l-0.4,0.4v11.6l-0.4,0.4h-1.51
			l-0.4-0.4V82.9l0.4-0.4h11.26c2.91,0,5.13,0.6,6.53,1.8C526.31,85.4,527.01,87.3,527.01,89.8z M524.7,89.8c0-1.1-0.2-1.9-0.4-2.6
			c-0.3-0.7-0.7-1.2-1.21-1.7c-0.5-0.4-1.11-0.7-1.81-0.9c-0.7-0.2-1.51-0.3-2.41-0.3h-9.35l-0.4,0.4v10.1l0.4,0.4h8.94
			c1,0,1.81-0.1,2.61-0.3c0.8-0.2,1.41-0.5,2.01-0.9c0.5-0.4,0.9-1,1.21-1.7C524.5,91.8,524.7,90.9,524.7,89.8z"/>
		<path class="st2" d="M539.87,90.2l0.4,0.4v1.2l-0.4,0.4h-2.01c-1.91,0-3.32,0.6-4.22,1.8c-0.8,1.2-1.31,2.8-1.31,4.7v10.4
			l-0.4,0.4h-1.51l-0.4-0.4V90.6l0.4-0.4h1.21l0.4,0.4l0.4,2.3h0.4c0.6-1,1.41-1.7,2.31-2.1c0.9-0.4,2.01-0.6,3.12-0.6H539.87z"/>
		<path class="st2" d="M549.92,109.9c-1.31,0-2.41-0.2-3.52-0.6c-1.11-0.4-2.01-1.1-2.81-1.9c-0.8-0.8-1.41-1.9-1.91-3.2
			c-0.4-1.2-0.7-2.7-0.7-4.3s0.2-3.1,0.7-4.3c0.5-1.3,1.11-2.3,1.91-3.2c0.8-0.9,1.71-1.5,2.81-1.9c1.11-0.4,2.31-0.6,3.52-0.6
			c1.31,0,2.41,0.2,3.52,0.6s2.01,1.1,2.81,1.9c0.8,0.9,1.41,1.9,1.91,3.2c0.5,1.2,0.7,2.7,0.7,4.3s-0.2,3.1-0.7,4.3
			c-0.5,1.2-1.11,2.3-1.91,3.2c-0.8,0.9-1.71,1.5-2.81,1.9C552.43,109.7,551.23,109.9,549.92,109.9z M549.92,91.8
			c-1,0-1.91,0.2-2.71,0.6s-1.51,0.9-2.11,1.6c-0.6,0.7-1,1.5-1.41,2.6c-0.3,1-0.5,2.1-0.5,3.4s0.2,2.4,0.5,3.4s0.8,1.9,1.41,2.5
			c0.6,0.7,1.31,1.2,2.11,1.6c0.8,0.4,1.71,0.6,2.71,0.6s1.81-0.2,2.61-0.6c0.8-0.4,1.51-0.9,2.11-1.6c0.6-0.7,1-1.5,1.41-2.5
			c0.3-1,0.5-2.1,0.5-3.4c0-1.3-0.2-2.4-0.5-3.4s-0.8-1.9-1.41-2.6c-0.6-0.7-1.31-1.2-2.11-1.6C551.83,91.9,550.93,91.8,549.92,91.8
			z"/>
		<path class="st2" d="M571.33,89.8c1.31,0,2.51,0.2,3.52,0.8c1,0.5,1.91,1.2,2.51,2.1c0.7,0.9,1.21,2,1.51,3.2
			c0.3,1.2,0.5,2.6,0.5,4s-0.2,2.8-0.5,4c-0.3,1.2-0.8,2.3-1.51,3.2c-0.7,0.9-1.51,1.6-2.51,2.1c-1,0.5-2.21,0.8-3.52,0.8
			c-1.71,0-3.12-0.3-4.12-1c-1-0.6-1.71-1.4-2.01-2.1h-0.4l-0.4,2.3l-0.4,0.4h-1.21l-0.4-0.4V82.9l0.4-0.4h1.51l0.4,0.4V93h0.4
			c0.4-0.8,1-1.5,2.01-2.1C568.21,90.2,569.52,89.8,571.33,89.8z M570.93,91.8c-1.91,0-3.42,0.7-4.52,2c-1.11,1.3-1.61,3.4-1.61,6.1
			c0,2.7,0.6,4.8,1.61,6.1c1.11,1.3,2.61,2,4.52,2c1.91,0,3.42-0.7,4.52-2c1.11-1.3,1.61-3.4,1.61-6.1c0-2.7-0.6-4.8-1.61-6.1
			C574.34,92.4,572.83,91.8,570.93,91.8z"/>
		<path class="st2" d="M596.95,109.6h-1.21l-0.4-0.4l-0.4-1.9h-0.4c-0.2,0.3-0.5,0.6-0.8,0.9c-0.3,0.3-0.7,0.6-1.21,0.9
			c-0.5,0.3-1.11,0.5-1.71,0.7c-0.7,0.2-1.51,0.3-2.51,0.3c-2.21,0-3.82-0.5-4.92-1.6c-1.11-1-1.71-2.5-1.71-4.2
			c0-2.1,0.7-3.7,2.21-4.7c1.41-1,3.42-1.5,6.03-1.5c0.6,0,1.21,0,1.71,0.1c0.5,0,1,0.1,1.51,0.1c0.2,0,0.5,0.1,0.7,0.1
			c0.2,0,0.5,0.1,0.7,0.1l0.4-0.4v-1.2c0-1.7-0.4-3-1.11-3.8c-0.7-0.8-2.01-1.2-4.02-1.2c-1,0-1.81,0.1-2.41,0.3
			c-0.6,0.2-1.21,0.5-1.51,0.9c-0.4,0.4-0.7,0.8-0.8,1.2c-0.2,0.5-0.2,0.9-0.2,1.4l-0.4,0.4h-1.61l-0.4-0.4c0-0.8,0.2-1.5,0.5-2.2
			c0.3-0.7,0.7-1.3,1.41-1.9c0.6-0.5,1.41-1,2.31-1.3c0.9-0.3,2.01-0.5,3.32-0.5c1.41,0,2.61,0.2,3.62,0.5c1,0.3,1.71,0.8,2.31,1.4
			c0.6,0.6,0.9,1.3,1.21,2.2c0.2,0.9,0.3,1.8,0.3,2.9v12.4L596.95,109.6z M595.04,100.7l-0.4-0.4l-0.6-0.1c-0.2,0-0.4-0.1-0.7-0.1
			c-0.4-0.1-0.8-0.1-1.31-0.1s-1.11-0.1-1.61-0.1c-2.31,0-3.92,0.4-4.82,1.1c-0.9,0.8-1.41,1.8-1.41,3.1c0,1.2,0.3,2.1,1,2.8
			c0.7,0.7,1.91,1.1,3.62,1.1c1,0,2.01-0.2,2.81-0.5c0.8-0.3,1.41-0.8,1.91-1.3c0.5-0.6,0.9-1.2,1.11-1.9c0.2-0.7,0.4-1.4,0.4-2.1
			V100.7z"/>
		<path class="st2" d="M611.32,109.6h-2.71c-1.41,0-2.51-0.4-3.42-1.1c-0.9-0.7-1.31-1.8-1.31-3.2V92.5l-0.4-0.4h-3.12l-0.4-0.4
			v-1.2l0.4-0.4h3.12l0.4-0.4v-3.5l0.4-0.4h1.51l0.4,0.4v3.5l0.4,0.4h4.62l0.4,0.4v1.2l-0.4,0.4h-4.62l-0.4,0.4v12.8
			c0,1.6,0.8,2.3,2.31,2.3h2.71l0.4,0.4v1.2L611.32,109.6z"/>
		<path class="st2" d="M617.55,87.1h-1.61l-0.4-0.4v-2.3l0.4-0.4h1.61l0.4,0.4v2.3L617.55,87.1z M617.55,109.6h-1.61l-0.4-0.4V90.6
			l0.4-0.4h1.61l0.4,0.4v18.6L617.55,109.6z"/>
		<path class="st2" d="M630.42,109.9c-1.31,0-2.41-0.2-3.52-0.6c-1.11-0.4-2.01-1.1-2.81-1.9s-1.41-1.9-1.91-3.2
			c-0.4-1.2-0.7-2.7-0.7-4.3s0.2-3.1,0.7-4.3c0.5-1.3,1.11-2.3,1.91-3.2c0.8-0.9,1.71-1.5,2.81-1.9s2.31-0.6,3.52-0.6
			c1.31,0,2.41,0.2,3.52,0.6s2.01,1.1,2.81,1.9c0.8,0.9,1.41,1.9,1.91,3.2c0.5,1.2,0.7,2.7,0.7,4.3s-0.2,3.1-0.7,4.3
			c-0.5,1.2-1.11,2.3-1.91,3.2s-1.71,1.5-2.81,1.9C632.83,109.7,631.62,109.9,630.42,109.9z M630.42,91.8c-1,0-1.91,0.2-2.71,0.6
			c-0.8,0.4-1.51,0.9-2.11,1.6c-0.6,0.7-1,1.5-1.41,2.6c-0.3,1-0.5,2.1-0.5,3.4s0.2,2.4,0.5,3.4s0.8,1.9,1.41,2.5
			c0.6,0.7,1.31,1.2,2.11,1.6c0.8,0.4,1.71,0.6,2.71,0.6c0.9,0,1.81-0.2,2.61-0.6s1.51-0.9,2.11-1.6c0.6-0.7,1-1.5,1.41-2.5
			c0.3-1,0.5-2.1,0.5-3.4c0-1.3-0.2-2.4-0.5-3.4c-0.3-1-0.8-1.9-1.41-2.6c-0.6-0.7-1.31-1.2-2.11-1.6
			C632.23,91.9,631.32,91.8,630.42,91.8z"/>
		<path class="st2" d="M658.35,109.6h-1.51l-0.4-0.4V97.6c0-1.9-0.4-3.4-1.31-4.3c-0.9-1-2.11-1.5-3.72-1.5
			c-2.11,0-3.72,0.6-4.72,1.9c-1,1.3-1.51,2.9-1.51,5.1v10.4l-0.4,0.4h-1.51l-0.4-0.4V90.6l0.4-0.4h1.21l0.4,0.4l0.4,2.3h0.4
			c0.6-1,1.41-1.7,2.51-2.3c1.11-0.5,2.31-0.8,3.72-0.8c2.21,0,3.92,0.6,5.13,1.9c1.21,1.3,1.81,3.2,1.81,5.8v11.6L658.35,109.6z"/>
		<path class="st2" d="M693.33,101.8c0,1.4-0.2,2.7-0.7,3.7c-0.5,1-1.11,1.8-1.81,2.4c-0.8,0.6-1.71,1-2.71,1.3
			c-1,0.3-2.11,0.4-3.32,0.4h-10.45l-0.4-0.4V82.9l0.4-0.4h10.15c1.21,0,2.21,0.1,3.22,0.3c1,0.2,1.81,0.6,2.61,1.1
			c0.7,0.5,1.31,1.2,1.71,2.1s0.6,2,0.6,3.4c0,2.7-1.21,4.6-3.52,5.8v0.4c1.21,0.4,2.21,1.1,3.01,2.1
			C692.92,98.7,693.33,100.1,693.33,101.8z M690.21,89.4c0-1.8-0.4-3-1.31-3.8c-0.9-0.8-2.41-1.2-4.52-1.2h-7.74l-0.4,0.4v9.3
			l0.4,0.4h8.14c1.81,0,3.12-0.4,4.02-1.4C689.71,92.2,690.21,91,690.21,89.4z M691.01,101.8c0-1.8-0.6-3.1-1.61-4
			c-1.11-0.9-2.61-1.4-4.52-1.4h-8.14l-0.4,0.4v10.4l0.4,0.4h8.14c2.11,0,3.72-0.5,4.72-1.6C690.51,105,691.01,103.6,691.01,101.8z"
			/>
		<path class="st2" d="M704.98,109.9c-1.31,0-2.41-0.2-3.52-0.6c-1.11-0.4-2.01-1.1-2.81-1.9s-1.41-1.9-1.91-3.2
			c-0.5-1.2-0.7-2.7-0.7-4.3s0.2-3.1,0.7-4.3c0.4-1.3,1.11-2.3,1.91-3.2c0.8-0.9,1.71-1.5,2.81-1.9s2.31-0.6,3.52-0.6
			c1.31,0,2.41,0.2,3.52,0.6s2.01,1.1,2.81,1.9c0.8,0.9,1.41,1.9,1.91,3.2c0.5,1.2,0.7,2.7,0.7,4.3s-0.2,3.1-0.7,4.3
			c-0.4,1.2-1.11,2.3-1.91,3.2c-0.8,0.9-1.71,1.5-2.81,1.9C707.39,109.7,706.29,109.9,704.98,109.9z M704.98,91.8
			c-1,0-1.91,0.2-2.71,0.6c-0.8,0.4-1.51,0.9-2.11,1.6c-0.6,0.7-1,1.5-1.31,2.6c-0.3,1-0.5,2.1-0.5,3.4s0.2,2.4,0.5,3.4
			s0.8,1.9,1.31,2.5c0.6,0.7,1.31,1.2,2.11,1.6c0.8,0.4,1.71,0.6,2.71,0.6s1.81-0.2,2.61-0.6s1.51-0.9,2.11-1.6
			c0.6-0.7,1-1.5,1.41-2.5c0.3-1,0.5-2.1,0.5-3.4c0-1.3-0.2-2.4-0.5-3.4s-0.8-1.9-1.41-2.6c-0.6-0.7-1.31-1.2-2.11-1.6
			C706.79,91.9,705.89,91.8,704.98,91.8z"/>
		<path class="st2" d="M731.41,109.6h-1.21l-0.4-0.4l-0.4-1.9H729c-0.2,0.3-0.5,0.6-0.8,0.9s-0.7,0.6-1.21,0.9s-1.11,0.5-1.71,0.7
			c-0.7,0.2-1.51,0.3-2.51,0.3c-2.21,0-3.82-0.5-4.92-1.6c-1.11-1-1.71-2.5-1.71-4.2c0-2.1,0.7-3.7,2.21-4.7
			c1.41-1,3.42-1.5,5.93-1.5c0.6,0,1.21,0,1.71,0.1c0.5,0,1,0.1,1.51,0.1c0.3,0,0.5,0.1,0.7,0.1s0.5,0.1,0.7,0.1l0.4-0.4v-1.2
			c0-1.7-0.4-3-1.11-3.8c-0.7-0.8-2.01-1.2-4.02-1.2c-1,0-1.81,0.1-2.41,0.3c-0.6,0.2-1.21,0.5-1.51,0.9c-0.4,0.4-0.7,0.8-0.8,1.2
			c-0.2,0.5-0.2,0.9-0.2,1.4l-0.4,0.4h-1.61l-0.4-0.4c0-0.8,0.1-1.5,0.4-2.2c0.3-0.7,0.8-1.3,1.41-1.9c0.6-0.5,1.41-1,2.31-1.3
			c0.9-0.3,2.01-0.5,3.32-0.5c1.41,0,2.61,0.2,3.62,0.5c1,0.3,1.71,0.8,2.31,1.4c0.6,0.6,0.9,1.3,1.21,2.2c0.2,0.9,0.3,1.8,0.3,2.9
			v12.4L731.41,109.6z M729.5,100.7l-0.4-0.4l-0.6-0.1c-0.2,0-0.4-0.1-0.7-0.1c-0.4-0.1-0.8-0.1-1.31-0.1c-0.5,0-1.11-0.1-1.61-0.1
			c-2.31,0-3.92,0.4-4.82,1.1c-0.9,0.8-1.41,1.8-1.41,3.1c0,1.2,0.3,2.1,1,2.8c0.7,0.7,1.91,1.1,3.62,1.1c1,0,2.01-0.2,2.81-0.5
			c0.8-0.3,1.41-0.8,1.91-1.3c0.5-0.6,0.9-1.2,1.11-1.9c0.2-0.7,0.4-1.4,0.4-2.1V100.7z"/>
		<path class="st2" d="M745.78,90.2l0.4,0.4v1.2l-0.4,0.4h-1.91c-1.91,0-3.32,0.6-4.22,1.8c-0.8,1.2-1.31,2.8-1.31,4.7v10.4
			l-0.4,0.4h-1.51l-0.4-0.4V90.6l0.4-0.4h1.21l0.4,0.4l0.4,2.3h0.4c0.6-1,1.41-1.7,2.31-2.1c0.9-0.4,2.01-0.6,3.12-0.6H745.78z"/>
		<path class="st2" d="M755.13,89.8c1.71,0,3.12,0.3,4.12,1c1,0.6,1.71,1.4,2.11,2.1h0.4v-10l0.4-0.4h1.51l0.4,0.4v26.3l-0.4,0.4
			h-1.21l-0.4-0.4l-0.4-2.3h-0.4c-0.4,0.8-1.11,1.5-2.11,2.1s-2.41,1-4.12,1c-1.41,0-2.61-0.3-3.62-0.8s-1.91-1.2-2.51-2.1
			c-0.7-0.9-1.21-2-1.51-3.2c-0.3-1.2-0.5-2.6-0.5-4s0.2-2.8,0.5-4c0.3-1.2,0.9-2.3,1.51-3.2c0.7-0.9,1.51-1.6,2.51-2.1
			C752.52,90.1,753.72,89.8,755.13,89.8z M755.53,91.8c-1.91,0-3.42,0.7-4.52,2c-1.11,1.3-1.71,3.4-1.71,6.1c0,2.7,0.6,4.8,1.71,6.1
			c1.11,1.3,2.61,2,4.52,2c1.91,0,3.52-0.7,4.52-2c1.11-1.3,1.61-3.4,1.61-6.1c0-2.7-0.5-4.8-1.61-6.1
			C758.95,92.4,757.44,91.8,755.53,91.8z"/>
		<path class="st2" d="M516.56,130.8v1.2l-0.4,0.4h-2.71c-1.51,0-2.31,0.8-2.31,2.3v1.5l0.4,0.4h4.22l0.4,0.4v1.2l-0.4,0.4h-4.22
			l-0.4,0.4v16.6l-0.4,0.4h-1.51l-0.4-0.4v-16.7l-0.4-0.4h-3.12l-0.4-0.4v-1.2l0.4-0.4h3.12l0.4-0.4v-1.5c0-1.4,0.4-2.4,1.31-3.2
			c0.9-0.7,2.01-1.1,3.42-1.1h2.71L516.56,130.8z"/>
		<path class="st2" d="M526.61,156.3c-1.31,0-2.41-0.2-3.52-0.6c-1.11-0.4-2.01-1.1-2.81-1.9c-0.8-0.8-1.41-1.9-1.91-3.1
			c-0.5-1.3-0.7-2.7-0.7-4.4s0.2-3.1,0.7-4.3c0.5-1.3,1.11-2.3,1.91-3.2c0.8-0.9,1.71-1.5,2.81-1.9c1.11-0.4,2.31-0.6,3.52-0.6
			c1.31,0,2.41,0.2,3.52,0.6c1.11,0.4,2.01,1.1,2.81,1.9s1.41,1.9,1.91,3.2c0.4,1.3,0.7,2.7,0.7,4.3c0,1.7-0.2,3.1-0.7,4.4
			c-0.5,1.2-1.11,2.3-1.91,3.1c-0.8,0.9-1.71,1.5-2.81,1.9C529.12,156.1,527.91,156.3,526.61,156.3z M526.61,138.2
			c-1,0-1.91,0.2-2.71,0.6s-1.51,0.9-2.11,1.6c-0.6,0.7-1,1.5-1.41,2.5c-0.3,1-0.5,2.1-0.5,3.4s0.2,2.4,0.5,3.4s0.8,1.9,1.41,2.6
			s1.31,1.2,2.11,1.6c0.8,0.4,1.71,0.6,2.71,0.6s1.81-0.2,2.71-0.6c0.8-0.4,1.51-0.9,2.11-1.6s1-1.6,1.31-2.6c0.3-1,0.5-2.1,0.5-3.4
			s-0.2-2.4-0.5-3.4c-0.3-1-0.8-1.9-1.31-2.5c-0.6-0.7-1.31-1.2-2.11-1.6C528.52,138.3,527.61,138.2,526.61,138.2z"/>
		<path class="st2" d="M548.82,136.6l0.4,0.4v1.2l-0.4,0.4h-1.91c-1.91,0-3.32,0.6-4.22,1.8c-0.8,1.2-1.21,2.8-1.21,4.7v10.4
			l-0.4,0.4h-1.51l-0.4-0.4V137l0.4-0.4h1.21l0.4,0.4l0.4,2.3h0.4c0.6-1,1.41-1.7,2.31-2.1c0.9-0.4,2.01-0.6,3.12-0.6
			C547.41,136.6,548.82,136.6,548.82,136.6z"/>
		<path class="st2" d="M584.09,155.9h-1.91l-0.8-0.4l-15.58-22.8h-0.4v22.8l-0.4,0.4h-1.61l-0.4-0.4v-26.2l0.4-0.4h1.91l0.8,0.4
			l15.58,22.8h0.4v-22.8l0.4-0.4h1.61l0.4,0.4v26.3L584.09,155.9z"/>
		<path class="st2" d="M597.76,156.3c-1.31,0-2.41-0.2-3.52-0.6c-1.11-0.4-2.01-1.1-2.81-1.9c-0.8-0.8-1.41-1.9-1.91-3.1
			c-0.5-1.3-0.7-2.7-0.7-4.4s0.2-3.1,0.7-4.3c0.4-1.3,1.11-2.3,1.91-3.2c0.8-0.9,1.71-1.5,2.81-1.9c1.11-0.4,2.31-0.6,3.52-0.6
			c1.31,0,2.41,0.2,3.52,0.6c1.11,0.4,2.01,1.1,2.81,1.9c0.8,0.8,1.41,1.9,1.91,3.2c0.5,1.3,0.7,2.7,0.7,4.3c0,1.7-0.2,3.1-0.7,4.4
			c-0.4,1.2-1.11,2.3-1.91,3.1c-0.8,0.9-1.71,1.5-2.81,1.9C600.17,156.1,598.96,156.3,597.76,156.3z M597.76,138.2
			c-1,0-1.91,0.2-2.71,0.6c-0.8,0.4-1.51,0.9-2.11,1.6c-0.6,0.7-1,1.5-1.41,2.5c-0.3,1-0.5,2.1-0.5,3.4s0.2,2.4,0.5,3.4
			c0.3,1,0.8,1.9,1.41,2.6c0.6,0.7,1.31,1.2,2.11,1.6c0.8,0.4,1.71,0.6,2.71,0.6c0.9,0,1.81-0.2,2.61-0.6c0.8-0.4,1.51-0.9,2.11-1.6
			c0.6-0.7,1-1.6,1.41-2.6c0.3-1,0.5-2.1,0.5-3.4s-0.2-2.4-0.5-3.4s-0.8-1.9-1.41-2.5c-0.6-0.7-1.31-1.2-2.11-1.6
			C599.57,138.3,598.66,138.2,597.76,138.2z"/>
		<path class="st2" d="M619.87,136.6l0.4,0.4v1.2l-0.4,0.4h-1.91c-1.91,0-3.32,0.6-4.22,1.8c-0.8,1.2-1.31,2.8-1.31,4.7v10.4
			l-0.4,0.4h-1.51l-0.4-0.4V137l0.4-0.4h1.21l0.4,0.4l0.4,2.3h0.4c0.6-1,1.41-1.7,2.31-2.1c0.9-0.4,2.01-0.6,3.12-0.6
			C618.36,136.6,619.87,136.6,619.87,136.6z"/>
		<path class="st2" d="M633.13,155.9h-2.71c-1.41,0-2.51-0.4-3.42-1.1c-0.9-0.7-1.31-1.8-1.31-3.2v-12.7l-0.4-0.4h-3.12l-0.4-0.4
			v-1.2l0.4-0.4h3.12l0.4-0.4v-3.5l0.4-0.4h1.61l0.4,0.4v3.5l0.4,0.4h4.62l0.4,0.4v1.2l-0.4,0.4h-4.62l-0.4,0.4v12.8
			c0,1.6,0.8,2.3,2.31,2.3h2.71l0.4,0.4v1.2L633.13,155.9z"/>
		<path class="st2" d="M652.93,155.9h-1.51l-0.4-0.4V144c0-1.9-0.4-3.4-1.31-4.4c-0.9-1-2.11-1.5-3.72-1.5
			c-2.11,0-3.72,0.6-4.72,1.9c-1,1.3-1.51,2.9-1.51,5.1v10.4l-0.4,0.4h-1.51l-0.4-0.4v-26.2l0.4-0.4h1.51l0.4,0.4v10.1h0.4
			c0.6-1,1.41-1.7,2.51-2.3c1.11-0.5,2.31-0.8,3.72-0.8c2.21,0,3.92,0.7,5.13,2c1.21,1.3,1.91,3.2,1.91,5.8v11.6L652.93,155.9z"/>
		<path class="st2" d="M659.56,147l-0.4,0.4c0,0.6,0.1,1.3,0.3,2.1c0.2,0.8,0.6,1.6,1.11,2.3c0.5,0.7,1.21,1.4,2.01,1.9
			s1.91,0.8,3.22,0.8c1.51,0,2.71-0.3,3.62-1.1c0.8-0.7,1.51-1.7,1.81-2.8l0.4-0.4h1.51l0.4,0.4c-0.1,0.6-0.3,1.2-0.6,1.9
			c-0.3,0.7-0.8,1.3-1.41,1.9s-1.41,1.1-2.31,1.5c-0.9,0.4-2.11,0.6-3.42,0.6c-1.51,0-2.91-0.3-4.02-0.8s-2.01-1.3-2.81-2.2
			c-0.7-0.9-1.31-2-1.61-3.2c-0.4-1.2-0.5-2.5-0.5-3.9v-0.8c0-1.3,0.2-2.6,0.6-3.7c0.4-1.1,0.9-2.1,1.71-2.9
			c0.7-0.8,1.61-1.5,2.71-1.9c1-0.5,2.21-0.7,3.62-0.7c1.31,0,2.51,0.2,3.62,0.7s2.01,1.1,2.71,1.9c0.7,0.8,1.31,1.8,1.71,2.9
			c0.4,1.1,0.6,2.4,0.6,3.7v1.2l-0.4,0.4h-14.17V147z M671.52,144.7c0-0.7-0.1-1.4-0.3-2.2c-0.2-0.8-0.6-1.5-1-2.1
			c-0.5-0.7-1.11-1.2-1.91-1.6c-0.8-0.4-1.81-0.6-2.91-0.6c-1.21,0-2.11,0.2-2.91,0.6c-0.8,0.4-1.41,1-1.91,1.6
			c-0.5,0.7-0.8,1.4-1,2.1c-0.2,0.8-0.3,1.5-0.3,2.2l0.4,0.4h11.66L671.52,144.7z"/>
		<path class="st2" d="M687.1,136.6l0.4,0.4v1.2l-0.4,0.4h-1.91c-1.91,0-3.32,0.6-4.22,1.8c-0.8,1.2-1.21,2.8-1.21,4.7v10.4
			l-0.4,0.4h-1.51l-0.4-0.4V137l0.4-0.4h1.21l0.4,0.4l0.4,2.3h0.4c0.6-1,1.41-1.7,2.31-2.1c0.9-0.4,2.01-0.6,3.12-0.6
			C685.69,136.6,687.1,136.6,687.1,136.6z"/>
		<path class="st2" d="M706.19,155.9h-1.61l-0.4-0.4V144c0-1.9-0.5-3.4-1.41-4.4c-0.9-1-2.11-1.5-3.72-1.5
			c-2.11,0-3.72,0.6-4.72,1.9c-1,1.3-1.51,2.9-1.51,5.1v10.4l-0.4,0.4h-1.51l-0.4-0.4V137l0.4-0.4h1.21l0.4,0.4l0.4,2.3h0.4
			c0.6-1,1.41-1.7,2.51-2.3c1.11-0.5,2.31-0.8,3.72-0.8c2.21,0,3.92,0.7,5.13,2c1.21,1.3,1.81,3.2,1.81,5.8v11.6L706.19,155.9z"/>
		<path class="st2" d="M723.67,155.9h-1.51l-0.4-0.4v-26.2l0.4-0.4h1.51l0.4,0.4v26.3L723.67,155.9z"/>
		<path class="st2" d="M739.15,136.6l0.4,0.4v1.2l-0.4,0.4h-1.91c-1.91,0-3.32,0.6-4.22,1.8c-0.8,1.2-1.31,2.8-1.31,4.7v10.4
			l-0.4,0.4h-1.51l-0.4-0.4V137l0.4-0.4h1.21l0.4,0.4l0.4,2.3h0.4c0.6-1,1.41-1.7,2.31-2.1c0.9-0.4,2.01-0.6,3.12-0.6
			C737.64,136.6,739.15,136.6,739.15,136.6z"/>
		<path class="st2" d="M743.07,147l-0.4,0.4c0,0.6,0.1,1.3,0.3,2.1c0.2,0.8,0.6,1.6,1.11,2.3c0.5,0.7,1.21,1.4,2.01,1.9
			s1.91,0.8,3.22,0.8c1.51,0,2.71-0.3,3.62-1.1c0.8-0.7,1.51-1.7,1.81-2.8l0.4-0.4h1.51l0.4,0.4c-0.1,0.6-0.3,1.2-0.6,1.9
			c-0.3,0.7-0.8,1.3-1.41,1.9s-1.41,1.1-2.31,1.5c-0.9,0.4-2.11,0.6-3.42,0.6c-1.61,0-2.91-0.3-4.02-0.8s-2.01-1.3-2.81-2.2
			c-0.7-0.9-1.31-2-1.61-3.2c-0.4-1.2-0.5-2.5-0.5-3.9v-0.8c0-1.3,0.2-2.6,0.6-3.7c0.4-1.1,0.9-2.1,1.71-2.9
			c0.7-0.8,1.61-1.5,2.71-1.9c1-0.5,2.21-0.7,3.62-0.7c1.31,0,2.51,0.2,3.62,0.7s2.01,1.1,2.71,1.9c0.7,0.8,1.31,1.8,1.71,2.9
			c0.4,1.1,0.6,2.4,0.6,3.7v1.2l-0.4,0.4h-14.17V147z M755.13,144.7c0-0.7-0.1-1.4-0.3-2.2c-0.2-0.8-0.6-1.5-1-2.1
			c-0.5-0.7-1.11-1.2-1.91-1.6c-0.8-0.4-1.81-0.6-2.91-0.6c-1.21,0-2.11,0.2-2.91,0.6c-0.8,0.4-1.41,1-1.91,1.6
			c-0.5,0.7-0.8,1.4-1,2.1c-0.2,0.8-0.3,1.5-0.3,2.2l0.4,0.4h11.66L755.13,144.7z"/>
		<path class="st2" d="M762.87,155.9h-1.51l-0.4-0.4v-26.2l0.4-0.4h1.51l0.4,0.4v26.3L762.87,155.9z"/>
		<path class="st2" d="M781.96,155.9h-1.21l-0.4-0.4l-0.4-1.9h-0.4c-0.2,0.3-0.5,0.6-0.8,0.9c-0.3,0.3-0.7,0.6-1.21,0.9
			c-0.5,0.3-1.11,0.5-1.71,0.7c-0.7,0.2-1.51,0.2-2.51,0.2c-2.21,0-3.82-0.5-4.92-1.6c-1.11-1-1.71-2.5-1.71-4.2
			c0-2.1,0.7-3.7,2.21-4.7c1.41-1,3.42-1.5,6.03-1.5c0.6,0,1.21,0,1.71,0.1c0.5,0,1,0.1,1.51,0.1c0.3,0.1,0.5,0.1,0.7,0.1
			c0.2,0,0.5,0.1,0.7,0.1l0.4-0.4v-1.2c0-1.7-0.4-3-1.11-3.8c-0.7-0.8-2.01-1.2-4.02-1.2c-1,0-1.81,0.1-2.41,0.3
			c-0.7,0.2-1.21,0.5-1.61,0.9s-0.7,0.8-0.8,1.2c-0.2,0.5-0.2,0.9-0.2,1.4l-0.4,0.4h-1.51l-0.4-0.4c0-0.8,0.1-1.5,0.4-2.2
			c0.3-0.7,0.7-1.3,1.31-1.9c0.6-0.5,1.41-1,2.31-1.3s2.01-0.5,3.32-0.5c1.41,0,2.61,0.2,3.62,0.5s1.71,0.8,2.31,1.4
			c0.6,0.6,1,1.4,1.21,2.2c0.2,0.9,0.3,1.8,0.3,2.9v12.4L781.96,155.9z M779.95,147l-0.4-0.4l-0.6-0.1c-0.2,0-0.4-0.1-0.7-0.1
			c-0.4-0.1-0.8-0.1-1.31-0.1s-1.11-0.1-1.61-0.1c-2.31,0-3.92,0.4-4.82,1.1c-0.9,0.8-1.41,1.8-1.41,3.1c0,1.2,0.3,2.1,1,2.8
			c0.7,0.7,1.91,1.1,3.62,1.1c1.11,0,2.01-0.2,2.81-0.5c0.8-0.3,1.41-0.8,1.91-1.3c0.5-0.6,0.9-1.2,1.11-1.9c0.2-0.7,0.4-1.4,0.4-2
			V147z"/>
		<path class="st2" d="M802.16,155.9h-1.61l-0.4-0.4V144c0-1.9-0.5-3.4-1.41-4.4s-2.11-1.5-3.72-1.5c-2.11,0-3.72,0.6-4.72,1.9
			c-1,1.3-1.51,2.9-1.51,5.1v10.4l-0.4,0.4h-1.51l-0.4-0.4V137l0.4-0.4h1.21l0.4,0.4l0.4,2.3h0.4c0.6-1,1.41-1.7,2.51-2.3
			c1.11-0.5,2.31-0.8,3.72-0.8c2.21,0,3.92,0.7,5.13,2c1.21,1.3,1.91,3.2,1.91,5.8v11.6L802.16,155.9z"/>
		<path class="st2" d="M813.82,136.2c1.71,0,3.12,0.3,4.12,1c1,0.7,1.71,1.4,2.11,2.1h0.4v-10l0.4-0.4h1.61l0.4,0.4v26.3l-0.4,0.4
			h-1.21l-0.4-0.4l-0.4-2.3h-0.4c-0.4,0.8-1.11,1.5-2.11,2.1s-2.41,1-4.12,1c-1.41,0-2.51-0.2-3.62-0.8c-1-0.5-1.91-1.2-2.51-2.1
			c-0.7-0.9-1.21-1.9-1.51-3.2c-0.3-1.2-0.5-2.6-0.5-4c0-1.4,0.2-2.8,0.5-4c0.3-1.2,0.8-2.3,1.51-3.2c0.7-0.9,1.51-1.6,2.51-2.1
			C811.2,136.5,812.41,136.2,813.82,136.2z M814.12,138.2c-1.91,0-3.42,0.7-4.52,2c-1.11,1.3-1.71,3.4-1.71,6.1s0.6,4.8,1.71,6.1
			c1.11,1.3,2.61,2,4.52,2c1.91,0,3.52-0.7,4.52-2c1.11-1.3,1.61-3.4,1.61-6.1s-0.6-4.8-1.61-6.1
			C817.64,138.8,816.13,138.2,814.12,138.2z"/>
	</g>
	<g>
		<path class="st3" d="M125.02,3.09c64.26,0,122.48,50.18,122.48,122.17s-58.22,122.17-122.48,122.17
			C60.76,247.19,2.54,197.01,2.54,125.26S60.76,3.09,125.02,3.09L125.02,3.09z"/>
		<path class="st4" d="M8.04,125.26c0-38.3,20.05-72.24,50.67-92.6c-2.06,5.58-2.61,11.88-1.24,18.91
			C60.9,68.3,75.04,82.6,91.52,87.69H45.38c0,0,1.78,46.3,26.36,90.66c18.81,33.94,44.49,52.36,55.47,59.15h-2.33
			C60.49,237.5,8.04,187.08,8.04,125.26L8.04,125.26z"/>
		<path class="st5" d="M101.54,15.21c7.55-1.7,15.38-2.42,23.48-2.42c64.53,0,116.85,50.18,116.85,112.23
			c0,60.12-49.29,109.32-111.22,112.23c-6.32-10.18-24.3-42.91-19.22-79.51c6.04-44.12,46-70.3,46-70.3h-40.92
			c14.42-5.09,22.66-19.39,19.22-36.12C132.3,34.6,118.16,20.06,101.54,15.21L101.54,15.21z"/>
	</g>
</g>
<g>
</g>
<g>
</g>
<g>
</g>
<g>
</g>
<g>
</g>
<g>
</g>
</svg>
