<?xml version="1.0" standalone="no"?>
<!DOCTYPE svg PUBLIC "-//W3C//DTD SVG 20010904//EN"
 "http://www.w3.org/TR/2001/REC-SVG-20010904/DTD/svg10.dtd">
<svg version="1.0" xmlns="http://www.w3.org/2000/svg"
 width="700.000000pt" height="700.000000pt" viewBox="0 0 700.000000 700.000000"
 preserveAspectRatio="xMidYMid meet">
<metadata>
Created by potrace 1.14, written by Peter Selinger 2001-2017
</metadata>
<g transform="translate(0.000000,700.000000) scale(0.100000,-0.100000)"
fill="#000000" stroke="none">
<path d="M3697 6944 c-1 -1 -63 -5 -137 -8 -341 -16 -405 -22 -595 -50 -691
-104 -1327 -392 -1845 -835 -242 -207 -493 -492 -637 -723 -57 -91 -70 -118
-56 -118 4 0 148 -72 318 -161 171 -88 384 -199 475 -246 91 -47 206 -107 255
-133 50 -26 153 -80 230 -120 77 -39 144 -75 148 -80 5 -4 -7 -39 -27 -78 -49
-98 -112 -294 -141 -439 -95 -477 -12 -938 244 -1353 l46 -75 -32 -48 c-63
-94 -69 -201 -17 -297 128 -235 505 -201 582 52 71 230 -160 439 -403 364 -27
-9 -53 -16 -57 -16 -9 0 -77 110 -126 207 -57 110 -105 238 -136 359 -26 102
-28 115 -45 234 -9 63 -8 375 2 415 2 11 7 41 11 66 12 81 16 102 42 199 30
115 104 304 150 382 l33 57 -32 19 c-18 11 -117 63 -222 117 -104 54 -221 115
-260 135 -69 37 -161 85 -525 273 -347 180 -394 205 -398 215 -3 11 129 198
220 310 79 98 337 356 448 449 491 409 1127 693 1755 783 44 6 89 13 101 15
11 2 49 6 85 10 35 3 82 8 104 10 242 25 767 25 935 0 14 -2 48 -6 75 -10 41
-5 248 -46 305 -59 263 -63 509 -154 754 -278 120 -60 290 -158 294 -170 2 -4
8 -8 13 -8 20 0 226 -151 364 -265 86 -72 268 -246 353 -339 53 -58 53 -58 75
-40 45 38 45 37 -72 159 -414 431 -891 740 -1429 926 -158 54 -437 126 -567
145 -27 4 -54 8 -60 9 -5 1 -35 6 -65 10 -30 4 -64 9 -75 11 -54 9 -450 25
-458 18z m-1369 -4423 c22 -11 56 -39 76 -63 80 -93 74 -210 -14 -299 -161
-161 -450 -46 -435 173 5 86 71 168 161 203 53 20 159 13 212 -14z"/>
<path d="M3548 6225 c-2 -2 -48 -6 -103 -10 -55 -4 -102 -8 -105 -10 -3 -2
-30 -6 -60 -10 -30 -3 -62 -8 -70 -10 -8 -2 -35 -7 -60 -10 -25 -4 -96 -17
-159 -31 -551 -118 -1023 -357 -1327 -673 l-42 -44 28 -23 c15 -13 30 -24 33
-24 4 0 34 27 67 59 270 263 647 463 1100 585 128 34 342 77 450 90 19 2 58 7
85 10 176 21 388 22 565 1 89 -10 136 -16 190 -26 30 -6 69 -13 85 -15 17 -3
57 -12 90 -21 33 -8 68 -17 78 -18 179 -36 575 -207 781 -338 316 -201 613
-477 806 -750 29 -41 32 -49 19 -61 -12 -12 -526 -326 -533 -326 -1 0 -24 30
-51 68 -198 273 -447 494 -725 645 -123 66 -320 141 -430 163 -14 3 -32 7 -41
10 -33 10 -186 34 -259 41 -135 13 -432 6 -517 -12 -12 -3 -41 -7 -65 -10 -98
-13 -422 -98 -460 -121 -5 -3 -24 7 -41 24 -138 130 -379 105 -485 -51 -35
-51 -45 -84 -48 -160 -6 -156 124 -285 296 -295 102 -5 175 22 246 92 76 76
108 201 75 287 -10 27 -9 27 87 57 107 34 130 41 161 47 12 3 31 7 44 10 191
43 276 50 537 49 233 -1 312 -12 525 -69 395 -106 809 -422 1073 -817 25 -38
49 -68 53 -68 13 0 689 411 689 418 0 4 -28 48 -63 99 -343 504 -926 929
-1524 1112 -93 28 -204 58 -248 67 -62 12 -143 27 -162 29 -13 2 -42 6 -65 10
-75 12 -92 14 -168 20 -78 7 -347 14 -352 10z m-785 -847 c158 -71 195 -251
76 -370 -125 -125 -333 -90 -419 72 -7 13 -13 52 -13 86 0 100 59 181 159 218
53 20 145 17 197 -6z"/>
<path d="M6585 5701 c-94 -16 -183 -81 -228 -166 -31 -57 -31 -193 0 -250 31
-58 90 -114 153 -144 79 -37 192 -36 272 2 68 34 121 85 153 152 31 65 30 178
-3 240 -67 125 -203 190 -347 166z m157 -77 c48 -16 107 -67 133 -117 39 -76
22 -185 -40 -249 -105 -107 -270 -109 -376 -5 -113 111 -78 292 69 363 71 34
126 36 214 8z"/>
<path d="M3548 4834 c-2 -1 -32 -5 -68 -8 -61 -5 -79 -8 -140 -21 -14 -3 -34
-7 -46 -9 -11 -2 -63 -18 -114 -35 -470 -158 -806 -550 -868 -1011 -9 -70 -9
-227 0 -305 31 -253 151 -490 352 -691 113 -112 227 -192 367 -258 203 -95
355 -129 579 -130 180 -1 235 5 385 44 464 120 815 463 932 909 20 76 26 126
29 241 1 80 -1 170 -6 200 -5 30 -12 69 -14 85 -9 57 -57 190 -97 269 -64 127
-127 214 -234 322 -207 208 -458 335 -760 384 -62 9 -290 21 -297 14z m247
-807 c59 -33 98 -95 98 -154 0 -53 -35 -137 -82 -197 l-28 -35 28 -118 c16
-65 43 -175 59 -245 17 -70 33 -134 36 -141 7 -20 -116 -58 -203 -62 -107 -5
-243 34 -243 69 0 8 9 42 19 77 18 61 68 238 77 269 2 8 11 43 20 77 l16 62
-35 48 c-59 82 -85 210 -53 271 20 38 68 81 102 92 58 17 146 11 189 -13z"/>
<path d="M171 4437 c-11 -27 -57 -234 -65 -287 -3 -19 -8 -57 -12 -85 -3 -27
-8 -59 -10 -70 -2 -11 -6 -51 -10 -90 -3 -38 -8 -77 -10 -85 -10 -29 -13 -505
-4 -575 5 -38 12 -90 15 -114 38 -287 156 -663 296 -942 171 -343 353 -594
634 -874 160 -161 179 -178 295 -270 41 -33 77 -62 80 -65 11 -12 150 -111
235 -167 284 -188 474 -283 757 -379 202 -68 502 -142 651 -159 23 -3 53 -7
67 -10 58 -11 144 -21 275 -30 50 -4 106 -8 125 -11 44 -5 455 -4 532 1 122 7
227 16 252 21 21 4 30 -3 52 -38 111 -180 366 -208 511 -56 57 60 78 114 77
198 -1 89 -17 132 -73 193 -153 165 -435 125 -526 -76 -13 -29 -25 -71 -26
-93 -3 -41 -3 -42 -48 -48 -188 -26 -814 -27 -946 -1 -11 2 -49 6 -85 10 -78
6 -95 9 -275 42 -77 13 -198 40 -270 59 -71 19 -147 39 -168 45 -73 18 -314
111 -422 163 -241 116 -586 344 -815 541 -87 74 -363 359 -431 445 -342 430
-549 875 -654 1410 -3 14 -8 44 -11 66 -2 23 -6 51 -9 62 -25 131 -25 509 0
707 2 17 6 55 10 85 3 30 8 62 10 70 2 8 6 38 10 65 3 28 8 59 10 70 3 11 7
33 10 49 11 72 27 136 34 140 4 3 34 -2 67 -11 32 -8 66 -16 74 -18 8 -2 53
-13 100 -25 47 -12 92 -24 100 -25 80 -20 296 -77 299 -80 3 -4 -7 -48 -24
-105 -39 -131 -62 -319 -63 -514 0 -190 7 -257 45 -426 56 -256 138 -488 250
-710 90 -178 93 -183 175 -306 119 -177 279 -359 402 -456 l49 -39 23 33 23
33 -56 50 c-161 142 -323 338 -438 530 -134 222 -267 543 -320 771 -65 278
-67 294 -68 499 -2 235 17 372 80 578 20 64 34 119 32 121 -2 2 -76 22 -164
45 -88 22 -266 67 -395 100 -129 33 -238 61 -243 61 -4 0 -11 -11 -16 -23z
m4519 -3869 c56 -15 140 -96 157 -151 46 -154 -86 -306 -259 -300 -211 8 -314
252 -165 394 74 71 153 88 267 57z"/>
<path d="M5238 2744 c-2 -1 -17 -4 -34 -7 -172 -27 -290 -214 -236 -376 13
-42 54 -108 75 -122 8 -6 -92 -90 -175 -147 -313 -214 -743 -353 -1093 -353
-173 -1 -263 7 -435 36 -169 29 -392 99 -544 171 -67 32 -70 32 -85 14 -22
-26 -40 -48 -86 -105 -22 -27 -101 -124 -175 -215 -75 -91 -166 -201 -202
-246 l-66 -81 76 -44 c207 -118 525 -235 747 -274 17 -2 41 -7 55 -10 55 -12
222 -35 301 -42 165 -15 686 -7 759 12 8 2 35 7 60 10 263 34 626 153 855 279
120 67 142 79 235 141 225 147 401 304 622 553 35 40 136 175 173 234 l30 46
110 -53 c332 -159 485 -235 485 -241 0 -15 -153 -237 -228 -330 -77 -96 -268
-296 -362 -379 -178 -157 -442 -343 -625 -441 -49 -26 -91 -48 -93 -49 -5 -4
31 -75 38 -75 26 0 381 219 486 300 21 17 52 40 69 53 180 136 404 354 552
537 107 134 293 413 281 425 -4 4 -412 203 -555 271 -51 24 -115 55 -142 68
l-49 25 -40 -67 c-204 -343 -608 -719 -998 -928 -229 -123 -531 -231 -754
-270 -25 -4 -47 -8 -50 -9 -3 -1 -32 -5 -65 -9 -32 -4 -67 -9 -76 -11 -88 -17
-516 -25 -673 -12 -215 17 -473 68 -666 129 -196 63 -437 172 -422 192 10 13
412 507 423 520 4 4 51 -10 106 -32 157 -64 333 -115 488 -141 33 -6 71 -12
85 -15 106 -20 424 -29 530 -15 402 53 806 223 1096 460 l73 60 57 -17 c153
-44 325 31 384 169 82 188 -53 394 -270 410 -27 2 -51 3 -52 1z m157 -94 c58
-32 72 -47 101 -107 117 -239 -210 -445 -406 -255 -128 125 -76 326 100 383
46 15 162 4 205 -21z"/>
</g>
</svg>
