<svg enable-background="new 0 0 595.8 130.9" viewBox="0 0 595.8 130.9" xmlns="http://www.w3.org/2000/svg"><path d="m328.5 33.2h1.5c1.4 0 2.3-.3 2.6-1s.4-4 .4-10v-7.9c0-6.2-.1-9.6-.4-10.2s-1-1-2.2-1h-1.9v-1.4c2.6.1 5.1.2 7.6.2 2.1 0 4-.1 5.7-.2v1.5h-1.8c-1.1 0-1.8.1-2.1.4s-.4.9-.5 2c-.1 1.7-.1 4.6-.1 8.8v8c0 6 .1 9.3.4 9.9s1.1.9 2.5.9h1.5v1.5c-1.9-.1-4-.2-6.2-.2-2.6 0-5 .1-7.1.2v-1.5z"/><path d="m351.5 16.7 3.5-3.1c.4-.4.9-.6 1.3-.8 1-.3 2-.5 3.1-.5 1.7 0 3.1.3 4.3 1s2.1 1.5 2.6 2.6.8 2.8.8 5l-.1 7.3c0 2.5.1 4 .3 4.4.3.5.9.7 1.7.7h1.7v1.3c-1.6-.1-3.1-.2-4.3-.2s-2.4.1-3.8.2c.3-3 .4-7.1.4-12.2 0-2.1-.2-3.5-.5-4.4-.4-.9-1-1.6-1.8-2.1-.9-.5-1.9-.8-3.1-.8-1.5 0-2.8.4-3.8 1.1-1 .8-1.7 1.6-1.9 2.5-.2.6-.2 2.2-.2 4.7 0 2.8 0 5.5.1 7.9 0 .7.1 1.2.3 1.4.4.4 1 .5 1.9.5h1.7v1.3c-2.6-.1-4.7-.2-6.2-.2-1.6 0-3.5.1-5.6.2v-1.3h1.7c1.1 0 1.8-.3 2-.8s.3-3.7.3-9.6c0-2.6 0-4.7-.1-6.2 0-.5-.2-.8-.4-1s-.8-.3-1.8-.3h-1.7v-1.3c1.3-.2 2.5-.4 3.6-.6 1-.3 2.2-.7 3.5-1.2.1-.1.3-.1.4-.1.2 0 .4.2.4.5v.9z"/><path d="m390.5 13.7v-8.4c0-1-.1-1.6-.3-1.8s-.7-.4-1.5-.4h-2v-1.4c2.8-.2 5.3-.7 7.7-1.7l.4.3c-.1 1.6-.2 3.5-.3 5.7l-.1 6.2v2 13.8c0 2.6.1 4 .2 4.3.2.4.9.7 1.9.8l1.6.2v1.3c-1.9-.1-3.6-.2-5-.2-.3 0-1.2.1-2.9.2.1-1 .2-2.5.3-4.5-1.3 1-3 2.4-5 4.3-1.3.4-2.5.6-3.5.6-2.6 0-4.8-1-6.6-2.9-1.8-2-2.6-4.6-2.6-7.9 0-2.1.3-3.8 1-5.3s1.5-2.5 2.4-3.2 2.4-1.5 4.4-2.5c1.5-.8 2.9-1.1 4.2-1.1.9 0 1.8.1 2.7.3 1.1.5 2 .8 3 1.3zm0 4c-1.1-1.1-2.2-2-3.3-2.6s-2.3-.9-3.6-.9c-2 0-3.6.7-4.9 2.2-1.2 1.5-1.9 3.6-1.9 6.5s.7 5.2 2.1 6.8 3.1 2.5 5.1 2.5c1.2 0 2.4-.3 3.4-1s1.8-1.6 2.3-2.7.7-2.8.7-5.2v-5.6z"/><path d="m405.5 23.5c.1 3 .9 5.4 2.3 6.9 1.5 1.6 3.4 2.4 5.8 2.4 1.1 0 2.2-.2 3.2-.5s2.1-.9 3.2-1.6l.4.3-.7 1.9c-1.3.7-2.6 1.3-4 1.7s-2.8.6-4.2.6c-3.1 0-5.7-1-7.6-3s-2.9-4.7-2.9-8.1c0-2.6.5-4.8 1.6-6.7.7-1.3 2-2.4 3.9-3.5s3.8-1.6 5.6-1.6c2.7 0 4.9.8 6.5 2.4s2.4 3.9 2.4 6.7v1.4c-1 .2-2 .4-2.9.5-1.7.1-3.9.2-6.9.2zm0-1.8c2.4.1 5 .2 7.9.2 1.2 0 2.3-.1 3.4-.2v-1.3c0-1.4-.3-2.7-.8-3.9-.3-.8-.9-1.4-1.8-1.9-.8-.5-1.8-.8-2.9-.8-1.7 0-3.1.6-4.1 1.9-1.1 1.4-1.6 3.4-1.7 6z"/><path d="m431.5 17 3.2-2.9c.8-.7 1.5-1.2 2.1-1.4.9-.3 2-.4 3.2-.4 2.7 0 5 .9 6.7 2.6s2.5 3.9 2.5 6.6c0 1.3-.2 2.7-.6 4s-.9 2.4-1.4 3.2c-.6.8-1.2 1.5-1.9 2.1-.2.2-1.2.8-2.8 1.8l-.9.7c-1.2.8-2.1 1.4-2.8 1.6-.7.3-1.5.4-2.5.4-.7 0-1.5-.1-2.3-.3s-1.6-.5-2.5-.9v3.3c0 3.4 0 5.7.1 7.1 0 .6.2 1 .6 1.3.3.3 1.1.4 2.2.4h1.3v1.3c-2.9-.1-5.1-.2-6.4-.2-1.5 0-3.4.1-5.7.2v-1.5h1.7c1.2 0 1.9-.3 2.1-.8s.3-3.2.3-8.2v-14.1c0-2.5-.1-4.4-.2-5.7-.1-.6-.2-1.1-.5-1.3-.2-.2-.8-.3-1.7-.3h-1.8v-1.4c2.2-.2 4.3-.7 6.3-1.3l1.4-.6c.2 0 .4.2.4.6l-.1 2.5zm0 12.7c1 1.1 2 1.9 3 2.4s2.1.7 3.2.7c2.4 0 4.3-.9 5.6-2.8 1.3-1.8 1.9-4 1.9-6.6 0-1.7-.3-3.2-.9-4.4s-1.5-2.2-2.6-2.9-2.4-1-3.7-1c-.9 0-1.8.2-2.7.6s-1.7.9-2.3 1.5c-.7.7-1.1 1.3-1.3 1.8-.1.4-.2 1.5-.2 3.3z"/><path d="m456.7 23.5c.1 3 .9 5.4 2.3 6.9 1.5 1.6 3.4 2.4 5.8 2.4 1.1 0 2.2-.2 3.2-.5 1.1-.4 2.1-.9 3.2-1.6l.4.3-.7 1.9c-1.3.7-2.6 1.3-4 1.7s-2.8.6-4.2.6c-3.1 0-5.7-1-7.6-3s-2.9-4.7-2.9-8.1c0-2.6.5-4.8 1.6-6.7.7-1.3 2-2.4 3.9-3.5s3.8-1.6 5.6-1.6c2.7 0 4.9.8 6.5 2.4s2.4 3.9 2.4 6.7v1.4c-1 .2-2 .4-2.9.5-1.7.1-3.9.2-6.9.2zm.1-1.8c2.4.1 5 .2 7.9.2 1.2 0 2.3-.1 3.4-.2v-1.3c0-1.4-.3-2.7-.8-3.9-.3-.8-.9-1.4-1.8-1.9-.8-.5-1.8-.8-2.9-.8-1.7 0-3.1.6-4.1 1.9-1.1 1.4-1.7 3.4-1.7 6z"/><path d="m482.1 16.7 3.5-3.1c.4-.4.9-.6 1.3-.8 1-.3 2-.5 3.1-.5 1.7 0 3.1.3 4.3 1s2.1 1.5 2.6 2.6.8 2.8.8 5l-.1 7.3c0 2.5.1 4 .3 4.4.3.5.9.7 1.7.7h1.7v1.3c-1.6-.1-3.1-.2-4.3-.2s-2.4.1-3.8.2c.3-3 .4-7.1.4-12.2 0-2.1-.2-3.5-.5-4.4-.4-.9-1-1.6-1.8-2.1-.9-.5-1.9-.8-3.1-.8-1.5 0-2.8.4-3.8 1.1-1 .8-1.7 1.6-1.9 2.5-.2.6-.2 2.2-.2 4.7 0 2.8 0 5.5.1 7.9 0 .7.1 1.2.3 1.4.4.4 1 .5 1.9.5h1.7v1.3c-2.6-.1-4.7-.2-6.2-.2-1.6 0-3.5.1-5.6.2v-1.3h1.7c1.1 0 1.8-.3 2-.8s.3-3.7.3-9.6c0-2.6 0-4.7-.1-6.2 0-.5-.2-.8-.4-1s-.8-.3-1.8-.3h-1.7v-1.3c1.3-.2 2.5-.4 3.6-.6 1-.3 2.2-.7 3.5-1.2.1-.1.3-.1.4-.1.2 0 .4.2.4.5v.9z"/><path d="m521.1 13.7v-8.4c0-1-.1-1.6-.3-1.8s-.7-.4-1.5-.4h-2v-1.4c2.8-.2 5.3-.7 7.7-1.7l.4.3c-.1 1.6-.2 3.5-.3 5.7l-.1 6.2v2 13.8c0 2.6.1 4 .2 4.3.2.4.9.7 1.9.8l1.6.2v1.3c-1.9-.1-3.6-.2-5-.2-.3 0-1.2.1-2.9.2.1-1 .2-2.5.3-4.5-1.3 1-3 2.4-5 4.3-1.3.4-2.5.6-3.5.6-2.6 0-4.8-1-6.6-2.9-1.8-2-2.6-4.6-2.6-7.9 0-2.1.3-3.8 1-5.3s1.5-2.5 2.4-3.2 2.4-1.5 4.4-2.5c1.5-.8 2.9-1.1 4.2-1.1.9 0 1.8.1 2.7.3 1.1.5 2.1.8 3 1.3zm0 4c-1.1-1.1-2.2-2-3.3-2.6s-2.3-.9-3.6-.9c-2 0-3.6.7-4.9 2.2-1.2 1.5-1.9 3.6-1.9 6.5s.7 5.2 2.1 6.8 3.1 2.5 5.1 2.5c1.2 0 2.4-.3 3.4-1s1.8-1.6 2.3-2.7.7-2.8.7-5.2v-5.6z"/><path d="m536.1 23.5c.1 3 .9 5.4 2.3 6.9 1.5 1.6 3.4 2.4 5.8 2.4 1.1 0 2.2-.2 3.2-.5s2.1-.9 3.2-1.6l.4.3-.7 1.9c-1.3.7-2.6 1.3-4 1.7s-2.8.6-4.2.6c-3.1 0-5.7-1-7.6-3s-2.9-4.7-2.9-8.1c0-2.6.5-4.8 1.6-6.7.7-1.3 2-2.4 3.9-3.5s3.8-1.6 5.6-1.6c2.7 0 4.9.8 6.5 2.4s2.4 3.9 2.4 6.7v1.4c-1 .2-2 .4-2.9.5-1.7.1-3.9.2-6.9.2zm.1-1.8c2.4.1 5 .2 7.9.2 1.2 0 2.3-.1 3.4-.2v-1.3c0-1.4-.3-2.7-.8-3.9-.3-.8-.9-1.4-1.8-1.9-.8-.5-1.8-.8-2.9-.8-1.7 0-3.1.6-4.1 1.9-1.2 1.4-1.7 3.4-1.7 6z"/><path d="m561.5 16.7 3.5-3.1c.4-.4.9-.6 1.3-.8 1-.3 2-.5 3.1-.5 1.7 0 3.1.3 4.3 1s2.1 1.5 2.6 2.6.8 2.8.8 5l-.1 7.3c0 2.5.1 4 .3 4.4.3.5.9.7 1.7.7h1.7v1.3c-1.6-.1-3.1-.2-4.3-.2s-2.4.1-3.8.2c.3-3 .4-7.1.4-12.2 0-2.1-.2-3.5-.5-4.4-.4-.9-1-1.6-1.8-2.1s-1.9-.8-3.1-.8c-1.5 0-2.8.4-3.8 1.1-1 .8-1.7 1.6-1.9 2.5-.2.6-.2 2.2-.2 4.7 0 2.8 0 5.5.1 7.9 0 .7.1 1.2.3 1.4.4.4 1 .5 1.9.5h1.7v1.3c-2.6-.1-4.7-.2-6.2-.2-1.6 0-3.5.1-5.6.2v-1.3h1.7c1.1 0 1.8-.3 2-.8s.3-3.7.3-9.6c0-2.6 0-4.7-.1-6.2 0-.5-.2-.8-.4-1s-.8-.3-1.8-.3h-1.7v-1.3c1.3-.2 2.5-.4 3.6-.6 1-.3 2.2-.7 3.5-1.2.1-.1.3-.1.4-.1.2 0 .4.2.4.5v.9z"/><path d="m589.4 16.5v9.1c0 2.4.1 3.9.2 4.5s.5 1.2.9 1.6c.5.4 1.1.6 1.8.6.4 0 .9-.1 1.3-.3s.8-.4 1.3-.8l.7.8-2.3 2.6c-.5.2-1 .3-1.4.4-.5.1-.9.1-1.4.1-1.1 0-2.1-.2-2.9-.6s-1.4-.9-1.7-1.6c-.4-.7-.5-1.6-.5-3l.1-4.5v-8.8c-1.2 0-2.4.1-3.7.2v-1c1.3-.5 2.6-1 3.7-1.6 0-2.2-.1-4.6-.2-7.2 1.8-.8 3.1-1.4 3.9-1.8l.6.5c-.1 1.2-.3 4.1-.4 8.6 1.9 0 3.4 0 4.6-.1l1.9-.1-.3 2.4h-1-4.5z"/><path d="m345.4 65.8c1.5 2.2 3.4 4.7 5.6 7.6l4.5 5.8c.8 1 1.3 1.6 1.6 1.7s.5.2.8.2h.6v1.5c-1.3-.1-2.4-.2-3.4-.2-.9 0-1.8.1-2.8.2l-8.2-11.1c-1.5-2-3.2-4-4.9-6l.2-.8c.9.1 1.6.1 2 .1 2.6 0 4.6-.7 6.1-2s2.2-3.1 2.2-5.3c0-2-.6-3.6-1.9-4.7-1.2-1.1-3-1.7-5.4-1.7-1.6 0-3.3.3-4.9.9-.2 2.5-.3 5.1-.3 7.9v11.2c0 5.5.1 8.5.4 9.1s1.1.9 2.6.9h1.8v1.5c-2.6-.1-4.7-.2-6.4-.2-1.3 0-3.7.1-7.2.2v-1.5h1.7c1.3 0 2.1-.3 2.4-.9.2-.6.4-3.6.4-9.1v-11.2c0-4.8-.1-7.5-.4-8-.3-.6-1.2-.9-2.8-.9h-1.3v-1.5c2.9.1 5.1.2 6.6.2 1 0 2.5 0 4.4-.1 2.2-.1 3.8-.1 4.8-.1 2.7 0 4.7.3 6.1.8s2.4 1.4 3.2 2.4c.7 1.1 1.1 2.3 1.1 3.8 0 2.2-.8 4.1-2.4 5.8-1.5 1.7-3.8 2.9-6.8 3.5z"/><path d="m364.6 71.3c.1 3 .9 5.4 2.3 6.9 1.5 1.6 3.4 2.4 5.8 2.4 1.1 0 2.2-.2 3.2-.5 1.1-.4 2.1-.9 3.2-1.6l.4.3-.7 1.9c-1.3.7-2.6 1.3-4 1.7s-2.8.6-4.2.6c-3.1 0-5.7-1-7.6-3s-2.9-4.7-2.9-8.1c0-2.6.5-4.8 1.6-6.7.7-1.3 2-2.4 3.9-3.5s3.8-1.6 5.6-1.6c2.7 0 4.9.8 6.5 2.4s2.4 3.9 2.4 6.7v1.4c-1 .2-2 .4-2.9.5-1.7.1-3.9.2-6.9.2zm0-1.7c2.4.1 5 .2 7.9.2 1.2 0 2.3-.1 3.4-.2v-1.3c0-1.4-.3-2.7-.8-3.9-.3-.8-.9-1.4-1.8-1.9-.8-.5-1.8-.8-2.9-.8-1.7 0-3.1.6-4.1 1.9-1.1 1.3-1.7 3.3-1.7 6z"/><path d="m390.5 64.8 3.2-2.9c.8-.7 1.5-1.2 2.1-1.4.9-.3 2-.4 3.2-.4 2.7 0 5 .8 6.7 2.5s2.5 3.9 2.5 6.6c0 1.3-.2 2.7-.6 4s-.9 2.4-1.4 3.2c-.6.8-1.2 1.5-1.9 2.1-.2.2-1.2.8-2.8 1.8l-.9.7c-1.2.8-2.1 1.4-2.8 1.6s-1.5.4-2.5.4c-.7 0-1.5-.1-2.3-.3s-1.6-.5-2.5-.9v3.2c0 3.4 0 5.7.1 7.1 0 .6.2 1 .6 1.3.3.3 1.1.4 2.2.4h1.3v1.3c-2.9-.1-5.1-.2-6.4-.2-1.5 0-3.4.1-5.7.2v-1.3h1.7c1.2 0 1.9-.3 2.1-.8s.3-3.2.3-8.2v-14.1c0-2.5-.1-4.4-.2-5.7-.1-.6-.2-1.1-.5-1.3-.2-.2-.8-.3-1.7-.3h-1.8v-1.4c2.2-.2 4.3-.7 6.3-1.3l1.4-.6c.2 0 .4.2.4.6l-.1 2.5zm0 12.7c1 1.1 2 1.9 3 2.4s2.1.7 3.2.7c2.4 0 4.3-.9 5.6-2.8 1.3-1.8 1.9-4 1.9-6.6 0-1.7-.3-3.2-.9-4.4s-1.5-2.2-2.6-2.9-2.4-1-3.7-1c-.9 0-1.8.2-2.7.6s-1.7.9-2.3 1.5c-.7.7-1.1 1.3-1.3 1.8-.1.4-.2 1.5-.2 3.3z"/><path d="m411.8 71.4c0-2.1.5-4.1 1.5-5.8s2.4-3.1 4.2-4 3.8-1.5 6.1-1.5c3.3 0 5.9 1 7.9 2.9s3 4.5 3 7.8c0 3.8-1.3 6.9-3.9 9.1-2.3 2-5.1 3-8.3 3-3.1 0-5.6-1-7.5-3.1-2.1-2-3-4.8-3-8.4zm4.3-1.6c0 3.2.7 5.9 2 8.2s3.2 3.4 5.6 3.4c1.9 0 3.4-.7 4.5-2.1 1.2-1.4 1.7-3.6 1.7-6.5 0-2.3-.3-4.4-1-6.1s-1.6-3-2.7-3.7c-1.1-.8-2.4-1.2-3.7-1.2-1.2 0-2.3.3-3.3.9s-1.7 1.4-2.2 2.5c-.6 1.4-.9 2.9-.9 4.6z"/><path d="m444.8 65.4c.6-.6 1.3-1.4 2-2.3.9-1.1 1.7-1.9 2.4-2.3s1.5-.6 2.3-.6c.9 0 1.5.1 2 .3.2.1.3.2.3.4v.2c-.2 1.3-.4 3-.4 5.3h-1c-.4-.8-.8-1.3-1.3-1.7-.5-.3-1.1-.5-1.7-.5-.9 0-1.8.3-2.5.9-.8.6-1.3 1.5-1.6 2.6s-.4 3.3-.4 6.6c0 2.1.1 4 .3 5.4.1.5.2.9.5 1 .6.3 1.5.5 2.6.5h1.4v1.3c-2.4-.1-4.6-.2-6.7-.2s-4.1.1-6.1.2v-1.3l2.1-.2c.8-.1 1.3-.2 1.5-.4s.3-1 .4-2.2c.1-2.2.2-4.9.2-7.9 0-3.7-.1-5.9-.4-6.6-.2-.4-.8-.6-1.9-.6h-1.9v-1.3c1.5-.2 2.8-.4 4-.7s2.2-.6 3.1-1c.2-.1.4-.2.5-.2.2 0 .3 0 .3.1.1.1.1.3.1.6z"/><path d="m463.4 64.3v9.1c0 2.4.1 3.9.2 4.5.2.7.5 1.2.9 1.6.5.4 1.1.6 1.8.6.4 0 .9-.1 1.3-.3s.8-.4 1.3-.8l.7.8-2.3 2.6c-.5.2-1 .3-1.4.4-.5.1-.9.1-1.4.1-1.1 0-2.1-.2-2.9-.6s-1.4-.9-1.7-1.6c-.4-.7-.5-1.6-.5-3l.1-4.5v-8.8c-1.2 0-2.4.1-3.7.2v-1c1.3-.5 2.6-1 3.7-1.6 0-2.2-.1-4.6-.2-7.2 1.8-.8 3.1-1.4 3.9-1.8l.6.5c-.1 1.2-.3 4.1-.4 8.6 1.9 0 3.4 0 4.6-.1l1.9-.1-.3 2.4h-1-4.5z"/><path d="m479 60 .6.3c-.1 1.2-.2 2.4-.2 3.8-.1 4.5-.2 7.8-.2 10 0 2 .1 3.7.2 5.1.1.6.2.9.4 1.2.2.2.8.4 1.7.5l1.6.2v1.3c-2.3-.1-4.3-.2-6.2-.2-1.8 0-3.7.1-5.5.2v-1.3l2-.2c.8-.1 1.2-.2 1.4-.4s.3-1 .3-2.2c.1-2 .1-4.7.1-8.1 0-2.4 0-4.3-.1-5.6 0-.5-.2-.8-.4-1s-.8-.3-1.6-.3h-1.7v-1.3c1.9-.3 3.3-.5 4.2-.8.9-.2 2-.6 3.4-1.2zm-1.8-10.2c.7 0 1.3.3 1.8.8s.8 1.1.8 1.9c0 .7-.3 1.3-.8 1.9s-1.1.8-1.8.8-1.3-.3-1.9-.8c-.5-.5-.8-1.1-.8-1.9 0-.7.3-1.3.8-1.9s1.1-.8 1.9-.8z"/><path d="m492.4 64.5 3.5-3.1c.4-.4.9-.6 1.3-.8 1-.3 2-.5 3.1-.5 1.7 0 3.1.3 4.3 1s2.1 1.5 2.6 2.6.8 2.8.8 5l-.1 7.3c0 2.5.1 4 .3 4.4.3.5.9.7 1.7.7h1.7v1.3c-1.6-.1-3.1-.2-4.3-.2s-2.4.1-3.8.2c.3-3 .4-7.1.4-12.2 0-2.1-.2-3.5-.5-4.4-.4-.9-1-1.6-1.8-2.1-.9-.5-1.9-.8-3.1-.8-1.5 0-2.8.4-3.8 1.1-1 .8-1.7 1.6-1.9 2.5-.2.6-.2 2.2-.2 4.7 0 2.8 0 5.5.1 7.9 0 .7.1 1.2.3 1.4.4.4 1 .5 1.9.5h1.7v1.3c-2.6-.1-4.7-.2-6.2-.2-1.6 0-3.5.1-5.6.2v-1.3h1.7c1.1 0 1.8-.3 2-.8s.3-3.7.3-9.6c0-2.6 0-4.7-.1-6.2 0-.5-.2-.8-.4-1s-.8-.3-1.8-.3h-1.7v-1.3c1.3-.2 2.5-.4 3.6-.6 1-.3 2.2-.7 3.5-1.2.1-.1.3-.1.4-.1.2 0 .4.2.4.5v.9z"/><path d="m532.4 64.4c.4 1 .5 1.8.5 2.4 0 1.4-.4 2.7-1.3 4-.8 1.3-2 2.3-3.6 3.1-1.5.8-3.2 1.2-5 1.2h-1.1c-1 .8-1.7 1.3-1.9 1.7-.3.4-.4.7-.4 1.1 0 .6.3 1 .9 1.4.6.3 1.8.5 3.7.5.7 0 1.7 0 3.1-.1 1.9-.1 3.3-.1 4.1-.1 1.2 0 2.2.2 2.8.6s1.2 1.1 1.7 2.1.7 2.1.7 3.3c0 1.7-.5 3.4-1.6 5s-2.6 2.9-4.6 3.8c-2 1-4.3 1.4-6.9 1.4-3.2 0-5.6-.7-7.3-2.1s-2.6-3.1-2.6-5.1c0-1.3.4-2.5 1.3-3.8 1.6-.8 3-1.5 4.1-2.3-1.3-.4-2.1-.8-2.4-1.1-.4-.3-.5-.8-.5-1.3 0-.6.2-1.3.5-1.9.2-.4.7-.9 1.5-1.4l2.2-1.6c-1.9-.5-3.2-1.1-4-2-1.1-1.1-1.6-2.6-1.6-4.4 0-1.6.4-3 1.2-4.3s2-2.3 3.5-3c2-.9 3.9-1.4 5.8-1.4 1.2 0 2.2.2 3.1.5s1.8.8 2.7 1.6h1.9c2 0 3.6-.1 4.7-.2l.3.5c-.5.7-.9 1.4-1.2 2.1h-4.3zm-9.8 18.5c-1.1 0-1.8.1-2.2.4-1.3.8-2.1 1.5-2.4 2-.5.8-.7 1.8-.7 3 0 1.7.6 3.1 1.9 4.2 1.2 1.1 3 1.6 5.2 1.6 1.7 0 3.2-.3 4.5-1 1.3-.6 2.3-1.5 3-2.6s1.1-2.2 1.1-3.4c0-1-.2-1.9-.8-2.6-.5-.8-1.1-1.2-1.8-1.5-.4-.1-1.2-.2-2.4-.2h-5.4zm6.3-14.8c0-1.9-.5-3.5-1.5-4.7s-2.2-1.8-3.7-1.8-2.7.5-3.6 1.4c-.9 1-1.4 2.3-1.4 4 0 2.1.5 3.7 1.5 4.9s2.2 1.8 3.7 1.8 2.7-.5 3.6-1.5c1-1 1.4-2.3 1.4-4.1z"/><path d="m356.9 104.4-.2-4.1c-1.4-.9-2.8-1.6-4.3-2s-3.1-.7-4.7-.7c-4.2 0-7.5 1.3-10 3.8s-3.8 5.9-3.8 10.2c0 3 .6 5.6 1.9 8 1.3 2.3 3.1 4.2 5.4 5.5 2.3 1.4 4.8 2 7.4 2 2.1 0 4.1-.2 6.1-.7 1.5-.4 3-1.1 4.6-2.2l.5.5c-.3.7-.6 1.4-.9 2.2-1.8.9-3.6 1.6-5.5 2-1.8.5-3.7.7-5.5.7-3.8 0-7.1-.7-10-2.2s-5.1-3.5-6.6-6.1-2.3-5.5-2.3-8.8.8-6.2 2.3-8.8 3.8-4.6 6.6-6c2.9-1.4 6.4-2.1 10.5-2.1 2.2 0 4.7.4 7.6 1.1 1.5.3 2.6.6 3.5.8-.7 1.7-1.1 4-1.2 7h-1.4z"/><path d="m362.4 117.9c0-2.1.5-4.1 1.5-5.8s2.4-3.1 4.2-4c1.8-1 3.8-1.5 6.1-1.5 3.3 0 5.9 1 7.9 2.9s3 4.5 3 7.8c0 3.8-1.3 6.9-3.9 9.1-2.3 2-5.1 3-8.3 3-3.1 0-5.6-1-7.5-3.1-2-2-3-4.8-3-8.4zm4.4-1.6c0 3.2.7 5.9 2 8.2s3.2 3.4 5.6 3.4c1.9 0 3.4-.7 4.5-2.1 1.2-1.4 1.7-3.6 1.7-6.5 0-2.3-.3-4.4-1-6.1s-1.6-3-2.7-3.7c-1.1-.8-2.4-1.2-3.7-1.2-1.2 0-2.3.3-3.3.9s-1.7 1.4-2.2 2.5c-.6 1.4-.9 2.9-.9 4.6z"/><path d="m395.6 110.8 3.1-2.8c.5-.4 1-.8 1.6-1 .8-.3 1.6-.4 2.4-.4 1.7 0 3.1.3 4.2.9s2 1.8 2.9 3.4l3-2.7c.5-.5 1.1-.8 1.9-1.1 1-.3 1.9-.5 2.8-.5 1.4 0 2.7.3 3.8 1 1.1.6 2 1.5 2.5 2.5s.8 2.4.8 4.2l-.1 9.1c0 2 .1 3.2.3 3.6s.8.6 1.8.6l1.7.1v1.3l-1.1-.1c-1.8-.1-3-.1-3.7-.1-1 0-2.1.1-3.4.2.2-2.9.3-6.2.3-10 0-3.2-.1-5.4-.4-6.4s-.8-1.8-1.6-2.4-1.8-.9-3-.9c-1.3 0-2.5.4-3.4 1.1-1 .7-1.5 1.6-1.8 2.6-.2.6-.2 3.4-.2 8.3 0 2.9 0 4.5.1 4.9s.2.7.4.8c.2.2.9.3 2 .4l1.6.2v1.3c-2.7-.1-4.7-.2-6-.2-1 0-3 .1-5.9.2v-1.3h1.6c.9 0 1.5-.1 1.8-.4s.4-.9.5-1.9c.1-2.5.2-5.2.2-7.9 0-2.5-.2-4.2-.5-5.1s-.9-1.7-1.7-2.2-1.7-.8-2.9-.8-2.3.3-3.2 1-1.6 1.5-2 2.4c-.2.6-.3 2.5-.3 5.5 0 3.3 0 5.8.1 7.3 0 .7.1 1.2.3 1.4s.9.4 2 .5l1.6.2v1.3c-1.9-.1-3.8-.2-5.5-.2-1.9 0-4.1.1-6.4.2v-1.3h1.8c1 0 1.6-.3 1.8-.8s.3-3.4.3-8.7c0-3.9 0-6.2-.1-6.9 0-.7-.2-1.1-.4-1.3s-.9-.3-2-.3h-1.4v-1.3c2.3-.3 4.2-.7 5.9-1.3l1.7-.6c.3 0 .4.2.4.6v.8c-.2 1-.2 1.9-.2 3z"/><path d="m437.5 110.8 3.1-2.8c.5-.4 1-.8 1.6-1 .8-.3 1.6-.4 2.4-.4 1.7 0 3.1.3 4.2.9s2 1.8 2.9 3.4l3-2.7c.5-.5 1.1-.8 1.9-1.1 1-.3 1.9-.5 2.8-.5 1.4 0 2.7.3 3.8 1 1.1.6 2 1.5 2.5 2.5s.8 2.4.8 4.2l-.1 9.1c0 2 .1 3.2.3 3.6s.8.6 1.8.6l1.7.1v1.3l-1.1-.1c-1.8-.1-3-.1-3.7-.1-1 0-2.1.1-3.4.2.2-2.9.3-6.2.3-10 0-3.2-.1-5.4-.4-6.4s-.8-1.8-1.6-2.4-1.8-.9-3-.9c-1.3 0-2.5.4-3.4 1.1-1 .7-1.5 1.6-1.8 2.6-.2.6-.2 3.4-.2 8.3 0 2.9 0 4.5.1 4.9 0 .4.2.7.4.8.2.2.9.3 2 .4l1.6.2v1.3c-2.7-.1-4.7-.2-6-.2-1 0-3 .1-5.9.2v-1.3h1.6c.9 0 1.5-.1 1.8-.4s.4-.9.5-1.9c.1-2.5.2-5.2.2-7.9 0-2.5-.2-4.2-.5-5.1s-.9-1.7-1.7-2.2-1.7-.8-2.9-.8-2.3.3-3.2 1-1.6 1.5-2 2.4c-.2.6-.3 2.5-.3 5.5 0 3.3 0 5.8.1 7.3 0 .7.1 1.2.3 1.4s.9.4 2 .5l1.6.2v1.3c-1.9-.1-3.8-.2-5.5-.2-1.9 0-4.1.1-6.4.2v-1.3h1.8c1 0 1.6-.3 1.8-.8s.3-3.4.3-8.7c0-3.9 0-6.2-.1-6.9 0-.7-.2-1.1-.4-1.3s-.9-.3-2-.3h-1.4v-1.3c2.3-.3 4.2-.7 5.9-1.3l1.7-.6c.3 0 .4.2.4.6v.8c-.2 1-.2 1.9-.2 3z"/><path d="m479.3 106.5.6.3c-.1 1.2-.2 2.4-.2 3.8-.1 4.5-.2 7.8-.2 10 0 2 .1 3.7.2 5.1.1.6.2.9.4 1.2.2.2.8.4 1.7.5l1.6.2v1.3c-2.3-.1-4.3-.2-6.2-.2-1.8 0-3.7.1-5.5.2v-1.3l2-.2c.8-.1 1.2-.2 1.4-.4s.3-1 .3-2.2c.1-2 .1-4.7.1-8.1 0-2.4 0-4.3-.1-5.6 0-.5-.2-.8-.4-1s-.8-.3-1.6-.3h-1.7v-1.3c1.9-.3 3.3-.5 4.2-.8.8-.2 2-.6 3.4-1.2zm-1.9-10.2c.7 0 1.3.3 1.8.8s.8 1.1.8 1.9c0 .7-.3 1.3-.8 1.9-.5.5-1.1.8-1.8.8s-1.3-.3-1.9-.8c-.5-.5-.8-1.1-.8-1.9 0-.7.3-1.3.8-1.9.6-.6 1.2-.8 1.9-.8z"/><path d="m487.8 122v1.5c0 1.2.1 2 .3 2.3.4.5 1.2 1 2.4 1.4 1.2.5 2.4.7 3.6.7 1.6 0 2.9-.4 3.9-1.3s1.5-1.9 1.5-3.1c0-.9-.3-1.7-.9-2.3s-1.7-1-3.4-1.4c-3.1-.6-5.1-1.2-6.1-1.6-1-.5-1.7-1.1-2.2-1.9s-.7-1.7-.7-2.8c0-2.1.7-3.7 2.2-5s3.6-1.9 6.3-1.9c2.2 0 4.3.4 6.5 1.3-.1 1.1-.2 2.8-.3 5.3h-1.4c0-1.4-.2-2.3-.4-2.7-.4-.6-1-1.1-1.9-1.6s-1.9-.7-3-.7c-1.4 0-2.5.4-3.4 1.1-.8.7-1.3 1.6-1.3 2.7 0 1 .3 1.8 1 2.3s2.5 1.1 5.5 1.7c2.2.4 3.7.9 4.4 1.3s1.3 1 1.7 1.8.6 1.7.6 2.7c0 2.1-.9 3.9-2.7 5.4s-4.2 2.3-7.2 2.3c-1.9 0-4-.3-6.4-.9-.4-.1-.6-.3-.6-.5l.1-.3c.1-.2.1-.6.2-1.2.1-1.5.2-2.7.2-3.5v-1.1z"/><path d="m508 122v1.5c0 1.2.1 2 .3 2.3.4.5 1.2 1 2.4 1.4 1.2.5 2.4.7 3.6.7 1.6 0 2.9-.4 3.9-1.3s1.5-1.9 1.5-3.1c0-.9-.3-1.7-.9-2.3s-1.7-1-3.4-1.4c-3.1-.6-5.1-1.2-6.1-1.6-1-.5-1.7-1.1-2.2-1.9s-.7-1.7-.7-2.8c0-2.1.7-3.7 2.2-5s3.6-1.9 6.3-1.9c2.2 0 4.3.4 6.5 1.3-.1 1.1-.2 2.8-.3 5.3h-1.4c0-1.4-.2-2.3-.4-2.7-.4-.6-1-1.1-1.9-1.6s-1.9-.7-3-.7c-1.4 0-2.5.4-3.4 1.1-.8.7-1.3 1.6-1.3 2.7 0 1 .3 1.8 1 2.3s2.5 1.1 5.5 1.7c2.2.4 3.7.9 4.4 1.3s1.3 1 1.7 1.8.6 1.7.6 2.7c0 2.1-.9 3.9-2.7 5.4s-4.2 2.3-7.2 2.3c-1.9 0-4-.3-6.4-.9-.4-.1-.6-.3-.6-.5l.1-.3c.1-.2.1-.6.2-1.2.1-1.5.2-2.7.2-3.5v-1.1z"/><path d="m533.3 106.5.6.3c-.1 1.2-.2 2.4-.2 3.8-.1 4.5-.2 7.8-.2 10 0 2 .1 3.7.2 5.1.1.6.2.9.4 1.2.2.2.8.4 1.7.5l1.6.2v1.3c-2.3-.1-4.3-.2-6.2-.2-1.8 0-3.7.1-5.5.2v-1.3l2-.2c.8-.1 1.2-.2 1.4-.4s.3-1 .3-2.2c.1-2 .1-4.7.1-8.1 0-2.4 0-4.3-.1-5.6 0-.5-.2-.8-.4-1s-.8-.3-1.6-.3h-1.7v-1.3c1.9-.3 3.3-.5 4.2-.8.9-.2 2-.6 3.4-1.2zm-1.8-10.2c.7 0 1.3.3 1.8.8s.8 1.1.8 1.9c0 .7-.3 1.3-.8 1.9-.5.5-1.1.8-1.8.8s-1.3-.3-1.9-.8c-.5-.5-.8-1.1-.8-1.9 0-.7.3-1.3.8-1.9s1.2-.8 1.9-.8z"/><path d="m540 117.9c0-2.1.5-4.1 1.5-5.8s2.4-3.1 4.2-4c1.8-1 3.8-1.5 6.1-1.5 3.3 0 5.9 1 7.9 2.9s3 4.5 3 7.8c0 3.8-1.3 6.9-3.9 9.1-2.3 2-5.1 3-8.3 3-3.1 0-5.6-1-7.5-3.1-2-2-3-4.8-3-8.4zm4.4-1.6c0 3.2.7 5.9 2 8.2s3.2 3.4 5.6 3.4c1.9 0 3.4-.7 4.5-2.1 1.2-1.4 1.7-3.6 1.7-6.5 0-2.3-.3-4.4-1-6.1s-1.6-3-2.7-3.7c-1.1-.8-2.4-1.2-3.7-1.2-1.2 0-2.3.3-3.3.9s-1.7 1.4-2.2 2.5c-.6 1.4-.9 2.9-.9 4.6z"/><path d="m572.6 111.1 3.5-3.1c.4-.4.9-.6 1.3-.8 1-.3 2-.5 3.1-.5 1.7 0 3.1.3 4.3 1s2.1 1.5 2.6 2.6.8 2.8.8 5l-.1 7.3c0 2.5.1 4 .3 4.4.3.5.9.7 1.7.7h1.7v1.3c-1.6-.1-3.1-.2-4.3-.2s-2.4.1-3.8.2c.3-3 .4-7.1.4-12.2 0-2.1-.2-3.5-.5-4.4-.4-.9-1-1.6-1.8-2.1-.9-.5-1.9-.8-3.1-.8-1.5 0-2.8.4-3.8 1.1-1 .8-1.7 1.6-1.9 2.5-.2.6-.2 2.2-.2 4.7 0 2.8 0 5.5.1 7.9 0 .7.1 1.2.3 1.4.4.4 1 .5 1.9.5h1.7v1.3c-2.6-.1-4.7-.2-6.2-.2-1.6 0-3.5.1-5.6.2v-1.3h1.7c1.1 0 1.8-.3 2-.8s.3-3.7.3-9.6c0-2.6 0-4.7-.1-6.2 0-.5-.2-.8-.4-1s-.8-.3-1.8-.3h-1.7v-1.3c1.3-.2 2.5-.4 3.6-.6 1-.3 2.2-.7 3.5-1.2.1-.1.3-.1.4-.1.2 0 .4.2.4.5v.9z"/><g fill="#1c9dd9"><path d="m0 123.5h5.6c5.5 0 8.9-1.3 10-4s1.7-15.5 1.7-38.5v-30.3c0-23.8-.5-37-1.4-39.4-1-2.4-3.8-3.7-8.6-3.7h-7.3v-5.7c9.9.4 19.7.6 29.4.6 8.1 0 15.4-.2 21.9-.6v5.6h-6.9c-4.3 0-6.9.5-8 1.5s-1.7 3.6-1.9 7.7c-.3 6.4-.4 17.7-.4 34.1v30.8c0 23.2.5 35.9 1.5 38.3s4.3 3.5 9.8 3.5h5.9v5.6c-7.3-.4-15.3-.6-24-.6-10.1 0-19.2.2-27.3.6v-5.5z"/><path d="m128 64.7c5.8 8.4 13.1 18.2 21.7 29.3l17.2 22.3c3 3.8 5.1 6 6.1 6.5s2.1.8 3.1.8h2.3v5.6c-4.9-.4-9.3-.6-13-.6-3.4 0-7 .2-10.7.6l-31.7-42.7c-5.9-7.9-12.2-15.6-18.9-23.1l.9-3c3.5.3 6 .4 7.7.4 9.9 0 17.7-2.6 23.4-7.7 5.6-5.1 8.4-12 8.4-20.6 0-7.7-2.4-13.7-7.1-18-4.8-4.3-11.6-6.5-20.6-6.5-6.3 0-12.5 1.2-18.9 3.5-.7 9.5-1.1 19.6-1.1 30.4v43.2c0 21 .5 32.7 1.5 35s4.3 3.4 9.8 3.4h7v5.6c-9.9-.4-18.1-.6-24.6-.6-5.1 0-14.4.2-27.8.6v-5.6h6.7c5.1 0 8.2-1.1 9.1-3.4 1-2.2 1.4-14 1.4-35.3v-42.8c0-18.5-.6-28.8-1.7-31s-4.7-3.3-10.8-3.3h-4.8v-5.6c11.1.4 19.5.6 25.4.6 3.9 0 9.6-.1 17-.4 8.6-.3 14.7-.4 18.5-.4 10.3 0 18.1 1.1 23.5 3.3 5.3 2.2 9.4 5.3 12.2 9.4s4.2 9 4.2 14.7c0 8.4-3 15.8-9.1 22.3-6.1 6.3-14.8 10.7-26.3 13.1z"/><path d="m278.4 34.2-.7-15.9c-5.3-3.5-10.9-6.1-16.7-7.9-5.8-1.7-11.9-2.6-18.2-2.6-16.1 0-29 4.9-38.7 14.7s-14.5 22.8-14.5 39.2c0 11.5 2.5 21.7 7.4 30.7s11.9 16.1 21 21.4c9.1 5.2 18.6 7.9 28.7 7.9 8 0 15.9-.9 23.7-2.8 5.8-1.4 11.7-4.2 17.6-8.6l1.9 1.8c-1.3 2.7-2.4 5.5-3.5 8.3-7 3.5-14 6.1-21 7.8-7.1 1.8-14.2 2.6-21.3 2.6-14.7 0-27.5-2.8-38.7-8.5-11.1-5.7-19.6-13.5-25.6-23.5s-8.9-21.3-8.9-33.8c0-12.6 3-23.8 9-33.7s14.5-17.6 25.5-23.1 24.5-8.2 40.5-8.2c8.4 0 18.2 1.4 29.5 4.1 5.6 1.3 10.2 2.3 13.7 2.9-2.7 6.4-4.2 15.4-4.6 27h-6.1z"/></g></svg>