<svg viewBox="0 0 336.43 80" xmlns="http://www.w3.org/2000/svg"><g fill="#2495d1"><path d="m30.61 75.21v3.33c-7.38-.27-12.23-.42-14.56-.42l-16.06.42v-3.33c4.08-.07 6.58-.25 7.49-.55.9-.29 1.52-.7 1.87-1.22.42-.69.68-2.38.78-5.04.03-.73.1-5.65.21-14.76v-24.07c0-4.71-.05-9.32-.15-13.82-.1-3.29-.36-5.24-.75-5.85-.41-.61-1.06-1.06-1.94-1.35s-3.38-.48-7.5-.56v-3.32c6.62.24 11.73.37 15.34.37s8.56-.12 15.28-.37v3.32c-4.12.07-6.62.25-7.51.55s-1.5.7-1.85 1.22c-.42.69-.68 2.38-.78 5.04-.03.69-.1 5.62-.2 14.76v24.06c0 4.71.05 9.3.15 13.77.1 3.29.36 5.25.75 5.87s1.04 1.09 1.92 1.38c.89.3 3.39.49 7.52.56z"/><path d="m34.19 7.99v-3.32c1.35.03 3.41.09 6.19.15l9.98.26c1.97 0 5.04-.07 9.2-.2 5.4-.2 8.54-.31 9.41-.31 6.62 0 11.45.59 14.47 1.77s5.38 3.09 7.04 5.74c1.67 2.65 2.5 5.54 2.5 8.65 0 2.92-.78 5.8-2.34 8.68-1.56 2.87-3.82 5.27-6.79 7.17-2.97 1.91-6.82 3.38-11.57 4.42.86 1.21 2.92 3.92 6.14 8.11l13.1 17.26c3.74 4.81 5.92 7.51 6.55 8.05.31.24.62.42.93.52.52.17 1.67.26 3.43.26v3.33c-2.63-.21-4.94-.31-6.92-.31s-4.56.1-7.54.31c-2.25-2.6-6.03-7.68-11.34-15.23-2.95-4.2-5.55-7.69-7.8-10.5-3.64-4.64-7.1-8.86-10.39-12.64l.52-1.56c1.8.1 3.17.15 4.1.15 6.31 0 11.09-1.49 14.34-4.47 3.26-2.98 4.89-6.92 4.89-11.8 0-4.27-1.4-7.65-4.22-10.16-2.8-2.51-7.05-3.77-12.74-3.77-3.57 0-7.07.54-10.5 1.62-.14 1.87-.24 3.63-.31 5.25-.03.49-.15 5.53-.37 15.12v23.08c0 4.71.07 9.3.2 13.77.07 3.29.3 5.25.7 5.87s1.05 1.09 1.95 1.38 3.39.48 7.49.55v3.33c-4.92-.27-9.45-.42-13.57-.42-3.33 0-8.93.14-16.79.42v-3.33c4.09-.07 6.58-.25 7.49-.55s1.52-.7 1.87-1.22c.42-.69.68-2.38.78-5.04.03-.73.1-5.65.2-14.76v-24.07c0-4.71-.05-9.32-.15-13.82-.1-3.29-.36-5.24-.75-5.85s-1.04-1.06-1.92-1.35c-.86-.29-3.36-.48-7.49-.55z"/><path d="m164.62 69.33-2.03 4.83c-4.05 2.04-8.02 3.52-11.9 4.45-3.88.91-8.11 1.38-12.69 1.38-5.37 0-10.36-.68-14.97-2.03s-8.63-3.28-12.09-5.8c-3.45-2.51-6.27-5.33-8.45-8.45s-3.85-6.5-4.99-10.16c-1.15-3.66-1.72-7.67-1.72-12.04 0-11.05 3.85-20.21 11.57-27.48 7.71-7.26 18.23-10.89 31.58-10.89 3.15 0 6.07.18 8.76.55 2.68.37 5.96 1.06 9.82 2.08 3.86 1.03 6.23 1.63 7.1 1.8-.76 1.91-1.33 3.78-1.72 5.62-.56 2.95-.93 6.36-1.15 10.24h-3.27l-.05-6.14c-.35-3.39-2.22-5.92-5.64-7.59s-8.41-2.5-14.99-2.5c-4.92.07-9.1.7-12.52 1.9-3.43 1.2-6.45 3.09-9.07 5.67s-4.75 5.86-6.42 9.82c-1.67 3.97-2.51 8.95-2.55 14.94 0 10.5 3.21 18.94 9.62 25.34 6.41 6.39 14.88 9.59 25.41 9.59 4.74 0 9.15-.66 13.2-1.98 2.77-.9 5.53-2.33 8.27-4.27l.88 1.1z"/></g><path d="m187.03 19.35v.87c-1.94-.07-3.21-.11-3.82-.11l-4.22.11v-.87c1.08-.02 1.73-.06 1.96-.14s.4-.18.49-.33c.11-.18.17-.62.2-1.32.01-.19.03-1.48.05-3.87v-6.32c0-1.24-.01-2.45-.04-3.63-.03-.86-.09-1.37-.19-1.53s-.27-.27-.51-.36-.89-.12-1.97-.14v-.86c1.74.06 3.08.09 4.02.09s2.24-.03 4.01-.09v.86c-1.09.02-1.74.06-1.97.14s-.4.18-.49.33c-.11.18-.17.62-.2 1.32-.01.18-.03 1.47-.05 3.87v6.31c0 1.24.01 2.44.04 3.62.03.86.09 1.38.19 1.54s.27.28.51.37c.24.08.9.12 1.98.14z"/><path d="m188.15 20.22v-.76h1.3c.19-.02.34-.05.45-.11.1-.06.18-.13.24-.22.1-.18.16-.51.19-.96 0-.12.03-1.42.08-3.92v-1.63c0-.73-.01-1.51-.04-2.35-.03-.54-.07-.85-.13-.95s-.16-.17-.3-.22-.74-.07-1.78-.06v-.79c1.84-.25 3.17-.59 4.01-1 .18-.09.3-.13.37-.13s.11.02.15.07c.04.04.05.11.05.2 0 .06 0 .13-.01.21-.03.33-.05 1.02-.08 2.07l2.54-2.16c.75-.27 1.45-.41 2.11-.41.74 0 1.43.15 2.09.45s1.16.68 1.49 1.14.55 1.03.66 1.72c.06.41.09 1.55.09 3.42v2.42c0 1.18.03 1.99.09 2.42.04.27.11.46.21.57s.24.17.45.19l1.46.04v.76c-.89-.06-1.64-.09-2.22-.09-.51 0-1.35.03-2.54.09.13-2.24.19-3.67.19-4.26v-2.29c0-1.42-.05-2.37-.16-2.81-.15-.61-.51-1.1-1.06-1.47s-1.21-.56-1.98-.56c-.68 0-1.31.16-1.87.49-.57.33-.96.7-1.21 1.12s-.37 1.14-.37 2.13v1.66c.05 2.37.08 3.65.08 3.84.02.46.07.79.16 1 .04.08.09.15.16.21s.18.11.35.14c.05.01.56.02 1.5.04v.76c-1.11-.06-2.11-.09-3.01-.09-.77 0-2.01.03-3.74.09z"/><path d="m213.28 1.71v-.77c1.01-.11 1.86-.23 2.56-.39.69-.15 1.37-.34 2.04-.55l.17.12c-.04.77-.08 2.27-.12 4.47l-.05 2.18v8.53c0 .92.02 1.73.05 2.41s.09 1.08.17 1.21.21.23.41.33c.19.08.76.16 1.71.24v.73c-1.11-.06-1.89-.09-2.35-.09-.39 0-1.19.03-2.4.09.03-.63.05-1.47.07-2.54-.37.26-.85.66-1.46 1.19s-1.1.95-1.44 1.3c-.73.18-1.37.27-1.92.27-1.03 0-1.97-.25-2.83-.76s-1.53-1.25-2-2.21-.7-2.05-.7-3.26c0-.9.14-1.77.43-2.58s.65-1.44 1.09-1.89c.24-.25.8-.64 1.68-1.16s1.57-.89 2.12-1.13 1.13-.35 1.77-.35c.57 0 1.14.07 1.69.21s1.09.36 1.6.65v-3.61c0-1.26-.05-2.03-.16-2.31-.04-.1-.1-.17-.2-.21-.21-.09-.83-.13-1.91-.14zm2.25 8.57c-.62-.68-1.27-1.18-1.94-1.49-.68-.31-1.34-.47-2-.47-.74 0-1.43.19-2.06.57-.63.39-1.11.95-1.44 1.73s-.5 1.7-.5 2.78c0 1.67.42 2.97 1.24 3.9s1.82 1.4 2.99 1.4c.61 0 1.16-.13 1.64-.39s.9-.63 1.27-1.12.6-1.04.69-1.64c.07-.4.11-1.38.11-2.96v-2.33h.01z"/><path d="m233.11 18.11-.44.99c-.63.4-1.09.65-1.38.78-.43.19-.91.36-1.46.49s-1.13.19-1.74.19c-1.2 0-2.29-.25-3.26-.75s-1.73-1.25-2.27-2.24-.8-2.16-.8-3.49c0-1.05.14-1.99.43-2.83s.61-1.46.98-1.86c.26-.29.67-.63 1.23-1.01s1.11-.67 1.65-.89c.72-.3 1.49-.45 2.33-.45 1.02 0 1.94.23 2.76.69.82.47 1.42 1.1 1.81 1.9s.57 1.71.57 2.71c0 .25-.02.57-.05.92-.66.12-1.24.21-1.76.24-.99.07-1.97.11-2.95.11h-4.39c.02 1.3.24 2.36.68 3.16.43.8 1.03 1.4 1.79 1.78.76.39 1.54.57 2.37.57.56 0 1.11-.09 1.66-.26s1.23-.5 2.04-.98l.21.23zm-8.74-5.59c.25.03.74.05 1.45.08 1.36.04 2.3.07 2.8.07 1.21 0 2.01-.02 2.39-.07.01-.21.01-.39.01-.51 0-1.43-.29-2.48-.87-3.15s-1.36-1.01-2.34-1.01c-1.03 0-1.86.37-2.49 1.1s-.94 1.89-.95 3.48z"/><path d="m234.94 9v-.79c.16 0 .51-.04 1.04-.11.53-.08 1.12-.21 1.76-.4s1.13-.37 1.46-.54c.1-.05.18-.08.24-.08s.11.02.15.07c.04.04.06.12.06.23 0 .04 0 .15-.01.33-.02.26-.03.51-.03.72v1.44c1.53-1.42 2.5-2.23 2.87-2.42.5-.24 1.25-.37 2.23-.37 1.16 0 2.15.26 2.99.78s1.44 1.2 1.82 2.03.57 1.72.57 2.66c0 .57-.06 1.12-.19 1.63s-.29.99-.51 1.44c-.2.45-.43.86-.68 1.24s-.49.66-.7.85c-.12.12-.46.4-.99.82s-1.1.8-1.71 1.11-1.03.51-1.26.58c-.52.16-1.07.24-1.65.24-.46 0-.89-.05-1.33-.16-.43-.11-.92-.29-1.46-.56v2.16c.04 2.3.07 3.57.08 3.81.01.45.06.77.16.99.04.1.09.18.17.23.08.06.19.1.34.13.08.02.62.04 1.63.05v.78c-1.14-.04-2.64-.07-4.51-.07-1.04 0-1.83.02-2.39.07v-.78h1.3c.19-.02.34-.05.45-.11.1-.06.18-.13.23-.22.1-.18.16-.51.19-.96.01-.12.04-1.42.08-3.9v-4.85c0-1.57-.02-3.19-.05-4.85-.04-1.66-.07-2.56-.11-2.7-.04-.15-.11-.26-.19-.35-.09-.08-.21-.13-.36-.15l-1.71-.04zm4.67 8.41c.48.49 1.04.87 1.65 1.16.62.28 1.27.43 1.95.43.82 0 1.57-.2 2.25-.62s1.21-1.06 1.6-1.93.59-1.82.59-2.85-.19-1.85-.57-2.58-.91-1.28-1.6-1.65-1.38-.55-2.08-.55c-.52 0-1.03.1-1.53.3s-.96.5-1.37.89-.68.76-.82 1.12c-.05.17-.08.51-.08 1v5.28h.02z"/><path d="m263.27 18.11-.44.99c-.63.4-1.09.65-1.38.78-.43.19-.91.36-1.46.49s-1.13.19-1.74.19c-1.2 0-2.29-.25-3.26-.75s-1.73-1.25-2.27-2.24-.8-2.16-.8-3.49c0-1.05.14-1.99.43-2.83s.61-1.46.98-1.86c.26-.29.67-.63 1.23-1.01s1.11-.67 1.65-.89c.72-.3 1.49-.45 2.33-.45 1.02 0 1.94.23 2.76.69.82.47 1.42 1.1 1.81 1.9s.57 1.71.57 2.71c0 .25-.02.57-.05.92-.66.12-1.24.21-1.76.24-.99.07-1.97.11-2.95.11h-4.39c.02 1.3.24 2.36.68 3.16.43.8 1.03 1.4 1.79 1.78.76.39 1.54.57 2.37.57.56 0 1.11-.09 1.66-.26s1.23-.5 2.04-.98l.21.23zm-8.74-5.59c.25.03.74.05 1.45.08 1.36.04 2.3.07 2.8.07 1.21 0 2.01-.02 2.39-.07.01-.21.01-.39.01-.51 0-1.43-.29-2.48-.87-3.15s-1.36-1.01-2.34-1.01c-1.03 0-1.86.37-2.49 1.1s-.94 1.89-.95 3.48z"/><path d="m264.99 20.22v-.76h1.3c.19-.02.34-.05.45-.11.1-.06.18-.13.24-.22.1-.18.16-.51.19-.96 0-.12.03-1.42.08-3.92v-1.63c0-.73-.01-1.51-.04-2.35-.03-.54-.07-.85-.13-.95s-.16-.17-.3-.22-.74-.07-1.78-.06v-.79c1.84-.25 3.17-.59 4.01-1 .18-.09.3-.13.37-.13s.11.02.15.07c.04.04.05.11.05.2 0 .06 0 .13-.01.21-.03.33-.05 1.02-.08 2.07l2.54-2.16c.75-.27 1.45-.41 2.11-.41.74 0 1.43.15 2.09.45s1.16.68 1.49 1.14.55 1.03.66 1.72c.06.41.09 1.55.09 3.42v2.42c0 1.18.03 1.99.09 2.42.04.27.11.46.21.57s.24.17.45.19l1.46.04v.76c-.89-.06-1.64-.09-2.22-.09-.51 0-1.35.03-2.54.09.13-2.24.19-3.67.19-4.26v-2.29c0-1.42-.05-2.37-.16-2.81-.15-.61-.51-1.1-1.06-1.47s-1.21-.56-1.98-.56c-.68 0-1.31.16-1.87.49-.57.33-.96.7-1.21 1.12s-.37 1.14-.37 2.13v1.66c.05 2.37.08 3.65.08 3.84.02.46.07.79.16 1 .04.08.09.15.16.21s.18.11.35.14c.05.01.56.02 1.5.04v.76c-1.11-.06-2.11-.09-3.01-.09-.76 0-2.01.03-3.74.09z"/><path d="m290.12 1.71v-.77c1.01-.11 1.86-.23 2.56-.39.69-.15 1.37-.34 2.04-.55l.17.12c-.04.77-.08 2.27-.12 4.47l-.05 2.18v8.53c0 .92.02 1.73.05 2.41s.09 1.08.17 1.21.21.23.41.33c.19.08.76.16 1.71.24v.73c-1.11-.06-1.89-.09-2.35-.09-.39 0-1.19.03-2.4.09.03-.63.05-1.47.07-2.54-.37.26-.85.66-1.46 1.19s-1.1.95-1.44 1.3c-.73.18-1.37.27-1.92.27-1.03 0-1.97-.25-2.83-.76s-1.53-1.25-2-2.21-.7-2.05-.7-3.26c0-.9.14-1.77.43-2.58s.65-1.44 1.09-1.89c.24-.25.8-.64 1.68-1.16s1.57-.89 2.12-1.13 1.13-.35 1.77-.35c.57 0 1.14.07 1.69.21s1.09.36 1.6.65v-3.61c0-1.26-.05-2.03-.16-2.31-.04-.1-.1-.17-.2-.21-.21-.09-.83-.13-1.91-.14zm2.25 8.57c-.62-.68-1.27-1.18-1.94-1.49-.68-.31-1.34-.47-2-.47-.74 0-1.43.19-2.06.57-.63.39-1.11.95-1.44 1.73s-.5 1.7-.5 2.78c0 1.67.42 2.97 1.24 3.9s1.82 1.4 2.99 1.4c.61 0 1.16-.13 1.64-.39s.9-.63 1.27-1.12.6-1.04.69-1.64c.07-.4.11-1.38.11-2.96v-2.33h.01z"/><path d="m309.95 18.11-.44.99c-.63.4-1.09.65-1.38.78-.43.19-.91.36-1.46.49s-1.13.19-1.74.19c-1.2 0-2.29-.25-3.26-.75s-1.73-1.25-2.27-2.24-.8-2.16-.8-3.49c0-1.05.14-1.99.43-2.83s.61-1.46.98-1.86c.26-.29.67-.63 1.23-1.01s1.11-.67 1.65-.89c.72-.3 1.49-.45 2.33-.45 1.02 0 1.94.23 2.76.69.82.47 1.42 1.1 1.81 1.9s.57 1.71.57 2.71c0 .25-.02.57-.05.92-.66.12-1.24.21-1.76.24-.99.07-1.97.11-2.95.11h-4.39c.02 1.3.24 2.36.68 3.16.43.8 1.03 1.4 1.79 1.78.76.39 1.54.57 2.37.57.56 0 1.11-.09 1.66-.26s1.23-.5 2.04-.98l.21.23zm-8.74-5.59c.25.03.74.05 1.45.08 1.36.04 2.3.07 2.8.07 1.21 0 2.01-.02 2.39-.07.01-.21.01-.39.01-.51 0-1.43-.29-2.48-.87-3.15s-1.36-1.01-2.34-1.01c-1.03 0-1.86.37-2.49 1.1s-.94 1.89-.95 3.48z"/><path d="m311.67 20.22v-.76h1.3c.19-.02.34-.05.45-.11.1-.06.18-.13.24-.22.1-.18.16-.51.19-.96 0-.12.03-1.42.08-3.92v-1.63c0-.73-.01-1.51-.04-2.35-.03-.54-.07-.85-.13-.95s-.16-.17-.3-.22-.74-.07-1.78-.06v-.79c1.84-.25 3.17-.59 4.01-1 .18-.09.3-.13.37-.13s.11.02.15.07c.04.04.05.11.05.2 0 .06 0 .13-.01.21-.03.33-.05 1.02-.08 2.07l2.54-2.16c.75-.27 1.45-.41 2.11-.41.74 0 1.43.15 2.09.45s1.16.68 1.49 1.14.55 1.03.66 1.72c.06.41.09 1.55.09 3.42v2.42c0 1.18.03 1.99.09 2.42.04.27.11.46.21.57s.24.17.45.19l1.46.04v.76c-.89-.06-1.64-.09-2.22-.09-.51 0-1.35.03-2.54.09.13-2.24.19-3.67.19-4.26v-2.29c0-1.42-.05-2.37-.16-2.81-.15-.61-.51-1.1-1.06-1.47s-1.21-.56-1.98-.56c-.68 0-1.31.16-1.87.49-.57.33-.96.7-1.21 1.12s-.37 1.14-.37 2.13v1.66c.05 2.37.08 3.65.08 3.84.02.46.07.79.16 1 .04.08.09.15.16.21s.18.11.35.14c.05.01.56.02 1.5.04v.76c-1.11-.06-2.11-.09-3.01-.09-.76 0-2.01.03-3.74.09z"/><path d="m328.17 9.54v-.58c.9-.35 1.64-.65 2.16-.92 0-2.16-.03-3.54-.08-4.14.94-.33 1.72-.68 2.31-1.05l.33.27c-.1.75-.21 2.42-.33 4.99.73.01 1.17.01 1.32.01.08 0 .55-.01 1.4-.03.48-.01.82-.03 1.07-.05l.09.09-.28 1.27c-.57-.01-1.1-.01-1.58-.01s-1.15 0-2 .01l-.08 5.55c-.03 1.35-.02 2.16.03 2.43.04.26.13.5.25.69.13.19.29.36.5.47.2.12.55.21 1.05.27.38 0 .67-.02.9-.05s.53-.11.88-.23l.16.53c-.43.34-.84.69-1.24 1.05-.35.12-.67.21-.96.25s-.64.06-1.04.06c-.48 0-.86-.05-1.15-.16s-.55-.26-.78-.46-.43-.45-.59-.74-.25-.77-.29-1.42c.01-.62.03-1.3.05-2.03.01-.14.01-.3.01-.48v-5.65h-.56c-.47 0-.98.02-1.54.07z"/><path d="m178.97 30.56v-.87c.36.01.89.02 1.63.04l2.62.07c.52 0 1.32-.02 2.42-.05 1.42-.05 2.24-.08 2.47-.08 1.74 0 3.01.15 3.8.47.79.3 1.41.81 1.85 1.5s.65 1.45.65 2.27c0 .76-.2 1.52-.61 2.28s-1.01 1.38-1.78 1.88c-.78.5-1.79.88-3.04 1.16.22.31.76 1.03 1.6 2.12l3.43 4.53c.99 1.26 1.55 1.97 1.72 2.11.08.06.16.11.24.13.13.04.44.07.9.07v.87c-.69-.05-1.3-.08-1.82-.08s-1.2.03-1.98.08c-.59-.68-1.58-2.01-2.98-3.99-.77-1.1-1.45-2.02-2.04-2.75-.95-1.22-1.86-2.33-2.72-3.31l.13-.41c.47.03.83.04 1.08.04 1.66 0 2.91-.39 3.76-1.17s1.28-1.82 1.28-3.1c0-1.12-.37-2.01-1.11-2.66-.73-.66-1.85-.99-3.34-.99-.93 0-1.86.14-2.75.43-.04.49-.06.95-.08 1.38-.01.13-.04 1.45-.09 3.97v6.05c0 1.24.02 2.44.05 3.62.02.86.08 1.38.18 1.54s.27.28.51.37.89.12 1.96.14v.87c-1.29-.07-2.48-.11-3.56-.11-.87 0-2.34.04-4.4.11v-.87c1.08-.02 1.73-.06 1.96-.14s.4-.18.49-.33c.11-.18.17-.62.2-1.32.01-.19.03-1.48.05-3.87v-6.31c0-1.24-.01-2.45-.04-3.63-.03-.86-.09-1.37-.2-1.53-.1-.16-.27-.27-.51-.36-.2-.11-.86-.16-1.94-.18z"/><path d="m209.05 46.96-.44.99c-.63.39-1.09.65-1.38.78-.43.19-.91.36-1.46.49s-1.13.19-1.74.19c-1.2 0-2.29-.25-3.26-.75s-1.73-1.25-2.27-2.24-.8-2.16-.8-3.49c0-1.05.14-1.99.43-2.83s.61-1.46.98-1.86c.26-.29.67-.63 1.23-1.01s1.11-.67 1.65-.89c.72-.3 1.49-.45 2.33-.45 1.02 0 1.94.23 2.76.69.82.47 1.42 1.1 1.81 1.9s.57 1.71.57 2.71c0 .25-.02.56-.05.92-.66.13-1.24.21-1.76.24-.99.07-1.97.11-2.95.11h-4.39c.02 1.3.24 2.36.68 3.16.43.8 1.03 1.4 1.79 1.78.76.39 1.54.57 2.37.57.56 0 1.11-.09 1.66-.26s1.23-.51 2.04-.98l.21.23zm-8.74-5.59c.25.03.74.05 1.45.08 1.36.04 2.3.07 2.8.07 1.21 0 2.01-.02 2.39-.07.01-.21.01-.39.01-.51 0-1.43-.29-2.48-.87-3.15s-1.36-1.01-2.34-1.01c-1.03 0-1.86.37-2.49 1.1s-.95 1.89-.95 3.48z"/><path d="m210.88 37.85v-.79c.16 0 .51-.04 1.04-.11.53-.08 1.12-.21 1.76-.4s1.13-.37 1.46-.54c.1-.05.18-.08.24-.08s.11.02.15.07c.04.04.06.12.06.23 0 .04 0 .15-.01.33-.02.26-.03.51-.03.72v1.44c1.53-1.42 2.5-2.23 2.87-2.42.5-.24 1.25-.37 2.23-.37 1.16 0 2.15.26 2.99.78s1.44 1.2 1.82 2.03.57 1.72.57 2.66c0 .57-.06 1.12-.19 1.63s-.29.99-.51 1.44c-.2.45-.43.86-.68 1.24s-.49.66-.7.85c-.12.12-.46.39-.99.81s-1.1.8-1.71 1.11-1.03.51-1.26.58c-.52.16-1.07.24-1.65.24-.46 0-.89-.05-1.33-.16s-.92-.29-1.46-.56v2.18c.04 2.3.07 3.57.08 3.81.01.45.06.77.16.99.04.1.09.18.17.23.08.06.19.1.34.13.08.02.62.04 1.63.05v.77c-1.14-.04-2.64-.07-4.51-.07-1.04 0-1.83.02-2.39.07v-.77h1.3c.19-.02.34-.05.45-.11.1-.06.18-.13.23-.22.1-.18.16-.51.19-.96.01-.12.04-1.42.08-3.9v-4.83c0-1.57-.02-3.19-.05-4.85-.04-1.66-.07-2.56-.11-2.7-.04-.15-.11-.26-.19-.35-.09-.08-.21-.13-.36-.15l-1.71-.06zm4.67 8.41c.48.49 1.04.87 1.65 1.16.62.28 1.27.43 1.95.43.82 0 1.57-.2 2.25-.62s1.21-1.06 1.6-1.93.59-1.82.59-2.85-.19-1.85-.57-2.58-.91-1.28-1.6-1.65-1.38-.55-2.08-.55c-.52 0-1.03.1-1.53.3s-.96.5-1.37.89-.68.76-.82 1.12c-.05.17-.08.51-.08 1v5.28h.02z"/><path d="m228.1 42.79c0-2.03.65-3.7 1.94-4.99 1.3-1.29 2.96-1.93 4.99-1.93 1.91 0 3.46.6 4.66 1.8s1.8 2.75 1.8 4.65c0 1.33-.3 2.54-.92 3.64s-1.49 1.96-2.62 2.58-2.37.93-3.73.93c-1.06 0-1.95-.17-2.68-.53s-1.32-.8-1.78-1.34-.8-1.09-1.04-1.65c-.41-.98-.62-2.04-.62-3.17zm2.58-1.01c0 1.12.18 2.25.56 3.41s.91 2 1.62 2.53 1.47.8 2.3.8c1.06 0 1.94-.42 2.64-1.25.71-.83 1.07-2.12 1.07-3.86 0-1.44-.21-2.69-.63-3.74-.43-1.05-.96-1.79-1.62-2.22-.65-.43-1.38-.65-2.16-.65-1.12 0-2.02.41-2.72 1.21s-1.05 2.06-1.05 3.77z"/><path d="m243.06 49.07v-.77c1.03-.02 1.58-.04 1.67-.05.15-.03.27-.07.35-.13s.14-.14.18-.25c.09-.21.14-.54.16-.99.05-2.43.08-3.7.08-3.81v-1.63c0-.73-.01-1.51-.04-2.35-.02-.54-.06-.85-.11-.95-.06-.1-.16-.17-.31-.22s-.74-.07-1.78-.06v-.78c1.84-.25 3.18-.59 4.02-1 .18-.09.3-.13.37-.13s.11.02.15.07c.04.04.05.11.05.2 0 .06 0 .13-.01.21-.04.56-.07 1.41-.08 2.58.41-.48.78-.94 1.13-1.4.35-.47.6-.76.75-.9.27-.23.59-.43.94-.57s.72-.21 1.11-.21.76.08 1.13.24l.08.19c-.13 1.21-.21 2.28-.23 3.19h-.61c-.21-.44-.46-.75-.73-.95s-.63-.3-1.05-.3c-.7 0-1.3.28-1.79.86s-.74 1.44-.74 2.6v1.4c0 .6.02 1.7.07 3.29.01.56.03.92.07 1.08s.08.26.14.34.15.12.29.17c.27.08 1.01.16 2.2.24v.77c-1.6-.06-2.97-.09-4.09-.09-1.16.02-2.29.05-3.37.11z"/><path d="m254.07 38.38v-.57c.9-.35 1.64-.65 2.16-.92 0-2.16-.03-3.54-.08-4.14.94-.33 1.72-.68 2.31-1.05l.33.27c-.1.75-.21 2.42-.33 4.99.73.01 1.17.01 1.31.01.08 0 .55-.01 1.4-.03.48-.01.82-.03 1.07-.05l.09.09-.28 1.27c-.57-.01-1.1-.01-1.58-.01s-1.15 0-2 .01l-.08 5.55c-.03 1.35-.02 2.16.03 2.43.04.26.13.5.25.69.13.19.29.36.5.47s.55.21 1.05.27c.38 0 .67-.02.9-.05s.53-.11.88-.23l.16.53c-.43.34-.84.69-1.24 1.05-.35.13-.67.21-.96.25s-.64.06-1.04.06c-.48 0-.86-.05-1.15-.16s-.55-.26-.78-.46-.43-.45-.59-.74-.25-.77-.29-1.42c.01-.62.03-1.29.05-2.03.01-.14.01-.3.01-.48v-5.66h-.56c-.46 0-.96.02-1.53.07z"/><path d="m263.17 37.87v-.78c1.77-.2 3.24-.58 4.45-1.15l.3.21c-.07 1.94-.11 3.41-.11 4.45v2.48c.04 2.37.07 3.64.08 3.83.01.46.06.78.15 1 .04.08.1.15.17.21s.18.11.33.14c.05.01.56.02 1.51.04v.76c-1.38-.06-2.49-.09-3.31-.09-.73 0-1.92.03-3.58.09v-.76h1.29c.19-.02.34-.05.45-.11.1-.06.18-.13.24-.22.1-.18.16-.51.19-.96 0-.12.03-1.42.08-3.91v-2.4c0-1.35-.04-2.16-.13-2.42-.05-.13-.15-.23-.29-.3-.15-.07-.76-.1-1.83-.1zm3.32-7.99c.43 0 .79.15 1.09.45s.45.66.45 1.09-.15.78-.45 1.08c-.29.3-.66.45-1.08.45s-.79-.15-1.09-.45-.45-.66-.45-1.08.15-.79.45-1.09c.28-.29.65-.45 1.08-.45z"/><path d="m271.06 49.07v-.76h1.3c.19-.02.34-.05.45-.11.1-.06.18-.13.24-.22.1-.18.16-.51.19-.96 0-.12.03-1.42.08-3.92v-1.63c0-.73-.01-1.51-.04-2.35-.03-.54-.07-.85-.13-.95s-.16-.17-.3-.22-.74-.07-1.78-.06v-.78c1.84-.25 3.17-.59 4.01-1 .18-.09.3-.13.37-.13s.11.02.15.07c.04.04.05.11.05.2 0 .06 0 .13-.01.21-.03.33-.05 1.02-.08 2.07l2.54-2.16c.75-.27 1.45-.41 2.11-.41.74 0 1.43.15 2.09.45s1.16.68 1.49 1.14.55 1.03.66 1.72c.06.41.09 1.55.09 3.42v2.42c0 1.19.03 1.99.09 2.42.04.27.11.47.21.57.09.1.24.17.45.19l1.46.04v.76c-.89-.06-1.64-.09-2.22-.09-.51 0-1.35.03-2.54.09.13-2.24.19-3.67.19-4.26v-2.3c0-1.42-.05-2.37-.16-2.8-.15-.61-.51-1.1-1.06-1.47s-1.21-.56-1.98-.56c-.68 0-1.31.16-1.87.49-.57.33-.96.7-1.21 1.12s-.37 1.14-.37 2.13v1.66c.05 2.37.08 3.65.08 3.84.02.46.07.78.16 1 .04.08.09.15.16.21s.18.1.35.14c.05.01.56.02 1.5.04v.76c-1.11-.06-2.11-.09-3.01-.09-.77-.01-2.01.02-3.74.08z"/><path d="m302.03 37 .11.26c-.36.54-.59.9-.69 1.11h-2.54c.21.54.31 1.04.31 1.51 0 .69-.18 1.36-.54 2.02s-.88 1.22-1.57 1.69-1.43.78-2.2.94c-.51.11-1.2.15-2.06.13-.59.48-.96.82-1.12 1.07-.1.16-.15.35-.15.53 0 .21.06.42.19.58.13.17.34.28.61.35.41.11 1.14.16 2.18.16l2.95-.05c1.03 0 1.81.13 2.34.41.53.26.92.68 1.18 1.23s.39 1.17.39 1.86c0 .93-.3 1.89-.92 2.85-.61.96-1.52 1.74-2.73 2.29-1.21.56-2.56.84-4.06.84-1.26 0-2.33-.19-3.21-.59-.88-.39-1.53-.91-1.96-1.56s-.63-1.34-.63-2.06c0-.4.06-.77.18-1.13.12-.35.33-.72.62-1.13 1.11-.51 1.9-.95 2.39-1.34-.75-.24-1.24-.48-1.45-.69s-.33-.44-.33-.65c0-.18.13-.67.41-1.47.45-.38 1.15-.9 2.1-1.58-.81-.22-1.44-.5-1.89-.8-.44-.3-.78-.72-1.03-1.24s-.37-1.1-.37-1.73c0-.92.23-1.76.71-2.49.47-.73 1.27-1.33 2.39-1.79s2.15-.69 3.11-.69c.62 0 1.21.1 1.77.3s1.09.5 1.58.9c1.72 0 3.03-.01 3.94-.04zm-7.15 12.22c-1.35 0-2.2.02-2.55.05-.17.03-.37.12-.59.27-.72.51-1.1.79-1.15.84-.09.09-.19.27-.29.56-.19.51-.28 1.03-.28 1.54 0 .95.38 1.77 1.11 2.43.74.66 1.76.99 3.06.99.96 0 1.84-.19 2.64-.58.79-.39 1.39-.91 1.8-1.58s.61-1.34.61-2.01c-.03-.58-.11-1.03-.26-1.32s-.34-.54-.55-.71-.51-.31-.88-.43c-.21-.03-1.1-.04-2.65-.05zm-4-9.15c0 .65.12 1.27.37 1.88s.6 1.07 1.07 1.38c.47.3 1.01.47 1.6.47.78 0 1.47-.25 2.07-.76s.9-1.32.9-2.44-.3-2.05-.9-2.73-1.32-1.02-2.16-1.02-1.59.27-2.12.84c-.55.56-.82 1.35-.82 2.38z"/><path d="m197.38 75.5-.53 1.27c-1.07.54-2.1.92-3.12 1.17s-2.12.37-3.33.37c-1.41 0-2.72-.17-3.93-.53s-2.27-.86-3.17-1.52-1.65-1.4-2.21-2.21c-.57-.82-1.01-1.71-1.31-2.66-.29-.95-.45-2.01-.45-3.16 0-2.89 1.02-5.3 3.04-7.2s4.78-2.85 8.28-2.85c.82 0 1.59.05 2.3.14s1.56.27 2.58.55 1.64.43 1.86.47c-.2.5-.35 1-.45 1.47-.14.77-.24 1.67-.3 2.68h-.86v-1.6c-.1-.89-.6-1.55-1.49-1.99s-2.2-.65-3.93-.65c-1.29.02-2.39.18-3.29.5s-1.7.81-2.38 1.48c-.69.68-1.25 1.53-1.69 2.58-.44 1.04-.66 2.35-.67 3.92 0 2.75.84 4.97 2.52 6.64 1.69 1.68 3.9 2.52 6.66 2.52 1.25 0 2.4-.17 3.46-.52.73-.23 1.45-.61 2.16-1.12l.25.26z"/><path d="m199.09 71.64c0-2.03.65-3.7 1.94-4.99 1.3-1.29 2.96-1.93 4.99-1.93 1.91 0 3.46.6 4.66 1.8s1.8 2.75 1.8 4.65c0 1.33-.3 2.54-.92 3.64s-1.49 1.96-2.62 2.58-2.37.93-3.73.93c-1.06 0-1.95-.17-2.68-.53s-1.32-.8-1.78-1.34-.8-1.09-1.04-1.65c-.42-.98-.62-2.03-.62-3.17zm2.57-1.01c0 1.12.18 2.25.56 3.41s.91 2 1.62 2.53 1.47.8 2.3.8c1.06 0 1.94-.42 2.64-1.25.71-.83 1.07-2.12 1.07-3.86 0-1.44-.21-2.69-.63-3.74-.43-1.05-.96-1.79-1.62-2.22-.65-.43-1.38-.65-2.16-.65-1.12 0-2.02.41-2.72 1.22-.69.79-1.05 2.05-1.05 3.76z"/><path d="m213.98 77.92v-.76h1.3c.19-.02.34-.05.45-.11.1-.06.18-.13.23-.22.1-.18.16-.51.19-.96 0-.12.03-1.42.08-3.92v-1.63c0-.73-.01-1.51-.04-2.35-.03-.54-.07-.85-.13-.95s-.16-.17-.3-.22-.73-.07-1.78-.06v-.78c1.84-.25 3.17-.59 4.01-1 .18-.09.3-.13.37-.13s.11.02.15.07c.04.04.05.11.05.2 0 .06 0 .13-.01.21-.04.44-.06 1.09-.08 1.95l1.79-1.64c.22-.2.37-.31.43-.34.21-.12.51-.22.9-.33s.8-.15 1.23-.15c.87 0 1.66.21 2.34.64s1.21 1.06 1.57 1.9l1.5-1.39c.34-.3.57-.5.69-.57.23-.13.57-.26 1.01-.39s.86-.17 1.3-.17c1.04 0 1.91.27 2.6.82.7.55 1.15 1.18 1.35 1.88.12.47.19 1.46.19 3.01v1.42l.04 1.9c.03 1.1.04 1.75.04 1.94.02.46.07.78.16 1 .04.08.09.15.17.21s.19.11.34.14c.05.01.56.02 1.5.04v.76c-1.15-.05-1.93-.08-2.35-.08s-1.21.03-2.42.08l.12-3.77.04-1.47v-1.17c0-1.52-.08-2.57-.23-3.13s-.48-1.02-.98-1.35c-.5-.35-1.07-.52-1.73-.52-.75 0-1.43.22-2.04.66-.46.34-.75.73-.9 1.19-.14.46-.21 1.34-.21 2.66v.91l.04 1.9c.02 1.1.03 1.75.04 1.94.02.46.07.78.16 1 .04.08.09.15.16.21s.18.1.33.14c.06.01.57.02 1.51.04v.76c-1.34-.07-2.41-.11-3.22-.11-.65 0-1.85.04-3.58.11v-.76h1.3c.2-.02.36-.05.46-.11s.18-.13.24-.22c.1-.18.16-.51.17-.96.01-.12.04-1.42.08-3.92v-1.07c0-1.18-.09-2.03-.27-2.57s-.5-.98-.95-1.3-1.01-.49-1.64-.49c-.55 0-1.07.11-1.55.35s-.86.52-1.13.86-.43.71-.48 1.11c-.09.63-.13 1.38-.13 2.27v.83c.05 2.37.08 3.65.08 3.84.02.46.07.78.16 1 .04.08.09.15.16.21s.18.1.34.14c.05.01.56.02 1.5.04v.76c-1.25-.07-2.32-.11-3.2-.11-.79-.04-1.97 0-3.54.07z"/><path d="m238.62 77.92v-.76h1.3c.19-.02.34-.05.45-.11.1-.06.18-.13.23-.22.1-.18.16-.51.19-.96 0-.12.03-1.42.08-3.92v-1.63c0-.73-.01-1.51-.04-2.35-.03-.54-.07-.85-.13-.95s-.16-.17-.3-.22-.73-.07-1.78-.06v-.78c1.84-.25 3.17-.59 4.01-1 .18-.09.3-.13.37-.13s.11.02.15.07c.04.04.05.11.05.2 0 .06 0 .13-.01.21-.04.44-.06 1.09-.08 1.95l1.79-1.64c.22-.2.37-.31.43-.34.21-.12.51-.22.9-.33s.8-.15 1.23-.15c.87 0 1.66.21 2.34.64s1.21 1.06 1.57 1.9l1.5-1.39c.34-.3.57-.5.69-.57.23-.13.57-.26 1.01-.39s.86-.17 1.3-.17c1.04 0 1.91.27 2.6.82.7.55 1.15 1.18 1.35 1.88.12.47.19 1.46.19 3.01v1.42l.04 1.9c.03 1.1.04 1.75.04 1.94.02.46.07.78.16 1 .04.08.09.15.17.21s.19.11.34.14c.05.01.56.02 1.5.04v.76c-1.15-.05-1.93-.08-2.35-.08s-1.21.03-2.42.08l.12-3.77.04-1.47v-1.17c0-1.52-.08-2.57-.23-3.13s-.48-1.02-.98-1.35c-.5-.35-1.07-.52-1.73-.52-.75 0-1.43.22-2.04.66-.46.34-.75.73-.9 1.19-.14.46-.21 1.34-.21 2.66v.91l.04 1.9c.02 1.1.03 1.75.04 1.94.02.46.07.78.16 1 .04.08.09.15.16.21s.18.1.33.14c.06.01.57.02 1.51.04v.76c-1.34-.07-2.41-.11-3.22-.11-.65 0-1.85.04-3.58.11v-.76h1.3c.2-.02.36-.05.46-.11s.18-.13.24-.22c.1-.18.16-.51.17-.96.01-.12.04-1.42.08-3.92v-1.07c0-1.18-.09-2.03-.27-2.57s-.5-.98-.95-1.3-1.01-.49-1.64-.49c-.55 0-1.07.11-1.55.35s-.86.52-1.13.86-.43.71-.48 1.11c-.09.63-.13 1.38-.13 2.27v.83c.05 2.37.08 3.65.08 3.84.02.46.07.78.16 1 .04.08.09.15.16.21s.18.1.34.14c.05.01.56.02 1.5.04v.76c-1.25-.07-2.32-.11-3.2-.11-.78-.04-1.96 0-3.54.07z"/><path d="m263.31 66.71v-.78c1.77-.2 3.24-.58 4.45-1.15l.3.21c-.07 1.94-.11 3.42-.11 4.45v2.48c.04 2.37.07 3.64.08 3.83.01.46.06.78.15 1 .04.08.1.15.17.21s.18.11.33.14c.05.01.56.02 1.51.04v.76c-1.38-.06-2.49-.09-3.31-.09-.73 0-1.92.03-3.58.09v-.76h1.29c.19-.02.34-.05.45-.11.1-.06.18-.13.24-.22.1-.18.16-.51.19-.96 0-.12.03-1.42.08-3.91v-2.4c0-1.35-.04-2.15-.13-2.42-.05-.13-.15-.24-.29-.3-.14-.07-.75-.1-1.83-.1zm3.33-7.99c.43 0 .79.15 1.09.45s.45.66.45 1.09-.15.78-.45 1.08-.66.45-1.08.45-.79-.15-1.09-.45c-.3-.29-.45-.66-.45-1.08s.15-.79.45-1.09c.28-.29.65-.45 1.08-.45z"/><path d="m272.1 73.8h.82c.01.53.04.94.08 1.26.04.3.12.61.23.9s.27.55.51.75c.22.2.48.37.74.48s.54.19.81.22c.27.04.7.05 1.26.05.92 0 1.69-.24 2.29-.73s.89-1.17.89-2.02c0-.39-.09-.72-.27-1.01s-.46-.52-.8-.68-1.1-.38-2.25-.64-1.9-.46-2.23-.57c-.51-.19-.91-.43-1.22-.69-.29-.27-.54-.62-.71-1.04s-.26-.87-.26-1.36c0-.72.19-1.38.57-1.98s.98-1.1 1.78-1.47c.81-.38 1.69-.57 2.64-.57.57 0 1.24.08 1.99.24s1.37.36 1.84.59c-.06 1.01-.11 2.03-.13 3.08h-.77c-.04-.66-.1-1.1-.15-1.31-.06-.21-.14-.4-.24-.56s-.27-.34-.52-.53-.56-.36-.94-.5-.86-.21-1.42-.21c-.8 0-1.44.23-1.93.71s-.73 1.03-.73 1.67c0 .36.07.66.21.91s.33.46.57.62c.23.16.57.3 1 .43l2.27.56c1.15.29 1.93.54 2.37.75s.78.54 1.05.98.4.98.4 1.58c0 1.23-.51 2.3-1.52 3.21s-2.37 1.37-4.07 1.37c-.78 0-1.82-.12-3.12-.36-.72-.13-1.11-.23-1.16-.28-.04-.03-.05-.07-.05-.13s.01-.14.03-.23c.08-.39.13-.77.16-1.15-.01-.4.01-1.17.03-2.35z"/><path d="m283.93 73.8h.82c.01.53.04.94.08 1.26.04.3.12.61.23.9s.27.55.51.75c.22.2.48.37.74.48s.54.19.81.22c.27.04.7.05 1.26.05.92 0 1.69-.24 2.29-.73s.89-1.17.89-2.02c0-.39-.09-.72-.27-1.01s-.46-.52-.8-.68-1.1-.38-2.25-.64-1.9-.46-2.23-.57c-.51-.19-.91-.43-1.22-.69-.29-.27-.54-.62-.71-1.04s-.26-.87-.26-1.36c0-.72.19-1.38.57-1.98s.98-1.1 1.78-1.47c.81-.38 1.69-.57 2.64-.57.57 0 1.24.08 1.99.24s1.37.36 1.84.59c-.06 1.01-.11 2.03-.13 3.08h-.77c-.04-.66-.1-1.1-.15-1.31-.06-.21-.14-.4-.24-.56s-.27-.34-.52-.53-.56-.36-.94-.5-.86-.21-1.42-.21c-.8 0-1.44.23-1.93.71s-.73 1.03-.73 1.67c0 .36.07.66.21.91s.33.46.57.62c.23.16.57.3 1 .43l2.27.56c1.15.29 1.93.54 2.37.75s.78.54 1.05.98.4.98.4 1.58c0 1.23-.51 2.3-1.52 3.21s-2.37 1.37-4.07 1.37c-.78 0-1.82-.12-3.12-.36-.72-.13-1.11-.23-1.16-.28-.04-.03-.05-.07-.05-.13s.01-.14.03-.23c.08-.39.13-.77.16-1.15-.01-.4.01-1.17.03-2.35z"/><path d="m295.11 66.71v-.78c1.77-.2 3.24-.58 4.45-1.15l.3.21c-.07 1.94-.11 3.42-.11 4.45v2.48c.04 2.37.07 3.64.08 3.83.01.46.06.78.15 1 .04.08.1.15.17.21s.18.11.33.14c.05.01.56.02 1.51.04v.76c-1.38-.06-2.49-.09-3.31-.09-.73 0-1.92.03-3.58.09v-.76h1.29c.19-.02.34-.05.45-.11.1-.06.18-.13.24-.22.1-.18.16-.51.19-.96 0-.12.03-1.42.08-3.91v-2.4c0-1.35-.04-2.15-.13-2.42-.05-.13-.15-.24-.29-.3-.15-.07-.76-.1-1.83-.1zm3.32-7.99c.43 0 .79.15 1.09.45s.45.66.45 1.09-.15.78-.45 1.08-.66.45-1.08.45-.79-.15-1.09-.45c-.3-.29-.45-.66-.45-1.08s.15-.79.45-1.09c.28-.29.65-.45 1.08-.45z"/><path d="m303.54 71.64c0-2.03.65-3.7 1.94-4.99 1.3-1.29 2.96-1.93 4.99-1.93 1.91 0 3.46.6 4.66 1.8s1.8 2.75 1.8 4.65c0 1.33-.3 2.54-.92 3.64s-1.49 1.96-2.62 2.58-2.37.93-3.73.93c-1.06 0-1.95-.17-2.68-.53s-1.32-.8-1.78-1.34-.8-1.09-1.04-1.65c-.41-.98-.62-2.03-.62-3.17zm2.58-1.01c0 1.12.18 2.25.56 3.41s.91 2 1.62 2.53 1.47.8 2.3.8c1.06 0 1.94-.42 2.64-1.25.71-.83 1.07-2.12 1.07-3.86 0-1.44-.21-2.69-.63-3.74-.43-1.05-.96-1.79-1.62-2.22-.65-.43-1.38-.65-2.16-.65-1.12 0-2.02.41-2.72 1.22-.7.79-1.05 2.05-1.05 3.76z"/><path d="m318.24 77.92v-.76h1.3c.19-.02.34-.05.45-.11.1-.06.18-.13.24-.22.1-.18.16-.51.19-.96 0-.12.03-1.42.08-3.92v-1.63c0-.73-.01-1.51-.04-2.35-.03-.54-.07-.85-.13-.95s-.16-.17-.3-.22-.74-.07-1.78-.06v-.78c1.84-.25 3.17-.59 4.01-1 .18-.09.3-.13.37-.13s.11.02.15.07.05.11.05.2c0 .06 0 .13-.01.21-.03.33-.05 1.02-.08 2.07l2.54-2.16c.75-.27 1.45-.41 2.11-.41.74 0 1.43.15 2.09.45s1.16.68 1.49 1.14.55 1.03.66 1.72c.06.41.09 1.55.09 3.42v2.42c0 1.19.03 1.99.09 2.42.04.27.11.47.21.57.09.1.24.17.45.19l1.46.04v.76c-.89-.06-1.64-.09-2.22-.09-.51 0-1.35.03-2.54.09.13-2.24.19-3.67.19-4.26v-2.3c0-1.42-.05-2.37-.16-2.8-.15-.61-.51-1.1-1.06-1.47s-1.21-.56-1.98-.56c-.68 0-1.31.16-1.87.49-.57.33-.96.7-1.21 1.12-.24.43-.37 1.14-.37 2.13v1.66c.05 2.37.08 3.65.08 3.84.02.46.07.78.16 1 .04.08.09.15.16.21s.18.1.35.14c.05.01.56.02 1.5.04v.76c-1.11-.06-2.11-.09-3.01-.09-.76-.01-2.01.02-3.74.08z"/></svg>