<?xml version="1.0" standalone="no"?>
<!DOCTYPE svg PUBLIC "-//W3C//DTD SVG 20010904//EN"
 "http://www.w3.org/TR/2001/REC-SVG-20010904/DTD/svg10.dtd">
<svg version="1.0" xmlns="http://www.w3.org/2000/svg"
 width="700.000000pt" height="700.000000pt" viewBox="0 0 700.000000 700.000000"
 preserveAspectRatio="xMidYMid meet">
<metadata>
Created by potrace 1.14, written by Peter Selinger 2001-2017
</metadata>
<g transform="translate(0.000000,700.000000) scale(0.100000,-0.100000)"
fill="#000000" stroke="none">
<path d="M2369 5846 c-2 -2 -35 -7 -74 -11 -106 -10 -114 -11 -205 -29 -692
-139 -1294 -610 -1600 -1250 -28 -58 -50 -108 -50 -113 0 -4 -7 -21 -15 -36
-47 -90 -122 -385 -140 -552 -3 -27 -8 -66 -10 -85 -6 -46 -6 -332 0 -390 10
-99 15 -138 31 -215 8 -44 18 -91 20 -105 8 -44 43 -165 69 -239 104 -297 298
-609 516 -831 68 -69 205 -191 253 -225 15 -11 47 -34 70 -51 276 -204 677
-357 1056 -401 82 -10 449 -9 515 0 28 5 66 10 85 13 195 27 480 116 669 209
299 148 596 392 785 645 27 36 53 69 58 75 5 6 246 10 636 11 345 0 647 4 672
8 385 63 663 229 892 534 79 105 171 293 198 405 6 23 13 51 16 62 26 105 32
173 29 320 -1 88 -6 174 -10 190 -4 17 -8 39 -10 50 -10 61 -44 169 -76 242
-11 24 -19 46 -19 49 0 4 -23 46 -50 94 -197 343 -522 573 -915 646 -80 15
-213 17 -1230 19 -627 2 -1147 3 -1156 4 -15 1 -17 38 -17 402 1 220 -3 404
-8 408 -25 23 -305 100 -434 120 -36 6 -83 13 -105 17 -44 6 -440 15 -446 10z"/>
</g>
</svg>
