<?xml version="1.0" standalone="no"?>
<!DOCTYPE svg PUBLIC "-//W3C//DTD SVG 20010904//EN"
 "http://www.w3.org/TR/2001/REC-SVG-20010904/DTD/svg10.dtd">
<svg version="1.0" xmlns="http://www.w3.org/2000/svg"
 width="700.000000pt" height="700.000000pt" viewBox="0 0 700.000000 700.000000"
 preserveAspectRatio="xMidYMid meet">
<metadata>
Created by potrace 1.14, written by Peter Selinger 2001-2017
</metadata>
<g transform="translate(0.000000,700.000000) scale(0.100000,-0.100000)"
fill="#000000" stroke="none">
<path d="M2377 5704 c-1 -1 -33 -5 -72 -9 -79 -7 -128 -13 -165 -21 -14 -2
-38 -7 -55 -10 -49 -8 -252 -63 -298 -80 -207 -78 -346 -148 -500 -251 -619
-413 -988 -1099 -991 -1838 0 -88 11 -265 19 -305 3 -14 8 -45 11 -70 6 -52
63 -286 74 -309 4 -9 13 -34 19 -56 7 -22 16 -49 21 -60 5 -11 23 -54 41 -95
122 -289 309 -545 579 -791 43 -39 198 -155 260 -195 196 -125 458 -238 660
-284 217 -50 352 -65 571 -63 227 2 434 37 679 115 384 122 756 383 1021 713
l88 110 588 1 c323 0 620 4 658 8 424 45 814 319 1003 706 38 79 87 209 98
262 2 13 6 34 9 48 3 14 8 36 11 50 13 55 12 336 -3 420 -20 116 -64 245 -123
365 -190 379 -585 652 -1004 692 -39 4 -564 7 -1166 7 l-1095 1 0 393 c0 253
-3 396 -10 401 -11 9 -159 59 -195 66 -12 2 -37 9 -54 14 -49 16 -234 49 -316
57 -69 6 -357 13 -363 8z"/>
</g>
</svg>
