<?xml version="1.0" encoding="UTF-8" standalone="no" ?>
<!DOCTYPE svg PUBLIC "-//W3C//DTD SVG 1.1//EN" "http://www.w3.org/Graphics/SVG/1.1/DTD/svg11.dtd">
<svg xmlns="http://www.w3.org/2000/svg" xmlns:xlink="http://www.w3.org/1999/xlink" version="1.1" width="250" height="250" viewBox="0 0 250 250" xml:space="preserve">
<desc>Created with Fabric.js 3.6.6</desc>
<defs>
</defs>
<g transform="matrix(0.76 0 0 0.76 120.03 130.97)"  >
<g style=""   >
		<g transform="matrix(1 0 0 1 -115.5 24.95)" id="Layer_1"  >
<path style="stroke: none; stroke-width: 1; stroke-dasharray: none; stroke-linecap: butt; stroke-dashoffset: 0; stroke-linejoin: miter; stroke-miterlimit: 4; fill: rgb(0,113,206); fill-rule: nonzero; opacity: 1;"  transform=" translate(-48.9, -99.85)" d="M 55.1 92.6 l -2.2 0 c -1.5 0 -3 -0.1 -4.5 -0.1 l -0.8 0 c -1.2 0 -2.5 -0.1 -3.7 -0.1 l -2.3 -0.1 c -0.5 0 -1 0 -1.5 -0.1 c 0.2 4.4 0.5 8.8 0.7 13.1 c 5.4 1.1 11.1 1.8 16.9 2.2 c -0.4 -5 -0.7 -10 -0.9 -14.9 C 56.2 92.6 55.7 92.6 55.1 92.6 z" stroke-linecap="round" />
</g>
		<g transform="matrix(1 0 0 1 -82.9 -45.1)" id="Layer_1"  >
<path style="stroke: none; stroke-width: 1; stroke-dasharray: none; stroke-linecap: butt; stroke-dashoffset: 0; stroke-linejoin: miter; stroke-miterlimit: 4; fill: rgb(168,27,141); fill-rule: nonzero; opacity: 1;"  transform=" translate(-81.5, -29.8)" d="M 75.3 36.9 l 2.2 0 c 1.5 0 3 0.1 4.5 0.1 l 0.8 0 c 1.2 0 2.5 0.1 3.7 0.1 l 2.2 0.1 c 0.5 0 1 0 1.6 0.1 c -0.2 -4.3 -0.4 -8.6 -0.7 -12.8 c -5.5 -1.1 -11.1 -1.8 -16.9 -2.2 c 0.4 4.8 0.7 9.7 0.9 14.5 C 74.2 36.9 74.8 36.9 75.3 36.9 z" stroke-linecap="round" />
</g>
		<g transform="matrix(1 0 0 1 -64.2 6.2)" id="Layer_1"  >
<path style="stroke: none; stroke-width: 1; stroke-dasharray: none; stroke-linecap: butt; stroke-dashoffset: 0; stroke-linejoin: miter; stroke-miterlimit: 4; fill: rgb(0,32,92); fill-rule: nonzero; opacity: 1;"  transform=" translate(-100.2, -81.1)" d="M 92.6 89.9 c 4.3 -0.2 8.7 -0.4 13 -0.7 c 1.1 -5.4 1.8 -11.1 2.2 -16.9 c -4.9 0.4 -9.8 0.7 -14.7 0.9 l 0 0.3 c -0.1 5.3 -0.2 10.8 -0.4 16.2 L 92.6 89.9 z" stroke-linecap="round" />
</g>
		<g transform="matrix(1 0 0 1 -117.1 6.74)" id="Layer_1"  >
<path style="stroke: none; stroke-width: 1; stroke-dasharray: none; stroke-linecap: butt; stroke-dashoffset: 0; stroke-linejoin: miter; stroke-miterlimit: 4; fill: rgb(0,32,92); fill-rule: nonzero; opacity: 1;"  transform=" translate(-47.3, -81.64)" d="M 71.9 82 c 0 -1.5 0.1 -2.9 0.1 -4.4 l 0 -1.5 c 0 -0.7 0 -1.5 0 -2.2 l -3.1 0 c -1.3 0 -2.5 0 -3.8 0 c -2.3 0 -4.6 0 -6.9 0 v 0 l -1.1 0 v 0 l -1 0 v 0 c -5.8 -0.1 -11.8 -0.3 -17.8 -0.5 l -1 0 c -4.8 -0.2 -9.8 -0.5 -14.7 -0.9 c 0.3 5.8 1.1 11.4 2.2 16.9 c 4.7 0.3 9.4 0.6 14.2 0.8 c 6.3 0.3 12.6 0.5 18.8 0.5 c 4.6 0.1 9.3 0.1 13.8 0 c 0 -0.8 0.1 -1.7 0.1 -2.5 l 0.1 -1.4 C 71.8 85.1 71.9 83.6 71.9 82 L 71.9 82 z" stroke-linecap="round" />
</g>
		<g transform="matrix(1 0 0 1 -107.2 -1.3)" id="Layer_1"  >
<polygon style="stroke: none; stroke-width: 1; stroke-dasharray: none; stroke-linecap: butt; stroke-dashoffset: 0; stroke-linejoin: miter; stroke-miterlimit: 4; fill: rgb(13,45,108); fill-rule: nonzero; opacity: 1;"  points="0,0 0,0 0,0 " />
</g>
		<g transform="matrix(1 0 0 1 -82.4 7.75)" id="Layer_1"  >
<path style="stroke: none; stroke-width: 1; stroke-dasharray: none; stroke-linecap: butt; stroke-dashoffset: 0; stroke-linejoin: miter; stroke-miterlimit: 4; fill: rgb(168,27,141); fill-rule: nonzero; opacity: 1;"  transform=" translate(-82, -82.65)" d="M 74.3 72.8 L 74.3 72.8 L 74.3 72.8 l 0 1 h 0 c 0 0.1 0 0.2 0 0.4 c 0 1.8 -0.1 3.6 -0.1 5.5 c 0 0.6 0 1.1 0 1.7 c 0 0.7 0 1.4 -0.1 2.1 c 0 0 0 0 0 0 c 0 0 0 0 0 0 c 0 1.1 -0.1 2.2 -0.1 3.3 c -0.1 1.6 -0.1 3.2 -0.2 4.8 l 0 1 h 0 c -0.2 4.9 -0.5 9.9 -0.9 14.8 c 5.7 -0.3 11.4 -1.1 16.9 -2.2 c 0.3 -4.8 0.6 -9.6 0.8 -14.3 c 0.3 -6.3 0.4 -12.6 0.5 -18.8 c 0 -2.5 0 -4.9 0 -7.4 c 0 -2.1 0 -4.3 0 -6.4 c -0.9 0 -1.7 -0.1 -2.6 -0.1 L 87 58.2 c -1.5 -0.1 -3 -0.1 -4.5 -0.2 L 82 58 c -1.3 0 -2.7 -0.1 -4 -0.1 l -1.5 0 c -0.7 0 -1.5 0 -2.2 0 l 0 3.2 c 0 1.3 0 2.5 0 3.7 c 0 2.2 0 4.6 0 6.9 h 0 L 74.3 72.8 L 74.3 72.8 z" stroke-linecap="round" />
</g>
		<g transform="matrix(1 0 0 1 -134.15 -26.5)" id="Layer_1"  >
<path style="stroke: none; stroke-width: 1; stroke-dasharray: none; stroke-linecap: butt; stroke-dashoffset: 0; stroke-linejoin: miter; stroke-miterlimit: 4; fill: rgb(147,213,0); fill-rule: nonzero; opacity: 1;"  transform=" translate(-30.25, -48.4)" d="M 37.7 41.3 c 0 -0.6 0 -1.1 0.1 -1.7 c -4.3 0.2 -8.6 0.4 -12.9 0.7 c -1.1 5.5 -1.9 11.1 -2.2 16.9 c 4.9 -0.4 9.8 -0.7 14.7 -0.9 c 0 -0.9 0 -1.8 0 -2.8 l 0 -1 c 0 -1.5 0.1 -3 0.1 -4.6 l 0 -0.4 c 0 -1.4 0.1 -2.8 0.1 -4.1 L 37.7 41.3 z" stroke-linecap="round" />
</g>
		<g transform="matrix(1 0 0 1 -116 -27.9)" id="Layer_1"  >
<path style="stroke: none; stroke-width: 1; stroke-dasharray: none; stroke-linecap: butt; stroke-dashoffset: 0; stroke-linejoin: miter; stroke-miterlimit: 4; fill: rgb(0,113,206); fill-rule: nonzero; opacity: 1;"  transform=" translate(-48.4, -47)" d="M 47.9 71.5 l 0.5 0 c 1.3 0 2.7 0.1 4 0.1 l 1.5 0 c 0.3 0 0.5 0 0.8 0 c 0.5 0 0.9 0 1.4 0 c 0 -0.6 0 -1.1 0 -1.7 l 0 -1.4 c 0 -1.3 0 -2.6 0 -3.8 c 0 -2.3 0 -4.6 0 -6.9 h 0 l 0 -1.1 h 0 l 0 -1 h 0 c 0.1 -5.8 0.3 -11.8 0.5 -17.8 l 0 -1 c 0.2 -4.8 0.5 -9.7 0.9 -14.5 c -5.7 0.3 -11.4 1.1 -16.9 2.2 c -0.3 4.6 -0.6 9.3 -0.8 14 c -0.3 6.3 -0.5 12.7 -0.5 18.8 c 0 2.5 0 4.9 0 7.4 c 0 2.1 0 4.3 0 6.4 c 0.8 0 1.7 0.1 2.5 0.1 l 0 0 l 1.4 0.1 C 44.9 71.4 46.4 71.4 47.9 71.5 z" stroke-linecap="round" />
</g>
		<g transform="matrix(1 0 0 1 -122.4 -3.3)" id="Layer_1"  >
<polygon style="stroke: none; stroke-width: 1; stroke-dasharray: none; stroke-linecap: butt; stroke-dashoffset: 0; stroke-linejoin: miter; stroke-miterlimit: 4; fill: rgb(13,45,108); fill-rule: nonzero; opacity: 1;"  points="0,0 0,0 0,0 " />
</g>
		<g transform="matrix(1 0 0 1 -81.3 -26.9)" id="Layer_1"  >
<path style="stroke: none; stroke-width: 1; stroke-dasharray: none; stroke-linecap: butt; stroke-dashoffset: 0; stroke-linejoin: miter; stroke-miterlimit: 4; fill: rgb(147,213,0); fill-rule: nonzero; opacity: 1;"  transform=" translate(-83.1, -48)" d="M 58.5 47.6 c 0 1.5 -0.1 2.9 -0.1 4.4 l 0 1.6 c 0 0 0 0 0 0 l 0 0 c 0 0.7 0 1.4 0 2.1 l 3.1 0 c 1.3 0 2.5 0 3.8 0 c 2.2 0 4.6 0 6.9 0 v 0 l 1.1 0 l 1 0 v 0 c 5.8 0.1 11.8 0.3 17.8 0.5 h 0 l 0 0 l 1 0 v 0 c 4.8 0.2 9.8 0.5 14.7 0.9 c -0.3 -5.7 -1.1 -11.4 -2.2 -16.9 c -4.6 -0.3 -9.4 -0.6 -14.1 -0.8 c -6.3 -0.3 -12.6 -0.5 -18.8 -0.5 C 68 39 63.3 39 58.8 39 c 0 0.8 -0.1 1.6 -0.1 2.4 l -0.1 1.5 C 58.6 44.5 58.5 46 58.5 47.6 L 58.5 47.6 z" stroke-linecap="round" />
</g>
		<g transform="matrix(1 0 0 1 -32.2 -39.1)" id="Layer_1"  >
<path style="stroke: none; stroke-width: 1; stroke-dasharray: none; stroke-linecap: butt; stroke-dashoffset: 0; stroke-linejoin: miter; stroke-miterlimit: 4; fill: rgb(0,32,92); fill-rule: nonzero; opacity: 1;"  transform=" translate(-132.2, -35.8)" d="M 122.3 35.9 L 122.3 35.9 c 0 -6.2 4.6 -11.3 11.2 -11.3 c 4 0 6.4 1.4 8.5 3.4 l -2.4 2.8 c -1.7 -1.6 -3.6 -2.7 -6.1 -2.7 c -4.1 0 -7.1 3.4 -7.1 7.6 v 0.1 c 0 4.2 3 7.7 7.1 7.7 c 2.7 0 4.4 -1.1 6.2 -2.8 l 2.4 2.5 c -2.3 2.4 -4.7 3.8 -8.8 3.8 C 127 47.1 122.3 42.1 122.3 35.9 z" stroke-linecap="round" />
</g>
		<g transform="matrix(1 0 0 1 -10.35 -39.1)" id="Layer_1"  >
<path style="stroke: none; stroke-width: 1; stroke-dasharray: none; stroke-linecap: butt; stroke-dashoffset: 0; stroke-linejoin: miter; stroke-miterlimit: 4; fill: rgb(0,32,92); fill-rule: nonzero; opacity: 1;"  transform=" translate(-154.05, -35.8)" d="M 142.7 35.9 L 142.7 35.9 c 0 -6.2 4.7 -11.3 11.4 -11.3 c 6.7 0 11.3 5 11.3 11.1 v 0.1 c 0 6.1 -4.7 11.2 -11.4 11.2 C 147.4 47.1 142.7 42 142.7 35.9 z M 161.4 35.9 L 161.4 35.9 c 0 -4.3 -3.1 -7.8 -7.4 -7.8 c -4.3 0 -7.3 3.4 -7.3 7.6 v 0.1 c 0 4.2 3.1 7.7 7.4 7.7 C 158.4 43.6 161.4 40.1 161.4 35.9 z" stroke-linecap="round" />
</g>
		<g transform="matrix(1 0 0 1 14.5 -39.05)" id="Layer_1"  >
<path style="stroke: none; stroke-width: 1; stroke-dasharray: none; stroke-linecap: butt; stroke-dashoffset: 0; stroke-linejoin: miter; stroke-miterlimit: 4; fill: rgb(0,32,92); fill-rule: nonzero; opacity: 1;"  transform=" translate(-178.9, -35.85)" d="M 168.2 25 h 4.1 l 6.6 10.2 l 6.6 -10.2 h 4.1 v 21.7 h -3.8 V 31.2 l -6.8 10.2 h -0.1 L 172 31.2 v 15.5 h -3.7 V 25 z" stroke-linecap="round" />
</g>
		<g transform="matrix(1 0 0 1 39.6 -39)" id="Layer_1"  >
<path style="stroke: none; stroke-width: 1; stroke-dasharray: none; stroke-linecap: butt; stroke-dashoffset: 0; stroke-linejoin: miter; stroke-miterlimit: 4; fill: rgb(0,32,92); fill-rule: nonzero; opacity: 1;"  transform=" translate(-204, -35.9)" d="M 193.3 25 h 4.1 l 6.6 10.2 l 6.6 -10.2 h 4.1 v 21.7 h -3.8 V 31.2 L 204 41.4 h -0.1 l -6.8 -10.1 v 15.5 h -3.7 V 25 z" stroke-linecap="round" />
</g>
		<g transform="matrix(1 0 0 1 62.95 -38.9)" id="Layer_1"  >
<path style="stroke: none; stroke-width: 1; stroke-dasharray: none; stroke-linecap: butt; stroke-dashoffset: 0; stroke-linejoin: miter; stroke-miterlimit: 4; fill: rgb(0,32,92); fill-rule: nonzero; opacity: 1;"  transform=" translate(-227.35, -36)" d="M 218.1 37.5 V 25 h 3.8 v 12.3 c 0 4 2.1 6.2 5.5 6.2 c 3.4 0 5.4 -2 5.4 -6 V 25 h 3.8 v 12.3 c 0 6.5 -3.7 9.7 -9.3 9.7 C 221.7 47 218.1 43.8 218.1 37.5 z" stroke-linecap="round" />
</g>
		<g transform="matrix(1 0 0 1 85.1 -39.05)" id="Layer_1"  >
<path style="stroke: none; stroke-width: 1; stroke-dasharray: none; stroke-linecap: butt; stroke-dashoffset: 0; stroke-linejoin: miter; stroke-miterlimit: 4; fill: rgb(0,32,92); fill-rule: nonzero; opacity: 1;"  transform=" translate(-249.5, -35.85)" d="M 240.1 25 h 3.5 l 11.6 15 V 25 h 3.7 v 21.7 h -3.2 l -11.9 -15.4 v 15.4 h -3.7 V 25 z" stroke-linecap="round" />
</g>
		<g transform="matrix(1 0 0 1 100 -39.05)" id="Layer_1"  >
<path style="stroke: none; stroke-width: 1; stroke-dasharray: none; stroke-linecap: butt; stroke-dashoffset: 0; stroke-linejoin: miter; stroke-miterlimit: 4; fill: rgb(0,32,92); fill-rule: nonzero; opacity: 1;"  transform=" translate(-264.4, -35.85)" d="M 262.5 25 h 3.8 v 21.7 h -3.8 V 25 z" stroke-linecap="round" />
</g>
		<g transform="matrix(1 0 0 1 113.1 -39.1)" id="Layer_1"  >
<path style="stroke: none; stroke-width: 1; stroke-dasharray: none; stroke-linecap: butt; stroke-dashoffset: 0; stroke-linejoin: miter; stroke-miterlimit: 4; fill: rgb(0,32,92); fill-rule: nonzero; opacity: 1;"  transform=" translate(-277.5, -35.8)" d="M 275.6 28.6 h -6.9 V 25 h 17.6 v 3.5 h -6.9 v 18.1 h -3.8 V 28.6 z" stroke-linecap="round" />
</g>
		<g transform="matrix(1 0 0 1 134.25 -39.1)" id="Layer_1"  >
<path style="stroke: none; stroke-width: 1; stroke-dasharray: none; stroke-linecap: butt; stroke-dashoffset: 0; stroke-linejoin: miter; stroke-miterlimit: 4; fill: rgb(0,32,92); fill-rule: nonzero; opacity: 1;"  transform=" translate(-298.65, -35.8)" d="M 296.7 38.1 L 288.1 25 h 4.5 l 6.1 9.6 l 6.1 -9.6 h 4.4 l -8.6 13 v 8.6 h -3.8 V 38.1 z" stroke-linecap="round" />
</g>
		<g transform="matrix(1 0 0 1 -33 -9.95)" id="Layer_1"  >
<path style="stroke: none; stroke-width: 1; stroke-dasharray: none; stroke-linecap: butt; stroke-dashoffset: 0; stroke-linejoin: miter; stroke-miterlimit: 4; fill: rgb(168,27,141); fill-rule: nonzero; opacity: 1;"  transform=" translate(-131.4, -64.95)" d="M 122.3 54.1 h 9.7 c 2.7 0 4.9 0.8 6.2 2.2 c 1.1 1.2 1.8 2.8 1.8 4.7 V 61 c 0 3.6 -2.1 5.7 -5.2 6.6 l 5.8 8.2 h -4.5 l -5.3 -7.5 h -4.8 v 7.5 h -3.8 V 54.1 z M 131.6 64.9 c 2.7 0 4.5 -1.4 4.5 -3.6 v -0.1 c 0 -2.3 -1.7 -3.6 -4.5 -3.6 h -5.5 v 7.3 H 131.6 z" stroke-linecap="round" />
</g>
		<g transform="matrix(1 0 0 1 -13.4 -10)" id="Layer_1"  >
<path style="stroke: none; stroke-width: 1; stroke-dasharray: none; stroke-linecap: butt; stroke-dashoffset: 0; stroke-linejoin: miter; stroke-miterlimit: 4; fill: rgb(168,27,141); fill-rule: nonzero; opacity: 1;"  transform=" translate(-151, -64.9)" d="M 142.9 54.1 h 16.1 v 3.4 h -12.3 v 5.6 h 10.9 v 3.4 h -10.9 v 5.8 h 12.4 v 3.4 h -16.2 V 54.1 z" stroke-linecap="round" />
</g>
		<g transform="matrix(1 0 0 1 5.1 -9.95)" id="Layer_1"  >
<path style="stroke: none; stroke-width: 1; stroke-dasharray: none; stroke-linecap: butt; stroke-dashoffset: 0; stroke-linejoin: miter; stroke-miterlimit: 4; fill: rgb(168,27,141); fill-rule: nonzero; opacity: 1;"  transform=" translate(-169.5, -64.95)" d="M 161.9 54.1 h 3.8 v 18.2 h 11.4 v 3.5 h -15.2 V 54.1 z" stroke-linecap="round" />
</g>
		<g transform="matrix(1 0 0 1 24.45 -10)" id="Layer_1"  >
<path style="stroke: none; stroke-width: 1; stroke-dasharray: none; stroke-linecap: butt; stroke-dashoffset: 0; stroke-linejoin: miter; stroke-miterlimit: 4; fill: rgb(168,27,141); fill-rule: nonzero; opacity: 1;"  transform=" translate(-188.85, -64.9)" d="M 187.1 54 h 3.5 l 9.5 21.8 h -4 l -2.2 -5.2 h -10.2 l -2.2 5.2 h -3.9 L 187.1 54 z M 192.5 67.2 l -3.7 -8.7 l -3.7 8.7 H 192.5 z" stroke-linecap="round" />
</g>
		<g transform="matrix(1 0 0 1 42.1 -9.9)" id="Layer_1"  >
<path style="stroke: none; stroke-width: 1; stroke-dasharray: none; stroke-linecap: butt; stroke-dashoffset: 0; stroke-linejoin: miter; stroke-miterlimit: 4; fill: rgb(168,27,141); fill-rule: nonzero; opacity: 1;"  transform=" translate(-206.5, -65)" d="M 204.6 57.7 h -6.9 v -3.5 h 17.6 v 3.5 h -6.9 v 18.1 h -3.8 V 57.7 z" stroke-linecap="round" />
</g>
		<g transform="matrix(1 0 0 1 55.3 -9.95)" id="Layer_1"  >
<path style="stroke: none; stroke-width: 1; stroke-dasharray: none; stroke-linecap: butt; stroke-dashoffset: 0; stroke-linejoin: miter; stroke-miterlimit: 4; fill: rgb(168,27,141); fill-rule: nonzero; opacity: 1;"  transform=" translate(-219.7, -64.95)" d="M 217.8 54.1 h 3.8 v 21.7 h -3.8 V 54.1 z" stroke-linecap="round" />
</g>
		<g transform="matrix(1 0 0 1 71.05 -9.95)" id="Layer_1"  >
<path style="stroke: none; stroke-width: 1; stroke-dasharray: none; stroke-linecap: butt; stroke-dashoffset: 0; stroke-linejoin: miter; stroke-miterlimit: 4; fill: rgb(168,27,141); fill-rule: nonzero; opacity: 1;"  transform=" translate(-235.45, -64.95)" d="M 224.1 65 L 224.1 65 c 0 -6.2 4.7 -11.3 11.4 -11.3 s 11.3 5 11.3 11.1 V 65 c 0 6.1 -4.7 11.2 -11.4 11.2 S 224.1 71.1 224.1 65 z M 242.8 65 L 242.8 65 c 0 -4.3 -3.1 -7.8 -7.4 -7.8 s -7.3 3.4 -7.3 7.6 V 65 c 0 4.2 3.1 7.7 7.4 7.7 C 239.8 72.7 242.8 69.2 242.8 65 z" stroke-linecap="round" />
</g>
		<g transform="matrix(1 0 0 1 94.1 -9.95)" id="Layer_1"  >
<path style="stroke: none; stroke-width: 1; stroke-dasharray: none; stroke-linecap: butt; stroke-dashoffset: 0; stroke-linejoin: miter; stroke-miterlimit: 4; fill: rgb(168,27,141); fill-rule: nonzero; opacity: 1;"  transform=" translate(-258.5, -64.95)" d="M 249.1 54.1 h 3.5 l 11.6 15 v -15 h 3.7 v 21.7 h -3.2 l -11.9 -15.4 v 15.4 h -3.7 V 54.1 z" stroke-linecap="round" />
</g>
		<g transform="matrix(1 0 0 1 114.3 -10)" id="Layer_1"  >
<path style="stroke: none; stroke-width: 1; stroke-dasharray: none; stroke-linecap: butt; stroke-dashoffset: 0; stroke-linejoin: miter; stroke-miterlimit: 4; fill: rgb(168,27,141); fill-rule: nonzero; opacity: 1;"  transform=" translate(-278.7, -64.9)" d="M 270.3 72.6 l 2.3 -2.7 c 2.1 1.8 4.1 2.8 6.8 2.8 c 2.4 0 3.8 -1.1 3.8 -2.7 v -0.1 c 0 -1.5 -0.9 -2.4 -4.9 -3.3 c -4.6 -1.1 -7.2 -2.5 -7.2 -6.5 v -0.1 c 0 -3.7 3.1 -6.3 7.4 -6.3 c 3.2 0 5.7 1 7.9 2.7 l -2 2.9 c -1.9 -1.5 -3.9 -2.2 -5.9 -2.2 c -2.2 0 -3.5 1.1 -3.5 2.6 v 0.1 c 0 1.7 1 2.4 5.1 3.4 c 4.6 1.1 7 2.8 7 6.3 v 0.1 c 0 4.1 -3.2 6.5 -7.7 6.5 C 276 76.1 272.9 74.9 270.3 72.6 z" stroke-linecap="round" />
</g>
		<g transform="matrix(1 0 0 1 -32.2 19.1)" id="Layer_1"  >
<path style="stroke: none; stroke-width: 1; stroke-dasharray: none; stroke-linecap: butt; stroke-dashoffset: 0; stroke-linejoin: miter; stroke-miterlimit: 4; fill: rgb(0,113,206); fill-rule: nonzero; opacity: 1;"  transform=" translate(-132.2, -94)" d="M 122.3 94.1 L 122.3 94.1 c 0 -6.2 4.6 -11.3 11.2 -11.3 c 4 0 6.4 1.4 8.5 3.4 l -2.4 2.8 c -1.7 -1.6 -3.6 -2.7 -6.1 -2.7 c -4.1 0 -7.1 3.4 -7.1 7.6 v 0.1 c 0 4.2 3 7.7 7.1 7.7 c 2.7 0 4.4 -1.1 6.2 -2.8 l 2.4 2.5 c -2.3 2.4 -4.7 3.8 -8.8 3.8 C 127 105.3 122.3 100.3 122.3 94.1 z" stroke-linecap="round" />
</g>
		<g transform="matrix(1 0 0 1 -10.35 19.1)" id="Layer_1"  >
<path style="stroke: none; stroke-width: 1; stroke-dasharray: none; stroke-linecap: butt; stroke-dashoffset: 0; stroke-linejoin: miter; stroke-miterlimit: 4; fill: rgb(0,113,206); fill-rule: nonzero; opacity: 1;"  transform=" translate(-154.05, -94)" d="M 142.7 94.1 L 142.7 94.1 c 0 -6.2 4.7 -11.3 11.4 -11.3 c 6.7 0 11.3 5 11.3 11.1 v 0.1 c 0 6.1 -4.7 11.2 -11.4 11.2 C 147.4 105.3 142.7 100.2 142.7 94.1 z M 161.4 94.1 L 161.4 94.1 c 0 -4.3 -3.1 -7.8 -7.4 -7.8 c -4.3 0 -7.3 3.4 -7.3 7.6 v 0.1 c 0 4.2 3.1 7.7 7.4 7.7 C 158.4 101.8 161.4 98.3 161.4 94.1 z" stroke-linecap="round" />
</g>
		<g transform="matrix(1 0 0 1 12.75 19.3)" id="Layer_1"  >
<path style="stroke: none; stroke-width: 1; stroke-dasharray: none; stroke-linecap: butt; stroke-dashoffset: 0; stroke-linejoin: miter; stroke-miterlimit: 4; fill: rgb(0,113,206); fill-rule: nonzero; opacity: 1;"  transform=" translate(-177.15, -94.2)" d="M 167.9 95.7 V 83.2 h 3.8 v 12.3 c 0 4 2.1 6.2 5.5 6.2 c 3.4 0 5.4 -2 5.4 -6 V 83.2 h 3.8 v 12.3 c 0 6.5 -3.7 9.7 -9.3 9.7 C 171.5 105.2 167.9 102 167.9 95.7 z" stroke-linecap="round" />
</g>
		<g transform="matrix(1 0 0 1 34.3 19.15)" id="Layer_1"  >
<path style="stroke: none; stroke-width: 1; stroke-dasharray: none; stroke-linecap: butt; stroke-dashoffset: 0; stroke-linejoin: miter; stroke-miterlimit: 4; fill: rgb(0,113,206); fill-rule: nonzero; opacity: 1;"  transform=" translate(-198.7, -94.05)" d="M 189.3 83.2 h 3.5 l 11.6 15 v -15 h 3.7 v 21.7 H 205 l -11.9 -15.4 v 15.4 h -3.7 V 83.2 z" stroke-linecap="round" />
</g>
		<g transform="matrix(1 0 0 1 56 19.1)" id="Layer_1"  >
<path style="stroke: none; stroke-width: 1; stroke-dasharray: none; stroke-linecap: butt; stroke-dashoffset: 0; stroke-linejoin: miter; stroke-miterlimit: 4; fill: rgb(0,113,206); fill-rule: nonzero; opacity: 1;"  transform=" translate(-220.4, -94)" d="M 210.5 94.1 L 210.5 94.1 c 0 -6.2 4.6 -11.3 11.2 -11.3 c 4 0 6.4 1.4 8.5 3.4 l -2.4 2.8 c -1.7 -1.6 -3.6 -2.7 -6.1 -2.7 c -4.1 0 -7.1 3.4 -7.1 7.6 v 0.1 c 0 4.2 3 7.7 7.1 7.7 c 2.7 0 4.4 -1.1 6.2 -2.8 l 2.4 2.5 c -2.3 2.4 -4.7 3.8 -8.8 3.8 C 215.2 105.3 210.5 100.3 210.5 94.1 z" stroke-linecap="round" />
</g>
		<g transform="matrix(1 0 0 1 69.7 19.15)" id="Layer_1"  >
<path style="stroke: none; stroke-width: 1; stroke-dasharray: none; stroke-linecap: butt; stroke-dashoffset: 0; stroke-linejoin: miter; stroke-miterlimit: 4; fill: rgb(0,113,206); fill-rule: nonzero; opacity: 1;"  transform=" translate(-234.1, -94.05)" d="M 232.2 83.2 h 3.8 v 21.7 h -3.8 V 83.2 z" stroke-linecap="round" />
</g>
		<g transform="matrix(1 0 0 1 82.1 19.15)" id="Layer_1"  >
<path style="stroke: none; stroke-width: 1; stroke-dasharray: none; stroke-linecap: butt; stroke-dashoffset: 0; stroke-linejoin: miter; stroke-miterlimit: 4; fill: rgb(0,113,206); fill-rule: nonzero; opacity: 1;"  transform=" translate(-246.5, -94.05)" d="M 238.9 83.2 h 3.8 v 18.2 h 11.4 v 3.5 h -15.2 V 83.2 z" stroke-linecap="round" />
</g>
		<g transform="matrix(1 0 0 1 12.75 46.4)" id="Layer_1"  >
<path style="stroke: none; stroke-width: 1; stroke-dasharray: none; stroke-linecap: butt; stroke-dashoffset: 0; stroke-linejoin: miter; stroke-miterlimit: 4; fill: rgb(0,32,92); fill-rule: nonzero; opacity: 1;"  transform=" translate(-177.15, -121.3)" d="M 173.4 117.1 h 3.1 c 2.6 0 4.4 1.8 4.4 4.2 v 0 c 0 2.4 -1.8 4.2 -4.4 4.2 h -3.1 V 117.1 z M 176.5 124.1 c 1.8 0 2.9 -1.2 2.9 -2.8 v 0 c 0 -1.6 -1.1 -2.8 -2.9 -2.8 h -1.6 v 5.7 H 176.5 z" stroke-linecap="round" />
</g>
		<g transform="matrix(1 0 0 1 18.1 46.2)" id="Layer_1"  >
<path style="stroke: none; stroke-width: 1; stroke-dasharray: none; stroke-linecap: butt; stroke-dashoffset: 0; stroke-linejoin: miter; stroke-miterlimit: 4; fill: rgb(0,32,92); fill-rule: nonzero; opacity: 1;"  transform=" translate(-182.5, -121.1)" d="M 181.7 116.8 h 1.6 v 1.4 h -1.6 V 116.8 z M 181.8 119.1 h 1.4 v 6.3 h -1.4 V 119.1 z" stroke-linecap="round" />
</g>
		<g transform="matrix(1 0 0 1 22.55 47.4)" id="Layer_1"  >
<path style="stroke: none; stroke-width: 1; stroke-dasharray: none; stroke-linecap: butt; stroke-dashoffset: 0; stroke-linejoin: miter; stroke-miterlimit: 4; fill: rgb(0,32,92); fill-rule: nonzero; opacity: 1;"  transform=" translate(-186.95, -122.3)" d="M 183.7 119.1 h 1.6 l 1.7 4.6 l 1.7 -4.6 h 1.5 l -2.6 6.4 h -1.3 L 183.7 119.1 z" stroke-linecap="round" />
</g>
		<g transform="matrix(1 0 0 1 28.85 47.4)" id="Layer_1"  >
<path style="stroke: none; stroke-width: 1; stroke-dasharray: none; stroke-linecap: butt; stroke-dashoffset: 0; stroke-linejoin: miter; stroke-miterlimit: 4; fill: rgb(0,32,92); fill-rule: nonzero; opacity: 1;"  transform=" translate(-193.25, -122.3)" d="M 190.2 122.3 L 190.2 122.3 c 0 -1.8 1.3 -3.3 3.1 -3.3 c 2 0 3 1.6 3 3.4 c 0 0.1 0 0.3 0 0.4 h -4.6 c 0.2 1 0.9 1.6 1.8 1.6 c 0.7 0 1.2 -0.3 1.7 -0.8 l 0.8 0.8 c -0.6 0.7 -1.4 1.2 -2.6 1.2 C 191.6 125.6 190.2 124.2 190.2 122.3 z M 194.9 121.8 c -0.1 -0.9 -0.6 -1.7 -1.6 -1.7 c -0.9 0 -1.5 0.7 -1.6 1.7 H 194.9 z" stroke-linecap="round" />
</g>
		<g transform="matrix(1 0 0 1 34.4 47.3)" id="Layer_1"  >
<path style="stroke: none; stroke-width: 1; stroke-dasharray: none; stroke-linecap: butt; stroke-dashoffset: 0; stroke-linejoin: miter; stroke-miterlimit: 4; fill: rgb(0,32,92); fill-rule: nonzero; opacity: 1;"  transform=" translate(-198.8, -122.2)" d="M 197 119.1 h 1.4 v 1.4 c 0.4 -0.9 1.1 -1.6 2.2 -1.5 v 1.5 h -0.1 c -1.3 0 -2.1 0.8 -2.1 2.5 v 2.4 H 197 V 119.1 z" stroke-linecap="round" />
</g>
		<g transform="matrix(1 0 0 1 38.65 47.4)" id="Layer_1"  >
<path style="stroke: none; stroke-width: 1; stroke-dasharray: none; stroke-linecap: butt; stroke-dashoffset: 0; stroke-linejoin: miter; stroke-miterlimit: 4; fill: rgb(0,32,92); fill-rule: nonzero; opacity: 1;"  transform=" translate(-203.05, -122.3)" d="M 200.6 124.6 l 0.6 -1 c 0.7 0.5 1.4 0.8 2.1 0.8 c 0.6 0 1 -0.3 1 -0.7 v 0 c 0 -0.5 -0.7 -0.7 -1.4 -0.9 c -0.9 -0.3 -2 -0.6 -2 -1.8 v 0 c 0 -1.2 1 -1.9 2.2 -1.9 c 0.8 0 1.6 0.3 2.3 0.7 l -0.6 1 c -0.6 -0.4 -1.3 -0.6 -1.8 -0.6 c -0.6 0 -0.9 0.3 -0.9 0.6 v 0 c 0 0.5 0.7 0.6 1.4 0.9 c 0.9 0.3 2 0.7 2 1.8 v 0 c 0 1.3 -1 2 -2.3 2 C 202.4 125.5 201.4 125.2 200.6 124.6 z" stroke-linecap="round" />
</g>
		<g transform="matrix(1 0 0 1 42.7 46.2)" id="Layer_1"  >
<path style="stroke: none; stroke-width: 1; stroke-dasharray: none; stroke-linecap: butt; stroke-dashoffset: 0; stroke-linejoin: miter; stroke-miterlimit: 4; fill: rgb(0,32,92); fill-rule: nonzero; opacity: 1;"  transform=" translate(-207.1, -121.1)" d="M 206.3 116.8 h 1.6 v 1.4 h -1.6 V 116.8 z M 206.4 119.1 h 1.4 v 6.3 h -1.4 V 119.1 z" stroke-linecap="round" />
</g>
		<g transform="matrix(1 0 0 1 45.95 46.65)" id="Layer_1"  >
<path style="stroke: none; stroke-width: 1; stroke-dasharray: none; stroke-linecap: butt; stroke-dashoffset: 0; stroke-linejoin: miter; stroke-miterlimit: 4; fill: rgb(0,32,92); fill-rule: nonzero; opacity: 1;"  transform=" translate(-210.35, -121.55)" d="M 209.2 123.7 v -3.3 h -0.8 v -1.2 h 0.8 v -1.7 h 1.4 v 1.7 h 1.7 v 1.2 h -1.7 v 3.1 c 0 0.6 0.3 0.8 0.8 0.8 c 0.3 0 0.6 -0.1 0.9 -0.2 v 1.2 c -0.4 0.2 -0.8 0.3 -1.3 0.3 C 209.9 125.5 209.2 125.1 209.2 123.7 z" stroke-linecap="round" />
</g>
		<g transform="matrix(1 0 0 1 51.5 48.35)" id="Layer_1"  >
<path style="stroke: none; stroke-width: 1; stroke-dasharray: none; stroke-linecap: butt; stroke-dashoffset: 0; stroke-linejoin: miter; stroke-miterlimit: 4; fill: rgb(0,32,92); fill-rule: nonzero; opacity: 1;"  transform=" translate(-215.9, -123.25)" d="M 213.1 127 l 0.5 -1.1 c 0.3 0.1 0.5 0.2 0.8 0.2 c 0.4 0 0.7 -0.2 0.9 -0.7 l -2.6 -6.3 h 1.5 l 1.8 4.7 l 1.6 -4.7 h 1.5 l -2.5 6.5 c -0.5 1.3 -1.1 1.8 -2.1 1.8 C 214 127.4 213.5 127.2 213.1 127 z" stroke-linecap="round" />
</g>
		<g transform="matrix(1 0 0 1 58.6 46.55)" id="Layer_1"  >
<path style="stroke: none; stroke-width: 1; stroke-dasharray: none; stroke-linecap: butt; stroke-dashoffset: 0; stroke-linejoin: miter; stroke-miterlimit: 4; fill: rgb(0,32,92); fill-rule: nonzero; opacity: 1;"  transform=" translate(-223, -121.45)" d="M 222.4 115.9 h 1.2 v 11.1 h -1.2 V 115.9 z" stroke-linecap="round" />
</g>
		<g transform="matrix(1 0 0 1 4.4 46.55)" id="Layer_1"  >
<path style="stroke: none; stroke-width: 1; stroke-dasharray: none; stroke-linecap: butt; stroke-dashoffset: 0; stroke-linejoin: miter; stroke-miterlimit: 4; fill: rgb(0,32,92); fill-rule: nonzero; opacity: 1;"  transform=" translate(-168.8, -121.45)" d="M 168.2 115.9 h 1.2 v 11.1 h -1.2 V 115.9 z" stroke-linecap="round" />
</g>
		<g transform="matrix(1 0 0 1 63.95 46.4)" id="Layer_1"  >
<path style="stroke: none; stroke-width: 1; stroke-dasharray: none; stroke-linecap: butt; stroke-dashoffset: 0; stroke-linejoin: miter; stroke-miterlimit: 4; fill: rgb(0,32,92); fill-rule: nonzero; opacity: 1;"  transform=" translate(-228.35, -121.3)" d="M 227.6 117.1 h 1.5 v 8.4 h -1.5 V 117.1 z" stroke-linecap="round" />
</g>
		<g transform="matrix(1 0 0 1 68.7 47.35)" id="Layer_1"  >
<path style="stroke: none; stroke-width: 1; stroke-dasharray: none; stroke-linecap: butt; stroke-dashoffset: 0; stroke-linejoin: miter; stroke-miterlimit: 4; fill: rgb(0,32,92); fill-rule: nonzero; opacity: 1;"  transform=" translate(-233.1, -122.25)" d="M 230.3 119.1 h 1.4 v 1 c 0.4 -0.6 1 -1.1 2 -1.1 c 1.4 0 2.2 1 2.2 2.4 v 4 h -1.4 v -3.6 c 0 -1 -0.5 -1.5 -1.3 -1.5 c -0.8 0 -1.4 0.6 -1.4 1.6 v 3.6 h -1.4 V 119.1 z" stroke-linecap="round" />
</g>
		<g transform="matrix(1 0 0 1 73.95 46.65)" id="Layer_1"  >
<path style="stroke: none; stroke-width: 1; stroke-dasharray: none; stroke-linecap: butt; stroke-dashoffset: 0; stroke-linejoin: miter; stroke-miterlimit: 4; fill: rgb(0,32,92); fill-rule: nonzero; opacity: 1;"  transform=" translate(-238.35, -121.55)" d="M 237.2 123.7 v -3.3 h -0.8 v -1.2 h 0.8 v -1.7 h 1.4 v 1.7 h 1.7 v 1.2 h -1.7 v 3.1 c 0 0.6 0.3 0.8 0.8 0.8 c 0.3 0 0.6 -0.1 0.9 -0.2 v 1.2 c -0.4 0.2 -0.8 0.3 -1.3 0.3 C 238 125.5 237.2 125.1 237.2 123.7 z" stroke-linecap="round" />
</g>
		<g transform="matrix(1 0 0 1 79.15 47.4)" id="Layer_1"  >
<path style="stroke: none; stroke-width: 1; stroke-dasharray: none; stroke-linecap: butt; stroke-dashoffset: 0; stroke-linejoin: miter; stroke-miterlimit: 4; fill: rgb(0,32,92); fill-rule: nonzero; opacity: 1;"  transform=" translate(-243.55, -122.3)" d="M 240.5 122.3 L 240.5 122.3 c 0 -1.8 1.3 -3.3 3.1 -3.3 c 2 0 3 1.6 3 3.4 c 0 0.1 0 0.3 0 0.4 H 242 c 0.2 1 0.9 1.6 1.8 1.6 c 0.7 0 1.2 -0.3 1.7 -0.8 l 0.8 0.8 c -0.6 0.7 -1.4 1.2 -2.6 1.2 C 241.9 125.6 240.5 124.2 240.5 122.3 z M 245.2 121.8 c -0.1 -0.9 -0.6 -1.7 -1.6 -1.7 c -0.9 0 -1.5 0.7 -1.6 1.7 H 245.2 z" stroke-linecap="round" />
</g>
		<g transform="matrix(1 0 0 1 84.7 47.3)" id="Layer_1"  >
<path style="stroke: none; stroke-width: 1; stroke-dasharray: none; stroke-linecap: butt; stroke-dashoffset: 0; stroke-linejoin: miter; stroke-miterlimit: 4; fill: rgb(0,32,92); fill-rule: nonzero; opacity: 1;"  transform=" translate(-249.1, -122.2)" d="M 247.3 119.1 h 1.4 v 1.4 c 0.4 -0.9 1.1 -1.6 2.2 -1.5 v 1.5 h -0.1 c -1.3 0 -2.1 0.8 -2.1 2.5 v 2.4 h -1.4 V 119.1 z" stroke-linecap="round" />
</g>
		<g transform="matrix(1 0 0 1 90 46.2)" id="Layer_1"  >
<path style="stroke: none; stroke-width: 1; stroke-dasharray: none; stroke-linecap: butt; stroke-dashoffset: 0; stroke-linejoin: miter; stroke-miterlimit: 4; fill: rgb(0,32,92); fill-rule: nonzero; opacity: 1;"  transform=" translate(-254.4, -121.1)" d="M 251.2 122.3 L 251.2 122.3 c 0 -2.1 1.4 -3.3 2.9 -3.3 c 1 0 1.7 0.5 2.1 1.1 v -3.4 h 1.4 v 8.7 h -1.4 v -1.1 c -0.5 0.7 -1.1 1.2 -2.1 1.2 C 252.6 125.5 251.2 124.4 251.2 122.3 z M 256.3 122.3 L 256.3 122.3 c 0 -1.2 -0.9 -2 -1.8 -2 c -1 0 -1.8 0.8 -1.8 2 v 0 c 0 1.2 0.8 2 1.8 2 C 255.4 124.3 256.3 123.5 256.3 122.3 z" stroke-linecap="round" />
</g>
		<g transform="matrix(1 0 0 1 96.95 47.4)" id="Layer_1"  >
<path style="stroke: none; stroke-width: 1; stroke-dasharray: none; stroke-linecap: butt; stroke-dashoffset: 0; stroke-linejoin: miter; stroke-miterlimit: 4; fill: rgb(0,32,92); fill-rule: nonzero; opacity: 1;"  transform=" translate(-261.35, -122.3)" d="M 258.3 122.3 L 258.3 122.3 c 0 -1.8 1.3 -3.3 3.1 -3.3 c 2 0 3 1.6 3 3.4 c 0 0.1 0 0.3 0 0.4 h -4.6 c 0.2 1 0.9 1.6 1.8 1.6 c 0.7 0 1.2 -0.3 1.7 -0.8 l 0.8 0.8 c -0.6 0.7 -1.4 1.2 -2.6 1.2 C 259.7 125.6 258.3 124.2 258.3 122.3 z M 263 121.8 c -0.1 -0.9 -0.6 -1.7 -1.6 -1.7 c -0.9 0 -1.5 0.7 -1.6 1.7 H 263 z" stroke-linecap="round" />
</g>
		<g transform="matrix(1 0 0 1 103.9 48.3)" id="Layer_1"  >
<path style="stroke: none; stroke-width: 1; stroke-dasharray: none; stroke-linecap: butt; stroke-dashoffset: 0; stroke-linejoin: miter; stroke-miterlimit: 4; fill: rgb(0,32,92); fill-rule: nonzero; opacity: 1;"  transform=" translate(-268.3, -123.2)" d="M 265.1 119.1 h 1.4 v 1.1 c 0.5 -0.7 1.1 -1.2 2.1 -1.2 c 1.5 0 2.9 1.2 2.9 3.3 v 0 c 0 2.1 -1.4 3.3 -2.9 3.3 c -1 0 -1.7 -0.5 -2.1 -1.1 v 2.9 h -1.4 V 119.1 z M 270.1 122.3 L 270.1 122.3 c 0 -1.2 -0.8 -2 -1.8 -2 c -1 0 -1.8 0.8 -1.8 2 v 0 c 0 1.2 0.9 2 1.8 2 C 269.3 124.3 270.1 123.5 270.1 122.3 z" stroke-linecap="round" />
</g>
		<g transform="matrix(1 0 0 1 110.65 47.4)" id="Layer_1"  >
<path style="stroke: none; stroke-width: 1; stroke-dasharray: none; stroke-linecap: butt; stroke-dashoffset: 0; stroke-linejoin: miter; stroke-miterlimit: 4; fill: rgb(0,32,92); fill-rule: nonzero; opacity: 1;"  transform=" translate(-275.05, -122.3)" d="M 272 122.3 L 272 122.3 c 0 -1.8 1.3 -3.3 3.1 -3.3 c 2 0 3 1.6 3 3.4 c 0 0.1 0 0.3 0 0.4 h -4.6 c 0.2 1 0.9 1.6 1.8 1.6 c 0.7 0 1.2 -0.3 1.7 -0.8 l 0.8 0.8 c -0.6 0.7 -1.4 1.2 -2.6 1.2 C 273.4 125.6 272 124.2 272 122.3 z M 276.6 121.8 c -0.1 -0.9 -0.6 -1.7 -1.6 -1.7 c -0.9 0 -1.5 0.7 -1.6 1.7 H 276.6 z" stroke-linecap="round" />
</g>
		<g transform="matrix(1 0 0 1 117.1 47.35)" id="Layer_1"  >
<path style="stroke: none; stroke-width: 1; stroke-dasharray: none; stroke-linecap: butt; stroke-dashoffset: 0; stroke-linejoin: miter; stroke-miterlimit: 4; fill: rgb(0,32,92); fill-rule: nonzero; opacity: 1;"  transform=" translate(-281.5, -122.25)" d="M 278.7 119.1 h 1.4 v 1 c 0.4 -0.6 1 -1.1 2 -1.1 c 1.4 0 2.2 1 2.2 2.4 v 4 h -1.4 v -3.6 c 0 -1 -0.5 -1.5 -1.3 -1.5 c -0.8 0 -1.4 0.6 -1.4 1.6 v 3.6 h -1.4 V 119.1 z" stroke-linecap="round" />
</g>
		<g transform="matrix(1 0 0 1 123.8 46.2)" id="Layer_1"  >
<path style="stroke: none; stroke-width: 1; stroke-dasharray: none; stroke-linecap: butt; stroke-dashoffset: 0; stroke-linejoin: miter; stroke-miterlimit: 4; fill: rgb(0,32,92); fill-rule: nonzero; opacity: 1;"  transform=" translate(-288.2, -121.1)" d="M 285 122.3 L 285 122.3 c 0 -2.1 1.4 -3.3 2.9 -3.3 c 1 0 1.7 0.5 2.1 1.1 v -3.4 h 1.4 v 8.7 h -1.4 v -1.1 c -0.5 0.7 -1.1 1.2 -2.1 1.2 C 286.4 125.5 285 124.4 285 122.3 z M 290.1 122.3 L 290.1 122.3 c 0 -1.2 -0.9 -2 -1.8 -2 c -1 0 -1.8 0.8 -1.8 2 v 0 c 0 1.2 0.8 2 1.8 2 C 289.2 124.3 290.1 123.5 290.1 122.3 z" stroke-linecap="round" />
</g>
		<g transform="matrix(1 0 0 1 130.85 47.4)" id="Layer_1"  >
<path style="stroke: none; stroke-width: 1; stroke-dasharray: none; stroke-linecap: butt; stroke-dashoffset: 0; stroke-linejoin: miter; stroke-miterlimit: 4; fill: rgb(0,32,92); fill-rule: nonzero; opacity: 1;"  transform=" translate(-295.25, -122.3)" d="M 292.2 122.3 L 292.2 122.3 c 0 -1.8 1.3 -3.3 3.1 -3.3 c 2 0 3 1.6 3 3.4 c 0 0.1 0 0.3 0 0.4 h -4.6 c 0.2 1 0.9 1.6 1.8 1.6 c 0.7 0 1.2 -0.3 1.7 -0.8 l 0.8 0.8 c -0.6 0.7 -1.4 1.2 -2.6 1.2 C 293.6 125.6 292.2 124.2 292.2 122.3 z M 296.8 121.8 c -0.1 -0.9 -0.6 -1.7 -1.6 -1.7 c -0.9 0 -1.5 0.7 -1.6 1.7 H 296.8 z" stroke-linecap="round" />
</g>
		<g transform="matrix(1 0 0 1 137.3 47.35)" id="Layer_1"  >
<path style="stroke: none; stroke-width: 1; stroke-dasharray: none; stroke-linecap: butt; stroke-dashoffset: 0; stroke-linejoin: miter; stroke-miterlimit: 4; fill: rgb(0,32,92); fill-rule: nonzero; opacity: 1;"  transform=" translate(-301.7, -122.25)" d="M 298.9 119.1 h 1.4 v 1 c 0.4 -0.6 1 -1.1 2 -1.1 c 1.4 0 2.2 1 2.2 2.4 v 4 h -1.4 v -3.6 c 0 -1 -0.5 -1.5 -1.3 -1.5 c -0.8 0 -1.4 0.6 -1.4 1.6 v 3.6 h -1.4 V 119.1 z" stroke-linecap="round" />
</g>
		<g transform="matrix(1 0 0 1 143.75 47.4)" id="Layer_1"  >
<path style="stroke: none; stroke-width: 1; stroke-dasharray: none; stroke-linecap: butt; stroke-dashoffset: 0; stroke-linejoin: miter; stroke-miterlimit: 4; fill: rgb(0,32,92); fill-rule: nonzero; opacity: 1;"  transform=" translate(-308.15, -122.3)" d="M 305.2 122.3 L 305.2 122.3 c 0 -1.8 1.4 -3.3 3.3 -3.3 c 1.2 0 1.9 0.4 2.5 1.1 l -0.9 1 c -0.4 -0.5 -0.9 -0.8 -1.6 -0.8 c -1.1 0 -1.8 0.9 -1.8 2 v 0 c 0 1.1 0.8 2 1.9 2 c 0.7 0 1.2 -0.3 1.6 -0.8 l 0.9 0.9 c -0.6 0.7 -1.3 1.2 -2.6 1.2 C 306.6 125.6 305.2 124.1 305.2 122.3 z" stroke-linecap="round" />
</g>
		<g transform="matrix(1 0 0 1 149.65 47.4)" id="Layer_1"  >
<path style="stroke: none; stroke-width: 1; stroke-dasharray: none; stroke-linecap: butt; stroke-dashoffset: 0; stroke-linejoin: miter; stroke-miterlimit: 4; fill: rgb(0,32,92); fill-rule: nonzero; opacity: 1;"  transform=" translate(-314.05, -122.3)" d="M 311 122.3 L 311 122.3 c 0 -1.8 1.3 -3.3 3.1 -3.3 c 2 0 3 1.6 3 3.4 c 0 0.1 0 0.3 0 0.4 h -4.6 c 0.2 1 0.9 1.6 1.8 1.6 c 0.7 0 1.2 -0.3 1.7 -0.8 l 0.8 0.8 c -0.6 0.7 -1.4 1.2 -2.6 1.2 C 312.4 125.6 311 124.2 311 122.3 z M 315.7 121.8 c -0.1 -0.9 -0.6 -1.7 -1.6 -1.7 c -0.9 0 -1.5 0.7 -1.6 1.7 H 315.7 z" stroke-linecap="round" />
</g>
		<g transform="matrix(1 0 0 1 -38.95 46.35)" id="Layer_1"  >
<path style="stroke: none; stroke-width: 1; stroke-dasharray: none; stroke-linecap: butt; stroke-dashoffset: 0; stroke-linejoin: miter; stroke-miterlimit: 4; fill: rgb(0,32,92); fill-rule: nonzero; opacity: 1;"  transform=" translate(-125.45, -121.25)" d="M 122.3 117.1 h 6.2 v 1.3 h -4.7 v 2.2 h 4.2 v 1.3 h -4.2 v 2.2 h 4.8 v 1.3 h -6.3 V 117.1 z" stroke-linecap="round" />
</g>
		<g transform="matrix(1 0 0 1 -32.3 48.25)" id="Layer_1"  >
<path style="stroke: none; stroke-width: 1; stroke-dasharray: none; stroke-linecap: butt; stroke-dashoffset: 0; stroke-linejoin: miter; stroke-miterlimit: 4; fill: rgb(0,32,92); fill-rule: nonzero; opacity: 1;"  transform=" translate(-132.1, -123.15)" d="M 133.9 124.4 c -0.5 0.7 -1.1 1.2 -2.1 1.2 c -1.5 0 -2.9 -1.2 -2.9 -3.3 v 0 c 0 -2.1 1.4 -3.3 2.9 -3.3 c 1 0 1.7 0.5 2.1 1.1 v -1 h 1.4 v 8.2 h -1.4 V 124.4 z M 133.9 122.3 L 133.9 122.3 c 0 -1.2 -0.9 -2 -1.8 -2 c -1 0 -1.8 0.8 -1.8 2 v 0 c 0 1.2 0.8 2 1.8 2 C 133.1 124.3 133.9 123.5 133.9 122.3 z" stroke-linecap="round" />
</g>
		<g transform="matrix(1 0 0 1 -25.35 47.3)" id="Layer_1"  >
<path style="stroke: none; stroke-width: 1; stroke-dasharray: none; stroke-linecap: butt; stroke-dashoffset: 0; stroke-linejoin: miter; stroke-miterlimit: 4; fill: rgb(0,32,92); fill-rule: nonzero; opacity: 1;"  transform=" translate(-139.05, -122.2)" d="M 136.3 123.1 v -4 h 1.4 v 3.6 c 0 1 0.5 1.5 1.3 1.5 c 0.8 0 1.4 -0.6 1.4 -1.6 v -3.6 h 1.4 v 6.3 h -1.4 v -1 c -0.4 0.6 -1 1.1 -2 1.1 C 137.1 125.5 136.3 124.6 136.3 123.1 z" stroke-linecap="round" />
</g>
		<g transform="matrix(1 0 0 1 -11.7 46.2)" id="Layer_1"  >
<path style="stroke: none; stroke-width: 1; stroke-dasharray: none; stroke-linecap: butt; stroke-dashoffset: 0; stroke-linejoin: miter; stroke-miterlimit: 4; fill: rgb(0,32,92); fill-rule: nonzero; opacity: 1;"  transform=" translate(-152.7, -121.1)" d="M 151.9 116.8 h 1.6 v 1.4 h -1.6 V 116.8 z M 152 119.1 h 1.4 v 6.3 H 152 V 119.1 z" stroke-linecap="round" />
</g>
		<g transform="matrix(1 0 0 1 -8.45 46.65)" id="Layer_1"  >
<path style="stroke: none; stroke-width: 1; stroke-dasharray: none; stroke-linecap: butt; stroke-dashoffset: 0; stroke-linejoin: miter; stroke-miterlimit: 4; fill: rgb(0,32,92); fill-rule: nonzero; opacity: 1;"  transform=" translate(-155.95, -121.55)" d="M 154.8 123.7 v -3.3 H 154 v -1.2 h 0.8 v -1.7 h 1.4 v 1.7 h 1.7 v 1.2 h -1.7 v 3.1 c 0 0.6 0.3 0.8 0.8 0.8 c 0.3 0 0.6 -0.1 0.9 -0.2 v 1.2 c -0.4 0.2 -0.8 0.3 -1.3 0.3 C 155.5 125.5 154.8 125.1 154.8 123.7 z" stroke-linecap="round" />
</g>
		<g transform="matrix(1 0 0 1 -2.8 48.35)" id="Layer_1"  >
<path style="stroke: none; stroke-width: 1; stroke-dasharray: none; stroke-linecap: butt; stroke-dashoffset: 0; stroke-linejoin: miter; stroke-miterlimit: 4; fill: rgb(0,32,92); fill-rule: nonzero; opacity: 1;"  transform=" translate(-161.6, -123.25)" d="M 158.8 127 l 0.5 -1.1 c 0.3 0.1 0.5 0.2 0.8 0.2 c 0.4 0 0.7 -0.2 0.9 -0.7 l -2.6 -6.3 h 1.5 l 1.8 4.7 l 1.6 -4.7 h 1.5 l -2.5 6.5 c -0.5 1.3 -1.1 1.8 -2.1 1.8 C 159.7 127.4 159.2 127.2 158.8 127 z" stroke-linecap="round" />
</g>
		<g transform="matrix(1 0 0 1 -18.7 47.4)" id="Layer_1"  >
<path style="stroke: none; stroke-width: 1; stroke-dasharray: none; stroke-linecap: butt; stroke-dashoffset: 0; stroke-linejoin: miter; stroke-miterlimit: 4; fill: rgb(0,32,92); fill-rule: nonzero; opacity: 1;"  transform=" translate(-145.7, -122.3)" d="M 147.2 125.5 v -0.8 c -0.4 0.5 -1.1 0.9 -2.1 0.9 c -1.2 0 -2.3 -0.7 -2.3 -2 v 0 c 0 -1.4 1.1 -2.1 2.6 -2.1 c 0.8 0 1.3 0.1 1.8 0.3 v -0.1 c 0 -0.9 -0.6 -1.4 -1.6 -1.4 c -0.7 0 -1.2 0.2 -1.8 0.4 l -0.4 -1.2 c 0.7 -0.3 1.4 -0.5 2.4 -0.5 c 1.9 0 2.8 1 2.8 2.7 v 3.8 H 147.2 z M 147.2 122.8 c -0.4 -0.1 -0.9 -0.3 -1.5 -0.3 c -0.9 0 -1.5 0.4 -1.5 1 v 0 c 0 0.6 0.5 0.9 1.2 0.9 c 1 0 1.7 -0.5 1.7 -1.3 V 122.8 z" stroke-linecap="round" />
</g>
		<g transform="matrix(1 0 0 1 -14.05 46.1)" id="Layer_1"  >
<path style="stroke: none; stroke-width: 1; stroke-dasharray: none; stroke-linecap: butt; stroke-dashoffset: 0; stroke-linejoin: miter; stroke-miterlimit: 4; fill: rgb(0,32,92); fill-rule: nonzero; opacity: 1;"  transform=" translate(-150.35, -121)" d="M 149.6 116.6 h 1.5 v 8.8 h -1.5 V 116.6 z" stroke-linecap="round" />
</g>
</g>
</g>
</svg>