<svg viewBox="0 0 250 250" xmlns="http://www.w3.org/2000/svg"><style type="text/css">  .st0{fill:#C9D32C;} .st1{fill:#0F6132;} .st2{fill:#86A43D;}</style><path class="st0" d="M43.6 148.5V70.1c0.3-6.3-1.3-12.6-4.8-18.4C34.2 44.9 20.8 39.7 20.8 39.7L1.2 31.1v138.4c0 40.8 38.4 69.7 112.1 69.7 7.1 0 14.2-0.3 21.3-0.9C74.8 233 43.6 204.1 43.6 148.5z"/><path class="st1" d="M158.2 148.5V42.1c0.4-6.9-1-13.8-4.1-20.3 -3.4-6-14.9-10.5-14.9-10.5l-23.4-10.1v168.4c0 40.7 38.4 69.6 112.2 69.6 7.1 0 14.2-0.3 21.3-0.9C189.4 233 158.2 204.1 158.2 148.5z"/><path class="st2" d="M100.6 158.3V58.8c0 0 1.2-12.3-3.7-19.5 -3.8-4.9-9.1-9.1-15.6-12.2l-23.2-11.1v142.3c0 62 38.4 90.9 112.1 90.9 7.1 0 14.2-0.3 21.3-0.9C131.9 242.9 100.6 214 100.6 158.3z"/></svg>