<?xml version="1.0" encoding="utf-8"?>
<!-- Generator: Adobe Illustrator 26.0.2, SVG Export Plug-In . SVG Version: 6.00 Build 0)  -->
<svg version="1.1" id="Layer_1" xmlns="http://www.w3.org/2000/svg" xmlns:xlink="http://www.w3.org/1999/xlink" x="0px" y="0px"
	 viewBox="0 0 788.5 100.7" style="enable-background:new 0 0 788.5 100.7;" xml:space="preserve">
<style type="text/css">
	.st0{fill:#AA273D;}
	.st1{fill:#00717B;}
	.st2{fill:#FFFFFF;}
</style>
<g>
	<g>
		<path class="st0" d="M269.8,37.7c0,3.8-0.6,7.1-1.9,9.9c-1.3,2.8-3.1,5.2-5.3,7.1c-2.3,1.9-5,3.3-8.2,4.3
			c-3.2,0.9-6.7,1.4-10.4,1.4h-20.5l-1.1,1.1v28.1l-1.1,1.1h-13l-1.1-1.1V16.1l1.1-1.1h35.6c3.7,0,7.2,0.5,10.4,1.4
			c3.2,0.9,5.9,2.4,8.2,4.3c2.3,1.9,4,4.3,5.3,7.1C269.2,30.6,269.8,33.9,269.8,37.7z M254.7,37.7c0-3.7-1-6.3-3-7.7
			c-2-1.4-4.6-2.1-7.8-2.1h-20.5l-1.1,1.1v17.3l1.1,1.1h20.5c1.6,0,3-0.1,4.4-0.4c1.3-0.3,2.5-0.8,3.5-1.6c1-0.8,1.7-1.8,2.2-3
			C254.4,41.1,254.7,39.5,254.7,37.7z"/>
		<path class="st0" d="M340,70.1c0,3.8-0.6,7-1.8,9.6c-1.2,2.6-2.9,4.7-4.9,6.3c-2.1,1.6-4.4,2.8-7,3.5c-2.6,0.7-5.2,1.1-7.9,1.1
			h-36.7l-1.1-1.1V16.1l1.1-1.1h34.6c2.7,0,5.3,0.4,7.9,1.1c2.6,0.7,4.9,1.9,7,3.4c2.1,1.5,3.7,3.5,4.9,6c1.2,2.4,1.8,5.4,1.8,9
			c0,3.8-0.8,7.2-2.5,10.2c-1.7,2.9-4.5,5-8.3,6v1.1c4.3,1.1,7.6,3.2,9.7,6.3C338.9,61.1,340,65.1,340,70.1z M322.7,36.6
			c0-2.7-0.6-4.9-1.9-6.4c-1.3-1.5-3.5-2.3-6.7-2.3h-17.3l-1.1,1.1v15.1l1.1,1.1h17.3c3.2,0,5.5-0.9,6.7-2.7
			C322.1,40.7,322.7,38.7,322.7,36.6z M324.9,67.9c0-3.2-0.8-5.7-2.5-7.3c-1.7-1.6-4.4-2.4-8.3-2.4h-17.3l-1.1,1.1v17.3l1.1,1.1
			h17.3c3.9,0,6.7-0.8,8.3-2.4C324.1,73.6,324.9,71.1,324.9,67.9z"/>
		<path class="st0" d="M354,15h15.1l2.2,1.1l29.2,49.7h1.1V16.1l1.1-1.1h13l1.1,1.1v73.4l-1.1,1.1h-15.1l-2.2-1.1l-29.2-49.7h-1.1
			v49.7l-1.1,1.1h-13l-1.1-1.1V16.1L354,15z"/>
		<path class="st0" d="M448,90.6h-13l-1.1-1.1V16.1L435,15h13l1.1,1.1v73.4L448,90.6z"/>
	</g>
	<g>
		<path class="st1" d="M494.2,23.4c0,2.5-0.7,4.4-2,5.6c-1.4,1.2-3.5,1.8-6.5,1.8h-8.9l-0.4,0.4v11.6l-0.4,0.4h-1.5l-0.4-0.4V16.5
			l0.4-0.4h11.2c2.9,0,5.1,0.6,6.5,1.8C493.5,19,494.2,20.9,494.2,23.4z M491.9,23.4c0-1.1-0.2-1.9-0.4-2.6
			c-0.3-0.7-0.7-1.2-1.2-1.7c-0.5-0.4-1.1-0.7-1.8-0.9c-0.7-0.2-1.5-0.3-2.4-0.3h-9.3l-0.4,0.4v10.1l0.4,0.4h8.9
			c1,0,1.8-0.1,2.6-0.3c0.8-0.2,1.4-0.5,2-0.9c0.5-0.4,0.9-1,1.2-1.7C491.7,25.4,491.9,24.5,491.9,23.4z"/>
		<path class="st1" d="M507,23.8l0.4,0.4v1.2l-0.4,0.4H505c-1.9,0-3.3,0.6-4.2,1.8c-0.8,1.2-1.3,2.8-1.3,4.7v10.4l-0.4,0.4h-1.5
			l-0.4-0.4V24.2l0.4-0.4h1.2l0.4,0.4l0.4,2.3h0.4c0.6-1,1.4-1.7,2.3-2.1c0.9-0.4,2-0.6,3.1-0.6H507z"/>
		<path class="st1" d="M517,43.5c-1.3,0-2.4-0.2-3.5-0.6c-1.1-0.4-2-1.1-2.8-1.9c-0.8-0.8-1.4-1.9-1.9-3.2c-0.4-1.2-0.7-2.7-0.7-4.3
			c0-1.6,0.2-3.1,0.7-4.3c0.5-1.3,1.1-2.3,1.9-3.2c0.8-0.9,1.7-1.5,2.8-1.9c1.1-0.4,2.3-0.6,3.5-0.6c1.3,0,2.4,0.2,3.5,0.6
			c1.1,0.4,2,1.1,2.8,1.9c0.8,0.9,1.4,1.9,1.9,3.2c0.5,1.2,0.7,2.7,0.7,4.3c0,1.6-0.2,3.1-0.7,4.3c-0.5,1.2-1.1,2.3-1.9,3.2
			c-0.8,0.9-1.7,1.5-2.8,1.9C519.5,43.3,518.3,43.5,517,43.5z M517,25.4c-1,0-1.9,0.2-2.7,0.6c-0.8,0.4-1.5,0.9-2.1,1.6
			c-0.6,0.7-1,1.5-1.4,2.6c-0.3,1-0.5,2.1-0.5,3.4c0,1.3,0.2,2.4,0.5,3.4c0.3,1,0.8,1.9,1.4,2.5c0.6,0.7,1.3,1.2,2.1,1.6
			c0.8,0.4,1.7,0.6,2.7,0.6c1,0,1.8-0.2,2.6-0.6c0.8-0.4,1.5-0.9,2.1-1.6c0.6-0.7,1-1.5,1.4-2.5c0.3-1,0.5-2.1,0.5-3.4
			c0-1.3-0.2-2.4-0.5-3.4c-0.3-1-0.8-1.9-1.4-2.6c-0.6-0.7-1.3-1.2-2.1-1.6C518.9,25.5,518,25.4,517,25.4z"/>
		<path class="st1" d="M538.3,23.4c1.3,0,2.5,0.2,3.5,0.8c1,0.5,1.9,1.2,2.5,2.1c0.7,0.9,1.2,2,1.5,3.2c0.3,1.2,0.5,2.6,0.5,4
			c0,1.4-0.2,2.8-0.5,4c-0.3,1.2-0.8,2.3-1.5,3.2c-0.7,0.9-1.5,1.6-2.5,2.1c-1,0.5-2.2,0.8-3.5,0.8c-1.7,0-3.1-0.3-4.1-1
			c-1-0.6-1.7-1.4-2-2.1h-0.4l-0.4,2.3l-0.4,0.4h-1.2l-0.4-0.4V16.5l0.4-0.4h1.5l0.4,0.4v10.1h0.4c0.4-0.8,1-1.5,2-2.1
			C535.2,23.8,536.5,23.4,538.3,23.4z M537.9,25.4c-1.9,0-3.4,0.7-4.5,2c-1.1,1.3-1.6,3.4-1.6,6.1c0,2.7,0.6,4.8,1.6,6.1
			c1.1,1.3,2.6,2,4.5,2c1.9,0,3.4-0.7,4.5-2c1.1-1.3,1.6-3.4,1.6-6.1c0-2.7-0.6-4.8-1.6-6.1C541.3,26,539.8,25.4,537.9,25.4z"/>
		<path class="st1" d="M563.8,43.2h-1.2l-0.4-0.4l-0.4-1.9h-0.4c-0.2,0.3-0.5,0.6-0.8,0.9c-0.3,0.3-0.7,0.6-1.2,0.9
			c-0.5,0.3-1.1,0.5-1.7,0.7c-0.7,0.2-1.5,0.3-2.5,0.3c-2.2,0-3.8-0.5-4.9-1.6c-1.1-1-1.7-2.5-1.7-4.2c0-2.1,0.7-3.7,2.2-4.7
			c1.4-1,3.4-1.5,6-1.5c0.6,0,1.2,0,1.7,0.1c0.5,0,1,0.1,1.5,0.1c0.2,0,0.5,0.1,0.7,0.1c0.2,0,0.5,0.1,0.7,0.1l0.4-0.4v-1.2
			c0-1.7-0.4-3-1.1-3.8c-0.7-0.8-2-1.2-4-1.2c-1,0-1.8,0.1-2.4,0.3c-0.6,0.2-1.2,0.5-1.5,0.9c-0.4,0.4-0.7,0.8-0.8,1.2
			c-0.2,0.5-0.2,0.9-0.2,1.4l-0.4,0.4h-1.6l-0.4-0.4c0-0.8,0.2-1.5,0.5-2.2c0.3-0.7,0.7-1.3,1.4-1.9c0.6-0.5,1.4-1,2.3-1.3
			c0.9-0.3,2-0.5,3.3-0.5c1.4,0,2.6,0.2,3.6,0.5c1,0.3,1.7,0.8,2.3,1.4c0.6,0.6,0.9,1.3,1.2,2.2c0.2,0.9,0.3,1.8,0.3,2.9v12.4
			L563.8,43.2z M561.9,34.3l-0.4-0.4l-0.6-0.1c-0.2,0-0.4-0.1-0.7-0.1c-0.4-0.1-0.8-0.1-1.3-0.1c-0.5,0-1.1-0.1-1.6-0.1
			c-2.3,0-3.9,0.4-4.8,1.1c-0.9,0.8-1.4,1.8-1.4,3.1c0,1.2,0.3,2.1,1,2.8c0.7,0.7,1.9,1.1,3.6,1.1c1,0,2-0.2,2.8-0.5
			c0.8-0.3,1.4-0.8,1.9-1.3c0.5-0.6,0.9-1.2,1.1-1.9c0.2-0.7,0.4-1.4,0.4-2.1V34.3z"/>
		<path class="st1" d="M578.1,43.2h-2.7c-1.4,0-2.5-0.4-3.4-1.1c-0.9-0.7-1.3-1.8-1.3-3.2V26.1l-0.4-0.4h-3.1l-0.4-0.4v-1.2l0.4-0.4
			h3.1l0.4-0.4v-3.5l0.4-0.4h1.5l0.4,0.4v3.5l0.4,0.4h4.6l0.4,0.4v1.2l-0.4,0.4h-4.6l-0.4,0.4v12.8c0,1.6,0.8,2.3,2.3,2.3h2.7
			l0.4,0.4v1.2L578.1,43.2z"/>
		<path class="st1" d="M584.3,20.7h-1.6l-0.4-0.4V18l0.4-0.4h1.6l0.4,0.4v2.3L584.3,20.7z M584.3,43.2h-1.6l-0.4-0.4V24.2l0.4-0.4
			h1.6l0.4,0.4v18.6L584.3,43.2z"/>
		<path class="st1" d="M597.1,43.5c-1.3,0-2.4-0.2-3.5-0.6c-1.1-0.4-2-1.1-2.8-1.9c-0.8-0.8-1.4-1.9-1.9-3.2
			c-0.4-1.2-0.7-2.7-0.7-4.3c0-1.6,0.2-3.1,0.7-4.3c0.5-1.3,1.1-2.3,1.9-3.2c0.8-0.9,1.7-1.5,2.8-1.9c1.1-0.4,2.3-0.6,3.5-0.6
			c1.3,0,2.4,0.2,3.5,0.6c1.1,0.4,2,1.1,2.8,1.9c0.8,0.9,1.4,1.9,1.9,3.2c0.5,1.2,0.7,2.7,0.7,4.3c0,1.6-0.2,3.1-0.7,4.3
			c-0.5,1.2-1.1,2.3-1.9,3.2c-0.8,0.9-1.7,1.5-2.8,1.9C599.5,43.3,598.3,43.5,597.1,43.5z M597.1,25.4c-1,0-1.9,0.2-2.7,0.6
			c-0.8,0.4-1.5,0.9-2.1,1.6c-0.6,0.7-1,1.5-1.4,2.6c-0.3,1-0.5,2.1-0.5,3.4c0,1.3,0.2,2.4,0.5,3.4c0.3,1,0.8,1.9,1.4,2.5
			c0.6,0.7,1.3,1.2,2.1,1.6c0.8,0.4,1.7,0.6,2.7,0.6c0.9,0,1.8-0.2,2.6-0.6c0.8-0.4,1.5-0.9,2.1-1.6c0.6-0.7,1-1.5,1.4-2.5
			c0.3-1,0.5-2.1,0.5-3.4c0-1.3-0.2-2.4-0.5-3.4c-0.3-1-0.8-1.9-1.4-2.6c-0.6-0.7-1.3-1.2-2.1-1.6C598.9,25.5,598,25.4,597.1,25.4z"
			/>
		<path class="st1" d="M624.9,43.2h-1.5l-0.4-0.4V31.2c0-1.9-0.4-3.4-1.3-4.3c-0.9-1-2.1-1.5-3.7-1.5c-2.1,0-3.7,0.6-4.7,1.9
			c-1,1.3-1.5,2.9-1.5,5.1v10.4l-0.4,0.4h-1.5l-0.4-0.4V24.2l0.4-0.4h1.2l0.4,0.4l0.4,2.3h0.4c0.6-1,1.4-1.7,2.5-2.3
			c1.1-0.5,2.3-0.8,3.7-0.8c2.2,0,3.9,0.6,5.1,1.9c1.2,1.3,1.8,3.2,1.8,5.8v11.6L624.9,43.2z"/>
		<path class="st1" d="M659.7,35.4c0,1.4-0.2,2.7-0.7,3.7c-0.5,1-1.1,1.8-1.8,2.4c-0.8,0.6-1.7,1-2.7,1.3c-1,0.3-2.1,0.4-3.3,0.4
			h-10.4l-0.4-0.4V16.5l0.4-0.4h10.1c1.2,0,2.2,0.1,3.2,0.3c1,0.2,1.8,0.6,2.6,1.1c0.7,0.5,1.3,1.2,1.7,2.1c0.4,0.9,0.6,2,0.6,3.4
			c0,2.7-1.2,4.6-3.5,5.8v0.4c1.2,0.4,2.2,1.1,3,2.1C659.3,32.3,659.7,33.7,659.7,35.4z M656.6,23c0-1.8-0.4-3-1.3-3.8
			c-0.9-0.8-2.4-1.2-4.5-1.2h-7.7l-0.4,0.4v9.3l0.4,0.4h8.1c1.8,0,3.1-0.4,4-1.4C656.1,25.8,656.6,24.6,656.6,23z M657.4,35.4
			c0-1.8-0.6-3.1-1.6-4c-1.1-0.9-2.6-1.4-4.5-1.4h-8.1l-0.4,0.4v10.4l0.4,0.4h8.1c2.1,0,3.7-0.5,4.7-1.6
			C656.9,38.6,657.4,37.2,657.4,35.4z"/>
		<path class="st1" d="M671.3,43.5c-1.3,0-2.4-0.2-3.5-0.6c-1.1-0.4-2-1.1-2.8-1.9c-0.8-0.8-1.4-1.9-1.9-3.2
			c-0.5-1.2-0.7-2.7-0.7-4.3c0-1.6,0.2-3.1,0.7-4.3c0.4-1.3,1.1-2.3,1.9-3.2c0.8-0.9,1.7-1.5,2.8-1.9c1.1-0.4,2.3-0.6,3.5-0.6
			c1.3,0,2.4,0.2,3.5,0.6c1.1,0.4,2,1.1,2.8,1.9c0.8,0.9,1.4,1.9,1.9,3.2c0.5,1.2,0.7,2.7,0.7,4.3c0,1.6-0.2,3.1-0.7,4.3
			c-0.4,1.2-1.1,2.3-1.9,3.2c-0.8,0.9-1.7,1.5-2.8,1.9C673.7,43.3,672.6,43.5,671.3,43.5z M671.3,25.4c-1,0-1.9,0.2-2.7,0.6
			c-0.8,0.4-1.5,0.9-2.1,1.6c-0.6,0.7-1,1.5-1.3,2.6c-0.3,1-0.5,2.1-0.5,3.4c0,1.3,0.2,2.4,0.5,3.4c0.3,1,0.8,1.9,1.3,2.5
			c0.6,0.7,1.3,1.2,2.1,1.6c0.8,0.4,1.7,0.6,2.7,0.6c1,0,1.8-0.2,2.6-0.6c0.8-0.4,1.5-0.9,2.1-1.6c0.6-0.7,1-1.5,1.4-2.5
			c0.3-1,0.5-2.1,0.5-3.4c0-1.3-0.2-2.4-0.5-3.4c-0.3-1-0.8-1.9-1.4-2.6c-0.6-0.7-1.3-1.2-2.1-1.6C673.1,25.5,672.2,25.4,671.3,25.4
			z"/>
		<path class="st1" d="M697.6,43.2h-1.2l-0.4-0.4l-0.4-1.9h-0.4c-0.2,0.3-0.5,0.6-0.8,0.9c-0.3,0.3-0.7,0.6-1.2,0.9
			c-0.5,0.3-1.1,0.5-1.7,0.7c-0.7,0.2-1.5,0.3-2.5,0.3c-2.2,0-3.8-0.5-4.9-1.6c-1.1-1-1.7-2.5-1.7-4.2c0-2.1,0.7-3.7,2.2-4.7
			c1.4-1,3.4-1.5,5.9-1.5c0.6,0,1.2,0,1.7,0.1c0.5,0,1,0.1,1.5,0.1c0.3,0,0.5,0.1,0.7,0.1c0.2,0,0.5,0.1,0.7,0.1l0.4-0.4v-1.2
			c0-1.7-0.4-3-1.1-3.8c-0.7-0.8-2-1.2-4-1.2c-1,0-1.8,0.1-2.4,0.3c-0.6,0.2-1.2,0.5-1.5,0.9c-0.4,0.4-0.7,0.8-0.8,1.2
			c-0.2,0.5-0.2,0.9-0.2,1.4l-0.4,0.4h-1.6l-0.4-0.4c0-0.8,0.1-1.5,0.4-2.2c0.3-0.7,0.8-1.3,1.4-1.9c0.6-0.5,1.4-1,2.3-1.3
			c0.9-0.3,2-0.5,3.3-0.5c1.4,0,2.6,0.2,3.6,0.5c1,0.3,1.7,0.8,2.3,1.4c0.6,0.6,0.9,1.3,1.2,2.2c0.2,0.9,0.3,1.8,0.3,2.9v12.4
			L697.6,43.2z M695.7,34.3l-0.4-0.4l-0.6-0.1c-0.2,0-0.4-0.1-0.7-0.1c-0.4-0.1-0.8-0.1-1.3-0.1c-0.5,0-1.1-0.1-1.6-0.1
			c-2.3,0-3.9,0.4-4.8,1.1c-0.9,0.8-1.4,1.8-1.4,3.1c0,1.2,0.3,2.1,1,2.8c0.7,0.7,1.9,1.1,3.6,1.1c1,0,2-0.2,2.8-0.5
			c0.8-0.3,1.4-0.8,1.9-1.3c0.5-0.6,0.9-1.2,1.1-1.9c0.2-0.7,0.4-1.4,0.4-2.1V34.3z"/>
		<path class="st1" d="M711.9,23.8l0.4,0.4v1.2l-0.4,0.4H710c-1.9,0-3.3,0.6-4.2,1.8c-0.8,1.2-1.3,2.8-1.3,4.7v10.4l-0.4,0.4h-1.5
			l-0.4-0.4V24.2l0.4-0.4h1.2l0.4,0.4l0.4,2.3h0.4c0.6-1,1.4-1.7,2.3-2.1c0.9-0.4,2-0.6,3.1-0.6H711.9z"/>
		<path class="st1" d="M721.2,23.4c1.7,0,3.1,0.3,4.1,1c1,0.6,1.7,1.4,2.1,2.1h0.4V16.5l0.4-0.4h1.5l0.4,0.4v26.3l-0.4,0.4h-1.2
			l-0.4-0.4l-0.4-2.3h-0.4c-0.4,0.8-1.1,1.5-2.1,2.1c-1,0.6-2.4,1-4.1,1c-1.4,0-2.6-0.3-3.6-0.8c-1-0.5-1.9-1.2-2.5-2.1
			c-0.7-0.9-1.2-2-1.5-3.2c-0.3-1.2-0.5-2.6-0.5-4c0-1.4,0.2-2.8,0.5-4c0.3-1.2,0.9-2.3,1.5-3.2c0.7-0.9,1.5-1.6,2.5-2.1
			C718.6,23.7,719.8,23.4,721.2,23.4z M721.6,25.4c-1.9,0-3.4,0.7-4.5,2c-1.1,1.3-1.7,3.4-1.7,6.1c0,2.7,0.6,4.8,1.7,6.1
			c1.1,1.3,2.6,2,4.5,2s3.5-0.7,4.5-2c1.1-1.3,1.6-3.4,1.6-6.1c0-2.7-0.5-4.8-1.6-6.1C725,26,723.5,25.4,721.6,25.4z"/>
		<path class="st1" d="M483.8,64.4v1.2l-0.4,0.4h-2.7c-1.5,0-2.3,0.8-2.3,2.3v1.5l0.4,0.4h4.2l0.4,0.4v1.2l-0.4,0.4h-4.2l-0.4,0.4
			v16.6l-0.4,0.4h-1.5l-0.4-0.4V72.5l-0.4-0.4h-3.1l-0.4-0.4v-1.2l0.4-0.4h3.1l0.4-0.4v-1.5c0-1.4,0.4-2.4,1.3-3.2
			c0.9-0.7,2-1.1,3.4-1.1h2.7L483.8,64.4z"/>
		<path class="st1" d="M493.8,89.9c-1.3,0-2.4-0.2-3.5-0.6c-1.1-0.4-2-1.1-2.8-1.9c-0.8-0.8-1.4-1.9-1.9-3.1
			c-0.5-1.3-0.7-2.7-0.7-4.4c0-1.7,0.2-3.1,0.7-4.3c0.5-1.3,1.1-2.3,1.9-3.2c0.8-0.9,1.7-1.5,2.8-1.9c1.1-0.4,2.3-0.6,3.5-0.6
			c1.3,0,2.4,0.2,3.5,0.6c1.1,0.4,2,1.1,2.8,1.9c0.8,0.8,1.4,1.9,1.9,3.2c0.4,1.3,0.7,2.7,0.7,4.3c0,1.7-0.2,3.1-0.7,4.4
			c-0.5,1.2-1.1,2.3-1.9,3.1c-0.8,0.9-1.7,1.5-2.8,1.9C496.3,89.7,495.1,89.9,493.8,89.9z M493.8,71.8c-1,0-1.9,0.2-2.7,0.6
			c-0.8,0.4-1.5,0.9-2.1,1.6c-0.6,0.7-1,1.5-1.4,2.5c-0.3,1-0.5,2.1-0.5,3.4c0,1.3,0.2,2.4,0.5,3.4c0.3,1,0.8,1.9,1.4,2.6
			c0.6,0.7,1.3,1.2,2.1,1.6c0.8,0.4,1.7,0.6,2.7,0.6c1,0,1.8-0.2,2.7-0.6c0.8-0.4,1.5-0.9,2.1-1.6c0.6-0.7,1-1.6,1.3-2.6
			c0.3-1,0.5-2.1,0.5-3.4c0-1.3-0.2-2.4-0.5-3.4c-0.3-1-0.8-1.9-1.3-2.5c-0.6-0.7-1.3-1.2-2.1-1.6C495.7,71.9,494.8,71.8,493.8,71.8
			z"/>
		<path class="st1" d="M515.9,70.2l0.4,0.4v1.2l-0.4,0.4h-1.9c-1.9,0-3.3,0.6-4.2,1.8c-0.8,1.2-1.2,2.8-1.2,4.7v10.4l-0.4,0.4h-1.5
			l-0.4-0.4V70.6l0.4-0.4h1.2l0.4,0.4l0.4,2.3h0.4c0.6-1,1.4-1.7,2.3-2.1c0.9-0.4,2-0.6,3.1-0.6H515.9z"/>
		<path class="st1" d="M551,89.5h-1.9l-0.8-0.4l-15.5-22.8h-0.4v22.8l-0.4,0.4h-1.6l-0.4-0.4V62.9l0.4-0.4h1.9l0.8,0.4l15.5,22.8
			h0.4V62.9l0.4-0.4h1.6l0.4,0.4v26.3L551,89.5z"/>
		<path class="st1" d="M564.6,89.9c-1.3,0-2.4-0.2-3.5-0.6c-1.1-0.4-2-1.1-2.8-1.9c-0.8-0.8-1.4-1.9-1.9-3.1
			c-0.5-1.3-0.7-2.7-0.7-4.4c0-1.7,0.2-3.1,0.7-4.3c0.4-1.3,1.1-2.3,1.9-3.2c0.8-0.9,1.7-1.5,2.8-1.9c1.1-0.4,2.3-0.6,3.5-0.6
			c1.3,0,2.4,0.2,3.5,0.6c1.1,0.4,2,1.1,2.8,1.9c0.8,0.8,1.4,1.9,1.9,3.2c0.5,1.3,0.7,2.7,0.7,4.3c0,1.7-0.2,3.1-0.7,4.4
			c-0.4,1.2-1.1,2.3-1.9,3.1c-0.8,0.9-1.7,1.5-2.8,1.9C567,89.7,565.8,89.9,564.6,89.9z M564.6,71.8c-1,0-1.9,0.2-2.7,0.6
			c-0.8,0.4-1.5,0.9-2.1,1.6c-0.6,0.7-1,1.5-1.4,2.5c-0.3,1-0.5,2.1-0.5,3.4c0,1.3,0.2,2.4,0.5,3.4c0.3,1,0.8,1.9,1.4,2.6
			c0.6,0.7,1.3,1.2,2.1,1.6c0.8,0.4,1.7,0.6,2.7,0.6c0.9,0,1.8-0.2,2.6-0.6c0.8-0.4,1.5-0.9,2.1-1.6c0.6-0.7,1-1.6,1.4-2.6
			c0.3-1,0.5-2.1,0.5-3.4c0-1.3-0.2-2.4-0.5-3.4c-0.3-1-0.8-1.9-1.4-2.5c-0.6-0.7-1.3-1.2-2.1-1.6C566.4,71.9,565.5,71.8,564.6,71.8
			z"/>
		<path class="st1" d="M586.6,70.2l0.4,0.4v1.2l-0.4,0.4h-1.9c-1.9,0-3.3,0.6-4.2,1.8c-0.8,1.2-1.3,2.8-1.3,4.7v10.4l-0.4,0.4h-1.5
			l-0.4-0.4V70.6l0.4-0.4h1.2l0.4,0.4l0.4,2.3h0.4c0.6-1,1.4-1.7,2.3-2.1c0.9-0.4,2-0.6,3.1-0.6H586.6z"/>
		<path class="st1" d="M599.8,89.5h-2.7c-1.4,0-2.5-0.4-3.4-1.1c-0.9-0.7-1.3-1.8-1.3-3.2V72.5l-0.4-0.4h-3.1l-0.4-0.4v-1.2l0.4-0.4
			h3.1l0.4-0.4v-3.5l0.4-0.4h1.6l0.4,0.4v3.5l0.4,0.4h4.6l0.4,0.4v1.2l-0.4,0.4h-4.6l-0.4,0.4v12.8c0,1.6,0.8,2.3,2.3,2.3h2.7
			l0.4,0.4v1.2L599.8,89.5z"/>
		<path class="st1" d="M619.5,89.5h-1.5l-0.4-0.4V77.6c0-1.9-0.4-3.4-1.3-4.4c-0.9-1-2.1-1.5-3.7-1.5c-2.1,0-3.7,0.6-4.7,1.9
			c-1,1.3-1.5,2.9-1.5,5.1v10.4l-0.4,0.4h-1.5l-0.4-0.4V62.9l0.4-0.4h1.5l0.4,0.4v10.1h0.4c0.6-1,1.4-1.7,2.5-2.3
			c1.1-0.5,2.3-0.8,3.7-0.8c2.2,0,3.9,0.7,5.1,2c1.2,1.3,1.9,3.2,1.9,5.8v11.6L619.5,89.5z"/>
		<path class="st1" d="M626.1,80.6l-0.4,0.4c0,0.6,0.1,1.3,0.3,2.1c0.2,0.8,0.6,1.6,1.1,2.3c0.5,0.7,1.2,1.4,2,1.9
			c0.8,0.5,1.9,0.8,3.2,0.8c1.5,0,2.7-0.3,3.6-1.1c0.8-0.7,1.5-1.7,1.8-2.8l0.4-0.4h1.5l0.4,0.4c-0.1,0.6-0.3,1.2-0.6,1.9
			c-0.3,0.7-0.8,1.3-1.4,1.9c-0.6,0.6-1.4,1.1-2.3,1.5c-0.9,0.4-2.1,0.6-3.4,0.6c-1.5,0-2.9-0.3-4-0.8c-1.1-0.5-2-1.3-2.8-2.2
			c-0.7-0.9-1.3-2-1.6-3.2c-0.4-1.2-0.5-2.5-0.5-3.9v-0.8c0-1.3,0.2-2.6,0.6-3.7c0.4-1.1,0.9-2.1,1.7-2.9c0.7-0.8,1.6-1.5,2.7-1.9
			c1-0.5,2.2-0.7,3.6-0.7c1.3,0,2.5,0.2,3.6,0.7c1.1,0.5,2,1.1,2.7,1.9c0.7,0.8,1.3,1.8,1.7,2.9c0.4,1.1,0.6,2.4,0.6,3.7v1.2
			l-0.4,0.4H626.1z M638,78.3c0-0.7-0.1-1.4-0.3-2.2c-0.2-0.8-0.6-1.5-1-2.1c-0.5-0.7-1.1-1.2-1.9-1.6c-0.8-0.4-1.8-0.6-2.9-0.6
			c-1.2,0-2.1,0.2-2.9,0.6c-0.8,0.4-1.4,1-1.9,1.6c-0.5,0.7-0.8,1.4-1,2.1c-0.2,0.8-0.3,1.5-0.3,2.2l0.4,0.4h11.6L638,78.3z"/>
		<path class="st1" d="M653.5,70.2l0.4,0.4v1.2l-0.4,0.4h-1.9c-1.9,0-3.3,0.6-4.2,1.8c-0.8,1.2-1.2,2.8-1.2,4.7v10.4l-0.4,0.4h-1.5
			l-0.4-0.4V70.6l0.4-0.4h1.2l0.4,0.4l0.4,2.3h0.4c0.6-1,1.4-1.7,2.3-2.1c0.9-0.4,2-0.6,3.1-0.6H653.5z"/>
		<path class="st1" d="M672.5,89.5h-1.6l-0.4-0.4V77.6c0-1.9-0.5-3.4-1.4-4.4c-0.9-1-2.1-1.5-3.7-1.5c-2.1,0-3.7,0.6-4.7,1.9
			c-1,1.3-1.5,2.9-1.5,5.1v10.4l-0.4,0.4h-1.5l-0.4-0.4V70.6l0.4-0.4h1.2l0.4,0.4l0.4,2.3h0.4c0.6-1,1.4-1.7,2.5-2.3
			c1.1-0.5,2.3-0.8,3.7-0.8c2.2,0,3.9,0.7,5.1,2c1.2,1.3,1.8,3.2,1.8,5.8v11.6L672.5,89.5z"/>
		<path class="st1" d="M689.9,89.5h-1.5l-0.4-0.4V62.9l0.4-0.4h1.5l0.4,0.4v26.3L689.9,89.5z"/>
		<path class="st1" d="M705.3,70.2l0.4,0.4v1.2l-0.4,0.4h-1.9c-1.9,0-3.3,0.6-4.2,1.8c-0.8,1.2-1.3,2.8-1.3,4.7v10.4l-0.4,0.4H696
			l-0.4-0.4V70.6l0.4-0.4h1.2l0.4,0.4l0.4,2.3h0.4c0.6-1,1.4-1.7,2.3-2.1c0.9-0.4,2-0.6,3.1-0.6H705.3z"/>
		<path class="st1" d="M709.2,80.6l-0.4,0.4c0,0.6,0.1,1.3,0.3,2.1c0.2,0.8,0.6,1.6,1.1,2.3c0.5,0.7,1.2,1.4,2,1.9
			c0.8,0.5,1.9,0.8,3.2,0.8c1.5,0,2.7-0.3,3.6-1.1c0.8-0.7,1.5-1.7,1.8-2.8l0.4-0.4h1.5l0.4,0.4c-0.1,0.6-0.3,1.2-0.6,1.9
			c-0.3,0.7-0.8,1.3-1.4,1.9c-0.6,0.6-1.4,1.1-2.3,1.5c-0.9,0.4-2.1,0.6-3.4,0.6c-1.6,0-2.9-0.3-4-0.8c-1.1-0.5-2-1.3-2.8-2.2
			c-0.7-0.9-1.3-2-1.6-3.2c-0.4-1.2-0.5-2.5-0.5-3.9v-0.8c0-1.3,0.2-2.6,0.6-3.7c0.4-1.1,0.9-2.1,1.7-2.9c0.7-0.8,1.6-1.5,2.7-1.9
			c1-0.5,2.2-0.7,3.6-0.7c1.3,0,2.5,0.2,3.6,0.7c1.1,0.5,2,1.1,2.7,1.9c0.7,0.8,1.3,1.8,1.7,2.9c0.4,1.1,0.6,2.4,0.6,3.7v1.2
			l-0.4,0.4H709.2z M721.2,78.3c0-0.7-0.1-1.4-0.3-2.2c-0.2-0.8-0.6-1.5-1-2.1c-0.5-0.7-1.1-1.2-1.9-1.6c-0.8-0.4-1.8-0.6-2.9-0.6
			c-1.2,0-2.1,0.2-2.9,0.6c-0.8,0.4-1.4,1-1.9,1.6c-0.5,0.7-0.8,1.4-1,2.1c-0.2,0.8-0.3,1.5-0.3,2.2l0.4,0.4h11.6L721.2,78.3z"/>
		<path class="st1" d="M728.9,89.5h-1.5l-0.4-0.4V62.9l0.4-0.4h1.5l0.4,0.4v26.3L728.9,89.5z"/>
		<path class="st1" d="M747.9,89.5h-1.2l-0.4-0.4l-0.4-1.9h-0.4c-0.2,0.3-0.5,0.6-0.8,0.9c-0.3,0.3-0.7,0.6-1.2,0.9
			c-0.5,0.3-1.1,0.5-1.7,0.7c-0.7,0.2-1.5,0.2-2.5,0.2c-2.2,0-3.8-0.5-4.9-1.6c-1.1-1-1.7-2.5-1.7-4.2c0-2.1,0.7-3.7,2.2-4.7
			c1.4-1,3.4-1.5,6-1.5c0.6,0,1.2,0,1.7,0.1c0.5,0,1,0.1,1.5,0.1c0.3,0.1,0.5,0.1,0.7,0.1c0.2,0,0.5,0.1,0.7,0.1l0.4-0.4v-1.2
			c0-1.7-0.4-3-1.1-3.8c-0.7-0.8-2-1.2-4-1.2c-1,0-1.8,0.1-2.4,0.3c-0.7,0.2-1.2,0.5-1.6,0.9c-0.4,0.4-0.7,0.8-0.8,1.2
			c-0.2,0.5-0.2,0.9-0.2,1.4l-0.4,0.4h-1.5l-0.4-0.4c0-0.8,0.1-1.5,0.4-2.2c0.3-0.7,0.7-1.3,1.3-1.9c0.6-0.5,1.4-1,2.3-1.3
			c0.9-0.3,2-0.5,3.3-0.5c1.4,0,2.6,0.2,3.6,0.5c1,0.3,1.7,0.8,2.3,1.4c0.6,0.6,1,1.4,1.2,2.2c0.2,0.9,0.3,1.8,0.3,2.9v12.4
			L747.9,89.5z M745.9,80.6l-0.4-0.4l-0.6-0.1c-0.2,0-0.4-0.1-0.7-0.1c-0.4-0.1-0.8-0.1-1.3-0.1c-0.5,0-1.1-0.1-1.6-0.1
			c-2.3,0-3.9,0.4-4.8,1.1c-0.9,0.8-1.4,1.8-1.4,3.1c0,1.2,0.3,2.1,1,2.8c0.7,0.7,1.9,1.1,3.6,1.1c1.1,0,2-0.2,2.8-0.5
			c0.8-0.3,1.4-0.8,1.9-1.3c0.5-0.6,0.9-1.2,1.1-1.9c0.2-0.7,0.4-1.4,0.4-2V80.6z"/>
		<path class="st1" d="M768,89.5h-1.6l-0.4-0.4V77.6c0-1.9-0.5-3.4-1.4-4.4c-0.9-1-2.1-1.5-3.7-1.5c-2.1,0-3.7,0.6-4.7,1.9
			c-1,1.3-1.5,2.9-1.5,5.1v10.4l-0.4,0.4h-1.5l-0.4-0.4V70.6l0.4-0.4h1.2l0.4,0.4l0.4,2.3h0.4c0.6-1,1.4-1.7,2.5-2.3
			c1.1-0.5,2.3-0.8,3.7-0.8c2.2,0,3.9,0.7,5.1,2c1.2,1.3,1.9,3.2,1.9,5.8v11.6L768,89.5z"/>
		<path class="st1" d="M779.6,69.8c1.7,0,3.1,0.3,4.1,1c1,0.7,1.7,1.4,2.1,2.1h0.4V62.9l0.4-0.4h1.6l0.4,0.4v26.3l-0.4,0.4h-1.2
			l-0.4-0.4l-0.4-2.3h-0.4c-0.4,0.8-1.1,1.5-2.1,2.1c-1,0.6-2.4,1-4.1,1c-1.4,0-2.5-0.2-3.6-0.8c-1-0.5-1.9-1.2-2.5-2.1
			c-0.7-0.9-1.2-1.9-1.5-3.2c-0.3-1.2-0.5-2.6-0.5-4c0-1.4,0.2-2.8,0.5-4c0.3-1.2,0.8-2.3,1.5-3.2c0.7-0.9,1.5-1.6,2.5-2.1
			C777,70.1,778.2,69.8,779.6,69.8z M779.9,71.8c-1.9,0-3.4,0.7-4.5,2c-1.1,1.3-1.7,3.4-1.7,6.1c0,2.7,0.6,4.8,1.7,6.1
			c1.1,1.3,2.6,2,4.5,2c1.9,0,3.5-0.7,4.5-2c1.1-1.3,1.6-3.4,1.6-6.1c0-2.7-0.6-4.8-1.6-6.1C783.4,72.4,781.9,71.8,779.9,71.8z"/>
	</g>
	<g>
		<path class="st2" d="M89.2,0c46.8,0,89.2,20.7,89.2,50.4s-42.4,50.4-89.2,50.4C42.4,100.7,0,80,0,50.4S42.4,0,89.2,0L89.2,0z"/>
		<path class="st0" d="M4,50.4c0-15.8,14.6-29.8,36.9-38.2c-1.5,2.3-1.9,4.9-0.9,7.8c2.5,6.9,12.8,12.8,24.8,14.9H31.2
			c0,0,1.3,19.1,19.2,37.4c13.7,14,32.4,21.6,40.4,24.4l-1.7,0C42.2,96.7,4,75.9,4,50.4L4,50.4z"/>
		<path class="st1" d="M72.1,5C77.6,4.3,83.3,4,89.2,4c47,0,85.1,20.7,85.1,46.3c0,24.8-35.9,45.1-81,46.3
			c-4.6-4.2-17.7-17.7-14-32.8c4.4-18.2,33.5-29,33.5-29H83c10.5-2.1,16.5-8,14-14.9C94.5,13,84.2,7,72.1,5L72.1,5z"/>
	</g>
</g>
</svg>
