<?xml version="1.0" encoding="UTF-8" standalone="no" ?>
<!DOCTYPE svg PUBLIC "-//W3C//DTD SVG 1.1//EN" "http://www.w3.org/Graphics/SVG/1.1/DTD/svg11.dtd">
<svg xmlns="http://www.w3.org/2000/svg" xmlns:xlink="http://www.w3.org/1999/xlink" version="1.1" width="640" height="480" viewBox="0 0 640 480" xml:space="preserve">
<desc>Created with Fabric.js 3.6.6</desc>
<defs>
</defs>
<g transform="matrix(0.59 0 0 2.35 312.18 231)"  >
<g style=""   >
		<g transform="matrix(1 0 0 1 -123.8 -9.35)" id="Layer_1"  >
<rect style="stroke: none; stroke-width: 1; stroke-dasharray: none; stroke-linecap: butt; stroke-dashoffset: 0; stroke-linejoin: miter; stroke-miterlimit: 4; fill: rgb(145,184,226); fill-rule: nonzero; opacity: 1;"  x="-88.6" y="-43.8" rx="0" ry="0" width="177.2" height="87.6" />
</g>
		<g transform="matrix(1 0 0 1 -123.85 45.1)" id="Layer_1"  >
<rect style="stroke: none; stroke-width: 1; stroke-dasharray: none; stroke-linecap: butt; stroke-dashoffset: 0; stroke-linejoin: miter; stroke-miterlimit: 4; fill: rgb(69,120,187); fill-rule: nonzero; opacity: 1;"  x="-88.55" y="-7.95" rx="0" ry="0" width="177.1" height="15.9" />
</g>
		<g transform="matrix(1 0 0 1 -161.5 -7.4)" id="Layer_1"  >
<path style="stroke: none; stroke-width: 1; stroke-dasharray: none; stroke-linecap: butt; stroke-dashoffset: 0; stroke-linejoin: miter; stroke-miterlimit: 4; fill: rgb(255,255,255); fill-rule: nonzero; opacity: 1;"  transform=" translate(-50.9, -45.75)" d="M 39.2 44 h 23.5 V 29.5 c 0 -2.6 -0.2 -4.3 -0.5 -5.1 c -0.2 -0.6 -0.8 -1.2 -1.6 -1.6 c -1.1 -0.6 -2.2 -0.9 -3.4 -0.9 h -1.8 v -1.4 H 77 v 1.4 h -1.8 c -1.2 0 -2.3 0.3 -3.4 0.9 c -0.8 0.4 -1.3 1 -1.6 1.8 c -0.3 0.8 -0.4 2.5 -0.4 4.9 v 32.6 c 0 2.6 0.2 4.2 0.5 5.1 c 0.3 0.6 0.8 1.2 1.5 1.6 c 1.1 0.6 2.2 0.9 3.4 0.9 H 77 V 71 H 55.4 v -1.4 h 1.8 c 2.1 0 3.6 -0.6 4.5 -1.8 c 0.6 -0.8 0.9 -2.7 0.9 -5.7 V 46.7 H 39.2 v 15.4 c 0 2.6 0.2 4.2 0.5 5.1 c 0.3 0.6 0.8 1.2 1.6 1.6 c 1.1 0.6 2.2 0.9 3.4 0.9 h 1.8 V 71 H 24.8 v -1.4 h 1.8 c 2.1 0 3.6 -0.6 4.5 -1.8 c 0.6 -0.8 0.9 -2.7 0.9 -5.7 V 29.5 c 0 -2.6 -0.2 -4.3 -0.5 -5.1 c -0.2 -0.6 -0.8 -1.2 -1.5 -1.6 c -1.1 -0.6 -2.2 -0.9 -3.4 -0.9 h -1.8 v -1.4 h 21.6 v 1.4 h -1.8 c -1.2 0 -2.3 0.3 -3.4 0.9 c -0.8 0.4 -1.3 1 -1.6 1.8 c -0.3 0.8 -0.4 2.5 -0.4 4.9 V 44 z" stroke-linecap="round" />
</g>
		<g transform="matrix(1 0 0 1 -96 -7.95)" id="Layer_1"  >
<path style="stroke: none; stroke-width: 1; stroke-dasharray: none; stroke-linecap: butt; stroke-dashoffset: 0; stroke-linejoin: miter; stroke-miterlimit: 4; fill: rgb(255,255,255); fill-rule: nonzero; opacity: 1;"  transform=" translate(-116.4, -45.2)" d="M 147.5 68 c -1.2 -1 -2.4 -3.2 -3.9 -6.6 l -17.6 -42 h -1.3 L 107 60.9 c -1.5 3.7 -2.9 6.1 -4.2 7.3 c -0.6 0.5 -1.8 1 -3.6 1.4 c -0.8 -0.1 -1.6 -0.4 -2.3 -0.8 c -0.8 -0.4 -1.3 -1 -1.6 -1.6 c -0.3 -0.8 -0.5 -2.5 -0.5 -5.1 V 29.5 c 0 -3 0.3 -4.9 0.9 -5.7 c 0.9 -1.2 2.4 -1.8 4.5 -1.8 h 1.8 v -1.4 H 80.5 v 1.4 h 1.8 c 1.2 0 2.3 0.3 3.4 0.9 c 0.8 0.4 1.3 1 1.5 1.6 c 0.3 0.8 0.5 2.5 0.5 5.1 v 32.6 c 0 3 -0.3 4.9 -0.9 5.7 c -0.9 1.2 -2.5 1.8 -4.5 1.8 h -1.8 V 71 h 18.2 h 3.4 h 12.5 v -1.4 c -2.4 -0.2 -4 -0.6 -4.7 -1.1 c -0.7 -0.6 -1.1 -1.3 -1.1 -2 c 0 -1 0.4 -2.4 1.3 -4.4 l 3.4 -8 H 133 l 3.1 7.3 c 1 2.4 1.5 4.1 1.5 5.2 c 0 0.8 -0.4 1.5 -1.1 2.1 c -0.7 0.6 -2.1 0.9 -4.1 1 V 71 h 19.9 v -1.4 C 150.3 69.5 148.7 69 147.5 68 z M 114.6 51.4 l 8.8 -20.4 l 8.6 20.4 H 114.6 z" stroke-linecap="round" />
</g>
		<g transform="matrix(1 0 0 1 -13.7 -26.5)" id="Layer_1"  >
<path style="stroke: none; stroke-width: 1; stroke-dasharray: none; stroke-linecap: butt; stroke-dashoffset: 0; stroke-linejoin: miter; stroke-miterlimit: 4; fill: rgb(145,184,226); fill-rule: nonzero; opacity: 1;"  transform=" translate(-198.7, -26.65)" d="M 191.6 33.1 c 0.8 -0.1 1.3 -0.2 1.5 -0.4 c 0.2 -0.2 0.3 -0.8 0.3 -1.7 v -9 c 0 -0.7 -0.1 -1.2 -0.3 -1.4 c -0.2 -0.2 -0.7 -0.4 -1.5 -0.4 v -0.4 h 5.8 v 0.4 c -0.8 0.1 -1.3 0.2 -1.5 0.4 s -0.3 0.7 -0.3 1.4 v 4 h 6.3 v -4 c 0 -0.7 -0.1 -1.2 -0.3 -1.4 s -0.7 -0.4 -1.5 -0.4 v -0.4 h 5.8 v 0.4 c -0.8 0.1 -1.3 0.2 -1.5 0.4 c -0.2 0.2 -0.3 0.7 -0.3 1.4 v 9.2 c 0 0.8 0.1 1.2 0.3 1.4 c 0.2 0.2 0.7 0.4 1.5 0.4 v 0.4 H 200 v -0.4 c 0.8 -0.1 1.3 -0.2 1.5 -0.4 c 0.2 -0.2 0.3 -0.8 0.3 -1.7 v -4 h -6.3 v 4.3 c 0 0.8 0.1 1.2 0.3 1.5 c 0.2 0.2 0.7 0.4 1.5 0.4 v 0.4 h -5.8 V 33.1 z" stroke-linecap="round" />
</g>
		<g transform="matrix(1 0 0 1 -3.25 -26.65)" id="Layer_1"  >
<path style="stroke: none; stroke-width: 1; stroke-dasharray: none; stroke-linecap: butt; stroke-dashoffset: 0; stroke-linejoin: miter; stroke-miterlimit: 4; fill: rgb(145,184,226); fill-rule: nonzero; opacity: 1;"  transform=" translate(-209.15, -26.5)" d="M 206.7 33.2 c 0.7 -0.1 1.2 -0.2 1.4 -0.4 c 0.2 -0.2 0.3 -0.7 0.3 -1.5 v -4.8 c 0 -0.4 0 -0.7 -0.1 -0.9 c -0.1 -0.3 -0.3 -0.4 -0.6 -0.4 c -0.1 0 -0.1 0 -0.2 0 c -0.1 0 -0.3 0.1 -0.6 0.2 v -0.3 l 0.4 -0.1 c 1.2 -0.4 2 -0.7 2.5 -0.9 C 209.9 24 210 24 210 24 c 0 0 0 0.1 0 0.2 v 7.3 c 0 0.8 0.1 1.3 0.3 1.4 c 0.2 0.2 0.6 0.3 1.3 0.4 v 0.3 h -4.9 V 33.2 z M 208.3 19.7 c 0.2 -0.2 0.5 -0.3 0.7 -0.3 c 0.3 0 0.5 0.1 0.7 0.3 c 0.2 0.2 0.3 0.5 0.3 0.8 c 0 0.3 -0.1 0.5 -0.3 0.7 c -0.2 0.2 -0.5 0.3 -0.7 0.3 c -0.3 0 -0.5 -0.1 -0.7 -0.3 c -0.2 -0.2 -0.3 -0.5 -0.3 -0.7 C 208 20.1 208.1 19.9 208.3 19.7 z" stroke-linecap="round" />
</g>
		<g transform="matrix(1 0 0 1 3 -24.3)" id="Layer_1"  >
<path style="stroke: none; stroke-width: 1; stroke-dasharray: none; stroke-linecap: butt; stroke-dashoffset: 0; stroke-linejoin: miter; stroke-miterlimit: 4; fill: rgb(145,184,226); fill-rule: nonzero; opacity: 1;"  transform=" translate(-215.4, -28.85)" d="M 212.4 30.3 h 0.3 c 0.2 0.8 0.4 1.4 0.6 1.8 c 0.5 0.8 1.2 1.1 2.1 1.1 c 0.5 0 0.9 -0.1 1.2 -0.4 c 0.3 -0.3 0.4 -0.6 0.4 -1.1 c 0 -0.3 -0.1 -0.6 -0.3 -0.8 c -0.2 -0.3 -0.5 -0.5 -0.9 -0.8 l -1.1 -0.6 c -0.8 -0.4 -1.4 -0.9 -1.8 -1.3 c -0.4 -0.5 -0.6 -1 -0.6 -1.6 c 0 -0.8 0.3 -1.4 0.8 -1.9 c 0.5 -0.5 1.2 -0.7 2 -0.7 c 0.4 0 0.8 0.1 1.2 0.2 c 0.4 0.1 0.7 0.2 0.7 0.2 c 0.1 0 0.2 0 0.3 -0.1 c 0.1 0 0.1 -0.1 0.1 -0.2 h 0.2 l 0.1 2.8 h -0.3 c -0.1 -0.7 -0.3 -1.2 -0.5 -1.5 c -0.4 -0.7 -1 -1 -1.8 -1 c -0.5 0 -0.8 0.1 -1.1 0.4 c -0.3 0.3 -0.4 0.6 -0.4 1 c 0 0.6 0.5 1.2 1.4 1.7 l 1.3 0.7 c 1.4 0.8 2.2 1.7 2.2 2.7 c 0 0.8 -0.3 1.4 -0.9 2 c -0.6 0.5 -1.4 0.8 -2.3 0.8 c -0.4 0 -0.9 -0.1 -1.4 -0.2 c -0.5 -0.1 -0.8 -0.2 -0.9 -0.2 c -0.1 0 -0.2 0 -0.2 0.1 c -0.1 0.1 -0.1 0.1 -0.1 0.2 h -0.3 V 30.3 z" stroke-linecap="round" />
</g>
		<g transform="matrix(1 0 0 1 9.4 -25.6)" id="Layer_1"  >
<path style="stroke: none; stroke-width: 1; stroke-dasharray: none; stroke-linecap: butt; stroke-dashoffset: 0; stroke-linejoin: miter; stroke-miterlimit: 4; fill: rgb(145,184,226); fill-rule: nonzero; opacity: 1;"  transform=" translate(-221.8, -27.55)" d="M 224 24.2 v 0.7 h -2.1 l 0 5.8 c 0 0.5 0 0.9 0.1 1.2 c 0.2 0.5 0.5 0.7 1 0.7 c 0.2 0 0.5 -0.1 0.6 -0.2 c 0.2 -0.1 0.4 -0.3 0.6 -0.5 l 0.3 0.2 l -0.2 0.3 c -0.4 0.5 -0.7 0.8 -1.1 1 c -0.4 0.2 -0.8 0.3 -1.1 0.3 c -0.8 0 -1.3 -0.4 -1.6 -1.1 c -0.2 -0.4 -0.2 -0.9 -0.2 -1.6 v -6.1 h -1.1 c 0 0 -0.1 0 -0.1 -0.1 c 0 0 0 0 0 -0.1 c 0 -0.1 0 -0.1 0 -0.2 c 0 0 0.1 -0.1 0.3 -0.3 c 0.5 -0.4 0.8 -0.7 1 -0.9 c 0.2 -0.2 0.7 -0.9 1.5 -1.9 c 0.1 0 0.1 0 0.2 0 c 0 0 0 0.1 0 0.2 v 2.5 H 224 z" stroke-linecap="round" />
</g>
		<g transform="matrix(1 0 0 1 17.2 -24.25)" id="Layer_1"  >
<path style="stroke: none; stroke-width: 1; stroke-dasharray: none; stroke-linecap: butt; stroke-dashoffset: 0; stroke-linejoin: miter; stroke-miterlimit: 4; fill: rgb(145,184,226); fill-rule: nonzero; opacity: 1;"  transform=" translate(-229.6, -28.9)" d="M 226.3 25.4 c 0.9 -0.9 2 -1.4 3.3 -1.4 c 1.3 0 2.4 0.4 3.3 1.3 c 0.9 0.9 1.3 2 1.3 3.5 c 0 1.3 -0.4 2.5 -1.3 3.5 c -0.9 1 -2 1.5 -3.3 1.5 c -1.3 0 -2.4 -0.5 -3.3 -1.4 c -0.9 -1 -1.3 -2.1 -1.3 -3.6 C 225 27.5 225.4 26.3 226.3 25.4 z M 227.9 25.1 c -0.7 0.6 -1 1.7 -1 3.2 c 0 1.2 0.3 2.3 0.8 3.4 c 0.5 1 1.3 1.6 2.3 1.6 c 0.8 0 1.3 -0.3 1.8 -1 c 0.4 -0.7 0.6 -1.6 0.6 -2.7 c 0 -1.2 -0.3 -2.3 -0.8 -3.3 c -0.5 -1 -1.3 -1.6 -2.3 -1.6 C 228.8 24.6 228.3 24.8 227.9 25.1 z" stroke-linecap="round" />
</g>
		<g transform="matrix(1 0 0 1 25.95 -24.25)" id="Layer_1"  >
<path style="stroke: none; stroke-width: 1; stroke-dasharray: none; stroke-linecap: butt; stroke-dashoffset: 0; stroke-linejoin: miter; stroke-miterlimit: 4; fill: rgb(145,184,226); fill-rule: nonzero; opacity: 1;"  transform=" translate(-238.35, -28.9)" d="M 235 33.2 c 0.6 -0.1 1 -0.2 1.2 -0.3 c 0.2 -0.2 0.3 -0.5 0.3 -1.1 v -4.6 c 0 -0.7 -0.1 -1.1 -0.2 -1.4 c -0.1 -0.3 -0.4 -0.4 -0.7 -0.4 c -0.1 0 -0.2 0 -0.3 0 c -0.1 0 -0.2 0 -0.3 0.1 v -0.3 c 0.4 -0.1 0.8 -0.3 1.2 -0.4 c 0.4 -0.1 0.7 -0.2 0.8 -0.3 c 0.3 -0.1 0.7 -0.3 1 -0.4 c 0 0 0.1 0 0.1 0.1 c 0 0 0 0.1 0 0.2 v 1.7 c 0.4 -0.6 0.9 -1.1 1.3 -1.4 c 0.4 -0.3 0.8 -0.5 1.3 -0.5 c 0.3 0 0.6 0.1 0.8 0.3 c 0.2 0.2 0.3 0.5 0.3 0.8 c 0 0.3 -0.1 0.5 -0.2 0.7 c -0.2 0.2 -0.4 0.3 -0.6 0.3 c -0.3 0 -0.5 -0.1 -0.8 -0.4 s -0.5 -0.4 -0.6 -0.4 c -0.2 0 -0.5 0.2 -0.9 0.6 c -0.3 0.4 -0.5 0.8 -0.5 1.2 v 4.6 c 0 0.6 0.1 1 0.4 1.2 c 0.3 0.2 0.7 0.3 1.3 0.3 v 0.3 h -5 V 33.2 z" stroke-linecap="round" />
</g>
		<g transform="matrix(1 0 0 1 32.35 -26.65)" id="Layer_1"  >
<path style="stroke: none; stroke-width: 1; stroke-dasharray: none; stroke-linecap: butt; stroke-dashoffset: 0; stroke-linejoin: miter; stroke-miterlimit: 4; fill: rgb(145,184,226); fill-rule: nonzero; opacity: 1;"  transform=" translate(-244.75, -26.5)" d="M 242.2 33.2 c 0.7 -0.1 1.2 -0.2 1.4 -0.4 c 0.2 -0.2 0.3 -0.7 0.3 -1.5 v -4.8 c 0 -0.4 0 -0.7 -0.1 -0.9 c -0.1 -0.3 -0.3 -0.4 -0.6 -0.4 c -0.1 0 -0.1 0 -0.2 0 c -0.1 0 -0.3 0.1 -0.6 0.2 v -0.3 l 0.4 -0.1 c 1.2 -0.4 2 -0.7 2.5 -0.9 c 0.2 -0.1 0.3 -0.1 0.4 -0.1 c 0 0 0 0.1 0 0.2 v 7.3 c 0 0.8 0.1 1.3 0.3 1.4 c 0.2 0.2 0.6 0.3 1.3 0.4 v 0.3 h -4.9 V 33.2 z M 243.8 19.7 c 0.2 -0.2 0.5 -0.3 0.7 -0.3 c 0.3 0 0.5 0.1 0.7 0.3 c 0.2 0.2 0.3 0.5 0.3 0.8 c 0 0.3 -0.1 0.5 -0.3 0.7 c -0.2 0.2 -0.5 0.3 -0.7 0.3 c -0.3 0 -0.5 -0.1 -0.7 -0.3 c -0.2 -0.2 -0.3 -0.5 -0.3 -0.7 C 243.5 20.1 243.6 19.9 243.8 19.7 z" stroke-linecap="round" />
</g>
		<g transform="matrix(1 0 0 1 39.1 -24.4)" id="Layer_1"  >
<path style="stroke: none; stroke-width: 1; stroke-dasharray: none; stroke-linecap: butt; stroke-dashoffset: 0; stroke-linejoin: miter; stroke-miterlimit: 4; fill: rgb(145,184,226); fill-rule: nonzero; opacity: 1;"  transform=" translate(-251.5, -28.75)" d="M 254.2 24.6 c 0.6 0.4 0.9 0.9 0.9 1.4 c 0 0.2 -0.1 0.4 -0.2 0.6 c -0.2 0.2 -0.4 0.3 -0.7 0.3 c -0.2 0 -0.4 -0.1 -0.6 -0.2 c -0.2 -0.2 -0.3 -0.4 -0.4 -0.7 l -0.1 -0.5 c -0.1 -0.4 -0.2 -0.6 -0.5 -0.8 c -0.2 -0.1 -0.5 -0.2 -0.9 -0.2 c -0.8 0 -1.4 0.3 -2 1 c -0.5 0.7 -0.8 1.6 -0.8 2.7 c 0 1 0.3 1.9 0.9 2.7 c 0.6 0.8 1.4 1.2 2.4 1.2 c 0.7 0 1.3 -0.2 1.9 -0.7 c 0.3 -0.3 0.7 -0.7 1.1 -1.3 l 0.3 0.2 c -0.4 0.8 -0.8 1.5 -1.2 1.9 c -0.8 0.9 -1.8 1.4 -2.8 1.4 c -1.1 0 -2 -0.4 -2.8 -1.2 c -0.8 -0.8 -1.2 -2 -1.2 -3.4 c 0 -1.4 0.4 -2.6 1.3 -3.6 c 0.9 -1 2 -1.5 3.4 -1.5 C 252.8 23.9 253.6 24.2 254.2 24.6 z" stroke-linecap="round" />
</g>
		<g transform="matrix(1 0 0 1 48.08 -24.6)" id="Layer_1"  >
<path style="stroke: none; stroke-width: 1; stroke-dasharray: none; stroke-linecap: butt; stroke-dashoffset: 0; stroke-linejoin: miter; stroke-miterlimit: 4; fill: rgb(145,184,226); fill-rule: nonzero; opacity: 1;"  transform=" translate(-260.48, -28.55)" d="M 257.6 29 c 0.6 -0.4 1.9 -1 3.7 -1.7 v -0.9 c 0 -0.7 -0.1 -1.2 -0.2 -1.4 c -0.2 -0.5 -0.7 -0.7 -1.4 -0.7 c -0.3 0 -0.7 0.1 -1 0.3 c -0.3 0.2 -0.5 0.4 -0.5 0.7 c 0 0.1 0 0.2 0.1 0.4 c 0 0.2 0.1 0.3 0.1 0.4 c 0 0.4 -0.1 0.6 -0.4 0.8 c -0.1 0.1 -0.3 0.1 -0.5 0.1 c -0.3 0 -0.5 -0.1 -0.7 -0.3 c -0.2 -0.2 -0.2 -0.4 -0.2 -0.7 c 0 -0.5 0.3 -1 0.9 -1.5 c 0.6 -0.5 1.4 -0.8 2.6 -0.8 c 1.3 0 2.2 0.4 2.7 1.3 c 0.2 0.5 0.4 1.1 0.4 2 v 4.1 c 0 0.4 0 0.7 0.1 0.8 c 0.1 0.3 0.3 0.4 0.5 0.4 c 0.2 0 0.3 0 0.4 -0.1 c 0.1 0 0.3 -0.2 0.5 -0.3 v 0.5 c -0.2 0.3 -0.4 0.5 -0.7 0.6 c -0.4 0.3 -0.8 0.4 -1.2 0.4 c -0.5 0 -0.8 -0.1 -1 -0.4 c -0.2 -0.3 -0.3 -0.7 -0.3 -1.1 c -0.5 0.4 -1 0.8 -1.3 1 c -0.6 0.4 -1.2 0.5 -1.8 0.5 c -0.6 0 -1.1 -0.2 -1.5 -0.6 s -0.6 -0.9 -0.6 -1.6 C 256.1 30.5 256.6 29.7 257.6 29 z M 261.3 27.9 c -0.8 0.3 -1.4 0.5 -1.9 0.9 c -1 0.6 -1.5 1.3 -1.5 2 c 0 0.6 0.2 1.1 0.6 1.4 c 0.3 0.2 0.6 0.3 0.9 0.3 c 0.4 0 0.9 -0.1 1.3 -0.4 c 0.4 -0.2 0.6 -0.6 0.6 -1 V 27.9 z" stroke-linecap="round" />
</g>
		<g transform="matrix(1 0 0 1 55.1 -26.75)" id="Layer_1"  >
<path style="stroke: none; stroke-width: 1; stroke-dasharray: none; stroke-linecap: butt; stroke-dashoffset: 0; stroke-linejoin: miter; stroke-miterlimit: 4; fill: rgb(145,184,226); fill-rule: nonzero; opacity: 1;"  transform=" translate(-267.5, -26.4)" d="M 265 33.2 c 0.6 -0.1 1.1 -0.2 1.3 -0.4 s 0.3 -0.6 0.3 -1.1 v -9.9 c 0 -0.4 0 -0.8 -0.1 -0.9 c -0.1 -0.3 -0.4 -0.4 -0.8 -0.4 c -0.1 0 -0.2 0 -0.3 0 c -0.1 0 -0.3 0.1 -0.4 0.1 v -0.3 c 0.9 -0.2 2 -0.6 3.3 -1 c 0 0 0.1 0 0.1 0.1 c 0 0 0 0.1 0 0.3 v 12.1 c 0 0.6 0.1 1 0.3 1.1 c 0.2 0.2 0.6 0.3 1.3 0.3 v 0.3 H 265 V 33.2 z" stroke-linecap="round" />
</g>
		<g transform="matrix(1 0 0 1 66.55 -26.55)" id="Layer_1"  >
<path style="stroke: none; stroke-width: 1; stroke-dasharray: none; stroke-linecap: butt; stroke-dashoffset: 0; stroke-linejoin: miter; stroke-miterlimit: 4; fill: rgb(145,184,226); fill-rule: nonzero; opacity: 1;"  transform=" translate(-278.95, -26.6)" d="M 275.9 33.1 c 0.8 -0.1 1.4 -0.2 1.6 -0.4 c 0.2 -0.2 0.4 -0.7 0.4 -1.5 V 22 c 0 -0.8 -0.1 -1.3 -0.4 -1.5 c -0.3 -0.2 -0.8 -0.3 -1.6 -0.4 v -0.4 h 6.1 v 0.4 c -0.8 0 -1.4 0.2 -1.6 0.4 c -0.2 0.2 -0.4 0.7 -0.4 1.5 v 9.2 c 0 0.8 0.1 1.3 0.4 1.5 c 0.3 0.2 0.8 0.3 1.6 0.4 v 0.4 h -6.1 V 33.1 z" stroke-linecap="round" />
</g>
		<g transform="matrix(1 0 0 1 75.35 -24.4)" id="Layer_1"  >
<path style="stroke: none; stroke-width: 1; stroke-dasharray: none; stroke-linecap: butt; stroke-dashoffset: 0; stroke-linejoin: miter; stroke-miterlimit: 4; fill: rgb(145,184,226); fill-rule: nonzero; opacity: 1;"  transform=" translate(-287.75, -28.75)" d="M 282.8 33.2 c 0.5 -0.1 0.8 -0.2 1 -0.4 c 0.2 -0.2 0.3 -0.6 0.3 -1.2 v -5.1 c 0 -0.4 0 -0.7 -0.1 -0.9 c -0.1 -0.3 -0.4 -0.4 -0.8 -0.4 c -0.1 0 -0.1 0 -0.2 0 c -0.1 0 -0.1 0 -0.2 0 v -0.4 c 0.3 -0.1 0.9 -0.3 2 -0.6 l 1 -0.3 c 0 0 0.1 0 0.1 0.1 c 0 0 0 0.1 0 0.1 v 1.5 c 0.6 -0.6 1.1 -1 1.5 -1.2 c 0.5 -0.3 1.1 -0.5 1.6 -0.5 c 0.5 0 0.9 0.1 1.3 0.4 c 0.7 0.5 1.1 1.4 1.1 2.7 v 4.7 c 0 0.5 0.1 0.8 0.3 1.1 s 0.5 0.3 1 0.3 v 0.3 h -4.3 v -0.3 c 0.5 -0.1 0.8 -0.2 1 -0.4 c 0.2 -0.2 0.3 -0.7 0.3 -1.3 v -4.3 c 0 -0.6 -0.1 -1.1 -0.3 -1.4 c -0.2 -0.4 -0.6 -0.6 -1.2 -0.6 c -0.4 0 -0.8 0.1 -1.2 0.4 c -0.2 0.2 -0.5 0.4 -0.9 0.8 V 32 c 0 0.5 0.1 0.8 0.3 1 c 0.2 0.2 0.6 0.3 1 0.3 v 0.3 h -4.4 V 33.2 z" stroke-linecap="round" />
</g>
		<g transform="matrix(1 0 0 1 83.8 -24.3)" id="Layer_1"  >
<path style="stroke: none; stroke-width: 1; stroke-dasharray: none; stroke-linecap: butt; stroke-dashoffset: 0; stroke-linejoin: miter; stroke-miterlimit: 4; fill: rgb(145,184,226); fill-rule: nonzero; opacity: 1;"  transform=" translate(-296.2, -28.85)" d="M 293.2 30.3 h 0.3 c 0.2 0.8 0.4 1.4 0.6 1.8 c 0.5 0.8 1.2 1.1 2.1 1.1 c 0.5 0 0.9 -0.1 1.2 -0.4 c 0.3 -0.3 0.4 -0.6 0.4 -1.1 c 0 -0.3 -0.1 -0.6 -0.3 -0.8 c -0.2 -0.3 -0.5 -0.5 -0.9 -0.8 l -1.1 -0.6 c -0.8 -0.4 -1.4 -0.9 -1.8 -1.3 c -0.4 -0.5 -0.6 -1 -0.6 -1.6 c 0 -0.8 0.3 -1.4 0.8 -1.9 c 0.5 -0.5 1.2 -0.7 2 -0.7 c 0.4 0 0.8 0.1 1.2 0.2 c 0.4 0.1 0.7 0.2 0.7 0.2 c 0.1 0 0.2 0 0.3 -0.1 c 0.1 0 0.1 -0.1 0.1 -0.2 h 0.2 l 0.1 2.8 h -0.3 c -0.1 -0.7 -0.3 -1.2 -0.5 -1.5 c -0.4 -0.7 -1 -1 -1.8 -1 c -0.5 0 -0.8 0.1 -1.1 0.4 c -0.3 0.3 -0.4 0.6 -0.4 1 c 0 0.6 0.5 1.2 1.4 1.7 l 1.3 0.7 c 1.4 0.8 2.2 1.7 2.2 2.7 c 0 0.8 -0.3 1.4 -0.9 2 c -0.6 0.5 -1.4 0.8 -2.3 0.8 c -0.4 0 -0.9 -0.1 -1.4 -0.2 c -0.5 -0.1 -0.8 -0.2 -0.9 -0.2 c -0.1 0 -0.2 0 -0.2 0.1 c -0.1 0.1 -0.1 0.1 -0.1 0.2 h -0.3 V 30.3 z" stroke-linecap="round" />
</g>
		<g transform="matrix(1 0 0 1 90.2 -25.6)" id="Layer_1"  >
<path style="stroke: none; stroke-width: 1; stroke-dasharray: none; stroke-linecap: butt; stroke-dashoffset: 0; stroke-linejoin: miter; stroke-miterlimit: 4; fill: rgb(145,184,226); fill-rule: nonzero; opacity: 1;"  transform=" translate(-302.6, -27.55)" d="M 304.8 24.2 v 0.7 h -2.1 l 0 5.8 c 0 0.5 0 0.9 0.1 1.2 c 0.2 0.5 0.5 0.7 1 0.7 c 0.2 0 0.5 -0.1 0.6 -0.2 c 0.2 -0.1 0.4 -0.3 0.6 -0.5 l 0.3 0.2 l -0.2 0.3 c -0.4 0.5 -0.7 0.8 -1.1 1 c -0.4 0.2 -0.8 0.3 -1.1 0.3 c -0.8 0 -1.3 -0.4 -1.6 -1.1 c -0.2 -0.4 -0.2 -0.9 -0.2 -1.6 v -6.1 h -1.1 c 0 0 -0.1 0 -0.1 -0.1 c 0 0 0 0 0 -0.1 c 0 -0.1 0 -0.1 0 -0.2 c 0 0 0.1 -0.1 0.3 -0.3 c 0.5 -0.4 0.8 -0.7 1 -0.9 c 0.2 -0.2 0.7 -0.9 1.5 -1.9 c 0.1 0 0.1 0 0.2 0 c 0 0 0 0.1 0 0.2 v 2.5 H 304.8 z" stroke-linecap="round" />
</g>
		<g transform="matrix(1 0 0 1 95.75 -26.65)" id="Layer_1"  >
<path style="stroke: none; stroke-width: 1; stroke-dasharray: none; stroke-linecap: butt; stroke-dashoffset: 0; stroke-linejoin: miter; stroke-miterlimit: 4; fill: rgb(145,184,226); fill-rule: nonzero; opacity: 1;"  transform=" translate(-308.15, -26.5)" d="M 305.7 33.2 c 0.7 -0.1 1.2 -0.2 1.4 -0.4 c 0.2 -0.2 0.3 -0.7 0.3 -1.5 v -4.8 c 0 -0.4 0 -0.7 -0.1 -0.9 c -0.1 -0.3 -0.3 -0.4 -0.6 -0.4 c -0.1 0 -0.1 0 -0.2 0 c -0.1 0 -0.3 0.1 -0.6 0.2 v -0.3 l 0.4 -0.1 c 1.2 -0.4 2 -0.7 2.5 -0.9 C 308.9 24 309 24 309 24 c 0 0 0 0.1 0 0.2 v 7.3 c 0 0.8 0.1 1.3 0.3 1.4 s 0.6 0.3 1.3 0.4 v 0.3 h -4.9 V 33.2 z M 307.3 19.7 c 0.2 -0.2 0.5 -0.3 0.7 -0.3 c 0.3 0 0.5 0.1 0.7 0.3 c 0.2 0.2 0.3 0.5 0.3 0.8 c 0 0.3 -0.1 0.5 -0.3 0.7 c -0.2 0.2 -0.5 0.3 -0.7 0.3 c -0.3 0 -0.5 -0.1 -0.7 -0.3 c -0.2 -0.2 -0.3 -0.5 -0.3 -0.7 C 307 20.1 307.1 19.9 307.3 19.7 z" stroke-linecap="round" />
</g>
		<g transform="matrix(1 0 0 1 101 -25.6)" id="Layer_1"  >
<path style="stroke: none; stroke-width: 1; stroke-dasharray: none; stroke-linecap: butt; stroke-dashoffset: 0; stroke-linejoin: miter; stroke-miterlimit: 4; fill: rgb(145,184,226); fill-rule: nonzero; opacity: 1;"  transform=" translate(-313.4, -27.55)" d="M 315.6 24.2 v 0.7 h -2.1 l 0 5.8 c 0 0.5 0 0.9 0.1 1.2 c 0.2 0.5 0.5 0.7 1 0.7 c 0.2 0 0.5 -0.1 0.6 -0.2 c 0.2 -0.1 0.4 -0.3 0.6 -0.5 l 0.3 0.2 l -0.2 0.3 c -0.4 0.5 -0.7 0.8 -1.1 1 c -0.4 0.2 -0.8 0.3 -1.1 0.3 c -0.8 0 -1.3 -0.4 -1.6 -1.1 c -0.2 -0.4 -0.2 -0.9 -0.2 -1.6 v -6.1 h -1.1 c 0 0 -0.1 0 -0.1 -0.1 c 0 0 0 0 0 -0.1 c 0 -0.1 0 -0.1 0 -0.2 c 0 0 0.1 -0.1 0.3 -0.3 c 0.5 -0.4 0.8 -0.7 1 -0.9 c 0.2 -0.2 0.7 -0.9 1.5 -1.9 c 0.1 0 0.1 0 0.2 0 c 0 0 0 0.1 0 0.2 v 2.5 H 315.6 z" stroke-linecap="round" />
</g>
		<g transform="matrix(1 0 0 1 108.65 -24.35)" id="Layer_1"  >
<path style="stroke: none; stroke-width: 1; stroke-dasharray: none; stroke-linecap: butt; stroke-dashoffset: 0; stroke-linejoin: miter; stroke-miterlimit: 4; fill: rgb(145,184,226); fill-rule: nonzero; opacity: 1;"  transform=" translate(-321.05, -28.8)" d="M 319.3 24.1 v 6.5 c 0 0.5 0.1 0.8 0.2 1.1 c 0.2 0.5 0.7 0.8 1.4 0.8 c 0.5 0 0.9 -0.2 1.3 -0.5 c 0.3 -0.2 0.5 -0.4 0.8 -0.7 v -5.6 c 0 -0.5 -0.1 -0.9 -0.3 -1 c -0.2 -0.2 -0.6 -0.3 -1.2 -0.3 v -0.3 h 3.3 v 7.1 c 0 0.5 0.1 0.8 0.2 0.9 c 0.2 0.2 0.5 0.2 1 0.2 v 0.3 c -0.4 0.1 -0.6 0.2 -0.8 0.2 c -0.2 0.1 -0.5 0.1 -0.9 0.3 c -0.2 0.1 -0.6 0.2 -1.2 0.4 c 0 0 -0.1 0 -0.1 0 c 0 0 0 -0.1 0 -0.1 v -1.6 c -0.5 0.5 -0.9 1 -1.3 1.2 c -0.6 0.4 -1.2 0.6 -1.8 0.6 c -0.6 0 -1.1 -0.2 -1.7 -0.6 c -0.5 -0.4 -0.8 -1.1 -0.8 -2.1 v -5.3 c 0 -0.5 -0.1 -0.9 -0.3 -1.1 c -0.1 -0.1 -0.5 -0.2 -1 -0.2 v -0.3 H 319.3 z" stroke-linecap="round" />
</g>
		<g transform="matrix(1 0 0 1 116.5 -25.6)" id="Layer_1"  >
<path style="stroke: none; stroke-width: 1; stroke-dasharray: none; stroke-linecap: butt; stroke-dashoffset: 0; stroke-linejoin: miter; stroke-miterlimit: 4; fill: rgb(145,184,226); fill-rule: nonzero; opacity: 1;"  transform=" translate(-328.9, -27.55)" d="M 331.1 24.2 v 0.7 H 329 l 0 5.8 c 0 0.5 0 0.9 0.1 1.2 c 0.2 0.5 0.5 0.7 1 0.7 c 0.2 0 0.5 -0.1 0.6 -0.2 c 0.2 -0.1 0.4 -0.3 0.6 -0.5 l 0.3 0.2 l -0.2 0.3 c -0.4 0.5 -0.7 0.8 -1.1 1 c -0.4 0.2 -0.8 0.3 -1.1 0.3 c -0.8 0 -1.3 -0.4 -1.6 -1.1 c -0.2 -0.4 -0.2 -0.9 -0.2 -1.6 v -6.1 h -1.1 c 0 0 -0.1 0 -0.1 -0.1 c 0 0 0 0 0 -0.1 c 0 -0.1 0 -0.1 0 -0.2 c 0 0 0.1 -0.1 0.3 -0.3 c 0.5 -0.4 0.8 -0.7 1 -0.9 c 0.2 -0.2 0.7 -0.9 1.5 -1.9 c 0.1 0 0.1 0 0.2 0 c 0 0 0 0.1 0 0.2 v 2.5 H 331.1 z" stroke-linecap="round" />
</g>
		<g transform="matrix(1 0 0 1 122.15 -26.65)" id="Layer_1"  >
<path style="stroke: none; stroke-width: 1; stroke-dasharray: none; stroke-linecap: butt; stroke-dashoffset: 0; stroke-linejoin: miter; stroke-miterlimit: 4; fill: rgb(145,184,226); fill-rule: nonzero; opacity: 1;"  transform=" translate(-334.55, -26.5)" d="M 332 33.2 c 0.7 -0.1 1.2 -0.2 1.4 -0.4 c 0.2 -0.2 0.3 -0.7 0.3 -1.5 v -4.8 c 0 -0.4 0 -0.7 -0.1 -0.9 c -0.1 -0.3 -0.3 -0.4 -0.6 -0.4 c -0.1 0 -0.1 0 -0.2 0 s -0.3 0.1 -0.6 0.2 v -0.3 l 0.4 -0.1 c 1.2 -0.4 2 -0.7 2.5 -0.9 c 0.2 -0.1 0.3 -0.1 0.4 -0.1 c 0 0 0 0.1 0 0.2 v 7.3 c 0 0.8 0.1 1.3 0.3 1.4 s 0.6 0.3 1.3 0.4 v 0.3 H 332 V 33.2 z M 333.6 19.7 c 0.2 -0.2 0.5 -0.3 0.7 -0.3 c 0.3 0 0.5 0.1 0.7 0.3 c 0.2 0.2 0.3 0.5 0.3 0.8 c 0 0.3 -0.1 0.5 -0.3 0.7 c -0.2 0.2 -0.5 0.3 -0.7 0.3 c -0.3 0 -0.5 -0.1 -0.7 -0.3 c -0.2 -0.2 -0.3 -0.5 -0.3 -0.7 C 333.3 20.1 333.4 19.9 333.6 19.7 z" stroke-linecap="round" />
</g>
		<g transform="matrix(1 0 0 1 129.3 -24.25)" id="Layer_1"  >
<path style="stroke: none; stroke-width: 1; stroke-dasharray: none; stroke-linecap: butt; stroke-dashoffset: 0; stroke-linejoin: miter; stroke-miterlimit: 4; fill: rgb(145,184,226); fill-rule: nonzero; opacity: 1;"  transform=" translate(-341.7, -28.9)" d="M 338.4 25.4 c 0.9 -0.9 2 -1.4 3.3 -1.4 c 1.3 0 2.4 0.4 3.3 1.3 c 0.9 0.9 1.3 2 1.3 3.5 c 0 1.3 -0.4 2.5 -1.3 3.5 c -0.9 1 -2 1.5 -3.3 1.5 c -1.3 0 -2.4 -0.5 -3.3 -1.4 c -0.9 -1 -1.3 -2.1 -1.3 -3.6 C 337.2 27.5 337.6 26.3 338.4 25.4 z M 340.1 25.1 c -0.7 0.6 -1 1.7 -1 3.2 c 0 1.2 0.3 2.3 0.8 3.4 c 0.5 1 1.3 1.6 2.3 1.6 c 0.8 0 1.3 -0.3 1.8 -1 c 0.4 -0.7 0.6 -1.6 0.6 -2.7 c 0 -1.2 -0.3 -2.3 -0.8 -3.3 c -0.5 -1 -1.3 -1.6 -2.3 -1.6 C 340.9 24.6 340.5 24.8 340.1 25.1 z" stroke-linecap="round" />
</g>
		<g transform="matrix(1 0 0 1 139.25 -24.4)" id="Layer_1"  >
<path style="stroke: none; stroke-width: 1; stroke-dasharray: none; stroke-linecap: butt; stroke-dashoffset: 0; stroke-linejoin: miter; stroke-miterlimit: 4; fill: rgb(145,184,226); fill-rule: nonzero; opacity: 1;"  transform=" translate(-351.65, -28.75)" d="M 346.7 33.2 c 0.5 -0.1 0.8 -0.2 1 -0.4 c 0.2 -0.2 0.3 -0.6 0.3 -1.2 v -5.1 c 0 -0.4 0 -0.7 -0.1 -0.9 c -0.1 -0.3 -0.4 -0.4 -0.8 -0.4 c -0.1 0 -0.1 0 -0.2 0 c -0.1 0 -0.1 0 -0.2 0 v -0.4 c 0.3 -0.1 0.9 -0.3 2 -0.6 l 1 -0.3 c 0 0 0.1 0 0.1 0.1 c 0 0 0 0.1 0 0.1 v 1.5 c 0.6 -0.6 1.1 -1 1.5 -1.2 c 0.5 -0.3 1.1 -0.5 1.6 -0.5 c 0.5 0 0.9 0.1 1.3 0.4 c 0.7 0.5 1.1 1.4 1.1 2.7 v 4.7 c 0 0.5 0.1 0.8 0.3 1.1 s 0.5 0.3 1 0.3 v 0.3 h -4.3 v -0.3 c 0.5 -0.1 0.8 -0.2 1 -0.4 c 0.2 -0.2 0.3 -0.7 0.3 -1.3 v -4.3 c 0 -0.6 -0.1 -1.1 -0.3 -1.4 c -0.2 -0.4 -0.6 -0.6 -1.2 -0.6 c -0.4 0 -0.8 0.1 -1.2 0.4 c -0.2 0.2 -0.5 0.4 -0.9 0.8 V 32 c 0 0.5 0.1 0.8 0.3 1 c 0.2 0.2 0.6 0.3 1 0.3 v 0.3 h -4.4 V 33.2 z" stroke-linecap="round" />
</g>
		<g transform="matrix(1 0 0 1 149.39 -24.6)" id="Layer_1"  >
<path style="stroke: none; stroke-width: 1; stroke-dasharray: none; stroke-linecap: butt; stroke-dashoffset: 0; stroke-linejoin: miter; stroke-miterlimit: 4; fill: rgb(145,184,226); fill-rule: nonzero; opacity: 1;"  transform=" translate(-361.79, -28.55)" d="M 358.9 29 c 0.6 -0.4 1.9 -1 3.7 -1.7 v -0.9 c 0 -0.7 -0.1 -1.2 -0.2 -1.4 c -0.2 -0.5 -0.7 -0.7 -1.4 -0.7 c -0.3 0 -0.7 0.1 -1 0.3 c -0.3 0.2 -0.5 0.4 -0.5 0.7 c 0 0.1 0 0.2 0.1 0.4 s 0.1 0.3 0.1 0.4 c 0 0.4 -0.1 0.6 -0.4 0.8 c -0.1 0.1 -0.3 0.1 -0.5 0.1 c -0.3 0 -0.5 -0.1 -0.7 -0.3 c -0.2 -0.2 -0.2 -0.4 -0.2 -0.7 c 0 -0.5 0.3 -1 0.9 -1.5 c 0.6 -0.5 1.4 -0.8 2.6 -0.8 c 1.3 0 2.2 0.4 2.7 1.3 c 0.3 0.5 0.4 1.1 0.4 2 v 4.1 c 0 0.4 0 0.7 0.1 0.8 c 0.1 0.3 0.3 0.4 0.5 0.4 c 0.2 0 0.3 0 0.4 -0.1 c 0.1 0 0.3 -0.2 0.5 -0.3 v 0.5 c -0.2 0.3 -0.4 0.5 -0.7 0.6 c -0.4 0.3 -0.8 0.4 -1.2 0.4 c -0.5 0 -0.8 -0.1 -1 -0.4 c -0.2 -0.3 -0.3 -0.7 -0.3 -1.1 c -0.5 0.4 -1 0.8 -1.3 1 c -0.6 0.4 -1.2 0.5 -1.8 0.5 c -0.6 0 -1.1 -0.2 -1.5 -0.6 s -0.6 -0.9 -0.6 -1.6 C 357.5 30.5 357.9 29.7 358.9 29 z M 362.6 27.9 c -0.8 0.3 -1.4 0.5 -1.9 0.9 c -1 0.6 -1.5 1.3 -1.5 2 c 0 0.6 0.2 1.1 0.6 1.4 c 0.3 0.2 0.6 0.3 0.9 0.3 c 0.4 0 0.9 -0.1 1.3 -0.4 c 0.4 -0.2 0.6 -0.6 0.6 -1 V 27.9 z" stroke-linecap="round" />
</g>
		<g transform="matrix(1 0 0 1 156.4 -26.75)" id="Layer_1"  >
<path style="stroke: none; stroke-width: 1; stroke-dasharray: none; stroke-linecap: butt; stroke-dashoffset: 0; stroke-linejoin: miter; stroke-miterlimit: 4; fill: rgb(145,184,226); fill-rule: nonzero; opacity: 1;"  transform=" translate(-368.8, -26.4)" d="M 366.3 33.2 c 0.6 -0.1 1.1 -0.2 1.3 -0.4 c 0.2 -0.2 0.3 -0.6 0.3 -1.1 v -9.9 c 0 -0.4 0 -0.8 -0.1 -0.9 c -0.1 -0.3 -0.4 -0.4 -0.8 -0.4 c -0.1 0 -0.2 0 -0.3 0 c -0.1 0 -0.3 0.1 -0.4 0.1 v -0.3 c 0.9 -0.2 2 -0.6 3.3 -1 c 0 0 0.1 0 0.1 0.1 s 0 0.1 0 0.3 v 12.1 c 0 0.6 0.1 1 0.3 1.1 c 0.2 0.2 0.6 0.3 1.3 0.3 v 0.3 h -4.9 V 33.2 z" stroke-linecap="round" />
</g>
		<g transform="matrix(1 0 0 1 170.75 -26.65)" id="Layer_1"  >
<path style="stroke: none; stroke-width: 1; stroke-dasharray: none; stroke-linecap: butt; stroke-dashoffset: 0; stroke-linejoin: miter; stroke-miterlimit: 4; fill: rgb(145,184,226); fill-rule: nonzero; opacity: 1;"  transform=" translate(-383.15, -26.5)" d="M 376 33.5 v -0.4 c 0.5 -0.1 0.9 -0.3 1.2 -0.6 c 0.3 -0.3 0.7 -1.3 1.4 -2.8 l 4.3 -10.2 h 0.4 l 5.2 11.8 c 0.3 0.8 0.6 1.3 0.8 1.4 c 0.2 0.2 0.6 0.3 1 0.4 v 0.4 h -5.3 v -0.4 c 0.6 -0.1 1 -0.1 1.2 -0.2 s 0.3 -0.3 0.3 -0.6 c 0 -0.1 0 -0.3 -0.1 -0.5 c -0.1 -0.3 -0.2 -0.5 -0.3 -0.8 l -0.8 -2 h -5.5 c -0.5 1.4 -0.9 2.2 -1 2.5 c -0.1 0.3 -0.2 0.5 -0.2 0.7 c 0 0.3 0.1 0.6 0.4 0.7 c 0.2 0.1 0.5 0.1 1 0.2 v 0.4 H 376 z M 385 28.2 l -2.4 -5.7 l -2.4 5.7 H 385 z" stroke-linecap="round" />
</g>
		<g transform="matrix(1 0 0 1 181.8 -26.55)" id="Layer_1"  >
<path style="stroke: none; stroke-width: 1; stroke-dasharray: none; stroke-linecap: butt; stroke-dashoffset: 0; stroke-linejoin: miter; stroke-miterlimit: 4; fill: rgb(145,184,226); fill-rule: nonzero; opacity: 1;"  transform=" translate(-394.2, -26.6)" d="M 389.4 20.6 v -0.3 c 0.8 -0.2 1.5 -0.4 2.1 -0.6 c 0.6 -0.2 0.9 -0.3 1 -0.3 c 0 0 0 0.1 0 0.1 v 6.2 c 0.2 -0.3 0.4 -0.6 0.8 -0.9 c 0.6 -0.5 1.3 -0.8 2.1 -0.8 c 1 0 1.8 0.4 2.5 1.3 s 1.1 1.9 1.1 3.3 c 0 1.4 -0.5 2.7 -1.4 3.7 c -0.9 1 -2.1 1.5 -3.6 1.5 c -0.7 0 -1.5 -0.1 -2.2 -0.4 c -0.7 -0.3 -1.1 -0.6 -1.1 -0.9 V 21.6 c 0 -0.4 -0.1 -0.7 -0.2 -0.8 c -0.1 -0.2 -0.4 -0.2 -0.7 -0.2 L 389.4 20.6 z M 393.2 32.8 c 0.5 0.2 0.9 0.2 1.2 0.2 c 0.9 0 1.6 -0.4 2.1 -1.1 c 0.5 -0.7 0.7 -1.6 0.7 -2.6 c 0 -1 -0.2 -1.9 -0.6 -2.8 c -0.4 -0.9 -1.1 -1.3 -2.1 -1.3 c -0.5 0 -0.9 0.1 -1.4 0.4 c -0.5 0.3 -0.7 0.7 -0.7 1.1 V 32 C 392.5 32.4 392.8 32.6 393.2 32.8 z" stroke-linecap="round" />
</g>
		<g transform="matrix(1 0 0 1 191.55 -24.35)" id="Layer_1"  >
<path style="stroke: none; stroke-width: 1; stroke-dasharray: none; stroke-linecap: butt; stroke-dashoffset: 0; stroke-linejoin: miter; stroke-miterlimit: 4; fill: rgb(145,184,226); fill-rule: nonzero; opacity: 1;"  transform=" translate(-403.95, -28.8)" d="M 402.2 24.1 v 6.5 c 0 0.5 0.1 0.8 0.2 1.1 c 0.2 0.5 0.7 0.8 1.4 0.8 c 0.5 0 0.9 -0.2 1.3 -0.5 c 0.3 -0.2 0.5 -0.4 0.8 -0.7 v -5.6 c 0 -0.5 -0.1 -0.9 -0.3 -1 c -0.2 -0.2 -0.6 -0.3 -1.2 -0.3 v -0.3 h 3.3 v 7.1 c 0 0.5 0.1 0.8 0.2 0.9 c 0.2 0.2 0.5 0.2 1 0.2 v 0.3 c -0.4 0.1 -0.6 0.2 -0.8 0.2 c -0.2 0.1 -0.5 0.1 -0.9 0.3 c -0.2 0.1 -0.6 0.2 -1.2 0.4 c 0 0 -0.1 0 -0.1 0 c 0 0 0 -0.1 0 -0.1 v -1.6 c -0.5 0.5 -0.9 1 -1.3 1.2 c -0.6 0.4 -1.2 0.6 -1.8 0.6 c -0.6 0 -1.1 -0.2 -1.7 -0.6 c -0.5 -0.4 -0.8 -1.1 -0.8 -2.1 v -5.3 c 0 -0.5 -0.1 -0.9 -0.3 -1.1 c -0.1 -0.1 -0.5 -0.2 -1 -0.2 v -0.3 H 402.2 z" stroke-linecap="round" />
</g>
		<g transform="matrix(1 0 0 1 200.4 -24.3)" id="Layer_1"  >
<path style="stroke: none; stroke-width: 1; stroke-dasharray: none; stroke-linecap: butt; stroke-dashoffset: 0; stroke-linejoin: miter; stroke-miterlimit: 4; fill: rgb(145,184,226); fill-rule: nonzero; opacity: 1;"  transform=" translate(-412.8, -28.85)" d="M 409.8 30.3 h 0.3 c 0.2 0.8 0.4 1.4 0.6 1.8 c 0.5 0.8 1.2 1.1 2.1 1.1 c 0.5 0 0.9 -0.1 1.2 -0.4 c 0.3 -0.3 0.4 -0.6 0.4 -1.1 c 0 -0.3 -0.1 -0.6 -0.3 -0.8 c -0.2 -0.3 -0.5 -0.5 -0.9 -0.8 l -1.1 -0.6 c -0.8 -0.4 -1.4 -0.9 -1.8 -1.3 c -0.4 -0.5 -0.6 -1 -0.6 -1.6 c 0 -0.8 0.3 -1.4 0.8 -1.9 c 0.5 -0.5 1.2 -0.7 2 -0.7 c 0.4 0 0.8 0.1 1.2 0.2 c 0.4 0.1 0.7 0.2 0.7 0.2 c 0.1 0 0.2 0 0.3 -0.1 c 0.1 0 0.1 -0.1 0.1 -0.2 h 0.2 l 0.1 2.8 h -0.3 c -0.1 -0.7 -0.3 -1.2 -0.5 -1.5 c -0.4 -0.7 -1 -1 -1.8 -1 c -0.5 0 -0.8 0.1 -1.1 0.4 c -0.3 0.3 -0.4 0.6 -0.4 1 c 0 0.6 0.5 1.2 1.4 1.7 l 1.3 0.7 c 1.4 0.8 2.2 1.7 2.2 2.7 c 0 0.8 -0.3 1.4 -0.9 2 c -0.6 0.5 -1.4 0.8 -2.3 0.8 c -0.4 0 -0.9 -0.1 -1.4 -0.2 c -0.5 -0.1 -0.8 -0.2 -0.9 -0.2 c -0.1 0 -0.2 0 -0.2 0.1 c -0.1 0.1 -0.1 0.1 -0.1 0.2 h -0.3 V 30.3 z" stroke-linecap="round" />
</g>
		<g transform="matrix(1 0 0 1 208.35 -24.3)" id="Layer_1"  >
<path style="stroke: none; stroke-width: 1; stroke-dasharray: none; stroke-linecap: butt; stroke-dashoffset: 0; stroke-linejoin: miter; stroke-miterlimit: 4; fill: rgb(145,184,226); fill-rule: nonzero; opacity: 1;"  transform=" translate(-420.75, -28.85)" d="M 423.3 25 c 0.7 0.7 1.1 1.6 1.1 2.8 H 418 c 0.1 1.6 0.4 2.7 1.1 3.4 c 0.6 0.7 1.4 1.1 2.3 1.1 c 0.7 0 1.3 -0.2 1.8 -0.6 c 0.5 -0.4 0.9 -0.9 1.3 -1.6 l 0.4 0.1 c -0.3 0.9 -0.8 1.7 -1.6 2.4 c -0.8 0.7 -1.7 1.1 -2.8 1.1 c -1.3 0 -2.3 -0.5 -2.9 -1.4 c -0.7 -1 -1 -2.1 -1 -3.3 c 0 -1.4 0.4 -2.5 1.2 -3.5 c 0.8 -1 1.9 -1.5 3.1 -1.5 C 421.8 24 422.6 24.3 423.3 25 z M 418.5 25.8 c -0.2 0.4 -0.4 0.8 -0.5 1.4 h 4.3 c -0.1 -0.7 -0.2 -1.2 -0.4 -1.5 c -0.3 -0.6 -0.9 -0.9 -1.7 -0.9 C 419.5 24.7 418.9 25.1 418.5 25.8 z" stroke-linecap="round" />
</g>
		<g transform="matrix(1 0 0 1 -7.65 4.05)" id="Layer_1"  >
<path style="stroke: none; stroke-width: 1; stroke-dasharray: none; stroke-linecap: butt; stroke-dashoffset: 0; stroke-linejoin: miter; stroke-miterlimit: 4; fill: rgb(69,120,187); fill-rule: nonzero; opacity: 1;"  transform=" translate(-204.75, -57.2)" d="M 191.6 70.1 c 1.6 -0.1 2.6 -0.5 3 -0.9 c 0.4 -0.5 0.6 -1.6 0.6 -3.3 V 48.1 c 0 -1.5 -0.2 -2.4 -0.7 -2.9 c -0.4 -0.5 -1.4 -0.7 -2.9 -0.9 v -0.8 H 203 c 2.4 0 4.4 0.3 5.9 0.9 c 3 1.1 4.5 3.2 4.5 6.3 c 0 2.1 -0.7 3.6 -2 4.7 c -1.3 1.1 -3.2 1.8 -5.5 2.2 l 8.5 10.5 c 0.5 0.6 1 1.1 1.6 1.4 c 0.5 0.3 1.2 0.5 2 0.6 v 0.8 h -6.6 l -10.3 -12.7 l -1.8 0.1 v 8.1 c 0 1.5 0.2 2.5 0.7 2.9 c 0.5 0.4 1.5 0.7 3 0.8 v 0.8 h -11.5 V 70.1 z M 205.7 55.8 c 2.2 -0.9 3.3 -2.6 3.3 -5.1 c 0 -2.4 -1 -4 -2.9 -4.9 c -1 -0.5 -2.4 -0.7 -4.2 -0.7 c -1.2 0 -1.9 0.1 -2.1 0.3 c -0.3 0.2 -0.4 0.6 -0.4 1.2 v 10.2 C 202.3 56.6 204.4 56.3 205.7 55.8 z" stroke-linecap="round" />
</g>
		<g transform="matrix(1 0 0 1 13.85 8.55)" id="Layer_1"  >
<path style="stroke: none; stroke-width: 1; stroke-dasharray: none; stroke-linecap: butt; stroke-dashoffset: 0; stroke-linejoin: miter; stroke-miterlimit: 4; fill: rgb(69,120,187); fill-rule: nonzero; opacity: 1;"  transform=" translate(-226.25, -61.7)" d="M 231.7 54 c 1.4 1.3 2.1 3.2 2.1 5.6 h -12.8 c 0.1 3.1 0.8 5.4 2.1 6.8 c 1.3 1.4 2.8 2.1 4.5 2.1 c 1.4 0 2.6 -0.4 3.6 -1.1 c 1 -0.7 1.9 -1.8 2.7 -3.1 l 0.7 0.2 c -0.6 1.7 -1.6 3.3 -3.1 4.7 c -1.5 1.5 -3.4 2.2 -5.6 2.2 c -2.5 0 -4.5 -1 -5.9 -2.9 c -1.4 -1.9 -2.1 -4.1 -2.1 -6.6 c 0 -2.7 0.8 -5 2.4 -7 c 1.6 -2 3.7 -2.9 6.2 -2.9 C 228.7 52 230.3 52.7 231.7 54 z M 222.1 55.5 c -0.4 0.7 -0.7 1.6 -0.9 2.7 h 8.5 c -0.1 -1.3 -0.4 -2.3 -0.8 -3 c -0.7 -1.2 -1.8 -1.8 -3.3 -1.8 C 224.1 53.5 222.9 54.1 222.1 55.5 z" stroke-linecap="round" />
</g>
		<g transform="matrix(1 0 0 1 33.95 3.8)" id="Layer_1"  >
<path style="stroke: none; stroke-width: 1; stroke-dasharray: none; stroke-linecap: butt; stroke-dashoffset: 0; stroke-linejoin: miter; stroke-miterlimit: 4; fill: rgb(69,120,187); fill-rule: nonzero; opacity: 1;"  transform=" translate(-246.35, -56.95)" d="M 248.1 52.5 c 0.5 0.3 1.1 0.7 1.6 1.2 v -6.4 c 0 -0.8 -0.1 -1.4 -0.3 -1.7 c -0.2 -0.3 -0.6 -0.5 -1.3 -0.5 c -0.2 0 -0.3 0 -0.4 0 c -0.1 0 -0.4 0 -0.8 0.1 v -0.7 l 1.7 -0.4 c 0.6 -0.2 1.2 -0.3 1.8 -0.5 c 0.6 -0.2 1.1 -0.3 1.6 -0.5 c 0.2 -0.1 0.6 -0.2 1.1 -0.4 l 0.1 0 l 0 2.1 c 0 0.8 0 1.6 0 2.4 c 0 0.8 0 1.6 0 2.4 l 0 16.5 c 0 0.9 0.1 1.5 0.3 1.8 c 0.2 0.3 0.8 0.5 1.7 0.5 c 0.1 0 0.3 0 0.4 0 c 0.1 0 0.3 0 0.4 -0.1 v 0.7 c -0.1 0 -1.1 0.4 -2.9 1 l -3.2 1.2 l -0.1 -0.2 v -2.5 c -0.8 0.8 -1.4 1.4 -2 1.8 c -1 0.6 -2.1 0.9 -3.4 0.9 c -2.3 0 -4.1 -0.9 -5.6 -2.7 c -1.4 -1.8 -2.1 -3.8 -2.1 -6.1 c 0 -2.9 0.9 -5.4 2.6 -7.5 c 1.7 -2.1 3.8 -3.1 6.2 -3.1 C 246.4 51.9 247.3 52.1 248.1 52.5 z M 248.7 68.2 c 0.6 -0.6 1 -1.2 1 -1.8 v -8.6 c 0 -1.7 -0.5 -3 -1.4 -3.7 c -0.9 -0.7 -1.8 -1.1 -2.7 -1.1 c -1.7 0 -3 0.7 -4 2.2 s -1.4 3.3 -1.4 5.5 c 0 2.2 0.5 4.1 1.5 5.8 s 2.5 2.5 4.5 2.5 C 247.2 69.1 248.1 68.8 248.7 68.2 z" stroke-linecap="round" />
</g>
		<g transform="matrix(1 0 0 1 51 8)" id="Layer_1"  >
<path style="stroke: none; stroke-width: 1; stroke-dasharray: none; stroke-linecap: butt; stroke-dashoffset: 0; stroke-linejoin: miter; stroke-miterlimit: 4; fill: rgb(69,120,187); fill-rule: nonzero; opacity: 1;"  transform=" translate(-263.4, -61.15)" d="M 256.5 70.2 c 1.2 -0.1 2.1 -0.3 2.5 -0.7 c 0.4 -0.3 0.6 -1 0.6 -2.1 v -9.1 c 0 -1.3 -0.1 -2.3 -0.4 -2.9 c -0.2 -0.6 -0.7 -0.9 -1.4 -0.9 c -0.1 0 -0.3 0 -0.5 0.1 c -0.2 0 -0.5 0.1 -0.7 0.1 v -0.7 c 0.8 -0.3 1.5 -0.5 2.4 -0.8 c 0.8 -0.3 1.4 -0.5 1.7 -0.6 c 0.7 -0.3 1.4 -0.5 2.1 -0.9 c 0.1 0 0.2 0 0.2 0.1 c 0 0.1 0 0.2 0 0.4 v 3.3 c 0.9 -1.2 1.7 -2.1 2.5 -2.8 c 0.8 -0.7 1.6 -1 2.5 -1 c 0.7 0 1.2 0.2 1.7 0.6 c 0.4 0.4 0.6 0.9 0.6 1.5 c 0 0.6 -0.2 1 -0.5 1.4 c -0.3 0.4 -0.7 0.6 -1.2 0.6 c -0.5 0 -1 -0.2 -1.5 -0.7 c -0.5 -0.5 -0.9 -0.7 -1.2 -0.7 c -0.5 0 -1 0.4 -1.7 1.1 c -0.7 0.8 -1 1.5 -1 2.3 v 9.1 c 0 1.2 0.3 2 0.8 2.4 c 0.5 0.5 1.4 0.7 2.7 0.6 v 0.7 h -9.9 V 70.2 z" stroke-linecap="round" />
</g>
		<g transform="matrix(1 0 0 1 66.65 8.55)" id="Layer_1"  >
<path style="stroke: none; stroke-width: 1; stroke-dasharray: none; stroke-linecap: butt; stroke-dashoffset: 0; stroke-linejoin: miter; stroke-miterlimit: 4; fill: rgb(69,120,187); fill-rule: nonzero; opacity: 1;"  transform=" translate(-279.05, -61.7)" d="M 284.5 54 c 1.4 1.3 2.1 3.2 2.1 5.6 h -12.8 c 0.1 3.1 0.8 5.4 2.1 6.8 c 1.3 1.4 2.8 2.1 4.5 2.1 c 1.4 0 2.6 -0.4 3.6 -1.1 c 1 -0.7 1.9 -1.8 2.7 -3.1 l 0.7 0.2 c -0.6 1.7 -1.6 3.3 -3.1 4.7 c -1.5 1.5 -3.4 2.2 -5.6 2.2 c -2.5 0 -4.5 -1 -5.9 -2.9 c -1.4 -1.9 -2.1 -4.1 -2.1 -6.6 c 0 -2.7 0.8 -5 2.4 -7 c 1.6 -2 3.7 -2.9 6.2 -2.9 C 281.4 52 283 52.7 284.5 54 z M 274.8 55.5 c -0.4 0.7 -0.7 1.6 -0.9 2.7 h 8.5 c -0.1 -1.3 -0.4 -2.3 -0.8 -3 c -0.7 -1.2 -1.8 -1.8 -3.3 -1.8 C 276.8 53.5 275.6 54.1 274.8 55.5 z" stroke-linecap="round" />
</g>
		<g transform="matrix(1 0 0 1 82.75 8.45)" id="Layer_1"  >
<path style="stroke: none; stroke-width: 1; stroke-dasharray: none; stroke-linecap: butt; stroke-dashoffset: 0; stroke-linejoin: miter; stroke-miterlimit: 4; fill: rgb(69,120,187); fill-rule: nonzero; opacity: 1;"  transform=" translate(-295.15, -61.6)" d="M 289.1 64.6 h 0.7 c 0.3 1.5 0.7 2.7 1.2 3.5 c 0.9 1.5 2.3 2.3 4.1 2.3 c 1 0 1.8 -0.3 2.4 -0.8 c 0.6 -0.6 0.9 -1.3 0.9 -2.2 c 0 -0.6 -0.2 -1.1 -0.5 -1.6 c -0.3 -0.5 -0.9 -1 -1.8 -1.5 l -2.3 -1.3 c -1.7 -0.9 -2.9 -1.8 -3.6 -2.7 c -0.8 -0.9 -1.2 -2 -1.2 -3.2 c 0 -1.5 0.5 -2.7 1.6 -3.7 c 1.1 -1 2.4 -1.5 4.1 -1.5 c 0.7 0 1.5 0.1 2.3 0.4 c 0.9 0.3 1.3 0.4 1.4 0.4 c 0.2 0 0.4 0 0.5 -0.1 c 0.1 -0.1 0.2 -0.2 0.3 -0.3 h 0.5 l 0.1 5.6 h -0.6 c -0.3 -1.3 -0.6 -2.3 -1.1 -3 c -0.8 -1.3 -2 -2 -3.6 -2 c -0.9 0 -1.7 0.3 -2.2 0.9 c -0.5 0.6 -0.8 1.3 -0.8 2 c 0 1.2 0.9 2.3 2.8 3.3 l 2.7 1.4 c 2.9 1.6 4.3 3.4 4.3 5.4 c 0 1.6 -0.6 2.9 -1.8 3.9 c -1.2 1 -2.7 1.5 -4.7 1.5 c -0.8 0 -1.7 -0.1 -2.7 -0.4 c -1 -0.3 -1.6 -0.4 -1.8 -0.4 c -0.2 0 -0.3 0.1 -0.4 0.2 c -0.1 0.1 -0.2 0.3 -0.3 0.4 h -0.5 V 64.6 z" stroke-linecap="round" />
</g>
		<g transform="matrix(1 0 0 1 97.5 8.45)" id="Layer_1"  >
<path style="stroke: none; stroke-width: 1; stroke-dasharray: none; stroke-linecap: butt; stroke-dashoffset: 0; stroke-linejoin: miter; stroke-miterlimit: 4; fill: rgb(69,120,187); fill-rule: nonzero; opacity: 1;"  transform=" translate(-309.9, -61.6)" d="M 303.8 64.6 h 0.7 c 0.3 1.5 0.7 2.7 1.2 3.5 c 0.9 1.5 2.3 2.3 4.1 2.3 c 1 0 1.8 -0.3 2.4 -0.8 c 0.6 -0.6 0.9 -1.3 0.9 -2.2 c 0 -0.6 -0.2 -1.1 -0.5 -1.6 c -0.3 -0.5 -0.9 -1 -1.8 -1.5 l -2.3 -1.3 c -1.7 -0.9 -2.9 -1.8 -3.6 -2.7 c -0.8 -0.9 -1.2 -2 -1.2 -3.2 c 0 -1.5 0.5 -2.7 1.6 -3.7 c 1.1 -1 2.4 -1.5 4.1 -1.5 c 0.7 0 1.5 0.1 2.3 0.4 c 0.9 0.3 1.3 0.4 1.4 0.4 c 0.2 0 0.4 0 0.5 -0.1 c 0.1 -0.1 0.2 -0.2 0.3 -0.3 h 0.5 l 0.1 5.6 H 314 c -0.3 -1.3 -0.6 -2.3 -1.1 -3 c -0.8 -1.3 -2 -2 -3.6 -2 c -0.9 0 -1.7 0.3 -2.2 0.9 c -0.5 0.6 -0.8 1.3 -0.8 2 c 0 1.2 0.9 2.3 2.8 3.3 l 2.7 1.4 c 2.9 1.6 4.3 3.4 4.3 5.4 c 0 1.6 -0.6 2.9 -1.8 3.9 c -1.2 1 -2.7 1.5 -4.7 1.5 c -0.8 0 -1.7 -0.1 -2.7 -0.4 c -1 -0.3 -1.6 -0.4 -1.8 -0.4 c -0.2 0 -0.3 0.1 -0.4 0.2 c -0.1 0.1 -0.2 0.3 -0.3 0.4 h -0.5 V 64.6 z" stroke-linecap="round" />
</g>
		<g transform="matrix(1 0 0 1 128.35 4.05)" id="Layer_1"  >
<path style="stroke: none; stroke-width: 1; stroke-dasharray: none; stroke-linecap: butt; stroke-dashoffset: 0; stroke-linejoin: miter; stroke-miterlimit: 4; fill: rgb(69,120,187); fill-rule: nonzero; opacity: 1;"  transform=" translate(-340.75, -57.2)" d="M 328.8 70.1 c 1.7 -0.1 2.7 -0.4 3.2 -0.8 c 0.5 -0.4 0.7 -1.4 0.7 -2.9 V 48.1 c 0 -1.5 -0.2 -2.5 -0.7 -2.9 c -0.5 -0.4 -1.6 -0.7 -3.2 -0.8 v -0.8 h 11.6 c 3.3 0 5.9 0.5 7.9 1.6 c 1.9 1.1 2.9 2.9 2.9 5.5 c 0 2 -0.7 3.4 -2 4.4 c -0.8 0.6 -1.9 1.1 -3.4 1.4 c 1.9 0.5 3.5 1.2 4.9 2.3 c 1.3 1.1 2 2.6 2 4.5 c 0 3.2 -1.5 5.4 -4.5 6.6 c -1.6 0.6 -3.5 0.9 -5.8 0.9 h -13.5 V 70.1 z M 344.3 55.2 c 1.7 -0.8 2.6 -2.3 2.6 -4.3 c 0 -2.5 -1 -4.1 -3 -5 c -1.1 -0.5 -2.8 -0.7 -5.1 -0.7 c -0.9 0 -1.4 0.1 -1.6 0.2 c -0.2 0.1 -0.3 0.6 -0.3 1.2 v 9.3 l 3.9 -0.1 C 342.2 55.8 343.4 55.6 344.3 55.2 z M 345.6 68.2 c 1.4 -0.8 2.1 -2.4 2.1 -4.7 c 0 -2.3 -0.8 -3.9 -2.5 -4.7 c -1.7 -0.8 -3.8 -1.3 -6.4 -1.3 c -0.6 0 -1 0 -1.2 0 c -0.2 0 -0.4 0 -0.8 0 v 10.3 c 0 0.7 0.2 1.2 0.6 1.4 c 0.4 0.2 1.3 0.3 2.8 0.3 C 342.4 69.4 344.2 69 345.6 68.2 z" stroke-linecap="round" />
</g>
		<g transform="matrix(1 0 0 1 152 8.65)" id="Layer_1"  >
<path style="stroke: none; stroke-width: 1; stroke-dasharray: none; stroke-linecap: butt; stroke-dashoffset: 0; stroke-linejoin: miter; stroke-miterlimit: 4; fill: rgb(69,120,187); fill-rule: nonzero; opacity: 1;"  transform=" translate(-364.4, -61.8)" d="M 357.8 54.8 c 1.7 -1.8 3.9 -2.8 6.6 -2.8 c 2.7 0 4.9 0.9 6.6 2.6 c 1.7 1.7 2.6 4.1 2.6 7 c 0 2.7 -0.8 5 -2.5 7 c -1.7 2 -3.9 3 -6.6 3 c -2.6 0 -4.8 -0.9 -6.6 -2.8 c -1.8 -1.9 -2.7 -4.3 -2.7 -7.1 C 355.3 58.9 356.1 56.6 357.8 54.8 z M 361 54.3 c -1.3 1.2 -2 3.3 -2 6.3 c 0 2.4 0.5 4.6 1.6 6.7 c 1.1 2.1 2.6 3.1 4.5 3.1 c 1.5 0 2.7 -0.7 3.5 -2.1 c 0.8 -1.4 1.2 -3.2 1.2 -5.4 c 0 -2.3 -0.5 -4.5 -1.6 -6.6 c -1 -2.1 -2.5 -3.1 -4.5 -3.1 C 362.7 53.2 361.8 53.6 361 54.3 z" stroke-linecap="round" />
</g>
		<g transform="matrix(1 0 0 1 170.9 8.3)" id="Layer_1"  >
<path style="stroke: none; stroke-width: 1; stroke-dasharray: none; stroke-linecap: butt; stroke-dashoffset: 0; stroke-linejoin: miter; stroke-miterlimit: 4; fill: rgb(69,120,187); fill-rule: nonzero; opacity: 1;"  transform=" translate(-383.3, -61.45)" d="M 377.9 62 c 1.2 -0.8 3.7 -1.9 7.4 -3.3 V 57 c 0 -1.4 -0.1 -2.3 -0.4 -2.9 c -0.5 -0.9 -1.4 -1.4 -2.8 -1.4 c -0.7 0 -1.3 0.2 -2 0.5 c -0.6 0.4 -0.9 0.9 -0.9 1.5 c 0 0.2 0 0.4 0.1 0.8 c 0.1 0.4 0.1 0.6 0.1 0.7 c 0 0.8 -0.2 1.3 -0.7 1.6 c -0.3 0.2 -0.6 0.3 -1 0.3 c -0.6 0 -1.1 -0.2 -1.4 -0.6 c -0.3 -0.4 -0.5 -0.8 -0.5 -1.3 c 0 -0.9 0.6 -1.9 1.7 -3 c 1.2 -1 2.9 -1.5 5.1 -1.5 c 2.6 0 4.4 0.8 5.3 2.5 c 0.5 0.9 0.7 2.3 0.7 4.1 v 8.1 c 0 0.8 0.1 1.3 0.2 1.6 c 0.2 0.5 0.5 0.8 1.1 0.8 c 0.3 0 0.6 0 0.8 -0.1 c 0.2 -0.1 0.6 -0.3 1 -0.7 v 1 c -0.4 0.5 -0.9 1 -1.4 1.3 c -0.8 0.5 -1.5 0.8 -2.3 0.8 c -0.9 0 -1.6 -0.3 -2 -0.9 c -0.4 -0.6 -0.6 -1.3 -0.7 -2.1 c -1 0.9 -1.9 1.5 -2.6 2 c -1.2 0.7 -2.4 1.1 -3.5 1.1 c -1.2 0 -2.2 -0.4 -3 -1.2 c -0.8 -0.8 -1.3 -1.8 -1.3 -3.1 C 375 64.9 376 63.3 377.9 62 z M 385.3 59.7 c -1.5 0.5 -2.8 1.1 -3.8 1.7 c -1.9 1.2 -2.9 2.6 -2.9 4.1 c 0 1.2 0.4 2.1 1.2 2.7 c 0.5 0.4 1.1 0.6 1.8 0.6 c 0.9 0 1.7 -0.2 2.5 -0.7 c 0.8 -0.5 1.2 -1.1 1.2 -1.9 V 59.7 z" stroke-linecap="round" />
</g>
		<g transform="matrix(1 0 0 1 186.5 8)" id="Layer_1"  >
<path style="stroke: none; stroke-width: 1; stroke-dasharray: none; stroke-linecap: butt; stroke-dashoffset: 0; stroke-linejoin: miter; stroke-miterlimit: 4; fill: rgb(69,120,187); fill-rule: nonzero; opacity: 1;"  transform=" translate(-398.9, -61.15)" d="M 392 70.2 c 1.2 -0.1 2.1 -0.3 2.5 -0.7 c 0.4 -0.3 0.6 -1 0.6 -2.1 v -9.1 c 0 -1.3 -0.1 -2.3 -0.4 -2.9 c -0.2 -0.6 -0.7 -0.9 -1.4 -0.9 c -0.1 0 -0.3 0 -0.5 0.1 c -0.2 0 -0.5 0.1 -0.7 0.1 v -0.7 c 0.8 -0.3 1.5 -0.5 2.4 -0.8 c 0.8 -0.3 1.4 -0.5 1.7 -0.6 c 0.7 -0.3 1.4 -0.5 2.1 -0.9 c 0.1 0 0.2 0 0.2 0.1 c 0 0.1 0 0.2 0 0.4 v 3.3 c 0.9 -1.2 1.7 -2.1 2.5 -2.8 c 0.8 -0.7 1.6 -1 2.5 -1 c 0.7 0 1.2 0.2 1.7 0.6 c 0.4 0.4 0.6 0.9 0.6 1.5 c 0 0.6 -0.2 1 -0.5 1.4 c -0.3 0.4 -0.7 0.6 -1.2 0.6 c -0.5 0 -1 -0.2 -1.5 -0.7 c -0.5 -0.5 -0.9 -0.7 -1.2 -0.7 c -0.5 0 -1 0.4 -1.7 1.1 c -0.7 0.8 -1 1.5 -1 2.3 v 9.1 c 0 1.2 0.3 2 0.8 2.4 c 0.5 0.5 1.4 0.7 2.7 0.6 v 0.7 H 392 V 70.2 z" stroke-linecap="round" />
</g>
		<g transform="matrix(1 0 0 1 202.55 3.8)" id="Layer_1"  >
<path style="stroke: none; stroke-width: 1; stroke-dasharray: none; stroke-linecap: butt; stroke-dashoffset: 0; stroke-linejoin: miter; stroke-miterlimit: 4; fill: rgb(69,120,187); fill-rule: nonzero; opacity: 1;"  transform=" translate(-414.95, -56.95)" d="M 416.7 52.5 c 0.5 0.3 1.1 0.7 1.6 1.2 v -6.4 c 0 -0.8 -0.1 -1.4 -0.3 -1.7 c -0.2 -0.3 -0.6 -0.5 -1.3 -0.5 c -0.2 0 -0.3 0 -0.4 0 c -0.1 0 -0.4 0 -0.8 0.1 v -0.7 l 1.7 -0.4 c 0.6 -0.2 1.2 -0.3 1.8 -0.5 c 0.6 -0.2 1.1 -0.3 1.6 -0.5 c 0.2 -0.1 0.6 -0.2 1.1 -0.4 l 0.1 0 l 0 2.1 c 0 0.8 0 1.6 0 2.4 c 0 0.8 0 1.6 0 2.4 l 0 16.5 c 0 0.9 0.1 1.5 0.3 1.8 c 0.2 0.3 0.8 0.5 1.7 0.5 c 0.1 0 0.3 0 0.4 0 c 0.1 0 0.3 0 0.4 -0.1 v 0.7 c -0.1 0 -1.1 0.4 -2.9 1 l -3.2 1.2 l -0.1 -0.2 v -2.5 c -0.8 0.8 -1.4 1.4 -2 1.8 c -1 0.6 -2.1 0.9 -3.4 0.9 c -2.3 0 -4.1 -0.9 -5.6 -2.7 s -2.1 -3.8 -2.1 -6.1 c 0 -2.9 0.9 -5.4 2.6 -7.5 c 1.7 -2.1 3.8 -3.1 6.2 -3.1 C 415 51.9 415.9 52.1 416.7 52.5 z M 417.3 68.2 c 0.6 -0.6 1 -1.2 1 -1.8 v -8.6 c 0 -1.7 -0.5 -3 -1.4 -3.7 c -0.9 -0.7 -1.8 -1.1 -2.7 -1.1 c -1.7 0 -3 0.7 -4 2.2 c -0.9 1.5 -1.4 3.3 -1.4 5.5 c 0 2.2 0.5 4.1 1.5 5.8 c 1 1.7 2.5 2.5 4.5 2.5 C 415.8 69.1 416.6 68.8 417.3 68.2 z" stroke-linecap="round" />
</g>
</g>
</g>
</svg>