<?xml version="1.0" encoding="utf-8"?>
<!-- Generator: Adobe Illustrator 25.2.3, SVG Export Plug-In . SVG Version: 6.00 Build 0)  -->
<svg version="1.1" id="Layer_1" xmlns="http://www.w3.org/2000/svg" xmlns:xlink="http://www.w3.org/1999/xlink" x="0px" y="0px"
	 viewBox="0 0 250 250" style="enable-background:new 0 0 250 250;" xml:space="preserve">
<style type="text/css">
	.st0{display:none;fill:#020203;}
	.st1{fill:#020203;}
	.st2{fill:none;stroke:#020203;stroke-width:3;stroke-miterlimit:10;}
	.st3{fill:none;stroke:#020203;stroke-width:2.25;stroke-miterlimit:10;}
</style>
<path class="st0" d="M295.9,111.1V34.2h14.5c11.8,18,37.6,56.2,42.3,64.6h0.2c-0.8-9.9-0.7-22-0.7-34.6v-30h10.3v76.9h-13.6
	c-10.9-16.7-37.8-57.8-43-66.5h-0.2c0.6,8.7,0.6,21.8,0.6,35.7v30.8L295.9,111.1L295.9,111.1z"/>
<path class="st0" d="M382.2,34.2v76.9h-11V34.2H382.2z"/>
<path class="st0" d="M473.1,88.5c-3.7,13-14.1,22.8-32.9,22.8c-24.7,0-37.2-17.5-37.2-39.2s12.5-39.8,37.6-39.8
	c19.5,0,30,10.4,32.5,23.2h-11c-3-8.4-8.9-14.7-22-14.7c-18.2,0-25.7,15.4-25.7,31s7.1,31,26.1,31c12.7,0,18.3-6.8,21.4-14.3
	L473.1,88.5L473.1,88.5z"/>
<path class="st0" d="M491.6,55.1c9.7,26.8,15.1,41.7,16.7,47.4h0.1c2-6.3,6.2-19.2,16.1-47.4H535l-21.6,58.6
	c-6.1,16.4-10.6,20.6-23,20.6c-1.9,0-4.1-0.1-6.5-0.4v-8.4c1.5,0.2,3.3,0.3,5,0.3c7.6,0,10.5-3.1,14.1-12.5l-22.6-58.2
	C480.4,55.1,491.6,55.1,491.6,55.1z"/>
<path class="st0" d="M544.1,30h10.4V63c2.7-4.8,8.2-9.3,19.2-9.3c15.1,0,24.6,11.6,24.6,28.2s-9.2,30.5-26.2,30.5
	c-9.6,0-14.7-3.3-17.7-8.7c0,2.9-0.2,5.9-0.4,7.4h-10c0.1-6.3,0.1-12.6,0.1-18.8L544.1,30L544.1,30z M587.6,82.1
	c0-12.1-5.9-20.2-16.4-20.2c-12.8,0-17.3,8-17.3,21.3c0,11.7,4,21,16.8,21C581.4,104.2,587.6,95.8,587.6,82.1L587.6,82.1z"/>
<path class="st0" d="M618.8,84.9c0.1,11.4,6.2,19.5,16.4,19.5c9.5,0,12.6-4.6,14.5-8.7h10.5c-2.4,7.2-8.8,16.8-25.3,16.8
	c-18.9,0-26.7-14.3-26.7-28.7c0-16.7,9-29.9,27.3-29.9c19.4,0,25.8,14.5,25.8,26.5c0,1.7,0,3.1-0.2,4.6L618.8,84.9L618.8,84.9z
	 M650.9,78.1c-0.1-9.2-5.1-16.6-15.4-16.6s-15.3,6.9-16.3,16.6H650.9L650.9,78.1z"/>
<path class="st0" d="M668.4,70.7c0-7.8-0.1-12.2-0.1-15.2h10.2c0.2,1.6,0.3,6,0.3,11.4c3.2-7.6,10.3-12.5,20.3-12.8v9.7
	c-12.3,0.3-20.3,6.3-20.3,20.5v27.2h-10.4L668.4,70.7L668.4,70.7z"/>
<path class="st0" d="M305.1,196.2c2.2,9.2,9,14.2,21,14.2c12.9,0,18-5.6,18-12.9c0-7.7-4.1-12-20.6-15.8
	c-19.5-4.4-26.2-10.6-26.2-21.4c0-11.4,9.1-20.7,27.5-20.7c19.7,0,27.8,10.6,28.9,20.7h-11.2c-1.5-6.9-6.1-12.5-18.1-12.5
	c-10.1,0-15.7,4.2-15.7,11.6c0,7.3,4.7,10.1,19.1,13.3c23.6,5.3,27.7,13.9,27.7,23.7c0,12.4-9.9,22.1-30.1,22.1
	c-20.2,0-29.7-10.6-31.4-22.4L305.1,196.2L305.1,196.2z"/>
<path class="st0" d="M374.5,191.1c0.1,11.4,6.2,19.5,16.4,19.5c9.5,0,12.6-4.6,14.5-8.7H416c-2.4,7.2-8.8,16.8-25.3,16.8
	c-18.9,0-26.7-14.3-26.7-28.8c0-16.7,9-29.9,27.3-29.9c19.4,0,25.8,14.5,25.8,26.5c0,1.7,0,3.1-0.2,4.6L374.5,191.1L374.5,191.1z
	 M406.6,184.3c-0.1-9.2-5.1-16.6-15.4-16.6s-15.2,6.9-16.3,16.6H406.6L406.6,184.3z"/>
<path class="st0" d="M477.7,200.2c-2.5,9.7-9.6,18.5-24.9,18.5c-16.6,0-26.8-11.1-26.8-29c0-15.8,9.6-29.6,27.6-29.6
	c17.9,0,23.4,11.5,24.1,18.8h-10.3c-1.5-5.7-5.3-10.6-14-10.6c-10.6,0-16.7,8.5-16.7,21.2s5.8,21.3,16.3,21.3
	c7.5,0,11.9-3.7,14.4-10.4L477.7,200.2L477.7,200.2z"/>
<path class="st0" d="M536.2,202.1c0,5.5,0.1,13,0.1,16.3h-10.1c-0.2-1.5-0.4-4.9-0.4-8.4c-3,6.2-8.8,9.7-18.2,9.7
	c-10.1,0-19.9-4.7-19.9-20.5v-36.8H498v34.8c0,7.4,2.5,14.1,12.5,14.1c11.1,0,15.3-5.7,15.3-19.7v-29.2h10.4V202.1L536.2,202.1z"/>
<path class="st0" d="M547.2,177.6c0-7.8-0.1-12.2-0.1-15.2h10.2c0.2,1.6,0.3,6,0.3,11.4c3.2-7.6,10.3-12.5,20.3-12.8v9.7
	c-12.3,0.3-20.3,6.3-20.3,20.5v27.2h-10.4L547.2,177.6L547.2,177.6z"/>
<path class="st0" d="M588.2,140.5h10.4v12.1h-10.4C588.2,152.5,588.2,140.5,588.2,140.5z M588.2,162.4h10.4v56h-10.4V162.4z"/>
<path class="st0" d="M604,161.6h10.4v-16.5h10.4v16.5h13.3v7.9h-13.3v32.8c0,5.4,1.4,8.2,6.9,8.2c1.5,0,3.6-0.1,5.3-0.5v7.3
	c-2.6,0.9-6.1,1-9,1c-9.4,0-13.5-4.5-13.5-13.8v-35.1H604L604,161.6L604,161.6z"/>
<path class="st0" d="M654.2,162.4c9.7,26.8,15.1,41.7,16.7,47.4h0.1c2-6.3,6.2-19.2,16.1-47.4h10.5L676,221
	c-6.1,16.4-10.6,20.6-23,20.6c-1.9,0-4.1-0.1-6.5-0.4v-8.4c1.5,0.2,3.3,0.3,5,0.3c7.6,0,10.5-3.1,14.1-12.5L643,162.4
	C643,162.4,654.2,162.4,654.2,162.4z"/>
<path class="st0" d="M789.7,195.8c-3.7,13-14.1,22.8-32.9,22.8c-24.7,0-37.2-17.5-37.2-39.2s12.5-39.8,37.6-39.8
	c19.5,0,30,10.4,32.5,23.2h-11c-3-8.4-8.9-14.7-22-14.7c-18.2,0-25.7,15.4-25.7,31s7.1,31,26.1,31c12.7,0,18.3-6.8,21.4-14.3
	L789.7,195.8L789.7,195.8z"/>
<path class="st0" d="M811.2,190.9c0.1,11.4,6.2,19.5,16.4,19.5c9.5,0,12.6-4.6,14.5-8.7h10.5c-2.4,7.2-8.8,16.8-25.3,16.8
	c-18.9,0-26.7-14.3-26.7-28.8c0-16.7,9-29.9,27.3-29.9c19.4,0,25.8,14.5,25.8,26.5c0,1.7,0,3.1-0.2,4.6L811.2,190.9L811.2,190.9z
	 M843.2,184.1c-0.1-9.2-5.1-16.6-15.4-16.6c-10.3,0-15.3,6.9-16.3,16.6H843.2L843.2,184.1z"/>
<path class="st0" d="M864.2,176.5c0-4.9,0-9.8-0.1-14.1h10.1c0.3,1.6,0.4,7.5,0.4,9.2c2.4-4.8,7.3-10.5,19-10.5
	c11.6,0,20.1,6.4,20.1,21.3v36.1h-10.4v-34.8c0-8.5-3.6-14.2-12.8-14.2c-11.4,0-15.9,8.1-15.9,19.3v29.7h-10.4L864.2,176.5
	L864.2,176.5z"/>
<path class="st0" d="M917.2,161.6h10.4v-16.5H938v16.5h13.3v7.9H938v32.8c0,5.4,1.4,8.2,6.9,8.2c1.5,0,3.6-0.1,5.3-0.5v7.3
	c-2.6,0.9-6.1,1-9,1c-9.4,0-13.5-4.5-13.5-13.8v-35.1h-10.4L917.2,161.6L917.2,161.6z"/>
<path class="st0" d="M961.9,176.8c0-7.8-0.1-12.2-0.1-15.2h10.2c0.2,1.6,0.3,6,0.3,11.4c3.2-7.6,10.3-12.5,20.3-12.8v9.7
	c-12.3,0.3-20.3,6.3-20.3,20.5v27.2h-10.4L961.9,176.8L961.9,176.8z"/>
<path class="st0" d="M1004.5,190.9c0.1,11.4,6.2,19.5,16.4,19.5c9.5,0,12.6-4.6,14.5-8.7h10.5c-2.4,7.2-8.8,16.8-25.3,16.8
	c-18.9,0-26.7-14.3-26.7-28.8c0-16.7,9-29.9,27.3-29.9c19.4,0,25.8,14.5,25.8,26.5c0,1.7,0,3.1-0.2,4.6L1004.5,190.9L1004.5,190.9z
	 M1036.5,184.1c-0.1-9.2-5.1-16.6-15.4-16.6s-15.3,6.9-16.3,16.6H1036.5L1036.5,184.1z"/>
<path class="st1" d="M129.7,77.3c-26.2,0-47.5,19.8-47.5,44.2s21.3,44.2,47.5,44.2s47.5-19.8,47.5-44.2S155.9,77.3,129.7,77.3z
	 M123.4,138l5-17.7c-4.7-4.3-3.7-10.3-3.7-10.3c1.8-5.2,6.9-4.7,6.9-4.7c5.2-0.4,7.1,4.3,7.1,4.3c2.2,3.9-3.6,10.4-3.6,10.4
	l4.5,18.5C129.1,142.7,123.4,138.1,123.4,138L123.4,138z"/>
<path class="st2" d="M229.7,47.3C184.9-3.8,127.1,3.9,127.1,3.9C48.3,4.7,17,63,17,63l51.6,26.8c0,0-21.1,34.3,3.9,70.1"/>
<ellipse class="st3" cx="94.9" cy="65.5" rx="10.2" ry="9.5"/>
<ellipse class="st3" cx="237.3" cy="56.8" rx="10.2" ry="9.5"/>
<ellipse class="st3" cx="188.2" cy="162.6" rx="10.2" ry="9.5"/>
<ellipse class="st3" cx="164.4" cy="237.5" rx="10.2" ry="9.5"/>
<ellipse class="st3" cx="78.8" cy="167.3" rx="10.2" ry="9.5"/>
<path class="st2" d="M103.6,60.7c0,0,56-25,91.1,28.2L217,75.4c0,0-26.3-45.5-86.5-46.3c0,0-45.5,0-71.5,28"/>
<path class="st2" d="M192.8,225.5c0,0,31.1-14.3,48.4-45l-24.1-11.7c0,0-24.9,45.5-81.6,46.4c0,0-30.3,2.4-55.3-12.5l17.6-21.5
	c0,0,17.7,9.7,41.8,8.1c0,0,24.5-1.7,42.9-19"/>
<path class="st2" d="M62,190.2c0,0-24-16.4-31.6-57.5c0,0-3-16.7,3.2-33.6L7.4,92.4c0,0-3.3,10.2-4.1,30c0,0-5.2,63.6,64.8,103.2
	c0,0,31.5,20,86.3,14"/>
</svg>
