<?xml version="1.0" encoding="utf-8"?><svg version="1.1" id="Layer_1" xmlns="http://www.w3.org/2000/svg" xmlns:xlink="http://www.w3.org/1999/xlink" width="197" height="173" x="0px" y="0px" viewBox="0 0 197 173" style="enable-background:new 0 0 197 173;" xml:space="preserve"><style type="text/css">.st0{fill:none;stroke:#fff;stroke-opacity:0.2;stroke-width:5;stroke-miterlimit:10;}</style><path class="st0" d="M110.5,2.5l12,21l-12,21h-24l-12-21l12-21H110.5z M86.5,44.5l-12,21l12,21h24l12-21l-12-21H86.5z M86.5,86.5
	l-12,21l12,21h24l12-21l-12-21H86.5z M86.5,128.5l-12,21l12,21h24l12-21l-12-21H86.5z M122.5,23.5l-12,21l12,21h24l12-21l-12-21
	C146.5,23.5,122.5,23.5,122.5,23.5z M122.5,65.5l-12,21l12,21h24l12-21l-12-21C146.5,65.5,122.5,65.5,122.5,65.5z M122.5,107.5
	l-12,21l12,21h24l12-21l-12-21C146.5,107.5,122.5,107.5,122.5,107.5z M50.5,23.5l-12,21l12,21h24l12-21l-12-21
	C74.5,23.5,50.5,23.5,50.5,23.5z M50.5,65.5l-12,21l12,21h24l12-21l-12-21C74.5,65.5,50.5,65.5,50.5,65.5z M50.5,107.5l-12,21l12,21
	h24l12-21l-12-21C74.5,107.5,50.5,107.5,50.5,107.5z M14.5,44.5l-12,21l12,21h24l12-21l-12-21H14.5z M14.5,86.5l-12,21l12,21h24
	l12-21l-12-21H14.5z M158.5,86.5l-12,21l12,21h24l12-21l-12-21H158.5z"/>
</svg>
