<?xml version="1.0" encoding="utf-8"?><svg version="1.1" id="Layer_1" xmlns="http://www.w3.org/2000/svg" xmlns:xlink="http://www.w3.org/1999/xlink" width="197" height="173" x="0px" y="0px" viewBox="0 0 62 173" style="enable-background:new 0 0 197 173;" xml:space="preserve"><style type="text/css">.st0{fill:none;stroke:#fff;stroke-width:5;stroke-miterlimit:10;}</style><path class="st0" d="M66.9,7.8l20.9,12.2l0.1,24.2l-20.8,12L46.2,43.9l-0.1-24.2L66.9,7.8z M67.1,56.1l0.1,24.2l20.9,12.2l20.8-12
	l-0.1-24.2L87.9,44.1L67.1,56.1z M88.1,92.5l0.1,24.2l20.9,12.2l20.8-12l-0.1-24.2l-20.9-12.2L88.1,92.5z M109.1,128.9l0.1,24.2
	l20.9,12.2l20.8-12l-0.1-24.2l-20.9-12.2L109.1,128.9z M87.8,19.9l0.1,24.2l20.9,12.2l20.8-12l-0.1-24.2L108.6,7.9L87.8,19.9z
	 M108.8,56.3l0.1,24.2l20.9,12.2l20.8-12l-0.1-24.2l-20.9-12.2L108.8,56.3z M129.8,92.7l0.1,24.2l20.9,12.2l20.8-12l-0.1-24.2
	l-20.9-12.2L129.8,92.7z M25.4,55.9l0.1,24.2l20.9,12.2l20.8-12l-0.1-24.2L46.2,43.9L25.4,55.9z M46.4,92.3l0.1,24.2l20.9,12.2
	l20.8-12l-0.1-24.2L67.2,80.3L46.4,92.3z M67.4,128.7l0.1,24.2l20.9,12.2l20.8-12l-0.1-24.2l-20.9-12.2L67.4,128.7z M4.8,92.1
	l0.1,24.2l20.9,12.2l20.8-12l-0.1-24.2L25.5,80.1L4.8,92.1z M25.8,128.5l0.1,24.2l20.9,12.2l20.8-12l-0.1-24.2l-20.9-12.2
	L25.8,128.5z M150.5,56.5l0.1,24.2l20.9,12.2l20.8-12l-0.1-24.2l-20.9-12.2L150.5,56.5z"/>
</svg>
