<svg height="250" viewBox="0 0 250 250" width="250" xmlns="http://www.w3.org/2000/svg" xmlns:xlink="http://www.w3.org/1999/xlink"><clipPath id="a"><path d="m-132.4-283.4h566.9v566.9h-566.9z"/></clipPath><clipPath id="b"><path d="m-133.5-283.5h566.9v566.9h-566.9z"/></clipPath><clipPath id="c"><path d="m-359.8-337.6h566.9v566.9h-566.9z"/></clipPath><clipPath id="d"><path d="m-334.4-301.65h566.9v566.9h-566.9z"/></clipPath><clipPath id="e"><path d="m-241.2-265.45h566.9v566.9h-566.9z"/></clipPath><clipPath id="f"><path d="m-337.9-229.2h566.9v566.9h-566.9z"/></clipPath><clipPath id="g"><path d="m-352.45-265.15h566.9v566.9h-566.9z"/></clipPath><g clip-path="url(#a)" transform="matrix(.5 0 0 .5 50.925 132.425)"><path d="m199 266.2c-7.6-29.1-34-50.6-65.5-50.6-37.4 0-67.7 30.4-67.7 67.8 0 37.5 30.3 67.8 67.7 67.8 31.4 0 57.9-21.5 65.5-50.6h-33.9c-6.1 11.2-18 18.8-31.6 18.8-19.9 0-36-16.1-36-36.1 0-19.9 16.1-36.1 36-36.1 13.6 0 25.5 7.6 31.6 18.8h33.9z" fill="#30b7bc" transform="translate(-132.4 -283.4)"/></g><g clip-path="url(#b)" transform="matrix(.5 0 0 .5 51.475 132.475)"><path d="m154.3 283.5c0-11.5-9.3-20.8-20.8-20.8s-20.8 9.3-20.8 20.8 9.3 20.8 20.8 20.8 20.8-9.3 20.8-20.8" fill="#5c7a84" transform="translate(-133.5 -283.5)"/></g><g clip-path="url(#c)" transform="matrix(.5 0 0 .5 164.625 159.525)"><path d="m488 339c.2-1.2.6-2.2 1.2-3 .6-.7 1.5-1.1 2.7-1.1 1.1 0 2 .3 2.7 1s1.1 1.7 1.2 3h-7.8zm7.7 5.9c-.3.6-.6 1-.9 1.3-.6.6-1.5.9-2.5.9s-1.8-.2-2.5-.7c-1.1-.8-1.7-2.1-1.8-4.1h13.2c0-1.7 0-2.9-.2-3.8-.2-1.5-.7-2.8-1.5-4-.8-1.3-1.9-2.2-3.2-2.8s-2.7-.9-4.3-.9c-2.7 0-4.9.9-6.6 2.7s-2.5 4.3-2.5 7.7c0 3.6.9 6.1 2.8 7.7s4 2.4 6.5 2.4c3 0 5.3-.9 6.9-2.8 1.1-1.2 1.7-2.3 1.8-3.5h-5.2zm-23.1-14.1c-2.5 0-4.5.6-5.9 1.9s-2.1 2.8-2.1 4.6c0 1.5.4 2.7 1.3 3.5s2.4 1.5 4.6 2c3 .7 4.8 1.2 5.2 1.5.5.3.7.7.7 1.3s-.3 1-.9 1.3-1.4.4-2.4.4c-1.7 0-2.8-.3-3.5-1-.4-.4-.6-1-.7-1.9h-4.9c0 2 .7 3.6 2.2 4.9 1.4 1.3 3.7 1.9 6.7 1.9s5.2-.6 6.6-1.8 2.1-2.8 2.1-4.7c0-1.4-.5-2.7-1.5-3.6-1-1-2.5-1.7-4.5-2.1-3-.7-4.7-1.1-5.2-1.4s-.7-.7-.7-1.3c0-.5.2-.9.7-1.2s1.2-.5 2.3-.5c1.3 0 2.3.3 2.8 1 .3.4.5.9.5 1.5h5c-.2-2.4-1.1-4-2.6-5-1.5-.8-3.4-1.3-5.8-1.3m-16.3 19.8h4.9v-19.2h-5.1v10.5c0 1.2-.2 2.2-.5 3-.6 1.4-1.8 2.1-3.5 2.1-1.3 0-2.2-.5-2.7-1.5-.3-.6-.4-1.4-.4-2.5v-11.6h-5.2v11.6c0 2.2.3 3.9.8 5 1 2 2.9 3.1 5.8 3.1 1 0 1.9-.1 2.6-.4s1.5-.7 2.3-1.4c.3-.2.5-.5.7-.8s.3-.5.4-.5v2.6zm-21.4-5.2c-.7 1-1.7 1.6-3 1.6-1.5 0-2.6-.5-3.3-1.6s-1.1-2.4-1.1-4.1c0-1.4.2-2.5.5-3.4.7-1.7 1.9-2.5 3.8-2.5 1.8 0 3 .8 3.7 2.5.4.9.5 2 .5 3.4 0 1.6-.3 3-1.1 4.1m4.3 2.7c1.4-2 2.1-4.4 2.1-7.4 0-2.9-.7-5.2-2.1-7.1s-3.4-2.7-5.9-2.7c-1.4 0-2.6.3-3.5.9-.8.5-1.5 1.2-2.1 2v-9.2h-5v26h4.9v-2.4c.7.9 1.3 1.6 1.9 2 1 .6 2.2 1 3.8 1 2.5-.1 4.5-1.1 5.9-3.1m-34.1-7.4 3.4-10.2 3.2 10.2zm9.8 9.9h5.9l-9.2-26h-6.1l-9.3 26h5.7l1.8-5.3h9.6zm-41.3-13.7c.7-1.1 1.8-1.7 3.2-1.7 1 0 1.8.3 2.5.9 1.2 1 1.8 2.7 1.8 5 0 1.7-.4 3.1-1.1 4.1-.7 1.1-1.8 1.6-3.2 1.6s-2.5-.5-3.2-1.6-1.1-2.5-1.1-4.3c.1-1.5.4-2.8 1.1-4m7.4-12.3v9.2c-.6-.9-1.3-1.6-2.2-2.1s-1.9-.8-3.1-.8c-2.5 0-4.5.9-6.1 2.8-1.5 1.9-2.3 4.5-2.3 7.7 0 2.8.8 5.2 2.3 7s3.4 2.7 5.7 2.7c1.4 0 2.5-.3 3.4-.8s1.7-1.3 2.5-2.5v2.7h4.9v-26h-5.1zm-21.5 11.9c.8 1 1.2 2.5 1.2 4.5 0 1.9-.4 3.4-1.2 4.5s-1.9 1.6-3.4 1.6-2.6-.5-3.4-1.6-1.2-2.5-1.2-4.5c0-1.9.4-3.4 1.2-4.5.8-1 1.9-1.6 3.4-1.6s2.6.6 3.4 1.6m-3.4-5.8c-3.3 0-5.8 1-7.4 3.1-1.6 2-2.4 4.4-2.4 7.2s.8 5.2 2.4 7.2 4.1 3 7.4 3 5.8-1 7.4-3 2.4-4.4 2.4-7.2-.8-5.2-2.4-7.2c-1.6-2.1-4.1-3.1-7.4-3.1m-17.8 5.8c.8 1 1.2 2.5 1.2 4.5 0 1.9-.4 3.4-1.2 4.5-.8 1-1.9 1.6-3.4 1.6s-2.6-.5-3.4-1.6c-.8-1-1.2-2.5-1.2-4.5 0-1.9.4-3.4 1.2-4.5.8-1 1.9-1.6 3.4-1.6s2.6.6 3.4 1.6m-3.4-5.8c-3.3 0-5.8 1-7.4 3.1-1.6 2-2.4 4.4-2.4 7.2s.8 5.2 2.4 7.2 4.1 3 7.4 3 5.8-1 7.4-3 2.4-4.4 2.4-7.2-.8-5.2-2.4-7.2c-1.6-2.1-4.1-3.1-7.4-3.1m-12.6 4.9c-.1-.8-.4-1.5-1-2.2-.6-.8-1.4-1.5-2.4-1.9s-2.1-.6-3.2-.6-2.1.2-3 .7c-1 .4-1.8 1.2-2.5 2.3v-9.2h-5v25.9h5v-10.4c0-1.6.3-2.9 1-3.8s1.7-1.3 3-1.3 2.2.4 2.6 1.3c.4.6.5 1.5.5 2.5v11.7h5.1v-11.3c.1-1.7 0-3-.1-3.7m-33.4 1.3c.7-1.1 1.8-1.7 3.2-1.7 1 0 1.8.3 2.5.9 1.2 1 1.8 2.7 1.8 5 0 1.7-.4 3.1-1.1 4.1-.7 1.1-1.8 1.6-3.2 1.6s-2.5-.5-3.2-1.6-1.1-2.5-1.1-4.3c.1-1.5.4-2.8 1.1-4m7.4-12.3v9.2c-.6-.9-1.3-1.6-2.2-2.1s-1.9-.8-3.1-.8c-2.5 0-4.6.9-6.1 2.8s-2.3 4.5-2.3 7.7c0 2.8.8 5.2 2.3 7s3.4 2.7 5.7 2.7c1.4 0 2.5-.3 3.4-.8s1.7-1.3 2.5-2.5v2.7h4.9v-26h-5.1zm-21.4 26h5v-26h-5zm-9.2-21.6h5.1v-4.6h-5.1zm0 21.6h5.1v-19.2h-5.1zm-4-15c-.1-.8-.4-1.5-1-2.2-.6-.8-1.4-1.5-2.4-1.9s-2.1-.6-3.2-.6-2.1.2-3 .7c-1 .4-1.8 1.2-2.5 2.3v-9.2h-5v25.9h5v-10.4c0-1.6.3-2.9 1-3.8s1.7-1.3 3-1.3 2.2.4 2.6 1.3c.4.6.5 1.5.5 2.5v11.7h5.1v-11.3c.1-1.7 0-3-.1-3.7m-20.1 6.1h-5.4c-.4 1.3-.8 2.3-1.4 3-1 1.2-2.5 1.9-4.4 1.9s-3.4-.7-4.6-2.2-1.8-3.6-1.8-6.6c0-2.9.6-5.2 1.7-6.8s2.7-2.4 4.7-2.4c1.9 0 3.4.6 4.4 1.7.6.6 1 1.6 1.4 2.8h5.4c-.1-1.6-.7-3.2-1.8-4.9-2-2.9-5.2-4.3-9.6-4.3-3.3 0-6 1.1-8.1 3.2-2.4 2.5-3.7 6-3.7 10.5 0 4.2 1.1 7.5 3.2 9.9s5.1 3.6 8.8 3.6c3 0 5.5-.9 7.4-2.7 2.2-1.5 3.4-3.8 3.8-6.7" fill="#5c7a84" transform="translate(-359.8 -337.6)"/></g><g clip-path="url(#d)" transform="matrix(.5 0 0 .5 151.925 141.55)"><path d="m445.2 314.4h5v-26h-5zm-15.6-5.5c0-1 .4-1.7 1.2-2.1.5-.3 1.2-.5 2.3-.7l1.1-.2c.6-.1 1-.2 1.3-.3s.6-.3 1-.5v1.9c0 1.7-.5 2.8-1.4 3.5-.9.6-1.9 1-3 1-.7 0-1.3-.2-1.7-.6-.5-.5-.8-1.1-.8-2m-4.4-7.5h4.9c.1-.7.4-1.3.7-1.8.5-.6 1.3-.9 2.5-.9 1.1 0 1.9.1 2.4.4s.8.8.8 1.6c0 .6-.4 1.1-1.1 1.4-.4.2-1.1.3-2 .4l-1.7.2c-1.9.2-3.4.7-4.4 1.2-1.8 1.1-2.7 2.8-2.7 5.1 0 1.8.6 3.2 1.7 4.2s2.6 1.5 4.3 1.5c1.4 0 2.6-.3 3.7-.9.9-.5 1.7-1.2 2.4-1.9 0 .4.1.8.1 1.2.1.3.2.7.3 1.1h5.5v-.7c-.3-.2-.6-.3-.7-.6-.2-.2-.3-.7-.3-1.3 0-.9 0-1.6 0-2.2v-8.8c0-2.3-.8-3.9-2.5-4.7-1.6-.8-3.5-1.3-5.6-1.3-3.2 0-5.5.8-6.8 2.5-.9 1.3-1.4 2.6-1.5 4.3m-8.6-1c.3.5.4 1.3.4 2.3v11.7h5.2v-13c0-2.4-.6-4.1-1.9-5.2-1.3-1-2.9-1.6-4.9-1.6-1.6 0-2.9.4-3.9 1.2-.6.4-1.2 1.1-1.8 2.1v-2.8h-4.9v19.2h5v-10.3c0-1.2.2-2.2.5-2.9.6-1.4 1.8-2.2 3.5-2.2 1.4 0 2.3.5 2.8 1.5m-21 0c.8 1 1.2 2.5 1.2 4.5 0 1.9-.4 3.4-1.2 4.5-.8 1-1.9 1.6-3.4 1.6s-2.6-.5-3.4-1.6c-.8-1-1.2-2.5-1.2-4.5 0-1.9.4-3.4 1.2-4.5.8-1 1.9-1.6 3.4-1.6s2.6.5 3.4 1.6m-3.4-5.8c-3.3 0-5.8 1-7.4 3.1-1.6 2-2.4 4.4-2.4 7.2s.8 5.2 2.4 7.2 4.1 3 7.4 3 5.8-1 7.4-3 2.4-4.4 2.4-7.2-.8-5.2-2.4-7.2c-1.6-2.1-4.1-3.1-7.4-3.1m-17.7-1.7h5.1v-4.6h-5.1zm0 21.5h5.1v-19.2h-5.1zm-2.9-3.5c-.2 0-.3 0-.5 0-1 0-1.6-.1-1.8-.3s-.3-.7-.3-1.5v-10.1h3.1v-3.6h-3.1v-5.4h-5v5.4h-2.7v3.6h2.7v11.8c0 1.2.3 2.1.8 2.7.9.9 2.5 1.3 4.9 1.2l2.4-.1v-3.8c-.2.1-.3.1-.5.1m-17.2 3.5h4.9v-19.2h-5.1v10.5c0 1.2-.2 2.2-.5 3-.6 1.4-1.8 2.1-3.5 2.1-1.3 0-2.2-.5-2.7-1.5-.3-.6-.4-1.4-.4-2.5v-11.6h-5.1v11.6c0 2.2.3 3.9.8 5 1 2 2.9 3.1 5.8 3.1 1 0 1.9-.1 2.6-.4s1.5-.7 2.3-1.4c.3-.2.5-.5.7-.8s.3-.5.4-.5v2.6zm-15.1-3.5c-.2 0-.3 0-.5 0-1 0-1.6-.1-1.8-.3s-.3-.7-.3-1.5v-10.1h3.1v-3.6h-3.1v-5.4h-5v5.4h-2.7v3.6h2.7v11.8c0 1.2.3 2.1.8 2.7.9.9 2.5 1.3 4.9 1.2l2.4-.1v-3.8c-.2.1-.4.1-.5.1m-17.4-18h5.1v-4.6h-5.1zm0 21.5h5.1v-19.2h-5.1zm-2.9-3.5c-.2 0-.3 0-.5 0-1 0-1.6-.1-1.8-.3s-.3-.7-.3-1.5v-10.1h3.1v-3.6h-3.1v-5.4h-5v5.4h-2.7v3.6h2.7v11.8c0 1.2.3 2.1.8 2.7.9.9 2.5 1.3 4.9 1.2l2.4-.1v-3.8c-.2.1-.3.1-.5.1m-20.1-16.3c-2.5 0-4.5.6-5.9 1.9s-2.1 2.8-2.1 4.6c0 1.5.4 2.7 1.3 3.5s2.4 1.5 4.6 2c3 .7 4.8 1.2 5.2 1.5.5.3.7.7.7 1.3s-.3 1-.9 1.3-1.4.4-2.4.4c-1.7 0-2.8-.3-3.5-1-.4-.4-.6-1-.7-1.9h-5.1c0 2 .7 3.6 2.2 4.9 1.4 1.3 3.7 1.9 6.7 1.9s5.2-.6 6.6-1.8 2.1-2.8 2.1-4.7c0-1.4-.5-2.7-1.5-3.6-1-1-2.5-1.7-4.5-2.1-3-.7-4.7-1.1-5.2-1.4s-.7-.7-.7-1.3c0-.5.2-.9.7-1.2s1.2-.5 2.3-.5c1.3 0 2.3.3 2.8 1 .3.4.5.9.5 1.5h5c-.2-2.4-1.1-4-2.6-5-1.3-.8-3.2-1.3-5.6-1.3m-16.7 5.8c.3.5.4 1.3.4 2.3v11.7h5.2v-13c0-2.4-.6-4.1-1.9-5.2-1.3-1-2.9-1.6-4.9-1.6-1.6 0-2.9.4-3.9 1.2-.6.4-1.2 1.1-1.8 2.1v-2.8h-4.9v19.2h5v-10.3c0-1.2.2-2.2.5-2.9.6-1.4 1.8-2.2 3.5-2.2 1.4 0 2.3.5 2.8 1.5m-21 14h5.4v-26h-5.4zm-12.3-26.2c-.3 0-.5 0-.9 0-2.8 0-4.5.6-5.3 1.7-.7.8-1 2.2-1 4.3v1.2h-2.8v3.5h2.8v15.5h5v-15.5h3.3v-3.5h-3.3v-1.6c0-.4.1-.7.4-1s.7-.5 1.4-.4c.7 0 1.1 0 1.4.1v-4.1c-.4-.2-.8-.2-1-.2m-17.2 12.2c.8 1 1.2 2.5 1.2 4.5 0 1.9-.4 3.4-1.2 4.5-.8 1-1.9 1.6-3.4 1.6s-2.6-.5-3.4-1.6c-.8-1-1.2-2.5-1.2-4.5 0-1.9.4-3.4 1.2-4.5.8-1 1.9-1.6 3.4-1.6s2.7.5 3.4 1.6m-3.3-5.8c-3.3 0-5.8 1-7.4 3.1-1.6 2-2.4 4.4-2.4 7.2s.8 5.2 2.4 7.2 4.1 3 7.4 3 5.8-1 7.4-3 2.4-4.4 2.4-7.2-.8-5.2-2.4-7.2c-1.7-2.1-4.1-3.1-7.4-3.1" fill="#5c7a84" transform="translate(-334.4 -301.65)"/></g><g clip-path="url(#e)" transform="matrix(.5 0 0 .5 105.325 123.45)"><path d="m263.1 263.7c.2 0 .5 0 .8.1v-5.2c-.2 0-.4 0-.4 0-.1 0-.1 0-.2 0-1.5 0-2.7.4-3.7 1.2-.6.5-1.3 1.3-2 2.6v-3.4h-4.8v19.2h5.1v-9.2c0-1.5.2-2.7.6-3.4.7-1.3 2.1-2 4.1-2 .1.1.3.1.5.1m-19.4.5c.8 1 1.2 2.5 1.2 4.5s-.4 3.4-1.2 4.5c-.8 1-1.9 1.6-3.4 1.6s-2.6-.5-3.4-1.6c-.8-1-1.2-2.5-1.2-4.5s.4-3.4 1.2-4.5c.8-1 1.9-1.6 3.4-1.6 1.5.1 2.6.6 3.4 1.6m-3.4-5.8c-3.3 0-5.8 1-7.4 3.1-1.6 2-2.4 4.4-2.4 7.2s.8 5.2 2.4 7.2 4.1 3 7.4 3 5.8-1 7.4-3 2.4-4.4 2.4-7.2-.8-5.2-2.4-7.2c-1.6-2.1-4.1-3.1-7.4-3.1m-11.8-6.4c-.3 0-.5 0-.9 0-2.8 0-4.5.6-5.3 1.7-.7.8-1 2.2-1 4.3v1.2h-2.8v3.5h2.8v15.5h5v-15.5h3.3v-3.5h-3.3v-1.6c0-.4.1-.7.4-1s.7-.5 1.4-.4c.7 0 1.1 0 1.4.1v-4.1c-.4-.1-.8-.2-1-.2" fill="#5c7a84" transform="translate(-241.2 -265.45)"/></g><g clip-path="url(#f)" transform="matrix(.5 0 0 .5 153.675 105.325)"><path d="m456.6 227.6c.2 0 .5 0 .8.1v-5.2c-.2 0-.4 0-.4 0-.1 0-.1 0-.2 0-1.5 0-2.7.4-3.7 1.2-.6.5-1.3 1.3-2 2.6v-3.4h-4.8v19.2h5.1v-9.2c0-1.5.2-2.7.6-3.4.7-1.3 2.1-2 4.1-2 .1 0 .3 0 .5.1m-25.8 3c.2-1.2.6-2.2 1.2-3 .6-.7 1.5-1.1 2.7-1.1 1.1 0 2 .3 2.7 1s1.1 1.7 1.2 3h-7.8zm7.7 5.9c-.3.6-.6 1-.9 1.3-.6.6-1.5.9-2.5.9s-1.8-.2-2.5-.7c-1.1-.8-1.7-2.1-1.8-4.1h13.2c0-1.7 0-2.9-.2-3.8-.2-1.5-.7-2.8-1.5-4-.8-1.3-1.9-2.2-3.2-2.8s-2.7-.9-4.3-.9c-2.7 0-4.9.9-6.6 2.7s-2.5 4.3-2.5 7.7c0 3.6.9 6.1 2.8 7.7s4 2.4 6.5 2.4c3 0 5.3-.9 6.9-2.8 1.1-1.2 1.7-2.3 1.8-3.5h-5.2zm-20.6-8.4c.3.5.4 1.3.4 2.3v11.7h5.2v-13c0-2.4-.6-4.1-1.9-5.2-1.3-1-2.9-1.6-4.9-1.6-1.6 0-2.9.4-3.9 1.2-.6.4-1.2 1.1-1.8 2.1v-2.8h-5v19.2h5v-10.4c0-1.2.2-2.2.5-2.9.6-1.4 1.8-2.2 3.5-2.2 1.4.1 2.4.6 2.9 1.6m-21.1 0c.8 1 1.2 2.5 1.2 4.5 0 1.9-.4 3.4-1.2 4.5s-1.9 1.6-3.4 1.6-2.6-.5-3.4-1.6c-.8-1-1.2-2.5-1.2-4.5 0-1.9.4-3.4 1.2-4.5.8-1 1.9-1.6 3.4-1.6s2.6.6 3.4 1.6m-3.4-5.8c-3.3 0-5.8 1-7.4 3.1-1.6 2-2.4 4.4-2.4 7.2s.8 5.2 2.4 7.2 4.1 3 7.4 3 5.8-1 7.4-3 2.4-4.4 2.4-7.2-.8-5.2-2.4-7.2c-1.6-2.1-4-3.1-7.4-3.1m-17.7-1.7h5.1v-4.6h-5.1zm0 21.5h5.1v-19.2h-5.1zm-11.9-19.8c-2.5 0-4.5.6-5.9 1.9s-2.1 2.8-2.1 4.6c0 1.5.4 2.7 1.3 3.5s2.4 1.5 4.6 2c3 .7 4.8 1.2 5.2 1.5.5.3.7.7.7 1.3s-.3 1-.9 1.3-1.4.4-2.4.4c-1.7 0-2.8-.3-3.5-1-.4-.4-.6-1-.7-1.9h-5.1c0 2 .7 3.6 2.2 4.9 1.4 1.3 3.7 1.9 6.7 1.9s5.2-.6 6.6-1.8 2.1-2.8 2.1-4.7c0-1.4-.5-2.7-1.5-3.6-1-1-2.5-1.7-4.5-2.1-3-.7-4.7-1.1-5.2-1.4s-.7-.7-.7-1.3c0-.5.2-.9.7-1.2s1.2-.5 2.3-.5c1.3 0 2.3.3 2.8 1 .3.4.5.9.5 1.5h5c-.2-2.4-1.1-4-2.6-5-1.2-.8-3.2-1.3-5.6-1.3m-19.2 0c-2.5 0-4.5.6-5.9 1.9s-2.1 2.8-2.1 4.6c0 1.5.4 2.7 1.3 3.5s2.4 1.5 4.6 2c3 .7 4.8 1.2 5.2 1.5.5.3.7.7.7 1.3s-.3 1-.9 1.3-1.4.4-2.4.4c-1.7 0-2.8-.3-3.5-1-.4-.4-.6-1-.7-1.9h-5.1c0 2 .7 3.6 2.2 4.9 1.4 1.3 3.7 1.9 6.7 1.9s5.2-.6 6.6-1.8 2.1-2.8 2.1-4.7c0-1.4-.5-2.7-1.5-3.6-1-1-2.5-1.7-4.5-2.1-3-.7-4.7-1.1-5.2-1.4s-.7-.7-.7-1.3c0-.5.2-.9.7-1.2s1.2-.5 2.3-.5c1.3 0 2.3.3 2.8 1 .3.4.5.9.5 1.5h5c-.2-2.4-1.1-4-2.6-5-1.2-.8-3.2-1.3-5.6-1.3m-16.4-1.7h5.1v-4.6h-5.1zm0 21.5h5.1v-19.2h-5.1zm-20.2-11.4v11.5h5.1v-11.5c0-.9.1-1.6.4-2.2.5-1.2 1.5-1.7 2.9-1.7 1.2 0 2 .4 2.5 1.3.2.5.4 1.1.4 1.8v12.2h5.2v-12.1c0-1.2-.1-2.2-.2-2.8-.2-1-.6-1.8-1.1-2.5-.7-.8-1.4-1.4-2.2-1.7s-1.7-.5-2.5-.5c-1.3 0-2.4.3-3.5.8-1 .5-1.8 1.4-2.5 2.5-.4-.9-.9-1.7-1.7-2.3-.9-.6-2.1-1-3.6-1-1.6 0-2.8.4-3.8 1.1-.6.4-1.1 1.1-1.8 2.1v-2.8h-4.9v19.2h5.1v-11.6c0-1 .1-1.8.4-2.4.5-.9 1.5-1.4 2.9-1.4 1.2 0 2.1.5 2.5 1.4.3.6.4 1.4.4 2.6m-31.2 0v11.5h5.1v-11.5c0-.9.1-1.6.4-2.2.5-1.2 1.5-1.7 2.9-1.7 1.2 0 2 .4 2.5 1.3.2.5.4 1.1.4 1.8v12.2h5.2v-12.1c0-1.2-.1-2.2-.2-2.8-.2-1-.6-1.8-1.1-2.5-.7-.8-1.4-1.4-2.2-1.7s-1.7-.5-2.5-.5c-1.3 0-2.4.3-3.5.8-1 .5-1.8 1.4-2.5 2.5-.4-.9-.9-1.7-1.7-2.3-.9-.6-2.1-1-3.6-1-1.6 0-2.8.4-3.8 1.1-.6.4-1.1 1.1-1.8 2.1v-2.8h-4.9v19.2h5.1v-11.6c0-1 .1-1.8.4-2.4.5-.9 1.5-1.4 2.9-1.4 1.2 0 2.1.5 2.5 1.4.3.6.4 1.4.4 2.6m-20.3-2.6c.8 1 1.2 2.5 1.2 4.5 0 1.9-.4 3.4-1.2 4.5-.8 1-1.9 1.6-3.4 1.6s-2.6-.5-3.4-1.6c-.8-1-1.2-2.5-1.2-4.5 0-1.9.4-3.4 1.2-4.5.8-1 1.9-1.6 3.4-1.6s2.6.6 3.4 1.6m-3.4-5.8c-3.3 0-5.8 1-7.4 3.1-1.6 2-2.4 4.4-2.4 7.2s.8 5.2 2.4 7.2 4.1 3 7.4 3 5.8-1 7.4-3 2.4-4.4 2.4-7.2-.8-5.2-2.4-7.2c-1.6-2.1-4.1-3.1-7.4-3.1m-11.5 11h-5.4c-.4 1.3-.8 2.3-1.4 3-1 1.2-2.5 1.9-4.4 1.9s-3.4-.7-4.6-2.2-1.8-3.6-1.8-6.6c0-2.9.6-5.2 1.7-6.8s2.7-2.4 4.7-2.4c1.9 0 3.4.6 4.4 1.7.6.6 1 1.6 1.4 2.8h5.4c-.1-1.6-.7-3.2-1.8-4.9-2-2.9-5.2-4.3-9.6-4.3-3.3 0-6 1.1-8.1 3.2-2.4 2.5-3.7 6-3.7 10.5 0 4.2 1.1 7.5 3.2 9.9s5.1 3.6 8.8 3.6c3 0 5.5-.9 7.4-2.7 2.2-1.6 3.4-3.9 3.8-6.7" fill="#5c7a84" transform="translate(-337.9 -229.2)"/></g><g clip-path="url(#g)" transform="matrix(.5 0 0 .5 160.95 123.3)"><path d="m421.9 258.5c-2.5 0-4.5.6-5.9 1.9s-2.1 2.8-2.1 4.6c0 1.5.4 2.7 1.3 3.5s2.4 1.5 4.6 2c3 .7 4.8 1.2 5.2 1.5.5.3.7.7.7 1.3s-.3 1-.9 1.3-1.4.4-2.4.4c-1.7 0-2.8-.3-3.5-1-.4-.4-.6-1-.7-1.9h-5.1c0 2 .7 3.6 2.2 4.9 1.4 1.3 3.7 1.9 6.7 1.9s5.2-.6 6.6-1.8 2.1-2.8 2.1-4.7c0-1.4-.5-2.7-1.5-3.6-1-1-2.5-1.7-4.5-2.1-3-.7-4.7-1.1-5.2-1.4s-.7-.7-.7-1.3c0-.5.2-.9.7-1.2s1.2-.5 2.3-.5c1.3 0 2.3.3 2.8 1 .3.4.5.9.5 1.5h5c-.2-2.4-1.1-4-2.6-5-1.2-.8-3.2-1.3-5.6-1.3m-10.2 5.2c.2 0 .5 0 .8.1v-5.2c-.2 0-.4 0-.4 0-.1 0-.1 0-.2 0-1.5 0-2.7.4-3.7 1.2-.6.5-1.3 1.3-2 2.6v-3.4h-4.8v19.2h5.1v-9.2c0-1.5.2-2.7.6-3.4.7-1.3 2.1-2 4.1-2 0 .1.2.1.5.1m-19.5.5c.8 1 1.2 2.5 1.2 4.5s-.4 3.4-1.2 4.5c-.8 1-1.9 1.6-3.4 1.6s-2.6-.5-3.4-1.6c-.8-1-1.2-2.5-1.2-4.5s.4-3.4 1.2-4.5c.8-1 1.9-1.6 3.4-1.6 1.5.1 2.7.6 3.4 1.6m-3.3-5.8c-3.3 0-5.8 1-7.4 3.1-1.6 2-2.4 4.4-2.4 7.2s.8 5.2 2.4 7.2 4.1 3 7.4 3 5.8-1 7.4-3 2.4-4.4 2.4-7.2-.8-5.2-2.4-7.2c-1.7-2.1-4.1-3.1-7.4-3.1m-22.9 19.9h5.3l6.9-19.2h-5.4l-4.1 14.2-4-14.2h-5.6zm-14-21.5h5.1v-4.6h-5.1zm0 21.5h5.1v-19.3h-5.1zm-14.3 0h5.3l6.9-19.2h-5.4l-4.1 14.2-4-14.2h-5.6zm-7.9-14.6c.2 0 .5 0 .8.1v-5.2c-.2 0-.4 0-.4 0-.1 0-.1 0-.2 0-1.5 0-2.7.4-3.7 1.2-.6.5-1.3 1.3-2 2.6v-3.4h-4.8v19.2h5.1v-9.2c0-1.5.2-2.7.6-3.4.7-1.3 2.1-2 4.1-2 0 .1.2.1.5.1m-19.1 14.6h4.9v-19.3h-5.1v10.5c0 1.2-.2 2.2-.5 3-.6 1.4-1.8 2.1-3.5 2.1-1.3 0-2.2-.5-2.7-1.5-.3-.6-.4-1.4-.4-2.5v-11.6h-5.2v11.6c0 2.2.3 3.9.8 5 1 2 2.9 3.1 5.8 3.1 1 0 1.9-.1 2.6-.4s1.5-.7 2.3-1.4c.3-.2.5-.5.7-.8s.3-.5.4-.5v2.7zm-30.3-5.4c-.5-.6-.8-1.5-1-2.7h-5.2c0 2.7 1 4.8 2.9 6.4 1.9 1.5 4.6 2.3 8 2.3 3.3 0 5.9-.8 7.7-2.4s2.7-3.5 2.7-5.9c0-2.3-.8-4.1-2.3-5.3-1-.8-2.5-1.4-4.4-1.9l-4.5-1.1c-1.7-.4-2.9-.8-3.4-1.1-.8-.5-1.2-1.2-1.2-2.1 0-1 .4-1.8 1.3-2.4.8-.6 2-.8 3.4-.8 1.3 0 2.3.2 3.2.7 1.3.7 2 1.8 2 3.3h5.2c-.1-2.8-1.1-4.9-3-6.3-1.9-1.5-4.3-2.2-7-2.2-3.3 0-5.8.8-7.5 2.3s-2.5 3.5-2.5 5.8c0 2.6.9 4.4 2.6 5.6 1 .7 2.9 1.4 5.6 2l2.8.6c1.6.4 2.8.8 3.5 1.2.8.5 1.1 1.1 1.1 2 0 1.5-.8 2.5-2.3 3-.8.3-1.8.4-3.1.4-2.2.2-3.7-.3-4.6-1.4" fill="#30b7bc" transform="translate(-352.45 -265.15)"/></g></svg>