<?xml version="1.0" encoding="UTF-8"?><svg id="Layer_1" xmlns="http://www.w3.org/2000/svg" viewBox="0 0 496 465"><defs><style>.cls-1{fill:#fff;}.cls-2{fill:#31b7bc;}.cls-3{fill:#26999d;}</style></defs><circle class="cls-3" cx="216.5" cy="216.5" r="216.5"/><circle class="cls-2" cx="279.5" cy="248.5" r="216.5"/><path class="cls-1" d="m203.88,134c-31.57,0-58.96,18.64-71.51,45.65,9.13,3.04,19.02,6.09,20.92,5.71.38,0,.76-.38,1.14-.38,14.83-3.8,46.41-11.79,61.62-15.6h.38c.76,0,1.14-.38,1.9-.38,1.14,0,2.28.38,3.04.76,0,0,.38,0,.38.38l45.27,32.71,1.9,1.52c.76.38,1.52.76,1.9,1.52,1.52,1.52,2.66,3.42,2.66,5.71,0,4.18-3.42,7.99-7.61,8.37h-2.66c-.38,0-.76,0-1.14-.38-.38,0-.76-.38-1.14-.38s-.38-.38-.76-.38l-5.33-3.8-28.91-18.64c-.76-.38-1.9-.38-2.66-.38-1.52.38-10.27,2.66-18.26,4.94h-.38c-2.28.76-4.56,1.14-6.85,1.9-3.8,1.14-6.47,1.9-7.23,1.9-2.28,1.14-4.18,3.8-4.18,6.85,0,3.8,2.66,7.23,6.47,7.61h18.26c2.66,0,4.94,2.28,4.94,5.33,0,2.66-2.28,5.33-5.33,5.33h-28.91c-8.37,0-14.07-3.04-19.02-6.85-5.33-3.8-24.72-13.69-38.42-18.64-.38,3.04-.38,6.09-.38,9.13,0,43.74,35.38,79.12,79.12,79.12,28.53,0,53.63-15.22,67.71-38.04-7.99-2.66-15.98-4.94-17.5-4.56-.38,0-.76.38-1.14.38-14.83,3.8-46.41,11.79-61.62,15.6h-.38c-.76,0-1.14.38-1.9.38-1.14,0-2.28-.38-3.04-.76,0,0-.38,0-.38-.38l-45.27-32.71-1.9-1.52c-.76-.38-1.52-.76-1.9-1.52-1.52-1.52-2.66-3.42-2.66-5.71,0-4.18,3.42-7.99,7.61-8.37h2.66c.38,0,.76,0,1.14.38.38,0,.76.38,1.14.38s.38.38.76.38l5.33,3.8,28.91,18.64c.76.38,1.9.38,2.66.38,1.52-.38,10.27-2.66,18.26-4.94h.38c2.28-.76,4.56-1.14,6.85-1.9,3.8-1.14,6.47-1.9,7.23-1.9,2.28-1.14,4.18-3.8,4.18-6.85,0-3.8-2.66-7.23-6.47-7.61h-18.26c-2.66,0-4.94-2.28-4.94-5.33,0-2.66,2.28-5.33,5.33-5.33h28.91c8.37,0,14.07,3.04,19.02,6.85,5.33,3.42,23.96,13.31,37.28,18.26,1.14-5.71,1.9-11.41,1.9-17.5,0-43.74-35.38-79.12-79.12-79.12"/></svg>