<?xml version="1.0" standalone="no"?>
<!DOCTYPE svg PUBLIC "-//W3C//DTD SVG 20010904//EN"
 "http://www.w3.org/TR/2001/REC-SVG-20010904/DTD/svg10.dtd">
<svg version="1.0" xmlns="http://www.w3.org/2000/svg"
 width="700.000000pt" height="700.000000pt" viewBox="0 0 700.000000 700.000000"
 preserveAspectRatio="xMidYMid meet">
<metadata>
Created by potrace 1.14, written by Peter Selinger 2001-2017
</metadata>
<g transform="translate(0.000000,700.000000) scale(0.100000,-0.100000)"
fill="#000000" stroke="none">
<path d="M3345 6371 c-26 -15 -310 -180 -400 -231 -74 -43 -1325 -765 -1365
-788 -25 -15 -53 -31 -62 -37 -9 -5 -29 -17 -45 -26 -15 -8 -120 -69 -233
-134 -113 -65 -260 -150 -327 -188 l-123 -70 0 -1492 0 -1491 397 -230 c218
-126 402 -231 407 -233 6 -2 30 -17 53 -32 23 -16 44 -29 47 -29 3 0 40 -20
82 -45 41 -25 78 -45 82 -45 3 0 13 -6 21 -14 9 -7 41 -27 71 -43 30 -17 96
-54 145 -83 103 -60 140 -81 193 -111 20 -12 126 -73 235 -136 110 -63 215
-124 235 -135 21 -11 62 -35 92 -53 122 -73 194 -114 196 -112 1 1 5 61 9 132
3 72 8 157 10 190 2 33 7 112 10 175 3 63 8 140 10 170 2 30 7 109 10 175 3
66 8 147 10 180 2 33 7 110 10 170 6 125 10 203 30 525 3 47 7 130 10 185 2
55 7 136 10 180 3 44 7 118 10 165 2 47 7 128 10 180 3 52 7 131 10 175 4 79
10 187 20 355 3 47 7 128 10 180 3 52 8 129 10 170 3 41 7 121 10 177 l6 102
-28 18 c-41 26 -70 62 -95 116 -17 37 -27 47 -47 48 -44 2 -106 6 -167 13 -33
3 -86 8 -119 12 -57 5 -276 37 -340 49 -119 23 -292 60 -353 77 -41 11 -75 18
-77 16 -2 -1 7 -30 20 -63 13 -33 40 -105 60 -160 36 -100 82 -223 135 -365
47 -125 97 -259 135 -365 97 -264 168 -457 194 -525 16 -41 62 -164 102 -272
l73 -197 135 -3 136 -3 -72 -43 c-144 -85 -309 -164 -398 -189 -221 -64 -398
-90 -588 -88 -363 5 -657 94 -975 296 l-46 29 136 0 135 0 19 48 c10 26 19 49
20 52 0 3 5 16 11 30 6 14 18 45 26 70 9 25 34 95 57 155 23 61 52 139 65 175
13 36 89 243 170 460 145 392 204 549 308 833 30 81 51 149 47 152 -5 3 -38
14 -75 26 -41 12 -65 25 -62 32 2 7 13 38 23 70 14 44 21 56 33 52 15 -6 210
-62 241 -70 8 -2 56 -13 105 -25 50 -12 97 -23 105 -25 8 -2 51 -11 95 -20 44
-9 91 -19 105 -21 73 -12 109 -17 193 -28 17 -3 52 -7 77 -11 74 -9 111 -13
200 -20 47 -4 95 -8 108 -10 25 -4 30 0 72 66 29 45 94 99 118 99 7 0 12 15
13 33 1 17 2 48 4 67 1 19 5 98 9 175 4 77 9 160 11 185 2 25 6 99 10 165 8
161 12 229 20 365 4 63 9 140 10 170 10 178 18 320 20 355 2 22 3 64 4 94 2
87 9 55 16 -69 8 -159 14 -260 20 -362 3 -49 7 -130 10 -180 3 -51 7 -131 10
-178 3 -47 7 -128 10 -180 3 -52 7 -126 10 -165 3 -38 8 -124 11 -190 4 -66 8
-136 9 -155 2 -19 3 -54 4 -77 1 -37 5 -44 39 -64 50 -30 87 -69 111 -118 21
-39 21 -39 73 -36 167 11 234 18 408 41 25 3 59 7 75 9 45 6 319 59 385 75 51
12 290 76 327 88 l32 10 20 -66 c11 -36 18 -69 16 -73 -3 -4 -34 -15 -71 -25
-77 -21 -77 -5 -4 -199 69 -183 407 -1096 435 -1175 13 -36 65 -175 115 -310
51 -135 96 -257 102 -272 l10 -28 136 0 c156 0 156 7 -2 -84 -168 -97 -376
-177 -535 -206 -31 -5 -66 -12 -78 -14 -96 -19 -339 -26 -478 -14 -233 21
-483 103 -715 236 l-135 77 136 3 136 3 42 117 c24 64 60 162 81 217 39 104
111 296 350 945 224 605 241 652 238 655 -2 2 -57 -10 -123 -26 -182 -43 -441
-88 -605 -104 -36 -3 -76 -8 -90 -10 -14 -3 -74 -7 -134 -10 -61 -4 -114 -9
-118 -11 -5 -3 -18 -24 -29 -47 -23 -49 -53 -85 -92 -110 l-28 -18 6 -92 c3
-51 8 -126 10 -167 8 -174 16 -309 20 -365 3 -33 7 -103 10 -155 6 -122 19
-342 30 -540 3 -52 7 -133 10 -180 3 -47 7 -125 10 -175 9 -168 16 -280 20
-350 2 -38 7 -119 10 -180 3 -60 8 -139 10 -175 2 -36 7 -117 10 -180 3 -63 8
-137 10 -165 2 -27 7 -108 10 -180 3 -71 8 -153 10 -180 2 -28 7 -109 11 -180
3 -72 8 -152 9 -180 2 -27 4 -71 4 -97 l1 -48 38 21 c20 11 53 30 72 41 159
93 487 281 535 308 33 18 67 39 76 46 8 8 18 14 22 14 3 0 100 54 214 120 114
66 217 126 228 132 11 7 72 42 135 78 63 37 201 116 305 177 105 60 290 167
412 238 l223 129 0 1493 c0 1408 -1 1494 -18 1500 -9 4 -46 25 -82 46 -36 22
-81 49 -100 60 -19 11 -181 104 -360 207 -179 103 -341 197 -360 208 -19 11
-107 61 -195 112 -88 51 -174 100 -190 110 -17 9 -87 50 -155 90 -69 40 -150
87 -180 104 -64 36 -269 153 -308 177 -15 9 -90 52 -167 96 -77 45 -154 89
-172 99 -17 11 -78 46 -135 78 -57 33 -117 68 -133 77 -29 17 -31 17 -60 0z"/>
<path d="M1934 4217 c-23 -62 -59 -157 -79 -212 -21 -55 -52 -140 -70 -190
-49 -135 -363 -985 -379 -1025 -26 -63 -66 -175 -66 -183 0 -4 287 -7 639 -7
l638 0 -79 213 c-44 116 -104 280 -134 362 -30 83 -57 157 -61 165 -3 8 -7 17
-7 20 -1 3 -7 19 -13 35 -13 33 -198 531 -287 775 -32 85 -58 155 -59 156 -1
1 -21 -48 -43 -109z"/>
<path d="M4762 4298 c-19 -50 -291 -783 -322 -868 -27 -74 -78 -212 -228 -615
l-78 -210 635 -3 c349 -1 636 0 638 2 2 2 -35 109 -82 237 -48 129 -103 277
-122 329 -19 52 -64 172 -98 265 -107 287 -307 828 -319 863 l-11 32 -13 -32z"/>
</g>
</svg>
