<?xml version="1.0" encoding="utf-8"?>
<!-- Generator: Adobe Illustrator 25.2.3, SVG Export Plug-In . SVG Version: 6.00 Build 0)  -->
<svg version="1.0" id="Layer_1" xmlns="http://www.w3.org/2000/svg" xmlns:xlink="http://www.w3.org/1999/xlink" x="0px" y="0px"
	 viewBox="0 0 565 60" style="enable-background:new 0 0 565 60;" xml:space="preserve">
<style type="text/css">
	.st0{fill:#676767;}
	.st1{fill:#6B388D;}
</style>
<path class="st0" d="M39.4,36.34v1.52c0,6.6-0.66,9-3,11.29c-1.76,1.5-3.89,2.49-6.17,2.87c-3.05,0.29-6.12,0.42-9.18,0.39
	c-7.59,0-9.63-0.32-12.54-2c-3.82-2-5.47-5.34-5.94-11.61c-0.19-2.51-0.33-7.92-0.33-11.94c0-9.18,0.86-12.54,3.83-15.38
	c3.3-3.17,6.6-3.9,17.29-3.9c7,0,9.77,0.6,12,2.51c1.85,1.59,3,3.9,3.37,7.13c0.13,1.06,0.2,2.38,0.26,5.41h-8.36
	c-0.13-7.06-0.92-7.79-8.45-7.79c-5.6,0-8,0.47-9.37,1.72c-1.12,1.12-1.58,2.71-1.71,6.07c-0.07,1.12-0.07,1.12-0.07,7.13
	c0,14.45,0.6,15.38,10,15.38c8.58,0,10-1.06,10-7c0-0.4,0-1-0.06-1.85L39.4,36.34z"/>
<path class="st0" d="M45.01,8.02h17.82c4.69,0,5.15,0,6.8,0.13c3.89,0.27,6.93,1.92,8.58,4.62c1.45,2.44,2,5.28,2,10.63
	c0,8.18-2,12.21-7.13,13.72c-1.78,0.6-1.78,0.6-9.77,0.73h-9.85v14.17h-8.45V8.02z M62.96,30.6c7.46,0,8.65-1,8.65-7.32
	c0-4.89-0.53-6.67-2.25-7.59c-1.18-0.53-2-0.66-5.54-0.66H53.46V30.6H62.96z"/>
<path class="st0" d="M89.88,43.6l-2.7,8.42h-8.85l14.65-44h12.48l14.91,44h-8.64l-2.84-8.45L89.88,43.6z M99.38,14.5l-7.52,22.83
	h15.11L99.38,14.5z"/>
<path class="st1" d="M161.02,52.02h-8.12l-18.48-30l-3-4.95l-1.52-2.44l-1.45-2.45h-0.13l0.07,1.65v38.19h-4.95v-44h8.19l16,26.27
	l4.22,6.86l2.12,3.43l2,3.43h0.13l-0.06-1.65V8.02h4.95L161.02,52.02z"/>
<path class="st1" d="M174.35,52.02h-4.95v-44h4.95V52.02z"/>
<path class="st0" d="M199.97,22.23h-1.57V9.69h-4.56V8.22h10.67v1.49h-4.54V22.23z"/>
<path class="st0" d="M207.34,13.64L207.34,13.64c0.38-1,1.24-1.36,3.05-1.36s2.85,0.42,3.36,1.42c0.28,0.72,0.39,1.5,0.31,2.27v6.26
	h-1.43v-6.21c0-1.11,0-1.34-0.25-1.72c-0.31-0.55-0.84-0.76-2-0.76c-1.62,0-2.48,0.36-2.82,1.2c-0.2,0.65-0.28,1.32-0.25,2v5.52
	h-1.43v-14h1.43L207.34,13.64z"/>
<path class="st0" d="M224.79,19.27c0.01,0.13,0.01,0.27,0,0.4c0,2-1.09,2.71-4.22,2.71c-3.55,0-4.37-0.95-4.37-5.09s0.84-5,4.41-5
	c2.42,0,3.38,0.46,3.87,1.87c0.29,1.12,0.39,2.29,0.29,3.44h-7c0,3.11,0.37,3.57,2.83,3.57s2.77-0.21,2.75-1.89L224.79,19.27z
	 M223.32,16.48c0.06-0.7-0.01-1.41-0.21-2.08c-0.25-0.72-0.88-1-2.46-1c-2.45,0-2.91,0.48-2.89,3.05L223.32,16.48z"/>
<path class="st0" d="M242.83,17.55c0,2.5-0.08,3-0.67,3.73s-1.53,1-3.34,1.07c-0.53,0-1.37,0-2.1,0c-2,0-2.77-0.17-3.65-0.76
	c-0.73-0.59-1.2-1.44-1.31-2.37c-0.15-1.33-0.23-2.66-0.23-4c-0.09-1.39-0.04-2.78,0.15-4.16c0.24-1.45,1.39-2.58,2.84-2.79
	c1.19-0.18,2.39-0.25,3.59-0.21c1.07-0.13,2.15,0.04,3.12,0.5c0.78,0.48,1.28,1.31,1.33,2.23c0,0.44,0.06,0.71,0.1,1.7h-1.57
	c0.1-0.8-0.02-1.61-0.34-2.35c-0.36-0.57-1-0.74-2.69-0.74c-1.25-0.08-2.5,0.03-3.71,0.32c-0.88,0.39-1.16,1.15-1.16,3.31
	c0,7.9,0,8,3.89,8s4.2-0.27,4.2-2.67v-0.79L242.83,17.55z"/>
<path class="st0" d="M253.04,17.36c0,4.18-0.74,5-4.35,5s-4.33-0.84-4.33-5.13c0-4.11,0.76-5,4.35-5S253.04,13.12,253.04,17.36z
	 M246.27,14.15c-0.38,0.99-0.52,2.06-0.41,3.12c0,3.53,0.25,3.89,2.83,3.89s2.86-0.38,2.86-3.82s-0.28-3.85-2.84-3.85
	C247.26,13.49,246.57,13.68,246.27,14.15z"/>
<path class="st0" d="M256.48,12.42v1.49l0,0c0.59-1.17,1.51-1.65,3.21-1.65s2.67,0.54,3,1.65l0,0c0.65-1.17,1.64-1.65,3.38-1.65
	c2.54,0,3.46,0.94,3.46,3.55v6.4h-1.43v-6.53c0-1.68-0.5-2.19-2.14-2.19c-1.44,0-2.41,0.4-2.73,1.14c-0.21,0.62-0.3,1.28-0.25,1.93
	v5.67h-1.35v-6.4c-0.06-1.33-0.06-1.33-0.18-1.58c-0.26-0.48-1-0.76-2-0.76c-2.14,0-2.94,0.86-2.94,3.18v5.56h-1.43v-9.81H256.48z"
	/>
<path class="st0" d="M273.32,12.42v1.49l0,0c0.59-1.17,1.51-1.65,3.21-1.65s2.67,0.54,3,1.65l0,0c0.65-1.17,1.64-1.65,3.38-1.65
	c2.54,0,3.46,0.94,3.46,3.55v6.4h-1.42v-6.53c0-1.68-0.51-2.19-2.14-2.19c-1.45,0-2.42,0.4-2.73,1.14
	c-0.22,0.62-0.31,1.28-0.26,1.93v5.67h-1.42v-6.4c-0.07-1.33-0.07-1.33-0.19-1.58c-0.25-0.48-0.95-0.76-2-0.76
	c-2.14,0-2.94,0.86-2.94,3.18v5.56h-1.42v-9.81H273.32z"/>
<path class="st0" d="M290.17,9.84h-1.43V8.22h1.43V9.84z M290.17,22.23h-1.43v-9.81h1.43V22.23z"/>
<path class="st0" d="M298.63,15.02c0-1.41-0.26-1.56-2.52-1.56s-2.54,0.19-2.54,1.56c0,0.88,0.16,1.28,0.61,1.42
	c0.25,0.11,0.25,0.11,2,0.19c0.75,0,1.5,0.05,2.25,0.15c1.3,0.23,1.91,1.07,1.91,2.73c0.07,0.81-0.22,1.61-0.78,2.2
	c-0.61,0.51-1.51,0.7-3.46,0.7c-1.79,0-2.61-0.17-3.28-0.68c-0.57-0.51-0.87-1.24-0.82-2c0-0.13,0-0.36,0-0.57h1.47
	c-0.01,0.15-0.01,0.31,0,0.46c-0.03,0.47,0.12,0.94,0.42,1.3c0.67,0.33,1.43,0.45,2.17,0.36c2.28,0,2.81-0.34,2.81-1.78
	c0-1.22-0.29-1.54-1.41-1.54c-1.26,0-2.52-0.1-3.76-0.31c-1.15-0.27-1.59-1-1.59-2.56c0-2.19,0.82-2.75,4.05-2.75
	c2.14,0,3.15,0.31,3.61,1.09c0.24,0.5,0.33,1.07,0.27,1.62L298.63,15.02z"/>
<path class="st0" d="M308.5,15.02c0-1.41-0.26-1.56-2.52-1.56s-2.54,0.19-2.54,1.56c0,0.88,0.16,1.28,0.6,1.42
	c0.26,0.11,0.26,0.11,2,0.19c0.75,0,1.5,0.05,2.25,0.15c1.3,0.23,1.91,1.07,1.91,2.73c0.06,0.81-0.22,1.61-0.78,2.2
	c-0.61,0.51-1.51,0.7-3.46,0.7c-1.79,0-2.61-0.17-3.28-0.68c-0.57-0.51-0.87-1.24-0.82-2c0-0.13,0-0.36,0-0.57h1.47
	c-0.01,0.15-0.01,0.31,0,0.46c-0.03,0.47,0.12,0.94,0.42,1.3c0.67,0.33,1.43,0.45,2.17,0.36c2.28,0,2.81-0.34,2.81-1.78
	c0-1.22-0.3-1.54-1.41-1.54c-1.26,0-2.52-0.1-3.76-0.31c-1.15-0.27-1.59-1-1.59-2.56c0-2.19,0.82-2.75,4.05-2.75
	c2.14,0,3.15,0.31,3.61,1.09c0.24,0.5,0.33,1.07,0.27,1.62L308.5,15.02z"/>
<path class="st0" d="M313.49,9.84h-1.42V8.22h1.42V9.84z M313.49,22.23h-1.42v-9.81h1.42V22.23z"/>
<path class="st0" d="M324.2,17.36c0,4.18-0.73,5-4.34,5s-4.33-0.84-4.33-5.13c0-4.11,0.76-5,4.35-5S324.2,13.12,324.2,17.36z
	 M317.44,14.15c-0.39,0.99-0.53,2.06-0.42,3.12c0,3.53,0.25,3.89,2.84,3.89s2.85-0.38,2.85-3.82s-0.27-3.85-2.83-3.85
	C318.43,13.49,317.74,13.68,317.44,14.15z"/>
<path class="st0" d="M327.63,12.42v1.35l0,0c0.46-1.07,1.42-1.51,3.27-1.51c1.62,0,2.69,0.42,3.19,1.26
	c0.32,0.72,0.44,1.52,0.34,2.31v6.38H333v-6.19c0.07-0.58-0.01-1.18-0.23-1.72c-0.25-0.55-0.86-0.76-2.08-0.76c-2.16,0-3,0.8-3,2.84
	v5.9h-1.49v-9.86H327.63z"/>
<path class="st0" d="M345.05,19.27c0.01,0.13,0.01,0.27,0,0.4c0,2-1.1,2.71-4.22,2.71c-3.55,0-4.37-0.95-4.37-5.09s0.84-5,4.41-5
	c2.41,0,3.38,0.46,3.86,1.87c0.29,1.12,0.39,2.29,0.29,3.44h-7.05c0,3.11,0.38,3.57,2.83,3.57s2.78-0.21,2.76-1.89L345.05,19.27z
	 M343.63,16.48c0.06-0.7-0.02-1.41-0.22-2.08c-0.25-0.72-0.88-1-2.45-1c-2.46,0-2.92,0.48-2.9,3.05L343.63,16.48z"/>
<path class="st0" d="M348.54,12.42l-0.15,1.14h0.05c0.56-0.99,1.66-1.54,2.79-1.39c1.87,0,2.71,0.88,2.71,2.8v0.67h-1.41v-0.8
	c0-1-0.46-1.45-1.62-1.45c-0.83-0.1-1.65,0.29-2.1,1c-0.22,0.62-0.31,1.27-0.27,1.93v5.88h-1.43v-9.78H348.54z"/>
<path class="st0" d="M360.53,13.62h-1.49v-1.2h1.49v-1.47c0-2,0.88-2.87,3-2.87c0.36,0,0.72,0.03,1.08,0.08v1.18
	c-0.53,0-0.8-0.07-1.1-0.07c-1.13,0-1.55,0.44-1.55,1.56v1.59h2.67v1.2h-2.65v8.61h-1.45V13.62z"/>
<path class="st0" d="M374.22,17.36c0,4.18-0.73,5-4.34,5s-4.33-0.84-4.33-5.13c0-4.11,0.76-5,4.35-5S374.22,13.12,374.22,17.36z
	 M367.46,14.15c-0.39,0.99-0.53,2.06-0.42,3.12c0,3.53,0.25,3.89,2.84,3.89s2.85-0.38,2.85-3.82s-0.27-3.85-2.83-3.85
	C368.45,13.49,367.76,13.68,367.46,14.15z"/>
<path class="st0" d="M377.63,12.42l-0.15,1.14l0,0c0.57-0.99,1.67-1.54,2.8-1.39c1.86,0,2.7,0.88,2.7,2.8v0.67h-1.35v-0.8
	c0-1-0.46-1.45-1.62-1.45c-0.83-0.1-1.65,0.29-2.1,1c-0.23,0.62-0.32,1.27-0.27,1.93v5.88h-1.43v-9.78H377.63z"/>
<path class="st0" d="M389.35,8.22h5.85c0.99-0.11,2,0.01,2.94,0.34c1.16,0.5,1.7,1.76,1.7,4s-0.52,3.28-1.7,3.84
	c-0.65,0.32-0.75,0.32-3.17,0.36h-4v5.48h-1.57L389.35,8.22z M394.63,15.38c3.1,0,3.61-0.37,3.61-2.75c0-1.82-0.21-2.52-0.86-2.81
	c-0.42-0.19-0.59-0.21-2.25-0.23h-4.24v5.79H394.63z"/>
<path class="st0" d="M409.44,22.23h-1.43l0.11-1.28l0,0c-0.51,1-1.56,1.47-3.26,1.47c-2.39,0-3.38-1-3.38-3.43v-6.57h1.43v6.53
	c0,1.77,0.44,2.21,2.18,2.21c2.25,0,3-0.74,3-3.11v-5.63h1.43L409.44,22.23z"/>
<path class="st0" d="M411.75,8.22h1.43v5.46l0,0c0.1-0.45,0.42-0.82,0.84-1c0.74-0.3,1.55-0.45,2.35-0.42c2.88,0,3.8,1.26,3.8,5.16
	c0,3.72-1,4.94-4,4.94c-1.67,0-2.56-0.4-3.1-1.37l0,0l0.06,1.22h-1.43L411.75,8.22z M413.22,17.02c0,3.53,0.42,4.14,2.84,4.14
	c2.18,0,2.66-0.67,2.66-3.82s-0.46-3.85-2.64-3.85S413.22,14.23,413.22,17.02z"/>
<path class="st0" d="M423.7,22.23h-1.43v-14h1.43V22.23z"/>
<path class="st0" d="M427.44,9.84h-1.43V8.22h1.43V9.84z M427.44,22.23h-1.43v-9.81h1.43V22.23z"/>
<path class="st0" d="M437.94,18.68c0.12,0.89-0.06,1.79-0.53,2.56c-0.57,0.82-1.62,1.14-3.63,1.14c-3.49,0-4.31-1-4.31-5.17
	c0-3.86,0.93-4.93,4.33-4.93c2.12,0,3.27,0.48,3.72,1.55c0.21,0.57,0.29,1.18,0.25,1.78h-1.43v-0.25c0-1.45-0.59-1.87-2.63-1.87
	c-1.23,0-1.84,0.15-2.22,0.57s-0.53,1.53-0.53,3.3c-0.12,1.12,0.09,2.24,0.59,3.25c0.3,0.4,1,0.55,2.5,0.55
	c2.1,0,2.46-0.38,2.46-2.48L437.94,18.68z"/>
<path class="st0" d="M446.36,19.27l-1.07,3h-1.66l5.12-14h2.22l5.23,14h-1.66l-1.09-3H446.36z M449.86,9.5l-3.06,8.52h6.17
	L449.86,9.5z"/>
<path class="st0" d="M458.77,12.42l-0.07,1.24l0,0c0.54-1,1.45-1.4,3.23-1.4c1.07-0.08,2.13,0.28,2.92,1c0.63,0.74,0.9,2,0.9,4.22
	c0,3.68-0.94,4.92-3.76,4.92c-1.78,0-2.64-0.36-3.21-1.31l0,0v5.36h-1.43v-14L458.77,12.42z M459.5,13.98
	c-0.48,0.42-0.71,1.55-0.71,3.4c0,3,0.55,3.78,2.85,3.78s2.65-0.7,2.65-3.76c0-3.28-0.44-3.91-2.75-3.91
	c-0.72-0.08-1.45,0.11-2.04,0.53L459.5,13.98z"/>
<path class="st0" d="M469.27,12.42l-0.07,1.24l0,0c0.54-1,1.45-1.4,3.23-1.4c1.07-0.08,2.13,0.28,2.92,1c0.63,0.74,0.9,2,0.9,4.22
	c0,3.68-0.94,4.92-3.76,4.92c-1.78,0-2.64-0.36-3.21-1.31l0,0v5.36h-1.43v-14L469.27,12.42z M470,13.98
	c-0.48,0.42-0.71,1.55-0.71,3.4c0,3,0.55,3.78,2.85,3.78s2.65-0.7,2.65-3.76c0-3.28-0.44-3.91-2.75-3.91
	c-0.72-0.08-1.45,0.11-2.04,0.53L470,13.98z"/>
<path class="st0" d="M486.74,17.36c0,4.18-0.74,5-4.35,5s-4.32-0.84-4.32-5.13c0-4.11,0.75-5,4.34-5S486.74,13.12,486.74,17.36z
	 M479.98,14.15c-0.39,0.99-0.54,2.06-0.42,3.12c0,3.53,0.25,3.89,2.83,3.89s2.86-0.38,2.86-3.82s-0.27-3.85-2.84-3.85
	C480.96,13.49,480.27,13.68,479.98,14.15L479.98,14.15z"/>
<path class="st0" d="M490.18,9.84h-1.42V8.22h1.42V9.84z M490.18,22.23h-1.42v-9.81h1.42V22.23z"/>
<path class="st0" d="M493.92,12.42v1.35l0,0c0.46-1.07,1.43-1.51,3.28-1.51c1.61,0,2.68,0.42,3.19,1.26
	c0.31,0.73,0.43,1.52,0.33,2.31v6.38h-1.42v-6.19c0.07-0.58-0.01-1.17-0.23-1.72c-0.26-0.55-0.87-0.76-2.08-0.76
	c-2.17,0-3,0.8-3,2.84v5.9h-1.49v-9.86H493.92z"/>
<path class="st0" d="M508.24,13.62h-3.78v6c0,1.21,0.28,1.53,1.37,1.53s1.47-0.34,1.47-1.87c0-0.15,0-0.27,0-0.53h1.33
	c0,0.3,0,0.59,0,0.74c0,2-0.84,2.88-2.81,2.88c-1.51,0-2.31-0.4-2.63-1.26c-0.14-0.48-0.18-0.99-0.14-1.49v-6h-1.42v-1.2H503v-2.35
	h1.42v2.35h3.78L508.24,13.62z"/>
<path class="st0" d="M511.41,12.42v1.49l0,0c0.59-1.17,1.52-1.65,3.22-1.65s2.66,0.54,3,1.65l0,0c0.65-1.17,1.64-1.65,3.38-1.65
	c2.54,0,3.47,0.94,3.47,3.55v6.4h-1.43v-6.53c0-1.68-0.51-2.19-2.14-2.19c-1.45,0-2.42,0.4-2.73,1.14c-0.22,0.62-0.3,1.28-0.25,1.93
	v5.67h-1.43v-6.4c-0.07-1.33-0.07-1.33-0.19-1.58c-0.25-0.48-1-0.76-2-0.76c-2.14,0-2.94,0.86-2.94,3.18v5.56h-1.42v-9.81H511.41z"
	/>
<path class="st0" d="M535.12,19.27c0.01,0.13,0.01,0.27,0,0.4c0,2-1.09,2.71-4.22,2.71c-3.55,0-4.36-0.95-4.36-5.09s0.84-5,4.4-5
	c2.42,0,3.39,0.46,3.87,1.87c0.29,1.12,0.39,2.29,0.29,3.44h-7c0,3.11,0.37,3.57,2.83,3.57s2.77-0.21,2.75-1.89L535.12,19.27z
	 M533.63,16.48c0.06-0.7-0.01-1.41-0.21-2.08c-0.25-0.72-0.88-1-2.45-1c-2.46,0-2.92,0.48-2.9,3.05L533.63,16.48z"/>
<path class="st0" d="M538.63,12.42v1.35l0,0c0.46-1.07,1.43-1.51,3.27-1.51c1.62,0,2.69,0.42,3.2,1.26
	c0.31,0.73,0.43,1.52,0.33,2.31v6.38H544v-6.19c0.07-0.58-0.01-1.18-0.23-1.72c-0.25-0.55-0.86-0.76-2.08-0.76c-2.16,0-3,0.8-3,2.84
	v5.9h-1.49v-9.86H538.63z"/>
<path class="st0" d="M552.93,13.62h-3.78v6c0,1.21,0.27,1.53,1.37,1.53s1.46-0.34,1.46-1.87c0-0.15,0-0.27,0-0.53h1.33
	c0,0.3,0,0.59,0,0.74c0,2-0.84,2.88-2.82,2.88c-1.51,0-2.31-0.4-2.62-1.26c-0.15-0.48-0.2-0.99-0.15-1.49v-6h-1.36v-1.2h1.36v-2.35
	h1.43v2.35h3.78V13.62z"/>
<path class="st0" d="M561.05,15.02c0-1.41-0.25-1.56-2.52-1.56s-2.54,0.19-2.54,1.56c0,0.88,0.17,1.28,0.61,1.42
	c0.26,0.11,0.26,0.11,2,0.19c0.75,0,1.5,0.05,2.25,0.15c1.3,0.23,1.91,1.07,1.91,2.73c0.06,0.81-0.22,1.61-0.78,2.2
	c-0.61,0.51-1.51,0.7-3.47,0.7c-1.78,0-2.6-0.17-3.27-0.68c-0.57-0.5-0.87-1.24-0.82-2c0-0.13,0-0.36,0-0.57h1.47
	c-0.01,0.15-0.01,0.31,0,0.46c-0.03,0.47,0.12,0.94,0.42,1.3c0.67,0.32,1.42,0.45,2.16,0.36c2.29,0,2.82-0.34,2.82-1.78
	c0-1.22-0.3-1.54-1.41-1.54c-1.26,0-2.52-0.1-3.76-0.31c-1.15-0.27-1.59-1-1.59-2.56c0-2.19,0.81-2.75,4.05-2.75
	c2.14,0,3.15,0.31,3.61,1.09c0.24,0.5,0.33,1.07,0.27,1.62L561.05,15.02z"/>
<path class="st1" d="M207.05,46.23h-2.59l-5.83-9.53l-1-1.58l-0.48-0.78l-0.47-0.77l0,0v0.52v12.14h-1.57v-14h2.58l5.1,8.36
	l1.35,2.18l0.67,1.1l0.65,1.09l0,0v-0.53V32.22h1.58L207.05,46.23z"/>
<path class="st1" d="M217.78,41.36c0,4.18-0.74,5-4.35,5s-4.32-0.84-4.32-5.13c0-4.11,0.75-5,4.34-5S217.78,37.12,217.78,41.36z
	 M211.02,38.15c-0.39,0.99-0.54,2.06-0.42,3.12c0,3.53,0.25,3.89,2.83,3.89s2.86-0.38,2.86-3.82s-0.28-3.85-2.84-3.85
	C212,37.49,211.31,37.68,211.02,38.15z"/>
<path class="st1" d="M221.22,36.42l-0.14,1.14l0,0c0.56-0.99,1.66-1.54,2.79-1.39c1.87,0,2.71,0.88,2.71,2.8v0.67h-1.41v-0.8
	c0-1-0.46-1.45-1.61-1.45c-0.84-0.1-1.65,0.29-2.1,1c-0.23,0.62-0.33,1.27-0.28,1.93v5.88h-1.42v-9.78H221.22z"/>
<path class="st1" d="M233.82,37.62h-3.78v6c0,1.21,0.28,1.53,1.37,1.53s1.47-0.34,1.47-1.87c0-0.15,0-0.27,0-0.53h1.32
	c0,0.3,0,0.59,0,0.74c0,2-0.84,2.88-2.81,2.88c-1.51,0-2.31-0.4-2.63-1.26c-0.14-0.48-0.18-0.99-0.14-1.49v-6h-1.37v-1.2h1.38v-2.35
	h1.42v2.35h3.78L233.82,37.62z"/>
<path class="st1" d="M236.99,37.64L236.99,37.64c0.37-1,1.23-1.36,3-1.36s2.86,0.42,3.36,1.42c0.28,0.72,0.39,1.5,0.31,2.27v6.26
	h-1.33v-6.21c0-1.11,0-1.34-0.26-1.72c-0.31-0.55-0.84-0.76-2-0.76c-1.62,0-2.48,0.36-2.81,1.2c-0.21,0.65-0.29,1.32-0.26,2v5.52
	h-1.42v-14H237L236.99,37.64z"/>
<path class="st1" d="M254.44,43.27c0.01,0.13,0.01,0.27,0,0.4c0,2-1.09,2.71-4.22,2.71c-3.54,0-4.36-1-4.36-5.09s0.84-5,4.41-5
	c2.41,0,3.38,0.46,3.86,1.87c0.29,1.12,0.39,2.29,0.29,3.44h-7.05c0,3.11,0.38,3.57,2.83,3.57s2.77-0.21,2.75-1.89L254.44,43.27z
	 M252.97,40.48c0.06-0.7-0.01-1.41-0.21-2.08c-0.25-0.72-0.88-1-2.45-1c-2.46,0-2.92,0.48-2.9,3.05L252.97,40.48z"/>
<path class="st1" d="M257.93,36.42l-0.15,1.14h0.05c0.57-0.98,1.68-1.52,2.8-1.37c1.87,0,2.71,0.88,2.71,2.8v0.67h-1.41v-0.8
	c0-1-0.46-1.45-1.62-1.45c-0.83-0.1-1.65,0.29-2.1,1c-0.22,0.62-0.31,1.27-0.27,1.93v5.88h-1.43v-9.8H257.93z"/>
<path class="st1" d="M266.18,36.42v1.35l0,0c0.47-1.07,1.43-1.51,3.28-1.51c1.62,0,2.69,0.42,3.19,1.26
	c0.32,0.73,0.43,1.52,0.34,2.31v6.38h-1.43v-6.19c0.07-0.58-0.01-1.18-0.23-1.72c-0.25-0.55-0.86-0.76-2.08-0.76
	c-2.16,0-3,0.8-3,2.84v5.9h-1.49v-9.86H266.18z"/>
<path class="st1" d="M281.98,46.23h-1.58v-14h1.58V46.23z"/>
<path class="st1" d="M285.78,36.42l-0.15,1.14l0,0c0.56-0.98,1.66-1.53,2.79-1.39c1.87,0,2.71,0.88,2.71,2.8v0.67h-1.4v-0.8
	c0-1-0.47-1.45-1.62-1.45c-0.84-0.1-1.65,0.29-2.1,1c-0.23,0.62-0.32,1.27-0.27,1.93v5.88h-1.43v-9.78H285.78z"/>
<path class="st1" d="M301.02,43.27c0.01,0.13,0.01,0.27,0,0.4c0,2-1.09,2.71-4.22,2.71c-3.55,0-4.37-1-4.37-5.09s0.84-5,4.41-5
	c2.42,0,3.38,0.46,3.87,1.87c0.29,1.12,0.39,2.29,0.29,3.44h-7.05c0,3.11,0.38,3.57,2.83,3.57s2.77-0.21,2.75-1.89L301.02,43.27z
	 M299.55,40.48c0.06-0.7-0.01-1.41-0.21-2.08c-0.25-0.72-0.88-1-2.45-1c-2.46,0-2.92,0.48-2.9,3.05L299.55,40.48z"/>
<path class="st1" d="M304.42,46.23H303v-14h1.42V46.23z"/>
<path class="st1" d="M306.77,39.17c0.05-2.35,0.78-2.89,3.91-2.89s4.07,0.77,4.07,3.48v6.47h-1.42l0.1-1.05l0,0
	c-0.61,0.92-1.43,1.22-3.34,1.22c-2.73,0-3.69-0.78-3.69-3c-0.08-0.94,0.25-1.86,0.9-2.54c0.87-0.47,1.86-0.67,2.85-0.58
	c0.84-0.03,1.68,0.09,2.48,0.35c0.31,0.1,0.56,0.34,0.67,0.65h0.05v-1.2c0-2.29-0.4-2.69-2.57-2.69c-2,0-2.56,0.34-2.56,1.47v0.31
	L306.77,39.17z M307.87,43.17c0,1.64,0.44,2,2.47,2c0.92,0.09,1.84-0.1,2.63-0.57c0.33-0.33,0.48-0.78,0.42-1.24
	c0-1.49-0.63-1.93-2.77-1.93c-2.29-0.01-2.75,0.28-2.75,1.73L307.87,43.17z"/>
<path class="st1" d="M318.43,36.42v1.35l0,0c0.46-1.07,1.43-1.51,3.27-1.51c1.62,0,2.69,0.42,3.2,1.26
	c0.31,0.73,0.43,1.52,0.33,2.31v6.38h-1.43v-6.19c0.07-0.58-0.01-1.18-0.23-1.72c-0.25-0.55-0.86-0.76-2.08-0.76
	c-2.16,0-3,0.8-3,2.84v5.9H317v-9.86H318.43z"/>
<path class="st1" d="M335.73,46.23h-1.43l0.07-1.28l0,0c-0.49,1-1.43,1.43-3.17,1.43c-1.1,0.11-2.19-0.26-3-1
	c-0.67-0.74-0.92-1.91-0.92-4.2c0-3.68,0.95-4.91,3.8-4.91c0.85-0.04,1.69,0.13,2.46,0.48c0.37,0.17,0.63,0.51,0.73,0.9l0,0v-5.43
	h1.43L335.73,46.23z M329.43,38.02c-0.44,0.44-0.67,1.49-0.67,3.11c0,3.35,0.46,4,2.73,4c0.77,0.08,1.54-0.13,2.16-0.59
	c0.44-0.4,0.65-1.62,0.65-3.53c0-2.77-0.63-3.55-2.83-3.55C330.74,37.41,330.02,37.61,329.43,38.02z"/>
<g>
</g>
<g>
</g>
<g>
</g>
<g>
</g>
<g>
</g>
<g>
</g>
</svg>
