<?xml version="1.0" standalone="no"?>
<!DOCTYPE svg PUBLIC "-//W3C//DTD SVG 20010904//EN"
 "http://www.w3.org/TR/2001/REC-SVG-20010904/DTD/svg10.dtd">
<svg version="1.0" xmlns="http://www.w3.org/2000/svg"
 width="700.000000pt" height="700.000000pt" viewBox="0 0 700.000000 700.000000"
 preserveAspectRatio="xMidYMid meet">
<metadata>
Created by potrace 1.14, written by Peter Selinger 2001-2017
</metadata>
<g transform="translate(0.000000,700.000000) scale(0.100000,-0.100000)"
fill="#000000" stroke="none">
<path d="M2913 6952 c-31 -3 -31 -4 -35 -65 -1 -34 -3 -680 -3 -1434 l1 -1373
-63 0 c-35 0 -65 0 -68 0 -20 -1 -131 -51 -224 -101 -62 -34 -115 -59 -118
-55 -6 6 -8 693 -2 818 l3 77 59 27 c84 39 140 120 191 280 112 351 65 712
-117 897 -210 212 -493 13 -543 -381 -10 -74 -10 -240 -2 -317 25 -219 126
-414 245 -474 81 -41 78 -17 81 -536 l3 -460 -192 -105 c-279 -152 -445 -265
-539 -365 -30 -32 -31 -36 -10 -25 14 7 39 23 55 36 101 75 289 133 421 129
313 -12 584 -220 1043 -804 132 -168 150 -189 255 -293 105 -104 190 -167 306
-227 161 -83 283 -115 437 -113 51 1 107 4 125 7 190 33 380 113 591 247 43
28 81 58 85 67 6 12 9 2610 3 2668 -2 18 -621 18 -622 0 -1 -12 -3 -178 -13
-1062 -3 -242 -7 -449 -9 -460 -5 -28 -64 -39 -77 -14 -6 10 -10 148 -10 332
l0 315 -157 0 -158 1 -1 1003 0 1003 -172 283 c-95 155 -172 285 -172 288 0 3
-13 25 -30 49 -16 24 -30 46 -30 49 0 3 -13 25 -29 48 l-29 43 -224 0 c-123 0
-237 -1 -255 -3z"/>
<path d="M1607 3214 c-161 -30 -321 -116 -503 -271 -36 -30 -64 -57 -62 -58 2
-2 35 5 73 16 181 51 277 67 395 65 141 -3 223 -23 348 -83 209 -102 371 -255
662 -628 293 -375 469 -526 720 -615 51 -19 90 -24 180 -26 63 -2 138 1 165 6
28 5 68 12 90 15 165 26 465 134 555 199 l25 17 -35 -5 c-298 -49 -670 -1
-903 115 -112 56 -223 137 -324 236 -123 121 -138 139 -296 340 -139 176 -201
248 -317 361 -262 256 -523 362 -773 316z"/>
<path d="M1059 2446 c-2 -2 -29 -6 -59 -9 -145 -15 -310 -90 -475 -215 -85
-65 -247 -229 -340 -347 -44 -55 -82 -102 -85 -105 -17 -17 -51 -72 -47 -76 3
-3 53 24 111 60 321 199 544 285 751 291 168 6 300 -26 477 -116 195 -97 325
-192 810 -584 54 -44 235 -159 304 -194 94 -47 261 -104 352 -121 219 -39 513
23 779 166 126 67 251 151 346 232 48 41 217 209 217 216 0 10 -47 -4 -184
-56 -371 -140 -672 -183 -918 -133 -46 9 -92 19 -102 21 -52 10 -161 51 -251
94 -177 84 -342 196 -670 454 -288 226 -558 366 -785 407 -65 11 -224 22 -231
15z"/>
<path d="M5155 2248 c-201 -27 -388 -135 -608 -351 -102 -101 -188 -199 -342
-392 -307 -384 -578 -564 -920 -611 -22 -3 -51 -7 -65 -10 -14 -2 -117 -7
-230 -10 -113 -3 -209 -9 -213 -14 -19 -18 209 -128 394 -191 163 -54 271 -60
412 -23 302 81 592 299 850 641 61 81 48 65 145 184 363 448 641 609 957 554
57 -10 201 -58 377 -126 14 -6 34 -9 43 -7 16 3 -122 116 -240 195 -189 127
-387 184 -560 161z"/>
<path d="M5991 1504 c0 -11 3 -14 6 -6 3 7 2 16 -1 19 -3 4 -6 -2 -5 -13z"/>
<path d="M5640 1460 c-174 -36 -344 -112 -550 -247 -97 -64 -264 -184 -280
-202 -8 -10 -151 -124 -220 -177 -325 -249 -625 -363 -945 -358 -113 1 -142 4
-280 30 -122 22 -330 86 -450 139 -91 40 -167 67 -173 61 -4 -4 34 -47 83 -95
323 -314 686 -515 988 -547 359 -39 674 98 1177 511 302 248 514 384 713 459
37 14 67 23 67 21 0 -3 11 0 25 5 83 32 269 36 390 10 193 -43 410 -147 658
-317 60 -41 111 -72 113 -70 10 9 -216 268 -341 390 -137 134 -299 254 -423
313 -60 28 -192 76 -192 69 0 -3 -12 0 -27 6 -50 19 -240 19 -333 -1z"/>
</g>
</svg>
