<?xml version="1.0" standalone="no"?>
<!DOCTYPE svg PUBLIC "-//W3C//DTD SVG 20010904//EN"
 "http://www.w3.org/TR/2001/REC-SVG-20010904/DTD/svg10.dtd">
<svg version="1.0" xmlns="http://www.w3.org/2000/svg"
 width="1280.000000pt" height="1280.000000pt" viewBox="0 0 1280.000000 1280.000000"
 preserveAspectRatio="xMidYMid meet">
<metadata>
Created by potrace 1.14, written by Peter Selinger 2001-2017
</metadata>
<g transform="translate(0.000000,1280.000000) scale(0.100000,-0.100000)"
fill="#000000" stroke="none">
<path d="M6019 9337 c0 -56 -1 -320 -2 -587 l-2 -484 -32 -7 c-18 -3 -49 -19
-69 -34 -19 -15 -37 -25 -39 -23 -2 2 -5 82 -6 178 -2 165 -1 174 18 183 31
13 75 113 78 174 0 12 3 24 6 27 5 6 3 81 -5 146 -18 150 -95 232 -157 168
-59 -62 -82 -180 -66 -331 9 -79 29 -129 71 -174 l29 -32 1 -181 c1 -99 -1
-184 -4 -188 -3 -4 -27 -23 -54 -42 -61 -43 -187 -163 -163 -154 9 3 17 10 17
15 0 5 7 9 15 9 8 0 15 5 15 12 0 6 3 8 7 5 3 -4 12 -2 20 4 17 15 96 13 125
-2 49 -26 99 -73 152 -144 31 -40 56 -76 56 -80 0 -3 5 -11 10 -18 6 -7 35
-52 65 -102 60 -98 145 -186 203 -211 64 -26 132 -22 204 14 35 17 80 46 101
64 l37 33 0 535 c0 294 0 542 0 550 0 13 -16 16 -95 15 -52 0 -95 0 -96 0 -1
0 -3 -139 -5 -310 -3 -170 -7 -316 -9 -323 -14 -39 -22 12 -21 128 1 80 -3
131 -9 131 -5 1 -23 3 -40 4 -16 1 -35 3 -40 3 -7 1 -11 140 -11 415 l0 412
-31 63 c-18 34 -29 62 -25 62 4 0 2 4 -3 8 -6 4 -26 43 -46 87 l-35 80 -82 2
-82 1 -1 -101z"/>
<path d="M5570 7886 c-19 -11 -57 -42 -85 -68 l-49 -48 54 16 c105 32 182 17
251 -48 55 -52 117 -136 163 -223 29 -54 95 -144 138 -187 77 -79 140 -94 248
-62 54 16 150 63 150 73 0 4 -42 6 -93 7 -116 1 -178 27 -254 104 -29 29 -53
57 -53 61 0 4 -6 14 -13 21 -18 18 -77 116 -77 127 0 5 -3 11 -8 13 -4 2 -26
31 -50 65 -104 154 -221 208 -322 149z"/>
<path d="M5373 7565 c-63 -32 -138 -113 -194 -207 -21 -36 -39 -69 -39 -72 0
-3 30 18 68 46 89 68 144 92 212 92 86 0 142 -36 314 -207 115 -114 163 -154
212 -178 88 -44 150 -42 250 6 41 20 74 40 74 45 0 6 5 10 10 10 17 0 150 143
150 162 0 3 -27 -7 -59 -22 -97 -47 -166 -63 -242 -57 -102 9 -169 49 -317
192 -68 66 -130 126 -137 133 -8 7 -42 27 -77 45 -85 45 -152 48 -225 12z"/>
<path d="M6681 7494 c-57 -28 -136 -110 -199 -209 -98 -154 -136 -206 -177
-244 -44 -41 -123 -87 -132 -77 -3 3 -14 1 -24 -4 -10 -6 -50 -11 -89 -12 -38
-1 -70 -4 -70 -6 0 -26 140 -95 195 -96 87 -1 198 84 289 222 25 38 46 74 46
81 0 6 5 11 10 11 6 0 10 5 10 11 0 28 152 217 171 212 5 -2 9 1 9 6 0 13 67
34 102 33 16 0 42 -8 60 -16 17 -9 37 -16 45 -16 7 0 13 -4 13 -9 0 -5 9 -11
20 -14 11 -3 20 -3 20 -1 0 12 -102 102 -136 121 -59 33 -105 34 -163 7z"/>
<path d="M6864 7181 c-76 -26 -127 -63 -244 -181 -184 -183 -240 -215 -371
-213 -63 1 -122 19 -209 63 -33 17 -60 27 -60 24 0 -10 70 -95 110 -133 53
-51 144 -107 192 -119 55 -13 115 -9 154 11 18 9 34 13 38 10 3 -4 6 -1 6 5 0
7 5 12 10 12 15 0 29 12 169 147 163 158 177 170 234 199 57 30 108 35 165 18
43 -12 120 -57 157 -91 11 -10 35 -29 52 -41 30 -22 29 -18 -23 57 -143 209
-253 276 -380 232z"/>
<path d="M6255 6302 c-9 -9 -5 -501 4 -506 15 -10 33 22 31 56 -1 18 -2 67 -1
108 l1 76 35 1 c73 2 103 52 103 175 0 84 -4 97 -27 95 -14 -1 -17 -13 -16
-83 0 -93 -14 -120 -64 -122 l-30 -1 -3 80 c-2 44 1 84 7 90 5 6 5 9 -3 9 -6
0 -9 6 -6 13 5 13 -20 20 -31 9z"/>
<path d="M6485 6300 c-3 -5 -6 -103 -6 -217 0 -323 -2 -295 19 -284 16 8 17
29 16 253 -1 133 -2 246 -3 251 -2 10 -19 9 -26 -3z"/>
<path d="M6630 6246 c-31 -10 -35 -15 -38 -50 -3 -38 -3 -38 20 -22 46 32 80
17 98 -43 11 -40 -11 -67 -41 -51 -11 6 -19 7 -19 1 0 -5 -11 -12 -24 -15 -33
-8 -56 -77 -52 -153 4 -69 12 -92 39 -114 28 -23 75 -7 83 28 7 28 25 12 19
-18 -3 -12 2 -15 17 -11 19 5 20 11 16 186 -3 148 -7 188 -21 217 -23 47 -52
60 -97 45z m84 -251 c-1 -84 -29 -145 -65 -145 -26 0 -39 30 -39 89 0 40 4 53
23 66 31 22 82 16 81 -10z"/>
<path d="M6912 6252 c-12 -2 -27 -12 -32 -23 -12 -22 -35 -26 -27 -5 7 17 -19
30 -29 15 -3 -6 -6 -105 -6 -221 0 -165 3 -212 13 -219 7 -4 16 -6 18 -3 3 2
5 75 6 162 0 107 5 167 14 189 13 32 42 50 61 38 23 -14 32 -122 31 -378 0
-13 4 -15 18 -8 15 9 17 27 15 188 -3 219 -20 275 -82 265z"/>
<path d="M7148 6248 c-16 -5 -28 -16 -28 -24 0 -8 -6 -14 -14 -14 -9 0 -13 7
-11 18 2 12 -3 18 -16 18 -18 0 -19 -11 -19 -223 0 -122 4 -224 8 -227 21 -13
27 20 29 161 1 165 12 218 45 227 50 12 60 -29 60 -237 0 -81 4 -149 8 -152
22 -13 28 32 26 200 -2 143 -6 186 -19 211 -23 44 -37 53 -69 42z"/>
<path d="M7487 6242 c-15 -9 -27 -22 -27 -29 0 -6 -4 -14 -9 -17 -4 -3 -8 2
-8 12 0 34 -3 40 -20 36 -17 -5 -18 -22 -15 -225 2 -132 7 -219 12 -219 6 0
13 1 18 3 4 1 7 65 8 142 0 177 8 218 40 236 21 11 27 10 42 -4 15 -15 17 -44
20 -202 3 -174 4 -184 21 -176 16 9 18 26 16 188 -1 136 -6 187 -18 215 -21
49 -45 61 -80 40z"/>
<path d="M7313 6238 c-11 -15 -12 -438 0 -439 24 -2 27 20 27 220 1 204 -5
248 -27 219z"/>
<path d="M7670 6206 c-11 -25 -23 -71 -25 -103 -2 -32 -5 -60 -6 -63 -11 -34
16 -178 40 -210 31 -43 81 -36 101 15 13 31 12 -51 -1 -98 -12 -46 -49 -68
-80 -49 -30 19 -39 14 -35 -19 4 -37 19 -49 62 -49 40 0 70 30 85 83 15 54 21
507 7 524 -15 18 -28 6 -28 -25 l0 -27 -16 33 c-14 26 -22 32 -49 32 -29 0
-36 -5 -55 -44z m111 -80 c16 -57 6 -209 -15 -241 -20 -31 -49 -32 -63 -2 -23
45 -32 86 -22 93 6 3 6 10 1 17 -10 12 -8 73 3 135 3 17 16 41 27 52 20 19 23
19 40 3 10 -9 23 -35 29 -57z"/>
</g>
</svg>
