<svg enable-background="new 0 0 284.7 51.6" viewBox="0 0 284.7 51.6" xmlns="http://www.w3.org/2000/svg"><path d="m11 3.1c-1.7.1-2.4-2.2-2.4-2.2s1 1.3 2.4 1.3c1.4-.1 2.3-1.5 2.3-1.5s-.5 2.3-2.3 2.4" fill="#002d62"/><path d="m14.9 3.9c-1.6-.8-1.1-3-1.1-3s.2 1.6 1.5 2.2 2.7-.2 2.7-.2-1.6 1.7-3.1 1" fill="#002d62"/><path d="m17.9 6.5c-1-1.4.5-3.2.5-3.2s-.6 1.5.2 2.7 2.5 1.1 2.5 1.1-2.2.8-3.2-.6" fill="#002d62"/><path d="m19.4 10.1c-.2-1.7 2-2.6 2-2.6s-1.2 1.1-1.1 2.5c.2 1.4 1.6 2.2 1.6 2.2s-2.3-.3-2.5-2.1" fill="#002d62"/><path d="m19 14.1c.5-1.7 2.8-1.6 2.8-1.6s-1.6.5-2 1.8c-.4 1.4.6 2.6.6 2.6s-1.9-1.2-1.4-2.8" fill="#002d62"/><path d="m16.9 17.4c1.2-1.2 3.2-.1 3.2-.1s-1.6-.3-2.6.7-.7 2.6-.7 2.6-1.1-2 .1-3.2" fill="#002d62"/><path d="m13.5 19.3c1.7-.5 2.8 1.6 2.8 1.6s-1.2-1.1-2.6-.7-1.9 1.9-1.9 1.9 0-2.4 1.7-2.8" fill="#002d62"/><path d="m9.6 19.4c1.7.4 1.7 2.7 1.7 2.7s-.6-1.5-2-1.9c-1.4-.3-2.6.8-2.6.8s1.2-2 2.9-1.6" fill="#002d62"/><path d="m6 17.7c1.3 1.1.3 3.2.3 3.2s.2-1.6-.9-2.6c-1.1-.9-2.7-.5-2.7-.5s2-1.3 3.3-.1" fill="#002d62"/><path d="m3.8 14.5c.6 1.6-1.2 3-1.2 3s.9-1.4.4-2.7-2.1-1.7-2.1-1.7 2.3-.2 2.9 1.4" fill="#002d62"/><path d="m3.1 10.6c-.1 1.7-2.3 2.2-2.3 2.2s1.4-.8 1.5-2.3c.1-1.4-1.3-2.4-1.3-2.4s2.1.8 2.1 2.5" fill="#002d62"/><path d="m4.3 6.9c-.9 1.5-3.1.8-3.1.8s1.6-.1 2.4-1.3c.7-1.2.1-2.7.1-2.7s1.5 1.7.6 3.2" fill="#002d62"/><path d="m7.2 4.2c-1.6.8-3.2-.8-3.2-.8s1.5.7 2.7 0c1.3-.7 1.4-2.4 1.4-2.4s.6 2.3-.9 3.2" fill="#002d62"/><g fill="#b95915"><path d="m11.7.7v.3c0 .1-.1.2-.1.2-.1.1-.1.1-.2.2-.1 0-.2.1-.3.1s-.2 0-.3 0-.2-.1-.2-.1c-.1-.3-.2-.4-.2-.4 0-.1-.1-.2-.1-.3s0-.2 0-.3.1-.2.1-.2c.1-.1.1-.1.2-.2.2 0 .3 0 .4 0h.3c.1 0 .2.1.2.1.1.1.1.1.2.2z"/><path d="m16.6 2.1c0 .1-.1.2-.2.2-.1.1-.1.1-.2.1s-.2 0-.3 0-.2 0-.3-.1c-.1 0-.2-.1-.2-.2-.1-.1-.1-.1-.1-.2s0-.2 0-.3 0-.2.1-.3c0-.1.1-.2.2-.2.1-.1.1-.1.2-.1h.3c.1 0 .2 0 .3.1.1 0 .2.1.2.2.1.1.1.1.1.2v.3c-.1.1-.1.2-.1.3"/><path d="m20.3 5.6c-.1.1-.2.1-.2.1-.1 0-.2 0-.3 0s-.2 0-.2-.1c-.1 0-.1-.1-.2-.2s-.1-.2-.1-.2c0-.1 0-.2 0-.3s0-.2.1-.3c0-.1.1-.1.2-.2s.2-.1.2-.1h.3c.1 0 .2 0 .2.1.1 0 .1.1.2.2s.1.2.1.2v.3c0 .1 0 .2-.1.3s-.2.2-.2.2"/><path d="m21.9 10.4c-.1 0-.2 0-.3 0s-.2-.1-.2-.1c-.1-.1-.1-.1-.2-.2 0-.1-.1-.2-.1-.2 0-.1 0-.2 0-.3s.1-.2.1-.2c.1-.1.1-.1.2-.2.1 0 .2-.1.2-.1h.3c.1 0 .2.1.2.1.1.1.1.1.2.2 0 .1.1.2.1.2v.3c0 .1-.1.2-.1.2-.1.1-.1.1-.2.2 0 .1-.1.1-.2.1"/><path d="m21.1 15.5c-.1 0-.2-.1-.2-.1-.1-.1-.1-.1-.2-.2 0-.1-.1-.2-.1-.3s0-.2 0-.3.1-.2.1-.2c.1-.1.1-.1.2-.2.1 0 .2-.1.3-.1h.3c.1 0 .2.1.2.1.1.1.1.1.2.2 0 .1.1.2.1.3v.3c0 .1-.1.2-.1.2-.1.1-.1.1-.2.2-.1 0-.2.1-.3.1s-.2 0-.3 0"/><path d="m18.1 19.6c-.1-.1-.1-.1-.1-.2s0-.2 0-.3 0-.2.1-.3c0-.1.1-.2.2-.2.1-.1.1-.1.2-.1h.3c.1 0 .2 0 .3.1.1 0 .2.1.2.2.1.1.1.1.1.2v.3c0 .1 0 .2-.1.3 0 .1-.1.2-.2.2-.1.1-.1.1-.2.1s-.2 0-.3 0-.2 0-.3-.1-.2-.1-.2-.2"/><path d="m13.5 21.8c0-.1 0-.2 0-.3s0-.2.1-.3c0-.1.1-.1.2-.2s.1-.1.2-.1h.3c.1 0 .2 0 .3.1.1 0 .1.1.2.2s.1.1.1.2v.3c0 .1 0 .2-.1.3 0 .1-.1.1-.2.2s-.1.1-.2.1-.2 0-.3 0-.2 0-.3-.1c-.1 0-.1-.1-.2-.2-.1 0-.1-.1-.1-.2"/><path d="m8.4 21.6c0-.1.1-.2.1-.2 0-.1.1-.1.2-.2.1 0 .2-.1.2-.1h.3c.1 0 .2.1.2.1l.2.2c.1.1.1.2.1.2v.3c0 .1-.1.2-.1.2 0 .1-.1.1-.2.2s-.2.1-.2.1c-.1 0-.2 0-.3 0s-.2-.1-.2-.1c-.1-.1-.1-.1-.2-.2s-.1-.2-.1-.2c0-.1 0-.2 0-.3"/><path d="m4 19.1s.1-.1.2-.1.2-.1.3-.1h.3c.1 0 .2.1.2.1 0 .1 0 .2.1.2 0 .1.1.2.1.3v.3c0 .1-.1.2-.1.2-.1.1-.1.1-.2.2-.1 0-.2.1-.3.1s-.2 0-.3 0-.2-.1-.2-.1c-.1-.2-.2-.2-.2-.3s-.1-.2-.1-.3 0-.2 0-.3c.1 0 .1-.1.2-.2"/><path d="m1.2 14.8c.1 0 .2-.1.3-.1s.2 0 .3.1c.1 0 .2.1.2.1 0 .1 0 .2.1.3 0 .1.1.2.1.3s0 .2-.1.3c0 .1-.1.2-.1.2-.1.1-.1.1-.2.1s-.2.1-.3.1-.2 0-.3-.1c-.1 0-.2-.1-.2-.1-.1-.1-.1-.1-.1-.2s-.1-.2-.1-.3 0-.2.1-.3c0-.1.1-.2.1-.2 0-.1.1-.1.2-.2"/><path d="m.7 9.7c.1 0 .2 0 .3.1.1 0 .1.1.2.2s.1.1.1.2v.3c0 .1 0 .2-.1.3 0 .1-.1.1-.2.2 0 0 0 .1-.1.1s-.2 0-.3 0-.2 0-.3-.1c-.1 0-.1-.1-.2-.2s-.1-.1-.1-.2 0-.2 0-.3 0-.2.1-.3c0-.1.1-.1.2-.2s.1-.1.2-.1c.1.1.1 0 .2 0"/><path d="m2.7 5c.1 0 .1.1.2.2 0 .1.1.2.1.3v.3c0 .1 0 .2-.1.2s-.1.1-.2.2c-.1 0-.2 0-.2.1-.1 0-.2 0-.3 0s-.2 0-.2-.1c-.1-.1-.2-.1-.2-.2-.1-.1-.1-.2-.1-.3s0-.2 0-.3 0-.2.1-.2c0-.1.1-.1.2-.2 0 0 .1 0 .2-.1h.3s.1.1.2.1"/><path d="m6.6 1.7c0 .1.1.2.1.3v.3c0 .1-.1.2-.1.2-.1.1-.2.1-.3.2-.1 0-.2.1-.3.1s-.2 0-.3 0-.2-.1-.2-.1c0-.1-.1-.2-.1-.3s-.1-.2-.1-.3 0-.2 0-.3.1-.2.1-.2c.1-.1.1-.1.2-.2.1 0 .2-.1.2-.1h.3c.1 0 .2.1.2.1.2.2.2.3.3.3"/><path d="m31.9 36.1c.1-.5.3-.8.3-.9s-.1-.2-.2-.2l-.3-.1c-.1-.1 0-.2 0-.2h.4.4.5v.1c0 .1.1.4.4 1.1l.8 2c.2.4.3.7.4.9.1 0 .1-.1.1-.2l.6-2c.2-.8.4-1.3.4-1.5 0-.1 0-.2-.2-.2h-.3c0-.1 0-.2 0-.2h.9.8s.1.2 0 .2h-.2c-.2 0-.3.1-.4.1-.1.1-.4.8-.6 1.6l-.6 1.8c-.3.8-.4 1.1-.5 1.6 0 0-.1.1-.2 0-.1-.3-.2-.7-.7-1.9l-.7-1.4c-.2-.5-.4-1-.5-1.3 0 0-.1.3-.3.7l-.6 2.1c-.2.5-.3 1.2-.3 1.3-.1.3.1.3.4.3h.2v.2c-.2 0-.5 0-.9 0-.3 0-.6 0-.8 0 0 0-.1-.1 0-.2h.2c.1 0 .3 0 .4-.1s.3-.5.6-1.5z"/><path d="m37.4 37.3c-.5.6-.8 1.6-.8 2 0 .3.1.5.3.5s.4-.1.6-.4c.3-.5.7-1.5.7-1.9 0-.2 0-.5-.3-.5-.1 0-.3 0-.5.3m1.4.4c0 .4-.3 1.2-.8 1.8-.5.5-.9.5-1.1.5-.5 0-.8-.4-.8-1.1 0-.5.3-1.3.9-1.8.4-.4.8-.5 1.1-.5.5.1.8.5.7 1.1"/><path d="m40.6 37.5-.3 1c.2-.4.6-1.1.8-1.3s.4-.4.6-.4c.3 0 .3.3.3.4s-.1.3-.2.5c-.1.1-.2.1-.3 0 0-.2-.1-.3-.2-.3s-.2.1-.3.2c-.5.6-.9 1.6-1.3 2.5 0 .1-.1.1-.1.1-.1 0-.3 0-.3-.2.1-.3.6-1.7.8-2.5 0-.1 0-.2-.1-.2-.2 0-.4.2-.6.4-.1 0-.1 0-.1-.1.3-.4.6-.8.9-.8.6-.1.5.5.4.7"/><path d="m43.5 37.2-.7 2.1c0 .2 0 .2.1.2s.6-.4.9-.7c.1 0 .1 0 .1.1-.4.7-1.2 1.1-1.5 1.1-.1 0-.2-.1-.2-.2s0-.2.1-.5l.7-2.2h-.6c0-.1 0-.2.1-.2l.6-.1.4-.8h.3l-.2.8h.9c.1.1 0 .2-.1.3h-.9z"/><path d="m46.6 34.3c-.2.4-.4 1.2-.6 1.6l-.8 2.4c.6-.8 1-1.1 1.3-1.3s.5-.3.8-.3.5.3.5.5c0 .5-.3 1.3-.6 1.9-.2.3-.3.4-.5.6-.3.3-.5.3-.6.3-.3 0-.3-.2-.3-.2 0-.1.1-.3.2-.3h.1c.1 0 .2.1.2.1.1 0 .2-.1.3-.4.2-.5.6-1.6.6-2 0-.2-.1-.2-.2-.2s-.3.1-.4.2c-.3.3-.6.5-1 1.1-.4.5-.8 1.2-1 1.6 0 .1-.1.1-.1.1-.1 0-.3 0-.2-.2l1.5-4.5c.2-.5.2-.6.1-.7l-.2-.1v-.1c.1 0 .6-.1.9-.1z"/><path d="m49.4 37.4c-.3.3-.5.7-.6.9.5-.2.8-.3 1.1-.6.2-.2.3-.5.3-.5 0-.1 0-.2-.2-.2-.1 0-.3 0-.6.4m1.3-.2c0 .6-.8 1-1.9 1.3-.1.1-.1.4-.1.7s.2.5.4.5c.3 0 .5-.2.8-.5.1 0 .1.1.1.1-.5.6-.9.7-1.3.7-.5 0-.6-.4-.6-.8 0-.5.3-1.5 1.2-2.1.4-.3.7-.4 1-.4.2 0 .4.3.4.5"/><path d="m52.1 37.5-.3 1c.2-.4.6-1.1.8-1.3s.4-.4.6-.4c.3 0 .3.3.3.4s-.1.3-.2.5c-.1.1-.2.1-.3 0 0-.2-.1-.3-.2-.3s-.2.1-.3.2c-.5.6-.9 1.6-1.3 2.5 0 .1-.1.1-.1.1-.1 0-.3 0-.3-.2.1-.3.6-1.7.8-2.5 0-.1 0-.2-.1-.2-.2 0-.4.2-.6.4-.1 0-.1 0-.1-.1.3-.4.6-.8.9-.8.6-.1.5.5.4.7"/><path d="m54.6 38.4c.6-.8 1.4-1.7 2-1.7.3 0 .4.2.4.4 0 .1-.1.4-.1.6-.1.4-.7 1.7-.7 1.8v.2c.1 0 .5-.3.7-.5.1 0 .1 0 .1.1-.3.5-.9.9-1.4.9-.1 0-.2-.1-.2-.2s0-.1.2-.5.5-1.2.6-1.6c.1-.1.2-.4.2-.6 0-.1 0-.2-.1-.2-.2 0-.7.4-1.1.9s-.7 1.1-1.2 2c0 .1-.1.1-.1.1-.1 0-.3 0-.2-.2 0-.1.9-2.4.9-2.5s0-.2 0-.2c-.2 0-.5.2-.7.4-.1 0-.1-.1-.1-.1.3-.4.8-.7 1.2-.7.2 0 .3.1.2.3z"/><path d="m61.1 35.9c.2-.7.3-.9-.2-.9h-.2c0-.1 0-.2 0-.2h.9 1c.1 0 .1.2 0 .2h-.2c-.4 0-.4.1-.7.9l-.9 3c-.2.7-.3.9.1.9h.2v.2c-.4 0-.7 0-1 0s-.6 0-.9 0c-.1 0-.1-.2 0-.2h.2c.4 0 .5-.1.7-.9z"/><path d="m63.4 37.5-.3 1c.2-.4.6-1.1.8-1.3s.4-.4.6-.4c.3 0 .3.3.3.4s-.1.3-.2.5c-.1.1-.2.1-.3 0 0-.2-.1-.3-.2-.3s-.2.1-.3.2c-.5.6-.9 1.6-1.3 2.5 0 .1-.1.1-.1.1-.1 0-.3 0-.3-.2.1-.3.6-1.7.8-2.5 0-.1 0-.2-.1-.2-.2 0-.4.2-.6.4-.1 0-.1 0-.1-.1.3-.4.6-.8.9-.8.7-.1.5.5.4.7"/><path d="m66 37.4c-.3.3-.5.7-.6.9.5-.2.8-.3 1.1-.6.2-.2.3-.5.3-.5 0-.1 0-.2-.2-.2-.1 0-.3 0-.6.4m1.3-.2c0 .6-.8 1-1.9 1.3-.1.1-.1.4-.1.7s.2.5.4.5c.3 0 .5-.2.8-.5.1 0 .1.1.1.1-.5.6-.9.7-1.3.7-.5 0-.6-.4-.6-.8 0-.5.3-1.5 1.2-2.1.4-.3.7-.4 1-.4.2 0 .4.3.4.5"/><path d="m68 39.4c-.1.2-.1.3 0 .3.2 0 .5-.4.9-.8.1 0 .1 0 .1.1-.2.4-.7 1.1-1.4 1.1-.2 0-.3-.1-.3-.2s0-.3.2-.7l1.3-3.8c.2-.6.1-.6 0-.7l-.1-.1v-.1c.1-.1.6-.2 1-.2-.1.3-.2.5-.5 1.4z"/><path d="m70.8 37.4c-.5.5-1 1.5-1 2.1 0 .1 0 .2.1.2s.3-.1.8-.5c.6-.6.9-1.2 1.1-1.7-.1-.2-.2-.3-.4-.3-.2-.1-.3 0-.6.2m1.4-.9c.1-.1.3 0 .4.1-.1.3-.8 2-1.1 2.8 0 .1 0 .2.1.2s.4-.1.8-.5c.1 0 .1 0 .1.1-.3.4-.9.9-1.3.9-.2 0-.2-.2-.2-.2 0-.1 0-.1.1-.3l.3-.7c-.6.7-1.4 1.2-1.7 1.2-.2 0-.3-.2-.3-.4s.2-.8.7-1.5c.4-.5.7-.8 1-1s.5-.2.7-.2h.2s.1.1.2.2z"/><path d="m73.9 38.4c.6-.8 1.4-1.7 2-1.7.3 0 .4.2.4.4 0 .1-.1.4-.1.6-.1.4-.7 1.7-.7 1.8v.2c.1 0 .5-.3.7-.5.1 0 .1 0 .1.1-.3.5-.9.9-1.4.9-.1 0-.2-.1-.2-.2s0-.1.2-.5.5-1.2.6-1.6c.1-.1.2-.4.2-.6 0-.1 0-.2-.1-.2-.2 0-.7.4-1.1.9s-.7 1.1-1.2 2c0 .1-.1.1-.1.1-.1 0-.3 0-.2-.2 0-.1.9-2.4.9-2.5s0-.2 0-.2c-.2 0-.5.2-.7.4-.1 0-.1-.1-.1-.1.3-.4.8-.7 1.2-.7.2 0 .3.1.2.3z"/><path d="m78.6 37.3c-.3.3-.9 1-1.1 1.5s-.2.6-.2.8c0 .1.1.2.2.2s.5-.1 1.1-.7.8-1.1 1-1.5c.1-.3 0-.6-.2-.6-.4 0-.6.1-.8.3m1.6-2c.2-.4.2-.6.1-.7h-.3v-.1c.1-.1.6-.2.9-.2-.1.4-.3.7-.5 1.4-.8 2.2-1.2 3.4-1.2 3.7v.2c.1 0 .6-.4.9-.7.1 0 .1 0 .1.1-.2.4-.9 1.1-1.3 1.1-.2 0-.3-.1-.3-.3 0-.1 0-.2.1-.5l.3-.8c-.5.7-1.1 1.5-1.9 1.5-.3 0-.5-.3-.5-.6 0-.6.4-1.5 1.1-2.1.5-.5 1-.7 1.4-.7.1 0 .3.1.4.2z"/><path d="m84.3 35.9c.2-.7.2-.9-.2-.9h-.2c0-.1 0-.2 0-.2h.9.9c.1 0 .1.2 0 .2h-.2c-.4.1-.4.2-.7.9l-1.1 3.6c-.1.4-.3.8-.5 1.2-.3.6-.8.9-1.5.9-.2 0-.5-.1-.5-.2s.1-.3.3-.3c.1 0 .2.1.3.1.1.1.2.1.4.1s.4-.3.5-.7c.1-.2.3-.7.5-1.6z"/><path d="m85.8 39.3c-.1.2 0 .3.1.3s.4-.3.8-.7c.7-.7 1.1-1.6 1.4-2.1.2 0 .4 0 .4.1-.1.2-.6 1.5-.9 2.5v.2c.2 0 .6-.4.8-.6.1 0 .1 0 .1.1-.2.4-1 1-1.4 1-.1 0-.2-.2-.2-.3l.5-1.5c-.6.7-1.6 1.7-2 1.7-.3 0-.4-.3-.2-.7l.7-1.9c.1-.2.1-.2 0-.2s-.6.3-.8.5c-.1 0-.1 0-.1-.1.2-.3 1-.9 1.4-.9.1 0 .3.1.2.2z"/><path d="m90.6 37.3c-.3.3-.9 1-1.1 1.5s-.2.6-.2.8c0 .1.1.2.2.2s.5-.1 1.1-.7.8-1.1 1-1.5c.1-.3 0-.6-.2-.6-.3 0-.5.1-.8.3m1.6-2c.2-.4.2-.6.1-.7l-.2-.1v-.1c.2-.1.6-.2.9-.2-.1.4-.3.7-.5 1.4-.8 2.2-1.2 3.4-1.2 3.7v.2c.1 0 .6-.4.9-.7.1 0 .1 0 .1.1-.2.4-.9 1.1-1.3 1.1-.2 0-.3-.1-.3-.3 0-.1 0-.2.1-.5l.3-.8c-.5.7-1.1 1.5-1.9 1.5-.3 0-.5-.3-.5-.6 0-.6.4-1.5 1.1-2.1.5-.5 1-.7 1.4-.7.1 0 .3.1.4.2z"/><path d="m94.7 35.4c0 .2-.2.5-.4.5s-.3-.2-.3-.3c0-.2.1-.5.4-.5.2 0 .3.1.3.3m-1 2c0-.1 0-.1 0-.1-.1 0-.3.1-.7.4-.1 0-.1-.1-.1-.1.4-.5 1-.8 1.3-.8.1 0 .1 0 .1.1v.3l-.9 2.3v.2c.1 0 .6-.3.8-.6.1 0 .1.1.1.1-.1.2-.9.9-1.5.9 0 0-.1 0-.1-.1s-.1-.1 0-.2z"/><path d="m97.5 37.2c0 .3-.3.4-.4.4s-.1 0-.2-.1c0-.2 0-.4-.3-.4-.2 0-.4.2-.7.5-.3.4-.5 1-.5 1.6 0 .4.1.5.3.5.3 0 .6-.2.9-.5.1 0 .1.1.1.1-.3.4-.8.7-1.3.7-.3 0-.6-.2-.6-.8 0-.5.3-1.4 1-2 .3-.3.7-.5 1-.5.5 0 .7.2.7.5"/><path d="m99.6 35.4c0 .2-.2.5-.4.5s-.3-.2-.3-.3c0-.2.1-.5.4-.5.2 0 .3.1.3.3m-1 2c0-.1 0-.1 0-.1-.1 0-.3.1-.7.4-.1 0-.1-.1-.1-.1.4-.5 1-.8 1.3-.8.1 0 .1 0 .1.1v.3l-.9 2.3v.2c.1 0 .6-.3.8-.6.1 0 .1.1.1.1-.1.2-.9.9-1.5.9 0 0-.1 0-.1-.1s-.1-.1 0-.2z"/><path d="m101.2 37.4c-.5.5-1 1.5-1 2.1 0 .1 0 .2.1.2s.3-.1.8-.5c.6-.6.9-1.2 1.1-1.7-.1-.2-.2-.3-.4-.3-.2-.1-.3 0-.6.2m1.4-.9c.1-.1.3 0 .4.1-.1.3-.8 2-1.1 2.8 0 .1 0 .2.1.2s.4-.1.8-.5c.1 0 .1 0 .1.1-.3.4-.9.9-1.3.9-.2 0-.2-.2-.2-.2 0-.1 0-.1.1-.3l.3-.7c-.6.7-1.4 1.2-1.7 1.2-.2 0-.3-.2-.3-.4s.2-.8.7-1.5c.4-.5.7-.8 1-1s.5-.2.7-.2h.2s.1.1.2.2z"/><path d="m103.9 39.4c-.1.2-.1.3 0 .3.2 0 .5-.4.9-.8.1 0 .1 0 .1.1-.2.4-.7 1.1-1.4 1.1-.2 0-.3-.1-.3-.2s0-.3.2-.7l1.3-3.8c.2-.6.1-.6 0-.7l-.1-.1v-.1c.1-.1.6-.2 1-.2-.1.3-.2.5-.5 1.4z"/><path d="m33.4 47.1c.1 0 .1 0 .2-.2l.1-1.7c0-.1 0-.2 0-.2s-.1 0-.3.4l-1.1 1.6c-.1.1 0 .1.1.1zm1.2 2.2v.2c-.2 0-.5 0-.9 0s-.7 0-.9 0c-.1 0-.1-.2 0-.2h.2c.2 0 .3-.1.3-.1s.1-.1.1-.5l.1-1.1c0-.2 0-.2-.2-.2h-1.1c-.2 0-.3 0-.4.2l-.6.9c-.3.4-.4.6-.4.6s0 .1.2.1h.3c.1 0 0 .2 0 .2-.2 0-.5 0-.8 0s-.6 0-.9 0v-.2h.2c.2 0 .4-.1.6-.3.2-.3.7-.9 1.3-1.8l1.4-2c.3-.5.4-.7.5-.8.3 0 .6-.3.6-.3s.1 0 .1.1 0 .5-.1 1.2l-.2 3c0 .9 0 .9.4.9z"/><path d="m35.8 48.9v.2c0 .1.2.2.3.2s.5-.1.9-.6c.4-.6.5-1.1.5-1.5s-.3-.6-.6-.6c-.1 0-.2 0-.2 0zm.9-2.5h.3c.4 0 1.1.1 1.1.9 0 .7-.4 1.4-1 1.9-.5.4-1.1.5-1.1.5-.1 0-.1 0-.2 0s-.1.1-.1.1l-.3.9c-.2.6-.2.7.1.7h.3v.2c-.6 0-1.2 0-1.7 0-.1 0-.1-.1 0-.2h.2c.4-.1.5-.3.6-.6l1.5-4.1c-.3.1-.5.2-.8.3-.1 0-.1-.1-.1-.1.3-.2.6-.3 1-.4l.2-.6c.1-.1.4 0 .5.1z"/><path d="m39.4 48.9v.2c0 .1.2.2.3.2s.5-.1.9-.6c.4-.6.5-1.1.5-1.5s-.3-.6-.6-.6c-.1 0-.1 0-.2 0zm.9-2.5h.3c.4 0 1.1.1 1.1.9 0 .7-.4 1.4-1 1.9-.5.4-1.1.5-1.1.5-.1 0-.1 0-.2 0s-.1.1-.1.1l-.3.9c-.2.6-.2.7.1.7h.3v.2c-.6 0-1.2 0-1.7 0-.1 0-.1-.1 0-.2h.2c.4-.1.5-.3.6-.6l1.5-4.1c-.3.1-.5.2-.8.3-.1 0-.1-.1-.1-.1.3-.2.6-.3 1-.4l.2-.6c.1-.1.4 0 .5.1z"/><path d="m43.4 46.9c-.5.6-.8 1.6-.8 2 0 .3.1.5.3.5s.4-.1.6-.4c.3-.5.7-1.5.7-1.9 0-.2 0-.5-.3-.5 0-.1-.2-.1-.5.3m1.5.3c0 .4-.3 1.2-.8 1.8-.5.5-.9.5-1.1.5-.5 0-.8-.4-.8-1.1 0-.5.3-1.3.9-1.8.4-.4.8-.5 1.1-.5.4.1.7.6.7 1.1"/><path d="m47.3 44.9c0 .2-.2.5-.4.5s-.3-.2-.3-.3c0-.2.1-.5.4-.5.2 0 .3.1.3.3m-.9 2c0-.1 0-.2 0-.2-.1 0-.3.1-.7.4-.1 0-.1-.1-.1-.1.4-.5 1-.8 1.3-.8.1 0 .1 0 .1.1v.3l-.9 2.3v.2c.1 0 .6-.3.8-.6.1 0 .1.1.1.1-.1.2-.9.9-1.5.9 0 0-.1 0-.1-.1s-.1-.1 0-.2z"/><path d="m48.6 48c.6-.8 1.4-1.7 2-1.7.3 0 .4.2.4.4 0 .1-.1.4-.1.6-.1.4-.7 1.7-.7 1.8v.1c.1 0 .5-.3.7-.5.1 0 .1 0 .1.1-.3.5-.9.9-1.4.9-.1 0-.2-.1-.2-.2s0-.1.2-.5.5-1.2.6-1.6c.1-.1.2-.4.2-.6 0-.1 0-.2-.1-.2-.2 0-.7.4-1.1.9s-.7 1.1-1.2 2c0 .1-.1.1-.1.1-.1 0-.3 0-.2-.2 0-.1.9-2.4.9-2.5s0-.2 0-.2c-.2 0-.5.2-.7.4-.1 0-.1-.1-.1-.1.3-.4.8-.7 1.2-.7.2 0 .3.1.2.3z"/><path d="m53 46.7-.7 2.1c0 .2 0 .2.1.2s.6-.4.9-.7c.1 0 .1 0 .1.1-.4.7-1.2 1.1-1.5 1.1-.1 0-.2-.1-.2-.2s0-.2.1-.5l.7-2.2h-.6c0-.1 0-.2.1-.2l.6-.1.4-.8h.3l-.3.9h.9c.1.1 0 .2-.1.3z"/><path d="m57 47.3-.3.7c.8-1.2 1.4-1.8 1.9-1.8.3 0 .4.2.4.4 0 .1-.1.4-.1.6-.1.4-.7 1.7-.7 1.8v.1c.1 0 .5-.3.7-.5.1 0 .1 0 .1.1-.3.5-.9.9-1.4.9-.1 0-.2-.1-.2-.2s0-.1.2-.5.5-1.2.6-1.6c.1-.1.2-.4.2-.6 0-.1 0-.2-.1-.2-.2 0-.6.4-1 1-.4.5-.8 1.1-1.2 2 0 .1-.1.1-.1.1-.1 0-.3 0-.2-.2l.8-2.1c0-.1.3-.8.1-.8s-.7.4-1.1 1c-.4.5-.7 1.1-1.2 2 0 .1-.1.1-.1.1-.1 0-.3 0-.2-.2 0-.1.9-2.4.9-2.5s0-.2-.1-.2c-.3 0-.5.2-.7.4-.1 0-.1-.1-.1-.1.2-.4.6-.7 1.2-.7.2 0 .3.1.2.3l-.7 1.4c.6-.9 1.3-1.8 1.9-1.8s.4.7.3 1.1"/><path d="m60.9 46.9c-.3.3-.5.7-.6.9.5-.2.8-.3 1.1-.6.2-.2.3-.5.3-.5 0-.1 0-.2-.2-.2-.1 0-.3.1-.6.4m1.3-.2c0 .6-.8 1-1.9 1.3-.1.1-.1.4-.1.7s.2.5.4.5c.3 0 .5-.2.8-.5.1 0 .1.1.1.1-.5.6-.9.7-1.3.7-.5 0-.6-.4-.6-.8 0-.5.3-1.5 1.2-2.1.4-.3.7-.4 1-.4.2 0 .4.3.4.5"/><path d="m63.3 48c.6-.8 1.4-1.7 2-1.7.3 0 .4.2.4.4 0 .1-.1.4-.1.6-.1.4-.7 1.7-.7 1.8v.1c.1 0 .5-.3.7-.5.1 0 .1 0 .1.1-.3.5-.9.9-1.4.9-.1 0-.2-.1-.2-.2s0-.1.2-.5.5-1.2.6-1.6c.1-.1.2-.4.2-.6 0-.1 0-.2-.1-.2-.2 0-.7.4-1.1.9s-.7 1.1-1.2 2c0 .1-.1.1-.1.1-.1 0-.3 0-.2-.2 0-.1.9-2.4.9-2.5s0-.2 0-.2c-.2 0-.5.2-.7.4-.1 0-.1-.1-.1-.1.3-.4.8-.7 1.2-.7.2 0 .3.1.2.3z"/><path d="m67.7 46.7-.7 2.1c0 .2 0 .2.1.2s.6-.4.9-.7c.1 0 .1 0 .1.1-.4.7-1.2 1.1-1.5 1.1-.1 0-.2-.1-.2-.2s0-.2.1-.5l.7-2.2h-.6c0-.1 0-.2.1-.2l.6-.1.4-.8h.3l-.2.8h.9c.1.1 0 .2-.1.3h-.9z"/><path d="m70.4 46.7c0 .1-.1.2-.1.2-.1 0-.1 0-.2-.1s-.2-.3-.5-.3c-.2 0-.3.2-.3.3 0 .2 0 .3.3.7.2.3.3.5.3.9 0 .2-.1.5-.4.8-.2.2-.5.3-.8.3s-.5-.2-.5-.4c0-.1 0-.2.1-.3s.1-.1.2 0 .3.3.5.3.4-.2.4-.5c0-.1-.1-.4-.3-.7s-.3-.6-.3-.7c0-.3.1-.5.5-.8.2-.2.5-.3.6-.3.3.1.5.4.5.6"/><path d="m78.1 44.4c-.1.3-.3.8-.4 1.1 0 .1-.2.1-.2 0 .2-.7 0-1.1-.9-1.1-.6 0-1.3.2-2 .9-.4.4-.9 1.3-.9 2.4s.5 1.7 1.5 1.7c.8 0 1.3-.5 1.7-1.1.1 0 .2 0 .2.1-.1.2-.2.6-.5 1.1-.2 0-.4 0-.6.1-.2 0-.5.1-.8.1-1 0-2.2-.5-2.2-2.1 0-.9.5-1.8 1.1-2.4.7-.6 1.6-1 2.7-1 .6-.1 1.1.1 1.3.2"/><path d="m79 46.9c-.5.6-.8 1.6-.8 2 0 .3.1.5.3.5s.4-.1.6-.4c.3-.5.7-1.5.7-1.9 0-.2 0-.5-.3-.5-.1-.1-.3-.1-.5.3m1.5.3c0 .4-.3 1.2-.8 1.8-.5.5-.9.5-1.1.5-.5 0-.8-.4-.8-1.1 0-.5.3-1.3.9-1.8.4-.4.8-.5 1.1-.5.4.1.7.6.7 1.1"/><path d="m84.1 47.3-.3.7c.8-1.2 1.4-1.8 1.9-1.8.3 0 .4.2.4.4 0 .1-.1.4-.1.6-.1.4-.7 1.7-.7 1.8v.1c.1 0 .5-.3.7-.5.1 0 .1 0 .1.1-.3.5-.9.9-1.4.9-.1 0-.2-.1-.2-.2s0-.1.2-.5.5-1.2.6-1.6c.1-.1.2-.4.2-.6 0-.1 0-.2-.1-.2-.2 0-.6.4-1 1-.4.5-.8 1.1-1.2 2 0 .1-.1.1-.1.1-.1 0-.3 0-.2-.2l.8-2.1c0-.1.3-.8.1-.8s-.7.4-1.1 1c-.4.5-.7 1.1-1.2 2 0 .1-.1.1-.1.1-.1 0-.3 0-.2-.2 0-.1.9-2.4.9-2.5s0-.2-.1-.2c-.3 0-.5.2-.7.4-.1 0-.1-.1-.1-.1.2-.4.6-.7 1.2-.7.2 0 .3.1.2.3l-.7 1.4c.6-.9 1.3-1.8 1.9-1.8s.5.7.3 1.1"/><path d="m89.9 47.3-.3.7c.8-1.2 1.4-1.8 1.9-1.8.3 0 .4.2.4.4 0 .1-.1.4-.1.6-.1.4-.7 1.7-.7 1.8v.1c.1 0 .5-.3.7-.5.1 0 .1 0 .1.1-.3.5-.9.9-1.4.9-.1 0-.2-.1-.2-.2s0-.1.2-.5.5-1.2.6-1.6c.1-.1.2-.4.2-.6 0-.1 0-.2-.1-.2-.2 0-.6.4-1 1-.4.5-.8 1.1-1.2 2 0 .1-.1.1-.1.1-.1 0-.3 0-.2-.2l.8-2.1c0-.1.3-.8.1-.8s-.7.4-1.1 1c-.4.5-.7 1.1-1.2 2 0 .1-.1.1-.1.1-.1 0-.3 0-.2-.2 0-.1.9-2.4.9-2.5s0-.2-.1-.2c-.3 0-.5.2-.7.4-.1 0-.1-.1-.1-.1.2-.4.6-.7 1.2-.7.2 0 .3.1.2.3l-.7 1.4c.6-.9 1.3-1.8 1.9-1.8s.5.7.3 1.1"/><path d="m94.5 44.9c0 .2-.2.5-.4.5s-.3-.2-.3-.3c0-.2.1-.5.4-.5.2 0 .3.1.3.3m-1 2c0-.1 0-.2 0-.2-.1 0-.3.1-.7.4-.1 0-.1-.1-.1-.1.4-.5 1-.8 1.3-.8.1 0 .1 0 .1.1v.3l-.9 2.3v.2c.1 0 .6-.3.8-.6.1 0 .1.1.1.1-.1.2-.9.9-1.5.9 0 0-.1 0-.1-.1s-.1-.1 0-.2z"/><path d="m96.6 46.7c0 .1-.1.2-.1.2-.1 0-.1 0-.2-.1s-.2-.3-.5-.3c-.2 0-.3.2-.3.3 0 .2 0 .3.3.7.2.3.3.5.3.9 0 .2-.1.5-.4.8-.2.2-.5.3-.8.3s-.5-.2-.5-.4c0-.1 0-.2.1-.3s.2-.1.2 0c.1.1.3.3.5.3s.4-.2.4-.5c0-.1-.1-.4-.3-.7s-.3-.6-.3-.7c0-.3.1-.5.5-.8.2-.2.5-.3.6-.3.3.1.5.4.5.6"/><path d="m98.6 46.7c0 .1-.1.2-.1.2-.1 0-.1 0-.1-.1-.1-.1-.2-.3-.5-.3-.2 0-.3.2-.3.3 0 .2 0 .3.3.7.2.3.3.5.3.9 0 .2-.1.5-.4.8-.2.2-.5.3-.8.3s-.5-.2-.5-.4c0-.1 0-.2.1-.3s.2-.1.2 0c.1.1.3.3.5.3s.4-.2.4-.5c0-.1-.1-.4-.3-.7s-.3-.6-.3-.7c0-.3.1-.5.5-.8.2-.2.5-.3.6-.3.3.1.4.4.4.6"/><path d="m100.8 44.9c0 .2-.2.5-.4.5s-.3-.2-.3-.3c0-.2.1-.5.4-.5.2 0 .3.1.3.3m-.9 2c0-.1 0-.2 0-.2-.1 0-.3.1-.7.4-.1 0-.1-.1-.1-.1.4-.5 1-.8 1.3-.8.1 0 .1 0 .1.1v.3l-.9 2.3v.2c.1 0 .6-.3.8-.6.1 0 .1.1.1.1-.1.2-.9.9-1.5.9 0 0-.1 0-.1-.1s-.1-.1 0-.2z"/><path d="m102.4 46.9c-.5.6-.8 1.6-.8 2 0 .3.1.5.3.5s.4-.1.6-.4c.3-.5.7-1.5.7-1.9 0-.2 0-.5-.3-.5-.1-.1-.3-.1-.5.3m1.4.3c0 .4-.3 1.2-.8 1.8-.5.5-.9.5-1.1.5-.5 0-.8-.4-.8-1.1 0-.5.3-1.3.9-1.8.4-.4.8-.5 1.1-.5.5.1.7.6.7 1.1"/><path d="m105.3 48c.6-.8 1.4-1.7 2-1.7.3 0 .4.2.4.4 0 .1-.1.4-.1.6-.1.4-.7 1.7-.7 1.8v.1c.1 0 .5-.3.7-.5.1 0 .1 0 .1.1-.3.5-.9.9-1.4.9-.1 0-.2-.1-.2-.2s0-.1.2-.5.5-1.2.6-1.6c.1-.1.2-.4.2-.6 0-.1 0-.2-.1-.2-.2 0-.7.4-1.1.9s-.7 1.1-1.2 2c0 .1-.1.1-.1.1-.1 0-.3 0-.2-.2 0-.1.9-2.4.9-2.5s0-.2 0-.2c-.2 0-.5.2-.7.4-.1 0-.1-.1-.1-.1.3-.4.8-.7 1.2-.7.2 0 .3.1.2.3z"/></g><path d="m47.8 20.5c0 .9 0 4.3.1 5-.1.2-.2.3-.5.3-.3-.5-1.2-1.5-3.7-4.3l-6.7-7.5c-.8-.9-2.7-3.2-3.3-3.9h-.1c-.1.3-.1 1-.1 1.9v6.2c0 1.3 0 5.1.5 5.9.2.3.7.5 1.5.5l.9.1c.2.2.1.6-.1.7-1.3 0-2.3-.1-3.3-.1-1.2 0-2 0-3 .1-.2-.1-.2-.5-.1-.7l.8-.1c.7-.1 1.1-.3 1.3-.6.4-1 .4-4.5.4-5.9v-8.2c0-.8 0-1.4-.6-2.1-.4-.4-1.1-.6-1.8-.7l-.5-.1c-.2-.2-.2-.6.1-.7 1.2.1 2.7.1 3.2.1s.9 0 1.3-.1c.6 1.5 3.9 5.2 4.9 6.3l2.8 3.1c2 2.2 3.4 3.8 4.7 5.2h.1c.1-.1.1-.6.1-1.2v-6.1c0-1.3 0-5.1-.6-5.9-.2-.3-.6-.4-1.8-.6l-.5-.1c-.2-.2-.2-.6.1-.7 1.3.1 2.3.1 3.4.1 1.2 0 2 0 2.9-.1.2.1.2.5.1.7l-.4.1c-.9.1-1.5.4-1.6.6-.5 1-.4 4.6-.4 5.9v6.9z" fill="#002d62"/><path d="m54.7 10.8c0-3-.1-3.5-1.7-3.7l-.7-.1c-.2-.1-.1-.6.1-.7 1.4.1 2.4.1 3.6.1 1.1 0 2.1 0 3.5-.1.2.1.2.6.1.7l-.7.1c-1.7.1-1.7.6-1.7 3.7v10.2c0 3 .1 3.4 1.7 3.6l.7.1c.2.1.1.6-.1.7-1.4-.1-2.4-.1-3.5-.1-1.2 0-2.2 0-3.6.1-.2-.1-.2-.5-.1-.7l.7-.1c1.7-.2 1.7-.6 1.7-3.6z" fill="#002d62"/><path d="m64.8 10.8c0-3.2-.3-3.5-2-3.7l-.7-.1c-.1 0-.1-.5.1-.6 1.7.1 2.6.1 3.8.1 1.1 0 2.1 0 3.3-.1.2.1.2.6.1.7l-.4.1c-1.7.2-1.7.6-1.7 3.7v10.6c0 2.3-.1 4.2-.7 5.5-.9 2.3-3 4.1-5.6 4.1-.3 0-1.2 0-1.2-.6 0-.5.4-1.3 1-1.3.3 0 .7.1 1.1.2s.8.2 1.2.2c.6 0 .9-.3 1.1-.7.7-1.3.7-5.6.7-7.2v-10.9z" fill="#002d62"/><path d="m76.6 16.2c-.2.7-.2.7.6.7h3.5c.8 0 .9-.1.6-.9l-1.5-4.7c-.2-.7-.5-1.5-.7-1.8h-.1c-.1.1-.4.8-.7 1.7zm5.6 2.5c-.2-.6-.3-.7-1.2-.7h-4.3c-.7 0-.9.1-1.1.7l-1 3c-.4 1.3-.6 2-.6 2.4 0 .3.1.5.8.6l.9.1c.2.1.2.6-.1.7-.7-.1-1.6-.1-3-.1-.9 0-2 .1-2.7.1-.2-.1-.2-.6-.1-.7l.9-.1c.7-.1 1.3-.4 1.7-1.4.5-1.3 1.3-3.2 2.5-6.4l3.1-7.7c.4-1 .6-1.6.5-2 .7-.2 1.2-.7 1.5-1.1.2 0 .4.1.4.3.4 1.3.8 2.6 1.3 3.8l3.9 11.5c.8 2.5 1.2 2.9 2.4 3l.8.1c.2.1.1.6 0 .7-1.2-.1-2.2-.1-3.5-.1-1.4 0-2.5.1-3.3.1-.2-.1-.3-.6-.1-.7l.8-.1c.6-.1 1-.2 1-.5s-.1-.8-.4-1.5z" fill="#002d62"/><path d="m92.9 8.5c2.1-1.6 4.7-2.4 7.7-2.4 1.5 0 3.7.3 5.1.7.3.1.5.1.8.1 0 .7.2 2.5.4 4.2-.1.2-.6.2-.8.1-.4-1.9-1.7-4.2-5.9-4.2-4.4 0-8.1 2.8-8.1 8.7 0 6 3.8 9.3 8.5 9.3 3.7 0 5.3-2.4 6-4.1.2-.1.6-.1.7.1-.2 1.5-.9 3.4-1.4 3.9-.3.1-.7.2-1 .3-.6.2-2.7.7-4.5.7-2.6 0-5-.5-7.1-1.9-2.3-1.6-4.1-4.2-4.1-7.8.1-3.3 1.5-6 3.7-7.7" fill="#002d62"/><path d="m123.7 22c-.5 0-.9-.1-1.3-.2s-.7-.3-.9-.4l-.3.4h-.5l.6-2.8h.5c0 .3.1.7.1 1s.2.6.4.8.4.4.6.6c.3.1.6.2 1 .2.6 0 1-.2 1.4-.5s.5-.8.5-1.3c0-.3-.1-.6-.2-.8s-.4-.4-.7-.5-.6-.2-.8-.3-.5-.2-.8-.3c-.4-.2-.6-.4-.8-.7s-.3-.7-.3-1.1.1-.7.2-1 .4-.6.7-.8.6-.4 1-.5.8-.2 1.1-.2.7 0 1 .1.6.2.9.5l.3-.4h.5l-.6 2.8h-.5c0-.3 0-.6-.1-.9s-.1-.6-.2-.8-.3-.4-.5-.5-.5-.2-.9-.2c-.5 0-.8.2-1.2.5-.3.3-.5.7-.5 1.1 0 .3.1.5.2.7s.3.4.5.5c.3.1.5.2.8.3s.5.2.8.3c.4.2.8.5 1 .8.3.3.4.7.4 1.1s-.1.8-.3 1.2-.4.7-.7.9c-.3.3-.7.5-1.1.6s-.8-.2-1.3-.2z" fill="#002d62"/><path d="m133 17.2c0 .4-.1.8-.4 1.1s-.6.5-1.1.7c-.4.1-.7.2-1.1.3s-.8.2-1.2.2c0 .6.1 1.1.3 1.4s.6.5 1 .5.7-.1 1-.3.6-.5.9-.9l.3.2c-.3.5-.7.9-1.2 1.1s-1 .4-1.5.4c-.7 0-1.2-.2-1.6-.6s-.5-.9-.5-1.6c0-.5.1-1 .2-1.4.2-.4.4-.9.7-1.2.3-.4.6-.7 1.1-.9.4-.2.9-.3 1.4-.3.6 0 1 .1 1.3.3.3.3.4.6.4 1zm-1.1-.2c0-.2 0-.3-.1-.4 0-.1-.1-.2-.2-.2s-.1-.1-.2-.1-.2 0-.2 0c-.5 0-.9.3-1.3.8s-.6 1.2-.8 1.9c.3 0 .6-.1.9-.2s.6-.2.9-.3c.3-.2.6-.4.7-.6.2-.2.3-.5.3-.9z" fill="#002d62"/><path d="m136.8 12.9-1.6 7.1c0 .1-.1.3-.1.4s0 .3 0 .4c0 .2 0 .4.1.5s.3.1.5.1h.3c.2 0 .3 0 .3-.1l-.1.4c-.4.1-.6.2-.8.3s-.4 0-.6 0c-.3 0-.5-.1-.7-.2s-.2-.4-.2-.6c0-.1 0-.2 0-.3s0-.2.1-.4l1.4-6.2c0-.1 0-.2.1-.3s0-.1 0-.2 0-.2-.1-.3-.1-.1-.2-.2c-.1 0-.2-.1-.3-.1s-.3 0-.4 0l.1-.4z" fill="#002d62"/><path d="m142.1 17.2c0 .4-.1.8-.4 1.1s-.6.5-1.1.7c-.4.1-.7.2-1.1.3s-.8.2-1.2.2c0 .6.1 1.1.3 1.4s.6.5 1 .5.7-.1 1-.3.6-.5.9-.9l.3.2c-.3.5-.7.9-1.2 1.1s-1 .4-1.5.4c-.7 0-1.2-.2-1.6-.6s-.5-.9-.5-1.6c0-.5.1-1 .2-1.4.2-.4.4-.9.7-1.2.3-.4.6-.7 1.1-.9.4-.2.9-.3 1.4-.3.6 0 1 .1 1.3.3.2.3.4.6.4 1zm-1.1-.2c0-.2 0-.3-.1-.4 0-.1-.1-.2-.2-.2s-.1-.1-.2-.1-.2 0-.2 0c-.5 0-.9.3-1.3.8s-.6 1.2-.8 1.9c.3 0 .6-.1.9-.2s.6-.2.9-.3c.3-.2.6-.4.7-.6.2-.2.3-.5.3-.9z" fill="#002d62"/><path d="m144.9 22c-.7 0-1.2-.2-1.6-.6s-.6-1-.6-1.7c0-.5.1-1 .2-1.4.2-.4.4-.8.6-1.2.3-.3.6-.6 1-.9.4-.2.9-.3 1.4-.3.6 0 1 .1 1.3.4s.4.5.4.9c0 .3-.1.5-.2.7s-.3.3-.6.3c-.2 0-.4-.1-.5-.2s-.2-.2-.2-.4c0-.1 0-.3.1-.5s.2-.4.2-.5-.1-.2-.3-.2-.3-.1-.5-.1c-.5 0-1 .3-1.4.9s-.6 1.4-.6 2.3c0 .6.1 1 .4 1.3.2.3.6.5 1 .5s.7-.1 1-.3.6-.5.8-.9l.3.2c-.3.4-.6.8-1.1 1.1s-.6.6-1.1.6z" fill="#002d62"/><path d="m149.5 22c-.4 0-.6-.1-.8-.2s-.3-.4-.3-.6c0-.1 0-.2 0-.3s0-.2 0-.3l.9-3.9h-1l.1-.5h1.1l.4-1.7h1.1l-.4 1.7h1.6l-.1.5h-1.6l-.8 3.2c0 .1-.1.3-.1.4s0 .3 0 .4c0 .2.1.4.2.5s.3.1.6.1h.4s.3-.1.4-.1l-.1.4c-.3.1-.5.2-.8.3s-.4.1-.8.1z" fill="#002d62"/><path d="m155.1 21.2-.1.4c-.4.1-.6.2-.9.3s-.4.1-.6.1c-.3 0-.5-.1-.7-.2s-.2-.4-.2-.6c0-.1 0-.2 0-.3s0-.2.1-.4l.6-2.5c0-.1.1-.3.1-.4s0-.3 0-.4c0-.2 0-.4-.1-.4s-.2-.1-.4-.1c-.1 0-.2 0-.3 0s-.2.1-.3.1l.1-.4c.3-.1.6-.2.8-.3s.4-.1.6-.1c.3 0 .6.1.7.2s.2.4.2.6v.3s0 .2-.1.4l-.6 2.5c0 .2-.1.3-.1.4s0 .3 0 .4c0 .2 0 .4.1.5s.3.1.5.1h.3s.3-.1.3-.2zm.5-7.5c0 .2-.1.4-.2.6s-.3.2-.5.2-.4-.1-.5-.2-.2-.3-.2-.5.1-.4.2-.6.3-.2.5-.2.4.1.5.2.2.3.2.5z" fill="#002d62"/><path d="m162.2 21.2-.1.4c-.4.1-.6.2-.8.3s-.4.1-.6.1c-.3 0-.5-.1-.7-.2-.2-.2-.2-.4-.2-.6 0-.1 0-.2 0-.3s0-.2.1-.4l.6-2.2c0-.2.1-.3.1-.5 0-.1 0-.2 0-.3 0-.3-.1-.5-.2-.6s-.3-.2-.6-.2c-.2 0-.5.1-.8.2-.3.2-.6.4-.8.7l-1 4.3h-1.1l.9-3.8c0-.1 0-.2.1-.4s.1-.3.1-.4c0-.2 0-.4-.1-.4-.1-.1-.2-.1-.4-.1-.1 0-.2 0-.3 0s-.2.1-.3.1l.1-.4c.3-.1.6-.2.8-.3s.4-.1.6-.1c.3 0 .5.1.7.3.1.2.2.4.2.7.4-.3.8-.6 1.1-.8s.7-.2 1.1-.2.7.1.9.3.3.5.3.9v.4s-.1.4-.1.5l-.5 1.9c0 .1-.1.3-.1.4s0 .3 0 .4c0 .2 0 .4.1.5s.3.1.5.1h.3s0-.3.1-.3z" fill="#002d62"/><path d="m166.7 21.1c-.1.1-.2.1-.4.3-.1.1-.3.2-.4.3-.2.1-.4.2-.5.3s-.4 0-.7 0c-.6 0-1-.2-1.3-.6s-.5-1-.5-1.7c0-.5.1-1 .3-1.4.2-.5.4-.9.7-1.2s.7-.6 1.1-.8.8-.3 1.3-.3c.3 0 .5 0 .8.1.2.1.5.2.6.3l1.1-.3.1.1-1 4.6c-.1.7-.3 1.3-.6 1.8-.2.5-.5.9-.8 1.1-.3.3-.7.5-1 .6s-.8.2-1.3.2c-.3 0-.6 0-.8-.1s-.4-.1-.5-.2-.2-.2-.2-.3-.1-.2-.1-.3c0-.2.1-.3.2-.4s.2-.2.4-.2c.1 0 .3 0 .4.1s.2.2.2.3c.1.1.1.2.2.4s.1.2.1.3h.2c.2 0 .4 0 .7-.1s.5-.3.7-.5.4-.5.6-.9.3-.9.4-1.5zm.8-3.8c0-.1 0-.2 0-.3s-.1-.2-.2-.3-.2-.2-.3-.2c-.1-.1-.3-.1-.5-.1-.3 0-.6.1-.9.3s-.5.4-.7.7-.4.7-.5 1.1-.2.8-.2 1.3v.6s.1.4.2.5.2.3.3.3.3.1.5.1c.3 0 .5-.1.8-.2s.5-.4.8-.6z" fill="#002d62"/><path d="m174.1 22c-.4 0-.6-.1-.8-.2s-.3-.4-.3-.6c0-.1 0-.2 0-.3s0-.2 0-.3l.9-3.9h-1l.1-.5h1.1l.4-1.7h1.1l-.4 1.7h1.6l-.1.5h-1.6l-.8 3.2c0 .1-.1.3-.1.4s0 .3 0 .4c0 .2.1.4.2.5s.3.1.6.1h.4s.3-.1.4-.1l-.1.4c-.3.1-.5.2-.8.3s-.5.1-.8.1z" fill="#002d62"/><path d="m182.9 21.2-.1.4c-.4.1-.6.2-.8.3s-.4.1-.6.1c-.3 0-.5-.1-.7-.2s-.2-.4-.2-.6c0-.1 0-.2 0-.3s0-.2.1-.4l.6-2.2c0-.2.1-.3.1-.5 0-.1 0-.2 0-.3 0-.3-.1-.5-.2-.6s-.3-.2-.6-.2c-.2 0-.5.1-.8.2-.3.2-.6.4-.8.7l-1 4.3h-1.1l1.7-7.5c0-.1 0-.2 0-.2s0-.1 0-.2 0-.2-.1-.3-.1-.1-.2-.2c-.1 0-.2-.1-.3-.1s-.3 0-.4 0l.1-.4 2.2-.1.1.1-.9 4c.4-.3.8-.6 1.1-.7.3-.2.7-.2 1.1-.2s.7.1.9.3.3.5.3.9v.4s-.1.4-.1.5l-.5 1.9c0 .1-.1.3-.1.4s-.1.3-.1.4c0 .2 0 .4.1.5s.3.1.5.1h.3s.3-.3.4-.3z" fill="#002d62"/><path d="m188.7 17.2c0 .4-.1.8-.4 1.1s-.6.5-1.1.7c-.4.1-.7.2-1.1.3s-.8.2-1.2.2c0 .6.1 1.1.3 1.4s.6.5 1 .5.7-.1 1-.3.6-.5.9-.9l.3.2c-.3.5-.7.9-1.2 1.1s-1 .4-1.5.4c-.7 0-1.2-.2-1.6-.6s-.5-.9-.5-1.6c0-.5.1-1 .2-1.4.2-.4.4-.9.7-1.2.3-.4.6-.7 1.1-.9.4-.2.9-.3 1.4-.3.6 0 1 .1 1.3.3.2.3.4.6.4 1zm-1.1-.2c0-.2 0-.3-.1-.4 0-.1-.1-.2-.2-.2s-.1-.1-.2-.1-.2 0-.2 0c-.5 0-.9.3-1.3.8s-.6 1.2-.8 1.9c.3 0 .6-.1.9-.2s.6-.2.9-.3c.3-.2.6-.4.7-.6.2-.2.3-.5.3-.9z" fill="#002d62"/><path d="m198 18.2c0 .5-.1 1-.3 1.5s-.4.9-.7 1.2c-.3.4-.7.6-1.1.8s-.8.3-1.3.3c-.3 0-.6 0-.9-.1s-.5-.1-.7-.2-.3-.2-.5-.3c-.1-.1-.2-.3-.3-.4l1.5-6.6c0-.1 0-.2.1-.2 0-.1 0-.1 0-.2s0-.2-.1-.3-.1-.1-.2-.2c-.1 0-.2-.1-.3-.1s-.3 0-.4 0l.1-.4 2.2-.1.1.1-.9 3.9c.4-.3.7-.5.9-.6.3-.1.5-.2.8-.2.6 0 1.1.2 1.4.6.5.3.6.8.6 1.5zm-1.2 0c0-.2 0-.4-.1-.6 0-.2-.1-.4-.2-.5s-.2-.3-.4-.4-.4-.1-.6-.1c-.1 0-.3 0-.4.1-.1 0-.2.1-.4.2-.1.1-.2.2-.3.3s-.2.2-.3.3l-.8 3.5c0 .1 0 .2.1.3s.1.2.2.2c.1.1.2.2.4.2s.3.1.5.1c.3 0 .6-.1.9-.3s.5-.4.7-.7.4-.7.5-1.1c.2-.6.2-1.1.2-1.5z" fill="#002d62"/><path d="m203.9 17.2c0 .4-.1.8-.4 1.1s-.6.5-1.1.7c-.4.1-.7.2-1.1.3s-.8.2-1.2.2c0 .6.1 1.1.3 1.4s.6.5 1 .5.7-.1 1-.3.6-.5.9-.9l.3.2c-.3.5-.7.9-1.2 1.1s-1 .4-1.5.4c-.7 0-1.2-.2-1.6-.6s-.5-.9-.5-1.6c0-.5.1-1 .2-1.4.2-.4.4-.9.7-1.2.3-.4.6-.7 1.1-.9.4-.2.9-.3 1.4-.3.6 0 1 .1 1.3.3.2.3.4.6.4 1zm-1.1-.2c0-.2 0-.3-.1-.4 0-.1-.1-.2-.2-.2s-.1-.1-.2-.1-.2 0-.2 0c-.5 0-.9.3-1.3.8s-.6 1.2-.8 1.9c.3 0 .6-.1.9-.2s.6-.2.9-.3c.3-.2.6-.4.7-.6.2-.2.3-.5.3-.9z" fill="#002d62"/><path d="m206.2 22c-.6 0-1.1-.1-1.4-.3s-.6-.5-.6-.8c0-.2.1-.3.2-.4s.3-.2.4-.2c.2 0 .3 0 .4.1s.2.2.2.3c.1.1.1.2.2.4s.1.3.1.3c.1.1.1.1.2.2s.3.1.4.1c.4 0 .7-.1 1-.3.2-.2.3-.5.3-.9 0-.3-.1-.5-.3-.6-.2-.2-.5-.3-.9-.4-.1 0-.3-.1-.5-.2s-.4-.2-.5-.3-.3-.3-.3-.4-.1-.6-.1-.8c0-.5.2-.9.7-1.3s1-.5 1.6-.5h.5s.4.1.6.1c.2.1.3.2.5.3s.2.3.2.5-.1.3-.2.4-.2.2-.4.2c-.1 0-.3 0-.4-.1s-.2-.1-.2-.3-.1-.2-.2-.3-.1-.2-.1-.4c-.1 0-.1-.1-.2-.1s-.1 0-.2 0c-.4 0-.7.1-.9.3s-.3.4-.3.7.1.5.3.6.5.3.9.4c.5.2.9.4 1.2.7.2.2.4.6.4.9 0 .6-.2 1.1-.7 1.5s-1.2.6-1.9.6z" fill="#002d62"/><path d="m211.1 22c-.4 0-.6-.1-.8-.2s-.3-.4-.3-.6c0-.1 0-.2 0-.3s0-.2 0-.3l.9-3.9h-1l.1-.5h1.1l.4-1.7h1.1l-.4 1.7h1.6l-.1.5h-1.6l-.8 3.2c0 .1-.1.3-.1.4s0 .3 0 .4c0 .2.1.4.2.5s.3.1.6.1h.4s.3-.1.4-.1l-.1.4c-.3.1-.5.2-.8.3s-.5.1-.8.1z" fill="#002d62"/><path d="m220.4 21.1c-.1.1-.2.2-.3.3s-.3.2-.4.3c-.2.1-.3.2-.5.3s-.4.1-.6.1c-.6 0-1-.2-1.3-.6s-.5-1-.5-1.7c0-.5.1-1 .3-1.4.2-.5.4-.9.7-1.2s.7-.6 1.1-.8.8-.3 1.3-.3c.3 0 .5 0 .8.1s.5.2.6.3l1.1-.3.1.1-.9 3.8c0 .1-.1.3-.1.4s0 .3 0 .4c0 .2 0 .4.1.5s.3.1.5.1h.3c.1 0 .2 0 .3-.1l-.1.4c-.4.1-.6.2-.8.3s-.4.1-.6.1c-.3 0-.5-.1-.7-.2-.3-.4-.4-.7-.4-.9zm.9-3.7c0-.1 0-.3 0-.4s-.1-.2-.2-.3-.2-.2-.3-.2-.3-.1-.5-.1c-.3 0-.6.1-.8.3-.3.2-.5.4-.7.8-.2.3-.4.7-.5 1.1s-.2.9-.2 1.3v.6s.1.4.2.5.2.3.3.3.3.1.5.1.4-.1.7-.2c.2-.1.5-.3.8-.6z" fill="#002d62"/><path d="m229.7 18.2c0 .5-.1 1-.3 1.5s-.4.9-.7 1.2c-.3.4-.7.7-1.1.8-.4.2-.8.3-1.2.3-.3 0-.6 0-.8-.1s-.4-.2-.6-.3l-.3 1.5c0 .1 0 .2-.1.3s0 .2 0 .2c0 .1 0 .2.1.3s.2.1.3.1.2.1.3.1.2 0 .3 0l-.1.4h-3.2l.1-.4h.4s.2 0 .3-.1c.1 0 .2-.1.3-.2s.1-.2.2-.4l1.2-5.4c0-.1.1-.3.1-.4s0-.3 0-.4c0-.2 0-.4-.1-.4s-.2-.1-.4-.1c-.1 0-.2 0-.3 0s-.2.1-.3.1l.1-.4c.3-.1.6-.2.8-.3s.4-.1.6-.1c.3 0 .5.1.6.2s.2.3.3.6c.3-.2.5-.5.9-.6s.6-.2.9-.2c.6 0 1.1.2 1.4.6.2.4.3.9.3 1.6zm-1.8 2.4c.2-.3.4-.7.5-1.1s.2-.8.2-1.3c0-.2 0-.4-.1-.6 0-.2-.1-.4-.2-.5-.1-.2-.2-.3-.4-.4s-.3-.1-.6-.1c-.2 0-.4.1-.6.2s-.5.3-.8.6l-.7 3.3c0 .2.1.4.4.6s.5.3.8.3.6-.1.9-.3.4-.4.6-.7z" fill="#002d62"/><path d="m236.7 18.2c0 .5-.1 1-.3 1.5s-.4.9-.7 1.2c-.3.4-.7.7-1.1.8-.4.2-.8.3-1.2.3-.3 0-.6 0-.8-.1s-.4-.2-.6-.3l-.3 1.5c0 .1 0 .2-.1.3s0 .2 0 .2c0 .1 0 .2.1.3s.2.1.3.1.2.1.3.1.2 0 .3 0l-.1.4h-3.2l.1-.4h.4s.2 0 .3-.1c.1 0 .2-.1.3-.2s.1-.2.2-.4l1.2-5.4c0-.1.1-.3.1-.4s0-.3 0-.4c0-.2 0-.4-.1-.4s-.2-.1-.4-.1c-.1 0-.2 0-.3 0s-.2.1-.3.1l.1-.4c.3-.1.6-.2.8-.3s.4-.1.6-.1c.3 0 .5.1.6.2s.2.3.3.6c.3-.2.5-.5.9-.6s.6-.2.9-.2c.6 0 1.1.2 1.4.6.1.4.3.9.3 1.6zm-1.8 2.4c.2-.3.4-.7.5-1.1s.2-.8.2-1.3c0-.2 0-.4-.1-.6 0-.2-.1-.4-.2-.5-.1-.2-.2-.3-.4-.4s-.3-.1-.6-.1c-.2 0-.4.1-.6.2s-.5.3-.8.6l-.7 3.3c0 .2.1.4.4.6s.5.3.8.3.6-.1.9-.3.4-.4.6-.7z" fill="#002d62"/><path d="m240.6 12.9-1.6 7.1c0 .1-.1.3-.1.4s0 .3 0 .4c0 .2 0 .4.1.5s.3.1.5.1h.3c.2 0 .3 0 .3-.1l-.1.4c-.4.1-.6.2-.8.3s-.4.1-.6.1c-.3 0-.5-.1-.7-.2s-.2-.4-.2-.6c0-.1 0-.2 0-.3s0-.2.1-.4l1.4-6.2c0-.1 0-.2.1-.3s0-.1 0-.2 0-.2-.1-.3-.1-.1-.2-.2c-.1 0-.2-.1-.3-.1s-.3 0-.4 0l.1-.4z" fill="#002d62"/><path d="m243.7 21.2-.1.4c-.4.1-.6.2-.9.3s-.4.1-.6.1c-.3 0-.5-.1-.7-.2s-.2-.4-.2-.6c0-.1 0-.2 0-.3s0-.2.1-.4l.7-2.5c0-.1.1-.3.1-.4s0-.3 0-.4c0-.2 0-.4-.1-.4s-.2-.1-.4-.1c-.1 0-.2 0-.3 0s-.2.1-.3.1l.1-.4c.3-.1.6-.2.8-.3s.4-.1.6-.1c.3 0 .6.1.7.2s.2.4.2.6v.3s0 .2-.1.4l-.6 2.5c0 .2-.1.3-.1.4s0 .3 0 .4c0 .2 0 .4.1.5s.3.1.5.1h.3s.2-.1.2-.2zm.5-7.5c0 .2-.1.4-.2.6s-.3.2-.5.2-.4-.1-.5-.2-.2-.3-.2-.5.1-.4.2-.6.3-.2.5-.2.4.1.5.2.2.3.2.5z" fill="#002d62"/><path d="m246.7 22c-.7 0-1.2-.2-1.6-.6s-.6-1-.6-1.7c0-.5.1-1 .2-1.4.2-.4.4-.8.6-1.2.3-.3.6-.6 1-.9.4-.2.9-.3 1.4-.3.6 0 1 .1 1.3.4s.4.5.4.9c0 .3-.1.5-.2.7s-.3.3-.6.3c-.2 0-.4-.1-.5-.2s-.2-.2-.2-.4c0-.1 0-.3.1-.5s.2-.4.2-.5-.1-.2-.3-.2-.3-.1-.5-.1c-.5 0-1 .3-1.4.9s-.6 1.4-.6 2.3c0 .6.1 1 .4 1.3.2.3.6.5 1 .5s.7-.1 1-.3.6-.5.8-.9l.3.2c-.3.4-.6.8-1.1 1.1s-.6.6-1.1.6z" fill="#002d62"/><path d="m253.6 21.1c-.1.1-.2.2-.3.3s-.3.2-.4.3c-.2.1-.3.2-.5.3s-.4.1-.6.1c-.6 0-1-.2-1.3-.6s-.5-1-.5-1.7c0-.5.1-1 .3-1.4.2-.5.4-.9.7-1.2s.7-.6 1.1-.8.8-.3 1.3-.3c.3 0 .5 0 .8.1s.5.2.6.3l1.1-.3.1.1-.9 3.8c0 .1-.1.3-.1.4s0 .3 0 .4c0 .2 0 .4.1.5s.3.1.5.1h.3c.1 0 .2 0 .3-.1l-.1.4c-.4.1-.6.2-.8.3s-.4.1-.6.1c-.3 0-.5-.1-.7-.2-.3-.4-.4-.7-.4-.9zm.8-3.7c0-.1 0-.3 0-.4s-.1-.2-.2-.3-.2-.2-.3-.2-.3-.1-.5-.1c-.3 0-.6.1-.8.3-.3.2-.5.4-.7.8-.2.3-.4.7-.5 1.1s-.2.9-.2 1.3v.6s.1.4.2.5.2.3.3.3.3.1.5.1.4-.1.7-.2c.2-.1.5-.3.8-.6z" fill="#002d62"/><path d="m263.1 21.2-.1.4c-.4.1-.6.2-.8.3s-.4.1-.6.1c-.3 0-.5-.1-.7-.2-.2-.2-.2-.4-.2-.6 0-.1 0-.2 0-.3s0-.2.1-.4l.6-2.2c0-.2.1-.3.1-.5 0-.1 0-.2 0-.3 0-.3-.1-.5-.2-.6s-.3-.2-.6-.2c-.2 0-.5.1-.8.2-.3.2-.6.4-.8.7l-1 4.3h-1.1l.9-3.8c0-.1 0-.2.1-.4s.1-.3.1-.4c0-.2 0-.4-.1-.4-.1-.1-.2-.1-.4-.1-.1 0-.2 0-.3 0s-.2.1-.3.1l.1-.4c.3-.1.6-.2.8-.3s.4-.1.6-.1c.3 0 .5.1.7.3.1.2.2.4.2.7.4-.3.8-.6 1.1-.8s.7-.2 1.1-.2.7.1.9.3.3.5.3.9v.4s-.1.4-.1.5l-.5 1.9c0 .1-.1.3-.1.4s0 .3 0 .4c0 .2 0 .4.1.5s.3.1.5.1h.3s.1-.3.1-.3z" fill="#002d62"/><path d="m265.3 22c-.4 0-.6-.1-.8-.2s-.3-.4-.3-.6c0-.1 0-.2 0-.3s0-.2 0-.3l.9-3.9h-1l.1-.5h1.1l.4-1.7h1.1l-.4 1.7h1.6l-.1.5h-1.6l-.8 3.2c0 .1-.1.3-.1.4s0 .3 0 .4c0 .2.1.4.2.5s.3.1.6.1h.4s.3-.1.4-.1l-.1.4c-.3.1-.5.2-.8.3s-.5.1-.8.1z" fill="#002d62"/><path d="m269.8 22c-.6 0-1.1-.1-1.4-.3s-.6-.5-.6-.8c0-.2.1-.3.2-.4s.3-.2.4-.2c.2 0 .3 0 .4.1s.2.2.2.3c.1.1.1.2.2.4s.1.3.1.3c.1.1.1.1.2.2s.3.1.4.1c.4 0 .7-.1 1-.3.2-.2.3-.5.3-.9 0-.3-.1-.5-.3-.6-.2-.2-.5-.3-.9-.4-.1 0-.3-.1-.5-.2s-.4-.2-.5-.3-.3-.3-.3-.4-.1-.4-.1-.6c0-.5.2-.9.7-1.3s1-.5 1.6-.5h.5s.4.1.6.1c.2.1.3.2.5.3s.2.3.2.5-.1.3-.2.4-.2.2-.4.2c-.1 0-.3 0-.4-.1s-.2-.1-.2-.3-.1-.2-.2-.3-.1-.2-.1-.4c-.1 0-.1-.1-.2-.1s-.1 0-.2 0c-.4 0-.7.1-.9.3s-.3.4-.3.7.1.5.3.6.5.3.9.4c.5.2.9.4 1.2.7.2.2.4.6.4.9 0 .6-.2 1.1-.7 1.5s-1.2.4-1.9.4z" fill="#002d62"/><path d="m284.7 16.6-.1.4c-.2 0-.4.1-.7.1s-.5.2-.7.4c-.1.1-.2.2-.4.4-.1.2-.3.4-.5.7-.1.2-.3.5-.6.8s-.4.6-.6.8c.1.2.3.4.5.6s.3.3.4.4.3.2.6.2.5.1.7.1l-.1.4h-2.2l-.7-1.1c-.2.2-.4.3-.5.4s-.4.3-.6.4-.5.2-.7.3-.5.1-.7.1c-.6 0-1.1-.2-1.5-.5s-.6-.8-.6-1.4.2-1.1.6-1.6 1-.9 1.9-1.4c-.2-.3-.3-.6-.4-.9s-.1-.5-.1-.8.1-.6.2-.9.3-.5.5-.7.5-.3.8-.4.6-.2.9-.2c.5 0 .8.1 1.1.4s.4.6.4 1c0 .5-.2.9-.5 1.3s-.9.7-1.7 1.1c.3.5.5 1 .7 1.3s.5.8.8 1.3c.2-.2.4-.5.5-.7s.3-.5.5-.8c.1-.2.2-.4.3-.5s.1-.3.1-.4-.1-.2-.2-.3-.4-.1-.7-.2l.1-.4h3.2zm-4.5 3.9c-.3-.5-.6-1-.9-1.5s-.5-.9-.8-1.4c-.4.2-.8.5-1 .9s-.4.8-.4 1.3.1.8.4 1.1c.2.3.6.4 1 .4.3 0 .6-.1.9-.2s.5-.4.8-.6zm.7-5.7c0-.3-.1-.5-.2-.7-.2-.2-.4-.2-.7-.2-.4 0-.7.1-.9.4s-.3.6-.3 1c0 .3 0 .5.1.8s.2.5.4.9c.6-.3 1-.6 1.2-.9.3-.5.4-.9.4-1.3z" fill="#002d62"/><path d="m127.4 32.6c0 .5-.1 1-.3 1.5s-.4.9-.7 1.2c-.3.4-.7.7-1.1.8-.4.2-.8.3-1.2.3-.3 0-.6 0-.8-.1s-.4-.2-.6-.3l-.3 1.5c0 .1 0 .2-.1.3s0 .2 0 .2c0 .1 0 .2.1.3s.2.1.3.1.2.1.3.1.2 0 .3 0l-.1.4h-3.2l.1-.4h.4s.2 0 .3-.1c.1 0 .2-.1.3-.2s.1-.2.2-.4l1.2-5.4c0-.1.1-.3.1-.4s0-.3 0-.4c0-.2 0-.4-.1-.4s-.2-.1-.4-.1c-.1 0-.2 0-.3 0s-.2.1-.3.1l.1-.4c.3-.1.6-.2.8-.3s.4-.1.6-.1c.3 0 .5.1.6.2s.2.3.3.6c.3-.2.5-.5.9-.6s.6-.2.9-.2c.6 0 1.1.2 1.4.6.1.4.3.9.3 1.6zm-1.9 2.4c.2-.3.4-.7.5-1.1s.2-.8.2-1.3c0-.2 0-.4-.1-.6 0-.2-.1-.4-.2-.5-.1-.2-.2-.3-.4-.4s-.3-.1-.5-.1-.4.1-.6.2-.5.3-.8.6l-.7 3.3c0 .2.1.4.4.6.2.2.5.3.8.3s.6-.1.9-.3.3-.4.5-.7z" fill="#002d62"/><path d="m133.4 31.3v.4s-.1.2-.1.3c-.1.1-.1.2-.2.2s-.2.1-.4.1-.4-.1-.5-.2-.2-.2-.2-.4c0-.1 0-.3.1-.4s.1-.3.2-.4c0 0-.1 0-.2 0s-.2.1-.4.1-.3.2-.5.3-.4.3-.6.6l-.9 4.2h-1.1l.9-3.8c0-.1 0-.2.1-.4s.1-.3.1-.4c0-.2 0-.4-.1-.4s-.2-.1-.4-.1c-.1 0-.2 0-.3 0s-.2.1-.3.1l.1-.4c.3-.1.6-.2.8-.3s.4-.1.6-.1c.3 0 .5.1.7.3s.2.4.2.8c.5-.4.8-.7 1.1-.8s.5-.2.8-.2h.4s.2.1.3.2.1.2.2.3-.4.2-.4.4z" fill="#002d62"/><path d="m139.4 32.6c0 .5-.1.9-.2 1.4-.2.5-.4.9-.7 1.2-.3.4-.7.6-1.1.9s-.9.3-1.5.3-1.2-.2-1.6-.6-.6-1-.6-1.7c0-.5.1-1 .3-1.5.2-.4.4-.8.7-1.2.3-.3.7-.6 1.1-.8s.9-.3 1.4-.3c.7 0 1.2.2 1.6.6.4.5.6 1.1.6 1.7zm-1.2-.2c0-.6-.1-1-.3-1.2-.2-.3-.5-.4-.9-.4-.3 0-.6.1-.9.3s-.5.5-.7 1c-.2.3-.3.7-.4 1.1s-.1.8-.1 1.2c0 .6.1 1 .3 1.3s.5.4.9.4c.3 0 .7-.1.9-.3.3-.2.5-.5.7-.8s.3-.7.4-1.1c0-.6.1-1 .1-1.5z" fill="#002d62"/><path d="m150 35.6-.1.4c-.4.1-.6.2-.9.3-.2.1-.4.1-.6.1-.3 0-.5-.1-.7-.2-.2-.2-.2-.4-.2-.6 0-.1 0-.2 0-.3s0-.2.1-.4l.6-2.2c0-.2.1-.3.1-.5 0-.1 0-.2 0-.3 0-.3-.1-.5-.2-.6-.1-.2-.3-.2-.5-.2-.3 0-.5.1-.8.2-.2.1-.5.4-.8.7l-1 4.3h-1.1l.9-3.9c0-.1 0-.2.1-.3s0-.2 0-.2c0-.3-.1-.5-.2-.6s-.3-.2-.6-.2c-.2 0-.5.1-.7.2s-.6.4-.9.7l-1 4.3h-1.1l.9-3.8c0-.1.1-.3.1-.4s0-.3 0-.4c0-.2 0-.4-.1-.4-.1-.1-.2-.1-.4-.1-.1 0-.2 0-.3 0s-.2.1-.3.1l.1-.4c.3-.1.6-.2.8-.3s.4-.1.6-.1c.3 0 .5.1.7.3.1.2.2.4.2.7.5-.4.8-.6 1.1-.8s.6-.2 1.1-.2c.3 0 .6.1.8.3s.3.5.4.8c.4-.3.8-.6 1.1-.8s.7-.3 1.1-.3.7.1.9.3.3.5.3.9v.4s-.1.4-.1.5l-.5 1.9c0 .1-.1.3-.1.4s0 .3 0 .4c0 .2 0 .4.1.5s.3.1.5.1h.3c.1-.2.2-.3.3-.3z" fill="#002d62"/><path d="m156.4 32.6c0 .5-.1.9-.2 1.4-.2.5-.4.9-.7 1.2-.3.4-.7.6-1.1.9s-.9.3-1.5.3-1.2-.2-1.6-.6-.6-1-.6-1.7c0-.5.1-1 .3-1.5.2-.4.4-.8.7-1.2.3-.3.7-.6 1.1-.8s.9-.3 1.4-.3c.7 0 1.2.2 1.6.6.4.5.6 1.1.6 1.7zm-1.2-.2c0-.6-.1-1-.3-1.2-.2-.3-.5-.4-.9-.4-.3 0-.6.1-.9.3s-.5.5-.7 1c-.2.3-.3.7-.4 1.1s-.1.8-.1 1.2c0 .6.1 1 .3 1.3s.5.4.9.4c.3 0 .7-.1.9-.3.3-.2.5-.5.7-.8s.3-.7.4-1.1c0-.6.1-1 .1-1.5z" fill="#002d62"/><path d="m158.5 36.4c-.4 0-.6-.1-.8-.2s-.3-.4-.3-.6c0-.1 0-.2 0-.3s0-.2 0-.3l.9-3.9h-1l.1-.5h1.1l.4-1.7h1.1l-.4 1.7h1.6l-.1.5h-1.6l-.8 3.2c0 .1-.1.3-.1.4s0 .3 0 .4c0 .2.1.4.2.5s.3.1.6.1h.4s.3-.1.4-.1l-.1.4c-.3.1-.5.2-.8.3s-.4.1-.8.1z" fill="#002d62"/><path d="m164.1 35.6-.1.4c-.4.1-.6.2-.9.3s-.4.1-.6.1c-.3 0-.5-.1-.7-.2s-.2-.4-.2-.6c0-.1 0-.2 0-.3s0-.2.1-.4l.6-2.5c0-.1.1-.3.1-.4s0-.3 0-.4c0-.2 0-.4-.1-.4s-.1-.2-.3-.2c-.1 0-.2 0-.3 0s-.2.1-.3.1l.1-.4c.3-.1.6-.2.8-.3s.4-.1.6-.1c.3 0 .6.1.7.2s.2.4.2.6v.3s0 .2-.1.4l-.6 2.5c0 .2-.1.3-.1.4s0 .3 0 .4c0 .2 0 .4.1.5s.3.1.5.1h.3s.2 0 .2-.1zm.5-7.5c0 .2-.1.4-.2.6s-.4.3-.6.3-.4-.1-.5-.2-.2-.3-.2-.5.1-.4.2-.6.3-.2.5-.2.4.1.5.2.3.2.3.4z" fill="#002d62"/><path d="m171.2 35.6-.1.4c-.4.1-.6.2-.8.3s-.4.1-.6.1c-.3 0-.5-.1-.7-.2-.2-.2-.2-.4-.2-.6 0-.1 0-.2 0-.3s0-.2.1-.4l.6-2.2c0-.2.1-.3.1-.5 0-.1 0-.2 0-.3 0-.3-.1-.5-.2-.6s-.3-.2-.6-.2c-.2 0-.5.1-.8.2-.3.2-.6.4-.8.7l-1 4.3h-1.1l.9-3.8c0-.1 0-.2.1-.4s.1-.3.1-.4c0-.2 0-.4-.1-.4-.1-.1-.2-.1-.4-.1-.1 0-.2 0-.3 0s-.2.1-.3.1l.1-.4c.3-.1.6-.2.8-.3s.4-.1.6-.1c.3 0 .5.1.7.3.1.2.2.4.2.7.4-.3.8-.6 1.1-.8s.7-.2 1.1-.2.7.1.9.3.3.5.3.9v.4s-.1.4-.1.5l-.5 1.9c0 .1-.1.3-.1.4s0 .3 0 .4c0 .2 0 .4.1.5s.3.1.5.1h.3s0-.3.1-.3z" fill="#002d62"/><path d="m175.7 35.5c-.1.1-.2.1-.4.3-.1.1-.3.2-.4.3-.2.1-.4.2-.5.3s-.4.1-.6.1c-.6 0-1-.2-1.3-.6s-.5-1-.5-1.7c0-.5.1-1 .3-1.4.2-.5.4-.9.7-1.2s.7-.6 1.1-.8.8-.3 1.3-.3c.3 0 .5 0 .8.1s.5.2.6.3l1.1-.3.1.1-1 4.6c-.1.7-.3 1.3-.6 1.8-.2.5-.5.9-.8 1.1-.3.3-.7.5-1 .6s-.8.2-1.3.2c-.3 0-.6 0-.8-.1s-.4-.1-.5-.2-.2-.2-.2-.3-.1-.2-.1-.3c0-.2.1-.3.2-.4s.2-.2.4-.2c.1 0 .3 0 .4.1s.2.2.2.3c.1.1.1.2.2.4s.1.2.1.3h.2c.2 0 .4 0 .7-.1s.5-.3.7-.5.4-.5.6-.9c.1-.5.2-1 .3-1.6zm.8-3.8c0-.1 0-.2 0-.3s-.1-.2-.2-.3-.2-.2-.3-.2c-.1-.1-.3-.1-.5-.1-.3 0-.6.1-.9.3s-.5.4-.7.7-.4.7-.5 1.1-.2.8-.2 1.3v.6s.1.4.2.5.2.3.3.3.3.1.5.1c.3 0 .5-.1.8-.2s.5-.4.8-.6z" fill="#002d62"/><path d="m185.5 35.5c-.1.1-.2.2-.4.3s-.3.2-.4.3c-.2.1-.4.2-.5.3s-.4.1-.6.1c-.6 0-1-.2-1.3-.6s-.5-1-.5-1.7c0-.5.1-1 .3-1.4.2-.5.4-.9.7-1.2s.6-.6 1.1-.8c.4-.2.8-.3 1.3-.3.3 0 .5 0 .8.1s.5.2.7.3l.5-2c0-.1 0-.2 0-.2s0-.1 0-.2 0-.2-.1-.3-.1-.1-.2-.2c-.1 0-.2-.1-.4-.1s-.3 0-.4 0l.1-.4 2.4-.1.1.1-1.6 7c0 .1-.1.3-.1.4s0 .3 0 .4c0 .2 0 .4.1.5s.3.1.5.1h.3s.2 0 .3-.1l-.1.4c-.3.1-.6.3-.8.3-.2.1-.4.1-.6.1-.3 0-.5-.1-.7-.2s-.5-.6-.5-.9zm.8-3.8c0-.1 0-.2-.1-.3s-.1-.2-.2-.3-.2-.2-.3-.2-.3-.1-.5-.1c-.3 0-.6.1-.9.3s-.5.4-.7.8c-.2.3-.4.7-.5 1.1s-.2.8-.2 1.3v.6s.1.4.2.5.2.3.3.3.3.1.5.1.4-.1.7-.2.5-.4.8-.7z" fill="#002d62"/><path d="m191.5 35.6-.1.4c-.4.1-.6.2-.9.3s-.4.1-.6.1c-.3 0-.5-.1-.7-.2s-.2-.4-.2-.6c0-.1 0-.2 0-.3s0-.2.1-.4l.6-2.5c0-.1.1-.3.1-.4s0-.3 0-.4c0-.2 0-.4-.1-.4s-.2-.1-.4-.1c-.1 0-.2 0-.3 0s-.2.1-.3.1l.1-.4c.3-.1.6-.2.8-.3s.4-.1.6-.1c.3 0 .6.1.7.2s.2.4.2.6v.3s0 .2-.1.4l-.6 2.5c0 .2-.1.3-.1.4s0 .3 0 .4c0 .2 0 .4.1.5s.3.1.5.1h.3s.2-.1.3-.2zm.4-7.5c0 .2-.1.4-.2.6s-.3.2-.5.2-.4-.1-.5-.2-.2-.3-.2-.5.1-.4.2-.6.3-.2.5-.2.4.1.5.2.2.3.2.5z" fill="#002d62"/><path d="m197.9 31.4c0 .6-.1 1.2-.3 1.8s-.4 1.1-.7 1.6-.7.9-1.1 1.2-.9.4-1.4.4-.9-.1-1.2-.4-.5-.7-.5-1.1c0-.1 0-.2 0-.3s0-.2 0-.2l.5-1.9c0-.2.1-.3.1-.4s0-.3 0-.4c0-.2 0-.4-.1-.4s-.2-.1-.4-.1c-.1 0-.2 0-.3.1-.1 0-.2.1-.3.1l.1-.4c.3-.1.6-.2.8-.3s.4-.1.6-.1c.3 0 .5.1.7.2s.2.4.2.6v.3s0 .2-.1.4l-.6 2.2c0 .1-.1.3-.1.4s0 .2 0 .3c0 .2 0 .4.1.5s.1.2.2.3.2.1.3.1.2 0 .3 0c.3 0 .5-.1.8-.3s.5-.4.7-.7.4-.6.6-1 .2-.8.2-1.2c0-.2 0-.4-.1-.5s-.1-.2-.2-.3-.1-.2-.2-.3-.1-.3-.1-.5.1-.4.2-.5.3-.2.5-.2.4.1.5.3c.2.1.3.4.3.7z" fill="#002d62"/><path d="m203.7 31.6c0 .4-.1.8-.4 1.1s-.6.5-1.1.7c-.4.1-.7.2-1.1.3s-.8.2-1.2.2c0 .6.1 1.1.3 1.4s.6.5 1 .5.7-.1 1-.3.6-.5.9-.9l.3.2c-.3.5-.7.9-1.2 1.1s-1 .4-1.5.4c-.7 0-1.2-.2-1.6-.6s-.5-.9-.5-1.6c0-.5.1-1 .2-1.4.2-.4.4-.9.7-1.2.3-.4.6-.7 1.1-.9.4-.2.9-.3 1.4-.3.6 0 1 .1 1.3.3.3.3.4.6.4 1zm-1.1-.2c0-.2 0-.3-.1-.4 0-.1-.1-.2-.2-.2s-.1-.1-.2-.1-.2 0-.2 0c-.5 0-.9.3-1.3.8s-.6 1.2-.8 1.9c.3 0 .6-.1.9-.2s.6-.2.9-.3c.3-.2.6-.4.7-.6.2-.2.3-.5.3-.9z" fill="#002d62"/><path d="m209.5 31.3v.4s-.1.2-.1.3c-.1.1-.1.2-.2.2s-.2.1-.4.1-.4-.1-.5-.2-.2-.2-.2-.4c0-.1 0-.3.1-.4s.1-.3.2-.4c0 0-.1 0-.2 0s-.2.1-.4.1-.3.2-.5.3-.4.3-.6.6l-.9 4.2h-1.1l.9-3.8c0-.1 0-.2.1-.4s.1-.3.1-.4c0-.2 0-.4-.1-.4s-.2-.1-.4-.1c-.1 0-.2 0-.3 0s-.2.1-.3.1l.1-.4c.3-.1.6-.2.8-.3s.4-.1.6-.1c.3 0 .5.1.7.3s.2.4.2.8c.5-.4.8-.7 1.1-.8s.5-.2.8-.2h.4s.2.1.3.2.1.2.2.3-.4.2-.4.4z" fill="#002d62"/><path d="m211.6 36.4c-.6 0-1.1-.1-1.4-.3s-.6-.5-.6-.8c0-.2.1-.3.2-.4s.3-.2.4-.2c.2 0 .3 0 .4.1s.2.2.2.3c.1.1.1.2.2.4s.1.3.1.3c.1.1.1.1.2.2s.3.1.4.1c.4 0 .7-.1 1-.3.2-.2.3-.5.3-.9 0-.3-.1-.5-.3-.6-.2-.2-.5-.3-.9-.4-.1 0-.3-.1-.5-.2s-.4-.2-.5-.3-.3-.3-.3-.4-.1-.4-.1-.6c0-.5.2-.9.7-1.3s1-.5 1.6-.5h.5s.4.1.6.1c.2.1.3.2.5.3s.2.3.2.5-.1.3-.2.4-.2.2-.4.2c-.1 0-.3 0-.4-.1s-.2-.1-.2-.3-.1-.2-.2-.3-.1-.2-.1-.4c-.1 0-.1-.1-.2-.1s-.1 0-.2 0c-.4 0-.7.1-.9.3s-.3.4-.3.7.1.5.3.6.5.3.9.4c.5.2.9.4 1.2.7.2.2.4.6.4.9 0 .6-.2 1.1-.7 1.5s-1.2.4-1.9.4z" fill="#002d62"/><path d="m217.9 35.6-.1.4c-.4.1-.6.2-.9.3s-.4.1-.6.1c-.3 0-.5-.1-.7-.2s-.2-.4-.2-.6c0-.1 0-.2 0-.3s0-.2.1-.4l.6-2.5c0-.1.1-.3.1-.4s0-.3 0-.4c0-.2 0-.4-.1-.4s-.2-.1-.4-.1c-.1 0-.2 0-.3 0s-.2.1-.3.1l.1-.4c.3-.1.6-.2.8-.3s.4-.1.6-.1c.3 0 .6.1.7.2s.2.4.2.6v.3s0 .2-.1.4l-.6 2.5c0 .2-.1.3-.1.4s0 .3 0 .4c0 .2 0 .4.1.5s.3.1.5.1h.3s.2-.1.3-.2zm.4-7.5c0 .2-.1.4-.2.6s-.3.2-.5.2-.4-.1-.5-.2-.2-.3-.2-.5.1-.4.2-.6.3-.2.5-.2.4.1.5.2.2.3.2.5z" fill="#002d62"/><path d="m220 36.4c-.4 0-.6-.1-.8-.2s-.3-.4-.3-.6c0-.1 0-.2 0-.3s0-.2 0-.3l.9-3.9h-1l.1-.5h1.1l.4-1.7h1.1l-.4 1.7h1.6l-.1.5h-1.6l-.8 3.2c0 .1-.1.3-.1.4s0 .3 0 .4c0 .2.1.4.2.5s.3.1.6.1h.4s.3-.1.4-.1l-.1.4c-.3.1-.5.2-.8.3s-.5.1-.8.1z" fill="#002d62"/><path d="m226.6 35.4c-.4.3-.7.5-1.1.7s-.7.3-1.1.3-.7-.1-.9-.3-.3-.5-.3-.9c0-.1 0-.2 0-.3s.1-.3.1-.6l.5-1.8c0-.2.1-.3.1-.5s0-.3 0-.4c0-.2 0-.4-.1-.4s-.2-.1-.4-.1c-.1 0-.2 0-.3 0s-.2.1-.3.1l.1-.4c.3-.1.6-.2.8-.3s.4-.1.6-.1c.3 0 .5.1.7.2s.2.4.2.6v.3s0 .2-.1.4l-.5 2.1c0 .2-.1.3-.1.5s0 .3 0 .3c0 .3.1.5.2.6s.3.2.6.2.6-.1.8-.2c.3-.1.5-.3.8-.6l1-4.4 1-.1.1.1-1 4.6c-.1.7-.3 1.2-.6 1.7s-.5.9-.8 1.2-.7.5-1 .7-.8.2-1.3.2c-.3 0-.6 0-.8-.1s-.3-.1-.5-.2c-.1-.1-.2-.2-.2-.3s-.1-.2-.1-.3c0-.2.1-.3.2-.4s.2-.2.4-.2c.1 0 .3 0 .4.1s.2.2.2.3c.1.1.1.2.2.4s.1.2.1.3h.1c.2 0 .5-.1.7-.2s.5-.3.7-.5.4-.6.6-1 .2-.7.3-1.3z" fill="#002d62"/></svg>