<?xml version="1.0" encoding="utf-8"?>
<!-- Generator: Adobe Illustrator 27.0.1, SVG Export Plug-In . SVG Version: 6.00 Build 0)  -->
<svg version="1.1" id="Layer_1" xmlns="http://www.w3.org/2000/svg" xmlns:xlink="http://www.w3.org/1999/xlink" x="0px" y="0px"
	 viewBox="0 0 637.2 178.3" style="enable-background:new 0 0 637.2 178.3;" xml:space="preserve">
<style type="text/css">
	.st0{fill:#502440;}
	.st1{fill:#3D112C;}
	.st2{fill:#AC6D5A;}
	.st3{fill:#A49E89;}
</style>
<g>
	<path class="st0" d="M332.3,56.2v-8h0.9c1,5.2,3.5,7.8,7.4,7.8c1.7,0,3.1-0.5,4.1-1.5c1-1,1.4-2.1,1.4-3.3c0-1.2-0.4-2.3-1.3-3.1
		c-0.8-0.8-2.4-1.7-4.6-2.7c-2-0.9-3.5-1.6-4.5-2.2c-1-0.6-1.8-1.5-2.4-2.5c-0.6-1-0.9-2.1-0.9-3.3c0-1.8,0.6-3.2,1.8-4.4
		c1.2-1.2,2.8-1.8,4.7-1.8c1,0,2,0.2,3,0.5c0.9,0.3,1.9,1,2.9,2.1c0.6-0.7,0.9-1.4,1-2.2h0.8v6.5h-0.8c-0.5-1.9-1.3-3.4-2.5-4.5
		s-2.5-1.6-4.1-1.6c-1.5,0-2.6,0.4-3.3,1.2c-0.7,0.8-1,1.7-1,2.6c0,1.1,0.4,2.1,1.3,2.9c0.9,0.8,2.4,1.7,4.6,2.7
		c2.1,1,3.7,1.7,4.7,2.3c1,0.6,1.7,1.4,2.3,2.4c0.6,1,0.9,2.2,0.9,3.6c0,2.1-0.7,3.9-2.1,5.2c-1.4,1.3-3.3,2-5.7,2
		c-2.7,0-5-1-6.8-3.1c-0.4,0.6-0.7,1.4-0.9,2.4H332.3z"/>
	<path class="st0" d="M370.7,48.8h0.9l-0.5,7.7h-20.6v-0.8h0.5c1.2,0,2-0.2,2.4-0.5c0.4-0.3,0.6-0.7,0.7-1.3
		c0.1-0.5,0.1-1.8,0.1-3.9V37.9c0-1.9-0.1-3.1-0.2-3.7c-0.1-0.6-0.3-1-0.7-1.3c-0.4-0.2-1.2-0.4-2.4-0.4v-0.8h17.7l0.6,6.2h-0.9
		c-0.4-1.7-0.9-3-1.4-3.7c-0.6-0.7-1.2-1.2-2-1.4c-0.8-0.2-2-0.3-3.8-0.3h-3.4v10.4h2.6c1.2,0,2.1-0.1,2.5-0.3
		c0.5-0.2,0.8-0.5,1-0.9c0.2-0.4,0.2-1.2,0.2-2.5h0.9v8.5h-0.9c0-1.4-0.1-2.3-0.3-2.8c-0.2-0.5-0.6-0.8-1-0.9
		c-0.4-0.1-1.2-0.2-2.3-0.2h-2.7v5.9c0,2.9,0.2,4.7,0.6,5.2c0.4,0.5,1.4,0.8,3.1,0.8h1.9c1.3,0,2.4-0.2,3.2-0.5
		c0.8-0.3,1.6-1,2.4-2.1C369.6,52,370.2,50.6,370.7,48.8z"/>
	<path class="st0" d="M395.8,57.1l-17.6-23.3V51c0,1.4,0.1,2.4,0.2,2.8c0.1,0.5,0.5,0.9,1.2,1.2c0.7,0.4,1.6,0.6,3,0.6v0.8h-9.3
		v-0.8c1.2-0.1,2.1-0.3,2.7-0.7c0.6-0.3,1-0.7,1.1-1.1c0.1-0.4,0.2-1.4,0.2-2.9V37.9c0-1.9-0.1-3.2-0.3-3.8
		c-0.2-0.6-0.5-1.1-0.8-1.2c-0.4-0.2-1.2-0.3-2.6-0.3v-0.8h7.3l14.7,19.4V36.2c0-1.1-0.1-1.9-0.3-2.3c-0.2-0.4-0.7-0.8-1.4-1
		c-0.7-0.3-1.5-0.4-2.5-0.4v-0.8h9v0.8c-1.1,0.1-1.9,0.3-2.5,0.6c-0.6,0.3-1,0.7-1.2,1.1c-0.2,0.4-0.2,1.2-0.2,2.3v20.5H395.8z"/>
	<path class="st0" d="M402.6,37.6h-0.8l0.1-6H426l0.1,6h-0.8c-0.3-1.6-0.7-2.8-1.2-3.5c-0.5-0.7-1-1.2-1.6-1.3
		c-0.6-0.2-1.5-0.2-2.9-0.2h-4V50c0,1.9,0,3.2,0.1,3.8s0.3,1.1,0.7,1.4c0.4,0.3,1.2,0.4,2.3,0.4h1.2v0.8h-12.4v-0.8h1.3
		c1.1,0,1.8-0.1,2.2-0.4c0.4-0.3,0.7-0.7,0.8-1.3c0.1-0.6,0.2-1.9,0.2-4V32.5h-3.7c-1.6,0-2.7,0.1-3.2,0.2c-0.5,0.2-1.1,0.6-1.5,1.4
		C403.3,34.9,402.9,36.1,402.6,37.6z"/>
	<path class="st0" d="M448.4,48.8h0.9l-0.5,7.7h-20.6v-0.8h0.5c1.2,0,2-0.2,2.4-0.5c0.4-0.3,0.6-0.7,0.7-1.3
		c0.1-0.5,0.1-1.8,0.1-3.9V37.9c0-1.9-0.1-3.1-0.2-3.7c-0.1-0.6-0.3-1-0.7-1.3c-0.4-0.2-1.2-0.4-2.4-0.4v-0.8h17.7l0.6,6.2h-0.9
		c-0.4-1.7-0.9-3-1.4-3.7c-0.6-0.7-1.2-1.2-2-1.4c-0.8-0.2-2-0.3-3.8-0.3h-3.4v10.4h2.6c1.2,0,2.1-0.1,2.5-0.3
		c0.5-0.2,0.8-0.5,1-0.9c0.2-0.4,0.2-1.2,0.2-2.5h0.9v8.5h-0.9c0-1.4-0.1-2.3-0.3-2.8c-0.2-0.5-0.6-0.8-1-0.9
		c-0.4-0.1-1.2-0.2-2.3-0.2h-2.7v5.9c0,2.9,0.2,4.7,0.6,5.2c0.4,0.5,1.4,0.8,3.1,0.8h1.8c1.3,0,2.4-0.2,3.2-0.5
		c0.8-0.3,1.6-1,2.4-2.1C447.4,52,448,50.6,448.4,48.8z"/>
	<path class="st0" d="M473.5,57.1L456,33.8V51c0,1.4,0.1,2.4,0.2,2.8c0.1,0.5,0.5,0.9,1.2,1.2c0.7,0.4,1.6,0.6,3,0.6v0.8h-9.3v-0.8
		c1.2-0.1,2.1-0.3,2.7-0.7c0.6-0.3,1-0.7,1.1-1.1c0.1-0.4,0.2-1.4,0.2-2.9V37.9c0-1.9-0.1-3.2-0.3-3.8c-0.2-0.6-0.5-1.1-0.8-1.2
		c-0.4-0.2-1.2-0.3-2.6-0.3v-0.8h7.3l14.7,19.4V36.2c0-1.1-0.1-1.9-0.3-2.3c-0.2-0.4-0.7-0.8-1.4-1c-0.7-0.3-1.5-0.4-2.5-0.4v-0.8h9
		v0.8c-1.1,0.1-1.9,0.3-2.5,0.6c-0.6,0.3-1,0.7-1.2,1.1c-0.2,0.4-0.2,1.2-0.2,2.3v20.5H473.5z"/>
	<path class="st0" d="M501.1,47.2h0.8v8.7h-0.8c-0.2-1-0.6-1.9-1.2-2.6c-2.2,2.5-5,3.7-8.4,3.7c-3.6,0-6.5-1.1-8.8-3.4
		c-2.3-2.3-3.4-5.3-3.4-9c0-2.5,0.5-4.8,1.6-6.9c1.1-2.2,2.5-3.8,4.4-4.8c1.9-1,3.9-1.6,6.2-1.6c1.9,0,3.5,0.4,5,1.1
		c1.5,0.8,2.6,1.6,3.4,2.5c0.5-1,0.8-2.1,1-3.2h0.8l0.2,9.4h-0.8c-0.5-3.3-1.7-5.7-3.4-7c-1.7-1.3-3.6-2-5.7-2
		c-2.6,0-4.7,1.1-6.2,3.2c-1.5,2.1-2.3,5.1-2.3,9.1c0,3.7,0.8,6.6,2.5,8.6c1.7,2,3.8,3,6.2,3c1.3,0,2.7-0.3,4.1-1
		c1.4-0.6,2.5-1.7,3.3-3.3C500.4,50.1,500.9,48.6,501.1,47.2z"/>
	<path class="st0" d="M524.5,48.8h0.9l-0.5,7.7h-20.6v-0.8h0.5c1.2,0,2-0.2,2.4-0.5c0.4-0.3,0.6-0.7,0.7-1.3
		c0.1-0.5,0.1-1.8,0.1-3.9V37.9c0-1.9-0.1-3.1-0.2-3.7c-0.1-0.6-0.3-1-0.7-1.3c-0.4-0.2-1.2-0.4-2.4-0.4v-0.8h17.7l0.6,6.2h-0.9
		c-0.4-1.7-0.9-3-1.4-3.7c-0.6-0.7-1.2-1.2-2-1.4c-0.8-0.2-2-0.3-3.8-0.3h-3.4v10.4h2.6c1.2,0,2.1-0.1,2.5-0.3
		c0.5-0.2,0.8-0.5,1-0.9c0.2-0.4,0.2-1.2,0.2-2.5h0.9v8.5H518c0-1.4-0.1-2.3-0.3-2.8c-0.2-0.5-0.6-0.8-1-0.9
		c-0.4-0.1-1.2-0.2-2.3-0.2h-2.7v5.9c0,2.9,0.2,4.7,0.6,5.2c0.4,0.5,1.4,0.8,3.1,0.8h1.9c1.3,0,2.4-0.2,3.2-0.5
		c0.8-0.3,1.6-1,2.4-2.1C523.5,52,524.1,50.6,524.5,48.8z"/>
	<path class="st0" d="M357.4,101.5h-6.7c-1.2-0.8-3-3-5.4-6.5c-0.8-1.1-1.6-2.2-2.4-3.2c-0.8-1-1.4-1.7-1.7-1.9
		c-0.3-0.2-0.8-0.3-1.5-0.3h-1V95c0,2,0,3.2,0.1,3.8c0.1,0.6,0.3,1.1,0.7,1.3c0.4,0.3,1.2,0.4,2.3,0.4h1.2v0.8h-11.9v-0.8h0.8
		c1.1,0,1.8-0.1,2.2-0.4c0.4-0.3,0.7-0.7,0.8-1.3c0.1-0.6,0.2-1.9,0.2-4V82.9c0-2-0.1-3.3-0.2-3.8c-0.1-0.6-0.4-1-0.7-1.2
		c-0.4-0.2-1.2-0.3-2.5-0.3h-0.4v-0.8l3.6-0.2c2.4-0.1,4.2-0.2,5.6-0.2c2.4,0,4.3,0.2,5.8,0.7c1.5,0.4,2.7,1.2,3.6,2.2
		c0.9,1,1.4,2.2,1.4,3.6c0,1.6-0.6,3-1.8,4.2c-1.2,1.1-3,1.9-5.3,2.1c1,0.5,2.7,2.3,5,5.4c1.9,2.5,3.4,4.2,4.4,5
		c1.1,0.8,2.3,1.2,3.8,1.2V101.5z M338.7,88.7c0.9,0,1.9-0.1,2.8-0.1c1,0,1.8-0.2,2.5-0.4c0.7-0.2,1.3-0.5,1.7-1
		c0.4-0.4,0.8-1,1.1-1.7c0.3-0.7,0.4-1.5,0.4-2.5c0-1.7-0.4-3.1-1.3-4.2c-0.9-1.1-2.8-1.6-5.7-1.6c-0.5,0-1,0-1.6,0.1V88.7z"/>
	<path class="st0" d="M378.9,93.8h0.9l-0.5,7.7h-20.6v-0.8h0.5c1.2,0,2-0.2,2.4-0.5c0.4-0.3,0.6-0.7,0.7-1.3
		c0.1-0.5,0.1-1.8,0.1-3.9V82.9c0-1.9-0.1-3.1-0.2-3.7c-0.1-0.6-0.3-1-0.7-1.3c-0.4-0.2-1.2-0.4-2.4-0.4v-0.8H377l0.6,6.2h-0.9
		c-0.4-1.7-0.9-3-1.4-3.7c-0.6-0.7-1.2-1.2-2-1.4c-0.8-0.2-2-0.3-3.8-0.3H366v10.4h2.6c1.2,0,2.1-0.1,2.5-0.3c0.5-0.2,0.8-0.5,1-0.9
		c0.2-0.4,0.2-1.2,0.2-2.5h0.9v8.5h-0.9c0-1.4-0.1-2.3-0.3-2.8c-0.2-0.5-0.6-0.8-1-0.9c-0.4-0.1-1.2-0.2-2.3-0.2H366v5.9
		c0,2.9,0.2,4.7,0.6,5.2c0.4,0.5,1.4,0.8,3.1,0.8h1.8c1.3,0,2.4-0.2,3.2-0.5c0.8-0.3,1.6-1,2.4-2.1C377.9,97,378.5,95.6,378.9,93.8z
		"/>
	<path class="st0" d="M394.4,102.1h-1.1l-8.6-19.7c-0.2-0.4-0.4-1-0.7-1.8c-0.5-1.2-1-2-1.5-2.4c-0.5-0.4-1.4-0.6-2.5-0.6v-0.8h10.7
		v0.8c-1.3,0-2.2,0.1-2.7,0.3s-0.7,0.6-0.7,1.1c0,0.4,0.3,1.2,0.9,2.5l7.1,16.5l5.7-13.7c1-2.3,1.4-3.8,1.4-4.5c0-1.4-1-2.1-3-2.2
		v-0.8h7.6v0.8c-0.8,0-1.4,0.3-2,0.8c-0.6,0.5-1.1,1.3-1.5,2.3l-1.7,3.9L394.4,102.1z"/>
	<path class="st0" d="M408.1,77.5v-0.8h11.4v0.8h-0.5c-1.2,0-2,0.1-2.4,0.3c-0.4,0.2-0.6,0.6-0.8,1.1c-0.1,0.5-0.2,1.9-0.2,3.9V95
		c0,2,0,3.2,0.1,3.8c0.1,0.6,0.3,1.1,0.7,1.3c0.4,0.3,1.2,0.4,2.3,0.4h0.7v0.8h-11.4v-0.8h0.7c1.1,0,1.8-0.1,2.2-0.4
		c0.4-0.3,0.7-0.7,0.8-1.3c0.1-0.6,0.2-1.9,0.2-4V82.9c0-2-0.1-3.3-0.2-3.8c-0.1-0.6-0.4-1-0.7-1.2c-0.4-0.2-1.2-0.3-2.5-0.3H408.1z
		"/>
	<path class="st0" d="M441.8,93.8h0.9l-0.5,7.7h-20.6v-0.8h0.5c1.2,0,2-0.2,2.4-0.5c0.4-0.3,0.6-0.7,0.7-1.3s0.1-1.8,0.1-3.9V82.9
		c0-1.9-0.1-3.1-0.2-3.7c-0.1-0.6-0.3-1-0.7-1.3c-0.4-0.2-1.2-0.4-2.4-0.4v-0.8h17.7l0.6,6.2h-0.9c-0.4-1.7-0.9-3-1.4-3.7
		c-0.6-0.7-1.2-1.2-2-1.4c-0.8-0.2-2-0.3-3.8-0.3h-3.4v10.4h2.6c1.2,0,2.1-0.1,2.5-0.3c0.5-0.2,0.8-0.5,1-0.9
		c0.2-0.4,0.2-1.2,0.2-2.5h0.9v8.5h-0.9c0-1.4-0.1-2.3-0.3-2.8c-0.2-0.5-0.6-0.8-1-0.9c-0.4-0.1-1.2-0.2-2.3-0.2h-2.7v5.9
		c0,2.9,0.2,4.7,0.6,5.2c0.4,0.5,1.4,0.8,3.1,0.8h1.8c1.3,0,2.4-0.2,3.2-0.5c0.8-0.3,1.6-1,2.4-2.1C440.7,97,441.3,95.6,441.8,93.8z
		"/>
	<path class="st0" d="M468.5,102.1h-0.8l-7.6-20.5l-6.6,20.5h-0.9l-6-19.3c-0.5-1.8-0.9-2.9-1.2-3.5c-0.2-0.6-0.5-1-0.9-1.3
		c-0.4-0.3-1-0.4-1.9-0.5v-0.8h9.3v0.8c-1.1,0.1-1.8,0.2-2.2,0.5c-0.3,0.3-0.5,0.6-0.5,1.1c0,0.4,0.3,1.4,0.8,3.1l4.4,14.5l6.5-19.9
		h1l7.3,19.9l3.8-13.2c0.5-1.8,0.7-2.9,0.7-3.5c0-1.6-0.9-2.4-2.6-2.4v-0.8h6.8v0.8c-1,0.1-1.7,0.4-2.2,1.1
		c-0.5,0.7-1.1,2.3-1.9,4.8L468.5,102.1z"/>
	<path class="st0" d="M353.9,137.2h0.8v8.7h-0.8c-0.2-1-0.6-1.9-1.2-2.6c-2.2,2.5-5,3.7-8.4,3.7c-3.6,0-6.5-1.1-8.8-3.4
		c-2.3-2.3-3.4-5.3-3.4-9c0-2.5,0.5-4.8,1.6-6.9c1.1-2.2,2.5-3.8,4.4-4.8c1.9-1.1,3.9-1.6,6.2-1.6c1.9,0,3.5,0.4,5,1.1
		c1.5,0.8,2.6,1.6,3.4,2.5c0.5-1,0.8-2.1,1-3.2h0.8l0.2,9.4h-0.8c-0.5-3.3-1.7-5.7-3.4-7c-1.7-1.3-3.6-2-5.7-2
		c-2.6,0-4.7,1.1-6.2,3.2c-1.5,2.1-2.3,5.1-2.3,9.1c0,3.7,0.8,6.6,2.5,8.6c1.7,2,3.8,3,6.2,3c1.3,0,2.7-0.3,4.1-1
		c1.4-0.6,2.5-1.7,3.3-3.3C353.2,140.1,353.7,138.6,353.9,137.2z"/>
	<path class="st0" d="M357.8,133.9c0-3.8,1.3-6.9,3.8-9.2c2.6-2.3,5.8-3.5,9.6-3.5c3.9,0,7.1,1.1,9.7,3.4c2.6,2.3,3.9,5.4,3.9,9.4
		c0,3.8-1.2,7-3.7,9.3c-2.5,2.4-5.8,3.6-9.8,3.6c-3.9,0-7.2-1.2-9.7-3.6C359.1,141,357.8,137.9,357.8,133.9z M362,134.1
		c0,4,0.8,7,2.4,9c1.6,2,4,3,7.2,3c2.8,0,5-1,6.6-3c1.6-2,2.4-5,2.4-9c0-3.9-0.8-6.8-2.4-8.9c-1.6-2.1-3.9-3.1-7-3.1
		c-3,0-5.3,1-6.9,3C362.8,127.2,362,130.1,362,134.1z"/>
	<path class="st0" d="M401.7,142.2l9-20.5h7.6v0.8h-0.9c-1.2,0-2,0.1-2.4,0.3c-0.4,0.2-0.6,0.6-0.8,1.1c-0.1,0.5-0.2,1.9-0.2,3.9
		V140c0,2,0,3.2,0.1,3.8c0.1,0.6,0.3,1.1,0.7,1.3c0.4,0.3,1.2,0.4,2.3,0.4h1.1v0.8h-11.9v-0.8h0.9c1,0,1.8-0.1,2.2-0.4
		c0.4-0.3,0.7-0.7,0.8-1.3c0.1-0.6,0.2-1.9,0.2-4v-15.8l-9.8,22.3h-0.9l-9.9-22.3v14.5c0,2,0.1,3.3,0.2,4.1c0.1,0.7,0.5,1.4,1.1,1.9
		c0.6,0.5,1.5,0.9,2.7,0.9v0.8h-8.9v-0.8c1.1-0.1,1.9-0.4,2.6-0.9c0.7-0.5,1.1-1.2,1.2-1.9c0.1-0.8,0.2-2.2,0.2-4.2v-10.8
		c0-2-0.1-3.3-0.2-3.8c-0.1-0.6-0.4-1-0.7-1.2c-0.4-0.2-1.2-0.3-2.4-0.3h-0.7v-0.8h7.6L401.7,142.2z"/>
	<path class="st0" d="M436.5,142.2l9-20.5h7.6v0.8h-0.9c-1.2,0-2,0.1-2.4,0.3c-0.4,0.2-0.6,0.6-0.8,1.1c-0.1,0.5-0.2,1.9-0.2,3.9
		V140c0,2,0,3.2,0.1,3.8c0.1,0.6,0.3,1.1,0.7,1.3c0.4,0.3,1.2,0.4,2.3,0.4h1.1v0.8h-11.9v-0.8h0.9c1,0,1.8-0.1,2.2-0.4
		c0.4-0.3,0.7-0.7,0.8-1.3c0.1-0.6,0.2-1.9,0.2-4v-15.8l-9.8,22.3h-0.9l-9.9-22.3v14.5c0,2,0.1,3.3,0.2,4.1c0.1,0.7,0.5,1.4,1.1,1.9
		c0.6,0.5,1.5,0.9,2.7,0.9v0.8h-8.9v-0.8c1.1-0.1,1.9-0.4,2.6-0.9c0.7-0.5,1.1-1.2,1.2-1.9c0.1-0.8,0.2-2.2,0.2-4.2v-10.8
		c0-2-0.1-3.3-0.2-3.8c-0.1-0.6-0.4-1-0.7-1.2c-0.4-0.2-1.2-0.3-2.4-0.3h-0.7v-0.8h7.6L436.5,142.2z"/>
	<path class="st0" d="M454.9,122.5v-0.8h11.4v0.8h-0.5c-1.2,0-2,0.1-2.4,0.3c-0.4,0.2-0.6,0.6-0.8,1.1c-0.1,0.5-0.2,1.9-0.2,3.9V140
		c0,2,0,3.2,0.1,3.8c0.1,0.6,0.3,1.1,0.7,1.3c0.4,0.3,1.2,0.4,2.3,0.4h0.7v0.8h-11.4v-0.8h0.7c1.1,0,1.8-0.1,2.2-0.4
		c0.4-0.3,0.7-0.7,0.8-1.3c0.1-0.6,0.2-1.9,0.2-4v-12.2c0-2-0.1-3.3-0.2-3.8c-0.1-0.6-0.4-1-0.7-1.2c-0.4-0.2-1.2-0.3-2.5-0.3H454.9
		z"/>
	<path class="st0" d="M468.1,146.3v-8h0.9c1,5.2,3.5,7.8,7.4,7.8c1.7,0,3.1-0.5,4.1-1.5c1-1,1.4-2.1,1.4-3.3c0-1.2-0.4-2.3-1.3-3.1
		c-0.8-0.8-2.4-1.7-4.6-2.7c-2-0.9-3.5-1.6-4.5-2.2s-1.8-1.5-2.4-2.5c-0.6-1-0.9-2.1-0.9-3.3c0-1.8,0.6-3.2,1.8-4.4
		c1.2-1.2,2.8-1.8,4.7-1.8c1.1,0,2,0.2,3,0.5c0.9,0.3,1.9,1.1,2.9,2.1c0.6-0.7,0.9-1.4,1-2.2h0.8v6.5h-0.8c-0.5-1.9-1.3-3.4-2.5-4.5
		s-2.5-1.6-4.1-1.6c-1.5,0-2.6,0.4-3.3,1.2c-0.7,0.8-1,1.7-1,2.6c0,1.1,0.4,2.1,1.3,2.9c0.9,0.8,2.4,1.7,4.6,2.7
		c2.1,1,3.7,1.7,4.7,2.3c1,0.6,1.8,1.4,2.3,2.4c0.6,1,0.9,2.2,0.9,3.6c0,2.1-0.7,3.9-2.1,5.2c-1.4,1.3-3.3,2-5.7,2
		c-2.7,0-5-1-6.8-3.1c-0.4,0.6-0.7,1.4-0.9,2.4H468.1z"/>
	<path class="st0" d="M486,146.3v-8h0.9c1,5.2,3.5,7.8,7.4,7.8c1.7,0,3.1-0.5,4.1-1.5c1-1,1.4-2.1,1.4-3.3c0-1.2-0.4-2.3-1.3-3.1
		c-0.8-0.8-2.4-1.7-4.6-2.7c-2-0.9-3.5-1.6-4.5-2.2s-1.8-1.5-2.4-2.5c-0.6-1-0.9-2.1-0.9-3.3c0-1.8,0.6-3.2,1.8-4.4
		c1.2-1.2,2.8-1.8,4.7-1.8c1,0,2,0.2,3,0.5c0.9,0.3,1.9,1.1,2.9,2.1c0.6-0.7,0.9-1.4,1-2.2h0.8v6.5h-0.8c-0.5-1.9-1.3-3.4-2.5-4.5
		s-2.5-1.6-4.1-1.6c-1.5,0-2.6,0.4-3.3,1.2c-0.7,0.8-1,1.7-1,2.6c0,1.1,0.4,2.1,1.3,2.9c0.9,0.8,2.4,1.7,4.6,2.7
		c2.1,1,3.7,1.7,4.7,2.3c1,0.6,1.7,1.4,2.3,2.4c0.6,1,0.9,2.2,0.9,3.6c0,2.1-0.7,3.9-2.1,5.2c-1.4,1.3-3.3,2-5.7,2
		c-2.7,0-5-1-6.8-3.1c-0.4,0.6-0.7,1.4-0.9,2.4H486z"/>
	<path class="st0" d="M503.9,122.5v-0.8h11.4v0.8h-0.5c-1.2,0-2,0.1-2.4,0.3c-0.4,0.2-0.6,0.6-0.8,1.1c-0.1,0.5-0.2,1.9-0.2,3.9V140
		c0,2,0,3.2,0.1,3.8c0.1,0.6,0.3,1.1,0.7,1.3c0.4,0.3,1.2,0.4,2.3,0.4h0.7v0.8h-11.4v-0.8h0.7c1.1,0,1.8-0.1,2.2-0.4
		c0.4-0.3,0.7-0.7,0.8-1.3c0.1-0.6,0.2-1.9,0.2-4v-12.2c0-2-0.1-3.3-0.2-3.8c-0.1-0.6-0.4-1-0.7-1.2c-0.4-0.2-1.2-0.3-2.5-0.3H503.9
		z"/>
	<path class="st0" d="M515.7,133.9c0-3.8,1.3-6.9,3.8-9.2c2.6-2.3,5.8-3.5,9.6-3.5c3.9,0,7.1,1.1,9.7,3.4c2.6,2.3,3.9,5.4,3.9,9.4
		c0,3.8-1.2,7-3.7,9.3c-2.5,2.4-5.8,3.6-9.8,3.6c-3.9,0-7.2-1.2-9.7-3.6C516.9,141,515.7,137.9,515.7,133.9z M519.9,134.1
		c0,4,0.8,7,2.4,9c1.6,2,4,3,7.2,3c2.8,0,5-1,6.6-3c1.6-2,2.4-5,2.4-9c0-3.9-0.8-6.8-2.4-8.9c-1.6-2.1-3.9-3.1-7-3.1
		c-3,0-5.3,1-6.9,3C520.7,127.2,519.9,130.1,519.9,134.1z"/>
	<path class="st0" d="M565.3,147.1l-17.6-23.3V141c0,1.4,0.1,2.4,0.2,2.8c0.1,0.5,0.5,0.9,1.2,1.2s1.6,0.6,3,0.6v0.8h-9.3v-0.8
		c1.2-0.1,2.1-0.3,2.7-0.7c0.6-0.3,1-0.7,1.1-1.1c0.1-0.4,0.2-1.4,0.2-2.9v-13.2c0-1.9-0.1-3.2-0.3-3.8c-0.2-0.6-0.5-1.1-0.8-1.2
		s-1.2-0.3-2.6-0.3v-0.8h7.3l14.7,19.4v-14.9c0-1.1-0.1-1.9-0.3-2.3c-0.2-0.4-0.7-0.8-1.4-1c-0.7-0.3-1.5-0.4-2.5-0.4v-0.8h9v0.8
		c-1,0.1-1.9,0.3-2.5,0.6c-0.6,0.3-1,0.7-1.2,1.1c-0.2,0.4-0.2,1.2-0.2,2.3v20.5H565.3z"/>
	<path class="st0" d="M591.7,138.8h0.9l-0.5,7.7h-20.6v-0.8h0.5c1.2,0,2-0.2,2.4-0.5c0.4-0.3,0.6-0.7,0.7-1.3
		c0.1-0.5,0.1-1.8,0.1-3.9v-12.2c0-1.9-0.1-3.1-0.2-3.7s-0.3-1-0.7-1.3c-0.4-0.2-1.2-0.4-2.4-0.4v-0.8h17.7l0.6,6.2h-0.9
		c-0.4-1.7-0.9-3-1.4-3.7c-0.6-0.7-1.2-1.2-2-1.4c-0.8-0.2-2-0.3-3.8-0.3h-3.4v10.4h2.6c1.2,0,2.1-0.1,2.5-0.3
		c0.5-0.2,0.8-0.5,1-0.9c0.2-0.4,0.2-1.2,0.2-2.5h0.9v8.5h-0.9c0-1.4-0.1-2.3-0.3-2.8c-0.2-0.5-0.6-0.8-1-0.9
		c-0.4-0.1-1.2-0.2-2.3-0.2h-2.7v5.9c0,2.9,0.2,4.7,0.6,5.2c0.4,0.5,1.4,0.8,3.1,0.8h1.8c1.3,0,2.4-0.2,3.2-0.5
		c0.8-0.3,1.6-1,2.4-2.1C590.7,142.1,591.3,140.6,591.7,138.8z"/>
	<path class="st0" d="M619.8,146.5h-6.7c-1.2-0.8-3-3-5.4-6.5c-0.8-1.1-1.6-2.2-2.4-3.2c-0.8-1-1.4-1.7-1.7-1.9
		c-0.3-0.2-0.8-0.3-1.5-0.3h-1v5.5c0,2,0,3.2,0.1,3.8c0.1,0.6,0.3,1.1,0.7,1.3c0.4,0.3,1.2,0.4,2.3,0.4h1.2v0.8h-11.9v-0.8h0.8
		c1.1,0,1.8-0.1,2.2-0.4c0.4-0.3,0.7-0.7,0.8-1.3c0.1-0.6,0.2-1.9,0.2-4v-12.2c0-2-0.1-3.3-0.2-3.8c-0.1-0.6-0.4-1-0.7-1.2
		c-0.4-0.2-1.2-0.3-2.5-0.3h-0.4v-0.8l3.6-0.2c2.4-0.1,4.2-0.2,5.6-0.2c2.4,0,4.3,0.2,5.8,0.7c1.5,0.4,2.7,1.2,3.6,2.2
		c0.9,1,1.4,2.2,1.4,3.6c0,1.6-0.6,3-1.8,4.2c-1.2,1.1-3,1.9-5.3,2.1c1,0.5,2.7,2.3,5,5.4c1.9,2.5,3.4,4.2,4.4,5
		c1.1,0.8,2.3,1.2,3.8,1.2V146.5z M601,133.7c0.9,0,1.9-0.1,2.8-0.1s1.8-0.2,2.5-0.4c0.7-0.2,1.3-0.5,1.7-1c0.4-0.4,0.8-1,1.1-1.7
		c0.3-0.7,0.4-1.5,0.4-2.5c0-1.7-0.4-3.1-1.3-4.2c-0.9-1-2.8-1.6-5.7-1.6c-0.5,0-1,0-1.6,0.1V133.7z"/>
	<path class="st0" d="M620.8,146.3v-8h0.9c1,5.2,3.5,7.8,7.4,7.8c1.7,0,3.1-0.5,4.1-1.5c1-1,1.4-2.1,1.4-3.3c0-1.2-0.4-2.3-1.3-3.1
		c-0.8-0.8-2.4-1.7-4.6-2.7c-2-0.9-3.5-1.6-4.5-2.2c-1-0.6-1.8-1.5-2.4-2.5c-0.6-1-0.9-2.1-0.9-3.3c0-1.8,0.6-3.2,1.8-4.4
		c1.2-1.2,2.8-1.8,4.7-1.8c1,0,2,0.2,3,0.5c0.9,0.3,1.9,1.1,2.9,2.1c0.6-0.7,0.9-1.4,1-2.2h0.8v6.5h-0.8c-0.5-1.9-1.3-3.4-2.5-4.5
		c-1.2-1.1-2.5-1.6-4.1-1.6c-1.5,0-2.6,0.4-3.3,1.2c-0.7,0.8-1,1.7-1,2.6c0,1.1,0.4,2.1,1.3,2.9c0.9,0.8,2.4,1.7,4.6,2.7
		c2.1,1,3.7,1.7,4.7,2.3c1,0.6,1.7,1.4,2.3,2.4c0.6,1,0.9,2.2,0.9,3.6c0,2.1-0.7,3.9-2.1,5.2c-1.4,1.3-3.3,2-5.7,2
		c-2.7,0-5-1-6.8-3.1c-0.4,0.6-0.7,1.4-0.9,2.4H620.8z"/>
</g>
<g>
	<path class="st1" d="M0,145.4v-36.9h4.2c4.8,24.1,16.2,36.1,34.1,36.1c8.1,0,14.3-2.3,18.8-6.9c4.4-4.6,6.7-9.8,6.7-15.5
		c0-5.8-1.9-10.6-5.8-14.5c-3.9-3.8-11-8-21.4-12.4c-9.2-4-16.2-7.4-20.8-10.4c-4.7-3-8.3-6.8-11-11.6c-2.6-4.7-3.9-9.8-3.9-15.2
		c0-8.2,2.8-15,8.5-20.5c5.7-5.5,12.9-8.2,21.6-8.2c4.9,0,9.4,0.8,13.7,2.4c4.3,1.6,8.7,4.9,13.2,9.8c2.6-3.1,4.1-6.5,4.4-10.1H66
		v30.1h-3.7c-2.1-8.8-5.9-15.6-11.4-20.7c-5.5-5-11.8-7.5-18.9-7.5c-6.8,0-11.9,1.8-15,5.5c-3.2,3.7-4.8,7.8-4.8,12.2
		c0,5.3,2,9.8,6,13.5c4,3.7,11.1,7.9,21.4,12.5c9.9,4.4,17.1,8,21.6,10.6c4.5,2.7,8.1,6.4,10.8,11.1c2.7,4.7,4.1,10.2,4.1,16.4
		c0,9.8-3.3,17.8-9.8,24c-6.6,6.2-15.3,9.2-26.3,9.2c-12.6,0-23.1-4.8-31.5-14.5c-1.9,2.7-3.2,6.4-4.2,11.2H0z"/>
	<path class="st2" d="M197.6,146.6h-30.9c-5.5-3.8-13.9-13.9-25.2-30.2c-3.6-5.2-7.4-10.2-11.3-15c-3.9-4.8-6.6-7.7-8.1-8.7
		c-1.5-1-3.8-1.6-6.9-1.6h-4.6v25.5c0,9,0.2,15,0.6,17.8c0.4,2.8,1.6,4.9,3.4,6.2c1.8,1.4,5.4,2,10.6,2h5.5v3.9h-55v-3.9h3.7
		c4.9,0,8.3-0.6,10.2-1.9c1.9-1.2,3.1-3.2,3.6-5.8c0.5-2.6,0.8-8.7,0.8-18.3V60.3c0-9.2-0.3-15.1-0.8-17.7c-0.5-2.7-1.6-4.5-3.4-5.5
		c-1.8-1-5.5-1.5-11.4-1.5h-1.9v-3.9l16.4-0.8c11-0.5,19.7-0.8,26.1-0.8c11,0,19.9,1,26.7,3.1c6.9,2,12.4,5.4,16.7,10
		c4.2,4.6,6.4,10.2,6.4,16.6c0,7.5-2.8,13.9-8.3,19.2c-5.5,5.3-13.7,8.6-24.4,9.9c4.8,2.3,12.5,10.7,23.2,25.1
		c8.7,11.7,15.5,19.3,20.5,23c5,3.6,10.8,5.5,17.6,5.8V146.6z M110.7,87.3c4.2-0.1,8.6-0.3,13.1-0.5c4.5-0.2,8.4-0.8,11.8-1.9
		c3.3-1,6-2.5,8.1-4.4c2.1-1.9,3.7-4.5,4.9-7.7c1.2-3.2,1.8-7.1,1.8-11.7c0-8.1-2-14.5-6.1-19.4c-4-4.9-12.8-7.3-26.4-7.3
		c-2.1,0-4.5,0.1-7.2,0.3V87.3z"/>
	<path class="st3" d="M280.7,103.5h3.6v40.3h-3.6c-1-4.6-2.9-8.6-5.5-12.1c-10.1,11.4-23,17.1-38.7,17.1c-16.6,0-30.2-5.3-40.7-15.8
		c-10.5-10.5-15.8-24.4-15.8-41.7c0-11.4,2.4-22,7.3-32.1c4.9-10,11.6-17.5,20.3-22.3c8.7-4.9,18.2-7.3,28.6-7.3
		c8.6,0,16.4,1.8,23.3,5.3c7,3.5,12.2,7.4,15.6,11.7c2.4-4.8,3.9-9.8,4.4-14.9h3.7l1,43.6h-3.6C278.1,59.8,273,49,265.1,43
		c-7.8-6-16.7-9.1-26.5-9.1c-12,0-21.6,4.9-28.7,14.7c-7.1,9.8-10.6,23.8-10.6,41.9c0,17.2,3.9,30.4,11.6,39.6
		c7.7,9.2,17.4,13.8,28.9,13.8c6.2,0,12.5-1.5,18.9-4.5c6.4-3,11.5-8.1,15.3-15.2C277.8,117,280,110.1,280.7,103.5z"/>
</g>
<rect x="309.5" class="st0" width="3.6" height="178.3"/>
</svg>
