<?xml version="1.0" encoding="UTF-8"?><svg xmlns="http://www.w3.org/2000/svg" width="310" height="80" viewBox="0 0 310 80"><defs><style>.cls-1{fill:#fff;}.cls-2{stroke-width:2.25px;}.cls-2,.cls-3{fill:none;stroke:#fff;stroke-miterlimit:10;}.cls-3{fill-rule:evenodd;stroke-width:3px;}</style></defs><path class="cls-1" d="m87.8,35.58V11.22h4.28c3.49,5.69,11.09,17.81,12.46,20.46h.05c-.23-3.13-.21-6.97-.21-10.95v-9.51h3.05v24.35h-4.02c-3.22-5.29-11.14-18.32-12.67-21.05h-.05c.17,2.77.18,6.9.18,11.3v9.75h-3.07Z"/><path class="cls-1" d="m113.25,11.22v24.35h-3.23V11.22h3.23Z"/><path class="cls-1" d="m140.06,28.42c-1.08,4.13-4.16,7.21-9.69,7.21-7.28,0-10.96-5.53-10.96-12.41s3.68-12.6,11.08-12.6c5.74,0,8.86,3.28,9.58,7.35h-3.23c-.87-2.65-2.63-4.65-6.48-4.65-5.37,0-7.57,4.88-7.57,9.81s2.09,9.81,7.71,9.81c3.75,0,5.4-2.15,6.32-4.52h3.24Z"/><path class="cls-1" d="m145.51,17.83c2.87,8.5,4.44,13.21,4.91,15.02h.04c.58-2.01,1.84-6.07,4.74-15.02h3.1l-6.38,18.57c-1.81,5.19-3.14,6.51-6.77,6.51-.56,0-1.22-.04-1.91-.12v-2.67c.45.06.97.09,1.46.09,2.25,0,3.1-.99,4.15-3.95l-6.65-18.43h3.31Z"/><path class="cls-1" d="m160.99,9.88h3.06v10.48c.8-1.51,2.43-2.95,5.66-2.95,4.45,0,7.26,3.67,7.26,8.93s-2.71,9.66-7.73,9.66c-2.84,0-4.32-1.04-5.22-2.76,0,.91-.06,1.87-.12,2.34h-2.96c.04-1.98.04-3.98.04-5.96V9.88Zm12.83,16.52c0-3.83-1.75-6.4-4.83-6.4-3.77,0-5.1,2.53-5.1,6.76,0,3.7,1.18,6.65,4.95,6.65,3.14,0,4.97-2.68,4.97-7.01Z"/><path class="cls-1" d="m183.02,27.29c.02,3.61,1.84,6.18,4.85,6.18,2.81,0,3.72-1.45,4.28-2.75h3.09c-.7,2.27-2.6,5.31-7.47,5.31-5.58,0-7.86-4.54-7.86-9.1,0-5.28,2.66-9.48,8.05-9.48,5.73,0,7.6,4.59,7.6,8.38,0,.54,0,.99-.05,1.47h-12.51Zm9.45-2.16c-.04-2.92-1.5-5.27-4.54-5.27s-4.5,2.17-4.81,5.27h9.34Z"/><path class="cls-1" d="m197.62,22.8c0-2.48-.02-3.88-.04-4.82h3c.05.5.09,1.89.09,3.62.93-2.4,3.04-3.95,5.98-4.04v3.06c-3.64.11-5.98,2.01-5.98,6.5v8.62h-3.06v-12.93Z"/><path class="cls-1" d="m90.51,62.55c.66,2.92,2.66,4.5,6.19,4.5,3.8,0,5.3-1.78,5.3-4.08,0-2.44-1.2-3.81-6.08-4.99-5.74-1.39-7.73-3.36-7.73-6.78,0-3.62,2.67-6.57,8.1-6.57,5.8,0,8.19,3.35,8.51,6.55h-3.29c-.44-2.17-1.79-3.95-5.34-3.95-2.97,0-4.63,1.34-4.63,3.66s1.38,3.19,5.64,4.22c6.95,1.69,8.17,4.39,8.17,7.52,0,3.93-2.91,7.01-8.87,7.01s-8.76-3.35-9.27-7.08h3.29Z"/><path class="cls-1" d="m110.98,60.93c.02,3.61,1.84,6.17,4.85,6.17,2.81,0,3.72-1.45,4.28-2.75h3.09c-.7,2.27-2.6,5.31-7.47,5.31-5.58,0-7.86-4.54-7.86-9.11,0-5.28,2.66-9.48,8.05-9.48,5.73,0,7.6,4.59,7.6,8.38,0,.54,0,.99-.05,1.47h-12.51Zm9.45-2.16c-.04-2.92-1.5-5.27-4.54-5.27s-4.49,2.17-4.81,5.27h9.34Z"/><path class="cls-1" d="m141.41,63.79c-.75,3.06-2.82,5.85-7.34,5.85-4.88,0-7.91-3.52-7.91-9.2,0-5.02,2.84-9.39,8.13-9.39s6.89,3.65,7.11,5.94h-3.04c-.44-1.81-1.57-3.37-4.14-3.37-3.14,0-4.92,2.69-4.92,6.72s1.72,6.76,4.81,6.76c2.22,0,3.51-1.18,4.24-3.3h3.05Z"/><path class="cls-1" d="m158.65,64.4c0,1.73.02,4.12.04,5.17h-2.98c-.07-.47-.11-1.55-.12-2.66-.87,1.97-2.58,3.08-5.38,3.08-2.99,0-5.86-1.49-5.86-6.5v-11.67h3.04v11.02c0,2.33.73,4.48,3.68,4.48,3.26,0,4.52-1.81,4.52-6.24v-9.26h3.06v12.58Z"/><path class="cls-1" d="m161.9,56.65c0-2.48-.02-3.88-.04-4.82h3c.05.5.09,1.89.09,3.62.93-2.4,3.04-3.95,5.98-4.04v3.06c-3.64.11-5.98,2.01-5.98,6.5v8.62h-3.06v-12.93Z"/><path class="cls-1" d="m173.97,44.88h3.06v3.83h-3.06v-3.83Zm0,6.95h3.06v17.75h-3.06v-17.75Z"/><path class="cls-1" d="m178.64,51.58h3.07v-5.24h3.06v5.24h3.92v2.5h-3.92v10.4c0,1.72.42,2.61,2.03,2.61.43,0,1.06-.02,1.55-.15v2.31c-.76.28-1.81.33-2.65.33-2.76,0-3.98-1.43-3.98-4.38v-11.12h-3.07v-2.5Z"/><path class="cls-1" d="m193.45,51.83c2.87,8.5,4.44,13.21,4.91,15.02h.04c.58-2.01,1.84-6.07,4.74-15.02h3.1l-6.38,18.57c-1.81,5.19-3.14,6.51-6.77,6.51-.56,0-1.22-.04-1.91-.12v-2.67c.45.06.97.09,1.46.09,2.25,0,3.1-.99,4.15-3.95l-6.65-18.43h3.31Z"/><path class="cls-1" d="m233.4,62.42c-1.08,4.13-4.16,7.21-9.69,7.21-7.28,0-10.96-5.53-10.96-12.41s3.68-12.6,11.08-12.6c5.74,0,8.86,3.28,9.58,7.35h-3.23c-.87-2.65-2.63-4.65-6.48-4.65-5.37,0-7.57,4.88-7.57,9.81s2.09,9.81,7.71,9.81c3.75,0,5.4-2.15,6.32-4.52h3.24Z"/><path class="cls-1" d="m239.73,60.86c.02,3.61,1.84,6.17,4.85,6.17,2.81,0,3.72-1.45,4.28-2.75h3.09c-.7,2.27-2.6,5.31-7.47,5.31-5.58,0-7.86-4.54-7.86-9.11,0-5.28,2.66-9.48,8.05-9.48,5.73,0,7.6,4.59,7.6,8.38,0,.54,0,.99-.05,1.47h-12.51Zm9.45-2.16c-.04-2.92-1.5-5.27-4.54-5.27s-4.5,2.17-4.81,5.27h9.34Z"/><path class="cls-1" d="m255.37,56.3c0-1.54,0-3.1-.04-4.47h2.98c.08.52.13,2.39.12,2.92.71-1.53,2.16-3.34,5.59-3.34s5.93,2.04,5.93,6.75v11.42h-3.06v-11.02c0-2.68-1.05-4.49-3.76-4.49-3.35,0-4.7,2.55-4.7,6.12v9.4h-3.06v-13.28Z"/><path class="cls-1" d="m271,51.58h3.07v-5.24h3.06v5.24h3.92v2.5h-3.92v10.4c0,1.72.42,2.61,2.03,2.61.43,0,1.06-.02,1.55-.15v2.31c-.76.28-1.81.33-2.65.33-2.76,0-3.98-1.43-3.98-4.38v-11.12h-3.07v-2.5Z"/><path class="cls-1" d="m284.17,56.4c0-2.48-.02-3.88-.04-4.82h3c.05.5.09,1.89.09,3.62.93-2.4,3.04-3.95,5.98-4.04v3.06c-3.64.11-5.98,2.01-5.98,6.5v8.62h-3.06v-12.93Z"/><path class="cls-1" d="m296.73,60.86c.02,3.61,1.84,6.17,4.85,6.17,2.81,0,3.72-1.45,4.28-2.75h3.09c-.7,2.27-2.6,5.31-7.47,5.31-5.58,0-7.86-4.54-7.86-9.11,0-5.28,2.66-9.48,8.05-9.48,5.73,0,7.6,4.59,7.6,8.38,0,.54,0,.99-.05,1.47h-12.51Zm9.45-2.16c-.04-2.92-1.5-5.27-4.54-5.27s-4.5,2.17-4.81,5.27h9.34Z"/><path class="cls-1" d="m38.78,24.88c-7.73,0-14,6.27-14,14s6.27,14,14,14,14-6.27,14-14-6.27-14-14-14Zm-1.84,19.23l1.46-5.61c-1.38-1.37-1.1-3.27-1.1-3.27.52-1.64,2.02-1.48,2.02-1.48,1.54-.13,2.1,1.36,2.1,1.36.64,1.23-1.06,3.28-1.06,3.28l1.34,5.85c-3.09,1.36-4.75-.12-4.75-.12Z"/><path class="cls-3" d="m68.28,15.38C55.08-.81,38.03,1.63,38.03,1.63,14.78,1.88,5.56,20.35,5.56,20.35l15.21,8.49s-6.21,10.85,1.15,22.19"/><circle class="cls-2" cx="28.53" cy="21.13" r="3"/><circle class="cls-2" cx="70.53" cy="18.38" r="3"/><circle class="cls-2" cx="56.03" cy="51.88" r="3"/><circle class="cls-2" cx="49.03" cy="75.63" r="3"/><circle class="cls-2" cx="23.78" cy="53.38" r="3"/><path class="cls-3" d="m31.11,19.62s16.52-7.91,26.85,8.93l6.57-4.26s-7.75-14.4-25.5-14.65c0,0-13.43,0-21.09,8.87"/><path class="cls-3" d="m57.41,71.82s9.17-4.53,14.27-14.24l-7.11-3.69s-7.35,14.41-24.07,14.7c0,0-8.93.77-16.32-3.97l5.2-6.82s5.23,3.08,12.32,2.58c0,0,7.22-.54,12.65-6.02"/><path class="cls-3" d="m18.84,60.64s-7.07-5.19-9.32-18.22c0,0-.89-5.28.93-10.65l-7.72-2.11s-.96,3.24-1.21,9.49c0,0-1.52,20.13,19.12,32.69,0,0,9.29,6.35,25.46,4.45"/></svg>