<?xml version="1.0" standalone="no"?>
<!DOCTYPE svg PUBLIC "-//W3C//DTD SVG 20010904//EN"
 "http://www.w3.org/TR/2001/REC-SVG-20010904/DTD/svg10.dtd">
<svg version="1.0" xmlns="http://www.w3.org/2000/svg"
 width="700.000000pt" height="700.000000pt" viewBox="0 0 700.000000 700.000000"
 preserveAspectRatio="xMidYMid meet">
<metadata>
Created by potrace 1.14, written by Peter Selinger 2001-2017
</metadata>
<g transform="translate(0.000000,700.000000) scale(0.100000,-0.100000)"
fill="#000000" stroke="none">
<path d="M747 5884 c-1 -1 -27 -4 -57 -7 -257 -27 -377 -125 -486 -394 -34
-85 -78 -234 -89 -303 -3 -19 -8 -42 -10 -50 -4 -17 -18 -131 -29 -240 -5 -47
-14 -214 -22 -385 -5 -125 -5 -1422 0 -1685 5 -207 16 -511 21 -570 2 -19 6
-71 10 -115 16 -201 53 -399 102 -544 53 -160 149 -302 248 -370 68 -47 166
-64 365 -64 178 0 325 20 389 53 114 58 226 241 279 455 27 109 34 154 47 305
13 150 14 179 19 533 l5 347 -42 1 c-23 0 -99 2 -169 3 l-128 2 0 -170 c-1
-305 -9 -419 -37 -530 -44 -177 -127 -230 -363 -230 -186 0 -254 30 -308 139
-16 34 -23 55 -37 115 -45 197 -54 444 -54 1450 -1 816 6 1041 33 1170 3 14 8
38 11 53 24 119 87 201 181 238 52 20 78 23 209 23 138 1 154 -1 198 -22 112
-56 142 -189 151 -669 1 -62 5 -115 8 -118 5 -5 230 -9 311 -6 18 1 18 15 12
319 -3 174 -8 335 -10 357 -2 22 -6 69 -10 105 -25 264 -74 458 -150 597 -67
121 -139 172 -285 199 -32 5 -307 13 -313 8z"/>
<path d="M1762 3533 c0 -1269 1 -2315 4 -2323 3 -13 31 -15 169 -15 l165 0 0
748 0 747 218 1 c318 1 451 10 507 33 56 24 146 123 187 206 68 138 113 335
134 580 3 41 8 86 10 100 22 134 21 1068 0 1285 -3 22 -7 72 -10 111 -4 39 -8
80 -10 90 -2 11 -7 42 -10 69 -43 318 -158 559 -302 633 -70 36 -136 40 -605
42 l-456 1 -1 -2308z m925 1543 c18 -11 41 -32 52 -47 29 -39 58 -134 66 -214
4 -38 9 -81 12 -95 9 -44 11 -792 2 -870 -13 -116 -18 -148 -30 -193 -29 -108
-87 -169 -178 -188 -45 -9 -339 -15 -483 -10 l-28 1 0 821 0 821 278 -4 c253
-3 280 -5 309 -22z"/>
<path d="M3689 5838 c-3 -13 -32 -227 -44 -328 -6 -50 -13 -107 -20 -160 -3
-19 -7 -55 -10 -80 -3 -25 -7 -56 -10 -70 -2 -14 -7 -54 -11 -90 -3 -36 -8
-72 -9 -81 -2 -9 -6 -40 -10 -70 -3 -30 -8 -65 -10 -79 -5 -32 -17 -127 -20
-160 -4 -36 -16 -131 -20 -160 -2 -14 -6 -45 -9 -70 -12 -100 -16 -136 -20
-157 -3 -12 -8 -54 -11 -95 -4 -40 -8 -75 -10 -78 -2 -3 -6 -32 -9 -65 -4 -33
-9 -73 -11 -90 -3 -16 -7 -46 -9 -65 -8 -64 -47 -375 -51 -400 -2 -14 -6 -47
-10 -75 -10 -84 -15 -128 -20 -165 -3 -19 -8 -55 -10 -80 -3 -25 -8 -62 -10
-82 -3 -21 -7 -55 -10 -75 -2 -21 -7 -58 -10 -83 -3 -25 -9 -76 -15 -115 -5
-38 -12 -88 -14 -110 -2 -22 -9 -78 -16 -125 -6 -47 -13 -102 -15 -122 -3 -21
-7 -55 -10 -75 -2 -21 -7 -58 -10 -83 -3 -25 -9 -79 -15 -120 -5 -41 -12 -97
-15 -125 -4 -27 -8 -61 -10 -75 -2 -14 -7 -47 -10 -75 -6 -48 -12 -95 -21
-160 -2 -16 -7 -52 -10 -80 -3 -27 -7 -61 -8 -75 -9 -70 -18 -135 -21 -149 -1
-9 -6 -45 -9 -81 -4 -36 -9 -76 -11 -90 -3 -14 -7 -47 -10 -75 l-5 -50 162 2
c90 1 170 2 178 2 11 1 17 12 18 34 1 18 4 42 6 54 3 11 9 65 16 119 6 55 12
113 15 129 2 17 6 55 10 85 4 30 8 66 10 80 6 39 24 189 31 255 3 33 9 76 13
95 l7 35 379 0 380 0 11 -85 c6 -47 14 -107 18 -135 11 -96 26 -210 31 -245 7
-49 14 -106 21 -168 3 -29 7 -62 9 -74 5 -25 17 -125 19 -153 0 -11 6 -22 13
-25 22 -9 338 -3 336 6 -1 5 -4 37 -8 71 -3 34 -8 70 -10 81 -2 10 -6 43 -10
73 -3 30 -10 81 -15 114 -5 33 -11 85 -15 116 -3 31 -7 65 -9 75 -2 11 -7 46
-11 79 -9 80 -14 123 -20 165 -3 19 -12 87 -20 150 -8 63 -17 131 -19 150 -3
19 -7 58 -11 85 -3 28 -8 66 -11 85 -2 19 -7 51 -9 70 -7 57 -14 110 -19 149
-3 20 -15 110 -26 201 -12 91 -23 176 -25 190 -1 14 -6 50 -10 80 -3 30 -8 66
-10 80 -5 31 -11 79 -25 190 -6 47 -12 99 -15 115 -2 17 -9 71 -15 120 -6 50
-13 104 -15 120 -4 31 -13 103 -21 165 -2 19 -6 53 -10 75 -8 58 -12 83 -19
145 -4 30 -8 66 -10 80 -2 14 -6 48 -10 75 -4 28 -8 65 -11 83 -2 17 -6 47 -8
65 -3 17 -7 52 -11 77 -3 25 -7 61 -9 80 -2 19 -6 53 -10 75 -7 50 -57 441
-61 475 -1 14 -5 43 -8 65 -4 22 -9 60 -12 85 -3 25 -8 61 -10 80 -3 19 -7 55
-10 80 -5 46 -13 106 -20 150 -2 14 -7 52 -11 85 -4 33 -8 69 -10 80 -1 11 -3
28 -3 38 -1 16 -20 17 -251 17 -137 0 -250 -1 -251 -2z m304 -1078 c25 -199
78 -621 82 -648 3 -18 7 -54 10 -80 3 -26 9 -76 15 -112 5 -36 12 -90 15 -120
4 -30 8 -62 10 -70 1 -8 6 -44 9 -80 8 -70 11 -94 20 -155 6 -41 15 -119 20
-165 5 -45 18 -144 22 -170 4 -26 19 -147 30 -240 3 -30 10 -77 14 -105 6 -37
5 -53 -4 -60 -8 -6 -123 -10 -302 -9 -242 1 -289 3 -288 15 0 17 15 145 19
173 2 12 6 44 10 71 3 28 10 86 16 130 5 44 12 98 15 120 2 22 6 56 9 75 3 19
7 53 10 75 2 22 16 132 31 245 31 247 30 240 39 315 7 69 10 91 24 195 6 41
13 98 16 125 6 56 13 112 20 165 3 19 7 53 10 75 2 22 14 114 25 205 11 91 23
185 26 210 3 25 10 74 15 110 5 36 9 72 10 80 1 13 32 -210 52 -370z"/>
<path d="M4912 3518 l3 -2323 88 0 c49 0 93 2 97 5 5 3 7 949 7 2102 -1 1153
0 2095 1 2093 3 -3 52 -210 87 -365 2 -8 11 -46 20 -85 9 -38 18 -77 20 -85 2
-8 11 -46 20 -85 9 -38 19 -81 21 -95 3 -14 17 -72 30 -130 14 -58 28 -116 30
-130 3 -14 16 -72 30 -130 14 -58 27 -112 29 -120 25 -113 157 -679 165 -710
5 -19 16 -64 24 -100 8 -36 26 -112 40 -170 13 -58 41 -175 61 -260 20 -85 47
-200 60 -255 13 -55 58 -247 99 -427 42 -180 78 -333 81 -340 2 -7 6 -24 9
-38 3 -14 39 -170 80 -348 42 -178 76 -324 76 -325 0 -5 307 0 315 5 7 4 11
760 10 2320 l0 2313 -98 3 c-87 2 -97 1 -98 -15 0 -10 -1 -961 -2 -2113 0
-1152 -4 -2081 -8 -2065 -3 17 -23 102 -42 190 -20 88 -50 219 -67 290 -18 72
-34 140 -36 152 -2 12 -16 71 -30 130 -14 60 -27 115 -29 123 -2 8 -20 85 -40
170 -20 85 -38 162 -40 170 -9 41 -58 254 -95 410 -59 250 -101 432 -106 455
-2 11 -31 137 -64 280 -34 143 -63 269 -65 280 -3 11 -19 81 -36 155 -17 74
-49 212 -70 305 -22 94 -51 217 -65 275 -14 58 -29 125 -34 150 -5 25 -23 104
-40 175 -17 72 -33 141 -36 155 -3 14 -10 43 -16 65 -5 22 -12 47 -13 55 -2 8
-13 57 -24 107 -12 51 -21 95 -21 98 0 3 -74 5 -165 5 l-165 0 2 -2322z"/>
<path d="M6757 5833 c-7 -12 -5 -4633 2 -4634 3 0 48 -1 99 -2 l92 -2 0 2323
0 2322 -94 0 c-52 0 -97 -3 -99 -7z"/>
</g>
</svg>
