<?xml version="1.0" encoding="UTF-8" standalone="no" ?>
<!DOCTYPE svg PUBLIC "-//W3C//DTD SVG 1.1//EN" "http://www.w3.org/Graphics/SVG/1.1/DTD/svg11.dtd">
<svg xmlns="http://www.w3.org/2000/svg" xmlns:xlink="http://www.w3.org/1999/xlink" version="1.1" width="250" height="250" viewBox="0 0 250 250" xml:space="preserve">
<desc>Created with Fabric.js 3.6.3</desc>
<defs>
</defs>
<g transform="matrix(0.51 0 0 0.51 125.03 128.16)"  >
<g style=""   >
		<g transform="matrix(1 0 0 1 -225.6 41.1)" id="Layer_1"  >
<path style="stroke: none; stroke-width: 1; stroke-dasharray: none; stroke-linecap: butt; stroke-dashoffset: 0; stroke-linejoin: miter; stroke-miterlimit: 4; fill: rgb(141,60,103); fill-rule: nonzero; opacity: 1;"  transform=" translate(-13.75, -144.85)" d="M 10.1 135 H 0 v -6.7 h 27.5 v 6.7 H 17.4 v 26.4 h -7.3 V 135 z" stroke-linecap="round" />
</g>
		<g transform="matrix(1 0 0 1 -202.2 44.74)" id="Layer_1"  >
<path style="stroke: none; stroke-width: 1; stroke-dasharray: none; stroke-linecap: butt; stroke-dashoffset: 0; stroke-linejoin: miter; stroke-miterlimit: 4; fill: rgb(141,60,103); fill-rule: nonzero; opacity: 1;"  transform=" translate(-37.15, -148.49)" d="M 29.5 136.1 h 7.2 v 5.1 c 1.5 -3.5 3.8 -5.8 8.1 -5.6 v 7.5 h -0.4 c -4.8 0 -7.7 2.9 -7.7 8.9 v 9.4 h -7.2 V 136.1 z" stroke-linecap="round" />
</g>
		<g transform="matrix(1 0 0 1 -179.9 45.05)" id="Layer_1"  >
<path style="stroke: none; stroke-width: 1; stroke-dasharray: none; stroke-linecap: butt; stroke-dashoffset: 0; stroke-linejoin: miter; stroke-miterlimit: 4; fill: rgb(141,60,103); fill-rule: nonzero; opacity: 1;"  transform=" translate(-59.45, -148.8)" d="M 45.7 148.9 L 45.7 148.9 c 0 -7.4 5.9 -13.3 13.8 -13.3 c 7.9 0 13.7 5.8 13.7 13.1 v 0.1 c 0 7.3 -5.9 13.2 -13.8 13.2 C 51.5 162 45.7 156.2 45.7 148.9 z M 66 148.9 L 66 148.9 c 0 -3.8 -2.7 -7.1 -6.7 -7.1 c -4.1 0 -6.6 3.2 -6.6 6.9 v 0.1 c 0 3.7 2.7 7 6.7 7 C 63.6 155.8 66 152.6 66 148.9 z" stroke-linecap="round" />
</g>
		<g transform="matrix(1 0 0 1 -151.2 45.3)" id="Layer_1"  >
<path style="stroke: none; stroke-width: 1; stroke-dasharray: none; stroke-linecap: butt; stroke-dashoffset: 0; stroke-linejoin: miter; stroke-miterlimit: 4; fill: rgb(141,60,103); fill-rule: nonzero; opacity: 1;"  transform=" translate(-88.15, -149.05)" d="M 76.5 152.5 v -16.4 h 7.2 v 14.2 c 0 3.4 1.6 5.2 4.4 5.2 c 2.7 0 4.5 -1.8 4.5 -5.2 v -14.2 h 7.2 v 25.4 h -7.2 v -3.6 c -1.7 2.1 -3.8 4.1 -7.4 4.1 C 79.7 161.9 76.5 158.3 76.5 152.5 z" stroke-linecap="round" />
</g>
		<g transform="matrix(1 0 0 1 -121.4 40.55)" id="Layer_1"  >
<path style="stroke: none; stroke-width: 1; stroke-dasharray: none; stroke-linecap: butt; stroke-dashoffset: 0; stroke-linejoin: miter; stroke-miterlimit: 4; fill: rgb(141,60,103); fill-rule: nonzero; opacity: 1;"  transform=" translate(-117.95, -144.3)" d="M 111.8 158.1 v 3.3 h -7.2 v -34.6 h 7.2 v 12.8 c 1.8 -2.4 4.2 -4.1 7.9 -4.1 c 5.9 0 11.6 4.6 11.6 13.1 v 0.1 c 0 8.5 -5.5 13.1 -11.6 13.1 C 115.9 161.9 113.5 160.2 111.8 158.1 z M 124.1 148.8 L 124.1 148.8 c 0 -4.3 -2.8 -7.1 -6.2 -7.1 c -3.4 0 -6.2 2.8 -6.2 7 v 0.1 c 0 4.2 2.8 7 6.2 7 C 121.2 155.8 124.1 153.1 124.1 148.8 z" stroke-linecap="round" />
</g>
		<g transform="matrix(1 0 0 1 -100.45 40.45)" id="Layer_1"  >
<path style="stroke: none; stroke-width: 1; stroke-dasharray: none; stroke-linecap: butt; stroke-dashoffset: 0; stroke-linejoin: miter; stroke-miterlimit: 4; fill: rgb(141,60,103); fill-rule: nonzero; opacity: 1;"  transform=" translate(-138.9, -144.2)" d="M 135.3 126.9 h 7.2 v 34.6 h -7.2 V 126.9 z" stroke-linecap="round" />
</g>
		<g transform="matrix(1 0 0 1 -80.5 45.05)" id="Layer_1"  >
<path style="stroke: none; stroke-width: 1; stroke-dasharray: none; stroke-linecap: butt; stroke-dashoffset: 0; stroke-linejoin: miter; stroke-miterlimit: 4; fill: rgb(141,60,103); fill-rule: nonzero; opacity: 1;"  transform=" translate(-158.85, -148.8)" d="M 146.4 148.9 L 146.4 148.9 c 0 -7.3 5.2 -13.3 12.5 -13.3 c 8.5 0 12.4 6.6 12.4 13.8 c 0 0.6 0 1.2 -0.1 1.9 h -17.7 c 0.7 3.3 3 5 6.2 5 c 2.4 0 4.2 -0.8 6.2 -2.6 l 4.1 3.6 c -2.4 2.9 -5.8 4.7 -10.4 4.7 C 152 162 146.4 156.7 146.4 148.9 z M 164.3 146.8 c -0.4 -3.2 -2.3 -5.4 -5.3 -5.4 c -3 0 -4.9 2.1 -5.5 5.4 H 164.3 z" stroke-linecap="round" />
</g>
		<g transform="matrix(1 0 0 1 -56.05 45.15)" id="Layer_1"  >
<path style="stroke: none; stroke-width: 1; stroke-dasharray: none; stroke-linecap: butt; stroke-dashoffset: 0; stroke-linejoin: miter; stroke-miterlimit: 4; fill: rgb(141,60,103); fill-rule: nonzero; opacity: 1;"  transform=" translate(-183.3, -148.9)" d="M 173 158.1 l 3.1 -4.7 c 2.7 2 5.6 3 8 3 c 2.1 0 3 -0.8 3 -1.9 v -0.1 c 0 -1.6 -2.5 -2.1 -5.3 -2.9 c -3.6 -1 -7.6 -2.7 -7.6 -7.6 v -0.1 c 0 -5.2 4.2 -8 9.3 -8 c 3.2 0 6.7 1.1 9.5 2.9 l -2.7 5 c -2.5 -1.5 -5 -2.4 -6.9 -2.4 c -1.8 0 -2.7 0.8 -2.7 1.8 v 0.1 c 0 1.4 2.4 2.1 5.2 3 c 3.6 1.2 7.7 2.9 7.7 7.5 v 0.1 c 0 5.6 -4.2 8.2 -9.7 8.2 C 180.4 161.9 176.4 160.7 173 158.1 z" stroke-linecap="round" />
</g>
		<g transform="matrix(1 0 0 1 4.95 41.1)" id="Layer_1"  >
<path style="stroke: none; stroke-width: 1; stroke-dasharray: none; stroke-linecap: butt; stroke-dashoffset: 0; stroke-linejoin: miter; stroke-miterlimit: 4; fill: rgb(141,60,103); fill-rule: nonzero; opacity: 1;"  transform=" translate(-244.3, -144.85)" d="M 231.2 128.3 h 13.5 c 7.9 0 12.7 4.7 12.7 11.5 v 0.1 c 0 7.7 -6 11.6 -13.4 11.6 h -5.5 v 9.9 h -7.3 V 128.3 z M 244.2 145 c 3.6 0 5.8 -2.2 5.8 -5 v -0.1 c 0 -3.3 -2.3 -5 -5.9 -5 h -5.6 V 145 H 244.2 z" stroke-linecap="round" />
</g>
		<g transform="matrix(1 0 0 1 32.1 45.05)" id="Layer_1"  >
<path style="stroke: none; stroke-width: 1; stroke-dasharray: none; stroke-linecap: butt; stroke-dashoffset: 0; stroke-linejoin: miter; stroke-miterlimit: 4; fill: rgb(141,60,103); fill-rule: nonzero; opacity: 1;"  transform=" translate(-271.45, -148.8)" d="M 259 148.9 L 259 148.9 c 0 -7.3 5.2 -13.3 12.5 -13.3 c 8.5 0 12.4 6.6 12.4 13.8 c 0 0.6 0 1.2 -0.1 1.9 h -17.7 c 0.7 3.3 3 5 6.2 5 c 2.4 0 4.2 -0.8 6.2 -2.6 l 4.1 3.6 c -2.4 2.9 -5.8 4.7 -10.4 4.7 C 264.6 162 259 156.7 259 148.9 z M 276.9 146.8 c -0.4 -3.2 -2.3 -5.4 -5.3 -5.4 c -3 0 -4.9 2.1 -5.5 5.4 H 276.9 z" stroke-linecap="round" />
</g>
		<g transform="matrix(1 0 0 1 57.5 44.74)" id="Layer_1"  >
<path style="stroke: none; stroke-width: 1; stroke-dasharray: none; stroke-linecap: butt; stroke-dashoffset: 0; stroke-linejoin: miter; stroke-miterlimit: 4; fill: rgb(141,60,103); fill-rule: nonzero; opacity: 1;"  transform=" translate(-296.85, -148.49)" d="M 289.2 136.1 h 7.2 v 5.1 c 1.5 -3.5 3.8 -5.8 8.1 -5.6 v 7.5 h -0.4 c -4.8 0 -7.7 2.9 -7.7 8.9 v 9.4 h -7.2 V 136.1 z" stroke-linecap="round" />
</g>
		<g transform="matrix(1 0 0 1 89.05 44.75)" id="Layer_1"  >
<path style="stroke: none; stroke-width: 1; stroke-dasharray: none; stroke-linecap: butt; stroke-dashoffset: 0; stroke-linejoin: miter; stroke-miterlimit: 4; fill: rgb(141,60,103); fill-rule: nonzero; opacity: 1;"  transform=" translate(-328.4, -148.5)" d="M 309 136.1 h 7.2 v 3.6 c 1.7 -2.1 3.8 -4.1 7.5 -4.1 c 3.3 0 5.8 1.5 7.2 4 c 2.2 -2.6 4.9 -4 8.3 -4 c 5.3 0 8.6 3.2 8.6 9.3 v 16.5 h -7.2 v -14.2 c 0 -3.4 -1.5 -5.2 -4.2 -5.2 c -2.7 0 -4.4 1.8 -4.4 5.2 v 14.2 h -7.2 v -14.2 c 0 -3.4 -1.5 -5.2 -4.2 -5.2 c -2.7 0 -4.4 1.8 -4.4 5.2 v 14.2 H 309 V 136.1 z" stroke-linecap="round" />
</g>
		<g transform="matrix(1 0 0 1 123.1 45.2)" id="Layer_1"  >
<path style="stroke: none; stroke-width: 1; stroke-dasharray: none; stroke-linecap: butt; stroke-dashoffset: 0; stroke-linejoin: miter; stroke-miterlimit: 4; fill: rgb(141,60,103); fill-rule: nonzero; opacity: 1;"  transform=" translate(-362.45, -148.95)" d="M 350.8 154.2 L 350.8 154.2 c 0 -5.6 4.2 -8.2 10.2 -8.2 c 2.6 0 4.4 0.4 6.2 1 v -0.4 c 0 -3 -1.8 -4.6 -5.4 -4.6 c -2.7 0 -4.7 0.5 -7 1.4 l -1.8 -5.5 c 2.8 -1.2 5.5 -2 9.8 -2 c 3.9 0 6.8 1 8.6 2.8 c 1.9 1.9 2.7 4.7 2.7 8.1 v 14.7 h -7 v -2.7 c -1.8 1.9 -4.2 3.2 -7.7 3.2 C 354.8 161.9 350.8 159.2 350.8 154.2 z M 367.4 152.5 v -1.3 c -1.2 -0.6 -2.8 -0.9 -4.6 -0.9 c -3.1 0 -5 1.2 -5 3.5 v 0.1 c 0 1.9 1.6 3.1 3.9 3.1 C 365.1 157 367.4 155.1 367.4 152.5 z" stroke-linecap="round" />
</g>
		<g transform="matrix(1 0 0 1 151 44.75)" id="Layer_1"  >
<path style="stroke: none; stroke-width: 1; stroke-dasharray: none; stroke-linecap: butt; stroke-dashoffset: 0; stroke-linejoin: miter; stroke-miterlimit: 4; fill: rgb(141,60,103); fill-rule: nonzero; opacity: 1;"  transform=" translate(-390.35, -148.5)" d="M 378.8 136.1 h 7.2 v 3.6 c 1.7 -2.1 3.8 -4.1 7.4 -4.1 c 5.4 0 8.6 3.6 8.6 9.4 v 16.4 h -7.2 v -14.2 c 0 -3.4 -1.6 -5.2 -4.4 -5.2 c -2.7 0 -4.5 1.8 -4.5 5.2 v 14.2 h -7.2 V 136.1 z" stroke-linecap="round" />
</g>
		<g transform="matrix(1 0 0 1 178.5 45.05)" id="Layer_1"  >
<path style="stroke: none; stroke-width: 1; stroke-dasharray: none; stroke-linecap: butt; stroke-dashoffset: 0; stroke-linejoin: miter; stroke-miterlimit: 4; fill: rgb(141,60,103); fill-rule: nonzero; opacity: 1;"  transform=" translate(-417.85, -148.8)" d="M 405.4 148.9 L 405.4 148.9 c 0 -7.3 5.2 -13.3 12.5 -13.3 c 8.5 0 12.4 6.6 12.4 13.8 c 0 0.6 0 1.2 -0.1 1.9 h -17.7 c 0.7 3.3 3 5 6.2 5 c 2.4 0 4.2 -0.8 6.2 -2.6 l 4.1 3.6 c -2.4 2.9 -5.8 4.7 -10.4 4.7 C 411 162 405.4 156.7 405.4 148.9 z M 423.3 146.8 c -0.4 -3.2 -2.3 -5.4 -5.3 -5.4 c -3 0 -4.9 2.1 -5.5 5.4 H 423.3 z" stroke-linecap="round" />
</g>
		<g transform="matrix(1 0 0 1 206.25 44.75)" id="Layer_1"  >
<path style="stroke: none; stroke-width: 1; stroke-dasharray: none; stroke-linecap: butt; stroke-dashoffset: 0; stroke-linejoin: miter; stroke-miterlimit: 4; fill: rgb(141,60,103); fill-rule: nonzero; opacity: 1;"  transform=" translate(-445.6, -148.5)" d="M 434 136.1 h 7.2 v 3.6 c 1.7 -2.1 3.8 -4.1 7.4 -4.1 c 5.4 0 8.6 3.6 8.6 9.4 v 16.4 h -7.2 v -14.2 c 0 -3.4 -1.6 -5.2 -4.4 -5.2 c -2.7 0 -4.5 1.8 -4.5 5.2 v 14.2 H 434 V 136.1 z" stroke-linecap="round" />
</g>
		<g transform="matrix(1 0 0 1 228.85 42.05)" id="Layer_1"  >
<path style="stroke: none; stroke-width: 1; stroke-dasharray: none; stroke-linecap: butt; stroke-dashoffset: 0; stroke-linejoin: miter; stroke-miterlimit: 4; fill: rgb(141,60,103); fill-rule: nonzero; opacity: 1;"  transform=" translate(-468.2, -145.8)" d="M 463.1 154.3 v -12 h -3 v -6.2 h 3 v -6.5 h 7.2 v 6.5 h 6 v 6.2 h -6 v 10.8 c 0 1.7 0.7 2.5 2.3 2.5 c 1.3 0 2.5 -0.3 3.6 -0.9 v 5.8 c -1.5 0.9 -3.3 1.5 -5.7 1.5 C 466.1 161.9 463.1 160.1 463.1 154.3 z" stroke-linecap="round" />
</g>
		<g transform="matrix(1 0 0 1 -221.7 86.65)" id="Layer_1"  >
<path style="stroke: none; stroke-width: 1; stroke-dasharray: none; stroke-linecap: butt; stroke-dashoffset: 0; stroke-linejoin: miter; stroke-miterlimit: 4; fill: rgb(141,60,103); fill-rule: nonzero; opacity: 1;"  transform=" translate(-17.65, -190.4)" d="M 2.4 173.8 h 12.9 c 10.4 0 17.6 7.2 17.6 16.5 v 0.1 c 0 9.3 -7.2 16.6 -17.6 16.6 H 2.4 V 173.8 z M 9.7 180.3 v 20 h 5.6 c 6 0 10 -4 10 -9.9 v -0.1 c 0 -5.9 -4 -10 -10 -10 H 9.7 z" stroke-linecap="round" />
</g>
		<g transform="matrix(1 0 0 1 -199.65 85.85)" id="Layer_1"  >
<path style="stroke: none; stroke-width: 1; stroke-dasharray: none; stroke-linecap: butt; stroke-dashoffset: 0; stroke-linejoin: miter; stroke-miterlimit: 4; fill: rgb(141,60,103); fill-rule: nonzero; opacity: 1;"  transform=" translate(-39.7, -189.6)" d="M 35.9 172.3 h 7.6 v 6.4 h -7.6 V 172.3 z M 36.1 181.5 h 7.2 v 25.4 h -7.2 V 181.5 z" stroke-linecap="round" />
</g>
		<g transform="matrix(1 0 0 1 -182.45 90.55)" id="Layer_1"  >
<path style="stroke: none; stroke-width: 1; stroke-dasharray: none; stroke-linecap: butt; stroke-dashoffset: 0; stroke-linejoin: miter; stroke-miterlimit: 4; fill: rgb(141,60,103); fill-rule: nonzero; opacity: 1;"  transform=" translate(-56.9, -194.3)" d="M 46.6 203.5 l 3.1 -4.7 c 2.7 2 5.6 3 8 3 c 2.1 0 3 -0.8 3 -1.9 v -0.1 c 0 -1.6 -2.5 -2.1 -5.3 -2.9 c -3.6 -1 -7.6 -2.7 -7.6 -7.6 v -0.1 c 0 -5.2 4.2 -8 9.3 -8 c 3.2 0 6.7 1.1 9.5 2.9 l -2.7 5 c -2.5 -1.5 -5 -2.4 -6.9 -2.4 c -1.8 0 -2.7 0.8 -2.7 1.8 v 0.1 c 0 1.4 2.4 2.1 5.2 3 c 3.6 1.2 7.7 2.9 7.7 7.5 v 0.1 c 0 5.6 -4.2 8.2 -9.7 8.2 C 54 207.4 50 206.2 46.6 203.5 z" stroke-linecap="round" />
</g>
		<g transform="matrix(1 0 0 1 -158.3 90.6)" id="Layer_1"  >
<path style="stroke: none; stroke-width: 1; stroke-dasharray: none; stroke-linecap: butt; stroke-dashoffset: 0; stroke-linejoin: miter; stroke-miterlimit: 4; fill: rgb(141,60,103); fill-rule: nonzero; opacity: 1;"  transform=" translate(-81.05, -194.35)" d="M 69.4 199.6 L 69.4 199.6 c 0 -5.6 4.2 -8.2 10.2 -8.2 c 2.6 0 4.4 0.4 6.2 1 V 192 c 0 -3 -1.8 -4.6 -5.4 -4.6 c -2.7 0 -4.7 0.5 -7 1.4 l -1.8 -5.5 c 2.8 -1.2 5.5 -2 9.8 -2 c 3.9 0 6.8 1 8.6 2.8 c 1.9 1.9 2.7 4.7 2.7 8.1 v 14.7 h -7 v -2.7 c -1.8 1.9 -4.2 3.2 -7.7 3.2 C 73.4 207.4 69.4 204.6 69.4 199.6 z M 86 198 v -1.3 c -1.2 -0.6 -2.8 -0.9 -4.6 -0.9 c -3.1 0 -5 1.2 -5 3.5 v 0.1 c 0 1.9 1.6 3.1 3.9 3.1 C 83.7 202.4 86 200.6 86 198 z" stroke-linecap="round" />
</g>
		<g transform="matrix(1 0 0 1 -129.9 86.05)" id="Layer_1"  >
<path style="stroke: none; stroke-width: 1; stroke-dasharray: none; stroke-linecap: butt; stroke-dashoffset: 0; stroke-linejoin: miter; stroke-miterlimit: 4; fill: rgb(141,60,103); fill-rule: nonzero; opacity: 1;"  transform=" translate(-109.45, -189.8)" d="M 103.3 203.6 v 3.3 h -7.2 v -34.6 h 7.2 v 12.8 c 1.8 -2.4 4.2 -4.1 7.9 -4.1 c 5.9 0 11.6 4.6 11.6 13.1 v 0.1 c 0 8.5 -5.5 13.1 -11.6 13.1 C 107.4 207.4 105 205.6 103.3 203.6 z M 115.6 194.3 L 115.6 194.3 c 0 -4.3 -2.8 -7.1 -6.2 -7.1 c -3.4 0 -6.2 2.8 -6.2 7 v 0.1 c 0 4.2 2.8 7 6.2 7 C 112.7 201.3 115.6 198.5 115.6 194.3 z" stroke-linecap="round" />
</g>
		<g transform="matrix(1 0 0 1 -110.25 85.85)" id="Layer_1"  >
<path style="stroke: none; stroke-width: 1; stroke-dasharray: none; stroke-linecap: butt; stroke-dashoffset: 0; stroke-linejoin: miter; stroke-miterlimit: 4; fill: rgb(141,60,103); fill-rule: nonzero; opacity: 1;"  transform=" translate(-129.1, -189.6)" d="M 125.5 172.3 h 7.2 v 34.6 h -7.2 V 172.3 z" stroke-linecap="round" />
</g>
		<g transform="matrix(1 0 0 1 -91.7 90.55)" id="Layer_1"  >
<path style="stroke: none; stroke-width: 1; stroke-dasharray: none; stroke-linecap: butt; stroke-dashoffset: 0; stroke-linejoin: miter; stroke-miterlimit: 4; fill: rgb(141,60,103); fill-rule: nonzero; opacity: 1;"  transform=" translate(-147.65, -194.3)" d="M 135.2 194.4 L 135.2 194.4 c 0 -7.3 5.2 -13.3 12.5 -13.3 c 8.5 0 12.4 6.6 12.4 13.8 c 0 0.6 0 1.2 -0.1 1.9 h -17.7 c 0.7 3.3 3 5 6.2 5 c 2.4 0 4.2 -0.8 6.2 -2.6 l 4.1 3.6 c -2.4 2.9 -5.8 4.7 -10.4 4.7 C 140.8 207.5 135.2 202.1 135.2 194.4 z M 153.1 192.2 c -0.4 -3.2 -2.3 -5.4 -5.3 -5.4 c -3 0 -4.9 2.1 -5.5 5.4 H 153.1 z" stroke-linecap="round" />
</g>
		<g transform="matrix(1 0 0 1 -57.75 90.15)" id="Layer_1"  >
<path style="stroke: none; stroke-width: 1; stroke-dasharray: none; stroke-linecap: butt; stroke-dashoffset: 0; stroke-linejoin: miter; stroke-miterlimit: 4; fill: rgb(141,60,103); fill-rule: nonzero; opacity: 1;"  transform=" translate(-181.6, -193.9)" d="M 162.2 181.5 h 7.2 v 3.6 c 1.7 -2.1 3.8 -4.1 7.5 -4.1 c 3.3 0 5.8 1.5 7.2 4 c 2.2 -2.6 4.9 -4 8.3 -4 c 5.3 0 8.6 3.2 8.6 9.3 v 16.5 h -7.2 v -14.2 c 0 -3.4 -1.5 -5.2 -4.2 -5.2 c -2.7 0 -4.4 1.8 -4.4 5.2 v 14.2 H 178 v -14.2 c 0 -3.4 -1.5 -5.2 -4.2 -5.2 c -2.7 0 -4.4 1.8 -4.4 5.2 v 14.2 h -7.2 V 181.5 z" stroke-linecap="round" />
</g>
		<g transform="matrix(1 0 0 1 -22.3 90.55)" id="Layer_1"  >
<path style="stroke: none; stroke-width: 1; stroke-dasharray: none; stroke-linecap: butt; stroke-dashoffset: 0; stroke-linejoin: miter; stroke-miterlimit: 4; fill: rgb(141,60,103); fill-rule: nonzero; opacity: 1;"  transform=" translate(-217.05, -194.3)" d="M 204.6 194.4 L 204.6 194.4 c 0 -7.3 5.2 -13.3 12.5 -13.3 c 8.5 0 12.4 6.6 12.4 13.8 c 0 0.6 0 1.2 -0.1 1.9 h -17.7 c 0.7 3.3 3 5 6.2 5 c 2.4 0 4.2 -0.8 6.2 -2.6 l 4.1 3.6 c -2.4 2.9 -5.8 4.7 -10.4 4.7 C 210.2 207.5 204.6 202.1 204.6 194.4 z M 222.5 192.2 c -0.4 -3.2 -2.3 -5.4 -5.3 -5.4 c -3 0 -4.9 2.1 -5.5 5.4 H 222.5 z" stroke-linecap="round" />
</g>
		<g transform="matrix(1 0 0 1 5.6 90.15)" id="Layer_1"  >
<path style="stroke: none; stroke-width: 1; stroke-dasharray: none; stroke-linecap: butt; stroke-dashoffset: 0; stroke-linejoin: miter; stroke-miterlimit: 4; fill: rgb(141,60,103); fill-rule: nonzero; opacity: 1;"  transform=" translate(-244.95, -193.9)" d="M 233.4 181.5 h 7.2 v 3.6 c 1.7 -2.1 3.8 -4.1 7.4 -4.1 c 5.4 0 8.6 3.6 8.6 9.4 v 16.4 h -7.2 v -14.2 c 0 -3.4 -1.6 -5.2 -4.4 -5.2 c -2.7 0 -4.5 1.8 -4.5 5.2 v 14.2 h -7.2 V 181.5 z" stroke-linecap="round" />
</g>
		<g transform="matrix(1 0 0 1 28.35 87.45)" id="Layer_1"  >
<path style="stroke: none; stroke-width: 1; stroke-dasharray: none; stroke-linecap: butt; stroke-dashoffset: 0; stroke-linejoin: miter; stroke-miterlimit: 4; fill: rgb(141,60,103); fill-rule: nonzero; opacity: 1;"  transform=" translate(-267.7, -191.2)" d="M 262.6 199.7 v -12 h -3 v -6.2 h 3 V 175 h 7.2 v 6.5 h 6 v 6.2 h -6 v 10.8 c 0 1.7 0.7 2.5 2.3 2.5 c 1.3 0 2.5 -0.3 3.6 -0.9 v 5.8 c -1.5 0.9 -3.3 1.5 -5.7 1.5 C 265.6 207.3 262.6 205.6 262.6 199.7 z" stroke-linecap="round" />
</g>
		<g transform="matrix(1 0 0 1 75.3 86.6)" id="Layer_1"  >
<path style="stroke: none; stroke-width: 1; stroke-dasharray: none; stroke-linecap: butt; stroke-dashoffset: 0; stroke-linejoin: miter; stroke-miterlimit: 4; fill: rgb(141,60,103); fill-rule: nonzero; opacity: 1;"  transform=" translate(-314.65, -190.35)" d="M 301.5 202.1 l 4.3 -5.2 c 3 2.5 6.1 4 9.9 4 c 3 0 4.8 -1.2 4.8 -3.1 v -0.1 c 0 -1.8 -1.1 -2.8 -6.7 -4.2 c -6.7 -1.7 -11 -3.6 -11 -10.1 v -0.1 c 0 -6 4.8 -10 11.6 -10 c 4.8 0 8.9 1.5 12.3 4.2 L 323 183 c -2.9 -2 -5.8 -3.3 -8.6 -3.3 c -2.8 0 -4.3 1.3 -4.3 2.9 v 0.1 c 0 2.2 1.4 2.9 7.2 4.4 c 6.7 1.8 10.5 4.2 10.5 9.9 v 0.1 c 0 6.6 -5 10.3 -12.2 10.3 C 310.6 207.4 305.5 205.6 301.5 202.1 z" stroke-linecap="round" />
</g>
		<g transform="matrix(1 0 0 1 102.85 90.55)" id="Layer_1"  >
<path style="stroke: none; stroke-width: 1; stroke-dasharray: none; stroke-linecap: butt; stroke-dashoffset: 0; stroke-linejoin: miter; stroke-miterlimit: 4; fill: rgb(141,60,103); fill-rule: nonzero; opacity: 1;"  transform=" translate(-342.2, -194.3)" d="M 330.5 194.4 L 330.5 194.4 c 0 -7.3 5.5 -13.3 13.3 -13.3 c 4.8 0 7.8 1.6 10.1 4.3 l -4.4 4.7 c -1.6 -1.7 -3.2 -2.8 -5.8 -2.8 c -3.6 0 -6.2 3.2 -6.2 6.9 v 0.1 c 0 3.9 2.5 7 6.4 7 c 2.4 0 4.1 -1 5.8 -2.7 l 4.2 4.3 c -2.5 2.7 -5.3 4.6 -10.4 4.6 C 336.1 207.5 330.5 201.6 330.5 194.4 z" stroke-linecap="round" />
</g>
		<g transform="matrix(1 0 0 1 129.3 85.8)" id="Layer_1"  >
<path style="stroke: none; stroke-width: 1; stroke-dasharray: none; stroke-linecap: butt; stroke-dashoffset: 0; stroke-linejoin: miter; stroke-miterlimit: 4; fill: rgb(141,60,103); fill-rule: nonzero; opacity: 1;"  transform=" translate(-368.65, -189.55)" d="M 357.1 172.3 h 7.2 v 12.8 c 1.7 -2.1 3.8 -4.1 7.4 -4.1 c 5.4 0 8.6 3.6 8.6 9.4 v 16.4 h -7.2 v -14.2 c 0 -3.4 -1.6 -5.2 -4.4 -5.2 c -2.7 0 -4.5 1.8 -4.5 5.2 v 14.2 h -7.2 V 172.3 z" stroke-linecap="round" />
</g>
		<g transform="matrix(1 0 0 1 155.3 90.55)" id="Layer_1"  >
<path style="stroke: none; stroke-width: 1; stroke-dasharray: none; stroke-linecap: butt; stroke-dashoffset: 0; stroke-linejoin: miter; stroke-miterlimit: 4; fill: rgb(141,60,103); fill-rule: nonzero; opacity: 1;"  transform=" translate(-394.65, -194.3)" d="M 382.2 194.4 L 382.2 194.4 c 0 -7.3 5.2 -13.3 12.5 -13.3 c 8.5 0 12.4 6.6 12.4 13.8 c 0 0.6 0 1.2 -0.1 1.9 h -17.7 c 0.7 3.3 3 5 6.2 5 c 2.4 0 4.2 -0.8 6.2 -2.6 l 4.1 3.6 c -2.4 2.9 -5.8 4.7 -10.4 4.7 C 387.8 207.5 382.2 202.1 382.2 194.4 z M 400.1 192.2 c -0.4 -3.2 -2.3 -5.4 -5.3 -5.4 c -3 0 -4.9 2.1 -5.5 5.4 H 400.1 z" stroke-linecap="round" />
</g>
		<g transform="matrix(1 0 0 1 190.85 90.15)" id="Layer_1"  >
<path style="stroke: none; stroke-width: 1; stroke-dasharray: none; stroke-linecap: butt; stroke-dashoffset: 0; stroke-linejoin: miter; stroke-miterlimit: 4; fill: rgb(141,60,103); fill-rule: nonzero; opacity: 1;"  transform=" translate(-430.2, -193.9)" d="M 410.8 181.5 h 7.2 v 3.6 c 1.7 -2.1 3.8 -4.1 7.5 -4.1 c 3.3 0 5.8 1.5 7.2 4 c 2.2 -2.6 4.9 -4 8.3 -4 c 5.3 0 8.6 3.2 8.6 9.3 v 16.5 h -7.2 v -14.2 c 0 -3.4 -1.5 -5.2 -4.2 -5.2 c -2.7 0 -4.4 1.8 -4.4 5.2 v 14.2 h -7.2 v -14.2 c 0 -3.4 -1.5 -5.2 -4.2 -5.2 c -2.7 0 -4.4 1.8 -4.4 5.2 v 14.2 h -7.2 V 181.5 z" stroke-linecap="round" />
</g>
		<g transform="matrix(1 0 0 1 226 90.55)" id="Layer_1"  >
<path style="stroke: none; stroke-width: 1; stroke-dasharray: none; stroke-linecap: butt; stroke-dashoffset: 0; stroke-linejoin: miter; stroke-miterlimit: 4; fill: rgb(141,60,103); fill-rule: nonzero; opacity: 1;"  transform=" translate(-465.35, -194.3)" d="M 452.9 194.4 L 452.9 194.4 c 0 -7.3 5.2 -13.3 12.5 -13.3 c 8.5 0 12.4 6.6 12.4 13.8 c 0 0.6 0 1.2 -0.1 1.9 h -17.7 c 0.7 3.3 3 5 6.2 5 c 2.4 0 4.2 -0.8 6.2 -2.6 l 4.1 3.6 c -2.4 2.9 -5.8 4.7 -10.4 4.7 C 458.6 207.5 452.9 202.1 452.9 194.4 z M 470.8 192.2 c -0.4 -3.2 -2.3 -5.4 -5.3 -5.4 c -3 0 -4.9 2.1 -5.5 5.4 H 470.8 z" stroke-linecap="round" />
</g>
		<g transform="matrix(1 0 0 1 -188.55 -52.15)" id="Layer_1"  >
<path style="stroke: none; stroke-width: 1; stroke-dasharray: none; stroke-linecap: butt; stroke-dashoffset: 0; stroke-linejoin: miter; stroke-miterlimit: 4; fill: rgb(26,40,87); fill-rule: nonzero; opacity: 1;"  transform=" translate(-50.8, -51.6)" d="M 0.1 0.7 h 24.5 l 26.4 71.1 L 77.5 0.7 h 24 L 60.6 102.5 H 41 L 0.1 0.7 z" stroke-linecap="round" />
</g>
		<g transform="matrix(1 0 0 1 -91.45 -52.55)" id="Layer_1"  >
<path style="stroke: none; stroke-width: 1; stroke-dasharray: none; stroke-linecap: butt; stroke-dashoffset: 0; stroke-linejoin: miter; stroke-miterlimit: 4; fill: rgb(26,40,87); fill-rule: nonzero; opacity: 1;"  transform=" translate(-147.9, -51.2)" d="M 107.9 0.7 h 41.3 c 24.1 0 38.7 14.3 38.7 34.9 v 0.3 c 0 23.4 -18.2 35.5 -40.8 35.5 h -16.9 v 30.3 h -22.2 V 0.7 z M 147.7 51.7 c 11.1 0 17.6 -6.6 17.6 -15.3 v -0.3 c 0 -10 -6.9 -15.3 -18 -15.3 h -17.2 v 30.9 H 147.7 z" stroke-linecap="round" />
</g>
		<g transform="matrix(1 0 0 1 51.7 -52.55)" id="Layer_1"  >
<rect style="stroke: none; stroke-width: 1; stroke-dasharray: none; stroke-linecap: butt; stroke-dashoffset: 0; stroke-linejoin: miter; stroke-miterlimit: 4; fill: rgb(141,60,103); fill-rule: nonzero; opacity: 1;"  x="-2.25" y="-50.7" rx="0" ry="0" width="4.5" height="101.4" />
</g>
		<g transform="matrix(1 0 0 1 -2.55 -52.5)" id="Layer_1"  >
<path style="stroke: none; stroke-width: 1; stroke-dasharray: none; stroke-linecap: butt; stroke-dashoffset: 0; stroke-linejoin: miter; stroke-miterlimit: 4; fill: rgb(26,40,87); fill-rule: nonzero; opacity: 1;"  transform=" translate(-236.8, -51.25)" d="M 194.1 0.9 h 46.7 c 11.5 0 20.6 3.2 26.3 8.9 c 4.6 4.6 6.9 10.2 6.9 17.1 v 0.3 c 0 11.4 -6 17.7 -13.2 21.7 c 11.7 4.5 18.8 11.2 18.8 24.7 V 74 c 0 18.4 -15 27.6 -37.7 27.6 h -47.9 V 0.9 z M 252.1 30.7 c 0 -6.6 -5.2 -10.4 -14.5 -10.4 h -21.9 v 21.3 h 20.4 c 9.8 0 16 -3.2 16 -10.6 V 30.7 z M 241.3 60 h -25.6 v 22.2 H 242 c 9.8 0 15.7 -3.4 15.7 -10.9 V 71 C 257.7 64.2 252.7 60 241.3 60 z" stroke-linecap="round" />
</g>
		<g transform="matrix(1 0 0 1 77.3 -91.45)" id="Layer_1"  >
<path style="stroke: none; stroke-width: 1; stroke-dasharray: none; stroke-linecap: butt; stroke-dashoffset: 0; stroke-linejoin: miter; stroke-miterlimit: 4; fill: rgb(26,40,87); fill-rule: nonzero; opacity: 1;"  transform=" translate(-316.65, -12.3)" d="M 304.8 0.4 h 5.7 l 6.2 16.6 l 6.2 -16.6 h 5.6 l -9.6 23.8 h -4.6 L 304.8 0.4 z" stroke-linecap="round" />
</g>
		<g transform="matrix(1 0 0 1 94.45 -91.55)" id="Layer_1"  >
<path style="stroke: none; stroke-width: 1; stroke-dasharray: none; stroke-linecap: butt; stroke-dashoffset: 0; stroke-linejoin: miter; stroke-miterlimit: 4; fill: rgb(26,40,87); fill-rule: nonzero; opacity: 1;"  transform=" translate(-333.8, -12.2)" d="M 331.2 0.4 h 5.2 V 24 h -5.2 V 0.4 z" stroke-linecap="round" />
</g>
		<g transform="matrix(1 0 0 1 110.6 -91.6)" id="Layer_1"  >
<path style="stroke: none; stroke-width: 1; stroke-dasharray: none; stroke-linecap: butt; stroke-dashoffset: 0; stroke-linejoin: miter; stroke-miterlimit: 4; fill: rgb(26,40,87); fill-rule: nonzero; opacity: 1;"  transform=" translate(-349.95, -12.15)" d="M 339 12.3 L 339 12.3 C 339 5.5 344.1 0 351.4 0 c 4.5 0 7.1 1.5 9.3 3.6 l -3.3 3.8 c -1.8 -1.7 -3.7 -2.7 -6 -2.7 c -4 0 -6.9 3.3 -6.9 7.4 v 0.1 c 0 4.1 2.8 7.4 6.9 7.4 c 2.7 0 4.4 -1.1 6.2 -2.8 l 3.3 3.3 c -2.4 2.6 -5.1 4.2 -9.7 4.2 C 344.2 24.4 339 19.1 339 12.3 z" stroke-linecap="round" />
</g>
		<g transform="matrix(1 0 0 1 132.65 -91.55)" id="Layer_1"  >
<path style="stroke: none; stroke-width: 1; stroke-dasharray: none; stroke-linecap: butt; stroke-dashoffset: 0; stroke-linejoin: miter; stroke-miterlimit: 4; fill: rgb(26,40,87); fill-rule: nonzero; opacity: 1;"  transform=" translate(-372, -12.2)" d="M 369.4 5.2 h -7.2 V 0.4 h 19.6 v 4.8 h -7.2 V 24 h -5.2 V 5.2 z" stroke-linecap="round" />
</g>
		<g transform="matrix(1 0 0 1 148.15 -91.55)" id="Layer_1"  >
<path style="stroke: none; stroke-width: 1; stroke-dasharray: none; stroke-linecap: butt; stroke-dashoffset: 0; stroke-linejoin: miter; stroke-miterlimit: 4; fill: rgb(26,40,87); fill-rule: nonzero; opacity: 1;"  transform=" translate(-387.5, -12.2)" d="M 384.9 0.4 h 5.2 V 24 h -5.2 V 0.4 z" stroke-linecap="round" />
</g>
		<g transform="matrix(1 0 0 1 166.15 -91.55)" id="Layer_1"  >
<path style="stroke: none; stroke-width: 1; stroke-dasharray: none; stroke-linecap: butt; stroke-dashoffset: 0; stroke-linejoin: miter; stroke-miterlimit: 4; fill: rgb(26,40,87); fill-rule: nonzero; opacity: 1;"  transform=" translate(-405.5, -12.2)" d="M 393.7 0.4 h 5.6 l 6.2 10 l 6.2 -10 h 5.6 V 24 h -5.2 V 8.6 l -6.6 10.1 h -0.1 l -6.6 -10 V 24 h -5.1 V 0.4 z" stroke-linecap="round" />
</g>
		<g transform="matrix(1 0 0 1 189.15 -91.55)" id="Layer_1"  >
<path style="stroke: none; stroke-width: 1; stroke-dasharray: none; stroke-linecap: butt; stroke-dashoffset: 0; stroke-linejoin: miter; stroke-miterlimit: 4; fill: rgb(26,40,87); fill-rule: nonzero; opacity: 1;"  transform=" translate(-428.5, -12.2)" d="M 419.1 20.6 l 3.1 -3.7 c 2.1 1.8 4.4 2.9 7.1 2.9 c 2.1 0 3.4 -0.8 3.4 -2.2 v -0.1 c 0 -1.3 -0.8 -2 -4.8 -3 c -4.8 -1.2 -7.8 -2.5 -7.8 -7.2 V 7.2 c 0 -4.3 3.4 -7.1 8.3 -7.1 c 3.4 0 6.4 1.1 8.8 3 L 434.4 7 c -2.1 -1.5 -4.2 -2.3 -6.1 -2.3 c -2 0 -3 0.9 -3 2.1 v 0.1 c 0 1.6 1 2.1 5.1 3.1 c 4.8 1.2 7.5 3 7.5 7.1 V 17 c 0 4.7 -3.6 7.3 -8.7 7.3 C 425.6 24.4 422 23.1 419.1 20.6 z" stroke-linecap="round" />
</g>
		<g transform="matrix(1 0 0 1 204.6 -97.9)" id="Layer_1"  >
<path style="stroke: none; stroke-width: 1; stroke-dasharray: none; stroke-linecap: butt; stroke-dashoffset: 0; stroke-linejoin: miter; stroke-miterlimit: 4; fill: rgb(26,40,87); fill-rule: nonzero; opacity: 1;"  transform=" translate(-443.95, -5.85)" d="M 440.6 9.1 c 2.3 -0.2 3.5 -1.4 3.3 -3.3 h -2.1 V 0.4 h 5.5 V 5 c 0 4.5 -2.2 6.2 -6.2 6.3 L 440.6 9.1 z" stroke-linecap="round" />
</g>
		<g transform="matrix(1 0 0 1 76.8 -51)" id="Layer_1"  >
<path style="stroke: none; stroke-width: 1; stroke-dasharray: none; stroke-linecap: butt; stroke-dashoffset: 0; stroke-linejoin: miter; stroke-miterlimit: 4; fill: rgb(26,40,87); fill-rule: nonzero; opacity: 1;"  transform=" translate(-316.15, -52.75)" d="M 306.8 40.9 h 9.7 c 5.6 0 9 3.3 9 8.2 v 0.1 c 0 5.5 -4.3 8.3 -9.6 8.3 H 312 v 7.1 h -5.2 V 40.9 z M 316.1 52.8 c 2.6 0 4.1 -1.6 4.1 -3.6 v -0.1 c 0 -2.3 -1.6 -3.6 -4.2 -3.6 h -4 v 7.2 H 316.1 z" stroke-linecap="round" />
</g>
		<g transform="matrix(1 0 0 1 95.8 -51.15)" id="Layer_1"  >
<path style="stroke: none; stroke-width: 1; stroke-dasharray: none; stroke-linecap: butt; stroke-dashoffset: 0; stroke-linejoin: miter; stroke-miterlimit: 4; fill: rgb(26,40,87); fill-rule: nonzero; opacity: 1;"  transform=" translate(-335.15, -52.6)" d="M 332.8 40.7 h 4.8 l 10.1 23.8 h -5.4 l -2.2 -5.3 h -10 l -2.2 5.3 h -5.3 L 332.8 40.7 z M 338.3 54.6 l -3.1 -7.7 l -3.1 7.7 H 338.3 z" stroke-linecap="round" />
</g>
		<g transform="matrix(1 0 0 1 115.3 -51.05)" id="Layer_1"  >
<path style="stroke: none; stroke-width: 1; stroke-dasharray: none; stroke-linecap: butt; stroke-dashoffset: 0; stroke-linejoin: miter; stroke-miterlimit: 4; fill: rgb(26,40,87); fill-rule: nonzero; opacity: 1;"  transform=" translate(-354.65, -52.7)" d="M 352.1 55.2 L 343 40.9 h 6.1 l 5.6 9.5 l 5.7 -9.5 h 5.9 l -9.1 14.2 v 9.4 h -5.2 V 55.2 z" stroke-linecap="round" />
</g>
		<g transform="matrix(1 0 0 1 140.95 -51.05)" id="Layer_1"  >
<path style="stroke: none; stroke-width: 1; stroke-dasharray: none; stroke-linecap: butt; stroke-dashoffset: 0; stroke-linejoin: miter; stroke-miterlimit: 4; fill: rgb(26,40,87); fill-rule: nonzero; opacity: 1;"  transform=" translate(-380.3, -52.7)" d="M 368.5 40.9 h 5.6 l 6.2 10 l 6.2 -10 h 5.6 v 23.6 h -5.2 V 49.1 l -6.6 10.1 h -0.1 l -6.6 -10 v 15.3 h -5.1 V 40.9 z" stroke-linecap="round" />
</g>
		<g transform="matrix(1 0 0 1 165.05 -51)" id="Layer_1"  >
<path style="stroke: none; stroke-width: 1; stroke-dasharray: none; stroke-linecap: butt; stroke-dashoffset: 0; stroke-linejoin: miter; stroke-miterlimit: 4; fill: rgb(26,40,87); fill-rule: nonzero; opacity: 1;"  transform=" translate(-404.4, -52.75)" d="M 395.5 40.9 h 17.8 v 4.6 h -12.7 v 4.8 h 11.1 V 55 h -11.1 v 5 h 12.8 v 4.6 h -18 V 40.9 z" stroke-linecap="round" />
</g>
		<g transform="matrix(1 0 0 1 187.05 -51.05)" id="Layer_1"  >
<path style="stroke: none; stroke-width: 1; stroke-dasharray: none; stroke-linecap: butt; stroke-dashoffset: 0; stroke-linejoin: miter; stroke-miterlimit: 4; fill: rgb(26,40,87); fill-rule: nonzero; opacity: 1;"  transform=" translate(-426.4, -52.7)" d="M 415.9 40.9 h 4.8 l 11.1 14.5 V 40.9 h 5.1 v 23.6 h -4.4 l -11.4 -15 v 15 h -5.1 V 40.9 z" stroke-linecap="round" />
</g>
		<g transform="matrix(1 0 0 1 210.15 -51.05)" id="Layer_1"  >
<path style="stroke: none; stroke-width: 1; stroke-dasharray: none; stroke-linecap: butt; stroke-dashoffset: 0; stroke-linejoin: miter; stroke-miterlimit: 4; fill: rgb(26,40,87); fill-rule: nonzero; opacity: 1;"  transform=" translate(-449.5, -52.7)" d="M 446.9 45.7 h -7.2 v -4.8 h 19.6 v 4.8 h -7.2 v 18.8 h -5.2 V 45.7 z" stroke-linecap="round" />
</g>
		<g transform="matrix(1 0 0 1 230.2 -50.95)" id="Layer_1"  >
<path style="stroke: none; stroke-width: 1; stroke-dasharray: none; stroke-linecap: butt; stroke-dashoffset: 0; stroke-linejoin: miter; stroke-miterlimit: 4; fill: rgb(26,40,87); fill-rule: nonzero; opacity: 1;"  transform=" translate(-469.55, -52.8)" d="M 460.1 61.1 l 3.1 -3.7 c 2.1 1.8 4.4 2.9 7.1 2.9 c 2.1 0 3.4 -0.8 3.4 -2.2 V 58 c 0 -1.3 -0.8 -2 -4.8 -3 c -4.8 -1.2 -7.8 -2.5 -7.8 -7.2 v -0.1 c 0 -4.3 3.4 -7.1 8.3 -7.1 c 3.4 0 6.4 1.1 8.8 3 l -2.7 3.9 c -2.1 -1.5 -4.2 -2.3 -6.1 -2.3 c -2 0 -3 0.9 -3 2.1 v 0.1 c 0 1.6 1 2.1 5.1 3.1 c 4.8 1.2 7.5 3 7.5 7.1 v 0.1 c 0 4.7 -3.6 7.3 -8.7 7.3 C 466.5 64.9 462.9 63.6 460.1 61.1 z" stroke-linecap="round" />
</g>
		<g transform="matrix(1 0 0 1 77.5 -13.9)" id="Layer_1"  >
<path style="stroke: none; stroke-width: 1; stroke-dasharray: none; stroke-linecap: butt; stroke-dashoffset: 0; stroke-linejoin: miter; stroke-miterlimit: 4; fill: rgb(26,40,87); fill-rule: nonzero; opacity: 1;"  transform=" translate(-316.85, -89.85)" d="M 306.8 78 h 11 c 2.7 0 4.8 0.7 6.2 2.1 c 1.1 1.1 1.6 2.4 1.6 4 v 0.1 c 0 2.7 -1.4 4.2 -3.1 5.1 c 2.7 1 4.4 2.6 4.4 5.8 v 0.1 c 0 4.3 -3.5 6.5 -8.8 6.5 h -11.2 V 78 z M 320.4 85 c 0 -1.6 -1.2 -2.4 -3.4 -2.4 h -5.1 v 5 h 4.8 C 319 87.6 320.4 86.9 320.4 85 L 320.4 85 z M 317.9 91.9 h -6 v 5.2 h 6.2 c 2.3 0 3.7 -0.8 3.7 -2.6 v -0.1 C 321.7 92.9 320.5 91.9 317.9 91.9 z" stroke-linecap="round" />
</g>
		<g transform="matrix(1 0 0 1 101.1 -13.9)" id="Layer_1"  >
<path style="stroke: none; stroke-width: 1; stroke-dasharray: none; stroke-linecap: butt; stroke-dashoffset: 0; stroke-linejoin: miter; stroke-miterlimit: 4; fill: rgb(26,40,87); fill-rule: nonzero; opacity: 1;"  transform=" translate(-340.45, -89.85)" d="M 327.9 89.9 L 327.9 89.9 c 0 -6.8 5.3 -12.3 12.6 -12.3 c 7.3 0 12.5 5.4 12.5 12.2 v 0.1 c 0 6.7 -5.3 12.2 -12.6 12.2 C 333.1 102.1 327.9 96.6 327.9 89.9 z M 347.6 89.9 L 347.6 89.9 c 0 -4.1 -3 -7.5 -7.2 -7.5 c -4.2 0 -7.1 3.3 -7.1 7.4 v 0.1 c 0 4.1 3 7.4 7.2 7.4 C 344.7 97.3 347.6 94 347.6 89.9 z" stroke-linecap="round" />
</g>
		<g transform="matrix(1 0 0 1 124.9 -13.95)" id="Layer_1"  >
<path style="stroke: none; stroke-width: 1; stroke-dasharray: none; stroke-linecap: butt; stroke-dashoffset: 0; stroke-linejoin: miter; stroke-miterlimit: 4; fill: rgb(26,40,87); fill-rule: nonzero; opacity: 1;"  transform=" translate(-364.25, -89.8)" d="M 361.9 77.9 h 4.8 l 10.1 23.8 h -5.4 l -2.2 -5.3 h -10 l -2.2 5.3 h -5.3 L 361.9 77.9 z M 367.4 91.8 l -3.1 -7.7 l -3.1 7.7 H 367.4 z" stroke-linecap="round" />
</g>
		<g transform="matrix(1 0 0 1 150.2 -13.95)" id="Layer_1"  >
<path style="stroke: none; stroke-width: 1; stroke-dasharray: none; stroke-linecap: butt; stroke-dashoffset: 0; stroke-linejoin: miter; stroke-miterlimit: 4; fill: rgb(26,40,87); fill-rule: nonzero; opacity: 1;"  transform=" translate(-389.55, -89.8)" d="M 379.4 78 h 10.8 c 3 0 5.3 0.8 6.9 2.4 c 1.3 1.3 2 3.2 2 5.4 v 0.1 c 0 3.8 -2.1 6.2 -5.1 7.3 l 5.8 8.4 h -6.1 l -5.1 -7.6 h -4.1 v 7.6 h -5.2 V 78 z M 389.8 89.5 c 2.5 0 4 -1.3 4 -3.3 v -0.1 c 0 -2.2 -1.6 -3.4 -4.1 -3.4 h -5.2 v 6.8 H 389.8 z" stroke-linecap="round" />
</g>
		<g transform="matrix(1 0 0 1 173.05 -13.95)" id="Layer_1"  >
<path style="stroke: none; stroke-width: 1; stroke-dasharray: none; stroke-linecap: butt; stroke-dashoffset: 0; stroke-linejoin: miter; stroke-miterlimit: 4; fill: rgb(26,40,87); fill-rule: nonzero; opacity: 1;"  transform=" translate(-412.4, -89.8)" d="M 401.5 78 h 9.2 c 7.4 0 12.6 5.1 12.6 11.7 v 0.1 c 0 6.6 -5.1 11.8 -12.6 11.8 h -9.2 V 78 z M 406.7 82.7 V 97 h 4 c 4.3 0 7.1 -2.9 7.1 -7.1 v -0.1 c 0 -4.2 -2.9 -7.1 -7.1 -7.1 H 406.7 z" stroke-linecap="round" />
</g>
</g>
</g>
</svg>