<?xml version="1.0" standalone="no"?>
<!DOCTYPE svg PUBLIC "-//W3C//DTD SVG 20010904//EN"
 "http://www.w3.org/TR/2001/REC-SVG-20010904/DTD/svg10.dtd">
<svg version="1.0" xmlns="http://www.w3.org/2000/svg"
 width="700.000000pt" height="700.000000pt" viewBox="0 0 700.000000 700.000000"
 preserveAspectRatio="xMidYMid meet">
<metadata>
Created by potrace 1.14, written by Peter Selinger 2001-2017
</metadata>
<g transform="translate(0.000000,700.000000) scale(0.100000,-0.100000)"
fill="#000000" stroke="none">
<path d="M6474 6949 c-39 -4 -86 -10 -105 -15 -19 -4 -38 -9 -44 -10 -5 -1
-39 -12 -75 -24 -411 -139 -765 -527 -1103 -1209 -150 -302 -247 -544 -371
-928 -40 -123 -155 -502 -160 -528 -14 -66 -145 -424 -213 -585 -123 -287
-292 -577 -471 -805 -149 -190 -386 -384 -582 -478 -86 -41 -238 -93 -301
-102 -24 -4 -46 -8 -49 -10 -9 -5 -158 -18 -210 -18 -140 0 -329 36 -458 87
-313 124 -603 399 -751 711 -23 47 -41 87 -41 90 0 2 -5 16 -12 32 -6 15 -12
33 -14 38 -41 136 -54 181 -59 212 -3 21 -10 54 -15 73 -5 19 -12 64 -16 100
-3 36 -8 79 -10 95 -11 88 -3 411 11 496 3 15 7 47 10 70 9 74 55 269 86 366
102 319 291 649 548 958 97 117 331 351 447 446 143 119 405 308 525 378 272
161 301 181 297 200 -2 9 -12 15 -23 14 -261 -25 -441 -61 -760 -153 -376
-107 -803 -288 -1057 -447 -21 -13 -40 -23 -42 -23 -3 0 -62 -38 -132 -85
-665 -447 -1062 -983 -1220 -1647 -2 -10 -6 -28 -9 -40 -12 -50 -34 -176 -41
-228 -3 -30 -8 -66 -11 -80 -11 -64 -10 -533 2 -640 28 -247 32 -280 40 -310
2 -8 6 -37 10 -64 3 -28 12 -79 20 -115 7 -36 16 -86 20 -111 4 -24 8 -47 10
-51 2 -3 6 -19 9 -35 14 -76 82 -324 127 -457 121 -364 267 -657 479 -961 301
-432 800 -838 1215 -989 238 -86 385 -111 655 -112 215 0 291 8 485 51 526
116 1000 357 1398 707 95 84 168 156 257 254 228 250 426 561 570 898 93 216
223 643 253 830 3 17 14 82 26 145 21 122 29 170 36 240 2 24 7 59 9 79 3 20
8 63 11 96 3 33 8 74 10 90 2 17 6 64 10 105 3 41 8 91 10 110 3 19 7 64 10
100 12 152 24 279 30 340 2 25 7 75 10 113 7 93 15 195 20 242 2 22 6 81 10
130 4 50 8 101 10 115 2 14 6 54 10 90 3 36 8 85 10 110 3 25 7 68 10 95 8 84
16 159 20 185 2 14 7 50 10 80 4 30 9 64 11 75 2 10 6 37 10 60 44 304 180
676 328 898 145 218 332 389 561 513 55 30 91 56 104 77 36 59 39 57 -119 63
-80 3 -158 6 -175 7 -16 2 -62 0 -101 -4z"/>
<path d="M2818 4984 c-2 -1 -25 -4 -53 -5 -111 -6 -308 -86 -423 -171 -125
-93 -253 -249 -330 -403 -27 -55 -92 -226 -91 -243 0 -4 -5 -27 -10 -52 -6
-25 -14 -58 -17 -75 -3 -16 -8 -100 -9 -185 -4 -178 15 -313 65 -458 127 -372
412 -645 745 -713 90 -18 264 -21 336 -5 384 85 686 407 787 841 73 309 32
648 -110 914 -185 347 -478 545 -825 556 -35 1 -64 1 -65 -1z"/>
</g>
</svg>
