<?xml version="1.0" encoding="utf-8"?>
<!-- Generator: Adobe Illustrator 25.2.3, SVG Export Plug-In . SVG Version: 6.00 Build 0)  -->
<svg version="1.0" id="Layer_1" xmlns="http://www.w3.org/2000/svg" xmlns:xlink="http://www.w3.org/1999/xlink" x="0px" y="0px"
	 viewBox="0 0 250 250" style="enable-background:new 0 0 250 250;" xml:space="preserve">
<style type="text/css">
	.st0{fill:url(#SVGID_1_);}
	.st1{fill:url(#SVGID_2_);}
	.st2{display:none;}
	.st3{display:inline;fill:#020203;}
</style>
<g>
	<g>
		<g>
			
				<linearGradient id="SVGID_1_" gradientUnits="userSpaceOnUse" x1="1.037" y1="127.0556" x2="246.5707" y2="127.0556" gradientTransform="matrix(1 0 0 -1 0 252)">
				<stop  offset="0" style="stop-color:#D8952B"/>
				<stop  offset="0" style="stop-color:#D4962C"/>
				<stop  offset="0.3198" style="stop-color:#FFCE3E"/>
				<stop  offset="0.6802" style="stop-color:#F4EE95"/>
				<stop  offset="1" style="stop-color:#E7BC3B"/>
			</linearGradient>
			<path class="st0" d="M119.17,14.04c-4.32,0.59-8.64,0.83-12.96,1.78C80.29,21.5,55.57,30.97,34.07,49.44
				C9.36,70.74-2.2,99.39,1.82,135.62c4.82,43.92,21.2,79.43,55.06,101.57c17.68,11.48,36.87,13.38,56.36,8.64
				c19.69-4.74,37.78-14.44,53.15-29.71c21.9-21.78,32.55-50.79,36.07-83.7c2.41-22.02,3.72-44.27,6.13-66.29
				c3.01-27.35,12.56-49.72,35.77-60.61c0.3-0.12,0.5-0.83,2.21-3.43c-7.03,0-12.96-1.07-18.59,0.12
				c-15.57,3.31-26.52,14.92-35.67,29.24c-11.86,18.7-19.59,39.89-25.82,61.8c-6.03,21.07-14.07,40.72-27.43,56.82
				c-23.01,27.7-59.58,26.52-79.17-2.37c-12.66-18.7-12.86-50.19-0.7-74.23C71.55,49.2,89.93,33.1,110.83,20.43
				c2.81-1.66,5.63-3.31,8.34-4.97C119.37,15.1,119.27,14.51,119.17,14.04z"/>
		</g>
		
			<linearGradient id="SVGID_2_" gradientUnits="userSpaceOnUse" x1="67.1272" y1="138.5202" x2="137.7334" y2="138.5202" gradientTransform="matrix(1 0 0 -1 0 252)">
			<stop  offset="0" style="stop-color:#D8952B"/>
			<stop  offset="0" style="stop-color:#D4962C"/>
			<stop  offset="0.3198" style="stop-color:#FFCE3E"/>
			<stop  offset="0.6802" style="stop-color:#F4EE95"/>
			<stop  offset="1" style="stop-color:#E7BC3B"/>
		</linearGradient>
		<ellipse class="st1" cx="102.39" cy="113.48" rx="35.27" ry="41.55"/>
	</g>
	<g class="st2">
		<path class="st3" d="M263.65,124.96V96.79c0-2.01,0-4.26,0.1-5.92h-0.1c-0.4,1.18-2.31,4.5-3.11,5.92l-7.64,13.61h-4.72
			l-8.74-14.09c-1-1.54-2.11-3.31-3.11-5.33h-0.1c0.1,1.89,0.1,4.02,0.1,5.56v28.53h-10.85V69.92h9.85l11.76,19.3
			c1.41,2.37,2.51,4.38,3.62,6.51h0.1c0.8-2.01,2.01-4.38,3.42-6.98l10.55-18.82h9.85v55.17h-10.95V124.96z"/>
		<path class="st3" d="M282.24,124.96V69.8h28.13l-2.61,10.3h-14.67v11.6h14.77v10.42h-14.77v12.67h17.18v10.3h-28.03V124.96z"/>
		<path class="st3" d="M351.06,124.96l-19.49-29.12c-1.51-2.25-2.81-4.5-4.42-6.87h-0.1c0.2,1.89,0.2,5.56,0.2,7.93v28.06H316.4
			V69.8h10.85l18.89,27.94c1.51,2.25,2.81,4.38,4.22,6.75h0.1c-0.1-2.84-0.1-6.87-0.1-9V69.92h10.85v55.17h-10.15V124.96z"/>
		<path class="st3" d="M402.91,80.1h-12.36v44.87H379.5V80.1h-13.76V69.8h39.39L402.91,80.1z"/>
		<path class="st3" d="M433.85,124.96l-4.52-13.14h-15.17l-4.22,13.14h-10.65l18.39-55.52h8.54l19.39,55.52H433.85z M423.6,92.88
			c-0.8-2.72-1.41-4.97-1.71-6.75h-0.1c-0.3,1.89-0.9,4.14-1.71,6.63l-2.81,8.88h8.84L423.6,92.88z"/>
		<path class="st3" d="M449.73,124.96V69.8h10.85v44.87h16.18v10.42h-27.03V124.96z"/>
		<path class="st3" d="M528.9,124.96v-22.61h-20.7v22.61h-10.85V69.8h10.85v21.66h20.7V69.8h10.85v55.17H528.9z"/>
		<path class="st3" d="M547.59,124.96V69.8h28.13l-2.61,10.3h-14.67v11.6h14.77v10.42h-14.77v12.67h17.18v10.3h-28.03V124.96z"/>
		<path class="st3" d="M612.69,124.96l-4.52-13.14H593l-4.22,13.14h-10.65l18.39-55.52h8.54l19.39,55.52H612.69z M602.34,92.88
			c-0.8-2.72-1.41-4.97-1.71-6.75h-0.1c-0.3,1.89-0.9,4.14-1.71,6.63l-2.81,8.88h8.84L602.34,92.88z"/>
		<path class="st3" d="M628.47,124.96V69.8h10.85v44.87h16.18v10.42h-27.03V124.96z"/>
		<path class="st3" d="M689.75,80.1H677.4v44.87h-11.05V80.1h-13.76V69.8h39.39L689.75,80.1z"/>
		<path class="st3" d="M727.53,124.96v-22.61h-20.7v22.61h-10.85V69.8h10.85v21.66h20.7V69.8h10.85v55.17H727.53z"/>
		<path class="st3" d="M255.51,208.54c-20.19,0-31.45-16.1-31.45-35.99c0-20.48,13.26-37.17,34.66-37.17
			c5.93,0,11.65,1.18,15.87,3.67l-0.3,14.32c-5.53-3.79-10.85-4.74-14.97-4.74c-14.47,0-19.89,11.36-19.89,22.73
			c0,12.79,7.13,23.08,18.59,23.08c5.73,0,10.35-1.78,15.27-4.85l3.72,11.36C269.58,206.41,262.75,208.54,255.51,208.54z"/>
		<path class="st3" d="M332.88,207.48v-29.24h-26.73v29.24h-14.07v-71.27h14.07v28.06h26.73v-28.06h14.07v71.27H332.88z"/>
		<path class="st3" d="M405.02,207.48l-5.83-17.05H379.5l-5.53,17.05H360.2l23.81-71.62h11.05l25.12,71.62H405.02z M391.75,166.04
			c-1-3.43-1.81-6.51-2.21-8.76h-0.1c-0.4,2.37-1.21,5.45-2.21,8.52l-3.72,11.48h11.45L391.75,166.04z"/>
		<path class="st3" d="M483.08,207.48v-36.34c0-2.6,0-5.56,0.1-7.69h-0.1c-0.5,1.54-3.01,5.68-4.02,7.58l-9.95,17.52h-6.13
			l-11.25-18.23c-1.31-2.01-2.71-4.26-4.02-6.98h-0.2c0.1,2.37,0.1,5.21,0.1,7.1v36.94h-13.97v-71.27h12.66l15.17,24.86
			c1.81,3.08,3.32,5.68,4.72,8.41h0.2c1.11-2.6,2.61-5.68,4.42-9l13.56-24.39h12.66v71.27h-13.97V207.48z"/>
		<path class="st3" d="M531.01,183.33h-1.61v24.15h-14.07v-71.27h17.58c13.46,0,22.71,7.93,22.71,23.32
			C555.62,168.05,549.8,183.33,531.01,183.33z M531.41,149.7h-2.01v21.31h2.01c6.93,0,10.25-3.91,10.25-10.77
			C541.76,154.56,538.34,149.7,531.41,149.7z"/>
		<path class="st3" d="M570.9,207.48v-71.27h14.07v71.27H570.9z"/>
		<path class="st3" d="M655.79,197.65c-5.73,6.87-13.56,10.89-23.21,10.89c-9.14,0-16.58-3.08-21.9-8.64
			c-6.23-6.63-9.65-16.22-9.65-27.11c0-10.54,3.11-19.89,8.84-26.75c5.53-6.63,13.36-10.65,22.81-10.65
			c10.15,0,18.39,4.02,23.91,10.89c5.12,6.51,7.64,15.39,7.64,25.33C664.03,181.67,661.32,191.14,655.79,197.65z M632.48,148.64
			c-9.54,0-16.88,8.41-16.88,23.44c0,15.03,7.33,23.44,16.88,23.44c9.34,0,16.68-8.41,16.68-23.44
			C649.16,157.04,641.83,148.64,632.48,148.64z"/>
		<path class="st3" d="M724.82,207.48l-25.12-37.53c-1.91-2.96-3.72-5.68-5.73-8.88h-0.2c0.3,2.37,0.3,7.1,0.3,10.18v36.22h-13.97
			v-71.27h14.07l24.31,35.99c1.91,2.96,3.72,5.68,5.43,8.64h0.2c-0.2-3.67-0.2-8.88-0.2-11.72v-33.03h13.97v71.27h-13.06V207.48z"/>
	</g>
</g>
<g>
</g>
<g>
</g>
<g>
</g>
<g>
</g>
<g>
</g>
<g>
</g>
</svg>
