<svg enable-background="new 0 0 475 90" viewBox="0 0 475 90" xmlns="http://www.w3.org/2000/svg"><g fill="#550060"><path clip-rule="evenodd" d="m50.34 75.23-42.91-49.44-7.36.07-.07 63.53h8.54l.07-48.95 42.49 48.88 7.78.07.07-63.53-8.61-.07zm61.65 5.14c-19.28-7.07-16.04-25.14-16.04-25.14 2.77-21.82 24.23-21.66 24.23-21.66 14.28-.02 22.84 6.39 22.84 6.39v-9.72c-9.4-4.12-17.98-5.21-17.98-5.21-19.57-1.67-29.02 9.72-29.02 9.72-17.74 18.11-5.49 38.81-5.49 38.81 9.58 17.8 30.41 16.59 30.41 16.59 15.13-.5 22.77-5.49 22.77-5.49l.07-10c-18.4 11.36-31.79 5.71-31.79 5.71zm-42.49 8.95h8.96v-63.46l-8.89.07z" fill-rule="evenodd"/><path d="m247.44 39.2h-1.89l-7.8-11.98h-.08c.1 1.41.16 2.7.16 3.87v8.12h-1.53v-14.29h1.88l7.78 11.93h.08c-.01-.18-.04-.74-.09-1.69s-.06-1.64-.05-2.05v-8.19h1.55v14.28z"/><path d="m258.86 33.84c0 1.74-.44 3.11-1.32 4.09s-2.09 1.47-3.64 1.47c-.96 0-1.81-.22-2.55-.67s-1.31-1.09-1.72-1.93-.61-1.82-.61-2.95c0-1.74.44-3.1 1.31-4.08s2.08-1.46 3.63-1.46c1.5 0 2.69.5 3.57 1.49s1.33 2.34 1.33 4.04zm-8.15 0c0 1.37.27 2.41.82 3.12s1.35 1.07 2.41 1.07 1.87-.36 2.42-1.07.83-1.76.83-3.13c0-1.36-.27-2.39-.83-3.1s-1.36-1.06-2.44-1.06c-1.06 0-1.86.35-2.4 1.04s-.81 1.75-.81 3.13z"/><path d="m265.09 28.3c.48 0 .9.04 1.28.12l-.22 1.5c-.44-.1-.83-.15-1.17-.15-.87 0-1.61.35-2.22 1.05s-.92 1.58-.92 2.63v5.74h-1.62v-10.69h1.34l.19 1.98h.08c.4-.7.88-1.23 1.44-1.61s1.15-.57 1.82-.57z"/><path d="m270.32 38.06c.29 0 .56-.02.83-.06s.48-.09.63-.13v1.24c-.18.08-.43.15-.78.21s-.65.08-.92.08c-2.07 0-3.11-1.09-3.11-3.27v-6.37h-1.53v-.78l1.53-.67.68-2.29h.94v2.48h3.11v1.26h-3.11v6.3c0 .64.15 1.14.46 1.48s.74.52 1.27.52z"/><path d="m279.75 39.2v-6.92c0-.87-.2-1.52-.6-1.95s-1.02-.64-1.87-.64c-1.13 0-1.95.31-2.47.92s-.78 1.61-.78 3.01v5.6h-1.62v-15.22h1.62v4.6c0 .55-.03 1.01-.08 1.38h.1c.32-.51.77-.92 1.36-1.22s1.26-.44 2.02-.44c1.31 0 2.29.31 2.94.93s.98 1.61.98 2.96v6.98h-1.6z"/><path d="m287.73 39.4c-1.58 0-2.83-.48-3.75-1.45s-1.37-2.3-1.37-4.01c0-1.73.42-3.1 1.27-4.11s1.99-1.52 3.42-1.52c1.34 0 2.4.44 3.18 1.32s1.17 2.05 1.17 3.49v1.03h-7.37c.03 1.26.35 2.21.95 2.86s1.45.98 2.54.98c1.15 0 2.29-.24 3.42-.72v1.45c-.57.25-1.11.42-1.63.53s-1.11.15-1.83.15zm-.44-9.74c-.86 0-1.54.28-2.06.84s-.81 1.33-.9 2.32h5.6c0-1.02-.23-1.81-.68-2.35s-1.12-.81-1.96-.81z"/><path d="m297.81 28.3c.48 0 .9.04 1.28.12l-.22 1.5c-.44-.1-.83-.15-1.17-.15-.87 0-1.61.35-2.22 1.05s-.92 1.58-.92 2.63v5.74h-1.62v-10.69h1.34l.19 1.98h.08c.4-.7.88-1.23 1.44-1.61s1.15-.57 1.82-.57z"/><path d="m306.91 39.2v-6.92c0-.87-.2-1.52-.6-1.95s-1.02-.64-1.87-.64c-1.12 0-1.94.3-2.46.91s-.78 1.6-.78 3v5.62h-1.62v-10.72h1.32l.26 1.46h.08c.33-.53.8-.94 1.4-1.23s1.27-.43 2-.43c1.29 0 2.26.31 2.91.93s.98 1.62.98 2.98v6.98h-1.62z"/><path d="m314.3 39.2v-14.28h1.66v14.28z"/><path d="m323.02 28.3c.48 0 .9.04 1.28.12l-.22 1.5c-.44-.1-.83-.15-1.17-.15-.87 0-1.61.35-2.22 1.05s-.92 1.58-.92 2.63v5.74h-1.62v-10.69h1.34l.19 1.98h.08c.4-.7.88-1.23 1.44-1.61s1.15-.57 1.82-.57z"/><path d="m329.32 39.4c-1.58 0-2.83-.48-3.75-1.45s-1.37-2.3-1.37-4.01c0-1.73.42-3.1 1.27-4.11s1.99-1.52 3.42-1.52c1.34 0 2.4.44 3.18 1.32s1.17 2.05 1.17 3.49v1.03h-7.37c.03 1.26.35 2.21.95 2.86s1.45.98 2.54.98c1.15 0 2.29-.24 3.42-.72v1.45c-.57.25-1.11.42-1.63.53s-1.11.15-1.83.15zm-.44-9.74c-.86 0-1.54.28-2.06.84s-.81 1.33-.9 2.32h5.6c0-1.02-.23-1.81-.68-2.35s-1.11-.81-1.96-.81z"/><path d="m336.14 39.2h-1.62v-15.2h1.62z"/><path d="m344.66 39.2-.32-1.52h-.08c-.53.67-1.07 1.12-1.6 1.36s-1.19.36-1.99.36c-1.06 0-1.89-.27-2.5-.82s-.9-1.32-.9-2.33c0-2.16 1.73-3.29 5.19-3.4l1.82-.06v-.66c0-.84-.18-1.46-.54-1.86s-.94-.6-1.73-.6c-.89 0-1.9.27-3.03.82l-.5-1.24c.53-.29 1.1-.51 1.73-.67s1.26-.24 1.89-.24c1.28 0 2.22.28 2.84.85s.92 1.47.92 2.72v7.3h-1.2zm-3.66-1.14c1.01 0 1.8-.28 2.38-.83s.86-1.33.86-2.32v-.97l-1.62.06c-1.29.05-2.22.25-2.79.6s-.85.91-.85 1.66c0 .59.18 1.03.53 1.34s.85.46 1.49.46z"/><path d="m355.03 39.2v-6.92c0-.87-.2-1.52-.6-1.95s-1.02-.64-1.87-.64c-1.12 0-1.94.3-2.46.91s-.78 1.6-.78 3v5.62h-1.62v-10.72h1.32l.26 1.46h.08c.33-.53.8-.94 1.4-1.23s1.27-.43 2-.43c1.29 0 2.26.31 2.91.93s.98 1.62.98 2.98v6.98h-1.62z"/><path d="m365.76 37.76h-.09c-.75 1.09-1.87 1.63-3.36 1.63-1.4 0-2.49-.48-3.27-1.44s-1.17-2.32-1.17-4.08.39-3.13 1.17-4.11 1.87-1.46 3.26-1.46c1.45 0 2.56.53 3.34 1.58h.13l-.07-.77-.04-.75v-4.36h1.62v15.2h-1.32zm-3.24.28c1.11 0 1.91-.3 2.41-.9s.75-1.57.75-2.92v-.34c0-1.52-.25-2.6-.76-3.25s-1.31-.97-2.42-.97c-.95 0-1.68.37-2.18 1.11s-.76 1.78-.76 3.13c0 1.37.25 2.4.75 3.1s1.24 1.04 2.21 1.04z"/><path d="m382.98 26.2c-1.57 0-2.81.52-3.72 1.57s-1.36 2.48-1.36 4.29c0 1.87.44 3.31 1.31 4.33s2.12 1.53 3.75 1.53c1 0 2.13-.18 3.41-.54v1.46c-.99.37-2.21.56-3.66.56-2.1 0-3.73-.64-4.87-1.91s-1.71-3.09-1.71-5.44c0-1.47.27-2.76.83-3.87s1.34-1.96 2.38-2.56 2.26-.9 3.67-.9c1.5 0 2.81.27 3.93.82l-.7 1.43c-1.1-.51-2.18-.77-3.26-.77z"/><path d="m392.26 39.4c-1.58 0-2.83-.48-3.75-1.45s-1.37-2.3-1.37-4.01c0-1.73.42-3.1 1.27-4.11s1.99-1.52 3.42-1.52c1.34 0 2.4.44 3.18 1.32s1.17 2.05 1.17 3.49v1.03h-7.37c.03 1.26.35 2.21.95 2.86s1.45.98 2.54.98c1.15 0 2.29-.24 3.42-.72v1.45c-.57.25-1.11.42-1.63.53s-1.11.15-1.83.15zm-.44-9.74c-.86 0-1.54.28-2.06.84s-.81 1.33-.9 2.32h5.6c0-1.02-.23-1.81-.68-2.35s-1.11-.81-1.96-.81z"/><path d="m403.84 28.3c.48 0 .9.04 1.28.12l-.22 1.5c-.44-.1-.83-.15-1.17-.15-.87 0-1.61.35-2.22 1.05s-.92 1.58-.92 2.63v5.74h-1.62v-10.69h1.34l.19 1.98h.08c.4-.7.88-1.23 1.44-1.61s1.15-.57 1.82-.57z"/><path d="m410.58 38.06c.29 0 .56-.02.83-.06s.48-.09.63-.13v1.24c-.18.08-.43.15-.78.21s-.65.08-.92.08c-2.07 0-3.11-1.09-3.11-3.27v-6.37h-1.53v-.78l1.53-.67.68-2.29h.94v2.48h3.11v1.26h-3.11v6.3c0 .64.15 1.14.46 1.48s.74.52 1.27.52z"/><path d="m412.55 25.6c0-.37.09-.64.27-.82s.41-.26.68-.26c.26 0 .48.09.67.26s.28.45.28.81-.09.64-.28.82-.41.27-.67.27c-.27 0-.5-.09-.68-.27s-.27-.45-.27-.81zm1.76 13.6h-1.62v-10.7h1.62z"/><path d="m419.43 29.76h-2.04v9.44h-1.22v-9.44h-1.44v-.73l1.44-.59v-.6c0-2.63.86-3.95 2.59-3.95.42 0 .92.11 1.49.34l-.31 1.3c-.47-.2-.87-.3-1.2-.3-.46 0-.8.2-1.02.61s-.33 1.06-.33 1.96v.69h2.04z"/><path d="m421.19 25.6c0-.37.09-.64.27-.82s.41-.26.68-.26c.26 0 .48.09.67.26s.28.45.28.81-.09.64-.28.82-.41.27-.67.27c-.27 0-.5-.09-.68-.27s-.27-.45-.27-.81zm1.76 13.6h-1.62v-10.7h1.62z"/><path d="m429.16 39.4c-1.55 0-2.75-.48-3.6-1.43s-1.27-2.3-1.27-4.05c0-1.79.43-3.17 1.29-4.15s2.09-1.46 3.69-1.46c.51 0 1.03.06 1.54.17s.92.24 1.21.39l-.5 1.38c-.36-.14-.75-.26-1.17-.36s-.8-.14-1.12-.14c-2.17 0-3.26 1.39-3.26 4.16 0 1.31.27 2.32.8 3.03s1.32 1.05 2.36 1.05c.89 0 1.81-.19 2.74-.58v1.44c-.72.36-1.62.55-2.71.55z"/><path d="m440.99 39.2-.32-1.52h-.08c-.53.67-1.07 1.12-1.6 1.36s-1.19.36-1.99.36c-1.06 0-1.89-.27-2.5-.82s-.9-1.32-.9-2.33c0-2.16 1.73-3.29 5.19-3.4l1.82-.06v-.66c0-.84-.18-1.46-.54-1.86s-.94-.6-1.73-.6c-.89 0-1.9.27-3.03.82l-.5-1.24c.53-.29 1.1-.51 1.73-.67s1.26-.24 1.89-.24c1.28 0 2.22.28 2.84.85s.92 1.47.92 2.72v7.3h-1.2zm-3.66-1.14c1.01 0 1.8-.28 2.38-.83s.86-1.33.86-2.32v-.97l-1.62.06c-1.29.05-2.22.25-2.79.6s-.85.91-.85 1.66c0 .59.18 1.03.53 1.34s.85.46 1.49.46z"/><path d="m448.68 38.06c.29 0 .56-.02.83-.06s.48-.09.63-.13v1.24c-.18.08-.43.15-.78.21s-.65.08-.92.08c-2.07 0-3.11-1.09-3.11-3.27v-6.37h-1.53v-.78l1.53-.67.68-2.29h.94v2.48h3.11v1.26h-3.11v6.3c0 .64.15 1.14.46 1.48s.74.52 1.27.52z"/><path d="m450.65 25.6c0-.37.09-.64.27-.82s.41-.26.68-.26c.26 0 .48.09.67.26s.28.45.28.81-.09.64-.28.82-.41.27-.67.27c-.27 0-.5-.09-.68-.27s-.27-.45-.27-.81zm1.76 13.6h-1.62v-10.7h1.62z"/><path d="m463.58 33.84c0 1.74-.44 3.11-1.32 4.09s-2.09 1.47-3.64 1.47c-.96 0-1.81-.22-2.55-.67s-1.31-1.09-1.72-1.93-.61-1.82-.61-2.95c0-1.74.44-3.1 1.31-4.08s2.08-1.46 3.63-1.46c1.5 0 2.69.5 3.57 1.49s1.33 2.34 1.33 4.04zm-8.15 0c0 1.37.27 2.41.82 3.12s1.35 1.07 2.41 1.07 1.87-.36 2.42-1.07.83-1.76.83-3.13c0-1.36-.27-2.39-.83-3.1s-1.36-1.06-2.44-1.06c-1.06 0-1.86.35-2.4 1.04s-.81 1.75-.81 3.13z"/><path d="m472.25 39.2v-6.92c0-.87-.2-1.52-.6-1.95s-1.02-.64-1.87-.64c-1.12 0-1.94.3-2.46.91s-.78 1.6-.78 3v5.62h-1.62v-10.72h1.32l.26 1.46h.08c.33-.53.8-.94 1.4-1.23s1.27-.43 2-.43c1.29 0 2.26.31 2.91.93s.98 1.62.98 2.98v6.98h-1.62z"/><path d="m248.68 55.04c0 2.29-.58 4.08-1.73 5.39s-2.76 1.96-4.82 1.96c-2.1 0-3.73-.64-4.87-1.93s-1.71-3.1-1.71-5.45c0-2.32.57-4.12 1.72-5.4s2.77-1.92 4.88-1.92c2.05 0 3.65.65 4.8 1.95 1.16 1.31 1.73 3.11 1.73 5.4zm-11.37 0c0 1.93.41 3.4 1.24 4.4.82 1 2.02 1.5 3.59 1.5 1.58 0 2.78-.5 3.58-1.49s1.21-2.46 1.21-4.4c0-1.92-.4-3.38-1.21-4.37-.8-.99-1.99-1.49-3.57-1.49s-2.78.5-3.61 1.5c-.82.99-1.23 2.44-1.23 4.35z"/><path d="m253.96 52.76h-2.32v9.44h-1.38v-9.44h-1.63v-.73l1.63-.59v-.6c0-2.63.98-3.95 2.93-3.95.48 0 1.05.11 1.69.34l-.36 1.3c-.53-.2-.98-.3-1.36-.3-.52 0-.9.2-1.15.61s-.37 1.06-.37 1.96v.69h2.32zm5.72 0h-2.32v9.44h-1.38v-9.44h-1.63v-.73l1.63-.59v-.6c0-2.63.98-3.95 2.93-3.95.48 0 1.05.11 1.69.34l-.36 1.3c-.53-.2-.98-.3-1.36-.3-.52 0-.9.2-1.15.61s-.37 1.06-.37 1.96v.69h2.32zm1.6-4.16c0-.37.08-.64.23-.81s.35-.26.58-.26c.22 0 .41.09.57.26s.24.45.24.81c0 .37-.08.64-.24.82s-.35.27-.57.27c-.23 0-.43-.09-.58-.27-.16-.19-.23-.46-.23-.82zm1.49 13.6h-1.38v-10.7h1.38z"/><path d="m268.75 62.39c-1.55 0-2.75-.48-3.6-1.43s-1.27-2.3-1.27-4.05c0-1.79.43-3.17 1.29-4.15s2.09-1.46 3.69-1.46c.51 0 1.03.06 1.54.17s.92.24 1.21.39l-.5 1.38c-.36-.14-.75-.26-1.17-.36-.42-.09-.8-.14-1.12-.14-2.17 0-3.26 1.39-3.26 4.16 0 1.32.27 2.32.8 3.03s1.32 1.05 2.36 1.05c.89 0 1.81-.19 2.74-.58v1.44c-.73.37-1.63.55-2.71.55z"/><path d="m277.01 62.39c-1.58 0-2.83-.48-3.75-1.45-.91-.96-1.37-2.3-1.37-4.01 0-1.72.42-3.1 1.27-4.11s1.99-1.52 3.42-1.52c1.34 0 2.4.44 3.18 1.32s1.17 2.04 1.17 3.49v1.03h-7.37c.03 1.26.35 2.21.95 2.86s1.45.98 2.54.98c1.15 0 2.29-.24 3.42-.72v1.45c-.57.25-1.11.43-1.63.53s-1.11.15-1.83.15zm-.44-9.73c-.86 0-1.54.28-2.06.84-.51.56-.81 1.33-.9 2.32h5.6c0-1.02-.23-1.8-.68-2.35-.46-.54-1.11-.81-1.96-.81z"/><path d="m287.09 51.3c.48 0 .9.04 1.28.12l-.22 1.5c-.44-.1-.83-.15-1.17-.15-.87 0-1.61.35-2.22 1.05s-.92 1.58-.92 2.63v5.74h-1.62v-10.69h1.34l.19 1.98h.08c.4-.7.88-1.23 1.44-1.61.54-.38 1.15-.57 1.82-.57z"/><path d="m297.39 52.76h-2.72v9.44h-1.62v-9.44h-1.91v-.73l1.91-.59v-.6c0-2.63 1.15-3.95 3.45-3.95.57 0 1.23.11 1.99.34l-.42 1.3c-.62-.2-1.16-.3-1.6-.3-.61 0-1.06.2-1.36.61-.29.41-.44 1.06-.44 1.96v.69h2.72z"/><path d="m307.08 56.84c0 1.75-.44 3.11-1.32 4.09s-2.09 1.47-3.64 1.47c-.96 0-1.81-.22-2.55-.67s-1.31-1.09-1.72-1.93-.61-1.82-.61-2.95c0-1.74.44-3.1 1.31-4.08.87-.97 2.08-1.46 3.63-1.46 1.5 0 2.69.5 3.57 1.49s1.33 2.34 1.33 4.04zm-8.15 0c0 1.37.27 2.41.82 3.12.55.72 1.35 1.07 2.41 1.07s1.87-.36 2.42-1.07.83-1.76.83-3.13c0-1.36-.27-2.39-.83-3.1-.55-.71-1.36-1.06-2.44-1.06-1.06 0-1.86.35-2.4 1.04-.54.71-.81 1.75-.81 3.13z"/><path d="m313.31 51.3c.48 0 .9.04 1.28.12l-.22 1.5c-.44-.1-.83-.15-1.17-.15-.87 0-1.61.35-2.22 1.05s-.92 1.58-.92 2.63v5.74h-1.62v-10.69h1.34l.19 1.98h.08c.4-.7.88-1.23 1.44-1.61.53-.38 1.15-.57 1.82-.57z"/><path d="m327.12 62.2h-1.66v-12.8h-4.52v-1.47h10.7v1.47h-4.52z"/><path d="m336.93 51.3c.48 0 .9.04 1.28.12l-.22 1.5c-.44-.1-.83-.15-1.17-.15-.87 0-1.61.35-2.22 1.05s-.92 1.58-.92 2.63v5.74h-1.62v-10.69h1.34l.19 1.98h.08c.4-.7.88-1.23 1.44-1.61.53-.38 1.15-.57 1.82-.57z"/><path d="m345.29 62.2-.32-1.52h-.08c-.53.67-1.07 1.12-1.6 1.36s-1.19.36-1.99.36c-1.06 0-1.89-.27-2.5-.82s-.9-1.32-.9-2.33c0-2.16 1.73-3.29 5.19-3.4l1.82-.06v-.66c0-.84-.18-1.46-.54-1.86s-.94-.6-1.73-.6c-.89 0-1.9.27-3.03.82l-.5-1.24c.53-.29 1.1-.51 1.73-.67s1.26-.24 1.89-.24c1.28 0 2.22.28 2.84.85s.92 1.47.92 2.72v7.3h-1.2zm-3.66-1.14c1.01 0 1.8-.28 2.38-.83s.86-1.33.86-2.32v-.97l-1.62.06c-1.29.05-2.22.25-2.79.6s-.85.91-.85 1.65c0 .59.18 1.03.53 1.34.36.31.85.47 1.49.47z"/><path d="m355.62 60.76h-.09c-.75 1.09-1.87 1.63-3.36 1.63-1.4 0-2.49-.48-3.27-1.44s-1.17-2.32-1.17-4.08.39-3.13 1.17-4.11 1.87-1.46 3.26-1.46c1.45 0 2.56.53 3.34 1.58h.13l-.07-.77-.04-.75v-4.36h1.62v15.2h-1.32zm-3.24.28c1.11 0 1.91-.3 2.41-.9s.75-1.57.75-2.92v-.34c0-1.52-.25-2.6-.76-3.25-.5-.65-1.31-.97-2.42-.97-.95 0-1.68.37-2.18 1.11s-.76 1.78-.76 3.13c0 1.37.25 2.4.75 3.1.5.69 1.24 1.04 2.21 1.04z"/><path d="m363.61 62.39c-1.58 0-2.83-.48-3.75-1.45-.91-.96-1.37-2.3-1.37-4.01 0-1.72.42-3.1 1.27-4.11s1.99-1.52 3.42-1.52c1.34 0 2.4.44 3.18 1.32s1.17 2.04 1.17 3.49v1.03h-7.37c.03 1.26.35 2.21.95 2.86s1.45.98 2.54.98c1.15 0 2.29-.24 3.42-.72v1.45c-.57.25-1.11.43-1.63.53s-1.11.15-1.83.15zm-.44-9.73c-.86 0-1.54.28-2.06.84-.51.56-.81 1.33-.9 2.32h5.6c0-1.02-.23-1.8-.68-2.35-.46-.54-1.11-.81-1.96-.81z"/><path d="m387.23 47.92v9.24c0 1.63-.49 2.91-1.47 3.84s-2.33 1.4-4.05 1.4-3.05-.47-3.99-1.41-1.41-2.23-1.41-3.87v-9.2h1.66v9.32c0 1.19.33 2.11.98 2.74.65.64 1.61.96 2.87.96 1.2 0 2.13-.32 2.78-.96s.98-1.56.98-2.76v-9.3z"/><path d="m396.58 62.2v-6.92c0-.87-.2-1.52-.6-1.95s-1.02-.64-1.87-.64c-1.12 0-1.94.3-2.46.91s-.78 1.61-.78 3v5.62h-1.62v-10.72h1.32l.26 1.46h.08c.33-.53.8-.94 1.4-1.22.6-.29 1.27-.44 2-.44 1.29 0 2.26.31 2.91.93s.98 1.62.98 2.98v6.98h-1.62z"/><path d="m399.9 48.6c0-.37.09-.64.27-.81s.41-.26.68-.26c.26 0 .48.09.67.26s.28.45.28.81c0 .37-.09.64-.28.82s-.41.27-.67.27c-.27 0-.5-.09-.68-.27-.18-.19-.27-.46-.27-.82zm1.76 13.6h-1.62v-10.7h1.62z"/><path d="m412.83 56.84c0 1.75-.44 3.11-1.32 4.09s-2.09 1.47-3.64 1.47c-.96 0-1.81-.22-2.55-.67s-1.31-1.09-1.72-1.93-.6-1.84-.6-2.96c0-1.74.44-3.1 1.31-4.08.87-.97 2.08-1.46 3.63-1.46 1.5 0 2.69.5 3.57 1.49s1.32 2.35 1.32 4.05zm-8.15 0c0 1.37.27 2.41.82 3.12.55.72 1.35 1.07 2.41 1.07s1.87-.36 2.42-1.07.83-1.76.83-3.13c0-1.36-.27-2.39-.83-3.1-.55-.71-1.36-1.06-2.44-1.06-1.06 0-1.86.35-2.4 1.04-.54.71-.81 1.75-.81 3.13z"/><path d="m421.5 62.2v-6.92c0-.87-.2-1.52-.6-1.95s-1.02-.64-1.87-.64c-1.12 0-1.94.3-2.46.91s-.78 1.61-.78 3v5.62h-1.62v-10.72h1.32l.26 1.46h.08c.33-.53.8-.94 1.4-1.22.6-.29 1.27-.44 2-.44 1.29 0 2.26.31 2.91.93s.98 1.62.98 2.98v6.98h-1.62z"/><path d="m431.85 59.28c0 1-.37 1.76-1.11 2.3s-1.78.81-3.12.81c-1.42 0-2.53-.22-3.32-.67v-1.5c.51.26 1.07.47 1.66.62s1.16.22 1.7.22c.85 0 1.5-.13 1.95-.4.46-.27.68-.68.68-1.24 0-.42-.18-.77-.54-1.07s-1.07-.65-2.11-1.05c-1-.37-1.7-.69-2.12-.97s-.73-.59-.94-.94-.31-.77-.31-1.26c0-.87.35-1.56 1.06-2.06s1.68-.76 2.92-.76c1.15 0 2.28.23 3.38.7l-.58 1.32c-1.07-.44-2.05-.66-2.92-.66-.77 0-1.35.12-1.74.36s-.59.57-.59 1c0 .29.07.53.22.73s.38.39.71.58c.33.18.95.45 1.88.79 1.27.46 2.13.93 2.57 1.4s.67 1.04.67 1.75z"/><path d="m443.27 62.2-.32-1.52h-.08c-.53.67-1.07 1.12-1.6 1.36s-1.19.36-1.99.36c-1.06 0-1.89-.27-2.5-.82s-.9-1.32-.9-2.33c0-2.16 1.73-3.29 5.19-3.4l1.82-.06v-.66c0-.84-.18-1.46-.54-1.86s-.94-.6-1.73-.6c-.89 0-1.9.27-3.03.82l-.5-1.24c.53-.29 1.1-.51 1.73-.67s1.26-.24 1.89-.24c1.28 0 2.22.28 2.84.85s.92 1.47.92 2.72v7.3h-1.2zm-3.66-1.14c1.01 0 1.8-.28 2.38-.83s.86-1.33.86-2.32v-.97l-1.62.06c-1.29.05-2.22.25-2.79.6s-.85.91-.85 1.65c0 .59.18 1.03.53 1.34s.85.47 1.49.47z"/><path d="m454.83 62.2v-6.92c0-.87-.2-1.52-.6-1.95s-1.02-.64-1.87-.64c-1.12 0-1.94.3-2.46.91s-.78 1.61-.78 3v5.62h-1.62v-10.72h1.32l.26 1.46h.08c.33-.53.8-.94 1.4-1.22.6-.29 1.27-.44 2-.44 1.29 0 2.26.31 2.91.93s.98 1.62.98 2.98v6.98h-1.62z"/><path d="m465.57 60.76h-.09c-.75 1.09-1.87 1.63-3.36 1.63-1.4 0-2.49-.48-3.27-1.44s-1.17-2.32-1.17-4.08.39-3.13 1.17-4.11 1.87-1.46 3.26-1.46c1.45 0 2.56.53 3.34 1.58h.13l-.07-.77-.04-.75v-4.36h1.62v15.2h-1.32zm-3.25.28c1.11 0 1.91-.3 2.41-.9s.75-1.57.75-2.92v-.34c0-1.52-.25-2.6-.76-3.25-.5-.65-1.31-.97-2.42-.97-.95 0-1.68.37-2.18 1.11s-.76 1.78-.76 3.13c0 1.37.25 2.4.75 3.1.51.69 1.24 1.04 2.21 1.04z"/><path d="m244.25 85.2h-7.96v-14.28h7.96v1.47h-6.3v4.61h5.92v1.46h-5.92v5.25h6.3z"/><path d="m259.31 85.2v-6.96c0-.85-.18-1.49-.55-1.92s-.93-.64-1.7-.64c-1.01 0-1.75.29-2.24.87s-.72 1.47-.72 2.68v5.98h-1.62v-6.96c0-.85-.18-1.49-.55-1.92s-.93-.64-1.71-.64c-1.02 0-1.76.3-2.23.91s-.71 1.61-.71 2.99v5.62h-1.62v-10.71h1.32l.26 1.46h.08c.31-.52.74-.93 1.29-1.22s1.18-.44 1.87-.44c1.67 0 2.77.61 3.28 1.82h.08c.32-.56.78-1 1.39-1.33s1.3-.49 2.07-.49c1.21 0 2.12.31 2.72.93s.9 1.62.9 2.98v6.98h-1.61z"/><path d="m267.75 85.4c-.7 0-1.33-.13-1.91-.39s-1.06-.65-1.45-1.19h-.12c.08.62.12 1.22.12 1.78v4.4h-1.62v-15.5h1.32l.22 1.46h.08c.42-.59.9-1.01 1.46-1.27s1.19-.39 1.9-.39c1.42 0 2.51.49 3.29 1.46s1.16 2.33 1.16 4.08c0 1.76-.39 3.12-1.18 4.1s-1.87 1.46-3.27 1.46zm-.23-9.72c-1.09 0-1.88.3-2.37.91s-.74 1.57-.75 2.89v.36c0 1.5.25 2.58.75 3.23s1.31.97 2.41.97c.92 0 1.65-.37 2.17-1.12s.79-1.78.79-3.1c0-1.33-.26-2.36-.79-3.07s-1.26-1.07-2.21-1.07z"/><path d="m275.15 85.2h-1.62v-15.2h1.62z"/><path d="m286.32 79.84c0 1.75-.44 3.11-1.32 4.09s-2.09 1.47-3.64 1.47c-.96 0-1.81-.22-2.55-.67s-1.31-1.09-1.72-1.93-.61-1.82-.61-2.95c0-1.75.44-3.1 1.31-4.08s2.08-1.46 3.63-1.46c1.5 0 2.69.5 3.57 1.49s1.33 2.34 1.33 4.04zm-8.15 0c0 1.37.27 2.41.82 3.12s1.35 1.07 2.41 1.07 1.87-.36 2.42-1.07.83-1.76.83-3.13c0-1.36-.27-2.39-.83-3.1s-1.36-1.06-2.44-1.06c-1.06 0-1.86.35-2.4 1.04s-.81 1.75-.81 3.13z"/><path d="m285.97 74.5h1.74l2.34 6.1c.51 1.39.83 2.4.96 3.02h.08c.08-.33.26-.9.53-1.7s1.15-3.28 2.65-7.42h1.74l-4.6 12.19c-.46 1.2-.99 2.06-1.6 2.56s-1.36.75-2.24.75c-.49 0-.98-.06-1.46-.17v-1.3c.36.08.76.12 1.2.12 1.11 0 1.91-.62 2.38-1.88l.6-1.52z"/><path d="m300.77 85.4c-1.58 0-2.83-.48-3.75-1.45s-1.37-2.3-1.37-4.01c0-1.73.42-3.1 1.27-4.11s1.99-1.52 3.42-1.52c1.34 0 2.4.44 3.18 1.32s1.17 2.05 1.17 3.49v1.03h-7.37c.03 1.26.35 2.21.95 2.86s1.45.98 2.54.98c1.15 0 2.29-.24 3.42-.72v1.45c-.57.25-1.11.42-1.63.53s-1.11.15-1.83.15zm-.44-9.74c-.86 0-1.54.28-2.06.84s-.81 1.33-.9 2.32h5.6c0-1.02-.23-1.8-.68-2.35s-1.12-.81-1.96-.81z"/><path d="m310.85 74.3c.48 0 .9.04 1.28.12l-.22 1.5c-.44-.1-.83-.15-1.17-.15-.87 0-1.61.35-2.22 1.05s-.92 1.58-.92 2.63v5.74h-1.62v-10.69h1.34l.19 1.98h.08c.4-.7.88-1.23 1.44-1.61s1.15-.57 1.82-.57z"/><path d="m319.53 82.28c0 1-.37 1.76-1.11 2.3s-1.78.81-3.12.81c-1.42 0-2.53-.22-3.32-.67v-1.5c.51.26 1.07.47 1.66.62s1.16.22 1.7.22c.85 0 1.5-.13 1.95-.41s.68-.68.68-1.24c0-.42-.18-.77-.54-1.07s-1.07-.65-2.11-1.05c-1-.37-1.7-.7-2.12-.97s-.73-.59-.94-.94-.31-.77-.31-1.26c0-.87.35-1.56 1.06-2.07s1.68-.76 2.92-.76c1.15 0 2.28.23 3.38.7l-.58 1.32c-1.07-.44-2.05-.66-2.92-.66-.77 0-1.35.12-1.74.36s-.59.57-.59 1c0 .29.07.53.22.73s.38.39.71.58.95.45 1.88.79c1.27.46 2.13.93 2.57 1.4s.67 1.06.67 1.77z"/><path d="m325.66 70.92.15.21c-.17.65-.41 1.41-.73 2.27s-.65 1.67-1 2.41h-1.19c.46-1.86.79-3.49 1-4.89z"/><path d="m344.37 85.2-1.78-4.54h-5.72l-1.76 4.54h-1.68l5.64-14.34h1.4l5.62 14.34zm-2.29-6.03-1.66-4.42c-.21-.56-.44-1.25-.66-2.06-.14.62-.35 1.31-.62 2.06l-1.68 4.42z"/><path d="m353.22 82.28c0 1-.37 1.76-1.11 2.3s-1.78.81-3.12.81c-1.42 0-2.53-.22-3.32-.67v-1.5c.51.26 1.07.47 1.66.62s1.16.22 1.7.22c.85 0 1.5-.13 1.95-.41s.68-.68.68-1.24c0-.42-.18-.77-.54-1.07s-1.07-.65-2.11-1.05c-1-.37-1.7-.7-2.12-.97s-.73-.59-.94-.94-.31-.77-.31-1.26c0-.87.35-1.56 1.06-2.07s1.68-.76 2.92-.76c1.15 0 2.28.23 3.38.7l-.58 1.32c-1.07-.44-2.05-.66-2.92-.66-.77 0-1.35.12-1.74.36s-.59.57-.59 1c0 .29.07.53.22.73s.38.39.71.58.95.45 1.88.79c1.27.46 2.13.93 2.57 1.4s.67 1.06.67 1.77z"/><path d="m362.76 82.28c0 1-.37 1.76-1.11 2.3s-1.78.81-3.12.81c-1.42 0-2.53-.22-3.32-.67v-1.5c.51.26 1.07.47 1.66.62s1.16.22 1.7.22c.85 0 1.5-.13 1.95-.41s.68-.68.68-1.24c0-.42-.18-.77-.54-1.07s-1.07-.65-2.11-1.05c-1-.37-1.7-.7-2.12-.97s-.73-.59-.94-.94-.31-.77-.31-1.26c0-.87.35-1.56 1.06-2.07s1.68-.76 2.92-.76c1.15 0 2.28.23 3.38.7l-.58 1.32c-1.07-.44-2.05-.66-2.92-.66-.77 0-1.35.12-1.74.36s-.59.57-.59 1c0 .29.07.53.22.73s.38.39.71.58.95.45 1.88.79c1.27.46 2.13.93 2.57 1.4s.67 1.06.67 1.77z"/><path d="m374.63 79.84c0 1.75-.44 3.11-1.32 4.09s-2.09 1.47-3.64 1.47c-.96 0-1.81-.22-2.55-.67s-1.31-1.09-1.72-1.93-.61-1.82-.61-2.95c0-1.75.44-3.1 1.31-4.08s2.08-1.46 3.63-1.46c1.5 0 2.69.5 3.57 1.49s1.33 2.34 1.33 4.04zm-8.15 0c0 1.37.27 2.41.82 3.12s1.35 1.07 2.41 1.07 1.87-.36 2.42-1.07.83-1.76.83-3.13c0-1.36-.27-2.39-.83-3.1s-1.36-1.06-2.44-1.06c-1.06 0-1.86.35-2.4 1.04s-.81 1.75-.81 3.13z"/><path d="m380.25 85.4c-1.55 0-2.75-.48-3.6-1.43s-1.27-2.3-1.27-4.05c0-1.79.43-3.17 1.29-4.15s2.09-1.46 3.69-1.46c.51 0 1.03.06 1.54.17s.92.24 1.21.39l-.5 1.38c-.36-.14-.75-.26-1.17-.36s-.8-.14-1.12-.14c-2.17 0-3.26 1.39-3.26 4.16 0 1.32.27 2.32.8 3.03s1.32 1.05 2.36 1.05c.89 0 1.81-.19 2.74-.58v1.44c-.72.36-1.62.55-2.71.55z"/><path d="m385.36 71.6c0-.37.09-.64.27-.82s.41-.26.68-.26c.26 0 .48.09.67.26s.28.45.28.81-.09.64-.28.82-.41.27-.67.27c-.27 0-.5-.09-.68-.27s-.27-.45-.27-.81zm1.76 13.6h-1.62v-10.7h1.62z"/><path d="m395.64 85.2-.32-1.52h-.08c-.53.67-1.07 1.12-1.6 1.36s-1.19.36-1.99.36c-1.06 0-1.89-.27-2.5-.82s-.9-1.33-.9-2.33c0-2.16 1.73-3.29 5.19-3.4l1.82-.06v-.66c0-.84-.18-1.46-.54-1.86s-.94-.6-1.73-.6c-.89 0-1.9.27-3.03.82l-.5-1.24c.53-.29 1.1-.51 1.73-.67s1.26-.24 1.89-.24c1.28 0 2.22.28 2.84.85s.92 1.47.92 2.72v7.3h-1.2zm-3.67-1.14c1.01 0 1.8-.28 2.38-.83s.86-1.33.86-2.32v-.97l-1.62.06c-1.29.05-2.22.25-2.79.6s-.85.91-.85 1.66c0 .59.18 1.03.53 1.34s.85.46 1.49.46z"/><path d="m403.33 84.06c.29 0 .56-.02.83-.06s.48-.09.63-.13v1.24c-.18.08-.43.15-.78.21s-.65.08-.92.08c-2.07 0-3.11-1.09-3.11-3.27v-6.37h-1.53v-.78l1.53-.67.68-2.29h.94v2.48h3.11v1.26h-3.11v6.3c0 .64.15 1.14.46 1.48s.73.52 1.27.52z"/><path d="m405.3 71.6c0-.37.09-.64.27-.82s.41-.26.68-.26c.26 0 .48.09.67.26s.28.45.28.81-.09.64-.28.82-.41.27-.67.27c-.27 0-.5-.09-.68-.27s-.27-.45-.27-.81zm1.75 13.6h-1.62v-10.7h1.62z"/><path d="m418.23 79.84c0 1.75-.44 3.11-1.32 4.09s-2.09 1.47-3.64 1.47c-.96 0-1.81-.22-2.55-.67s-1.31-1.09-1.72-1.93-.61-1.82-.61-2.95c0-1.75.44-3.1 1.31-4.08s2.08-1.46 3.63-1.46c1.5 0 2.69.5 3.57 1.49s1.33 2.34 1.33 4.04zm-8.16 0c0 1.37.27 2.41.82 3.12s1.35 1.07 2.41 1.07 1.87-.36 2.42-1.07.83-1.76.83-3.13c0-1.36-.27-2.39-.83-3.1s-1.36-1.06-2.44-1.06c-1.06 0-1.86.35-2.4 1.04s-.81 1.75-.81 3.13z"/><path d="m426.9 85.2v-6.92c0-.87-.2-1.52-.6-1.95s-1.02-.64-1.87-.64c-1.12 0-1.94.3-2.46.91s-.78 1.6-.78 3v5.62h-1.62v-10.72h1.32l.26 1.46h.08c.33-.53.8-.94 1.4-1.23s1.27-.43 2-.43c1.29 0 2.26.31 2.91.93s.98 1.62.98 2.98v6.98h-1.62z"/><path d="m437.25 82.28c0 1-.37 1.76-1.11 2.3s-1.78.81-3.12.81c-1.42 0-2.53-.22-3.32-.67v-1.5c.51.26 1.07.47 1.66.62s1.16.22 1.7.22c.85 0 1.5-.13 1.95-.41s.68-.68.68-1.24c0-.42-.18-.77-.54-1.07s-1.07-.65-2.11-1.05c-1-.37-1.7-.7-2.12-.97s-.73-.59-.94-.94-.31-.77-.31-1.26c0-.87.35-1.56 1.06-2.07s1.68-.76 2.92-.76c1.15 0 2.28.23 3.38.7l-.58 1.32c-1.07-.44-2.05-.66-2.92-.66-.77 0-1.35.12-1.74.36s-.59.57-.59 1c0 .29.07.53.22.73s.38.39.71.58.95.45 1.88.79c1.27.46 2.13.93 2.57 1.4s.67 1.06.67 1.77z"/></g><g clip-rule="evenodd" fill-rule="evenodd"><path d="m171.99 47.1 12.63 10.55 46.38-57.49-46.38 72.76z" fill="#c9b57a"/><path d="m196.49 36.82 5.55-6.94s-6.55-5.08-20.48-4.93c0 0-15.51-.2-25.41 12.43 0 0-13.95 15.77-1.74 38.25 0 0 8.96 14.8 28.05 14.58 0 0 27.58 1.41 34.51-24.85 0 0 1.99-7.67-.35-16.52 0 0-2.13-6.41-5.55-10.97l-5.35 8.4s5.03 8.82 1.32 19.65c0 0-4.02 15.01-22.98 15.97 0 0-13.46.98-20.97-9.86 0 0-10.01-13.3-.14-28.33 0 0 5.16-8.98 18.47-10.07.01 0 5.9-1.2 15.07 3.19z" fill="#550060"/></g></svg>