<?xml version="1.0" standalone="no"?>
<!DOCTYPE svg PUBLIC "-//W3C//DTD SVG 20010904//EN"
 "http://www.w3.org/TR/2001/REC-SVG-20010904/DTD/svg10.dtd">
<svg version="1.0" xmlns="http://www.w3.org/2000/svg"
 width="1280.000000pt" height="1280.000000pt" viewBox="0 0 1280.000000 1280.000000"
 preserveAspectRatio="xMidYMid meet">
<metadata>
Created by potrace 1.14, written by Peter Selinger 2001-2017
</metadata>
<g transform="translate(0.000000,1280.000000) scale(0.100000,-0.100000)"
fill="#000000" stroke="none">
<path d="M3913 9082 c-7 -4 -48 -6 -92 -5 -70 2 -81 0 -82 -15 -6 -108 -2
-4090 4 -4099 6 -8 16 -9 32 -3 15 6 27 6 30 -1 4 -5 12 -6 18 -2 17 10 67 11
67 0 0 -4 8 -4 17 2 10 5 26 5 40 0 13 -5 23 -5 23 0 0 9 30 8 47 -2 6 -4 14
-4 16 1 3 4 21 6 41 5 20 -2 52 -4 72 -6 20 -1 38 1 40 5 3 4 15 3 27 -1 12
-5 32 -5 44 0 13 5 25 4 29 -2 3 -6 11 -6 17 -1 14 10 57 9 74 -1 6 -4 14 -3
18 3 4 7 12 7 25 0 10 -6 21 -6 24 -2 6 10 36 9 53 -1 6 -4 14 -3 18 3 4 7 12
7 25 0 10 -6 21 -6 24 -2 4 7 51 9 51 2 0 -6 47 -5 51 1 2 5 15 4 27 0 12 -5
32 -5 44 0 13 5 25 4 28 -2 4 -5 12 -6 18 -2 17 10 67 11 67 0 0 -4 8 -4 17 2
10 5 26 5 40 0 13 -5 23 -5 23 0 0 9 30 8 47 -2 6 -4 14 -4 16 1 6 8 69 8 84
-1 4 -2 17 -1 28 3 11 4 30 4 43 -1 12 -5 22 -5 22 0 0 9 30 8 47 -2 6 -4 14
-4 17 1 5 9 53 9 62 -1 4 -3 15 -2 25 3 11 7 20 7 24 0 3 -5 15 -6 28 -1 13 5
30 5 39 0 10 -6 19 -6 23 0 4 7 15 7 30 1 14 -5 25 -6 25 -1 0 9 30 8 47 -2 6
-4 14 -4 17 1 5 9 53 9 62 -1 4 -3 15 -2 25 3 11 7 20 7 24 0 3 -5 15 -6 29 0
12 4 29 4 36 0 8 -5 18 -6 24 -3 5 3 24 6 42 5 l32 -1 0 2059 0 2058 -221 1
c-122 0 -229 1 -237 1 -8 0 -116 0 -240 0 -124 0 -232 0 -240 0 -8 0 -116 0
-240 0 -124 0 -232 0 -240 0 -8 0 -117 0 -241 -2 -124 -1 -230 1 -235 5 -6 3
-15 3 -21 -1z"/>
<path d="M6196 8139 c-8 -31 -4 -69 6 -69 9 0 9 1 12 42 4 38 -11 59 -18 27z"/>
<path d="M6617 8154 c-10 -10 -9 -72 2 -78 5 -3 11 4 13 17 5 28 -5 71 -15 61z"/>
<path d="M6879 8142 c-12 -14 -13 -22 -5 -34 16 -21 13 -546 -3 -576 -13 -25
-14 -24 22 -26 23 -2 26 1 20 19 -4 11 -7 158 -8 328 0 169 -2 307 -5 307 -3
0 -13 -8 -21 -18z"/>
<path d="M7362 8119 c1 -22 5 -42 9 -45 9 -5 18 43 12 67 -9 35 -24 20 -21
-22z"/>
<path d="M7677 8153 c-11 -10 -8 -83 3 -83 6 0 10 8 11 18 0 9 2 24 4 33 4 20
-9 42 -18 32z"/>
<path d="M8076 8141 c-13 -15 -16 -24 -8 -33 6 -8 9 -62 8 -131 0 -64 3 -117
8 -117 5 0 5 -6 0 -12 -11 -16 -11 -39 0 -57 5 -8 5 -12 0 -9 -5 4 -9 -45 -8
-115 0 -67 -3 -127 -9 -134 -13 -17 -1 -30 28 -30 16 0 22 3 17 11 -4 6 -9
154 -12 330 -5 313 -5 318 -24 297z"/>
<path d="M8253 8148 c-1 -19 -12 -128 -17 -168 -10 -75 -27 -263 -29 -307 -1
-18 -4 -33 -7 -33 -3 0 -6 -11 -6 -25 -1 -14 1 -25 5 -25 8 0 8 1 14 69 5 47
23 63 59 53 14 -3 18 -15 19 -51 1 -25 3 -65 4 -88 2 -24 -1 -43 -6 -43 -5 0
-9 -6 -9 -13 0 -7 13 -12 30 -12 28 -1 30 2 25 25 -13 59 -15 79 -20 145 -3
39 -8 81 -10 95 -5 29 -16 121 -20 165 -1 17 -6 59 -10 95 -4 36 -8 77 -10 93
-2 29 -11 46 -12 25z m8 -190 c0 -26 6 -90 14 -160 5 -46 5 -47 -22 -45 -26 2
-28 5 -24 42 2 22 4 54 5 70 1 17 4 35 7 40 2 6 4 25 4 43 0 17 3 32 7 32 4 0
8 -10 9 -22z"/>
<path d="M8348 8141 c-9 -13 -14 -29 -10 -35 4 -6 7 -140 7 -297 1 -224 4
-290 14 -303 46 -56 81 35 85 219 3 156 -33 277 -60 203 -5 -15 -10 22 -13
107 -6 126 -7 129 -23 106z m57 -260 c17 -29 25 -221 12 -291 -11 -53 -22 -69
-38 -53 -13 13 -17 278 -6 326 7 27 21 35 32 18z"/>
<path d="M6008 8144 c-4 -3 -2 -18 3 -33 11 -32 7 -556 -5 -588 -8 -23 -8 -23
58 -14 5 0 3 8 -4 16 -13 16 -22 265 -10 284 3 6 14 8 25 6 11 -2 26 -4 32 -4
9 -1 12 -17 9 -51 -1 -27 1 -50 6 -50 5 0 7 -4 3 -9 -8 -14 -13 -71 -6 -71 4
0 7 -9 7 -20 0 -11 -4 -20 -8 -20 -4 0 -5 -9 -3 -21 2 -12 -3 -28 -12 -37 -15
-15 -14 -17 8 -22 40 -10 83 10 47 22 -17 6 -18 576 0 590 21 18 13 26 -24 26
-29 0 -34 -3 -28 -16 14 -34 19 -145 8 -164 -3 -4 -1 -8 5 -8 6 0 8 -7 4 -16
-3 -9 -6 -32 -7 -52 -1 -33 -3 -36 -33 -37 -38 -2 -36 -12 -35 148 0 69 5 113
12 123 7 7 11 14 9 15 -31 7 -57 8 -61 3z"/>
<path d="M6990 8145 c0 -3 6 -16 14 -28 19 -31 17 -566 -2 -590 -16 -19 -2
-24 76 -26 47 -1 66 9 44 23 -13 8 -8 338 5 360 10 19 11 19 20 0 11 -22 10
-319 -1 -351 -7 -21 -4 -23 26 -23 18 0 43 -3 54 -6 17 -4 24 0 32 23 13 38
13 150 0 183 -6 14 -14 34 -19 45 -29 73 -37 159 -16 172 13 8 19 -3 27 -44
l8 -38 1 41 c1 49 -17 70 -42 51 -33 -25 -25 -184 14 -262 19 -38 25 -140 9
-150 -15 -9 -30 12 -30 43 0 12 -5 22 -10 22 -6 0 -8 -13 -5 -29 3 -17 1 -33
-5 -36 -13 -8 -12 -15 -14 200 -1 99 -6 190 -10 203 -11 32 -31 27 -44 -10
l-11 -33 2 38 3 38 -24 -26 c-18 -20 -21 -29 -12 -39 12 -15 13 -336 1 -368
-4 -12 -10 -15 -21 -8 -22 14 -26 574 -4 608 14 21 14 22 -26 22 -22 0 -40 -2
-40 -5z"/>
<path d="M7305 8043 c-4 -10 -9 -34 -12 -53 -3 -19 -9 -42 -14 -51 -4 -9 -4
-20 1 -25 5 -5 10 -98 11 -207 2 -198 8 -230 36 -192 17 24 17 35 -2 35 -13 0
-15 27 -15 180 0 148 2 180 14 180 17 0 15 28 -2 39 -7 4 -10 27 -8 59 4 56 2
62 -9 35z"/>
<path d="M7605 8013 c-7 -39 -8 -275 -1 -326 2 -15 0 -30 -5 -33 -4 -2 -6 -10
-4 -17 2 -7 6 -36 9 -66 4 -48 19 -82 30 -70 2 2 6 20 10 39 3 19 3 29 0 23
-10 -23 -22 -13 -20 17 1 17 -1 30 -5 30 -3 0 -3 18 1 39 4 22 3 45 -1 53 -5
7 -3 16 4 20 7 4 7 8 2 8 -6 0 -10 29 -9 73 3 107 3 107 18 107 16 0 15 28 -2
39 -6 3 -11 26 -10 49 1 56 -8 63 -17 15z"/>
<path d="M7429 8027 c-2 -20 -2 -20 -17 -72 -6 -21 -8 -42 -3 -45 4 -3 8 -81
10 -175 2 -211 3 -227 17 -232 16 -5 36 54 22 63 -7 4 -8 2 -4 -4 4 -7 2 -12
-3 -12 -13 0 -13 -10 -13 190 -1 120 2 164 10 163 7 -2 12 8 12 22 0 14 -5 25
-10 25 -6 0 -10 17 -8 40 1 22 -1 43 -5 46 -4 4 -8 0 -8 -9z"/>
<path d="M6346 8022 c-3 -5 -8 -24 -11 -43 -3 -19 -8 -42 -11 -51 -3 -10 -1
-18 3 -18 5 0 9 -87 10 -194 0 -106 3 -199 7 -205 21 -33 43 13 24 50 -9 17
-13 73 -12 183 1 139 3 160 18 168 16 9 16 11 1 28 -9 10 -17 35 -17 54 0 37
-3 43 -12 28z"/>
<path d="M6798 7959 c-16 -9 -33 -63 -31 -101 0 -10 1 -28 2 -40 2 -39 15 -9
17 40 3 71 3 72 17 72 9 0 14 -16 16 -47 1 -26 4 -50 7 -55 3 -4 0 -8 -6 -8
-6 0 -8 -5 -4 -11 3 -6 -6 -34 -22 -62 -22 -40 -29 -67 -31 -120 -2 -70 9
-117 27 -117 18 0 23 29 8 44 -21 20 -22 100 -2 159 16 47 18 49 24 27 4 -14
3 -37 -1 -51 -4 -15 -3 -32 1 -40 5 -7 7 -16 5 -19 -9 -15 -14 -80 -5 -80 6 0
10 -9 10 -20 0 -18 19 -30 21 -12 0 4 2 16 4 26 2 11 1 25 -3 30 -4 6 -7 79
-8 161 -2 199 -11 243 -46 224z"/>
<path d="M7986 7951 c-20 -22 -33 -141 -16 -141 6 0 10 12 11 28 2 72 5 86 17
89 6 3 13 -4 13 -14 5 -79 4 -120 -4 -130 -5 -7 -5 -18 -1 -25 5 -7 9 -64 10
-126 1 -62 4 -116 8 -119 11 -12 35 31 26 47 -12 23 -17 92 -9 123 4 15 5 27
1 27 -4 0 -6 39 -6 86 2 136 -16 192 -50 155z"/>
<path d="M7475 7950 c-4 -6 -3 -15 1 -21 4 -6 8 -95 9 -198 1 -127 6 -196 14
-216 l13 -30 16 35 16 35 7 -30 c3 -16 7 -24 8 -17 0 7 8 20 16 29 10 10 12
19 6 27 -5 6 -9 92 -10 191 -1 99 -6 184 -10 188 -15 15 -34 -2 -21 -18 8 -9
11 -71 9 -189 -2 -159 -4 -176 -19 -176 -24 0 -26 17 -25 217 0 127 -3 174
-12 177 -7 3 -15 1 -18 -4z"/>
<path d="M7886 7928 c-20 -47 -26 -48 -19 -5 l5 32 -24 -23 c-18 -17 -20 -26
-12 -40 11 -19 11 -333 -1 -368 -5 -18 -2 -22 19 -26 15 -3 29 -1 32 3 3 5 1
9 -5 9 -14 0 -15 330 0 366 l11 29 10 -25 c5 -14 8 -102 6 -202 -2 -97 -1
-175 2 -174 3 2 14 6 25 10 13 5 16 9 8 14 -8 5 -12 65 -14 193 -1 122 -6 196
-14 215 l-13 29 -16 -37z"/>
<path d="M6260 7935 c-23 -28 -15 -210 11 -242 20 -24 32 -153 16 -170 -12
-11 -29 14 -32 47 -4 50 -13 46 -11 -5 2 -47 -7 -65 -20 -43 -4 6 -8 102 -9
212 -1 111 -3 203 -4 206 -1 3 -8 -6 -15 -20 -8 -14 -11 -31 -7 -40 8 -14 7
-322 -1 -365 -2 -14 2 -19 12 -16 8 2 34 3 57 3 41 0 43 1 49 36 15 81 7 166
-22 228 -10 20 -17 42 -17 50 0 8 -3 14 -7 14 -7 0 -5 25 6 78 5 27 24 29 24
2 0 -11 4 -20 9 -20 10 0 7 32 -4 50 -9 14 -21 12 -35 -5z"/>
<path d="M6425 7933 c-43 -105 -40 -363 4 -432 14 -22 39 -5 51 36 6 21 13 72
16 113 3 41 6 83 8 93 2 9 1 17 -2 17 -4 0 -8 26 -8 58 -2 94 -47 169 -69 115z
m49 -223 c1 -163 -6 -212 -29 -189 -28 28 -39 316 -15 374 l12 30 16 -35 c11
-25 15 -75 16 -180z"/>
<path d="M6618 7922 c-9 -15 -13 -33 -9 -40 9 -15 7 -329 -2 -358 -6 -16 -3
-23 10 -26 30 -8 46 1 32 18 -8 10 -12 77 -12 224 0 116 -1 210 -1 210 -1 0
-9 -13 -18 -28z"/>
<path d="M6685 7923 c-5 -16 -10 -35 -13 -43 -5 -15 -6 -300 -1 -332 3 -20 36
-54 45 -46 10 11 32 108 24 108 -4 0 -10 -9 -13 -20 -15 -57 -42 6 -50 115 -4
61 7 198 18 215 11 18 31 -12 30 -44 -2 -36 4 -56 15 -56 8 0 5 80 -5 111 -10
29 -42 24 -50 -8z"/>
<path d="M7678 7928 c-7 -13 -11 -27 -9 -33 2 -5 4 -84 5 -173 1 -113 -2 -171
-10 -187 -15 -29 -9 -35 29 -35 25 0 28 2 17 15 -10 12 -13 71 -14 225 0 116
-2 210 -3 210 -1 0 -8 -10 -15 -22z"/>
<path d="M7751 7936 c-41 -49 -46 -335 -8 -415 48 -100 96 100 74 311 -9 90
-39 137 -66 104z m33 -48 c12 -54 17 -119 16 -203 -1 -154 -12 -198 -38 -149
-12 21 -16 68 -19 179 -3 159 1 195 23 195 7 0 16 -10 18 -22z"/>
<path d="M8449 7936 c11 -13 19 -224 11 -261 -1 -5 -2 -12 0 -15 1 -3 3 -30 4
-60 4 -84 5 -87 21 -94 11 -4 19 3 25 19 11 30 25 34 17 5 -6 -24 -1 -25 20
-5 8 9 12 23 9 31 -4 9 -6 101 -6 204 -1 172 -2 188 -18 186 -15 -3 -17 -7
-11 -18 1 -2 3 -80 4 -174 1 -129 -1 -175 -11 -189 -13 -17 -14 -17 -21 1 -4
10 -8 101 -8 201 l0 183 -24 0 c-19 0 -21 -3 -12 -14z"/>
<path d="M8585 7933 c-23 -57 -6 -229 28 -271 11 -14 18 -107 10 -129 -8 -20
-33 -15 -34 7 -2 33 -4 38 -12 46 -5 5 -7 -12 -6 -37 2 -39 6 -45 25 -47 30
-2 45 25 47 88 2 59 13 53 20 -12 5 -43 22 -88 32 -88 3 0 12 11 21 25 19 29
35 95 24 95 -5 0 -10 -10 -12 -22 -2 -13 -9 -23 -15 -23 -7 0 -12 2 -11 5 1 3
-4 16 -12 29 -7 14 -15 58 -17 98 l-5 73 40 0 40 0 -4 43 c-10 97 -22 137 -44
137 -24 0 -43 -93 -44 -222 -1 -43 -3 -78 -6 -78 -3 0 -11 24 -18 54 -7 30
-20 69 -29 87 -17 35 -19 117 -3 133 13 13 18 7 24 -28 3 -16 7 -31 10 -33 8
-8 0 63 -8 76 -11 17 -33 13 -41 -6z m130 -74 c8 -56 8 -56 -20 -61 -18 -3
-20 3 -20 42 -1 81 30 96 40 19z"/>
<path d="M6569 7938 c0 -2 -3 -14 -5 -27 -6 -35 -14 -39 -14 -8 0 32 -10 35
-28 6 -9 -13 -10 -25 -4 -32 13 -15 13 -345 1 -353 -20 -12 -9 -33 16 -30 31
3 43 15 27 25 -10 6 -13 45 -12 162 1 85 2 162 2 172 -1 9 3 17 9 17 5 0 9 -4
9 -10 0 -5 5 -10 10 -10 6 0 10 18 10 39 0 22 -4 43 -10 46 -5 3 -10 5 -11 3z"/>
<path d="M7362 7919 c-8 -12 -9 -26 -4 -37 13 -27 8 -333 -6 -358 -10 -19 -9
-23 7 -27 30 -7 44 7 35 34 -4 13 -9 108 -9 211 -1 103 -3 189 -6 192 -3 3
-10 -4 -17 -15z"/>
<path d="M6296 7867 c3 -10 9 -15 12 -12 3 3 0 11 -7 18 -10 9 -11 8 -5 -6z"/>
<path d="M7969 7703 c-13 -46 -15 -115 -5 -158 2 -11 5 -23 5 -27 1 -11 31
-10 31 1 0 5 3 17 7 27 4 11 3 15 -5 10 -6 -3 -14 -1 -17 5 -11 17 -8 121 4
152 13 34 13 37 2 37 -4 0 -14 -21 -22 -47z"/>
<path d="M8741 7634 c0 -11 3 -14 6 -6 3 7 2 16 -1 19 -3 4 -6 -2 -5 -13z"/>
<path d="M8184 7542 c-10 -36 -9 -38 13 -40 23 -2 33 21 14 32 -5 3 -7 15 -4
26 3 11 1 20 -4 20 -5 0 -13 -17 -19 -38z"/>
<path d="M8684 7034 c-46 -58 -49 -66 -30 -80 15 -11 18 -35 19 -189 2 -167
-3 -216 -17 -161 -3 13 -13 27 -22 30 -52 20 -93 -103 -107 -326 -3 -43 -8
-82 -12 -88 -3 -5 -2 -10 3 -10 5 0 8 -12 6 -27 -8 -64 1 -267 12 -285 4 -6 8
-24 9 -39 4 -47 36 -117 56 -122 18 -5 48 14 50 31 7 66 26 87 23 27 -1 -25 2
-48 7 -51 5 -3 9 2 9 10 0 8 6 19 13 23 8 4 22 22 32 39 17 31 17 32 -1 52
-19 21 -20 41 -19 612 0 324 0 590 -1 590 0 0 -14 -16 -30 -36z m-29 -497 c14
-62 16 -94 17 -337 1 -249 -4 -334 -24 -358 -18 -22 -54 22 -63 76 -4 26 -9
65 -13 87 -8 56 -8 367 1 442 15 132 61 183 82 90z"/>
<path d="M6683 7020 c-37 -44 -40 -55 -16 -68 14 -8 16 -33 17 -191 1 -170 -4
-214 -18 -157 -7 30 -41 43 -60 24 -15 -15 -46 -114 -51 -163 -2 -16 -4 -30
-5 -30 -7 0 -14 -150 -14 -290 0 -156 4 -218 19 -285 4 -14 8 -36 11 -49 6
-31 42 -81 57 -81 11 0 39 34 43 53 1 4 3 10 4 15 1 4 2 10 1 15 0 4 3 7 8 7
6 0 8 -16 7 -35 -5 -49 7 -51 33 -5 12 22 26 40 30 40 14 0 7 40 -9 50 -13 8
-15 89 -15 600 0 324 -2 590 -5 590 -3 0 -20 -18 -37 -40z m-22 -468 c18 -45
21 -116 21 -382 0 -257 -2 -282 -21 -319 -20 -37 -49 -4 -68 79 -19 78 -23
419 -7 527 12 83 36 139 55 127 6 -3 15 -18 20 -32z"/>
<path d="M6001 7032 c-10 -4 -2 -42 9 -42 24 0 30 -61 29 -355 0 -115 0 -219
0 -230 1 -411 -1 -545 -8 -586 -1 -3 -10 -16 -21 -29 -28 -33 -12 -45 60 -46
56 0 60 1 60 23 0 13 -4 23 -9 23 -11 0 -22 25 -27 60 -7 47 -6 268 0 279 4 6
4 11 -1 11 -10 0 -8 93 1 109 4 6 3 11 -1 11 -5 0 -7 18 -5 40 2 22 8 40 13
40 5 0 9 -1 9 -3 0 -2 9 -44 20 -94 11 -51 23 -109 26 -130 3 -21 8 -41 10
-44 2 -4 6 -24 10 -44 8 -51 12 -74 18 -93 3 -9 7 -28 10 -42 2 -14 9 -52 16
-85 12 -63 14 -64 80 -56 15 2 12 28 -5 55 -16 25 -28 64 -29 104 -1 12 -5 22
-10 22 -4 0 -6 6 -3 14 3 8 3 17 -1 20 -3 4 -7 14 -8 24 -1 9 -4 26 -7 37 -3
11 -12 58 -21 105 -22 117 -24 129 -30 148 -16 54 -16 100 0 113 45 37 68 144
67 309 -2 184 -21 269 -72 314 -16 15 -37 19 -96 20 -41 1 -79 0 -84 -2z m142
-83 c12 -7 23 -12 24 -13 1 -1 9 -30 18 -63 27 -104 22 -313 -9 -386 -13 -32
-59 -77 -78 -77 -9 0 -10 513 -1 537 6 16 18 16 46 2z"/>
<path d="M7618 7019 c-3 -8 6 -27 18 -42 28 -33 26 23 26 -632 0 -264 -3 -493
-6 -510 -3 -16 -12 -35 -21 -41 -8 -6 -15 -19 -15 -28 0 -14 13 -16 91 -16 86
0 92 1 119 29 47 46 64 123 64 296 1 143 -3 196 -19 240 -12 36 -29 70 -42 85
-10 13 -8 25 12 65 14 28 27 78 31 115 3 36 7 74 8 85 1 11 -1 32 -5 47 -4 15
-3 30 2 34 5 3 7 9 5 13 -3 3 -7 34 -11 66 -8 75 -30 143 -56 174 -18 22 -30
25 -109 29 -68 3 -89 1 -92 -9z m165 -84 c32 -31 42 -88 42 -235 0 -117 -4
-154 -18 -192 -12 -30 -25 -48 -35 -49 -9 0 -26 -2 -38 -4 -21 -4 -21 -3 -19
243 1 136 3 248 4 250 5 8 52 -1 64 -13z m-1 -583 c40 -34 53 -99 53 -257 0
-179 -7 -216 -45 -255 -35 -36 -57 -38 -69 -6 -9 23 -14 523 -5 537 6 10 46
-1 66 -19z"/>
<path d="M6887 6635 c-10 -9 -18 -23 -18 -31 -1 -8 -3 -18 -4 -24 -1 -5 -3
-19 -4 -30 0 -11 -5 -20 -11 -20 -5 0 -8 23 -7 50 1 35 -2 50 -10 50 -7 0 -13
-6 -13 -13 0 -8 -11 -24 -25 -37 -25 -23 -34 -65 -16 -72 11 -3 22 -67 21
-119 -1 -66 -1 -85 -1 -184 1 -149 1 -169 0 -212 0 -16 0 -37 0 -48 3 -80 0
-108 -14 -141 -8 -20 -15 -38 -15 -39 0 -7 51 -11 56 -4 2 5 16 4 29 -1 14 -5
26 -7 26 -5 6 21 2 32 -16 46 -19 16 -20 30 -21 309 -1 252 2 315 19 387 6 27
16 23 27 -13 12 -37 13 -37 25 -14 15 27 14 137 -2 163 -9 18 -11 18 -26 2z"/>
<path d="M8232 6643 c-16 -6 -39 -51 -48 -94 -13 -62 -11 -188 3 -193 21 -8
27 14 27 114 1 92 12 130 36 130 20 0 32 -63 34 -180 2 -78 -1 -100 -16 -122
-10 -14 -18 -31 -18 -37 0 -6 -3 -11 -8 -11 -7 0 -15 -15 -47 -94 -15 -35 -28
-103 -29 -148 0 -10 -4 -18 -9 -18 -4 0 -5 -5 -1 -12 4 -6 8 -43 9 -82 2 -78
19 -151 37 -162 17 -11 56 44 63 88 7 39 28 43 24 5 -4 -35 11 -87 25 -87 15
0 32 35 42 84 5 31 4 35 -10 30 -17 -7 -17 -7 -20 51 0 22 -5 46 -9 53 -5 6
-5 12 0 12 9 0 8 470 -1 550 -12 92 -42 137 -84 123z m52 -552 c-1 -128 -5
-187 -15 -210 -21 -47 -49 -38 -57 19 -5 41 -4 173 1 200 10 52 30 110 39 110
4 0 7 3 6 8 -2 6 20 52 25 52 1 0 2 -80 1 -179z"/>
<path d="M8483 6631 c-7 -11 -15 -33 -18 -48 -3 -15 -9 -41 -14 -58 -8 -25
-10 -17 -11 45 -1 62 -3 72 -13 56 -7 -10 -22 -31 -35 -47 -28 -35 -36 -69
-16 -69 17 0 16 4 19 -90 2 -41 4 -75 5 -75 1 0 3 -10 4 -22 2 -13 0 -23 -3
-23 -9 0 -4 -146 4 -161 5 -7 4 -10 -2 -6 -7 4 -8 -7 -3 -33 4 -22 5 -42 2
-44 -2 -3 -5 -61 -6 -129 -1 -106 -4 -126 -20 -142 -18 -18 -18 -19 0 -26 11
-3 29 -3 41 2 13 5 25 4 28 -1 4 -6 14 -6 27 1 20 11 20 11 -2 34 -17 18 -23
38 -26 87 -1 35 -3 65 -5 68 -1 3 0 10 1 15 1 6 3 116 5 245 2 215 7 285 21
300 8 7 34 -31 28 -41 -3 -5 -1 -9 5 -9 16 0 20 14 24 71 4 55 -8 119 -21 119
-4 0 -13 -9 -19 -19z"/>
<path d="M6393 6625 c-51 -36 -81 -196 -82 -440 -2 -292 41 -483 103 -459 31
12 66 114 82 237 3 23 7 53 9 66 3 16 1 21 -5 15 -6 -6 -11 -23 -13 -39 -5
-44 -28 -118 -43 -134 -17 -19 -42 -7 -55 26 -25 64 -49 286 -40 370 1 7 25
11 74 10 l72 -2 -2 80 c-2 71 -6 112 -16 165 -1 8 -6 21 -10 28 -5 6 -6 12 -2
12 8 0 -22 55 -38 68 -10 9 -18 8 -34 -3z m26 -74 c13 -23 22 -78 25 -152 l2
-56 -49 -2 -49 -1 6 73 c7 81 8 91 24 130 13 32 27 35 41 8z"/>
<path d="M7192 6620 c-11 -12 -23 -36 -26 -53 -3 -18 -9 -43 -12 -57 -7 -33
-6 -187 1 -231 10 -61 26 -113 51 -167 13 -29 24 -59 24 -66 0 -8 5 -16 11
-18 15 -5 20 -175 5 -217 -30 -93 -75 -13 -80 146 -3 62 -16 84 -17 27 0 -21
-1 -85 -2 -141 -1 -75 1 -99 9 -92 8 6 17 4 27 -6 35 -35 78 -3 91 67 3 13 5
23 6 23 5 0 9 68 10 147 0 78 -10 159 -27 198 -3 8 -7 17 -7 20 -1 3 -14 34
-31 70 -16 36 -31 72 -33 80 -25 99 -12 240 23 240 19 0 42 -79 47 -162 1 -21
5 -38 8 -38 3 0 5 48 5 106 l-1 105 -31 20 -31 20 -20 -21z"/>
<path d="M7374 6632 c-34 -22 -46 -85 -47 -232 -1 -132 7 -185 39 -257 8 -18
21 -50 30 -70 9 -21 19 -45 24 -54 4 -9 8 -58 8 -110 0 -92 -10 -131 -35 -136
-18 -4 -43 50 -48 105 -2 26 -5 47 -5 47 -1 0 -2 19 -3 43 0 23 -4 42 -7 42
-4 0 -7 -64 -6 -142 0 -79 2 -135 4 -125 4 21 18 22 30 1 7 -12 17 -15 40 -9
29 6 38 19 47 64 2 9 4 16 5 16 16 0 15 286 0 325 -1 3 -3 10 -4 15 -5 32 -30
95 -38 95 -4 0 -8 9 -8 19 0 11 -4 22 -10 26 -43 27 -47 295 -4 295 18 0 37
-28 31 -44 -3 -8 -2 -16 3 -18 5 -2 11 -36 13 -75 6 -113 12 -94 14 38 1 66
-2 117 -6 115 -5 -3 -16 3 -26 14 -20 22 -25 23 -41 12z"/>
<path d="M6997 6612 c-10 -10 -15 -21 -12 -24 3 -3 -1 -20 -9 -39 -8 -19 -17
-52 -20 -74 -3 -22 -9 -62 -13 -90 -9 -64 -10 -343 -1 -415 21 -169 37 -223
68 -240 20 -11 61 15 66 41 2 8 10 39 18 69 24 92 41 210 29 210 -5 0 -9 -8
-9 -17 -2 -67 -36 -163 -60 -170 -18 -6 -43 24 -53 65 -17 64 -21 104 -27 228
l-6 121 73 -1 74 -1 -1 80 c-1 128 -27 246 -58 267 -19 13 -42 9 -59 -10z m64
-154 c7 -48 9 -93 6 -101 -4 -10 -19 -14 -49 -13 l-43 1 0 40 c-1 34 8 103 18
141 2 7 9 19 17 28 23 29 39 -2 51 -96z"/>
<path d="M7998 6608 c-7 -13 -13 -25 -13 -28 -1 -3 -6 -16 -12 -30 -13 -32
-32 -140 -38 -220 -5 -58 -5 -275 -1 -320 16 -160 53 -279 92 -294 19 -7 63
29 68 55 2 8 6 21 9 29 25 67 43 249 41 415 -3 198 -30 351 -72 398 -21 24
-59 22 -74 -5z m49 -40 c4 -7 8 -15 9 -18 0 -3 3 -12 7 -20 26 -68 44 -377 32
-566 -7 -120 -21 -180 -43 -189 -45 -17 -75 157 -76 440 0 208 8 282 37 343
12 25 22 28 34 10z"/>
<path d="M3739 4830 c-1 -3 -2 -170 -2 -373 -2 -361 -2 -367 18 -368 74 -4
2058 -3 2064 1 4 3 7 171 7 375 l-1 369 -1043 1 c-573 0 -1042 -2 -1043 -5z"/>
</g>
</svg>
