<?xml version="1.0" standalone="no"?>
<!DOCTYPE svg PUBLIC "-//W3C//DTD SVG 20010904//EN"
 "http://www.w3.org/TR/2001/REC-SVG-20010904/DTD/svg10.dtd">
<svg version="1.0" xmlns="http://www.w3.org/2000/svg"
 width="1280.000000pt" height="1280.000000pt" viewBox="0 0 1280.000000 1280.000000"
 preserveAspectRatio="xMidYMid meet">
<metadata>
Created by potrace 1.14, written by Peter Selinger 2001-2017
</metadata>
<g transform="translate(0.000000,1280.000000) scale(0.100000,-0.100000)"
fill="#000000" stroke="none">
<path d="M6390 6575 c0 -2211 2 -2495 15 -2495 12 0 15 17 15 93 0 148 1 2009
0 3510 0 1226 -2 1387 -15 1387 -13 0 -15 -284 -15 -2495z"/>
<path d="M4175 8238 c-28 -16 -38 -28 -67 -73 -44 -70 -92 -240 -104 -370 -1
-16 -3 -30 -4 -30 -6 0 -12 -158 -12 -320 0 -178 5 -296 16 -355 2 -14 7 -46
10 -71 28 -204 79 -335 214 -558 149 -244 209 -386 226 -533 3 -27 9 -69 12
-95 14 -106 5 -384 -15 -477 -5 -22 -12 -58 -15 -79 -8 -48 -40 -139 -64 -180
-24 -42 -79 -79 -106 -71 -97 27 -160 180 -210 509 -15 100 -39 352 -45 488
-1 20 -24 18 -32 -3 -4 -12 -5 -975 0 -1002 2 -13 31 -9 32 5 1 6 3 30 4 52 9
116 23 226 29 233 2 2 7 -12 11 -30 13 -64 66 -204 98 -257 41 -68 88 -101
143 -101 35 0 49 6 81 38 47 44 62 69 90 142 51 130 82 296 98 510 10 131 4
467 -11 585 -37 305 -69 391 -265 718 -167 277 -213 431 -213 712 0 140 9 241
29 330 28 121 60 170 120 181 67 12 157 -172 189 -382 3 -22 8 -50 11 -64 13
-74 31 -241 34 -317 1 -21 30 -35 31 -15 1 11 1 794 1 815 -1 9 -8 17 -16 17
-10 0 -15 -11 -16 -37 -2 -57 -6 -103 -14 -158 -4 -27 -8 -56 -8 -62 -1 -24
-10 -3 -37 79 -38 116 -57 155 -88 187 -48 50 -95 63 -137 39z"/>
<path d="M5765 8233 c-58 -24 -120 -95 -170 -198 -40 -82 -87 -221 -101 -298
-2 -17 -7 -33 -9 -37 -2 -3 -7 -29 -11 -56 -3 -27 -8 -52 -10 -56 -2 -3 -7
-28 -9 -55 -3 -26 -7 -57 -10 -69 -8 -36 -19 -126 -30 -239 -4 -33 -8 -76 -10
-95 -27 -227 -27 -995 -1 -1205 2 -16 7 -57 10 -90 8 -74 15 -123 21 -155 3
-14 8 -43 10 -65 3 -22 8 -47 10 -55 2 -8 7 -31 10 -50 3 -19 8 -43 11 -52 3
-9 7 -25 9 -36 17 -93 97 -312 127 -351 10 -13 18 -28 18 -32 0 -5 12 -23 27
-39 99 -111 203 -121 290 -29 46 50 97 151 133 264 18 55 34 107 37 115 7 18
20 -32 28 -110 3 -30 8 -67 11 -82 2 -15 5 -45 6 -67 1 -23 7 -42 15 -45 7 -3
14 -2 14 2 1 4 2 258 3 565 1 510 0 557 -15 557 -12 0 -17 -9 -16 -32 0 -42
-13 -239 -18 -281 -6 -43 -16 -134 -20 -177 -2 -19 -4 -35 -5 -35 -1 0 -3 -16
-6 -35 -2 -19 -9 -60 -15 -90 -6 -30 -12 -65 -12 -77 -1 -13 -5 -23 -10 -23
-4 0 -6 -4 -3 -8 3 -5 0 -26 -6 -48 -7 -21 -12 -41 -13 -44 -1 -3 -5 -18 -10
-35 -25 -89 -129 -233 -170 -236 -8 -1 -21 -2 -27 -3 -19 -3 -69 24 -90 48
-24 28 -73 122 -86 166 -50 169 -80 303 -88 387 -2 25 -6 53 -8 62 -3 9 -8 52
-11 96 -4 44 -8 87 -10 95 -25 95 -25 1094 0 1340 2 19 6 71 10 115 8 97 42
325 57 380 5 22 12 54 15 70 7 46 40 141 68 200 64 129 153 152 233 60 64 -72
137 -251 145 -352 1 -13 5 -23 8 -23 3 0 6 -6 6 -12 1 -13 10 -79 17 -128 8
-49 18 -137 31 -270 4 -43 15 -208 18 -280 1 -19 5 -34 10 -32 4 1 10 2 15 2
4 0 6 105 5 233 -1 127 -2 399 -3 604 0 205 -4 374 -8 377 -15 9 -27 -10 -28
-44 -3 -120 -24 -323 -35 -334 -6 -6 -9 -3 -9 8 0 28 -49 165 -87 241 -80 159
-162 216 -258 178z"/>
<path d="M4735 8215 c-44 -8 -89 -17 -100 -19 -11 -3 -29 -5 -41 -5 -18 -1
-20 -7 -20 -58 1 -55 2 -56 31 -60 61 -8 83 -42 96 -143 6 -56 5 -2629 -2
-2685 -14 -117 -47 -165 -112 -165 -20 0 -22 -5 -21 -47 1 -27 2 -51 3 -55 1
-5 97 -8 215 -8 l213 0 2 50 c1 54 -5 61 -56 65 -45 3 -62 21 -81 87 -12 44
-15 163 -19 701 l-4 648 33 -3 c27 -2 36 -10 51 -41 18 -36 51 -158 73 -267 3
-14 11 -50 19 -80 7 -30 16 -68 18 -85 3 -16 14 -75 26 -130 11 -55 22 -111
25 -125 24 -127 89 -437 101 -485 9 -33 17 -72 20 -87 2 -15 9 -46 16 -70 7
-24 14 -50 15 -60 2 -9 13 -40 24 -70 l20 -53 102 1 c57 1 110 2 118 3 12 1
16 14 17 51 2 46 0 51 -27 65 -47 24 -79 74 -126 200 -4 11 -8 25 -9 30 -2 6
-10 37 -19 70 -9 33 -19 71 -22 85 -3 14 -13 57 -23 95 -17 61 -30 121 -46
203 -2 13 -6 31 -9 40 -3 9 -7 28 -10 42 -2 14 -12 61 -21 105 -22 106 -21
101 -39 176 -8 37 -17 78 -20 91 -2 14 -16 69 -31 124 -15 54 -28 104 -29 109
-15 55 -21 74 -32 96 -12 24 -10 27 36 67 42 36 107 130 114 165 2 7 6 19 9
27 29 73 66 264 74 390 11 159 5 413 -11 495 -2 11 -7 42 -11 70 -4 27 -18 87
-31 133 -48 164 -109 258 -198 305 -52 27 -188 32 -301 12z m268 -140 c20 -14
43 -37 52 -51 19 -30 52 -128 60 -182 3 -21 7 -48 10 -61 20 -104 28 -554 12
-716 -16 -179 -46 -290 -93 -352 -42 -56 -61 -64 -171 -78 l-31 -4 0 732 c0
502 3 734 10 738 6 4 35 6 64 4 39 -2 62 -10 87 -30z"/>
<path d="M6603 8188 c-25 -31 -35 -94 -31 -187 3 -83 8 -106 33 -156 16 -33
33 -62 36 -65 31 -24 45 -202 19 -250 -14 -27 -46 -25 -55 3 -4 14 -8 17 -12
9 -6 -16 23 -62 41 -62 42 0 65 87 61 230 -3 85 -7 107 -31 152 -15 29 -37 71
-48 93 -27 52 -32 172 -10 204 26 36 49 2 60 -87 3 -32 14 -41 15 -14 3 77 1
103 -6 110 -5 4 -5 1 -1 -5 4 -7 2 -13 -4 -13 -6 0 -14 8 -17 18 -12 31 -34
40 -50 20z"/>
<path d="M7787 8185 c-9 -7 -17 -17 -17 -24 0 -6 -4 -11 -9 -11 -8 0 -27 -82
-39 -165 -6 -45 -5 -284 1 -330 7 -54 37 -143 53 -159 30 -31 72 -11 88 41 4
12 12 20 19 17 9 -3 11 19 9 83 -3 109 -3 113 -14 107 -4 -3 -4 -13 2 -23 5
-10 8 -20 6 -22 -2 -2 -7 -29 -10 -59 -9 -74 -34 -130 -58 -130 -19 0 -50 55
-52 95 -1 11 -4 25 -8 30 -12 20 -1 418 14 469 16 56 38 77 59 55 30 -31 41
-68 48 -161 1 -5 4 -8 9 -8 14 0 4 121 -12 133 -8 7 -19 24 -25 38 -11 31 -40
41 -64 24z"/>
<path d="M6713 8177 c-3 -5 1 -13 8 -18 21 -13 24 -604 3 -636 -8 -12 -14 -25
-14 -28 0 -3 36 -5 80 -5 l80 0 1 28 c4 98 3 184 -1 187 -3 2 -7 -8 -8 -23 -5
-89 -15 -135 -33 -153 -46 -46 -58 -17 -61 159 -2 113 0 153 9 156 15 6 45
-22 38 -35 -4 -5 -2 -16 2 -24 6 -9 9 16 9 64 -1 44 -4 77 -9 74 -5 -3 -6 -7
-3 -10 9 -9 -14 -43 -29 -43 -16 0 -17 14 -17 192 0 98 4 108 32 101 29 -8 40
-32 43 -100 4 -68 13 -38 12 40 l-1 82 -67 1 c-38 0 -71 -4 -74 -9z"/>
<path d="M6913 8182 c-23 -3 -31 -18 -13 -24 10 -3 17 -33 20 -78 1 -22 2 -23
9 -6 5 14 11 2 19 -45 6 -35 17 -86 22 -114 6 -27 13 -61 16 -75 2 -14 9 -45
14 -70 6 -25 13 -56 15 -70 3 -14 8 -38 11 -55 3 -16 7 -34 8 -40 1 -5 8 -36
15 -67 7 -32 14 -58 17 -58 2 0 4 51 3 113 0 63 -4 103 -8 92 -6 -15 -9 -12
-14 20 -12 76 -18 110 -28 148 -6 21 -12 54 -15 74 -2 19 -6 38 -9 42 -2 4 -7
23 -10 42 -3 19 -11 54 -16 79 -6 25 -12 54 -15 64 -5 26 -15 33 -41 28z"/>
<path d="M7030 8178 c0 -5 7 -16 15 -24 10 -10 16 -37 17 -77 l1 -62 6 61 c3
34 12 68 19 77 8 9 11 21 8 26 -8 12 -66 11 -66 -1z"/>
<path d="M7110 8133 c0 -56 11 -66 18 -15 5 36 19 51 43 45 19 -5 19 -14 19
-314 -1 -303 -1 -310 -22 -329 -24 -22 -23 -22 40 -25 44 -2 52 7 27 31 -13
13 -15 63 -15 325 l0 310 28 -3 c15 -2 28 -9 28 -15 1 -7 3 -16 4 -20 5 -14 8
-28 9 -50 0 -13 4 -23 9 -23 9 0 7 114 -2 129 -4 7 -43 11 -97 11 l-89 0 0
-57z"/>
<path d="M7320 8185 c0 -2 6 -18 13 -36 10 -26 13 -105 12 -327 -1 -271 -3
-293 -20 -306 -10 -7 -14 -16 -9 -19 13 -8 143 -12 150 -4 3 3 8 23 11 44 2
21 6 43 8 50 2 7 0 15 -5 18 -6 4 -7 13 -1 23 5 9 5 26 0 37 l-8 20 -1 -20
c-6 -83 -26 -142 -49 -148 -41 -10 -45 4 -45 169 -1 142 1 157 17 160 11 1 19
-6 23 -24 11 -51 12 -47 12 33 0 44 -3 70 -5 58 -5 -25 -28 -47 -41 -39 -4 2
-8 67 -8 143 1 130 2 138 21 141 37 4 49 -14 55 -83 2 -14 4 -11 9 10 4 17 3
35 -1 42 -5 6 -5 14 2 18 6 4 7 12 1 23 -7 13 -25 17 -75 18 -36 0 -66 0 -66
-1z"/>
<path d="M7506 8180 c-16 -5 -16 -7 -2 -19 9 -7 16 -24 16 -38 0 -17 4 -22 13
-17 8 5 7 2 -2 -9 -8 -10 -11 -20 -7 -24 3 -3 6 0 6 8 1 25 17 -12 25 -56 10
-55 14 -76 21 -105 5 -22 13 -68 18 -95 1 -5 5 -16 9 -22 5 -7 6 -13 3 -13 -2
0 2 -28 11 -62 8 -35 16 -74 18 -88 14 -85 36 -161 46 -154 4 2 5 12 2 20 -3
8 -6 43 -7 77 -1 34 -5 67 -9 74 -4 6 -3 14 3 18 5 3 10 12 10 18 0 8 -3 8 -9
-1 -6 -9 -14 10 -25 59 -9 40 -14 74 -11 77 3 3 1 10 -5 17 -5 6 -12 31 -15
54 -3 24 -7 46 -10 50 -2 4 -7 23 -10 42 -4 28 -10 56 -20 99 -1 3 -5 24 -9
47 -8 43 -25 56 -60 43z"/>
<path d="M7640 8175 c0 -7 7 -18 15 -25 9 -7 14 -19 11 -27 -3 -7 -2 -13 3
-13 5 0 12 11 15 25 4 14 11 25 16 25 6 0 10 6 10 13 0 9 -12 14 -35 14 -21 0
-35 -5 -35 -12z"/>
<path d="M7916 8183 c-2 -2 2 -16 9 -31 19 -40 19 -586 -1 -626 -8 -16 -14
-31 -14 -33 0 -1 36 -3 80 -3 l80 0 1 35 c4 125 3 177 -1 180 -4 2 -7 -13 -8
-33 -8 -133 -32 -178 -79 -149 -10 6 -13 50 -13 161 0 84 3 156 6 159 10 9 46
-12 39 -24 -4 -5 -2 -9 2 -9 5 0 9 25 9 55 -1 30 -2 55 -4 55 -1 0 -7 -11 -12
-25 -9 -23 -39 -36 -41 -17 -1 10 -1 254 0 270 1 14 47 16 56 2 10 -16 17 -52
19 -92 0 -20 4 -34 7 -32 4 2 6 39 5 81 l-2 78 -67 1 c-37 0 -69 -1 -71 -3z"/>
<path d="M7887 8163 c-10 -9 -9 -33 1 -33 4 0 8 9 8 20 0 23 0 22 -9 13z"/>
<path d="M7671 8084 c0 -11 3 -14 6 -6 3 7 2 16 -1 19 -3 4 -6 -2 -5 -13z"/>
<path d="M7110 8060 c0 -5 5 -10 11 -10 5 0 7 5 4 10 -3 6 -8 10 -11 10 -2 0
-4 -4 -4 -10z"/>
<path d="M6915 8041 c-3 -5 -1 -12 5 -16 5 -3 10 1 10 9 0 18 -6 21 -15 7z"/>
<path d="M7450 8043 c0 -5 5 -15 10 -23 7 -12 9 -10 7 8 -1 19 -17 33 -17 15z"/>
<path d="M6670 8020 c0 -5 5 -10 11 -10 5 0 7 5 4 10 -3 6 -8 10 -11 10 -2 0
-4 -4 -4 -10z"/>
<path d="M7523 8004 c0 -17 2 -22 7 -13 5 6 6 18 3 26 -8 19 -10 16 -10 -13z"/>
<path d="M7062 7970 c0 -14 2 -19 5 -12 2 6 2 18 0 25 -3 6 -5 1 -5 -13z"/>
<path d="M7671 7964 c0 -11 3 -14 6 -6 3 7 2 16 -1 19 -3 4 -6 -2 -5 -13z"/>
<path d="M7881 7964 c0 -11 3 -14 6 -6 3 7 2 16 -1 19 -3 4 -6 -2 -5 -13z"/>
<path d="M7421 7954 c0 -11 3 -14 6 -6 3 7 2 16 -1 19 -3 4 -6 -2 -5 -13z"/>
<path d="M6923 7915 c0 -22 2 -30 4 -17 2 12 2 30 0 40 -3 9 -5 -1 -4 -23z"/>
<path d="M8015 7940 c-3 -5 -1 -10 4 -10 6 0 11 5 11 10 0 6 -2 10 -4 10 -3 0
-8 -4 -11 -10z"/>
<path d="M7062 7910 c0 -19 2 -27 5 -17 2 9 2 25 0 35 -3 9 -5 1 -5 -18z"/>
<path d="M7527 7915 c-4 -8 -3 -16 1 -19 4 -3 9 4 9 15 2 23 -3 25 -10 4z"/>
<path d="M7062 7850 c0 -14 2 -19 5 -12 2 6 2 18 0 25 -3 6 -5 1 -5 -13z"/>
<path d="M7665 7840 c3 -5 8 -10 11 -10 2 0 4 5 4 10 0 6 -5 10 -11 10 -5 0
-7 -4 -4 -10z"/>
<path d="M6921 7824 c0 -11 3 -14 6 -6 3 7 2 16 -1 19 -3 4 -6 -2 -5 -13z"/>
<path d="M7062 7790 c0 -19 2 -27 5 -17 2 9 2 25 0 35 -3 9 -5 1 -5 -18z"/>
<path d="M7667 7807 c-3 -8 -2 -20 3 -26 5 -9 8 -4 8 13 0 29 -3 32 -11 13z"/>
<path d="M8013 7785 c0 -8 4 -12 9 -9 5 3 6 10 3 15 -9 13 -12 11 -12 -6z"/>
<path d="M6922 7750 c0 -14 2 -19 5 -12 2 6 2 18 0 25 -3 6 -5 1 -5 -13z"/>
<path d="M7420 7761 c0 -6 4 -13 10 -16 6 -3 7 1 4 9 -7 18 -14 21 -14 7z"/>
<path d="M7525 7760 c3 -5 8 -10 11 -10 2 0 4 5 4 10 0 6 -5 10 -11 10 -5 0
-7 -4 -4 -10z"/>
<path d="M7062 7730 c0 -14 2 -19 5 -12 2 6 2 18 0 25 -3 6 -5 1 -5 -13z"/>
<path d="M6565 7610 c0 -86 1 -89 17 -68 9 12 14 26 12 30 -3 5 -7 31 -9 59
-6 88 -20 72 -20 -21z"/>
<path d="M6923 7660 c0 -25 2 -35 4 -22 2 12 2 32 0 45 -2 12 -4 2 -4 -23z"/>
<path d="M7524 7686 c1 -8 5 -18 8 -22 4 -3 5 1 4 10 -1 8 -5 18 -8 22 -4 3
-5 -1 -4 -10z"/>
<path d="M7524 7594 c0 -41 -5 -58 -20 -69 -16 -13 -17 -16 -4 -25 15 -9 57
-7 68 5 3 3 -2 11 -12 18 -11 8 -18 29 -20 65 -4 70 -12 74 -12 6z"/>
<path d="M6921 7595 c-5 -42 -10 -58 -20 -68 -22 -22 -12 -36 24 -34 37 2 45
16 21 37 -8 6 -17 28 -19 48 -2 20 -5 28 -6 17z"/>
<path d="M7885 7531 c-3 -5 -2 -12 3 -15 5 -3 9 1 9 9 0 17 -3 19 -12 6z"/>
<path d="M6598 6930 c-15 -5 -29 -5 -32 -2 -3 3 -6 0 -6 -6 0 -6 7 -17 15 -25
21 -22 18 -623 -4 -636 -23 -14 -4 -28 34 -26 45 3 52 10 32 30 -13 13 -16 41
-16 155 0 77 4 140 9 140 10 0 25 -60 45 -180 2 -14 5 -27 26 -112 l10 -37
112 2 112 2 2 110 c1 97 0 103 -7 52 -15 -96 -29 -134 -49 -140 -42 -11 -46 4
-47 168 -1 88 2 158 7 161 17 10 37 -16 35 -47 -1 -17 1 -32 4 -34 3 -2 7 27
7 65 1 38 4 74 8 79 3 7 0 8 -9 5 -9 -3 -15 -9 -14 -12 2 -20 -4 -28 -21 -29
-18 -2 -19 7 -16 140 1 78 3 145 3 148 1 3 13 4 26 2 28 -6 36 -20 43 -83 8
-74 14 -60 11 25 l-3 80 -63 1 c-66 1 -82 -7 -62 -31 7 -8 10 -29 8 -45 -3
-17 -1 -33 3 -36 5 -2 4 -15 -1 -28 -4 -12 -4 -29 0 -36 5 -9 4 -20 -2 -27 -6
-7 -7 -13 -2 -13 11 0 11 -130 1 -147 -5 -7 -5 -13 0 -13 7 0 8 -96 4 -256 -2
-56 -54 -56 -67 -1 -4 18 -9 37 -10 42 -2 6 -15 59 -29 119 -14 60 -27 111
-30 114 -2 2 5 13 15 25 32 33 39 93 29 247 -1 21 -28 78 -39 85 -17 11 -44
12 -72 5z m72 -54 c12 -37 16 -170 6 -226 -5 -32 -28 -60 -48 -60 -4 0 -8 72
-8 160 0 151 1 160 19 160 13 0 23 -11 31 -34z"/>
<path d="M6945 6920 c-3 -4 2 -21 10 -36 8 -16 15 -43 15 -60 0 -17 4 -55 10
-85 5 -30 12 -76 14 -104 2 -27 5 -50 5 -50 1 0 4 -25 6 -55 3 -30 7 -70 10
-87 3 -18 7 -54 11 -80 3 -27 7 -61 9 -78 2 -16 4 -38 4 -47 2 -31 17 -19 19
15 1 17 5 45 8 60 3 17 0 34 -8 44 -7 9 -8 14 -3 11 16 -10 32 34 23 62 -7 24
-8 24 -4 -2 2 -16 -3 -33 -10 -39 -11 -9 -14 -4 -15 27 0 22 -3 48 -5 59 -2
11 -6 45 -9 75 -3 30 -7 66 -9 80 -3 14 -7 48 -10 75 -12 115 -18 160 -22 164
-2 2 6 12 17 22 15 13 17 19 7 25 -18 11 -67 14 -73 4z"/>
<path d="M7094 6919 c-2 -4 2 -19 10 -34 8 -15 13 -36 11 -46 -2 -11 0 -19 6
-19 5 0 9 10 9 23 1 36 23 68 40 57 13 -8 15 -56 17 -315 2 -300 1 -306 -20
-325 -11 -11 -17 -20 -11 -21 76 -9 117 3 80 23 -14 8 -16 42 -16 312 0 250 3
306 15 322 8 10 15 21 15 24 0 8 -151 6 -156 -1z"/>
<path d="M7270 6916 c0 -7 5 -17 12 -24 9 -9 12 -95 12 -318 0 -278 -2 -307
-17 -316 -33 -18 -6 -28 74 -28 l79 0 0 95 c0 52 -4 95 -8 95 -4 0 -7 -12 -6
-27 1 -42 -15 -106 -33 -125 -18 -21 -22 -21 -43 -8 -20 13 -25 330 -5 330 18
0 33 -21 38 -55 2 -16 4 15 4 70 0 55 -2 81 -4 58 -3 -29 -9 -43 -19 -43 -8 0
-17 -1 -21 -2 -5 -2 -8 61 -9 140 l-1 142 27 0 c22 0 30 -6 36 -27 10 -35 11
-43 13 -70 0 -13 4 -23 9 -23 9 0 3 140 -6 141 -51 8 -132 5 -132 -5z"/>
<path d="M7430 6918 c0 -5 4 -17 9 -26 8 -15 17 -83 26 -207 11 -132 16 -194
20 -225 2 -19 7 -72 10 -118 8 -100 10 -110 16 -116 5 -6 7 4 13 114 2 41 7
83 11 93 4 10 5 21 1 24 -3 4 -6 -1 -6 -10 0 -26 -16 -20 -17 6 0 23 -10 144
-18 237 -15 152 -14 195 2 212 9 10 12 19 7 19 -41 7 -74 6 -74 -3z"/>
<path d="M7655 6919 c-3 -5 -1 -17 5 -28 5 -11 10 -36 10 -57 0 -46 6 -42 14
10 4 22 11 45 17 52 7 8 6 15 -3 20 -19 12 -37 13 -43 3z"/>
<path d="M7568 6894 c-4 -85 -7 -117 -12 -122 -3 -3 -1 -10 4 -17 10 -12 16
-45 26 -160 3 -38 7 -88 9 -110 2 -22 7 -67 11 -100 11 -93 11 -98 13 -135 2
-28 4 -31 10 -15 5 11 8 32 7 48 -1 15 1 27 4 27 8 0 5 74 -4 88 -3 6 -2 13 4
17 5 3 10 12 10 18 0 7 -4 6 -10 -3 -8 -12 -10 -10 -11 10 -6 79 -9 119 -14
148 -2 18 -7 59 -10 90 -3 31 -7 75 -10 97 -3 22 -7 62 -9 88 -4 55 -15 74
-18 31z"/>
<path d="M7110 6799 c0 -5 5 -7 10 -4 6 3 10 8 10 11 0 2 -4 4 -10 4 -5 0 -10
-5 -10 -11z"/>
<path d="M7671 6774 c0 -11 3 -14 6 -6 3 7 2 16 -1 19 -3 4 -6 -2 -5 -13z"/>
<path d="M7110 6743 c-3 -23 -2 -39 3 -34 5 5 7 24 5 42 -3 33 -4 33 -8 -8z"/>
<path d="M7661 6734 c0 -11 3 -14 6 -6 3 7 2 16 -1 19 -3 4 -6 -2 -5 -13z"/>
<path d="M6876 6707 c3 -10 9 -15 12 -12 3 3 0 11 -7 18 -10 9 -11 8 -5 -6z"/>
<path d="M7662 6685 c0 -16 2 -22 5 -12 2 9 2 23 0 30 -3 6 -5 -1 -5 -18z"/>
<path d="M7551 6684 c0 -11 3 -14 6 -6 3 7 2 16 -1 19 -3 4 -6 -2 -5 -13z"/>
<path d="M7101 6674 c0 -11 3 -14 6 -6 3 7 2 16 -1 19 -3 4 -6 -2 -5 -13z"/>
<path d="M7551 6644 c0 -11 3 -14 6 -6 3 7 2 16 -1 19 -3 4 -6 -2 -5 -13z"/>
<path d="M7092 6600 c0 -14 2 -19 5 -12 2 6 2 18 0 25 -3 6 -5 1 -5 -13z"/>
<path d="M7538 6567 c-3 -19 -2 -25 4 -19 6 6 8 18 6 28 -3 14 -5 12 -10 -9z"/>
<path d="M7086 6553 c-6 -14 -5 -15 5 -6 7 7 10 15 7 18 -3 3 -9 -2 -12 -12z"/>
<path d="M7652 6550 c0 -14 2 -19 5 -12 2 6 2 18 0 25 -3 6 -5 1 -5 -13z"/>
<path d="M7076 6494 c-4 -9 -4 -19 -1 -22 2 -3 7 3 11 12 4 9 4 19 1 22 -2 3
-7 -3 -11 -12z"/>
<path d="M7532 6490 c0 -14 2 -19 5 -12 2 6 2 18 0 25 -3 6 -5 1 -5 -13z"/>
<path d="M7640 6501 c0 -6 4 -13 10 -16 6 -3 7 1 4 9 -7 18 -14 21 -14 7z"/>
<path d="M6635 5664 c-43 -44 -73 -205 -68 -379 4 -172 28 -282 70 -315 31
-24 49 -17 69 30 9 21 22 36 28 34 7 -3 11 19 11 66 0 38 -3 70 -7 70 -5 0 -8
-8 -9 -17 0 -10 -2 -25 -4 -33 -1 -8 -5 -32 -9 -53 -8 -47 -33 -87 -51 -81
-20 8 -44 65 -52 126 -10 69 -10 337 0 411 4 32 11 67 17 77 6 11 8 20 4 20
-3 0 -1 7 6 15 36 43 74 -14 89 -133 9 -72 13 -55 15 70 0 43 -2 78 -6 78 -5
0 -8 -15 -9 -32 l-1 -33 -18 39 c-26 56 -47 67 -75 40z"/>
<path d="M6825 5642 c-66 -100 -77 -429 -19 -603 32 -98 89 -105 129 -16 31
68 36 104 40 272 5 191 -19 318 -70 369 -27 26 -53 19 -80 -22z m87 -32 c28
-57 41 -301 25 -471 -12 -128 -47 -184 -88 -140 -31 33 -46 152 -44 337 2 177
8 227 31 282 18 45 52 41 76 -8z"/>
<path d="M6980 5664 c0 -7 6 -14 13 -16 7 -3 12 -25 12 -60 0 -45 3 -54 15
-50 13 5 13 3 2 -10 -7 -9 -9 -18 -3 -20 5 -1 12 -23 14 -48 3 -25 11 -83 17
-130 6 -47 12 -101 15 -120 2 -19 7 -53 9 -75 3 -22 8 -60 12 -85 4 -25 7 -51
7 -58 0 -7 4 -9 9 -4 9 9 13 137 4 172 -6 23 -10 56 -20 140 -10 80 -17 137
-21 165 -3 17 -7 53 -10 80 -9 78 -15 118 -20 124 -11 10 -55 6 -55 -5z"/>
<path d="M7656 5658 c-18 -30 -28 -88 -27 -163 1 -90 7 -112 58 -211 42 -85
46 -97 45 -165 0 -87 -14 -132 -39 -127 -24 5 -40 42 -48 113 -11 93 -20 84
-20 -21 0 -51 3 -94 7 -94 5 0 7 3 7 8 -1 4 -1 16 0 27 2 14 6 10 14 -14 16
-46 40 -60 65 -38 10 9 19 23 20 30 8 59 16 87 23 87 5 0 7 -14 5 -32 -2 -18
0 -41 5 -53 9 -19 9 -19 5 3 -2 13 0 20 6 16 17 -11 -2 156 -20 180 -5 6 -10
27 -10 46 0 20 -21 73 -50 130 -42 84 -49 106 -51 163 -2 69 10 107 33 107 8
0 17 -8 21 -17 8 -18 9 -25 24 -103 9 -49 11 -43 14 37 2 44 -1 53 -18 57 -10
3 -16 8 -12 12 8 8 -21 44 -34 44 -5 0 -15 -10 -23 -22z m112 -530 c3 -32 -10
-32 -14 -1 -3 15 3 33 9 33 2 0 4 -14 5 -32z"/>
<path d="M7802 5667 c-29 -35 -43 -170 -27 -257 5 -25 9 -47 10 -50 0 -3 7
-16 14 -30 57 -103 71 -132 66 -140 -3 -5 -2 -11 3 -14 11 -7 6 -125 -7 -159
-11 -29 -51 -38 -51 -12 0 8 -4 15 -10 15 -17 0 -11 -20 13 -45 28 -31 43 -22
66 41 14 38 17 73 16 156 l-2 108 -52 101 c-44 88 -51 110 -51 160 0 111 45
152 65 59 10 -48 18 -97 17 -103 -2 -5 1 -6 6 -3 8 5 7 85 -2 93 -2 2 0 19 5
36 7 28 7 30 -5 14 -13 -17 -14 -17 -19 2 -7 26 -42 45 -55 28z"/>
<path d="M8062 5653 c-43 -61 -64 -178 -62 -343 2 -226 43 -350 114 -350 31 0
69 79 84 175 8 47 7 337 -1 381 -17 99 -56 164 -96 164 -11 0 -28 -12 -39 -27z
m78 -33 c10 -19 19 -57 27 -115 7 -57 8 -309 0 -380 -6 -61 -29 -129 -46 -140
-17 -10 -51 18 -60 50 -31 99 -35 417 -7 550 3 11 5 23 5 28 1 4 10 16 22 28
22 22 39 16 59 -21z"/>
<path d="M8614 5668 c-3 -4 1 -18 9 -30 20 -32 19 -629 0 -636 -7 -2 -13 -10
-13 -19 0 -11 10 -14 38 -12 51 4 56 8 37 29 -14 16 -17 41 -17 137 0 65 0
128 1 141 2 42 18 22 30 -40 6 -35 14 -74 17 -88 25 -122 35 -163 40 -171 9
-15 51 -10 64 7 8 8 9 14 4 13 -33 -6 -38 5 -83 198 -23 102 -26 125 -15 134
53 44 48 287 -7 332 -21 17 -95 21 -105 5z m99 -50 c18 -37 21 -202 5 -248 -9
-27 -32 -45 -47 -36 -5 3 -7 278 -2 309 3 19 30 4 44 -25z"/>
<path d="M8846 5658 c-8 -13 -18 -50 -21 -83 -14 -124 -3 -183 51 -289 39 -75
47 -100 49 -153 1 -34 0 -61 -4 -59 -3 2 -6 -11 -7 -30 0 -19 -7 -42 -16 -50
-14 -14 -17 -14 -32 1 -9 9 -17 25 -17 36 -2 21 -5 38 -9 42 -1 1 -3 14 -4 29
-1 15 -5 30 -9 34 -8 8 -8 8 -10 -69 -2 -45 1 -57 13 -57 8 0 20 -10 25 -22
14 -32 48 -35 64 -5 17 32 22 66 25 172 3 101 -7 154 -39 205 -49 78 -60 113
-58 185 2 97 4 105 23 105 25 0 42 -47 51 -140 1 -14 5 2 8 35 7 67 3 95 -9
74 -6 -8 -9 -5 -12 11 -1 12 -13 29 -25 37 -20 13 -23 12 -37 -9z"/>
<path d="M7176 5627 c-11 -85 -12 -117 -4 -117 4 0 8 -7 8 -16 0 -8 -4 -13 -9
-9 -5 3 -13 1 -16 -5 -4 -6 -1 -9 7 -8 10 2 13 -39 13 -207 1 -243 -1 -265
-23 -265 -31 0 5 -22 42 -25 42 -5 53 8 29 32 -17 17 -18 43 -17 317 1 266 3
300 17 311 26 18 20 32 -12 33 -28 1 -30 -2 -35 -41z"/>
<path d="M7250 5665 c0 -4 7 -14 16 -22 10 -10 14 -28 12 -49 -2 -18 0 -30 4
-28 4 3 9 -2 9 -10 1 -9 2 -19 3 -23 2 -5 6 -35 10 -68 4 -33 9 -76 12 -95 3
-19 7 -55 10 -80 2 -25 6 -58 9 -75 2 -16 7 -57 11 -90 4 -33 8 -67 10 -75 1
-8 3 -25 3 -37 1 -13 5 -23 9 -23 14 0 20 102 9 160 -4 19 -9 55 -12 80 -2 25
-6 56 -9 69 -3 14 -8 54 -11 90 -3 35 -7 74 -10 85 -4 22 -16 123 -19 166 -2
20 -8 26 -34 28 -18 2 -32 0 -32 -3z"/>
<path d="M7451 5647 c-5 -13 -8 -38 -7 -55 1 -18 -3 -32 -8 -32 -7 0 -8 -3 -1
-8 15 -11 19 -46 4 -36 -7 4 -10 3 -5 -4 3 -5 3 -12 -1 -15 -5 -2 -2 -2 4 -1
19 5 15 -472 -4 -487 -25 -21 -14 -34 32 -35 29 0 45 4 45 12 0 6 -6 14 -14
17 -16 6 -29 47 -14 47 5 0 6 5 3 10 -9 14 -9 155 -1 169 4 6 4 11 -1 11 -7 0
-9 186 -3 215 1 6 2 13 1 17 -6 48 -8 97 -2 94 3 -2 6 11 5 31 -1 21 3 36 12
40 23 9 16 28 -11 31 -19 1 -28 -5 -34 -21z"/>
<path d="M7526 5662 c-3 -3 2 -11 11 -17 15 -11 17 -43 17 -318 0 -284 -2
-308 -19 -327 -14 -15 -15 -20 -4 -21 8 -1 29 -2 47 -4 32 -3 47 18 20 27 -10
4 -13 77 -13 316 1 298 2 312 20 327 11 8 18 15 15 16 -14 5 -90 6 -94 1z"/>
<path d="M7910 5661 c0 -3 6 -13 13 -22 9 -12 12 -95 12 -317 0 -280 -1 -302
-19 -321 -11 -12 -15 -21 -10 -22 59 -5 80 -4 86 4 4 6 -1 16 -9 22 -14 11
-16 50 -16 314 0 270 2 303 17 320 10 11 13 22 8 25 -12 7 -82 5 -82 -3z"/>
<path d="M8217 5664 c-3 -4 1 -17 9 -30 9 -13 13 -28 9 -34 -3 -5 -1 -10 6
-10 7 0 9 -3 6 -7 -4 -3 -2 -12 4 -19 5 -7 12 -25 15 -41 2 -15 15 -77 29
-138 25 -115 51 -241 59 -287 3 -15 7 -31 10 -36 2 -4 7 -28 10 -51 6 -52 16
-66 17 -25 0 16 1 56 2 88 2 33 -3 70 -10 83 -6 12 -14 38 -17 55 -5 29 -10
54 -32 158 -2 14 -7 32 -9 40 -2 8 -7 31 -10 50 -3 19 -10 51 -15 70 -5 19
-12 51 -15 70 -10 60 -15 70 -39 70 -12 0 -25 -3 -29 -6z"/>
<path d="M8350 5656 c0 -8 7 -16 15 -20 9 -3 15 -18 15 -36 0 -16 4 -30 9 -30
4 0 7 11 6 25 -2 14 1 27 6 31 5 3 14 14 19 25 10 17 7 19 -30 19 -27 0 -40
-4 -40 -14z"/>
<path d="M8440 5657 c0 -7 5 -18 10 -23 12 -12 18 -233 6 -252 -4 -6 -4 -12 1
-12 7 0 8 -94 4 -322 -1 -20 -8 -44 -17 -52 -22 -22 -4 -28 82 -24 l69 3 3
105 c3 107 -3 133 -12 45 -10 -103 -50 -160 -79 -113 -22 34 -21 307 0 315 19
7 34 -16 27 -39 -3 -10 -1 -18 4 -18 5 0 9 44 9 97 0 53 -4 88 -8 77 -3 -10
-5 -31 -3 -46 2 -19 -3 -31 -16 -38 -10 -6 -21 -7 -23 -3 -3 5 -5 72 -6 149
-1 153 -3 146 50 135 7 -1 27 -71 33 -116 2 -16 3 8 2 55 l-1 85 -67 3 c-52 2
-68 0 -68 -11z"/>
<path d="M8382 5540 c0 -14 2 -19 5 -12 2 6 2 18 0 25 -3 6 -5 1 -5 -13z"/>
<path d="M8241 5514 c0 -11 3 -14 6 -6 3 7 2 16 -1 19 -3 4 -6 -2 -5 -13z"/>
<path d="M7275 5510 c-3 -5 -1 -10 4 -10 6 0 11 5 11 10 0 6 -2 10 -4 10 -3 0
-8 -4 -11 -10z"/>
<path d="M8380 5500 c0 -5 5 -10 11 -10 5 0 7 5 4 10 -3 6 -8 10 -11 10 -2 0
-4 -4 -4 -10z"/>
<path d="M7005 5491 c-3 -5 -2 -12 3 -15 5 -3 9 1 9 9 0 17 -3 19 -12 6z"/>
<path d="M7280 5445 c0 -8 4 -15 10 -15 5 0 7 7 4 15 -4 8 -8 15 -10 15 -2 0
-4 -7 -4 -15z"/>
<path d="M8242 5440 c0 -14 2 -19 5 -12 2 6 2 18 0 25 -3 6 -5 1 -5 -13z"/>
<path d="M6730 5419 c0 -5 5 -7 10 -4 6 3 10 8 10 11 0 2 -4 4 -10 4 -5 0 -10
-5 -10 -11z"/>
<path d="M8383 5395 c0 -22 2 -30 4 -17 2 12 2 30 0 40 -3 9 -5 -1 -4 -23z"/>
<path d="M7011 5404 c0 -11 3 -14 6 -6 3 7 2 16 -1 19 -3 4 -6 -2 -5 -13z"/>
<path d="M8241 5394 c0 -11 3 -14 6 -6 3 7 2 16 -1 19 -3 4 -6 -2 -5 -13z"/>
<path d="M7275 5380 c-3 -5 -1 -10 4 -10 6 0 11 5 11 10 0 6 -2 10 -4 10 -3 0
-8 -4 -11 -10z"/>
<path d="M7005 5371 c-6 -11 13 -26 22 -17 4 3 1 6 -6 6 -7 0 -9 5 -6 10 3 6
4 10 1 10 -3 0 -7 -4 -11 -9z"/>
<path d="M8241 5354 c0 -11 3 -14 6 -6 3 7 2 16 -1 19 -3 4 -6 -2 -5 -13z"/>
<path d="M8380 5340 c0 -5 5 -10 11 -10 5 0 7 5 4 10 -3 6 -8 10 -11 10 -2 0
-4 -4 -4 -10z"/>
<path d="M7136 5327 c3 -10 9 -15 12 -12 3 3 0 11 -7 18 -10 9 -11 8 -5 -6z"/>
<path d="M8241 5314 c0 -11 3 -14 6 -6 3 7 2 16 -1 19 -3 4 -6 -2 -5 -13z"/>
<path d="M7275 5300 c3 -5 8 -10 11 -10 2 0 4 5 4 10 0 6 -5 10 -11 10 -5 0
-7 -4 -4 -10z"/>
<path d="M7011 5284 c0 -11 3 -14 6 -6 3 7 2 16 -1 19 -3 4 -6 -2 -5 -13z"/>
<path d="M7406 5285 c-9 -26 -7 -32 5 -12 6 10 9 21 6 23 -2 3 -7 -2 -11 -11z"/>
<path d="M8241 5274 c0 -11 3 -14 6 -6 3 7 2 16 -1 19 -3 4 -6 -2 -5 -13z"/>
<path d="M8383 5235 c0 -22 2 -30 4 -17 2 12 2 30 0 40 -3 9 -5 -1 -4 -23z"/>
<path d="M8241 5234 c0 -11 3 -14 6 -6 3 7 2 16 -1 19 -3 4 -6 -2 -5 -13z"/>
<path d="M8535 5241 c-3 -5 -2 -12 3 -15 5 -3 9 1 9 9 0 17 -3 19 -12 6z"/>
<path d="M6735 5219 c-4 -6 -5 -12 -2 -15 2 -3 7 2 10 11 7 17 1 20 -8 4z"/>
<path d="M7010 5196 c0 -8 4 -17 9 -20 5 -4 7 3 4 14 -6 23 -13 26 -13 6z"/>
<path d="M7276 5202 c-2 -4 -1 -14 4 -22 7 -11 9 -9 7 8 -1 24 -3 26 -11 14z"/>
<path d="M8241 5194 c0 -11 3 -14 6 -6 3 7 2 16 -1 19 -3 4 -6 -2 -5 -13z"/>
<path d="M8380 5180 c0 -5 5 -10 11 -10 5 0 7 5 4 10 -3 6 -8 10 -11 10 -2 0
-4 -4 -4 -10z"/>
<path d="M8820 5165 c-7 -9 -8 -15 -2 -15 5 0 12 7 16 15 3 8 4 15 2 15 -2 0
-9 -7 -16 -15z"/>
<path d="M8241 5154 c0 -11 3 -14 6 -6 3 7 2 16 -1 19 -3 4 -6 -2 -5 -13z"/>
<path d="M7275 5150 c-3 -5 -1 -10 4 -10 6 0 11 5 11 10 0 6 -2 10 -4 10 -3 0
-8 -4 -11 -10z"/>
<path d="M7006 5093 c1 -25 -5 -58 -13 -74 -18 -37 -12 -47 27 -41 29 4 42 26
19 34 -6 2 -12 24 -14 48 -2 25 -5 46 -6 48 -1 1 -2 6 -3 11 0 5 -3 12 -6 15
-3 2 -5 -16 -4 -41z"/>
<path d="M7281 5114 c0 -11 3 -14 6 -6 3 7 2 16 -1 19 -3 4 -6 -2 -5 -13z"/>
<path d="M8240 5115 c0 -8 4 -15 10 -15 5 0 7 7 4 15 -4 8 -8 15 -10 15 -2 0
-4 -7 -4 -15z"/>
<path d="M7278 5083 c7 -3 16 -2 19 1 4 3 -2 6 -13 5 -11 0 -14 -3 -6 -6z"/>
<path d="M8242 5059 c-1 -20 -9 -42 -17 -49 -25 -21 -17 -36 18 -35 51 3 52 4
29 28 -11 12 -22 38 -25 57 l-4 35 -1 -36z"/>
<path d="M7273 5045 c-6 -17 -14 -37 -18 -46 -5 -13 1 -18 25 -21 17 -3 33 -1
35 3 3 4 -3 26 -13 50 l-19 43 -10 -29z"/>
<path d="M6731 5004 c0 -11 3 -14 6 -6 3 7 2 16 -1 19 -3 4 -6 -2 -5 -13z"/>
</g>
</svg>
