<?xml version="1.0" encoding="utf-8"?>
<!-- Generator: Adobe Illustrator 26.5.0, SVG Export Plug-In . SVG Version: 6.00 Build 0)  -->
<svg version="1.1" id="Layer_1" xmlns="http://www.w3.org/2000/svg" xmlns:xlink="http://www.w3.org/1999/xlink" x="0px" y="0px"
	 viewBox="0 0 478.7 207.5" style="enable-background:new 0 0 478.7 207.5;" xml:space="preserve">
<style type="text/css">
	.st0{fill:#8D3C67;}
	.st1{fill:#1A2857;}
</style>
<path class="st0" d="M10.1,135H0v-6.7h27.5v6.7H17.4v26.4h-7.3V135z"/>
<path class="st0" d="M29.5,136.1h7.2v5.1c1.5-3.5,3.8-5.8,8.1-5.6v7.5h-0.4c-4.8,0-7.7,2.9-7.7,8.9v9.4h-7.2V136.1z"/>
<path class="st0" d="M45.7,148.9L45.7,148.9c0-7.4,5.9-13.3,13.8-13.3c7.9,0,13.7,5.8,13.7,13.1v0.1c0,7.3-5.9,13.2-13.8,13.2
	C51.5,162,45.7,156.2,45.7,148.9z M66,148.9L66,148.9c0-3.8-2.7-7.1-6.7-7.1c-4.1,0-6.6,3.2-6.6,6.9v0.1c0,3.7,2.7,7,6.7,7
	C63.6,155.8,66,152.6,66,148.9z"/>
<path class="st0" d="M76.5,152.5v-16.4h7.2v14.2c0,3.4,1.6,5.2,4.4,5.2c2.7,0,4.5-1.8,4.5-5.2v-14.2h7.2v25.4h-7.2v-3.6
	c-1.7,2.1-3.8,4.1-7.4,4.1C79.7,161.9,76.5,158.3,76.5,152.5z"/>
<path class="st0" d="M111.8,158.1v3.3h-7.2v-34.6h7.2v12.8c1.8-2.4,4.2-4.1,7.9-4.1c5.9,0,11.6,4.6,11.6,13.1v0.1
	c0,8.5-5.5,13.1-11.6,13.1C115.9,161.9,113.5,160.2,111.8,158.1z M124.1,148.8L124.1,148.8c0-4.3-2.8-7.1-6.2-7.1
	c-3.4,0-6.2,2.8-6.2,7v0.1c0,4.2,2.8,7,6.2,7C121.2,155.8,124.1,153.1,124.1,148.8z"/>
<path class="st0" d="M135.3,126.9h7.2v34.6h-7.2V126.9z"/>
<path class="st0" d="M146.4,148.9L146.4,148.9c0-7.3,5.2-13.3,12.5-13.3c8.5,0,12.4,6.6,12.4,13.8c0,0.6,0,1.2-0.1,1.9h-17.7
	c0.7,3.3,3,5,6.2,5c2.4,0,4.2-0.8,6.2-2.6l4.1,3.6c-2.4,2.9-5.8,4.7-10.4,4.7C152,162,146.4,156.7,146.4,148.9z M164.3,146.8
	c-0.4-3.2-2.3-5.4-5.3-5.4c-3,0-4.9,2.1-5.5,5.4H164.3z"/>
<path class="st0" d="M173,158.1l3.1-4.7c2.7,2,5.6,3,8,3c2.1,0,3-0.8,3-1.9v-0.1c0-1.6-2.5-2.1-5.3-2.9c-3.6-1-7.6-2.7-7.6-7.6v-0.1
	c0-5.2,4.2-8,9.3-8c3.2,0,6.7,1.1,9.5,2.9l-2.7,5c-2.5-1.5-5-2.4-6.9-2.4c-1.8,0-2.7,0.8-2.7,1.8v0.1c0,1.4,2.4,2.1,5.2,3
	c3.6,1.2,7.7,2.9,7.7,7.5v0.1c0,5.6-4.2,8.2-9.7,8.2C180.4,161.9,176.4,160.7,173,158.1z"/>
<path class="st0" d="M231.2,128.3h13.5c7.9,0,12.7,4.7,12.7,11.5v0.1c0,7.7-6,11.6-13.4,11.6h-5.5v9.9h-7.3V128.3z M244.2,145
	c3.6,0,5.8-2.2,5.8-5v-0.1c0-3.3-2.3-5-5.9-5h-5.6V145H244.2z"/>
<path class="st0" d="M259,148.9L259,148.9c0-7.3,5.2-13.3,12.5-13.3c8.5,0,12.4,6.6,12.4,13.8c0,0.6,0,1.2-0.1,1.9h-17.7
	c0.7,3.3,3,5,6.2,5c2.4,0,4.2-0.8,6.2-2.6l4.1,3.6c-2.4,2.9-5.8,4.7-10.4,4.7C264.6,162,259,156.7,259,148.9z M276.9,146.8
	c-0.4-3.2-2.3-5.4-5.3-5.4c-3,0-4.9,2.1-5.5,5.4H276.9z"/>
<path class="st0" d="M289.2,136.1h7.2v5.1c1.5-3.5,3.8-5.8,8.1-5.6v7.5h-0.4c-4.8,0-7.7,2.9-7.7,8.9v9.4h-7.2V136.1z"/>
<path class="st0" d="M309,136.1h7.2v3.6c1.7-2.1,3.8-4.1,7.5-4.1c3.3,0,5.8,1.5,7.2,4c2.2-2.6,4.9-4,8.3-4c5.3,0,8.6,3.2,8.6,9.3
	v16.5h-7.2v-14.2c0-3.4-1.5-5.2-4.2-5.2c-2.7,0-4.4,1.8-4.4,5.2v14.2h-7.2v-14.2c0-3.4-1.5-5.2-4.2-5.2c-2.7,0-4.4,1.8-4.4,5.2v14.2
	H309V136.1z"/>
<path class="st0" d="M350.8,154.2L350.8,154.2c0-5.6,4.2-8.2,10.2-8.2c2.6,0,4.4,0.4,6.2,1v-0.4c0-3-1.8-4.6-5.4-4.6
	c-2.7,0-4.7,0.5-7,1.4l-1.8-5.5c2.8-1.2,5.5-2,9.8-2c3.9,0,6.8,1,8.6,2.8c1.9,1.9,2.7,4.7,2.7,8.1v14.7h-7v-2.7
	c-1.8,1.9-4.2,3.2-7.7,3.2C354.8,161.9,350.8,159.2,350.8,154.2z M367.4,152.5v-1.3c-1.2-0.6-2.8-0.9-4.6-0.9c-3.1,0-5,1.2-5,3.5
	v0.1c0,1.9,1.6,3.1,3.9,3.1C365.1,157,367.4,155.1,367.4,152.5z"/>
<path class="st0" d="M378.8,136.1h7.2v3.6c1.7-2.1,3.8-4.1,7.4-4.1c5.4,0,8.6,3.6,8.6,9.4v16.4h-7.2v-14.2c0-3.4-1.6-5.2-4.4-5.2
	c-2.7,0-4.5,1.8-4.5,5.2v14.2h-7.2V136.1z"/>
<path class="st0" d="M405.4,148.9L405.4,148.9c0-7.3,5.2-13.3,12.5-13.3c8.5,0,12.4,6.6,12.4,13.8c0,0.6,0,1.2-0.1,1.9h-17.7
	c0.7,3.3,3,5,6.2,5c2.4,0,4.2-0.8,6.2-2.6l4.1,3.6c-2.4,2.9-5.8,4.7-10.4,4.7C411,162,405.4,156.7,405.4,148.9z M423.3,146.8
	c-0.4-3.2-2.3-5.4-5.3-5.4c-3,0-4.9,2.1-5.5,5.4H423.3z"/>
<path class="st0" d="M434,136.1h7.2v3.6c1.7-2.1,3.8-4.1,7.4-4.1c5.4,0,8.6,3.6,8.6,9.4v16.4h-7.2v-14.2c0-3.4-1.6-5.2-4.4-5.2
	c-2.7,0-4.5,1.8-4.5,5.2v14.2H434V136.1z"/>
<path class="st0" d="M463.1,154.3v-12h-3v-6.2h3v-6.5h7.2v6.5h6v6.2h-6v10.8c0,1.7,0.7,2.5,2.3,2.5c1.3,0,2.5-0.3,3.6-0.9v5.8
	c-1.5,0.9-3.3,1.5-5.7,1.5C466.1,161.9,463.1,160.1,463.1,154.3z"/>
<path class="st0" d="M2.4,173.8h12.9c10.4,0,17.6,7.2,17.6,16.5v0.1c0,9.3-7.2,16.6-17.6,16.6H2.4V173.8z M9.7,180.3v20h5.6
	c6,0,10-4,10-9.9v-0.1c0-5.9-4-10-10-10H9.7z"/>
<path class="st0" d="M35.9,172.3h7.6v6.4h-7.6V172.3z M36.1,181.5h7.2v25.4h-7.2V181.5z"/>
<path class="st0" d="M46.6,203.5l3.1-4.7c2.7,2,5.6,3,8,3c2.1,0,3-0.8,3-1.9v-0.1c0-1.6-2.5-2.1-5.3-2.9c-3.6-1-7.6-2.7-7.6-7.6
	v-0.1c0-5.2,4.2-8,9.3-8c3.2,0,6.7,1.1,9.5,2.9l-2.7,5c-2.5-1.5-5-2.4-6.9-2.4c-1.8,0-2.7,0.8-2.7,1.8v0.1c0,1.4,2.4,2.1,5.2,3
	c3.6,1.2,7.7,2.9,7.7,7.5v0.1c0,5.6-4.2,8.2-9.7,8.2C54,207.4,50,206.2,46.6,203.5z"/>
<path class="st0" d="M69.4,199.6L69.4,199.6c0-5.6,4.2-8.2,10.2-8.2c2.6,0,4.4,0.4,6.2,1V192c0-3-1.8-4.6-5.4-4.6
	c-2.7,0-4.7,0.5-7,1.4l-1.8-5.5c2.8-1.2,5.5-2,9.8-2c3.9,0,6.8,1,8.6,2.8c1.9,1.9,2.7,4.7,2.7,8.1v14.7h-7v-2.7
	c-1.8,1.9-4.2,3.2-7.7,3.2C73.4,207.4,69.4,204.6,69.4,199.6z M86,198v-1.3c-1.2-0.6-2.8-0.9-4.6-0.9c-3.1,0-5,1.2-5,3.5v0.1
	c0,1.9,1.6,3.1,3.9,3.1C83.7,202.4,86,200.6,86,198z"/>
<path class="st0" d="M103.3,203.6v3.3h-7.2v-34.6h7.2v12.8c1.8-2.4,4.2-4.1,7.9-4.1c5.9,0,11.6,4.6,11.6,13.1v0.1
	c0,8.5-5.5,13.1-11.6,13.1C107.4,207.4,105,205.6,103.3,203.6z M115.6,194.3L115.6,194.3c0-4.3-2.8-7.1-6.2-7.1
	c-3.4,0-6.2,2.8-6.2,7v0.1c0,4.2,2.8,7,6.2,7C112.7,201.3,115.6,198.5,115.6,194.3z"/>
<path class="st0" d="M125.5,172.3h7.2v34.6h-7.2V172.3z"/>
<path class="st0" d="M135.2,194.4L135.2,194.4c0-7.3,5.2-13.3,12.5-13.3c8.5,0,12.4,6.6,12.4,13.8c0,0.6,0,1.2-0.1,1.9h-17.7
	c0.7,3.3,3,5,6.2,5c2.4,0,4.2-0.8,6.2-2.6l4.1,3.6c-2.4,2.9-5.8,4.7-10.4,4.7C140.8,207.5,135.2,202.1,135.2,194.4z M153.1,192.2
	c-0.4-3.2-2.3-5.4-5.3-5.4c-3,0-4.9,2.1-5.5,5.4H153.1z"/>
<path class="st0" d="M162.2,181.5h7.2v3.6c1.7-2.1,3.8-4.1,7.5-4.1c3.3,0,5.8,1.5,7.2,4c2.2-2.6,4.9-4,8.3-4c5.3,0,8.6,3.2,8.6,9.3
	v16.5h-7.2v-14.2c0-3.4-1.5-5.2-4.2-5.2c-2.7,0-4.4,1.8-4.4,5.2v14.2H178v-14.2c0-3.4-1.5-5.2-4.2-5.2c-2.7,0-4.4,1.8-4.4,5.2v14.2
	h-7.2V181.5z"/>
<path class="st0" d="M204.6,194.4L204.6,194.4c0-7.3,5.2-13.3,12.5-13.3c8.5,0,12.4,6.6,12.4,13.8c0,0.6,0,1.2-0.1,1.9h-17.7
	c0.7,3.3,3,5,6.2,5c2.4,0,4.2-0.8,6.2-2.6l4.1,3.6c-2.4,2.9-5.8,4.7-10.4,4.7C210.2,207.5,204.6,202.1,204.6,194.4z M222.5,192.2
	c-0.4-3.2-2.3-5.4-5.3-5.4c-3,0-4.9,2.1-5.5,5.4H222.5z"/>
<path class="st0" d="M233.4,181.5h7.2v3.6c1.7-2.1,3.8-4.1,7.4-4.1c5.4,0,8.6,3.6,8.6,9.4v16.4h-7.2v-14.2c0-3.4-1.6-5.2-4.4-5.2
	c-2.7,0-4.5,1.8-4.5,5.2v14.2h-7.2V181.5z"/>
<path class="st0" d="M262.6,199.7v-12h-3v-6.2h3V175h7.2v6.5h6v6.2h-6v10.8c0,1.7,0.7,2.5,2.3,2.5c1.3,0,2.5-0.3,3.6-0.9v5.8
	c-1.5,0.9-3.3,1.5-5.7,1.5C265.6,207.3,262.6,205.6,262.6,199.7z"/>
<path class="st0" d="M301.5,202.1l4.3-5.2c3,2.5,6.1,4,9.9,4c3,0,4.8-1.2,4.8-3.1v-0.1c0-1.8-1.1-2.8-6.7-4.2
	c-6.7-1.7-11-3.6-11-10.1v-0.1c0-6,4.8-10,11.6-10c4.8,0,8.9,1.5,12.3,4.2L323,183c-2.9-2-5.8-3.3-8.6-3.3c-2.8,0-4.3,1.3-4.3,2.9
	v0.1c0,2.2,1.4,2.9,7.2,4.4c6.7,1.8,10.5,4.2,10.5,9.9v0.1c0,6.6-5,10.3-12.2,10.3C310.6,207.4,305.5,205.6,301.5,202.1z"/>
<path class="st0" d="M330.5,194.4L330.5,194.4c0-7.3,5.5-13.3,13.3-13.3c4.8,0,7.8,1.6,10.1,4.3l-4.4,4.7c-1.6-1.7-3.2-2.8-5.8-2.8
	c-3.6,0-6.2,3.2-6.2,6.9v0.1c0,3.9,2.5,7,6.4,7c2.4,0,4.1-1,5.8-2.7l4.2,4.3c-2.5,2.7-5.3,4.6-10.4,4.6
	C336.1,207.5,330.5,201.6,330.5,194.4z"/>
<path class="st0" d="M357.1,172.3h7.2v12.8c1.7-2.1,3.8-4.1,7.4-4.1c5.4,0,8.6,3.6,8.6,9.4v16.4h-7.2v-14.2c0-3.4-1.6-5.2-4.4-5.2
	c-2.7,0-4.5,1.8-4.5,5.2v14.2h-7.2V172.3z"/>
<path class="st0" d="M382.2,194.4L382.2,194.4c0-7.3,5.2-13.3,12.5-13.3c8.5,0,12.4,6.6,12.4,13.8c0,0.6,0,1.2-0.1,1.9h-17.7
	c0.7,3.3,3,5,6.2,5c2.4,0,4.2-0.8,6.2-2.6l4.1,3.6c-2.4,2.9-5.8,4.7-10.4,4.7C387.8,207.5,382.2,202.1,382.2,194.4z M400.1,192.2
	c-0.4-3.2-2.3-5.4-5.3-5.4c-3,0-4.9,2.1-5.5,5.4H400.1z"/>
<path class="st0" d="M410.8,181.5h7.2v3.6c1.7-2.1,3.8-4.1,7.5-4.1c3.3,0,5.8,1.5,7.2,4c2.2-2.6,4.9-4,8.3-4c5.3,0,8.6,3.2,8.6,9.3
	v16.5h-7.2v-14.2c0-3.4-1.5-5.2-4.2-5.2c-2.7,0-4.4,1.8-4.4,5.2v14.2h-7.2v-14.2c0-3.4-1.5-5.2-4.2-5.2c-2.7,0-4.4,1.8-4.4,5.2v14.2
	h-7.2V181.5z"/>
<path class="st0" d="M452.9,194.4L452.9,194.4c0-7.3,5.2-13.3,12.5-13.3c8.5,0,12.4,6.6,12.4,13.8c0,0.6,0,1.2-0.1,1.9h-17.7
	c0.7,3.3,3,5,6.2,5c2.4,0,4.2-0.8,6.2-2.6l4.1,3.6c-2.4,2.9-5.8,4.7-10.4,4.7C458.6,207.5,452.9,202.1,452.9,194.4z M470.8,192.2
	c-0.4-3.2-2.3-5.4-5.3-5.4c-3,0-4.9,2.1-5.5,5.4H470.8z"/>
<path class="st1" d="M0.1,0.7h24.5l26.4,71.1L77.5,0.7h24L60.6,102.5H41L0.1,0.7z"/>
<path class="st1" d="M107.9,0.7h41.3c24.1,0,38.7,14.3,38.7,34.9v0.3c0,23.4-18.2,35.5-40.8,35.5h-16.9v30.3h-22.2V0.7z M147.7,51.7
	c11.1,0,17.6-6.6,17.6-15.3v-0.3c0-10-6.9-15.3-18-15.3h-17.2v30.9H147.7z"/>
<rect x="288.8" y="0.5" class="st0" width="4.5" height="101.4"/>
<g>
	<path class="st1" d="M194.1,0.9h46.7c11.5,0,20.6,3.2,26.3,8.9c4.6,4.6,6.9,10.2,6.9,17.1v0.3c0,11.4-6,17.7-13.2,21.7
		c11.7,4.5,18.8,11.2,18.8,24.7V74c0,18.4-15,27.6-37.7,27.6h-47.9V0.9z M252.1,30.7c0-6.6-5.2-10.4-14.5-10.4h-21.9v21.3h20.4
		c9.8,0,16-3.2,16-10.6V30.7z M241.3,60h-25.6v22.2H242c9.8,0,15.7-3.4,15.7-10.9V71C257.7,64.2,252.7,60,241.3,60z"/>
</g>
<g>
	<path class="st1" d="M304.8,0.4h5.7l6.2,16.6l6.2-16.6h5.6l-9.6,23.8h-4.6L304.8,0.4z"/>
	<path class="st1" d="M331.2,0.4h5.2V24h-5.2V0.4z"/>
	<path class="st1" d="M339,12.3L339,12.3C339,5.5,344.1,0,351.4,0c4.5,0,7.1,1.5,9.3,3.6l-3.3,3.8c-1.8-1.7-3.7-2.7-6-2.7
		c-4,0-6.9,3.3-6.9,7.4v0.1c0,4.1,2.8,7.4,6.9,7.4c2.7,0,4.4-1.1,6.2-2.8l3.3,3.3c-2.4,2.6-5.1,4.2-9.7,4.2
		C344.2,24.4,339,19.1,339,12.3z"/>
	<path class="st1" d="M369.4,5.2h-7.2V0.4h19.6v4.8h-7.2V24h-5.2V5.2z"/>
	<path class="st1" d="M384.9,0.4h5.2V24h-5.2V0.4z"/>
	<path class="st1" d="M393.7,0.4h5.6l6.2,10l6.2-10h5.6V24h-5.2V8.6l-6.6,10.1h-0.1l-6.6-10V24h-5.1V0.4z"/>
	<path class="st1" d="M419.1,20.6l3.1-3.7c2.1,1.8,4.4,2.9,7.1,2.9c2.1,0,3.4-0.8,3.4-2.2v-0.1c0-1.3-0.8-2-4.8-3
		c-4.8-1.2-7.8-2.5-7.8-7.2V7.2c0-4.3,3.4-7.1,8.3-7.1c3.4,0,6.4,1.1,8.8,3L434.4,7c-2.1-1.5-4.2-2.3-6.1-2.3c-2,0-3,0.9-3,2.1v0.1
		c0,1.6,1,2.1,5.1,3.1c4.8,1.2,7.5,3,7.5,7.1V17c0,4.7-3.6,7.3-8.7,7.3C425.6,24.4,422,23.1,419.1,20.6z"/>
	<path class="st1" d="M440.6,9.1c2.3-0.2,3.5-1.4,3.3-3.3h-2.1V0.4h5.5V5c0,4.5-2.2,6.2-6.2,6.3L440.6,9.1z"/>
</g>
<g>
	<path class="st1" d="M306.8,40.9h9.7c5.6,0,9,3.3,9,8.2v0.1c0,5.5-4.3,8.3-9.6,8.3H312v7.1h-5.2V40.9z M316.1,52.8
		c2.6,0,4.1-1.6,4.1-3.6v-0.1c0-2.3-1.6-3.6-4.2-3.6h-4v7.2H316.1z"/>
	<path class="st1" d="M332.8,40.7h4.8l10.1,23.8h-5.4l-2.2-5.3h-10l-2.2,5.3h-5.3L332.8,40.7z M338.3,54.6l-3.1-7.7l-3.1,7.7H338.3z
		"/>
	<path class="st1" d="M352.1,55.2L343,40.9h6.1l5.6,9.5l5.7-9.5h5.9l-9.1,14.2v9.4h-5.2V55.2z"/>
	<path class="st1" d="M368.5,40.9h5.6l6.2,10l6.2-10h5.6v23.6h-5.2V49.1l-6.6,10.1h-0.1l-6.6-10v15.3h-5.1V40.9z"/>
	<path class="st1" d="M395.5,40.9h17.8v4.6h-12.7v4.8h11.1V55h-11.1v5h12.8v4.6h-18V40.9z"/>
	<path class="st1" d="M415.9,40.9h4.8l11.1,14.5V40.9h5.1v23.6h-4.4l-11.4-15v15h-5.1V40.9z"/>
	<path class="st1" d="M446.9,45.7h-7.2v-4.8h19.6v4.8h-7.2v18.8h-5.2V45.7z"/>
	<path class="st1" d="M460.1,61.1l3.1-3.7c2.1,1.8,4.4,2.9,7.1,2.9c2.1,0,3.4-0.8,3.4-2.2V58c0-1.3-0.8-2-4.8-3
		c-4.8-1.2-7.8-2.5-7.8-7.2v-0.1c0-4.3,3.4-7.1,8.3-7.1c3.4,0,6.4,1.1,8.8,3l-2.7,3.9c-2.1-1.5-4.2-2.3-6.1-2.3c-2,0-3,0.9-3,2.1
		v0.1c0,1.6,1,2.1,5.1,3.1c4.8,1.2,7.5,3,7.5,7.1v0.1c0,4.7-3.6,7.3-8.7,7.3C466.5,64.9,462.9,63.6,460.1,61.1z"/>
</g>
<g>
	<path class="st1" d="M306.8,78h11c2.7,0,4.8,0.7,6.2,2.1c1.1,1.1,1.6,2.4,1.6,4v0.1c0,2.7-1.4,4.2-3.1,5.1c2.7,1,4.4,2.6,4.4,5.8
		v0.1c0,4.3-3.5,6.5-8.8,6.5h-11.2V78z M320.4,85c0-1.6-1.2-2.4-3.4-2.4h-5.1v5h4.8C319,87.6,320.4,86.9,320.4,85L320.4,85z
		 M317.9,91.9h-6v5.2h6.2c2.3,0,3.7-0.8,3.7-2.6v-0.1C321.7,92.9,320.5,91.9,317.9,91.9z"/>
	<path class="st1" d="M327.9,89.9L327.9,89.9c0-6.8,5.3-12.3,12.6-12.3c7.3,0,12.5,5.4,12.5,12.2v0.1c0,6.7-5.3,12.2-12.6,12.2
		C333.1,102.1,327.9,96.6,327.9,89.9z M347.6,89.9L347.6,89.9c0-4.1-3-7.5-7.2-7.5c-4.2,0-7.1,3.3-7.1,7.4v0.1c0,4.1,3,7.4,7.2,7.4
		C344.7,97.3,347.6,94,347.6,89.9z"/>
	<path class="st1" d="M361.9,77.9h4.8l10.1,23.8h-5.4l-2.2-5.3h-10l-2.2,5.3h-5.3L361.9,77.9z M367.4,91.8l-3.1-7.7l-3.1,7.7H367.4z
		"/>
	<path class="st1" d="M379.4,78h10.8c3,0,5.3,0.8,6.9,2.4c1.3,1.3,2,3.2,2,5.4v0.1c0,3.8-2.1,6.2-5.1,7.3l5.8,8.4h-6.1l-5.1-7.6
		h-4.1v7.6h-5.2V78z M389.8,89.5c2.5,0,4-1.3,4-3.3v-0.1c0-2.2-1.6-3.4-4.1-3.4h-5.2v6.8H389.8z"/>
	<path class="st1" d="M401.5,78h9.2c7.4,0,12.6,5.1,12.6,11.7v0.1c0,6.6-5.1,11.8-12.6,11.8h-9.2V78z M406.7,82.7V97h4
		c4.3,0,7.1-2.9,7.1-7.1v-0.1c0-4.2-2.9-7.1-7.1-7.1H406.7z"/>
</g>
</svg>
