<svg height="480" viewBox="0 0 640 480" width="640" xmlns="http://www.w3.org/2000/svg"><g fill="#502440"><path d="m332.3 56.2v-8h.9c1 5.2 3.5 7.8 7.4 7.8 1.7 0 3.1-.5 4.1-1.5s1.4-2.1 1.4-3.3-.4-2.3-1.3-3.1c-.8-.8-2.4-1.7-4.6-2.7-2-.9-3.5-1.6-4.5-2.2s-1.8-1.5-2.4-2.5-.9-2.1-.9-3.3c0-1.8.6-3.2 1.8-4.4s2.8-1.8 4.7-1.8c1 0 2 .2 3 .5.9.3 1.9 1 2.9 2.1.6-.7.9-1.4 1-2.2h.8v6.5h-.8c-.5-1.9-1.3-3.4-2.5-4.5s-2.5-1.6-4.1-1.6c-1.5 0-2.6.4-3.3 1.2s-1 1.7-1 2.6c0 1.1.4 2.1 1.3 2.9s2.4 1.7 4.6 2.7c2.1 1 3.7 1.7 4.7 2.3s1.7 1.4 2.3 2.4.9 2.2.9 3.6c0 2.1-.7 3.9-2.1 5.2s-3.3 2-5.7 2c-2.7 0-5-1-6.8-3.1-.4.6-.7 1.4-.9 2.4z" transform="matrix(.39 0 0 1.4 198.846 106.34)"/><path d="m370.7 48.8h.9l-.5 7.7h-20.6v-.8h.5c1.2 0 2-.2 2.4-.5s.6-.7.7-1.3c.1-.5.1-1.8.1-3.9v-12.1c0-1.9-.1-3.1-.2-3.7s-.3-1-.7-1.3c-.4-.2-1.2-.4-2.4-.4v-.8h17.7l.6 6.2h-.9c-.4-1.7-.9-3-1.4-3.7-.6-.7-1.2-1.2-2-1.4s-2-.3-3.8-.3h-3.4v10.4h2.6c1.2 0 2.1-.1 2.5-.3.5-.2.8-.5 1-.9s.2-1.2.2-2.5h.9v8.5h-.9c0-1.4-.1-2.3-.3-2.8s-.6-.8-1-.9-1.2-.2-2.3-.2h-2.7v5.9c0 2.9.2 4.7.6 5.2s1.4.8 3.1.8h1.9c1.3 0 2.4-.2 3.2-.5s1.6-1 2.4-2.1c.7-1.1 1.3-2.5 1.8-4.3z" transform="matrix(.39 0 0 1.4 198.846 106.34)"/><path d="m395.8 57.1-17.6-23.3v17.2c0 1.4.1 2.4.2 2.8.1.5.5.9 1.2 1.2.7.4 1.6.6 3 .6v.8h-9.3v-.8c1.2-.1 2.1-.3 2.7-.7.6-.3 1-.7 1.1-1.1s.2-1.4.2-2.9v-13c0-1.9-.1-3.2-.3-3.8s-.5-1.1-.8-1.2c-.4-.2-1.2-.3-2.6-.3v-.8h7.3l14.7 19.4v-15c0-1.1-.1-1.9-.3-2.3s-.7-.8-1.4-1c-.7-.3-1.5-.4-2.5-.4v-.8h9v.8c-1.1.1-1.9.3-2.5.6s-1 .7-1.2 1.1-.2 1.2-.2 2.3v20.5h-.7z" transform="matrix(.39 0 0 1.4 198.846 106.34)"/><path d="m402.6 37.6h-.8l.1-6h24.1l.1 6h-.8c-.3-1.6-.7-2.8-1.2-3.5s-1-1.2-1.6-1.3c-.6-.2-1.5-.2-2.9-.2h-4v17.4c0 1.9 0 3.2.1 3.8s.3 1.1.7 1.4 1.2.4 2.3.4h1.2v.8h-12.4v-.8h1.3c1.1 0 1.8-.1 2.2-.4s.7-.7.8-1.3.2-1.9.2-4v-17.4h-3.7c-1.6 0-2.7.1-3.2.2-.5.2-1.1.6-1.5 1.4-.3.8-.7 2-1 3.5z" transform="matrix(.39 0 0 1.4 198.846 106.34)"/><path d="m448.4 48.8h.9l-.5 7.7h-20.6v-.8h.5c1.2 0 2-.2 2.4-.5s.6-.7.7-1.3c.1-.5.1-1.8.1-3.9v-12.1c0-1.9-.1-3.1-.2-3.7s-.3-1-.7-1.3c-.4-.2-1.2-.4-2.4-.4v-.8h17.7l.6 6.2h-.9c-.4-1.7-.9-3-1.4-3.7-.6-.7-1.2-1.2-2-1.4s-2-.3-3.8-.3h-3.4v10.4h2.6c1.2 0 2.1-.1 2.5-.3.5-.2.8-.5 1-.9s.2-1.2.2-2.5h.9v8.5h-.9c0-1.4-.1-2.3-.3-2.8s-.6-.8-1-.9-1.2-.2-2.3-.2h-2.7v5.9c0 2.9.2 4.7.6 5.2s1.4.8 3.1.8h1.8c1.3 0 2.4-.2 3.2-.5s1.6-1 2.4-2.1c.9-1.1 1.5-2.5 1.9-4.3z" transform="matrix(.39 0 0 1.4 198.846 106.34)"/><path d="m473.5 57.1-17.5-23.3v17.2c0 1.4.1 2.4.2 2.8.1.5.5.9 1.2 1.2.7.4 1.6.6 3 .6v.8h-9.3v-.8c1.2-.1 2.1-.3 2.7-.7.6-.3 1-.7 1.1-1.1s.2-1.4.2-2.9v-13c0-1.9-.1-3.2-.3-3.8s-.5-1.1-.8-1.2c-.4-.2-1.2-.3-2.6-.3v-.8h7.3l14.7 19.4v-15c0-1.1-.1-1.9-.3-2.3s-.7-.8-1.4-1c-.7-.3-1.5-.4-2.5-.4v-.8h9v.8c-1.1.1-1.9.3-2.5.6s-1 .7-1.2 1.1-.2 1.2-.2 2.3v20.5h-.8z" transform="matrix(.39 0 0 1.4 198.846 106.34)"/><path d="m501.1 47.2h.8v8.7h-.8c-.2-1-.6-1.9-1.2-2.6-2.2 2.5-5 3.7-8.4 3.7-3.6 0-6.5-1.1-8.8-3.4s-3.4-5.3-3.4-9c0-2.5.5-4.8 1.6-6.9 1.1-2.2 2.5-3.8 4.4-4.8s3.9-1.6 6.2-1.6c1.9 0 3.5.4 5 1.1 1.5.8 2.6 1.6 3.4 2.5.5-1 .8-2.1 1-3.2h.8l.2 9.4h-.8c-.5-3.3-1.7-5.7-3.4-7s-3.6-2-5.7-2c-2.6 0-4.7 1.1-6.2 3.2s-2.3 5.1-2.3 9.1c0 3.7.8 6.6 2.5 8.6s3.8 3 6.2 3c1.3 0 2.7-.3 4.1-1 1.4-.6 2.5-1.7 3.3-3.3s1.3-3.1 1.5-4.5z" transform="matrix(.39 0 0 1.4 198.846 106.34)"/><path d="m524.5 48.8h.9l-.5 7.7h-20.6v-.8h.5c1.2 0 2-.2 2.4-.5s.6-.7.7-1.3c.1-.5.1-1.8.1-3.9v-12.1c0-1.9-.1-3.1-.2-3.7s-.3-1-.7-1.3c-.4-.2-1.2-.4-2.4-.4v-.8h17.7l.6 6.2h-.9c-.4-1.7-.9-3-1.4-3.7-.6-.7-1.2-1.2-2-1.4s-2-.3-3.8-.3h-3.4v10.4h2.6c1.2 0 2.1-.1 2.5-.3.5-.2.8-.5 1-.9s.2-1.2.2-2.5h.9v8.5h-.7c0-1.4-.1-2.3-.3-2.8s-.6-.8-1-.9-1.2-.2-2.3-.2h-2.7v5.9c0 2.9.2 4.7.6 5.2s1.4.8 3.1.8h1.9c1.3 0 2.4-.2 3.2-.5s1.6-1 2.4-2.1c.6-1.1 1.2-2.5 1.6-4.3z" transform="matrix(.39 0 0 1.4 198.846 106.34)"/><path d="m357.4 101.5h-6.7c-1.2-.8-3-3-5.4-6.5-.8-1.1-1.6-2.2-2.4-3.2s-1.4-1.7-1.7-1.9-.8-.3-1.5-.3h-1v5.4c0 2 0 3.2.1 3.8s.3 1.1.7 1.3c.4.3 1.2.4 2.3.4h1.2v.8h-11.9v-.8h.8c1.1 0 1.8-.1 2.2-.4s.7-.7.8-1.3.2-1.9.2-4v-11.9c0-2-.1-3.3-.2-3.8-.1-.6-.4-1-.7-1.2-.4-.2-1.2-.3-2.5-.3h-.4v-.8l3.6-.2c2.4-.1 4.2-.2 5.6-.2 2.4 0 4.3.2 5.8.7 1.5.4 2.7 1.2 3.6 2.2s1.4 2.2 1.4 3.6c0 1.6-.6 3-1.8 4.2-1.2 1.1-3 1.9-5.3 2.1 1 .5 2.7 2.3 5 5.4 1.9 2.5 3.4 4.2 4.4 5 1.1.8 2.3 1.2 3.8 1.2zm-18.7-12.8c.9 0 1.9-.1 2.8-.1 1 0 1.8-.2 2.5-.4s1.3-.5 1.7-1c.4-.4.8-1 1.1-1.7s.4-1.5.4-2.5c0-1.7-.4-3.1-1.3-4.2s-2.8-1.6-5.7-1.6c-.5 0-1 0-1.6.1v11.4z" transform="matrix(.39 0 0 1.4 198.846 106.34)"/><path d="m378.9 93.8h.9l-.5 7.7h-20.6v-.8h.5c1.2 0 2-.2 2.4-.5s.6-.7.7-1.3c.1-.5.1-1.8.1-3.9v-12.1c0-1.9-.1-3.1-.2-3.7s-.3-1-.7-1.3c-.4-.2-1.2-.4-2.4-.4v-.8h17.9l.6 6.2h-.9c-.4-1.7-.9-3-1.4-3.7-.6-.7-1.2-1.2-2-1.4s-2-.3-3.8-.3h-3.5v10.4h2.6c1.2 0 2.1-.1 2.5-.3.5-.2.8-.5 1-.9s.2-1.2.2-2.5h.9v8.5h-.9c0-1.4-.1-2.3-.3-2.8s-.6-.8-1-.9-1.2-.2-2.3-.2h-2.7v5.9c0 2.9.2 4.7.6 5.2s1.4.8 3.1.8h1.8c1.3 0 2.4-.2 3.2-.5s1.6-1 2.4-2.1 1.4-2.5 1.8-4.3z" transform="matrix(.39 0 0 1.4 198.846 106.34)"/><path d="m394.4 102.1h-1.1l-8.6-19.7c-.2-.4-.4-1-.7-1.8-.5-1.2-1-2-1.5-2.4s-1.4-.6-2.5-.6v-.8h10.7v.8c-1.3 0-2.2.1-2.7.3s-.7.6-.7 1.1c0 .4.3 1.2.9 2.5l7.1 16.5 5.7-13.7c1-2.3 1.4-3.8 1.4-4.5 0-1.4-1-2.1-3-2.2v-.8h7.6v.8c-.8 0-1.4.3-2 .8s-1.1 1.3-1.5 2.3l-1.7 3.9z" transform="matrix(.39 0 0 1.4 198.846 106.34)"/><path d="m408.1 77.5v-.8h11.4v.8h-.5c-1.2 0-2 .1-2.4.3s-.6.6-.8 1.1c-.1.5-.2 1.9-.2 3.9v12.2c0 2 0 3.2.1 3.8s.3 1.1.7 1.3c.4.3 1.2.4 2.3.4h.7v.8h-11.4v-.8h.7c1.1 0 1.8-.1 2.2-.4s.7-.7.8-1.3.2-1.9.2-4v-11.9c0-2-.1-3.3-.2-3.8-.1-.6-.4-1-.7-1.2-.4-.2-1.2-.3-2.5-.3h-.4z" transform="matrix(.39 0 0 1.4 198.846 106.34)"/><path d="m441.8 93.8h.9l-.5 7.7h-20.6v-.8h.5c1.2 0 2-.2 2.4-.5s.6-.7.7-1.3.1-1.8.1-3.9v-12.1c0-1.9-.1-3.1-.2-3.7s-.3-1-.7-1.3c-.4-.2-1.2-.4-2.4-.4v-.8h17.7l.6 6.2h-.9c-.4-1.7-.9-3-1.4-3.7-.6-.7-1.2-1.2-2-1.4s-2-.3-3.8-.3h-3.4v10.4h2.6c1.2 0 2.1-.1 2.5-.3.5-.2.8-.5 1-.9s.2-1.2.2-2.5h.9v8.5h-.9c0-1.4-.1-2.3-.3-2.8s-.6-.8-1-.9-1.2-.2-2.3-.2h-2.7v5.9c0 2.9.2 4.7.6 5.2s1.4.8 3.1.8h1.8c1.3 0 2.4-.2 3.2-.5s1.6-1 2.4-2.1 1.4-2.5 1.9-4.3z" transform="matrix(.39 0 0 1.4 198.846 106.34)"/><path d="m468.5 102.1h-.8l-7.6-20.5-6.6 20.5h-.9l-6-19.3c-.5-1.8-.9-2.9-1.2-3.5-.2-.6-.5-1-.9-1.3s-1-.4-1.9-.5v-.8h9.3v.8c-1.1.1-1.8.2-2.2.5-.3.3-.5.6-.5 1.1 0 .4.3 1.4.8 3.1l4.4 14.5 6.5-19.9h1l7.3 19.9 3.8-13.2c.5-1.8.7-2.9.7-3.5 0-1.6-.9-2.4-2.6-2.4v-.8h6.8v.8c-1 .1-1.7.4-2.2 1.1s-1.1 2.3-1.9 4.8z" transform="matrix(.39 0 0 1.4 198.846 106.34)"/><path d="m353.9 137.2h.8v8.7h-.8c-.2-1-.6-1.9-1.2-2.6-2.2 2.5-5 3.7-8.4 3.7-3.6 0-6.5-1.1-8.8-3.4s-3.4-5.3-3.4-9c0-2.5.5-4.8 1.6-6.9 1.1-2.2 2.5-3.8 4.4-4.8 1.9-1.1 3.9-1.6 6.2-1.6 1.9 0 3.5.4 5 1.1 1.5.8 2.6 1.6 3.4 2.5.5-1 .8-2.1 1-3.2h.8l.2 9.4h-.8c-.5-3.3-1.7-5.7-3.4-7s-3.6-2-5.7-2c-2.6 0-4.7 1.1-6.2 3.2s-2.3 5.1-2.3 9.1c0 3.7.8 6.6 2.5 8.6s3.8 3 6.2 3c1.3 0 2.7-.3 4.1-1 1.4-.6 2.5-1.7 3.3-3.3s1.3-3.1 1.5-4.5z" transform="matrix(.39 0 0 1.4 198.846 106.34)"/><path d="m357.8 133.9c0-3.8 1.3-6.9 3.8-9.2 2.6-2.3 5.8-3.5 9.6-3.5 3.9 0 7.1 1.1 9.7 3.4s3.9 5.4 3.9 9.4c0 3.8-1.2 7-3.7 9.3-2.5 2.4-5.8 3.6-9.8 3.6-3.9 0-7.2-1.2-9.7-3.6-2.5-2.3-3.8-5.4-3.8-9.4zm4.2.2c0 4 .8 7 2.4 9s4 3 7.2 3c2.8 0 5-1 6.6-3s2.4-5 2.4-9c0-3.9-.8-6.8-2.4-8.9s-3.9-3.1-7-3.1c-3 0-5.3 1-6.9 3-1.5 2.1-2.3 5-2.3 9z" transform="matrix(.39 0 0 1.4 198.846 106.34)"/><path d="m401.7 142.2 9-20.5h7.6v.8h-.9c-1.2 0-2 .1-2.4.3s-.6.6-.8 1.1c-.1.5-.2 1.9-.2 3.9v12.2c0 2 0 3.2.1 3.8s.3 1.1.7 1.3c.4.3 1.2.4 2.3.4h1.1v.8h-11.9v-.8h.9c1 0 1.8-.1 2.2-.4s.7-.7.8-1.3.2-1.9.2-4v-15.8l-9.8 22.3h-.9l-9.9-22.3v14.5c0 2 .1 3.3.2 4.1.1.7.5 1.4 1.1 1.9s1.5.9 2.7.9v.8h-8.9v-.8c1.1-.1 1.9-.4 2.6-.9s1.1-1.2 1.2-1.9c.1-.8.2-2.2.2-4.2v-10.8c0-2-.1-3.3-.2-3.8-.1-.6-.4-1-.7-1.2-.4-.2-1.2-.3-2.4-.3h-.7v-.8h7.6z" transform="matrix(.39 0 0 1.4 198.846 106.34)"/><path d="m436.5 142.2 9-20.5h7.6v.8h-.9c-1.2 0-2 .1-2.4.3s-.6.6-.8 1.1c-.1.5-.2 1.9-.2 3.9v12.2c0 2 0 3.2.1 3.8s.3 1.1.7 1.3c.4.3 1.2.4 2.3.4h1.1v.8h-11.9v-.8h.9c1 0 1.8-.1 2.2-.4s.7-.7.8-1.3.2-1.9.2-4v-15.8l-9.8 22.3h-.9l-9.9-22.3v14.5c0 2 .1 3.3.2 4.1.1.7.5 1.4 1.1 1.9s1.5.9 2.7.9v.8h-8.9v-.8c1.1-.1 1.9-.4 2.6-.9s1.1-1.2 1.2-1.9c.1-.8.2-2.2.2-4.2v-10.8c0-2-.1-3.3-.2-3.8-.1-.6-.4-1-.7-1.2-.4-.2-1.2-.3-2.4-.3h-.7v-.8h7.6z" transform="matrix(.39 0 0 1.4 198.846 106.34)"/><path d="m454.9 122.5v-.8h11.4v.8h-.5c-1.2 0-2 .1-2.4.3s-.6.6-.8 1.1c-.1.5-.2 1.9-.2 3.9v12.2c0 2 0 3.2.1 3.8s.3 1.1.7 1.3c.4.3 1.2.4 2.3.4h.7v.8h-11.4v-.8h.7c1.1 0 1.8-.1 2.2-.4s.7-.7.8-1.3.2-1.9.2-4v-12.2c0-2-.1-3.3-.2-3.8-.1-.6-.4-1-.7-1.2-.4-.2-1.2-.3-2.5-.3h-.4z" transform="matrix(.39 0 0 1.4 198.846 106.34)"/><path d="m468.1 146.3v-8h.9c1 5.2 3.5 7.8 7.4 7.8 1.7 0 3.1-.5 4.1-1.5s1.4-2.1 1.4-3.3-.4-2.3-1.3-3.1c-.8-.8-2.4-1.7-4.6-2.7-2-.9-3.5-1.6-4.5-2.2s-1.8-1.5-2.4-2.5-.9-2.1-.9-3.3c0-1.8.6-3.2 1.8-4.4s2.8-1.8 4.7-1.8c1.1 0 2 .2 3 .5.9.3 1.9 1.1 2.9 2.1.6-.7.9-1.4 1-2.2h.8v6.5h-.8c-.5-1.9-1.3-3.4-2.5-4.5s-2.5-1.6-4.1-1.6c-1.5 0-2.6.4-3.3 1.2s-1 1.7-1 2.6c0 1.1.4 2.1 1.3 2.9s2.4 1.7 4.6 2.7c2.1 1 3.7 1.7 4.7 2.3s1.8 1.4 2.3 2.4c.6 1 .9 2.2.9 3.6 0 2.1-.7 3.9-2.1 5.2s-3.3 2-5.7 2c-2.7 0-5-1-6.8-3.1-.4.6-.7 1.4-.9 2.4z" transform="matrix(.39 0 0 1.4 198.846 106.34)"/><path d="m486 146.3v-8h.9c1 5.2 3.5 7.8 7.4 7.8 1.7 0 3.1-.5 4.1-1.5s1.4-2.1 1.4-3.3-.4-2.3-1.3-3.1c-.8-.8-2.4-1.7-4.6-2.7-2-.9-3.5-1.6-4.5-2.2s-1.8-1.5-2.4-2.5-.9-2.1-.9-3.3c0-1.8.6-3.2 1.8-4.4s2.8-1.8 4.7-1.8c1 0 2 .2 3 .5.9.3 1.9 1.1 2.9 2.1.6-.7.9-1.4 1-2.2h.8v6.5h-.8c-.5-1.9-1.3-3.4-2.5-4.5s-2.5-1.6-4.1-1.6c-1.5 0-2.6.4-3.3 1.2s-1 1.7-1 2.6c0 1.1.4 2.1 1.3 2.9s2.4 1.7 4.6 2.7c2.1 1 3.7 1.7 4.7 2.3s1.7 1.4 2.3 2.4.9 2.2.9 3.6c0 2.1-.7 3.9-2.1 5.2s-3.3 2-5.7 2c-2.7 0-5-1-6.8-3.1-.4.6-.7 1.4-.9 2.4z" transform="matrix(.39 0 0 1.4 198.846 106.34)"/><path d="m503.9 122.5v-.8h11.4v.8h-.5c-1.2 0-2 .1-2.4.3s-.6.6-.8 1.1c-.1.5-.2 1.9-.2 3.9v12.2c0 2 0 3.2.1 3.8s.3 1.1.7 1.3c.4.3 1.2.4 2.3.4h.7v.8h-11.4v-.8h.7c1.1 0 1.8-.1 2.2-.4s.7-.7.8-1.3.2-1.9.2-4v-12.2c0-2-.1-3.3-.2-3.8-.1-.6-.4-1-.7-1.2-.4-.2-1.2-.3-2.5-.3h-.4z" transform="matrix(.39 0 0 1.4 198.846 106.34)"/><path d="m515.7 133.9c0-3.8 1.3-6.9 3.8-9.2 2.6-2.3 5.8-3.5 9.6-3.5 3.9 0 7.1 1.1 9.7 3.4s3.9 5.4 3.9 9.4c0 3.8-1.2 7-3.7 9.3-2.5 2.4-5.8 3.6-9.8 3.6-3.9 0-7.2-1.2-9.7-3.6-2.6-2.3-3.8-5.4-3.8-9.4zm4.2.2c0 4 .8 7 2.4 9s4 3 7.2 3c2.8 0 5-1 6.6-3s2.4-5 2.4-9c0-3.9-.8-6.8-2.4-8.9s-3.9-3.1-7-3.1c-3 0-5.3 1-6.9 3-1.5 2.1-2.3 5-2.3 9z" transform="matrix(.39 0 0 1.4 198.846 106.34)"/><path d="m565.3 147.1-17.6-23.3v17.2c0 1.4.1 2.4.2 2.8.1.5.5.9 1.2 1.2s1.6.6 3 .6v.8h-9.3v-.8c1.2-.1 2.1-.3 2.7-.7.6-.3 1-.7 1.1-1.1s.2-1.4.2-2.9v-13.2c0-1.9-.1-3.2-.3-3.8s-.5-1.1-.8-1.2-1.2-.3-2.6-.3v-.8h7.3l14.7 19.4v-14.9c0-1.1-.1-1.9-.3-2.3s-.7-.8-1.4-1c-.7-.3-1.5-.4-2.5-.4v-.8h9v.8c-1 .1-1.9.3-2.5.6s-1 .7-1.2 1.1-.2 1.2-.2 2.3v20.5h-.7z" transform="matrix(.39 0 0 1.4 198.846 106.34)"/><path d="m591.7 138.8h.9l-.5 7.7h-20.6v-.8h.5c1.2 0 2-.2 2.4-.5s.6-.7.7-1.3c.1-.5.1-1.8.1-3.9v-12.2c0-1.9-.1-3.1-.2-3.7s-.3-1-.7-1.3c-.4-.2-1.2-.4-2.4-.4v-.8h17.7l.6 6.2h-.9c-.4-1.7-.9-3-1.4-3.7-.6-.7-1.2-1.2-2-1.4s-2-.3-3.8-.3h-3.4v10.4h2.6c1.2 0 2.1-.1 2.5-.3.5-.2.8-.5 1-.9s.2-1.2.2-2.5h.9v8.5h-.9c0-1.4-.1-2.3-.3-2.8s-.6-.8-1-.9-1.2-.2-2.3-.2h-2.7v5.9c0 2.9.2 4.7.6 5.2s1.4.8 3.1.8h1.8c1.3 0 2.4-.2 3.2-.5s1.6-1 2.4-2.1c.9-.9 1.5-2.4 1.9-4.2z" transform="matrix(.39 0 0 1.4 198.846 106.34)"/><path d="m619.8 146.5h-6.7c-1.2-.8-3-3-5.4-6.5-.8-1.1-1.6-2.2-2.4-3.2s-1.4-1.7-1.7-1.9-.8-.3-1.5-.3h-1v5.5c0 2 0 3.2.1 3.8s.3 1.1.7 1.3c.4.3 1.2.4 2.3.4h1.2v.8h-11.9v-.8h.8c1.1 0 1.8-.1 2.2-.4s.7-.7.8-1.3.2-1.9.2-4v-12.2c0-2-.1-3.3-.2-3.8-.1-.6-.4-1-.7-1.2-.4-.2-1.2-.3-2.5-.3h-.4v-.8l3.6-.2c2.4-.1 4.2-.2 5.6-.2 2.4 0 4.3.2 5.8.7 1.5.4 2.7 1.2 3.6 2.2s1.4 2.2 1.4 3.6c0 1.6-.6 3-1.8 4.2-1.2 1.1-3 1.9-5.3 2.1 1 .5 2.7 2.3 5 5.4 1.9 2.5 3.4 4.2 4.4 5 1.1.8 2.3 1.2 3.8 1.2zm-18.8-12.8c.9 0 1.9-.1 2.8-.1s1.8-.2 2.5-.4 1.3-.5 1.7-1c.4-.4.8-1 1.1-1.7s.4-1.5.4-2.5c0-1.7-.4-3.1-1.3-4.2-.9-1-2.8-1.6-5.7-1.6-.5 0-1 0-1.6.1v11.4z" transform="matrix(.39 0 0 1.4 198.846 106.34)"/><path d="m620.8 146.3v-8h.9c1 5.2 3.5 7.8 7.4 7.8 1.7 0 3.1-.5 4.1-1.5s1.4-2.1 1.4-3.3-.4-2.3-1.3-3.1c-.8-.8-2.4-1.7-4.6-2.7-2-.9-3.5-1.6-4.5-2.2s-1.8-1.5-2.4-2.5-.9-2.1-.9-3.3c0-1.8.6-3.2 1.8-4.4s2.8-1.8 4.7-1.8c1 0 2 .2 3 .5.9.3 1.9 1.1 2.9 2.1.6-.7.9-1.4 1-2.2h.8v6.5h-.8c-.5-1.9-1.3-3.4-2.5-4.5s-2.5-1.6-4.1-1.6c-1.5 0-2.6.4-3.3 1.2s-1 1.7-1 2.6c0 1.1.4 2.1 1.3 2.9s2.4 1.7 4.6 2.7c2.1 1 3.7 1.7 4.7 2.3s1.7 1.4 2.3 2.4.9 2.2.9 3.6c0 2.1-.7 3.9-2.1 5.2s-3.3 2-5.7 2c-2.7 0-5-1-6.8-3.1-.4.6-.7 1.4-.9 2.4z" transform="matrix(.39 0 0 1.4 198.846 106.34)"/></g><path d="m0 145.4v-36.9h4.2c4.8 24.1 16.2 36.1 34.1 36.1 8.1 0 14.3-2.3 18.8-6.9 4.4-4.6 6.7-9.8 6.7-15.5 0-5.8-1.9-10.6-5.8-14.5-3.9-3.8-11-8-21.4-12.4-9.2-4-16.2-7.4-20.8-10.4-4.7-3-8.3-6.8-11-11.6-2.6-4.7-3.9-9.8-3.9-15.2 0-8.2 2.8-15 8.5-20.5s12.9-8.2 21.6-8.2c4.9 0 9.4.8 13.7 2.4s8.7 4.9 13.2 9.8c2.6-3.1 4.1-6.5 4.4-10.1h3.7v30.1h-3.7c-2.1-8.8-5.9-15.6-11.4-20.7-5.5-5-11.8-7.5-18.9-7.5-6.8 0-11.9 1.8-15 5.5-3.2 3.7-4.8 7.8-4.8 12.2 0 5.3 2 9.8 6 13.5s11.1 7.9 21.4 12.5c9.9 4.4 17.1 8 21.6 10.6 4.5 2.7 8.1 6.4 10.8 11.1s4.1 10.2 4.1 16.4c0 9.8-3.3 17.8-9.8 24-6.6 6.2-15.3 9.2-26.3 9.2-12.6 0-23.1-4.8-31.5-14.5-1.9 2.7-3.2 6.4-4.2 11.2h-4.3z" fill="#3d112c" transform="matrix(.39 0 0 1.4 198.846 106.34)"/><path d="m197.6 146.6h-30.9c-5.5-3.8-13.9-13.9-25.2-30.2-3.6-5.2-7.4-10.2-11.3-15s-6.6-7.7-8.1-8.7-3.8-1.6-6.9-1.6h-4.6v25.5c0 9 .2 15 .6 17.8s1.6 4.9 3.4 6.2c1.8 1.4 5.4 2 10.6 2h5.5v3.9h-55v-3.9h3.7c4.9 0 8.3-.6 10.2-1.9 1.9-1.2 3.1-3.2 3.6-5.8s.8-8.7.8-18.3v-56.3c0-9.2-.3-15.1-.8-17.7-.5-2.7-1.6-4.5-3.4-5.5s-5.5-1.5-11.4-1.5h-1.9v-3.9l16.4-.8c11-.5 19.7-.8 26.1-.8 11 0 19.9 1 26.7 3.1 6.9 2 12.4 5.4 16.7 10 4.2 4.6 6.4 10.2 6.4 16.6 0 7.5-2.8 13.9-8.3 19.2s-13.7 8.6-24.4 9.9c4.8 2.3 12.5 10.7 23.2 25.1 8.7 11.7 15.5 19.3 20.5 23 5 3.6 10.8 5.5 17.6 5.8v3.8zm-86.9-59.3c4.2-.1 8.6-.3 13.1-.5s8.4-.8 11.8-1.9c3.3-1 6-2.5 8.1-4.4s3.7-4.5 4.9-7.7 1.8-7.1 1.8-11.7c0-8.1-2-14.5-6.1-19.4-4-4.9-12.8-7.3-26.4-7.3-2.1 0-4.5.1-7.2.3z" fill="#ac6d5a" transform="matrix(.39 0 0 1.4 198.846 106.34)"/><path d="m280.7 103.5h3.6v40.3h-3.6c-1-4.6-2.9-8.6-5.5-12.1-10.1 11.4-23 17.1-38.7 17.1-16.6 0-30.2-5.3-40.7-15.8s-15.8-24.4-15.8-41.7c0-11.4 2.4-22 7.3-32.1 4.9-10 11.6-17.5 20.3-22.3 8.7-4.9 18.2-7.3 28.6-7.3 8.6 0 16.4 1.8 23.3 5.3 7 3.5 12.2 7.4 15.6 11.7 2.4-4.8 3.9-9.8 4.4-14.9h3.7l1 43.6h-3.6c-2.5-15.5-7.6-26.3-15.5-32.3-7.8-6-16.7-9.1-26.5-9.1-12 0-21.6 4.9-28.7 14.7s-10.6 23.8-10.6 41.9c0 17.2 3.9 30.4 11.6 39.6s17.4 13.8 28.9 13.8c6.2 0 12.5-1.5 18.9-4.5s11.5-8.1 15.3-15.2c3.8-7.2 6-14.1 6.7-20.7z" fill="#a49e89" transform="matrix(.39 0 0 1.4 198.846 106.34)"/><path d="m-1.8-89.15h3.6v178.3h-3.6z" fill="#502440" transform="matrix(.39 0 0 1.4 320.253 231.15)"/></svg>