<?xml version="1.0" standalone="no"?>
<!DOCTYPE svg PUBLIC "-//W3C//DTD SVG 20010904//EN"
 "http://www.w3.org/TR/2001/REC-SVG-20010904/DTD/svg10.dtd">
<svg version="1.0" xmlns="http://www.w3.org/2000/svg"
 width="700.000000pt" height="700.000000pt" viewBox="0 0 700.000000 700.000000"
 preserveAspectRatio="xMidYMid meet">
<metadata>
Created by potrace 1.14, written by Peter Selinger 2001-2017
</metadata>
<g transform="translate(0.000000,700.000000) scale(0.100000,-0.100000)"
fill="#000000" stroke="none">
<path d="M3509 6106 c-2 -2 -42 -7 -89 -10 -47 -4 -98 -9 -115 -12 -38 -6
-144 -25 -171 -30 -11 -2 -65 -15 -120 -30 -118 -30 -115 -29 -134 -37 -8 -3
-40 -13 -70 -23 -228 -71 -554 -250 -785 -431 -117 -92 -294 -266 -399 -393
-99 -121 -91 -110 -162 -215 -179 -263 -316 -573 -393 -888 -37 -151 -42 -175
-65 -362 -14 -106 -16 -535 -3 -595 3 -14 8 -51 12 -84 4 -32 9 -70 12 -85 34
-183 48 -242 88 -371 99 -319 274 -647 482 -905 116 -144 231 -261 389 -395
164 -140 441 -308 660 -400 79 -33 262 -98 298 -105 10 -3 42 -11 70 -19 61
-17 193 -44 256 -52 25 -3 51 -7 57 -9 71 -23 593 -23 683 0 8 2 33 6 55 10
193 27 424 92 615 172 630 264 1143 768 1427 1403 27 60 40 91 93 233 19 51
61 196 57 198 -1 1 -302 3 -670 4 l-667 1 -27 -45 c-192 -334 -536 -590 -908
-676 -146 -34 -310 -45 -460 -30 -217 22 -471 115 -649 238 -89 62 -102 73
-206 177 -136 135 -235 282 -309 456 -29 69 -77 220 -86 273 -2 14 -9 57 -16
95 -13 77 -17 291 -6 376 42 344 189 649 426 880 145 142 256 217 435 296 78
34 222 80 281 90 17 2 55 9 85 14 93 16 382 5 481 -18 399 -93 732 -338 931
-683 l27 -45 668 0 c431 1 668 5 667 11 -4 29 -81 262 -111 335 -183 443 -460
814 -823 1103 -139 111 -150 119 -281 200 -315 194 -677 319 -1064 368 -83 10
-458 22 -466 15z"/>
<path d="M3618 4205 c-2 -1 -30 -5 -63 -8 -105 -10 -248 -67 -354 -140 -101
-69 -256 -256 -263 -317 -3 -20 8 -25 94 -52 l96 -29 159 41 c87 23 167 44
178 46 11 2 95 24 186 47 107 28 173 41 186 36 26 -9 476 -340 521 -382 39
-38 43 -83 10 -121 -48 -54 -66 -48 -283 95 l-199 131 -120 -32 c-67 -18 -139
-38 -161 -45 -22 -7 -52 -15 -66 -19 -53 -12 -69 -95 -26 -132 23 -20 36 -22
137 -21 123 0 143 -8 143 -59 0 -50 -19 -54 -229 -54 -218 0 -188 -9 -399 115
-91 54 -315 158 -322 151 -2 -2 -4 -34 -5 -72 -7 -376 229 -711 581 -824 81
-26 142 -34 256 -33 209 1 404 84 559 237 65 64 132 153 122 163 -3 3 -40 16
-83 28 l-76 22 -191 -49 c-105 -27 -225 -58 -266 -69 -41 -11 -83 -22 -93 -24
-9 -2 -44 -11 -77 -19 -33 -9 -68 -13 -77 -9 -42 14 -529 377 -550 409 -35 54
33 143 95 125 15 -5 109 -63 209 -130 101 -66 190 -121 198 -121 9 0 91 20
183 45 188 52 219 71 208 129 -13 61 -33 70 -162 71 -102 0 -118 3 -130 20
-18 24 -18 46 0 71 13 17 29 19 196 21 122 1 196 -3 224 -11 23 -7 91 -42 151
-77 128 -76 292 -157 335 -165 24 -5 29 -3 29 12 1 11 3 69 7 129 25 459 -333
854 -788 870 -43 1 -79 1 -80 0z"/>
</g>
</svg>
