<?xml version="1.0" standalone="no"?>
<!DOCTYPE svg PUBLIC "-//W3C//DTD SVG 20010904//EN"
 "http://www.w3.org/TR/2001/REC-SVG-20010904/DTD/svg10.dtd">
<svg version="1.0" xmlns="http://www.w3.org/2000/svg"
 width="700.000000pt" height="700.000000pt" viewBox="0 0 700.000000 700.000000"
 preserveAspectRatio="xMidYMid meet">
<metadata>
Created by potrace 1.14, written by Peter Selinger 2001-2017
</metadata>
<g transform="translate(0.000000,700.000000) scale(0.100000,-0.100000)"
fill="#000000" stroke="none">
<path d="M1244 4220 c-541 -123 -858 -650 -714 -1187 56 -208 198 -403 386
-528 433 -290 1019 -175 1310 257 47 69 105 190 122 252 l10 36 -239 0 -238 0
-15 -27 c-8 -16 -39 -54 -70 -85 -110 -111 -271 -164 -430 -141 -403 58 -568
556 -281 849 165 168 430 199 626 73 52 -33 154 -137 163 -166 5 -17 24 -18
238 -17 128 1 236 2 240 3 11 2 -38 133 -76 203 -74 136 -172 244 -301 333
-161 111 -301 155 -510 160 -110 3 -157 -1 -221 -15z"/>
<path d="M2710 4217 c-55 -37 -75 -81 -75 -167 0 -57 5 -83 20 -110 60 -102
224 -101 280 2 22 42 19 48 -21 51 -22 2 -34 -4 -49 -27 -25 -37 -63 -48 -103
-29 -36 18 -52 50 -52 109 0 100 50 147 128 120 13 -4 27 -18 32 -30 7 -18 16
-23 41 -22 39 2 45 15 24 56 -36 70 -155 95 -225 47z"/>
<path d="M4168 4216 c-7 -36 2 -46 38 -46 33 0 35 2 32 33 -2 29 -5 32 -34 34
-26 1 -33 -3 -36 -21z"/>
<path d="M4835 4232 c-3 -3 -5 -18 -5 -34 0 -27 2 -29 37 -26 32 3 37 6 38 31
0 15 -2 28 -5 29 -15 4 -60 4 -65 0z"/>
<path d="M3063 4139 c-44 -13 -76 -61 -81 -124 -8 -99 50 -160 146 -151 81 7
122 55 122 143 0 52 -25 104 -59 123 -30 16 -91 20 -128 9z m92 -74 c27 -26
32 -65 16 -108 -19 -50 -90 -47 -111 3 -16 39 -5 95 23 115 30 21 44 19 72
-10z"/>
<path d="M3415 4142 c-11 -2 -28 -11 -37 -20 -16 -14 -18 -14 -18 1 0 13 -9
17 -35 17 l-35 0 0 -135 0 -135 35 0 c21 0 35 5 36 13 0 6 0 48 -1 92 -1 67 2
84 17 97 17 15 48 17 61 3 5 -5 10 -76 12 -177 0 -25 4 -28 35 -28 l35 0 0 93
c0 50 4 97 8 103 14 21 42 24 60 6 14 -14 18 -35 17 -110 l0 -92 39 0 38 0 -4
115 c-3 99 -6 117 -24 135 -33 34 -133 24 -134 -13 0 -7 -7 -4 -14 6 -16 20
-62 35 -91 29z"/>
<path d="M3842 4139 c-11 -4 -23 -12 -27 -18 -10 -17 -28 -13 -21 5 5 12 -1
15 -31 12 l-38 -3 0 -115 c-1 -148 0 -150 40 -150 l32 0 1 95 c1 104 2 110 31
118 43 11 54 -13 55 -116 l1 -97 36 0 35 0 -1 73 c0 39 2 85 5 101 6 34 40 51
65 32 14 -10 17 -30 17 -109 l1 -97 37 0 37 0 -2 108 c-1 60 -8 118 -14 130
-16 31 -76 45 -112 27 -15 -8 -31 -20 -34 -26 -5 -7 -12 -3 -21 9 -15 22 -61
32 -92 21z"/>
<path d="M4354 4143 c-37 -7 -68 -49 -67 -90 1 -42 10 -49 98 -78 64 -21 78
-44 35 -55 -26 -7 -60 5 -72 25 -9 15 -70 14 -75 -2 -2 -6 8 -26 24 -43 22
-25 38 -32 75 -35 54 -4 110 9 127 29 7 8 14 29 17 48 8 46 -18 72 -91 93 -74
21 -75 22 -68 40 7 20 72 20 79 0 7 -17 74 -21 74 -4 0 53 -76 88 -156 72z"/>
<path d="M4624 4143 c-49 -9 -86 -84 -61 -124 7 -12 40 -28 80 -40 37 -12 70
-25 73 -31 20 -32 -69 -42 -95 -11 -9 11 -30 20 -48 22 -29 2 -32 0 -28 -20 8
-41 47 -70 101 -74 95 -8 154 36 139 106 -7 32 -32 48 -107 69 -26 7 -49 18
-52 26 -12 31 59 38 77 7 9 -15 77 -18 77 -2 0 19 -20 48 -42 60 -23 12 -80
18 -114 12z"/>
<path d="M5020 4137 c-72 -32 -98 -133 -56 -215 42 -82 200 -78 235 6 30 72
20 140 -28 186 -33 31 -106 43 -151 23z m100 -67 c21 -21 24 -33 20 -85 -5
-83 -113 -88 -121 -5 -6 66 19 110 61 110 11 0 29 -9 40 -20z"/>
<path d="M5363 4138 c-13 -6 -23 -15 -23 -20 0 -5 -5 -6 -10 -3 -6 4 -8 11 -5
16 4 5 -11 9 -32 9 l-38 0 1 -127 c1 -71 2 -132 3 -136 1 -5 16 -7 34 -5 l32
3 1 75 c1 101 8 126 38 134 55 14 66 -7 66 -131 l0 -83 35 0 35 0 0 113 c0
106 -2 115 -24 136 -27 26 -82 35 -113 19z"/>
<path d="M5628 4142 c-29 -4 -87 -57 -89 -81 -7 -90 -6 -108 7 -133 30 -57
121 -86 177 -56 28 14 57 47 57 65 0 18 -64 17 -80 -2 -15 -18 -64 -20 -78 -2
-5 6 -12 21 -14 32 -3 18 3 20 77 21 44 1 86 2 93 3 9 1 11 12 7 42 -13 86
-65 123 -157 111z m67 -68 c25 -25 12 -39 -38 -41 -51 -2 -61 12 -31 41 20 21
48 20 69 0z"/>
<path d="M5940 4138 c-14 -5 -31 -16 -37 -25 -12 -15 -13 -15 -13 5 0 18 -6
22 -35 22 l-35 0 0 -135 0 -135 35 0 35 0 1 48 c0 80 5 131 12 138 3 3 20 9
38 13 25 5 33 12 34 31 4 38 -6 49 -35 38z"/>
<path d="M4169 4123 c0 -10 -2 -71 -2 -135 l-2 -118 38 0 37 0 0 135 0 135
-35 0 c-26 0 -35 -4 -36 -17z"/>
<path d="M4830 4006 l0 -136 34 0 c42 0 42 2 41 150 l-1 115 -37 3 -37 3 0
-135z"/>
<path d="M3480 3721 c-62 -32 -80 -108 -37 -155 21 -24 99 -56 136 -56 10 0
29 -8 42 -19 22 -18 22 -19 6 -45 -14 -21 -25 -26 -58 -26 -47 0 -79 14 -79
35 0 8 -3 16 -7 16 -78 12 -80 11 -62 -39 23 -67 148 -99 228 -58 54 29 74 91
46 145 -15 30 -34 40 -135 69 -52 14 -66 22 -68 39 -8 51 86 65 123 19 15 -19
30 -26 54 -26 31 0 33 2 26 28 -20 79 -132 118 -215 73z"/>
<path d="M2690 3710 c-11 -11 -20 -33 -20 -50 0 -23 -4 -30 -20 -30 -15 0 -20
-7 -20 -25 0 -18 5 -25 20 -25 19 0 20 -7 20 -108 l0 -108 35 0 35 0 0 108 c0
106 0 108 23 108 17 0 23 6 25 25 1 21 -3 25 -23 25 -32 0 -36 37 -4 42 15 2
23 11 25 31 2 25 0 27 -37 27 -26 0 -46 -7 -59 -20z"/>
<path d="M4502 3698 c3 -29 6 -33 36 -34 30 -1 32 1 32 32 0 32 -2 34 -36 34
-34 0 -35 -1 -32 -32z"/>
<path d="M2855 3618 c-55 -43 -70 -129 -36 -197 28 -54 84 -74 162 -58 46 9
69 35 84 94 20 77 -10 150 -70 173 -46 17 -110 12 -140 -12z m129 -60 c9 -12
16 -37 16 -55 0 -32 -18 -82 -29 -84 -3 0 -15 -2 -26 -4 -65 -12 -100 98 -49
150 23 23 70 19 88 -7z"/>
<path d="M3115 3631 c-8 -8 -5 -261 3 -262 43 -6 62 -4 63 5 0 6 2 45 3 87 1
41 6 80 10 87 3 6 22 14 42 18 32 6 34 9 32 40 -2 40 -22 44 -61 14 -23 -18
-26 -19 -29 -3 -3 15 -52 26 -63 14z"/>
<path d="M3749 3622 c-1 -25 -1 -121 0 -170 1 -57 35 -92 89 -92 21 0 47 7 58
15 22 17 38 20 29 5 -3 -5 -3 -11 2 -11 4 -1 20 -3 36 -5 l27 -3 0 137 0 137
-35 0 -35 0 -1 -80 c-1 -100 -3 -114 -25 -130 -13 -9 -26 -10 -46 -3 -27 10
-27 10 -30 111 l-3 101 -32 2 c-25 2 -33 -2 -34 -14z"/>
<path d="M4047 3625 c-3 -9 -2 -207 2 -246 1 -12 10 -16 34 -15 l32 1 1 85 c2
74 5 86 24 102 12 10 31 18 41 18 15 0 19 7 19 35 0 29 -4 35 -20 35 -12 0
-32 -12 -45 -26 l-25 -27 0 24 c0 20 -5 24 -30 24 -16 1 -31 -4 -33 -10z"/>
<path d="M4210 3624 c0 -7 21 -69 46 -138 l46 -125 36 2 c36 2 36 2 70 92 18
50 40 109 47 133 l13 42 -39 0 c-34 0 -39 -3 -45 -27 -3 -16 -15 -59 -26 -98
l-20 -70 -24 80 c-13 44 -23 87 -24 96 0 20 -80 33 -80 13z"/>
<path d="M4504 3631 c-2 -2 -4 -64 -4 -138 l0 -134 35 3 35 2 0 136 0 136 -31
-1 c-17 0 -33 -2 -35 -4z"/>
<path d="M4629 3631 l-27 -6 47 -130 46 -130 37 -2 c41 -2 30 -21 102 175 l34
92 -39 0 -38 0 -21 -72 c-12 -40 -25 -84 -29 -97 -6 -21 -11 -10 -31 60 -14
46 -24 87 -22 91 4 13 -32 25 -59 19z"/>
<path d="M4935 3618 c-33 -26 -55 -75 -55 -124 0 -44 34 -107 66 -124 31 -17
103 -16 139 1 86 42 90 202 6 252 -42 25 -121 23 -156 -5z m125 -53 c7 -8 15
-34 17 -58 9 -80 -62 -125 -109 -67 -28 35 -20 109 16 132 19 13 63 9 76 -7z"/>
<path d="M5195 3632 c-8 -8 -6 -262 3 -263 43 -6 62 -4 63 5 0 6 2 45 3 87 1
41 6 80 10 87 3 6 22 14 41 18 32 6 35 9 35 41 0 33 -1 35 -27 28 -16 -3 -36
-14 -45 -22 -16 -15 -18 -15 -18 0 0 10 -3 17 -7 18 -5 0 -18 2 -31 3 -12 2
-24 0 -27 -2z"/>
<path d="M5430 3633 c-36 -13 -60 -47 -60 -85 0 -45 17 -58 103 -82 45 -13 58
-21 55 -34 -5 -27 -73 -29 -90 -3 -17 28 -78 30 -78 3 0 -29 22 -52 64 -66 73
-25 159 0 172 49 15 61 -16 97 -101 118 -51 12 -71 39 -40 51 23 9 65 -4 65
-19 0 -8 13 -13 35 -13 38 0 46 18 22 49 -26 34 -98 50 -147 32z"/>
<path d="M1360 3571 c-126 -39 -204 -146 -205 -281 0 -87 23 -144 82 -205 130
-134 366 -100 458 66 27 48 30 63 30 139 0 64 -5 95 -20 125 -29 60 -102 127
-160 148 -51 17 -140 21 -185 8z"/>
<path d="M3006 3222 c-29 -6 -44 -25 -48 -63 -3 -19 -9 -34 -14 -34 -20 0 -32
-16 -27 -35 3 -10 8 -19 12 -18 24 3 27 -9 26 -104 -1 -95 1 -103 20 -109 48
-13 53 -3 53 94 0 118 0 127 10 126 24 -4 33 3 30 24 -2 15 -9 21 -21 19 -14
-3 -18 2 -15 20 2 13 10 23 18 23 10 0 15 10 15 29 0 30 -14 37 -59 28z"/>
<path d="M3253 3222 c-23 -3 -23 -5 -23 -182 0 -161 2 -178 18 -182 9 -3 26
-2 37 2 19 7 20 17 20 183 0 189 1 187 -52 179z"/>
<path d="M4080 3193 c0 -31 2 -33 35 -33 32 0 35 2 35 30 0 17 -3 30 -7 31
-61 6 -63 6 -63 -28z"/>
<path d="M4819 3220 c-10 -54 -6 -60 32 -60 35 0 38 2 37 30 -1 17 -4 31 -7
31 -20 5 -61 4 -62 -1z"/>
<path d="M5820 3221 c-13 -5 -15 -34 -15 -181 l0 -175 35 -3 35 -3 0 177 c0
168 -1 177 -20 184 -11 4 -27 5 -35 1z"/>
<path d="M3930 3159 c0 -32 -3 -40 -15 -35 -8 3 -15 2 -16 -2 0 -4 -2 -18 -5
-31 -4 -19 -1 -23 16 -18 19 5 20 0 20 -87 0 -105 9 -124 58 -131 46 -5 60 2
60 31 0 18 -6 24 -23 24 -21 0 -22 4 -22 83 -1 79 0 83 21 83 16 -1 21 5 21
24 0 14 -6 26 -13 26 -6 1 -17 2 -23 3 -7 1 -10 15 -7 36 4 35 4 35 -34 35
-38 0 -38 0 -38 -41z"/>
<path d="M4215 3163 c0 -30 -4 -38 -17 -37 -14 1 -18 -6 -18 -28 0 -22 4 -28
17 -26 15 3 17 -8 18 -95 1 -55 6 -102 12 -108 6 -6 30 -12 54 -12 41 -2 44 0
47 26 3 22 -1 27 -17 27 -12 0 -21 3 -22 8 0 4 -1 40 -2 80 -2 69 1 77 31 73
7 -1 12 9 12 24 0 22 -9 30 -32 26 -8 -1 -11 18 -10 57 1 19 -4 22 -36 22 -37
0 -38 -1 -37 -37z"/>
<path d="M4669 3175 c-3 -46 -4 -50 -22 -49 -12 1 -17 -6 -17 -27 0 -22 5 -29
20 -29 19 0 20 -7 20 -95 0 -87 2 -96 23 -109 24 -16 65 -18 83 -4 17 13 5 48
-17 48 -16 0 -19 8 -20 63 -1 34 0 69 1 77 2 17 21 31 32 24 4 -3 8 9 8 26 0
24 -4 30 -17 28 -14 -2 -19 5 -21 35 -3 35 -5 37 -38 37 -29 0 -34 -3 -35 -25z"/>
<path d="M2724 3129 c-42 -12 -70 -46 -85 -100 -11 -41 -10 -53 5 -94 22 -58
63 -85 126 -85 57 0 89 17 113 58 39 67 24 162 -33 203 -30 22 -83 30 -126 18z
m69 -60 c31 -17 37 -28 37 -80 0 -63 -34 -93 -87 -75 -51 17 -50 136 1 156 28
11 24 12 49 -1z"/>
<path d="M3474 3130 c-12 -5 -25 -13 -29 -19 -10 -17 -25 -13 -19 4 5 12 -2
15 -32 15 l-39 0 2 -127 c1 -71 2 -131 2 -135 1 -5 17 -8 36 -8 l35 0 0 88 c0
89 8 113 41 125 9 3 26 -1 38 -9 19 -14 21 -25 21 -109 0 -99 5 -108 53 -97
18 4 18 8 18 122 0 33 0 69 0 79 -2 48 -77 90 -127 71z"/>
<path d="M3703 3125 c-53 -22 -75 -89 -41 -124 10 -11 44 -28 76 -37 70 -20
83 -31 59 -49 -23 -17 -66 -10 -89 15 -20 22 -75 20 -70 -1 11 -54 51 -79 124
-79 113 0 163 110 71 158 -12 7 -29 12 -38 12 -8 0 -31 7 -50 14 -25 11 -33
19 -29 30 8 21 58 21 79 0 15 -16 60 -23 71 -11 11 10 -7 47 -29 62 -32 20
-98 25 -134 10z"/>
<path d="M5023 3129 c-61 -13 -94 -61 -95 -139 0 -94 57 -147 151 -138 57 6
87 26 107 75 18 43 18 84 -2 133 -24 60 -85 86 -161 69z m83 -71 c35 -27 17
-147 -23 -149 -55 -4 -83 24 -83 83 0 69 58 105 106 66z"/>
<path d="M5360 3132 c-8 -2 -23 -11 -32 -20 -16 -14 -18 -13 -18 1 0 13 -9 17
-35 17 l-35 0 0 -135 0 -135 35 0 35 0 0 88 c1 59 5 93 15 106 16 22 63 25 76
5 5 -8 9 -55 9 -105 l0 -92 34 -4 c42 -5 43 -4 40 126 -1 89 -4 100 -25 121
-24 24 -71 36 -99 27z"/>
<path d="M5603 3130 c-42 -10 -59 -24 -72 -61 -10 -28 -9 -29 25 -29 21 0 37
6 40 14 8 20 31 27 60 20 25 -6 32 -28 13 -40 -6 -3 -28 -9 -48 -11 -83 -12
-121 -59 -95 -121 22 -53 81 -64 138 -27 24 16 26 16 26 1 0 -12 10 -16 40
-16 37 0 52 11 32 24 -4 3 -8 42 -7 88 1 46 -3 95 -8 110 -13 40 -81 63 -144
48z m80 -174 c-11 -57 -85 -77 -91 -25 -3 24 2 28 40 41 52 17 57 16 51 -16z"/>
<path d="M4079 3103 c-3 -112 3 -238 12 -244 6 -3 21 -4 35 -1 l24 4 0 134 0
134 -35 0 c-31 0 -35 -3 -36 -27z"/>
<path d="M4360 3031 c0 -54 5 -112 11 -129 18 -53 104 -67 153 -24 18 16 19
16 13 1 -4 -13 2 -18 29 -21 39 -5 36 -16 35 146 0 60 -5 114 -10 119 -5 5
-19 7 -32 5 -23 -3 -24 -7 -29 -101 -5 -103 -12 -117 -57 -117 -33 0 -43 29
-43 129 l0 91 -35 0 -35 0 0 -99z"/>
<path d="M4819 3118 c-1 -7 -2 -67 -3 -133 -1 -128 2 -136 50 -127 21 4 22 7
21 138 l0 134 -34 0 c-19 0 -34 -5 -34 -12z"/>
<path d="M2757 2720 c-106 -19 -160 -172 -103 -292 50 -105 229 -109 281 -8
23 45 19 57 -17 55 -48 -4 -48 -4 -48 -19 0 -22 -40 -46 -75 -46 -47 0 -77 38
-83 103 -5 64 17 122 52 138 33 15 85 1 100 -26 6 -11 12 -22 13 -24 2 -2 18
-5 38 -6 30 -1 35 2 35 20 0 12 -9 34 -21 49 -38 48 -100 68 -172 56z"/>
<path d="M3002 2710 c-6 -4 -8 -317 -3 -352 1 -5 16 -8 35 -8 34 0 34 0 34 48
-1 143 2 157 42 166 47 11 54 -4 55 -111 l0 -98 37 -3 37 -3 -1 112 c-1 98 -3
114 -22 135 -35 38 -113 38 -138 0 -5 -6 -8 0 -9 14 -4 108 -2 103 -32 104
-15 1 -31 -1 -35 -4z"/>
<path d="M3292 2685 c1 -32 4 -35 30 -33 30 2 45 19 44 48 -1 10 -13 16 -38
17 -37 2 -37 1 -36 -32z"/>
<path d="M3424 2711 c-2 -2 -4 -85 -4 -183 l0 -178 35 0 35 0 0 184 0 184 -31
-2 c-17 0 -32 -3 -35 -5z"/>
<path d="M3720 2651 l0 -64 -21 19 c-27 24 -92 23 -121 -2 -64 -57 -64 -179 0
-238 28 -25 95 -26 122 -1 18 16 25 14 21 -7 0 -4 14 -7 32 -5 l32 2 5 110 c3
61 4 143 2 183 l-4 73 -34 -3 -34 -2 0 -65z m-13 -110 c17 -22 16 -92 -2 -115
-8 -10 -26 -18 -40 -18 -40 0 -59 25 -59 78 0 37 5 50 23 65 26 21 57 17 78
-10z"/>
<path d="M3860 2713 c-13 -3 -15 -29 -14 -176 1 -95 2 -175 3 -179 0 -5 15 -8
31 -8 17 0 31 3 31 8 1 4 2 41 4 82 2 95 10 118 42 126 43 11 56 -14 59 -113
1 -48 2 -92 3 -96 0 -5 16 -7 34 -5 l32 3 1 105 c0 116 -8 140 -56 160 -28 12
-41 10 -101 -14 -13 -6 -15 2 -14 49 1 30 -1 55 -4 56 -3 0 -13 2 -21 3 -8 1
-22 1 -30 -1z"/>
<path d="M4908 2703 c-2 -10 -3 -40 -2 -66 2 -46 2 -48 -16 -32 -41 37 -118
22 -149 -29 -50 -81 -22 -199 53 -224 35 -11 44 -10 78 6 30 15 38 16 38 6 0
-9 12 -14 34 -14 l34 0 -1 182 -2 182 -31 3 c-24 3 -33 -1 -36 -14z m-27 -152
c32 -26 33 -106 1 -131 -26 -22 -69 -15 -83 13 -16 29 -5 105 17 122 25 19 38
18 65 -4z"/>
<path d="M5241 2691 c-16 -41 -121 -333 -121 -337 0 -2 18 -4 40 -4 37 0 40 2
50 38 l12 37 61 0 c73 0 82 -5 90 -45 6 -27 10 -30 47 -30 49 0 51 -16 -28
204 l-57 160 -42 2 c-36 1 -43 -2 -52 -25z m89 -188 c0 -9 -15 -13 -41 -13
-40 0 -41 0 -34 31 4 18 14 48 22 68 l16 36 18 -55 c10 -30 19 -61 19 -67z"/>
<path d="M5490 2534 l0 -184 35 0 c26 0 35 4 35 17 0 14 2 14 21 -3 29 -26 93
-23 125 6 43 42 57 135 28 196 -28 59 -97 80 -145 45 l-28 -21 -3 62 -3 63
-32 1 -33 1 0 -183z m171 10 c6 -8 12 -35 13 -60 0 -37 -4 -50 -23 -65 -26
-21 -58 -18 -78 9 -21 26 -16 98 7 120 23 21 62 19 81 -4z"/>
<path d="M4194 2614 c-80 -39 -93 -173 -23 -240 22 -21 38 -27 76 -28 71 -1
95 9 123 51 46 68 25 184 -40 218 -37 19 -96 19 -136 -1z m111 -64 c20 -23 24
-85 6 -118 -16 -30 -55 -38 -86 -18 -21 14 -25 24 -25 66 0 37 5 55 20 70 25
25 62 26 85 0z"/>
<path d="M4488 2614 c-33 -17 -68 -81 -68 -123 0 -46 28 -108 58 -127 35 -23
120 -24 155 -1 68 44 81 149 26 224 -30 43 -118 56 -171 27z m112 -64 c23 -23
28 -96 8 -123 -21 -26 -61 -31 -88 -9 -17 14 -23 29 -23 65 -2 77 56 114 103
67z"/>
<path d="M6128 2614 c-35 -18 -57 -61 -49 -94 7 -28 51 -54 119 -71 32 -7 42
-14 40 -27 -5 -27 -76 -29 -95 -3 -20 29 -73 29 -73 1 0 -28 46 -70 79 -72 65
-4 78 -4 103 4 38 13 61 43 60 79 -1 41 -26 67 -76 80 -66 18 -86 28 -86 43 0
14 33 24 63 18 9 -2 17 -10 17 -18 0 -10 12 -14 39 -14 l40 0 -11 31 c-18 53
-110 76 -170 43z"/>
<path d="M6402 2614 c-81 -41 -93 -194 -19 -246 32 -23 97 -31 136 -16 26 9
60 46 61 66 0 17 -56 15 -85 -4 -38 -25 -84 -4 -85 38 0 15 10 17 78 17 105
-1 102 -2 102 26 0 39 -26 92 -54 110 -37 25 -95 29 -134 9z m98 -65 c7 -11 9
-24 5 -27 -10 -10 -95 -9 -95 1 0 46 69 66 90 26z"/>
<path d="M3290 2485 l0 -135 35 0 c19 0 35 3 36 8 0 4 2 64 2 135 l2 127 -37
0 -38 0 0 -135z"/>
<path d="M5786 2515 c1 -117 11 -149 55 -164 34 -12 63 -7 95 14 21 14 24 14
24 0 0 -11 10 -15 35 -15 l35 0 0 135 0 135 -35 0 c-26 0 -35 -4 -36 -17 0
-10 -2 -45 -3 -78 -1 -33 -3 -70 -4 -83 -2 -28 -44 -47 -73 -32 -17 10 -19 22
-19 110 l0 100 -38 0 -37 0 1 -105z"/>
</g>
</svg>
