<?xml version="1.0" encoding="utf-8"?>
<!-- Generator: Adobe Illustrator 26.5.0, SVG Export Plug-In . SVG Version: 6.00 Build 0)  -->
<svg version="1.1" id="Layer_1" xmlns="http://www.w3.org/2000/svg" xmlns:xlink="http://www.w3.org/1999/xlink" x="0px" y="0px"
	 viewBox="0 0 424.8 106.3" style="enable-background:new 0 0 424.8 106.3;" xml:space="preserve">
<style type="text/css">
	.st0{fill:#91B8E2;}
	.st1{fill:#4578BB;}
	.st2{fill:#FFFFFF;}
</style>
<g>
	<g>
		<rect x="0" class="st0" width="177.2" height="87.6"/>
		<rect y="90.3" class="st1" width="177.1" height="15.9"/>
		<g>
			<path class="st2" d="M39.2,44h23.5V29.5c0-2.6-0.2-4.3-0.5-5.1c-0.2-0.6-0.8-1.2-1.6-1.6c-1.1-0.6-2.2-0.9-3.4-0.9h-1.8v-1.4H77
				v1.4h-1.8c-1.2,0-2.3,0.3-3.4,0.9c-0.8,0.4-1.3,1-1.6,1.8c-0.3,0.8-0.4,2.5-0.4,4.9v32.6c0,2.6,0.2,4.2,0.5,5.1
				c0.3,0.6,0.8,1.2,1.5,1.6c1.1,0.6,2.2,0.9,3.4,0.9H77V71H55.4v-1.4h1.8c2.1,0,3.6-0.6,4.5-1.8c0.6-0.8,0.9-2.7,0.9-5.7V46.7H39.2
				v15.4c0,2.6,0.2,4.2,0.5,5.1c0.3,0.6,0.8,1.2,1.6,1.6c1.1,0.6,2.2,0.9,3.4,0.9h1.8V71H24.8v-1.4h1.8c2.1,0,3.6-0.6,4.5-1.8
				c0.6-0.8,0.9-2.7,0.9-5.7V29.5c0-2.6-0.2-4.3-0.5-5.1c-0.2-0.6-0.8-1.2-1.5-1.6c-1.1-0.6-2.2-0.9-3.4-0.9h-1.8v-1.4h21.6v1.4
				h-1.8c-1.2,0-2.3,0.3-3.4,0.9c-0.8,0.4-1.3,1-1.6,1.8c-0.3,0.8-0.4,2.5-0.4,4.9V44z"/>
			<path class="st2" d="M147.5,68c-1.2-1-2.4-3.2-3.9-6.6l-17.6-42h-1.3L107,60.9c-1.5,3.7-2.9,6.1-4.2,7.3c-0.6,0.5-1.8,1-3.6,1.4
				c-0.8-0.1-1.6-0.4-2.3-0.8c-0.8-0.4-1.3-1-1.6-1.6c-0.3-0.8-0.5-2.5-0.5-5.1V29.5c0-3,0.3-4.9,0.9-5.7c0.9-1.2,2.4-1.8,4.5-1.8
				h1.8v-1.4H80.5v1.4h1.8c1.2,0,2.3,0.3,3.4,0.9c0.8,0.4,1.3,1,1.5,1.6c0.3,0.8,0.5,2.5,0.5,5.1v32.6c0,3-0.3,4.9-0.9,5.7
				c-0.9,1.2-2.5,1.8-4.5,1.8h-1.8V71h18.2h3.4h12.5v-1.4c-2.4-0.2-4-0.6-4.7-1.1c-0.7-0.6-1.1-1.3-1.1-2c0-1,0.4-2.4,1.3-4.4l3.4-8
				H133l3.1,7.3c1,2.4,1.5,4.1,1.5,5.2c0,0.8-0.4,1.5-1.1,2.1c-0.7,0.6-2.1,0.9-4.1,1V71h19.9v-1.4C150.3,69.5,148.7,69,147.5,68z
				 M114.6,51.4l8.8-20.4l8.6,20.4H114.6z"/>
		</g>
	</g>
	<g>
		<path class="st0" d="M191.6,33.1c0.8-0.1,1.3-0.2,1.5-0.4c0.2-0.2,0.3-0.8,0.3-1.7v-9c0-0.7-0.1-1.2-0.3-1.4
			c-0.2-0.2-0.7-0.4-1.5-0.4v-0.4h5.8v0.4c-0.8,0.1-1.3,0.2-1.5,0.4s-0.3,0.7-0.3,1.4v4h6.3v-4c0-0.7-0.1-1.2-0.3-1.4
			s-0.7-0.4-1.5-0.4v-0.4h5.8v0.4c-0.8,0.1-1.3,0.2-1.5,0.4c-0.2,0.2-0.3,0.7-0.3,1.4v9.2c0,0.8,0.1,1.2,0.3,1.4
			c0.2,0.2,0.7,0.4,1.5,0.4v0.4H200v-0.4c0.8-0.1,1.3-0.2,1.5-0.4c0.2-0.2,0.3-0.8,0.3-1.7v-4h-6.3v4.3c0,0.8,0.1,1.2,0.3,1.5
			c0.2,0.2,0.7,0.4,1.5,0.4v0.4h-5.8V33.1z"/>
		<path class="st0" d="M206.7,33.2c0.7-0.1,1.2-0.2,1.4-0.4c0.2-0.2,0.3-0.7,0.3-1.5v-4.8c0-0.4,0-0.7-0.1-0.9
			c-0.1-0.3-0.3-0.4-0.6-0.4c-0.1,0-0.1,0-0.2,0c-0.1,0-0.3,0.1-0.6,0.2v-0.3l0.4-0.1c1.2-0.4,2-0.7,2.5-0.9C209.9,24,210,24,210,24
			c0,0,0,0.1,0,0.2v7.3c0,0.8,0.1,1.3,0.3,1.4c0.2,0.2,0.6,0.3,1.3,0.4v0.3h-4.9V33.2z M208.3,19.7c0.2-0.2,0.5-0.3,0.7-0.3
			c0.3,0,0.5,0.1,0.7,0.3c0.2,0.2,0.3,0.5,0.3,0.8c0,0.3-0.1,0.5-0.3,0.7c-0.2,0.2-0.5,0.3-0.7,0.3c-0.3,0-0.5-0.1-0.7-0.3
			c-0.2-0.2-0.3-0.5-0.3-0.7C208,20.1,208.1,19.9,208.3,19.7z"/>
		<path class="st0" d="M212.4,30.3h0.3c0.2,0.8,0.4,1.4,0.6,1.8c0.5,0.8,1.2,1.1,2.1,1.1c0.5,0,0.9-0.1,1.2-0.4
			c0.3-0.3,0.4-0.6,0.4-1.1c0-0.3-0.1-0.6-0.3-0.8c-0.2-0.3-0.5-0.5-0.9-0.8l-1.1-0.6c-0.8-0.4-1.4-0.9-1.8-1.3
			c-0.4-0.5-0.6-1-0.6-1.6c0-0.8,0.3-1.4,0.8-1.9c0.5-0.5,1.2-0.7,2-0.7c0.4,0,0.8,0.1,1.2,0.2c0.4,0.1,0.7,0.2,0.7,0.2
			c0.1,0,0.2,0,0.3-0.1c0.1,0,0.1-0.1,0.1-0.2h0.2l0.1,2.8h-0.3c-0.1-0.7-0.3-1.2-0.5-1.5c-0.4-0.7-1-1-1.8-1
			c-0.5,0-0.8,0.1-1.1,0.4c-0.3,0.3-0.4,0.6-0.4,1c0,0.6,0.5,1.2,1.4,1.7l1.3,0.7c1.4,0.8,2.2,1.7,2.2,2.7c0,0.8-0.3,1.4-0.9,2
			c-0.6,0.5-1.4,0.8-2.3,0.8c-0.4,0-0.9-0.1-1.4-0.2c-0.5-0.1-0.8-0.2-0.9-0.2c-0.1,0-0.2,0-0.2,0.1c-0.1,0.1-0.1,0.1-0.1,0.2h-0.3
			V30.3z"/>
		<path class="st0" d="M224,24.2v0.7h-2.1l0,5.8c0,0.5,0,0.9,0.1,1.2c0.2,0.5,0.5,0.7,1,0.7c0.2,0,0.5-0.1,0.6-0.2
			c0.2-0.1,0.4-0.3,0.6-0.5l0.3,0.2l-0.2,0.3c-0.4,0.5-0.7,0.8-1.1,1c-0.4,0.2-0.8,0.3-1.1,0.3c-0.8,0-1.3-0.4-1.6-1.1
			c-0.2-0.4-0.2-0.9-0.2-1.6v-6.1h-1.1c0,0-0.1,0-0.1-0.1c0,0,0,0,0-0.1c0-0.1,0-0.1,0-0.2c0,0,0.1-0.1,0.3-0.3
			c0.5-0.4,0.8-0.7,1-0.9c0.2-0.2,0.7-0.9,1.5-1.9c0.1,0,0.1,0,0.2,0c0,0,0,0.1,0,0.2v2.5H224z"/>
		<path class="st0" d="M226.3,25.4c0.9-0.9,2-1.4,3.3-1.4c1.3,0,2.4,0.4,3.3,1.3c0.9,0.9,1.3,2,1.3,3.5c0,1.3-0.4,2.5-1.3,3.5
			c-0.9,1-2,1.5-3.3,1.5c-1.3,0-2.4-0.5-3.3-1.4c-0.9-1-1.3-2.1-1.3-3.6C225,27.5,225.4,26.3,226.3,25.4z M227.9,25.1
			c-0.7,0.6-1,1.7-1,3.2c0,1.2,0.3,2.3,0.8,3.4c0.5,1,1.3,1.6,2.3,1.6c0.8,0,1.3-0.3,1.8-1c0.4-0.7,0.6-1.6,0.6-2.7
			c0-1.2-0.3-2.3-0.8-3.3c-0.5-1-1.3-1.6-2.3-1.6C228.8,24.6,228.3,24.8,227.9,25.1z"/>
		<path class="st0" d="M235,33.2c0.6-0.1,1-0.2,1.2-0.3c0.2-0.2,0.3-0.5,0.3-1.1v-4.6c0-0.7-0.1-1.1-0.2-1.4
			c-0.1-0.3-0.4-0.4-0.7-0.4c-0.1,0-0.2,0-0.3,0c-0.1,0-0.2,0-0.3,0.1v-0.3c0.4-0.1,0.8-0.3,1.2-0.4c0.4-0.1,0.7-0.2,0.8-0.3
			c0.3-0.1,0.7-0.3,1-0.4c0,0,0.1,0,0.1,0.1c0,0,0,0.1,0,0.2v1.7c0.4-0.6,0.9-1.1,1.3-1.4c0.4-0.3,0.8-0.5,1.3-0.5
			c0.3,0,0.6,0.1,0.8,0.3c0.2,0.2,0.3,0.5,0.3,0.8c0,0.3-0.1,0.5-0.2,0.7c-0.2,0.2-0.4,0.3-0.6,0.3c-0.3,0-0.5-0.1-0.8-0.4
			s-0.5-0.4-0.6-0.4c-0.2,0-0.5,0.2-0.9,0.6c-0.3,0.4-0.5,0.8-0.5,1.2v4.6c0,0.6,0.1,1,0.4,1.2c0.3,0.2,0.7,0.3,1.3,0.3v0.3h-5V33.2
			z"/>
		<path class="st0" d="M242.2,33.2c0.7-0.1,1.2-0.2,1.4-0.4c0.2-0.2,0.3-0.7,0.3-1.5v-4.8c0-0.4,0-0.7-0.1-0.9
			c-0.1-0.3-0.3-0.4-0.6-0.4c-0.1,0-0.1,0-0.2,0c-0.1,0-0.3,0.1-0.6,0.2v-0.3l0.4-0.1c1.2-0.4,2-0.7,2.5-0.9
			c0.2-0.1,0.3-0.1,0.4-0.1c0,0,0,0.1,0,0.2v7.3c0,0.8,0.1,1.3,0.3,1.4c0.2,0.2,0.6,0.3,1.3,0.4v0.3h-4.9V33.2z M243.8,19.7
			c0.2-0.2,0.5-0.3,0.7-0.3c0.3,0,0.5,0.1,0.7,0.3c0.2,0.2,0.3,0.5,0.3,0.8c0,0.3-0.1,0.5-0.3,0.7c-0.2,0.2-0.5,0.3-0.7,0.3
			c-0.3,0-0.5-0.1-0.7-0.3c-0.2-0.2-0.3-0.5-0.3-0.7C243.5,20.1,243.6,19.9,243.8,19.7z"/>
		<path class="st0" d="M254.2,24.6c0.6,0.4,0.9,0.9,0.9,1.4c0,0.2-0.1,0.4-0.2,0.6c-0.2,0.2-0.4,0.3-0.7,0.3c-0.2,0-0.4-0.1-0.6-0.2
			c-0.2-0.2-0.3-0.4-0.4-0.7l-0.1-0.5c-0.1-0.4-0.2-0.6-0.5-0.8c-0.2-0.1-0.5-0.2-0.9-0.2c-0.8,0-1.4,0.3-2,1
			c-0.5,0.7-0.8,1.6-0.8,2.7c0,1,0.3,1.9,0.9,2.7c0.6,0.8,1.4,1.2,2.4,1.2c0.7,0,1.3-0.2,1.9-0.7c0.3-0.3,0.7-0.7,1.1-1.3l0.3,0.2
			c-0.4,0.8-0.8,1.5-1.2,1.9c-0.8,0.9-1.8,1.4-2.8,1.4c-1.1,0-2-0.4-2.8-1.2c-0.8-0.8-1.2-2-1.2-3.4c0-1.4,0.4-2.6,1.3-3.6
			c0.9-1,2-1.5,3.4-1.5C252.8,23.9,253.6,24.2,254.2,24.6z"/>
		<path class="st0" d="M257.6,29c0.6-0.4,1.9-1,3.7-1.7v-0.9c0-0.7-0.1-1.2-0.2-1.4c-0.2-0.5-0.7-0.7-1.4-0.7c-0.3,0-0.7,0.1-1,0.3
			c-0.3,0.2-0.5,0.4-0.5,0.7c0,0.1,0,0.2,0.1,0.4c0,0.2,0.1,0.3,0.1,0.4c0,0.4-0.1,0.6-0.4,0.8c-0.1,0.1-0.3,0.1-0.5,0.1
			c-0.3,0-0.5-0.1-0.7-0.3c-0.2-0.2-0.2-0.4-0.2-0.7c0-0.5,0.3-1,0.9-1.5c0.6-0.5,1.4-0.8,2.6-0.8c1.3,0,2.2,0.4,2.7,1.3
			c0.2,0.5,0.4,1.1,0.4,2v4.1c0,0.4,0,0.7,0.1,0.8c0.1,0.3,0.3,0.4,0.5,0.4c0.2,0,0.3,0,0.4-0.1c0.1,0,0.3-0.2,0.5-0.3v0.5
			c-0.2,0.3-0.4,0.5-0.7,0.6c-0.4,0.3-0.8,0.4-1.2,0.4c-0.5,0-0.8-0.1-1-0.4c-0.2-0.3-0.3-0.7-0.3-1.1c-0.5,0.4-1,0.8-1.3,1
			c-0.6,0.4-1.2,0.5-1.8,0.5c-0.6,0-1.1-0.2-1.5-0.6s-0.6-0.9-0.6-1.6C256.1,30.5,256.6,29.7,257.6,29z M261.3,27.9
			c-0.8,0.3-1.4,0.5-1.9,0.9c-1,0.6-1.5,1.3-1.5,2c0,0.6,0.2,1.1,0.6,1.4c0.3,0.2,0.6,0.3,0.9,0.3c0.4,0,0.9-0.1,1.3-0.4
			c0.4-0.2,0.6-0.6,0.6-1V27.9z"/>
		<path class="st0" d="M265,33.2c0.6-0.1,1.1-0.2,1.3-0.4s0.3-0.6,0.3-1.1v-9.9c0-0.4,0-0.8-0.1-0.9c-0.1-0.3-0.4-0.4-0.8-0.4
			c-0.1,0-0.2,0-0.3,0c-0.1,0-0.3,0.1-0.4,0.1v-0.3c0.9-0.2,2-0.6,3.3-1c0,0,0.1,0,0.1,0.1c0,0,0,0.1,0,0.3v12.1
			c0,0.6,0.1,1,0.3,1.1c0.2,0.2,0.6,0.3,1.3,0.3v0.3H265V33.2z"/>
		<path class="st0" d="M275.9,33.1c0.8-0.1,1.4-0.2,1.6-0.4c0.2-0.2,0.4-0.7,0.4-1.5V22c0-0.8-0.1-1.3-0.4-1.5
			c-0.3-0.2-0.8-0.3-1.6-0.4v-0.4h6.1v0.4c-0.8,0-1.4,0.2-1.6,0.4c-0.2,0.2-0.4,0.7-0.4,1.5v9.2c0,0.8,0.1,1.3,0.4,1.5
			c0.3,0.2,0.8,0.3,1.6,0.4v0.4h-6.1V33.1z"/>
		<path class="st0" d="M282.8,33.2c0.5-0.1,0.8-0.2,1-0.4c0.2-0.2,0.3-0.6,0.3-1.2v-5.1c0-0.4,0-0.7-0.1-0.9
			c-0.1-0.3-0.4-0.4-0.8-0.4c-0.1,0-0.1,0-0.2,0c-0.1,0-0.1,0-0.2,0v-0.4c0.3-0.1,0.9-0.3,2-0.6l1-0.3c0,0,0.1,0,0.1,0.1
			c0,0,0,0.1,0,0.1v1.5c0.6-0.6,1.1-1,1.5-1.2c0.5-0.3,1.1-0.5,1.6-0.5c0.5,0,0.9,0.1,1.3,0.4c0.7,0.5,1.1,1.4,1.1,2.7v4.7
			c0,0.5,0.1,0.8,0.3,1.1s0.5,0.3,1,0.3v0.3h-4.3v-0.3c0.5-0.1,0.8-0.2,1-0.4c0.2-0.2,0.3-0.7,0.3-1.3v-4.3c0-0.6-0.1-1.1-0.3-1.4
			c-0.2-0.4-0.6-0.6-1.2-0.6c-0.4,0-0.8,0.1-1.2,0.4c-0.2,0.2-0.5,0.4-0.9,0.8V32c0,0.5,0.1,0.8,0.3,1c0.2,0.2,0.6,0.3,1,0.3v0.3
			h-4.4V33.2z"/>
		<path class="st0" d="M293.2,30.3h0.3c0.2,0.8,0.4,1.4,0.6,1.8c0.5,0.8,1.2,1.1,2.1,1.1c0.5,0,0.9-0.1,1.2-0.4
			c0.3-0.3,0.4-0.6,0.4-1.1c0-0.3-0.1-0.6-0.3-0.8c-0.2-0.3-0.5-0.5-0.9-0.8l-1.1-0.6c-0.8-0.4-1.4-0.9-1.8-1.3
			c-0.4-0.5-0.6-1-0.6-1.6c0-0.8,0.3-1.4,0.8-1.9c0.5-0.5,1.2-0.7,2-0.7c0.4,0,0.8,0.1,1.2,0.2c0.4,0.1,0.7,0.2,0.7,0.2
			c0.1,0,0.2,0,0.3-0.1c0.1,0,0.1-0.1,0.1-0.2h0.2l0.1,2.8h-0.3c-0.1-0.7-0.3-1.2-0.5-1.5c-0.4-0.7-1-1-1.8-1
			c-0.5,0-0.8,0.1-1.1,0.4c-0.3,0.3-0.4,0.6-0.4,1c0,0.6,0.5,1.2,1.4,1.7l1.3,0.7c1.4,0.8,2.2,1.7,2.2,2.7c0,0.8-0.3,1.4-0.9,2
			c-0.6,0.5-1.4,0.8-2.3,0.8c-0.4,0-0.9-0.1-1.4-0.2c-0.5-0.1-0.8-0.2-0.9-0.2c-0.1,0-0.2,0-0.2,0.1c-0.1,0.1-0.1,0.1-0.1,0.2h-0.3
			V30.3z"/>
		<path class="st0" d="M304.8,24.2v0.7h-2.1l0,5.8c0,0.5,0,0.9,0.1,1.2c0.2,0.5,0.5,0.7,1,0.7c0.2,0,0.5-0.1,0.6-0.2
			c0.2-0.1,0.4-0.3,0.6-0.5l0.3,0.2l-0.2,0.3c-0.4,0.5-0.7,0.8-1.1,1c-0.4,0.2-0.8,0.3-1.1,0.3c-0.8,0-1.3-0.4-1.6-1.1
			c-0.2-0.4-0.2-0.9-0.2-1.6v-6.1h-1.1c0,0-0.1,0-0.1-0.1c0,0,0,0,0-0.1c0-0.1,0-0.1,0-0.2c0,0,0.1-0.1,0.3-0.3
			c0.5-0.4,0.8-0.7,1-0.9c0.2-0.2,0.7-0.9,1.5-1.9c0.1,0,0.1,0,0.2,0c0,0,0,0.1,0,0.2v2.5H304.8z"/>
		<path class="st0" d="M305.7,33.2c0.7-0.1,1.2-0.2,1.4-0.4c0.2-0.2,0.3-0.7,0.3-1.5v-4.8c0-0.4,0-0.7-0.1-0.9
			c-0.1-0.3-0.3-0.4-0.6-0.4c-0.1,0-0.1,0-0.2,0c-0.1,0-0.3,0.1-0.6,0.2v-0.3l0.4-0.1c1.2-0.4,2-0.7,2.5-0.9C308.9,24,309,24,309,24
			c0,0,0,0.1,0,0.2v7.3c0,0.8,0.1,1.3,0.3,1.4s0.6,0.3,1.3,0.4v0.3h-4.9V33.2z M307.3,19.7c0.2-0.2,0.5-0.3,0.7-0.3
			c0.3,0,0.5,0.1,0.7,0.3c0.2,0.2,0.3,0.5,0.3,0.8c0,0.3-0.1,0.5-0.3,0.7c-0.2,0.2-0.5,0.3-0.7,0.3c-0.3,0-0.5-0.1-0.7-0.3
			c-0.2-0.2-0.3-0.5-0.3-0.7C307,20.1,307.1,19.9,307.3,19.7z"/>
		<path class="st0" d="M315.6,24.2v0.7h-2.1l0,5.8c0,0.5,0,0.9,0.1,1.2c0.2,0.5,0.5,0.7,1,0.7c0.2,0,0.5-0.1,0.6-0.2
			c0.2-0.1,0.4-0.3,0.6-0.5l0.3,0.2l-0.2,0.3c-0.4,0.5-0.7,0.8-1.1,1c-0.4,0.2-0.8,0.3-1.1,0.3c-0.8,0-1.3-0.4-1.6-1.1
			c-0.2-0.4-0.2-0.9-0.2-1.6v-6.1h-1.1c0,0-0.1,0-0.1-0.1c0,0,0,0,0-0.1c0-0.1,0-0.1,0-0.2c0,0,0.1-0.1,0.3-0.3
			c0.5-0.4,0.8-0.7,1-0.9c0.2-0.2,0.7-0.9,1.5-1.9c0.1,0,0.1,0,0.2,0c0,0,0,0.1,0,0.2v2.5H315.6z"/>
		<path class="st0" d="M319.3,24.1v6.5c0,0.5,0.1,0.8,0.2,1.1c0.2,0.5,0.7,0.8,1.4,0.8c0.5,0,0.9-0.2,1.3-0.5
			c0.3-0.2,0.5-0.4,0.8-0.7v-5.6c0-0.5-0.1-0.9-0.3-1c-0.2-0.2-0.6-0.3-1.2-0.3v-0.3h3.3v7.1c0,0.5,0.1,0.8,0.2,0.9
			c0.2,0.2,0.5,0.2,1,0.2v0.3c-0.4,0.1-0.6,0.2-0.8,0.2c-0.2,0.1-0.5,0.1-0.9,0.3c-0.2,0.1-0.6,0.2-1.2,0.4c0,0-0.1,0-0.1,0
			c0,0,0-0.1,0-0.1v-1.6c-0.5,0.5-0.9,1-1.3,1.2c-0.6,0.4-1.2,0.6-1.8,0.6c-0.6,0-1.1-0.2-1.7-0.6c-0.5-0.4-0.8-1.1-0.8-2.1v-5.3
			c0-0.5-0.1-0.9-0.3-1.1c-0.1-0.1-0.5-0.2-1-0.2v-0.3H319.3z"/>
		<path class="st0" d="M331.1,24.2v0.7H329l0,5.8c0,0.5,0,0.9,0.1,1.2c0.2,0.5,0.5,0.7,1,0.7c0.2,0,0.5-0.1,0.6-0.2
			c0.2-0.1,0.4-0.3,0.6-0.5l0.3,0.2l-0.2,0.3c-0.4,0.5-0.7,0.8-1.1,1c-0.4,0.2-0.8,0.3-1.1,0.3c-0.8,0-1.3-0.4-1.6-1.1
			c-0.2-0.4-0.2-0.9-0.2-1.6v-6.1h-1.1c0,0-0.1,0-0.1-0.1c0,0,0,0,0-0.1c0-0.1,0-0.1,0-0.2c0,0,0.1-0.1,0.3-0.3
			c0.5-0.4,0.8-0.7,1-0.9c0.2-0.2,0.7-0.9,1.5-1.9c0.1,0,0.1,0,0.2,0c0,0,0,0.1,0,0.2v2.5H331.1z"/>
		<path class="st0" d="M332,33.2c0.7-0.1,1.2-0.2,1.4-0.4c0.2-0.2,0.3-0.7,0.3-1.5v-4.8c0-0.4,0-0.7-0.1-0.9
			c-0.1-0.3-0.3-0.4-0.6-0.4c-0.1,0-0.1,0-0.2,0s-0.3,0.1-0.6,0.2v-0.3l0.4-0.1c1.2-0.4,2-0.7,2.5-0.9c0.2-0.1,0.3-0.1,0.4-0.1
			c0,0,0,0.1,0,0.2v7.3c0,0.8,0.1,1.3,0.3,1.4s0.6,0.3,1.3,0.4v0.3H332V33.2z M333.6,19.7c0.2-0.2,0.5-0.3,0.7-0.3
			c0.3,0,0.5,0.1,0.7,0.3c0.2,0.2,0.3,0.5,0.3,0.8c0,0.3-0.1,0.5-0.3,0.7c-0.2,0.2-0.5,0.3-0.7,0.3c-0.3,0-0.5-0.1-0.7-0.3
			c-0.2-0.2-0.3-0.5-0.3-0.7C333.3,20.1,333.4,19.9,333.6,19.7z"/>
		<path class="st0" d="M338.4,25.4c0.9-0.9,2-1.4,3.3-1.4c1.3,0,2.4,0.4,3.3,1.3c0.9,0.9,1.3,2,1.3,3.5c0,1.3-0.4,2.5-1.3,3.5
			c-0.9,1-2,1.5-3.3,1.5c-1.3,0-2.4-0.5-3.3-1.4c-0.9-1-1.3-2.1-1.3-3.6C337.2,27.5,337.6,26.3,338.4,25.4z M340.1,25.1
			c-0.7,0.6-1,1.7-1,3.2c0,1.2,0.3,2.3,0.8,3.4c0.5,1,1.3,1.6,2.3,1.6c0.8,0,1.3-0.3,1.8-1c0.4-0.7,0.6-1.6,0.6-2.7
			c0-1.2-0.3-2.3-0.8-3.3c-0.5-1-1.3-1.6-2.3-1.6C340.9,24.6,340.5,24.8,340.1,25.1z"/>
		<path class="st0" d="M346.7,33.2c0.5-0.1,0.8-0.2,1-0.4c0.2-0.2,0.3-0.6,0.3-1.2v-5.1c0-0.4,0-0.7-0.1-0.9
			c-0.1-0.3-0.4-0.4-0.8-0.4c-0.1,0-0.1,0-0.2,0c-0.1,0-0.1,0-0.2,0v-0.4c0.3-0.1,0.9-0.3,2-0.6l1-0.3c0,0,0.1,0,0.1,0.1
			c0,0,0,0.1,0,0.1v1.5c0.6-0.6,1.1-1,1.5-1.2c0.5-0.3,1.1-0.5,1.6-0.5c0.5,0,0.9,0.1,1.3,0.4c0.7,0.5,1.1,1.4,1.1,2.7v4.7
			c0,0.5,0.1,0.8,0.3,1.1s0.5,0.3,1,0.3v0.3h-4.3v-0.3c0.5-0.1,0.8-0.2,1-0.4c0.2-0.2,0.3-0.7,0.3-1.3v-4.3c0-0.6-0.1-1.1-0.3-1.4
			c-0.2-0.4-0.6-0.6-1.2-0.6c-0.4,0-0.8,0.1-1.2,0.4c-0.2,0.2-0.5,0.4-0.9,0.8V32c0,0.5,0.1,0.8,0.3,1c0.2,0.2,0.6,0.3,1,0.3v0.3
			h-4.4V33.2z"/>
		<path class="st0" d="M358.9,29c0.6-0.4,1.9-1,3.7-1.7v-0.9c0-0.7-0.1-1.2-0.2-1.4c-0.2-0.5-0.7-0.7-1.4-0.7c-0.3,0-0.7,0.1-1,0.3
			c-0.3,0.2-0.5,0.4-0.5,0.7c0,0.1,0,0.2,0.1,0.4s0.1,0.3,0.1,0.4c0,0.4-0.1,0.6-0.4,0.8c-0.1,0.1-0.3,0.1-0.5,0.1
			c-0.3,0-0.5-0.1-0.7-0.3c-0.2-0.2-0.2-0.4-0.2-0.7c0-0.5,0.3-1,0.9-1.5c0.6-0.5,1.4-0.8,2.6-0.8c1.3,0,2.2,0.4,2.7,1.3
			c0.3,0.5,0.4,1.1,0.4,2v4.1c0,0.4,0,0.7,0.1,0.8c0.1,0.3,0.3,0.4,0.5,0.4c0.2,0,0.3,0,0.4-0.1c0.1,0,0.3-0.2,0.5-0.3v0.5
			c-0.2,0.3-0.4,0.5-0.7,0.6c-0.4,0.3-0.8,0.4-1.2,0.4c-0.5,0-0.8-0.1-1-0.4c-0.2-0.3-0.3-0.7-0.3-1.1c-0.5,0.4-1,0.8-1.3,1
			c-0.6,0.4-1.2,0.5-1.8,0.5c-0.6,0-1.1-0.2-1.5-0.6s-0.6-0.9-0.6-1.6C357.5,30.5,357.9,29.7,358.9,29z M362.6,27.9
			c-0.8,0.3-1.4,0.5-1.9,0.9c-1,0.6-1.5,1.3-1.5,2c0,0.6,0.2,1.1,0.6,1.4c0.3,0.2,0.6,0.3,0.9,0.3c0.4,0,0.9-0.1,1.3-0.4
			c0.4-0.2,0.6-0.6,0.6-1V27.9z"/>
		<path class="st0" d="M366.3,33.2c0.6-0.1,1.1-0.2,1.3-0.4c0.2-0.2,0.3-0.6,0.3-1.1v-9.9c0-0.4,0-0.8-0.1-0.9
			c-0.1-0.3-0.4-0.4-0.8-0.4c-0.1,0-0.2,0-0.3,0c-0.1,0-0.3,0.1-0.4,0.1v-0.3c0.9-0.2,2-0.6,3.3-1c0,0,0.1,0,0.1,0.1s0,0.1,0,0.3
			v12.1c0,0.6,0.1,1,0.3,1.1c0.2,0.2,0.6,0.3,1.3,0.3v0.3h-4.9V33.2z"/>
		<path class="st0" d="M376,33.5v-0.4c0.5-0.1,0.9-0.3,1.2-0.6c0.3-0.3,0.7-1.3,1.4-2.8l4.3-10.2h0.4l5.2,11.8
			c0.3,0.8,0.6,1.3,0.8,1.4c0.2,0.2,0.6,0.3,1,0.4v0.4h-5.3v-0.4c0.6-0.1,1-0.1,1.2-0.2s0.3-0.3,0.3-0.6c0-0.1,0-0.3-0.1-0.5
			c-0.1-0.3-0.2-0.5-0.3-0.8l-0.8-2h-5.5c-0.5,1.4-0.9,2.2-1,2.5c-0.1,0.3-0.2,0.5-0.2,0.7c0,0.3,0.1,0.6,0.4,0.7
			c0.2,0.1,0.5,0.1,1,0.2v0.4H376z M385,28.2l-2.4-5.7l-2.4,5.7H385z"/>
		<path class="st0" d="M389.4,20.6v-0.3c0.8-0.2,1.5-0.4,2.1-0.6c0.6-0.2,0.9-0.3,1-0.3c0,0,0,0.1,0,0.1v6.2
			c0.2-0.3,0.4-0.6,0.8-0.9c0.6-0.5,1.3-0.8,2.1-0.8c1,0,1.8,0.4,2.5,1.3s1.1,1.9,1.1,3.3c0,1.4-0.5,2.7-1.4,3.7
			c-0.9,1-2.1,1.5-3.6,1.5c-0.7,0-1.5-0.1-2.2-0.4c-0.7-0.3-1.1-0.6-1.1-0.9V21.6c0-0.4-0.1-0.7-0.2-0.8c-0.1-0.2-0.4-0.2-0.7-0.2
			L389.4,20.6z M393.2,32.8c0.5,0.2,0.9,0.2,1.2,0.2c0.9,0,1.6-0.4,2.1-1.1c0.5-0.7,0.7-1.6,0.7-2.6c0-1-0.2-1.9-0.6-2.8
			c-0.4-0.9-1.1-1.3-2.1-1.3c-0.5,0-0.9,0.1-1.4,0.4c-0.5,0.3-0.7,0.7-0.7,1.1V32C392.5,32.4,392.8,32.6,393.2,32.8z"/>
		<path class="st0" d="M402.2,24.1v6.5c0,0.5,0.1,0.8,0.2,1.1c0.2,0.5,0.7,0.8,1.4,0.8c0.5,0,0.9-0.2,1.3-0.5
			c0.3-0.2,0.5-0.4,0.8-0.7v-5.6c0-0.5-0.1-0.9-0.3-1c-0.2-0.2-0.6-0.3-1.2-0.3v-0.3h3.3v7.1c0,0.5,0.1,0.8,0.2,0.9
			c0.2,0.2,0.5,0.2,1,0.2v0.3c-0.4,0.1-0.6,0.2-0.8,0.2c-0.2,0.1-0.5,0.1-0.9,0.3c-0.2,0.1-0.6,0.2-1.2,0.4c0,0-0.1,0-0.1,0
			c0,0,0-0.1,0-0.1v-1.6c-0.5,0.5-0.9,1-1.3,1.2c-0.6,0.4-1.2,0.6-1.8,0.6c-0.6,0-1.1-0.2-1.7-0.6c-0.5-0.4-0.8-1.1-0.8-2.1v-5.3
			c0-0.5-0.1-0.9-0.3-1.1c-0.1-0.1-0.5-0.2-1-0.2v-0.3H402.2z"/>
		<path class="st0" d="M409.8,30.3h0.3c0.2,0.8,0.4,1.4,0.6,1.8c0.5,0.8,1.2,1.1,2.1,1.1c0.5,0,0.9-0.1,1.2-0.4
			c0.3-0.3,0.4-0.6,0.4-1.1c0-0.3-0.1-0.6-0.3-0.8c-0.2-0.3-0.5-0.5-0.9-0.8l-1.1-0.6c-0.8-0.4-1.4-0.9-1.8-1.3
			c-0.4-0.5-0.6-1-0.6-1.6c0-0.8,0.3-1.4,0.8-1.9c0.5-0.5,1.2-0.7,2-0.7c0.4,0,0.8,0.1,1.2,0.2c0.4,0.1,0.7,0.2,0.7,0.2
			c0.1,0,0.2,0,0.3-0.1c0.1,0,0.1-0.1,0.1-0.2h0.2l0.1,2.8h-0.3c-0.1-0.7-0.3-1.2-0.5-1.5c-0.4-0.7-1-1-1.8-1
			c-0.5,0-0.8,0.1-1.1,0.4c-0.3,0.3-0.4,0.6-0.4,1c0,0.6,0.5,1.2,1.4,1.7l1.3,0.7c1.4,0.8,2.2,1.7,2.2,2.7c0,0.8-0.3,1.4-0.9,2
			c-0.6,0.5-1.4,0.8-2.3,0.8c-0.4,0-0.9-0.1-1.4-0.2c-0.5-0.1-0.8-0.2-0.9-0.2c-0.1,0-0.2,0-0.2,0.1c-0.1,0.1-0.1,0.1-0.1,0.2h-0.3
			V30.3z"/>
		<path class="st0" d="M423.3,25c0.7,0.7,1.1,1.6,1.1,2.8H418c0.1,1.6,0.4,2.7,1.1,3.4c0.6,0.7,1.4,1.1,2.3,1.1
			c0.7,0,1.3-0.2,1.8-0.6c0.5-0.4,0.9-0.9,1.3-1.6l0.4,0.1c-0.3,0.9-0.8,1.7-1.6,2.4c-0.8,0.7-1.7,1.1-2.8,1.1
			c-1.3,0-2.3-0.5-2.9-1.4c-0.7-1-1-2.1-1-3.3c0-1.4,0.4-2.5,1.2-3.5c0.8-1,1.9-1.5,3.1-1.5C421.8,24,422.6,24.3,423.3,25z
			 M418.5,25.8c-0.2,0.4-0.4,0.8-0.5,1.4h4.3c-0.1-0.7-0.2-1.2-0.4-1.5c-0.3-0.6-0.9-0.9-1.7-0.9C419.5,24.7,418.9,25.1,418.5,25.8z
			"/>
	</g>
	<g>
		<path class="st1" d="M191.6,70.1c1.6-0.1,2.6-0.5,3-0.9c0.4-0.5,0.6-1.6,0.6-3.3V48.1c0-1.5-0.2-2.4-0.7-2.9
			c-0.4-0.5-1.4-0.7-2.9-0.9v-0.8H203c2.4,0,4.4,0.3,5.9,0.9c3,1.1,4.5,3.2,4.5,6.3c0,2.1-0.7,3.6-2,4.7c-1.3,1.1-3.2,1.8-5.5,2.2
			l8.5,10.5c0.5,0.6,1,1.1,1.6,1.4c0.5,0.3,1.2,0.5,2,0.6v0.8h-6.6l-10.3-12.7l-1.8,0.1v8.1c0,1.5,0.2,2.5,0.7,2.9
			c0.5,0.4,1.5,0.7,3,0.8v0.8h-11.5V70.1z M205.7,55.8c2.2-0.9,3.3-2.6,3.3-5.1c0-2.4-1-4-2.9-4.9c-1-0.5-2.4-0.7-4.2-0.7
			c-1.2,0-1.9,0.1-2.1,0.3c-0.3,0.2-0.4,0.6-0.4,1.2v10.2C202.3,56.6,204.4,56.3,205.7,55.8z"/>
		<path class="st1" d="M231.7,54c1.4,1.3,2.1,3.2,2.1,5.6h-12.8c0.1,3.1,0.8,5.4,2.1,6.8c1.3,1.4,2.8,2.1,4.5,2.1
			c1.4,0,2.6-0.4,3.6-1.1c1-0.7,1.9-1.8,2.7-3.1l0.7,0.2c-0.6,1.7-1.6,3.3-3.1,4.7c-1.5,1.5-3.4,2.2-5.6,2.2c-2.5,0-4.5-1-5.9-2.9
			c-1.4-1.9-2.1-4.1-2.1-6.6c0-2.7,0.8-5,2.4-7c1.6-2,3.7-2.9,6.2-2.9C228.7,52,230.3,52.7,231.7,54z M222.1,55.5
			c-0.4,0.7-0.7,1.6-0.9,2.7h8.5c-0.1-1.3-0.4-2.3-0.8-3c-0.7-1.2-1.8-1.8-3.3-1.8C224.1,53.5,222.9,54.1,222.1,55.5z"/>
		<path class="st1" d="M248.1,52.5c0.5,0.3,1.1,0.7,1.6,1.2v-6.4c0-0.8-0.1-1.4-0.3-1.7c-0.2-0.3-0.6-0.5-1.3-0.5
			c-0.2,0-0.3,0-0.4,0c-0.1,0-0.4,0-0.8,0.1v-0.7l1.7-0.4c0.6-0.2,1.2-0.3,1.8-0.5c0.6-0.2,1.1-0.3,1.6-0.5c0.2-0.1,0.6-0.2,1.1-0.4
			l0.1,0l0,2.1c0,0.8,0,1.6,0,2.4c0,0.8,0,1.6,0,2.4l0,16.5c0,0.9,0.1,1.5,0.3,1.8c0.2,0.3,0.8,0.5,1.7,0.5c0.1,0,0.3,0,0.4,0
			c0.1,0,0.3,0,0.4-0.1v0.7c-0.1,0-1.1,0.4-2.9,1l-3.2,1.2l-0.1-0.2v-2.5c-0.8,0.8-1.4,1.4-2,1.8c-1,0.6-2.1,0.9-3.4,0.9
			c-2.3,0-4.1-0.9-5.6-2.7c-1.4-1.8-2.1-3.8-2.1-6.1c0-2.9,0.9-5.4,2.6-7.5c1.7-2.1,3.8-3.1,6.2-3.1
			C246.4,51.9,247.3,52.1,248.1,52.5z M248.7,68.2c0.6-0.6,1-1.2,1-1.8v-8.6c0-1.7-0.5-3-1.4-3.7c-0.9-0.7-1.8-1.1-2.7-1.1
			c-1.7,0-3,0.7-4,2.2s-1.4,3.3-1.4,5.5c0,2.2,0.5,4.1,1.5,5.8s2.5,2.5,4.5,2.5C247.2,69.1,248.1,68.8,248.7,68.2z"/>
		<path class="st1" d="M256.5,70.2c1.2-0.1,2.1-0.3,2.5-0.7c0.4-0.3,0.6-1,0.6-2.1v-9.1c0-1.3-0.1-2.3-0.4-2.9
			c-0.2-0.6-0.7-0.9-1.4-0.9c-0.1,0-0.3,0-0.5,0.1c-0.2,0-0.5,0.1-0.7,0.1v-0.7c0.8-0.3,1.5-0.5,2.4-0.8c0.8-0.3,1.4-0.5,1.7-0.6
			c0.7-0.3,1.4-0.5,2.1-0.9c0.1,0,0.2,0,0.2,0.1c0,0.1,0,0.2,0,0.4v3.3c0.9-1.2,1.7-2.1,2.5-2.8c0.8-0.7,1.6-1,2.5-1
			c0.7,0,1.2,0.2,1.7,0.6c0.4,0.4,0.6,0.9,0.6,1.5c0,0.6-0.2,1-0.5,1.4c-0.3,0.4-0.7,0.6-1.2,0.6c-0.5,0-1-0.2-1.5-0.7
			c-0.5-0.5-0.9-0.7-1.2-0.7c-0.5,0-1,0.4-1.7,1.1c-0.7,0.8-1,1.5-1,2.3v9.1c0,1.2,0.3,2,0.8,2.4c0.5,0.5,1.4,0.7,2.7,0.6v0.7h-9.9
			V70.2z"/>
		<path class="st1" d="M284.5,54c1.4,1.3,2.1,3.2,2.1,5.6h-12.8c0.1,3.1,0.8,5.4,2.1,6.8c1.3,1.4,2.8,2.1,4.5,2.1
			c1.4,0,2.6-0.4,3.6-1.1c1-0.7,1.9-1.8,2.7-3.1l0.7,0.2c-0.6,1.7-1.6,3.3-3.1,4.7c-1.5,1.5-3.4,2.2-5.6,2.2c-2.5,0-4.5-1-5.9-2.9
			c-1.4-1.9-2.1-4.1-2.1-6.6c0-2.7,0.8-5,2.4-7c1.6-2,3.7-2.9,6.2-2.9C281.4,52,283,52.7,284.5,54z M274.8,55.5
			c-0.4,0.7-0.7,1.6-0.9,2.7h8.5c-0.1-1.3-0.4-2.3-0.8-3c-0.7-1.2-1.8-1.8-3.3-1.8C276.8,53.5,275.6,54.1,274.8,55.5z"/>
		<path class="st1" d="M289.1,64.6h0.7c0.3,1.5,0.7,2.7,1.2,3.5c0.9,1.5,2.3,2.3,4.1,2.3c1,0,1.8-0.3,2.4-0.8
			c0.6-0.6,0.9-1.3,0.9-2.2c0-0.6-0.2-1.1-0.5-1.6c-0.3-0.5-0.9-1-1.8-1.5l-2.3-1.3c-1.7-0.9-2.9-1.8-3.6-2.7
			c-0.8-0.9-1.2-2-1.2-3.2c0-1.5,0.5-2.7,1.6-3.7c1.1-1,2.4-1.5,4.1-1.5c0.7,0,1.5,0.1,2.3,0.4c0.9,0.3,1.3,0.4,1.4,0.4
			c0.2,0,0.4,0,0.5-0.1c0.1-0.1,0.2-0.2,0.3-0.3h0.5l0.1,5.6h-0.6c-0.3-1.3-0.6-2.3-1.1-3c-0.8-1.3-2-2-3.6-2
			c-0.9,0-1.7,0.3-2.2,0.9c-0.5,0.6-0.8,1.3-0.8,2c0,1.2,0.9,2.3,2.8,3.3l2.7,1.4c2.9,1.6,4.3,3.4,4.3,5.4c0,1.6-0.6,2.9-1.8,3.9
			c-1.2,1-2.7,1.5-4.7,1.5c-0.8,0-1.7-0.1-2.7-0.4c-1-0.3-1.6-0.4-1.8-0.4c-0.2,0-0.3,0.1-0.4,0.2c-0.1,0.1-0.2,0.3-0.3,0.4h-0.5
			V64.6z"/>
		<path class="st1" d="M303.8,64.6h0.7c0.3,1.5,0.7,2.7,1.2,3.5c0.9,1.5,2.3,2.3,4.1,2.3c1,0,1.8-0.3,2.4-0.8
			c0.6-0.6,0.9-1.3,0.9-2.2c0-0.6-0.2-1.1-0.5-1.6c-0.3-0.5-0.9-1-1.8-1.5l-2.3-1.3c-1.7-0.9-2.9-1.8-3.6-2.7
			c-0.8-0.9-1.2-2-1.2-3.2c0-1.5,0.5-2.7,1.6-3.7c1.1-1,2.4-1.5,4.1-1.5c0.7,0,1.5,0.1,2.3,0.4c0.9,0.3,1.3,0.4,1.4,0.4
			c0.2,0,0.4,0,0.5-0.1c0.1-0.1,0.2-0.2,0.3-0.3h0.5l0.1,5.6H314c-0.3-1.3-0.6-2.3-1.1-3c-0.8-1.3-2-2-3.6-2c-0.9,0-1.7,0.3-2.2,0.9
			c-0.5,0.6-0.8,1.3-0.8,2c0,1.2,0.9,2.3,2.8,3.3l2.7,1.4c2.9,1.6,4.3,3.4,4.3,5.4c0,1.6-0.6,2.9-1.8,3.9c-1.2,1-2.7,1.5-4.7,1.5
			c-0.8,0-1.7-0.1-2.7-0.4c-1-0.3-1.6-0.4-1.8-0.4c-0.2,0-0.3,0.1-0.4,0.2c-0.1,0.1-0.2,0.3-0.3,0.4h-0.5V64.6z"/>
		<path class="st1" d="M328.8,70.1c1.7-0.1,2.7-0.4,3.2-0.8c0.5-0.4,0.7-1.4,0.7-2.9V48.1c0-1.5-0.2-2.5-0.7-2.9
			c-0.5-0.4-1.6-0.7-3.2-0.8v-0.8h11.6c3.3,0,5.9,0.5,7.9,1.6c1.9,1.1,2.9,2.9,2.9,5.5c0,2-0.7,3.4-2,4.4c-0.8,0.6-1.9,1.1-3.4,1.4
			c1.9,0.5,3.5,1.2,4.9,2.3c1.3,1.1,2,2.6,2,4.5c0,3.2-1.5,5.4-4.5,6.6c-1.6,0.6-3.5,0.9-5.8,0.9h-13.5V70.1z M344.3,55.2
			c1.7-0.8,2.6-2.3,2.6-4.3c0-2.5-1-4.1-3-5c-1.1-0.5-2.8-0.7-5.1-0.7c-0.9,0-1.4,0.1-1.6,0.2c-0.2,0.1-0.3,0.6-0.3,1.2v9.3l3.9-0.1
			C342.2,55.8,343.4,55.6,344.3,55.2z M345.6,68.2c1.4-0.8,2.1-2.4,2.1-4.7c0-2.3-0.8-3.9-2.5-4.7c-1.7-0.8-3.8-1.3-6.4-1.3
			c-0.6,0-1,0-1.2,0c-0.2,0-0.4,0-0.8,0v10.3c0,0.7,0.2,1.2,0.6,1.4c0.4,0.2,1.3,0.3,2.8,0.3C342.4,69.4,344.2,69,345.6,68.2z"/>
		<path class="st1" d="M357.8,54.8c1.7-1.8,3.9-2.8,6.6-2.8c2.7,0,4.9,0.9,6.6,2.6c1.7,1.7,2.6,4.1,2.6,7c0,2.7-0.8,5-2.5,7
			c-1.7,2-3.9,3-6.6,3c-2.6,0-4.8-0.9-6.6-2.8c-1.8-1.9-2.7-4.3-2.7-7.1C355.3,58.9,356.1,56.6,357.8,54.8z M361,54.3
			c-1.3,1.2-2,3.3-2,6.3c0,2.4,0.5,4.6,1.6,6.7c1.1,2.1,2.6,3.1,4.5,3.1c1.5,0,2.7-0.7,3.5-2.1c0.8-1.4,1.2-3.2,1.2-5.4
			c0-2.3-0.5-4.5-1.6-6.6c-1-2.1-2.5-3.1-4.5-3.1C362.7,53.2,361.8,53.6,361,54.3z"/>
		<path class="st1" d="M377.9,62c1.2-0.8,3.7-1.9,7.4-3.3V57c0-1.4-0.1-2.3-0.4-2.9c-0.5-0.9-1.4-1.4-2.8-1.4c-0.7,0-1.3,0.2-2,0.5
			c-0.6,0.4-0.9,0.9-0.9,1.5c0,0.2,0,0.4,0.1,0.8c0.1,0.4,0.1,0.6,0.1,0.7c0,0.8-0.2,1.3-0.7,1.6c-0.3,0.2-0.6,0.3-1,0.3
			c-0.6,0-1.1-0.2-1.4-0.6c-0.3-0.4-0.5-0.8-0.5-1.3c0-0.9,0.6-1.9,1.7-3c1.2-1,2.9-1.5,5.1-1.5c2.6,0,4.4,0.8,5.3,2.5
			c0.5,0.9,0.7,2.3,0.7,4.1v8.1c0,0.8,0.1,1.3,0.2,1.6c0.2,0.5,0.5,0.8,1.1,0.8c0.3,0,0.6,0,0.8-0.1c0.2-0.1,0.6-0.3,1-0.7v1
			c-0.4,0.5-0.9,1-1.4,1.3c-0.8,0.5-1.5,0.8-2.3,0.8c-0.9,0-1.6-0.3-2-0.9c-0.4-0.6-0.6-1.3-0.7-2.1c-1,0.9-1.9,1.5-2.6,2
			c-1.2,0.7-2.4,1.1-3.5,1.1c-1.2,0-2.2-0.4-3-1.2c-0.8-0.8-1.3-1.8-1.3-3.1C375,64.9,376,63.3,377.9,62z M385.3,59.7
			c-1.5,0.5-2.8,1.1-3.8,1.7c-1.9,1.2-2.9,2.6-2.9,4.1c0,1.2,0.4,2.1,1.2,2.7c0.5,0.4,1.1,0.6,1.8,0.6c0.9,0,1.7-0.2,2.5-0.7
			c0.8-0.5,1.2-1.1,1.2-1.9V59.7z"/>
		<path class="st1" d="M392,70.2c1.2-0.1,2.1-0.3,2.5-0.7c0.4-0.3,0.6-1,0.6-2.1v-9.1c0-1.3-0.1-2.3-0.4-2.9
			c-0.2-0.6-0.7-0.9-1.4-0.9c-0.1,0-0.3,0-0.5,0.1c-0.2,0-0.5,0.1-0.7,0.1v-0.7c0.8-0.3,1.5-0.5,2.4-0.8c0.8-0.3,1.4-0.5,1.7-0.6
			c0.7-0.3,1.4-0.5,2.1-0.9c0.1,0,0.2,0,0.2,0.1c0,0.1,0,0.2,0,0.4v3.3c0.9-1.2,1.7-2.1,2.5-2.8c0.8-0.7,1.6-1,2.5-1
			c0.7,0,1.2,0.2,1.7,0.6c0.4,0.4,0.6,0.9,0.6,1.5c0,0.6-0.2,1-0.5,1.4c-0.3,0.4-0.7,0.6-1.2,0.6c-0.5,0-1-0.2-1.5-0.7
			c-0.5-0.5-0.9-0.7-1.2-0.7c-0.5,0-1,0.4-1.7,1.1c-0.7,0.8-1,1.5-1,2.3v9.1c0,1.2,0.3,2,0.8,2.4c0.5,0.5,1.4,0.7,2.7,0.6v0.7H392
			V70.2z"/>
		<path class="st1" d="M416.7,52.5c0.5,0.3,1.1,0.7,1.6,1.2v-6.4c0-0.8-0.1-1.4-0.3-1.7c-0.2-0.3-0.6-0.5-1.3-0.5
			c-0.2,0-0.3,0-0.4,0c-0.1,0-0.4,0-0.8,0.1v-0.7l1.7-0.4c0.6-0.2,1.2-0.3,1.8-0.5c0.6-0.2,1.1-0.3,1.6-0.5c0.2-0.1,0.6-0.2,1.1-0.4
			l0.1,0l0,2.1c0,0.8,0,1.6,0,2.4c0,0.8,0,1.6,0,2.4l0,16.5c0,0.9,0.1,1.5,0.3,1.8c0.2,0.3,0.8,0.5,1.7,0.5c0.1,0,0.3,0,0.4,0
			c0.1,0,0.3,0,0.4-0.1v0.7c-0.1,0-1.1,0.4-2.9,1l-3.2,1.2l-0.1-0.2v-2.5c-0.8,0.8-1.4,1.4-2,1.8c-1,0.6-2.1,0.9-3.4,0.9
			c-2.3,0-4.1-0.9-5.6-2.7s-2.1-3.8-2.1-6.1c0-2.9,0.9-5.4,2.6-7.5c1.7-2.1,3.8-3.1,6.2-3.1C415,51.9,415.9,52.1,416.7,52.5z
			 M417.3,68.2c0.6-0.6,1-1.2,1-1.8v-8.6c0-1.7-0.5-3-1.4-3.7c-0.9-0.7-1.8-1.1-2.7-1.1c-1.7,0-3,0.7-4,2.2
			c-0.9,1.5-1.4,3.3-1.4,5.5c0,2.2,0.5,4.1,1.5,5.8c1,1.7,2.5,2.5,4.5,2.5C415.8,69.1,416.6,68.8,417.3,68.2z"/>
	</g>
</g>
</svg>
