<?xml version="1.0" encoding="UTF-8"?>
<svg id="Layer_1" xmlns="http://www.w3.org/2000/svg" xmlns:xlink="http://www.w3.org/1999/xlink" version="1.1" viewBox="0 0 525.2 74.6">
  <!-- Generator: Adobe Illustrator 29.2.1, SVG Export Plug-In . SVG Version: 2.1.0 Build 116)  -->
  <defs>
    <style>
      .st0 {
        fill: none;
      }

      .st1 {
        mask: url(#mask);
      }

      .st2 {
        fill: #444;
      }

      .st3 {
        filter: url(#luminosity-noclip);
      }

      .st4 {
        fill: url(#linear-gradient2);
      }

      .st5 {
        fill: url(#linear-gradient1);
      }

      .st6 {
        fill: url(#linear-gradient9);
      }

      .st7 {
        fill: url(#linear-gradient3);
      }

      .st8 {
        fill: url(#linear-gradient6);
      }

      .st9 {
        fill: url(#linear-gradient8);
      }

      .st10 {
        fill: url(#linear-gradient7);
      }

      .st11 {
        fill: url(#linear-gradient5);
      }

      .st12 {
        fill: url(#linear-gradient4);
      }

      .st13 {
        fill: url(#linear-gradient13);
      }

      .st14 {
        fill: url(#linear-gradient12);
      }

      .st15 {
        fill: url(#linear-gradient15);
      }

      .st16 {
        fill: url(#linear-gradient11);
      }

      .st17 {
        fill: url(#linear-gradient10);
      }

      .st18 {
        fill: url(#linear-gradient14);
      }

      .st19 {
        fill: url(#linear-gradient);
      }

      .st20 {
        fill: #93368f;
      }

      .st21 {
        fill: #fff;
      }

      .st22 {
        fill: #434a48;
      }

      .st23 {
        fill: #f8f8f8;
      }

      .st24 {
        fill: #49504e;
      }

      .st25 {
        fill: #3d4644;
      }

      .st26 {
        clip-path: url(#clippath);
      }
    </style>
    <linearGradient id="linear-gradient" x1="-.5" y1="25" x2="30.9" y2="60.3" gradientUnits="userSpaceOnUse">
      <stop offset="0" stop-color="#d3539e"/>
      <stop offset="1" stop-color="#89277e"/>
    </linearGradient>
    <linearGradient id="linear-gradient1" x1="6.8" y1="18.4" x2="38.3" y2="53.7" xlink:href="#linear-gradient"/>
    <linearGradient id="linear-gradient2" x1="30.2" y1="-2.4" x2="33.1" y2=".9" xlink:href="#linear-gradient"/>
    <linearGradient id="linear-gradient3" x1="17.6" y1="8.9" x2="49" y2="44.2" xlink:href="#linear-gradient"/>
    <linearGradient id="linear-gradient4" x1="19.4" y1="7.3" x2="50.8" y2="42.6" xlink:href="#linear-gradient"/>
    <linearGradient id="linear-gradient5" x1="85.5" y1="73" x2="85.5" y2="55.2" xlink:href="#linear-gradient"/>
    <linearGradient id="linear-gradient6" x1="98.7" y1="73" x2="98.7" y2="55.2" xlink:href="#linear-gradient"/>
    <linearGradient id="linear-gradient7" x1="112.9" y1="73" x2="112.9" y2="55.2" xlink:href="#linear-gradient"/>
    <linearGradient id="linear-gradient8" x1="125.8" y1="73" x2="125.8" y2="55.2" xlink:href="#linear-gradient"/>
    <linearGradient id="linear-gradient9" x1="138.5" y1="73" x2="138.5" y2="55.2" xlink:href="#linear-gradient"/>
    <linearGradient id="linear-gradient10" x1="156.3" y1="73" x2="156.3" y2="55.2" xlink:href="#linear-gradient"/>
    <linearGradient id="linear-gradient11" x1="173.7" y1="73" x2="173.7" y2="55.2" xlink:href="#linear-gradient"/>
    <linearGradient id="linear-gradient12" x1="187.8" y1="73" x2="187.8" y2="55.2" xlink:href="#linear-gradient"/>
    <linearGradient id="linear-gradient13" x1="403.5" y1="27.4" x2="445.2" y2="27.4" xlink:href="#linear-gradient"/>
    <linearGradient id="linear-gradient14" x1="448.1" y1="27.9" x2="496.9" y2="27.9" xlink:href="#linear-gradient"/>
    <clipPath id="clippath">
      <polygon class="st0" points="493.8 15.1 462.3 62.8 474.4 62.8 505.9 15.1 493.8 15.1"/>
    </clipPath>
    <filter id="luminosity-noclip" x="460.3" y="12.9" width="49.4" height="52.1" color-interpolation-filters="sRGB" filterUnits="userSpaceOnUse">
      <feFlood flood-color="#fff" result="bg"/>
      <feBlend in="SourceGraphic" in2="bg"/>
    </filter>
    <mask id="mask" x="460.3" y="12.9" width="49.4" height="52.1" maskUnits="userSpaceOnUse">
      <g class="st3">
        <image width="206" height="217" transform="translate(460.3 12.9) scale(.2)" xlink:href="pps_logo_2-1.png"/>
      </g>
    </mask>
    <linearGradient id="linear-gradient15" x1="489.5" y1="41.9" x2="481.4" y2="36.5" gradientUnits="userSpaceOnUse">
      <stop offset="0" stop-color="#3d4644"/>
      <stop offset="1" stop-color="#3d4644" stop-opacity="0"/>
    </linearGradient>
  </defs>
  <g>
    <polygon class="st19" points="6.9 49 23.3 49 15.1 26.9 6.9 49"/>
    <path class="st5" d="M29.6,26.3c-4.7-.3-9.3-1-13.9-2.2l9.2,24.9h3.5l-1.8,1.1c-3.4,2-7.4,3.1-11.5,3.1s-8.1-1.1-11.5-3.1l-1.8-1.1h3.5l9.3-25.2c-.5-.1-1-.3-1.5-.4h-.4c0-.1.6-1.9.6-1.9h.4c5.2,1.8,10.6,2.7,15.9,3,.3-1,1.1-1.8,2.1-2.2l1.2-21.6L0,19.7v38l28.8,16.6,2.6-45.7c-.9-.5-1.6-1.3-1.8-2.3Z"/>
    <polygon class="st4" points="32.9 .7 32.9 .7 32.9 .7 32.9 .7"/>
    <path class="st7" d="M65.9,19.7L32.9.7h0s1.2,21.6,1.2,21.6c1,.4,1.8,1.2,2.1,2.2,5.4-.3,10.7-1.2,15.9-2.7h.4c0-.1.6,1.7.6,1.7h-.4c-.5.3-1,.4-1.5.5l9.3,25h3.5l-1.8,1.1c-3.4,2-7.4,3.1-11.5,3.1s-8.1-1.1-11.5-3.1l-1.8-1.1h3.5l9.2-24.7c-4.5,1.2-9.2,1.9-13.8,2.1-.2,1-.9,1.8-1.8,2.3l2.6,45.7,28.8-16.6V19.7Z"/>
    <polygon class="st12" points="58.9 49 50.8 26.9 42.6 49 58.9 49"/>
  </g>
  <g>
    <path class="st2" d="M83.4,1.3h17.1c10.1,0,16.5,5.8,16.5,14.5h0c0,9.9-7.8,14.9-17.4,14.9h-8.6v14h-7.6V1.3ZM99.9,23.9c5.8,0,9.4-3.2,9.4-7.8h0c0-5.2-3.7-7.9-9.4-7.9h-8.9v15.6h8.9Z"/>
    <path class="st2" d="M123.3,1.3h17.1c10.1,0,16.5,5.8,16.5,14.5h0c0,9.9-7.8,14.9-17.4,14.9h-8.6v14h-7.6V1.3ZM139.8,23.9c5.8,0,9.4-3.2,9.4-7.8h0c0-5.2-3.7-7.9-9.4-7.9h-8.9v15.6h8.9Z"/>
    <path class="st2" d="M160.3,38.4l4.6-5.5c4.2,3.6,8.3,5.6,13.7,5.6s7.7-2.2,7.7-5.5h0c0-3.2-1.7-4.9-9.8-6.8-9.2-2.2-14.4-5-14.4-13h0c0-7.6,6.2-12.7,14.8-12.7s11.3,1.9,15.8,5.5l-4.1,5.8c-3.9-2.9-7.8-4.5-11.8-4.5s-7.1,2.3-7.1,5.1h0c0,3.5,2,5,10.3,6.9,9.2,2.2,14,5.5,14,12.7h0c0,8.2-6.4,13.1-15.5,13.1s-12.9-2.3-18.1-6.9Z"/>
  </g>
  <path class="st11" d="M87.3,52.8v21.4h-3.7v-21.4h3.7Z"/>
  <path class="st8" d="M95.1,74.3h-3.7v-16.2h3.7v2.5c.3-.4.6-.8.9-1.1.3-.3.7-.6,1.1-.9.4-.3.9-.5,1.4-.6.5-.2,1.1-.2,1.7-.2,1.8,0,3.2.6,4.2,1.7,1,1.1,1.5,2.6,1.5,4.5v10.3h-3.7v-9.2c0-1.3-.3-2.2-.9-2.9s-1.4-1-2.5-1-1.9.4-2.6,1.1c-.7.7-1,1.7-1,2.9v9.1Z"/>
  <path class="st10" d="M113.6,69.2c0,.7.2,1.2.5,1.6.3.3.8.5,1.5.5s1.6-.2,2.3-.6v3c-.5.3-1,.5-1.5.6-.5.1-1.1.2-1.8.2s-1.3,0-1.9-.2c-.6-.2-1.1-.4-1.5-.8s-.7-.9-1-1.5c-.2-.6-.3-1.4-.3-2.3v-8.5h-2.1v-3.2h2.1v-4.4h3.7v4.4h4.3v3.2h-4.3v8Z"/>
  <path class="st9" d="M124.8,74.3h-3.7v-16.2h3.7v3.6c.5-1.2,1.2-2.2,2.2-2.9.9-.7,2.1-1.1,3.6-1v3.9h-.2c-.8,0-1.6.1-2.2.4-.7.3-1.3.7-1.7,1.2-.5.5-.9,1.2-1.1,2-.3.8-.4,1.7-.4,2.8v6.2Z"/>
  <path class="st6" d="M142.2,74.3v-2c-.6.7-1.3,1.2-2.1,1.7-.9.4-1.9.7-3.1.7s-1.5-.1-2.2-.3c-.7-.2-1.3-.5-1.8-.9-.5-.4-.9-.9-1.3-1.6-.3-.6-.5-1.3-.5-2.2h0c0-.9.2-1.7.5-2.4.3-.7.8-1.2,1.4-1.6.6-.4,1.3-.7,2.1-1,.8-.2,1.7-.3,2.6-.3s1.8,0,2.5.2c.7.1,1.3.3,2,.5v-.4c0-1.1-.3-2-1-2.6-.7-.6-1.7-.9-3-.9s-1.7,0-2.5.3c-.7.2-1.4.4-2.2.7l-1-3c.9-.4,1.8-.7,2.8-1,.9-.2,2.1-.4,3.4-.4,2.4,0,4.2.6,5.4,1.8,1.2,1.2,1.7,2.9,1.7,5v9.6h-3.7ZM142.3,67.4c-.5-.2-1-.3-1.7-.5-.6-.1-1.3-.2-2-.2-1.2,0-2.1.2-2.7.7-.7.4-1,1.1-1,1.9h0c0,.8.3,1.4.9,1.8.6.4,1.3.6,2.2.6s1.2,0,1.7-.2c.5-.2,1-.4,1.4-.7.4-.3.7-.7.9-1.1s.3-.9.3-1.4v-1Z"/>
  <path class="st17" d="M152.8,74.3h-3.7v-16.2h3.7v2.5c.3-.4.6-.8.9-1.1.3-.3.7-.6,1.1-.9.4-.3.9-.5,1.4-.6.5-.2,1.1-.2,1.7-.2,1.8,0,3.2.6,4.2,1.7,1,1.1,1.5,2.6,1.5,4.5v10.3h-3.7v-9.2c0-1.3-.3-2.2-.9-2.9s-1.4-1-2.5-1-1.9.4-2.6,1.1c-.7.7-1,1.7-1,2.9v9.1Z"/>
  <path class="st16" d="M171.2,70.5c.8.7,1.9,1.1,3.1,1.1s1.7-.2,2.4-.5c.7-.3,1.3-.8,2-1.4l2.2,1.9c-.8.9-1.7,1.7-2.8,2.2-1.1.6-2.4.8-3.8.8s-2.3-.2-3.3-.6-1.9-1-2.6-1.7-1.3-1.6-1.8-2.6c-.4-1-.6-2.2-.6-3.4s.2-2.3.6-3.3c.4-1,.9-1.9,1.6-2.7.7-.8,1.5-1.4,2.5-1.8,1-.4,2-.7,3.2-.7s2.4.2,3.4.7c1,.5,1.8,1.1,2.4,1.9.6.8,1.1,1.7,1.5,2.8.3,1.1.5,2.2.5,3.3s0,.3,0,.5c0,.2,0,.3,0,.5h-11.9c.2,1.3.8,2.3,1.6,3ZM177.8,65.1c0-.6-.2-1.1-.4-1.7-.2-.5-.5-1-.8-1.3-.3-.4-.8-.7-1.2-.9-.5-.2-1-.3-1.6-.3-1.1,0-2.1.4-2.8,1.2-.7.8-1.2,1.8-1.4,3.1h8.3Z"/>
  <path class="st14" d="M188.5,69.2c0,.7.2,1.2.5,1.6.3.3.8.5,1.5.5s1.6-.2,2.3-.6v3c-.5.3-1,.5-1.5.6s-1.1.2-1.8.2-1.3,0-1.9-.2c-.6-.2-1.1-.4-1.5-.8-.4-.4-.7-.9-1-1.5-.2-.6-.3-1.4-.3-2.3v-8.5h-2.1v-3.2h2.1v-4.4h3.7v4.4h4.3v3.2h-4.3v8Z"/>
  <rect class="st25" x="381.3" y=".9" width=".8" height="73.5"/>
  <g>
    <polygon class="st20" points="401.2 61.7 392.9 74.3 466.8 74.3 475.1 61.7 401.2 61.7"/>
    <g>
      <path class="st21" d="M404.8,65h.4l2.8,6h-.5l-.8-1.7h-3.5l-.8,1.7h-.5l2.8-6ZM406.6,68.9l-1.6-3.4-1.6,3.4h3.1Z"/>
      <path class="st21" d="M409.2,65.1h.4l4.1,5.2v-5.2h.4v5.9h-.3l-4.2-5.3v5.3h-.4v-5.9Z"/>
      <path class="st21" d="M415.9,65.1h.4l4.1,5.2v-5.2h.4v5.9h-.3l-4.2-5.3v5.3h-.4v-5.9Z"/>
      <path class="st21" d="M422.7,65.1h.4v5.9h-.4v-5.9Z"/>
      <path class="st21" d="M424.5,65.1h.5l2.3,5.5,2.3-5.5h.5l-2.6,6h-.4l-2.6-6Z"/>
      <path class="st21" d="M431.3,65.1h4.2v.4h-3.8v2.3h3.4v.4h-3.4v2.4h3.8v.4h-4.3v-5.9Z"/>
      <path class="st21" d="M437,65.1h2.5c.7,0,1.3.2,1.7.6s.4.7.4,1.1h0c0,1-.7,1.6-1.7,1.7l2,2.5h-.6l-1.9-2.5h-1.9v2.5h-.4v-5.9ZM439.5,68.1c1,0,1.7-.5,1.7-1.4h0c0-.8-.6-1.3-1.7-1.3h-2v2.7h2Z"/>
      <path class="st21" d="M442.8,70.1l.3-.3c.7.6,1.3.9,2.1.9s1.5-.5,1.5-1.2h0c0-.6-.3-1-1.7-1.3-1.4-.3-2-.8-2-1.7h0c0-.9.8-1.6,1.9-1.6s1.4.2,2,.7l-.3.3c-.6-.5-1.1-.7-1.8-.7s-1.5.5-1.5,1.1h0c0,.7.3,1,1.7,1.3,1.4.3,2,.8,2,1.6h0c0,1-.8,1.6-2,1.6s-1.7-.3-2.4-1Z"/>
      <path class="st21" d="M450.7,65h.4l2.8,6h-.5l-.8-1.7h-3.5l-.8,1.7h-.5l2.8-6ZM452.5,68.9l-1.6-3.4-1.6,3.4h3.1Z"/>
      <path class="st21" d="M455.2,65.1h2.5c.7,0,1.3.2,1.7.6s.4.7.4,1.1h0c0,1-.7,1.6-1.7,1.7l2,2.5h-.6l-1.9-2.5h-1.9v2.5h-.4v-5.9ZM457.6,68.1c1,0,1.7-.5,1.7-1.4h0c0-.8-.6-1.3-1.7-1.3h-2v2.7h2Z"/>
      <path class="st21" d="M463,68.7l-2.5-3.6h.6l2.2,3.2,2.2-3.2h.5l-2.5,3.6v2.4h-.4v-2.4Z"/>
    </g>
  </g>
  <g>
    <path class="st13" d="M403.5,43.2l19.7-15c4.9-3.8,6.8-6.2,6.8-9.5s-2.3-5.4-5.9-5.4-6.3,2.1-10.5,6.8l-9.9-8.2c5.6-7.2,11.3-11.3,21.4-11.3s19.4,6.8,19.4,16.8h0c0,8.6-4.4,12.9-12.2,18.6l-9,6.3h21.7v11.9h-41.7v-11Z"/>
    <g>
      <path class="st0" d="M472.4,13.4c-5.8,0-9.6,5.9-9.6,14.4v.2c0,8.5,4,14.4,9.8,14.4s9.6-5.9,9.6-14.3h0c0-8.6-4-14.7-9.8-14.7Z"/>
      <path class="st18" d="M496.9,27.9v-.2c0-14.9-9.3-27.2-24.3-27.2s-24.4,12.5-24.4,27.4h0c0,15,9.3,27.4,24.3,27.4s5.3-.4,7.7-1.2l16.7-25.3c0-.3,0-.6,0-.9ZM482.2,28c0,8.4-3.8,14.3-9.6,14.3s-9.8-5.9-9.8-14.4v-.2c0-8.4,3.8-14.4,9.6-14.4s9.8,6.1,9.8,14.5h0Z"/>
    </g>
    <g>
      <path class="st20" d="M508.6,32.6v-3.9h-1.1v-2.7h1.1v-2.4h3.4v2.4h2.2v2.7h-2.2v3.3c0,.7.3,1,.9,1s.9-.1,1.3-.3v2.6c-.6.3-1.4.6-2.4.6-2,0-3.2-.9-3.2-3.2Z"/>
      <path class="st20" d="M515.7,22.6h3.4v4.7c.6-.8,1.5-1.5,2.9-1.5,2.1,0,3.3,1.3,3.3,3.5v6.3h-3.4v-5.2c0-1.1-.5-1.6-1.4-1.6s-1.4.6-1.4,1.6v5.2h-3.4v-13Z"/>
    </g>
    <g class="st26">
      <g class="st1">
        <polygon class="st15" points="493.8 15.1 462.3 62.8 476.1 62.8 507.6 15.1 493.8 15.1"/>
      </g>
    </g>
  </g>
  <rect class="st25" x="209.6" y="0" width=".8" height="73.5"/>
  <path class="st24" d="M236.5,56.5v2.1h-10.3v5.4h9.4v2.1h-9.4v5.3s.4.5.5.5h10.1v1.8h-12.7v-17.2h12.4Z"/>
  <path class="st24" d="M329.4,0v17.8h-2.1s0-2.1,0-2.1c-.5,0-.4.7-.9,1-3.4,2.7-8.2,1.2-9.5-2.9-2.2-6.8,5.1-12.2,10.4-6.9V0h2.1ZM322.3,6.7c-5.6.8-4.6,10.2,1.1,9.6,5.7-.6,4.8-10.4-1.1-9.6Z"/>
  <path class="st22" d="M256.8,0v17.8h-2.1s0-2.1,0-2.1c-4.3,5.1-11.5,1.5-10.9-5s7.2-8.1,10.9-3.5V0h2.1ZM249.8,6.7c-5.6.6-4.8,10,.8,9.6s5.2-10.3-.8-9.6Z"/>
  <path class="st24" d="M275.8,16v5.7h-2.1V5.1h2.1s0,2.1,0,2.1c5.1-6,13.1.1,10.2,7.1-1.8,4.4-7,5.1-10.2,1.7ZM279.7,6.7c-6.5.9-4.3,11.8,2.2,9.2s2.7-9.9-2.2-9.2Z"/>
  <path class="st24" d="M246.8,45.9v-1.5c-2.9,2.8-9.8,2.1-9.3-2.8s6.2-4.4,9.3-3.3c.2-2.3-1.6-3.6-3.8-3.6s-4.1,2.3-4.4-.9c3.1-1.3,8.5-1.8,9.8,2.1s.8,7.6.5,9.2-1.2.7-2.1.8ZM246.8,39.9c-.5-.6-8.3-1.3-7.1,2.7s6.4,2.2,7.1-.8.2-1.7,0-1.9Z"/>
  <path class="st24" d="M290.7,12.4c.5,3.5,3.8,5,6.9,3.2s1.2-2,2.4.3c-5,5-12.1,1.8-11.5-5.4s9.6-7.7,11.7-1.3.9,3.3,0,3.3h-9.5ZM290.7,10.9h7.4c.8,0-.1-2.1-.5-2.6-2.3-3.3-7.3-1.3-7,2.6Z"/>
  <path class="st24" d="M343.9,12.4h-9.7c0,2.8,2.5,4.3,5.2,3.8s2.7-1.6,2.9-1.6,1.5.9,1.4,1.3c-.2.8-3.2,2.1-4.1,2.2-9.9,1.3-10-13.5-1.2-13.3s6.2,4,5.6,7.6ZM341.8,10.9c-.2-5.8-7.1-5.5-7.9,0h7.9Z"/>
  <path class="st24" d="M267.7,68.3h-10c.8,3.3,3.3,4.9,6.6,3.4s1.6-1.2,1.8-1.2c.2,0,1.1.9,1,1.3-.1.7-2.1,1.8-2.8,2-8.1,2.3-11.8-8.2-5.7-12.1,4.9-3.1,9.9,1.4,9.2,6.6ZM265.6,66.8c-.3-5.7-7.3-5.5-7.9,0h7.9Z"/>
  <path class="st24" d="M322.4,68.3h-10c.7,3.3,3.4,4.8,6.6,3.4s1.6-1.2,1.8-1.2c.2,0,1.1.9,1,1.3-.1.7-2.1,1.8-2.8,2-8.1,2.3-11.8-8.2-5.7-12.1,4.9-3.1,9.9,1.4,9.2,6.6ZM320.3,66.8c-.4-5.8-7.4-5.5-7.9,0h7.9Z"/>
  <path class="st24" d="M271.3,12.4h-10c1,3.7,3.7,4.9,7.2,3.1s1.1-1,1.1-1,1.1.9,1,1.3c-.1.7-2.1,1.8-2.8,2-8.1,2.3-11.7-8.2-5.7-12.1s10,1.3,9.2,6.6ZM269.2,10.9c-.2-5.8-7.4-5.5-7.9,0h7.9Z"/>
  <path class="st22" d="M236.5,28.7v1.8h-9.8s-.5.4-.5.5v5.6h9.1v1.8h-9.1v7.6c-.4,0-2.1,0-2.1-.5v-16.8h12.4Z"/>
  <path class="st22" d="M357.5,17.8h-2.1v-8.9c0-1.2-2.5-2.2-3.6-2.1-1.6.1-3.3,1.7-3.3,3.3v7.7h-2.1V5.1c.4,0,2-.1,2.1,0,.2.2-.3,1.5.1,1.8,1.6-2.4,5.5-2.8,7.6-.9s1.4,2.1,1.4,2.3v9.5Z"/>
  <path class="st22" d="M241.4,17.8h-2.1v-8.9c0-1.2-2.5-2.2-3.6-2.1-1.6.1-3.3,1.7-3.3,3.3v7.7h-2.1V5.1c.4,0,2-.1,2.1,0,.2.2-.3,1.5.1,1.8,1.6-2.4,5.5-2.8,7.6-.9s1.4,2.1,1.4,2.3v9.5Z"/>
  <path class="st22" d="M313.9,17.8h-1.8v-7.7c0-1.6-1.8-3.4-3.5-3.4s-3.8,1.9-3.8,3.7v7.4h-1.8V5.1h1.8s.1,1.8.1,1.8c1.7-2.5,5.6-2.8,7.7-.8s1.2,1.8,1.2,2.1v9.5Z"/>
  <path class="st24" d="M274.9,60.8c1.4-.2,5.8.6,6.1,2.2s-.9,1.3-1.3,1.3c-.8,0-2-2.2-4.4-1.7-6.3,1.2-4.1,12.3,3.2,8.7s1.5-1.8,2.4,0-2.6,2.5-3.4,2.6c-9.6,1.7-10.9-12-2.6-13.1Z"/>
  <path class="st24" d="M240.1,62.9c0,0-1.4,0-1.8,0v-1.8c2.8.4,1.5-.6,1.9-2.5s2.8-2.9,4.9-2.7,1,.9,1,2.1c-2.8-.9-4.3,0-3.9,3h3.9s0,1.8,0,1.8h-3.9s0,10.9,0,10.9h-2.1c-.3-1.4.4-10.5,0-10.9Z"/>
  <path class="st24" d="M299.4,61.1c.4.3,2.9,7.7,3.5,9s0,.8.6.6,3.1-8.6,3.9-9.4,1.5-.2,2.3-.3c-1.5,3.5-2.7,7.3-4.5,10.8s-1.1,3-3,1.8l-5.2-12.2c-.3-.8,2.3-.5,2.4-.4Z"/>
  <path class="st22" d="M248.9,62.9c-.1-.1-1.4.1-1.5,0s0-1.8,0-1.8c.1-.1,1.4.1,1.5,0s0-1.2,0-1.6c.8-3.6,2.5-3.8,6-3.6v2.1c-2.8-1.1-4,.2-3.9,3h3.9s0,1.8,0,1.8h-3.9s0,10.9,0,10.9h-2.1c-.3-1.4.4-10.5,0-10.9Z"/>
  <path class="st24" d="M284,62.9c0,0-1.4,0-1.8,0v-1.8c.4,0,1.7.1,1.8,0s-.1-3.3,0-3.9c3.1-.5,1.9,1.8,2.1,3.9h3.9s0,1.8,0,1.8h-3.9s0,8,0,8c0,1.5,2.9,1.1,3.9.8,1.1,4-6,2.4-6,.2s.3-8.6,0-8.9Z"/>
  <path class="st22" d="M361.4,7c0,0-1.4,0-1.8,0v-1.8c.4,0,1.7.1,1.8,0,.5-.5-1-4,1.1-4s.8,2.7,1.1,4h3.9s0,1.8,0,1.8h-3.9s0,8.3,0,8.3c0,1,3.2.8,3.9.5.8,2.8-3.2,2.9-4.9,1.7s-1.2-1.3-1.2-1.5c0-1.2.3-8.6,0-8.9Z"/>
  <path class="st24" d="M257.7,32.9c2.6-.3,2,.7,2.3,2.7,1-1.9,2.8-3,5-2.7.2,2.8.1,1.7-1.7,2.4s-1.9.8-2.6,1.9-.8,1.8-.8,1.9v6.8h-2.1v-13Z"/>
  <path class="st22" d="M226.5.9v16.5c0,.5-1.7.5-2.1.5V.9h2.1Z"/>
  <rect class="st22" x="292.8" y="61" width="1.8" height="12.7"/>
  <rect class="st22" x="252.2" y="33.2" width="1.8" height="12.4"/>
  <rect class="st24" x="292.5" y="56.2" width="2.4" height="2.4"/>
  <rect class="st24" x="251.9" y="28.4" width="2.4" height="2.1"/>
  <path class="st23" d="M322.3,6.7c5.9-.8,6.8,9,1.1,9.6-5.7.6-6.7-8.8-1.1-9.6Z"/>
  <path class="st23" d="M249.8,6.7c6-.6,6.7,9.2.8,9.6s-6.5-9-.8-9.6Z"/>
  <path class="st23" d="M279.7,6.7c5-.7,6.7,7.4,2.2,9.2-6.5,2.6-8.7-8.3-2.2-9.2Z"/>
  <path class="st23" d="M246.8,39.9c.2.2,0,1.5,0,1.9-.7,3.1-6.2,3.6-7.1.8-1.2-4,6.6-3.3,7.1-2.7Z"/>
  <path class="st23" d="M290.7,10.9c-.3-3.9,4.7-5.9,7-2.6s1.3,2.6.5,2.6h-7.4Z"/>
  <path class="st23" d="M341.8,10.9h-7.9c.7-5.5,7.7-5.8,7.9,0Z"/>
  <path class="st23" d="M265.6,66.8h-7.9c.5-5.5,7.6-5.7,7.9,0Z"/>
  <path class="st23" d="M320.3,66.8h-7.9c.5-5.5,7.5-5.8,7.9,0Z"/>
  <path class="st23" d="M269.2,10.9h-7.9c.5-5.5,7.7-5.8,7.9,0Z"/>
</svg>