<?xml version="1.0" encoding="UTF-8"?>
<svg id="Layer_1" xmlns="http://www.w3.org/2000/svg" xmlns:xlink="http://www.w3.org/1999/xlink" version="1.1" viewBox="0 0 499.8 74.2">
  <!-- Generator: Adobe Illustrator 29.2.1, SVG Export Plug-In . SVG Version: 2.1.0 Build 116)  -->
  <defs>
    <style>
      .st0 {
        fill: none;
      }

      .st1 {
        fill: #444;
      }

      .st2 {
        fill: url(#linear-gradient2);
      }

      .st3 {
        fill: url(#linear-gradient1);
      }

      .st4 {
        fill: url(#linear-gradient3);
      }

      .st5 {
        fill: url(#linear-gradient6);
      }

      .st6 {
        fill: url(#linear-gradient7);
      }

      .st7 {
        fill: url(#linear-gradient5);
      }

      .st8 {
        fill: url(#linear-gradient4);
      }

      .st9 {
        fill: #93368f;
      }

      .st10 {
        fill: url(#linear-gradient);
      }

      .st11 {
        fill: #fff;
      }

      .st12 {
        fill: #3d4644;
      }

      .st13 {
        clip-path: url(#clippath);
      }
    </style>
    <linearGradient id="linear-gradient" x1="396.5" y1="40.6" x2="431.9" y2="40.6" gradientTransform="translate(0 74.9) scale(1 -1)" gradientUnits="userSpaceOnUse">
      <stop offset="0" stop-color="#d3539e"/>
      <stop offset="1" stop-color="#89277e"/>
    </linearGradient>
    <linearGradient id="linear-gradient1" x1="434.3" y1="40.1" x2="475.7" y2="40.1" gradientTransform="translate(0 74.9) scale(1 -1)" gradientUnits="userSpaceOnUse">
      <stop offset="0" stop-color="#d3539e"/>
      <stop offset="1" stop-color="#89277e"/>
    </linearGradient>
    <clipPath id="clippath">
      <polygon class="st0" points="473.1 23.9 446.4 64.4 456.7 64.4 483.4 23.9 473.1 23.9"/>
    </clipPath>
    <linearGradient id="linear-gradient2" x1="469.4" y1="28.2" x2="462.6" y2="32.8" gradientTransform="translate(0 74.9) scale(1 -1)" gradientUnits="userSpaceOnUse">
      <stop offset="0" stop-color="#3d4644"/>
      <stop offset="1" stop-color="#3d4644" stop-opacity="0"/>
    </linearGradient>
    <linearGradient id="linear-gradient3" x1="-.5" y1="50.7" x2="30.8" y2="15.4" gradientTransform="translate(0 74.9) scale(1 -1)" gradientUnits="userSpaceOnUse">
      <stop offset="0" stop-color="#d3539e"/>
      <stop offset="1" stop-color="#89277e"/>
    </linearGradient>
    <linearGradient id="linear-gradient4" x1="6.8" y1="57.3" x2="38.2" y2="22" xlink:href="#linear-gradient3"/>
    <linearGradient id="linear-gradient5" x1="32.9" y1="74.9" x2="32.9" y2="74.9" xlink:href="#linear-gradient3"/>
    <linearGradient id="linear-gradient6" x1="17.5" y1="66.8" x2="48.9" y2="31.5" xlink:href="#linear-gradient3"/>
    <linearGradient id="linear-gradient7" x1="19.3" y1="68.4" x2="50.7" y2="33.1" xlink:href="#linear-gradient3"/>
  </defs>
  <rect class="st12" x="377.7" y="11.9" width=".7" height="62.4"/>
  <g>
    <polygon class="st9" points="394.6 63.4 387.5 74.1 450.2 74.1 457.2 63.4 394.6 63.4"/>
    <g>
      <path class="st11" d="M397.6,66.2h.3l2.4,5.1h-.4l-.7-1.4h-3l-.7,1.4h-.4l2.4-5.1h0ZM399.1,69.6l-1.4-2.9-1.4,2.9h2.7Z"/>
      <path class="st11" d="M401.3,66.3h.3l3.5,4.4v-4.4h.3v5h-.3l-3.6-4.5v4.5h-.3v-5Z"/>
      <path class="st11" d="M407,66.3h.3l3.5,4.4v-4.4h.3v5h-.3l-3.6-4.5v4.5h-.3v-5Z"/>
      <path class="st11" d="M412.8,66.3h.3v5h-.3v-5Z"/>
      <path class="st11" d="M414.3,66.3h.4l2,4.7,2-4.7h.4l-2.2,5.1h-.3l-2.2-5.1h0Z"/>
      <path class="st11" d="M420.1,66.3h3.6v.3h-3.2v2h2.9v.3h-2.9v2h3.2v.3h-3.6v-5h0Z"/>
      <path class="st11" d="M424.9,66.3h2.1c.6,0,1.1.2,1.4.5s.3.6.3.9h0c0,.8-.6,1.4-1.4,1.4l1.7,2.1h-.5l-1.6-2.1h-1.6v2.1h-.3v-5h0ZM427,68.9c.8,0,1.4-.4,1.4-1.2h0c0-.7-.5-1.1-1.4-1.1h-1.7v2.3s1.7,0,1.7,0Z"/>
      <path class="st11" d="M429.8,70.6l.3-.3c.6.5,1.1.8,1.8.8s1.3-.4,1.3-1h0c0-.5-.3-.8-1.4-1.1-1.2-.3-1.7-.7-1.7-1.4h0c0-.8.7-1.4,1.6-1.4s1.2.2,1.7.6l-.3.3c-.5-.4-.9-.6-1.5-.6s-1.3.4-1.3.9h0c0,.6.3.8,1.4,1.1,1.2.3,1.7.7,1.7,1.4h0c0,.8-.7,1.4-1.7,1.4s-1.4-.3-2-.8l.2.3Z"/>
      <path class="st11" d="M436.5,66.2h.3l2.4,5.1h-.4l-.7-1.4h-3l-.7,1.4h-.4l2.4-5.1h0ZM438.1,69.6l-1.4-2.9-1.4,2.9h2.7Z"/>
      <path class="st11" d="M440.4,66.3h2.1c.6,0,1.1.2,1.4.5s.3.6.3.9h0c0,.8-.6,1.4-1.4,1.4l1.7,2.1h-.5l-1.6-2.1h-1.6v2.1h-.3v-5h0ZM442.4,68.9c.8,0,1.4-.4,1.4-1.2h0c0-.7-.5-1.1-1.4-1.1h-1.7v2.3s1.7,0,1.7,0Z"/>
      <path class="st11" d="M447,69.4l-2.1-3.1h.5l1.9,2.7,1.9-2.7h.4l-2.1,3.1v2h-.3v-2h0Z"/>
    </g>
  </g>
  <g>
    <path class="st10" d="M396.5,47.8l16.7-12.7c4.2-3.2,5.8-5.3,5.8-8.1s-2-4.6-5-4.6-5.3,1.8-8.9,5.8l-8.4-7c4.8-6.1,9.6-9.6,18.2-9.6s16.5,5.8,16.5,14.3h0c0,7.3-3.7,10.9-10.3,15.8l-7.6,5.3h18.4v10.1h-35.4v-9.3h.2Z"/>
    <g>
      <path class="st0" d="M455,22.5c-4.9,0-8.1,5-8.1,12.2v.2c0,7.2,3.4,12.2,8.3,12.2s8.1-5,8.1-12.1h0c0-7.3-3.4-12.5-8.3-12.5Z"/>
      <path class="st3" d="M455.1,11.5c-12.7,0-20.7,10.6-20.7,23.2s7.9,23.2,20.6,23.2,4.8,0,5.9,0c.1-.2.2-.4.4-.6-.2-.1-.2-.2.2-.4l14.2-21.5v-.9c0-12.6-7.9-23.1-20.6-23.1ZM463.3,34.9c0,7.1-3.2,12.1-8.1,12.1s-8.3-5-8.3-12.2v-.2c0-7.1,3.2-12.2,8.1-12.2s8.3,5.2,8.3,12.3v.2Z"/>
    </g>
    <g>
      <path class="st9" d="M485.7,38.8v-3.3h-.9v-2.3h.9v-2h2.9v2h1.9v2.3h-1.9v2.8c0,.6.3.8.8.8s.8,0,1.1-.3v2.2c-.5.3-1.2.5-2,.5-1.7,0-2.7-.8-2.7-2.7h0Z"/>
      <path class="st9" d="M491.7,30.3h2.9v4c.5-.7,1.3-1.3,2.5-1.3,1.8,0,2.8,1.1,2.8,3v5.3h-2.9v-4.4c0-.9-.4-1.4-1.2-1.4s-1.2.5-1.2,1.4v4.4h-2.9v-11h0Z"/>
    </g>
    <g class="st13">
      <polygon class="st2" points="473.1 23.9 446.4 64.4 458.1 64.4 484.8 23.9 473.1 23.9"/>
    </g>
  </g>
  <g>
    <polygon class="st4" points="6.9 48.2 23.2 48.2 15.1 26.2 6.9 48.2"/>
    <path class="st8" d="M29.5,25.6c-4.7-.3-9.3-1-13.9-2.2l9.2,24.8h3.5l-1.8,1.1c-3.4,2-7.4,3.1-11.5,3.1s-8.1-1.1-11.5-3.1l-1.8-1.1h3.5l9.3-25.1c-.5-.1-1-.3-1.5-.4h-.4c0-.1.6-1.9.6-1.9h.4c5.2,1.8,10.5,2.7,15.9,3,.3-1,1.1-1.8,2.1-2.2l1.2-21.5L0,19v38l28.7,16.6,2.6-45.6c-.9-.5-1.6-1.3-1.8-2.3h0Z"/>
    <polygon class="st7" points="32.9 0 32.9 0 32.9 0 32.9 0"/>
    <path class="st5" d="M65.7,19L32.9,0h0l1.2,21.5c1,.4,1.8,1.2,2.1,2.2,5.3-.3,10.7-1.2,15.9-2.7h.4c0-.1.6,1.7.6,1.7h-.4c-.5.3-1,.4-1.5.5l9.2,25h3.5l-1.8,1.1c-3.4,2-7.4,3.1-11.5,3.1s-8.1-1.1-11.5-3.1l-1.8-1.1h3.5l9.1-24.7c-4.5,1.2-9.1,1.9-13.8,2.1-.2,1-.9,1.8-1.8,2.2l2.6,45.6,28.7-16.6V19Z"/>
    <polygon class="st6" points="58.8 48.2 50.6 26.2 42.5 48.2 58.8 48.2"/>
  </g>
  <g>
    <path class="st1" d="M83.1,11.9h6.8c4,0,6.6,2.3,6.6,5.8h0c0,3.9-3.1,5.9-6.9,5.9h-3.4v5.6h-3V11.9h0ZM89.7,20.9c2.3,0,3.7-1.3,3.7-3.1h0c0-2.1-1.5-3.1-3.7-3.1h-3.5v6.2h3.5Z"/>
    <path class="st1" d="M98.6,24.5v-8.3h3v7.4c0,2,1,3.2,2.8,3.2s2.9-1.2,2.9-3.2v-7.4h3v13h-3v-2c-.8,1.2-2.1,2.3-4.1,2.3-2.9,0-4.6-2-4.6-5h0Z"/>
    <path class="st1" d="M116.5,27.2v2h-3V11.2h3v7.2c1-1.4,2.3-2.4,4.4-2.4,3.1,0,6.1,2.4,6.1,6.8h0c0,4.4-3,6.8-6.1,6.8s-3.5-1.1-4.4-2.3h0ZM123.9,22.7h0c0-2.6-1.7-4.2-3.7-4.2s-3.8,1.7-3.8,4.2h0c0,2.6,1.8,4.2,3.8,4.2s3.7-1.6,3.7-4.2Z"/>
    <path class="st1" d="M129.6,11.2h3v18h-3V11.2Z"/>
    <path class="st1" d="M135.9,11.4h3.2v2.8h-3.2v-2.8ZM136,16.2h3v13h-3v-13Z"/>
    <path class="st1" d="M141.6,22.8h0c0-3.7,2.9-6.9,6.8-6.9s4,.9,5.2,2.2l-1.9,2c-.9-1-1.9-1.6-3.4-1.6-2.2,0-3.7,1.9-3.7,4.1h0c0,2.4,1.6,4.2,3.9,4.2s2.4-.7,3.4-1.6l1.8,1.8c-1.3,1.4-2.8,2.4-5.3,2.4-3.9,0-6.7-3-6.7-6.7h0Z"/>
    <path class="st1" d="M83.1,33.7h6.8c4,0,6.6,2.3,6.6,5.8h0c0,3.9-3.1,5.9-6.9,5.9h-3.4v5.6h-3v-17.3h0ZM89.7,42.7c2.3,0,3.7-1.3,3.7-3.1h0c0-2.1-1.5-3.1-3.7-3.1h-3.5v6.2h3.5Z"/>
    <path class="st1" d="M98.7,37.9h3v2.9c.8-2,2.3-3.3,4.6-3.2v3.2h-.2c-2.6,0-4.4,1.7-4.4,5.2v5h-3v-13h0Z"/>
    <path class="st1" d="M107.1,44.5h0c0-3.8,3-6.9,7-6.9s6.9,3,6.9,6.8h0c0,3.7-3,6.8-7,6.8s-6.9-3-6.9-6.7h0ZM118,44.5h0c0-2.3-1.7-4.2-4-4.2s-3.9,1.9-3.9,4.1h0c0,2.3,1.7,4.2,4,4.2s3.9-1.9,3.9-4.1h0Z"/>
    <path class="st1" d="M122.3,49.3l1.3-2c1.4,1.1,2.9,1.6,4.3,1.6s2-.5,2-1.4h0c0-1.1-1.4-1.4-2.9-1.9-1.9-.5-4.1-1.3-4.1-3.8h0c0-2.5,2.1-4,4.6-4s3.4.6,4.8,1.5l-1.2,2.1c-1.3-.8-2.6-1.2-3.7-1.2s-1.8.5-1.8,1.3h0c0,1,1.4,1.4,2.9,1.9,1.9.6,4,1.5,4,3.8h0c0,2.8-2.1,4.1-4.8,4.1s-3.9-.7-5.5-2h0Z"/>
    <path class="st1" d="M134.4,44.5h0c0-3.8,2.6-6.8,6.4-6.8s6.2,3.3,6.2,7,0,.5,0,.8h-9.6c.3,2.1,1.8,3.3,3.7,3.3s2.5-.5,3.5-1.6l1.8,1.6c-1.2,1.5-2.9,2.4-5.3,2.4-3.8,0-6.7-2.7-6.7-6.8h0ZM144,43.5c-.2-1.9-1.3-3.4-3.3-3.4s-3.1,1.4-3.4,3.4h6.7Z"/>
    <path class="st1" d="M148.7,44.5h0c0-3.7,2.9-6.9,6.8-6.9s4,.9,5.2,2.2l-1.9,2c-.9-1-1.9-1.6-3.4-1.6-2.2,0-3.7,1.9-3.7,4.1h0c0,2.4,1.6,4.2,3.9,4.2s2.4-.7,3.4-1.6l1.8,1.8c-1.3,1.4-2.8,2.4-5.3,2.4-3.9,0-6.7-3-6.7-6.7h0Z"/>
    <path class="st1" d="M162.7,46.2v-8.3h3v7.4c0,2,1,3.2,2.8,3.2s2.9-1.2,2.9-3.2v-7.4h3v13h-3v-2c-.8,1.2-2.1,2.3-4.1,2.3-2.9,0-4.6-2-4.6-5h0Z"/>
    <path class="st1" d="M178.2,47.4v-6.9h-1.7v-2.6h1.7v-3.6h3v3.6h3.5v2.6h-3.5v6.4c0,1.2.6,1.6,1.6,1.6s1.3-.1,1.9-.4v2.4c-.7.4-1.6.7-2.7.7-2.2,0-3.7-1-3.7-3.8h0Z"/>
    <path class="st1" d="M187.1,33.1h3.2v2.8h-3.2v-2.8ZM187.2,37.9h3v13h-3v-13Z"/>
    <path class="st1" d="M192.8,44.5h0c0-3.8,3-6.9,7-6.9s6.9,3,6.9,6.8h0c0,3.7-3,6.8-7,6.8s-6.9-3-6.9-6.7h0ZM203.7,44.5h0c0-2.3-1.7-4.2-4-4.2s-3.9,1.9-3.9,4.1h0c0,2.3,1.7,4.2,4,4.2s3.9-1.9,3.9-4.1h0Z"/>
    <path class="st1" d="M209.1,37.9h3v2c.8-1.2,2.1-2.3,4.1-2.3,2.9,0,4.6,2,4.6,5v8.3h-3v-7.4c0-2-1-3.2-2.8-3.2s-2.9,1.2-2.9,3.2v7.4h-3v-13h0Z"/>
    <path class="st1" d="M82,70.2l1.8-2.2c1.7,1.4,3.3,2.2,5.5,2.2s3.1-.9,3.1-2.2h0c0-1.3-.7-1.9-3.9-2.7-3.7-.9-5.8-2-5.8-5.2h0c0-3,2.5-5.1,5.9-5.1s4.5.8,6.3,2.2l-1.6,2.3c-1.6-1.2-3.1-1.8-4.7-1.8s-2.8.9-2.8,2.1h0c0,1.4.8,2,4.1,2.8,3.7.9,5.6,2.2,5.6,5.1h0c0,3.3-2.5,5.2-6.2,5.2s-5.1-.9-7.2-2.8h0Z"/>
    <path class="st1" d="M97.3,66.2h0c0-3.8,2.6-6.8,6.4-6.8s6.2,3.3,6.2,7,0,.5,0,.8h-9.6c.3,2.1,1.8,3.3,3.7,3.3s2.5-.5,3.5-1.6l1.8,1.6c-1.2,1.5-2.9,2.4-5.3,2.4-3.8,0-6.7-2.7-6.7-6.8h0ZM106.9,65.3c-.2-1.9-1.3-3.4-3.3-3.4s-3.1,1.4-3.4,3.4h6.7Z"/>
    <path class="st1" d="M112.3,59.7h3v2.9c.8-2,2.3-3.3,4.6-3.2v3.2h-.2c-2.6,0-4.4,1.7-4.4,5.2v5h-3v-13h0Z"/>
    <path class="st1" d="M120.6,59.7h3.2l3.5,9.6,3.5-9.6h3.1l-5.3,13.1h-2.7l-5.4-13.1h0Z"/>
    <path class="st1" d="M135.9,54.8h3.2v2.8h-3.2v-2.8ZM136.1,59.7h3v13h-3v-13Z"/>
    <path class="st1" d="M141.6,66.3h0c0-3.7,2.9-6.9,6.8-6.9s4,.9,5.2,2.2l-1.9,2c-.9-1-1.9-1.6-3.4-1.6-2.2,0-3.7,1.9-3.7,4.1h0c0,2.4,1.6,4.2,3.9,4.2s2.4-.7,3.4-1.6l1.8,1.8c-1.3,1.4-2.8,2.4-5.3,2.4-3.9,0-6.7-3-6.7-6.7h0Z"/>
    <path class="st1" d="M154.7,66.2h0c0-3.8,2.6-6.8,6.4-6.8s6.2,3.3,6.2,7,0,.5,0,.8h-9.6c.3,2.1,1.8,3.3,3.7,3.3s2.5-.5,3.5-1.6l1.8,1.6c-1.2,1.5-2.9,2.4-5.3,2.4-3.8,0-6.7-2.7-6.7-6.8h0ZM164.4,65.3c-.2-1.9-1.3-3.4-3.3-3.4s-3.1,1.4-3.4,3.4h6.7Z"/>
  </g>
  <g>
    <path class="st1" d="M256,16.1h1.5v13.2h-1.5v-13.2Z"/>
    <path class="st1" d="M260.6,19.5h1.4v1.7c.6-1.1,1.7-1.9,3.3-1.9s3.7,1.6,3.7,3.9v6h-1.4v-5.7c0-1.8-1-2.9-2.7-2.9s-2.9,1.2-2.9,3v5.6h-1.4v-9.7h0Z"/>
    <path class="st1" d="M271.1,24.4h0c0-3.2,2.3-5.1,4.6-5.1s3,1,3.7,2.1v-5.9h1.4v13.7h-1.4v-2c-.8,1.2-1.9,2.2-3.7,2.2s-4.6-1.8-4.6-5ZM279.6,24.4h0c0-2.3-1.7-3.8-3.5-3.8s-3.4,1.4-3.4,3.7h0c0,2.3,1.6,3.8,3.4,3.8s3.5-1.5,3.5-3.8Z"/>
    <path class="st1" d="M283.1,24.4h0c0-2.8,2-5.1,4.7-5.1s4.5,2.3,4.5,5.1,0,.3,0,.5h-7.7c.2,2.1,1.7,3.3,3.4,3.3s2.3-.5,3.1-1.4l.9.8c-1,1.1-2.2,1.8-4,1.8-2.7,0-4.9-2.1-4.9-5.1ZM290.8,23.8c-.2-1.8-1.2-3.3-3.1-3.3s-3,1.4-3.2,3.3h6.3Z"/>
    <path class="st1" d="M294.4,19.5h1.4v2c.8-1.2,1.9-2.2,3.7-2.2s4.6,1.8,4.6,5h0c0,3.2-2.3,5.1-4.6,5.1s-3-1-3.7-2.1v4.9h-1.4v-12.7h0ZM302.7,24.4h0c0-2.3-1.6-3.8-3.4-3.8s-3.5,1.5-3.5,3.7h0c0,2.3,1.7,3.8,3.5,3.8s3.4-1.4,3.4-3.7Z"/>
    <path class="st1" d="M305.8,24.4h0c0-2.8,2-5.1,4.7-5.1s4.5,2.3,4.5,5.1,0,.3,0,.5h-7.7c.2,2.1,1.7,3.3,3.4,3.3s2.3-.5,3.1-1.4l.9.8c-1,1.1-2.2,1.8-4,1.8-2.7,0-4.9-2.1-4.9-5.1h0ZM313.5,23.8c-.2-1.8-1.2-3.3-3.1-3.3s-3,1.4-3.2,3.3h6.3Z"/>
    <path class="st1" d="M317.1,19.5h1.4v1.7c.6-1.1,1.7-1.9,3.3-1.9s3.7,1.6,3.7,3.9v6h-1.4v-5.7c0-1.8-1-2.9-2.7-2.9s-2.9,1.2-2.9,3v5.6h-1.4v-9.7h0Z"/>
    <path class="st1" d="M327.6,24.4h0c0-3.2,2.3-5.1,4.6-5.1s3,1,3.7,2.1v-5.9h1.4v13.7h-1.4v-2c-.8,1.2-1.9,2.2-3.7,2.2s-4.6-1.8-4.6-5ZM336,24.4h0c0-2.3-1.7-3.8-3.5-3.8s-3.4,1.4-3.4,3.7h0c0,2.3,1.6,3.8,3.4,3.8s3.5-1.5,3.5-3.8Z"/>
    <path class="st1" d="M339.6,24.4h0c0-2.8,2-5.1,4.7-5.1s4.5,2.3,4.5,5.1,0,.3,0,.5h-7.7c.2,2.1,1.7,3.3,3.4,3.3s2.3-.5,3.1-1.4l.9.8c-1,1.1-2.2,1.8-4,1.8-2.7,0-4.9-2.1-4.9-5.1h0ZM347.3,23.8c-.2-1.8-1.2-3.3-3.1-3.3s-3,1.4-3.2,3.3h6.3Z"/>
    <path class="st1" d="M350.8,19.5h1.4v1.7c.6-1.1,1.7-1.9,3.3-1.9s3.7,1.6,3.7,3.9v6h-1.4v-5.7c0-1.8-1-2.9-2.7-2.9s-2.9,1.2-2.9,3v5.6h-1.4v-9.7h0Z"/>
    <path class="st1" d="M362.5,26.6v-5.9h-1.4v-1.3h1.4v-2.9h1.4v2.9h3.1v1.3h-3.1v5.7c0,1.2.7,1.6,1.6,1.6s.9,0,1.4-.3v1.2c-.5.3-1.1.4-1.8.4-1.6,0-2.7-.8-2.7-2.7h0Z"/>
    <path class="st1" d="M255.8,37.8h9.5v1.4h-8v4.7h7.1v1.4h-7.1v5.7h-1.5v-13.2h0Z"/>
    <path class="st1" d="M266.2,48.1h0c0-2.1,1.7-3.2,4.2-3.2s2.1.2,3,.4v-.3c0-1.8-1.1-2.7-2.9-2.7s-2.1.3-2.9.7l-.4-1.2c1.1-.5,2.1-.8,3.5-.8s2.4.4,3.1,1.1c.7.7,1,1.6,1,2.8v5.9h-1.4v-1.5c-.7.9-1.8,1.7-3.5,1.7s-3.6-1-3.6-3h0ZM273.4,47.4v-.9c-.7-.2-1.7-.4-2.9-.4-1.8,0-2.8.8-2.8,2h0c0,1.3,1.1,2,2.4,2s3.3-1.1,3.3-2.6h0Z"/>
    <path class="st1" d="M277.4,37.5h1.7v1.6h-1.7v-1.6ZM277.5,41.2h1.4v9.7h-1.4v-9.7Z"/>
    <path class="st1" d="M281.9,41.2h1.4v2.5c.7-1.6,2.1-2.8,4-2.7v1.6h-.1c-2.1,0-3.9,1.5-3.9,4.5v3.9h-1.4v-9.7Z"/>
    <path class="st1" d="M255.8,59.5h9.5v1.4h-8v4.5h7.2v1.4h-7.2v4.6h8.1v1.4h-9.6v-13.2h0Z"/>
    <path class="st1" d="M268.3,64.3h-1.3v-1.3h1.3v-.8c0-1.1.3-2,.8-2.5.5-.5,1.2-.8,2.1-.8s1.1,0,1.6.2v1.3c-.5-.2-.9-.2-1.4-.2-1.1,0-1.7.7-1.7,2.1v.8h3.1v1.2h-3.1v8.4h-1.4s0-8.4,0-8.4ZM275.2,64.3h-1.3v-1.3h1.3v-.8c0-1.1.3-2,.8-2.5.5-.5,1.2-.8,2.1-.8s1.1,0,1.6.2v1.3c-.5-.2-.9-.2-1.4-.2-1.1,0-1.7.7-1.7,2.1v.8h3.1v1.2h-3.1v8.4h-1.4s0-8.4,0-8.4Z"/>
    <path class="st1" d="M280.3,67.9h0c0-2.8,2-5.1,4.7-5.1s4.5,2.3,4.5,5.1,0,.3,0,.5h-7.7c.2,2.1,1.7,3.3,3.4,3.3s2.3-.5,3.1-1.4l.9.8c-1,1.1-2.2,1.8-4,1.8-2.7,0-4.9-2.1-4.9-5.1ZM288,67.3c-.2-1.8-1.2-3.3-3.1-3.3s-3,1.4-3.2,3.3h6.3Z"/>
    <path class="st1" d="M290.9,67.9h0c0-2.8,2.1-5.1,5-5.1s3,.8,3.9,1.7l-1,1c-.8-.8-1.6-1.5-2.9-1.5-2,0-3.5,1.7-3.5,3.8h0c0,2.1,1.5,3.8,3.6,3.8s2.2-.6,3-1.4l.9.9c-1,1.1-2.1,1.9-4,1.9-2.8,0-5-2.3-5-5h0Z"/>
    <path class="st1" d="M302.3,70.1v-5.9h-1.4v-1.3h1.4v-2.9h1.4v2.9h3.1v1.3h-3.1v5.7c0,1.2.7,1.6,1.6,1.6s.9,0,1.4-.3v1.2c-.5.3-1.1.4-1.8.4-1.6,0-2.7-.8-2.7-2.7h0Z"/>
    <path class="st1" d="M309,59.3h1.7v1.6h-1.7v-1.6ZM309.1,63h1.4v9.7h-1.4v-9.7Z"/>
    <path class="st1" d="M312.4,63h1.6l3.3,8.1,3.3-8.1h1.6l-4.2,9.8h-1.3l-4.2-9.8h0Z"/>
    <path class="st1" d="M322.8,67.9h0c0-2.8,2-5.1,4.7-5.1s4.5,2.3,4.5,5.1,0,.3,0,.5h-7.7c.2,2.1,1.7,3.3,3.4,3.3s2.3-.5,3.1-1.4l.9.8c-1,1.1-2.2,1.8-4,1.8-2.7,0-4.9-2.1-4.9-5.1h0ZM330.5,67.3c-.2-1.8-1.2-3.3-3.1-3.3s-3,1.4-3.2,3.3h6.3Z"/>
  </g>
  <rect class="st1" x="237.8" y="11.3" width=".8" height="62.2"/>
</svg>