<?xml version="1.0" encoding="UTF-8"?>
<svg id="Layer_1" data-name="Layer 1" xmlns="http://www.w3.org/2000/svg" xmlns:xlink="http://www.w3.org/1999/xlink" viewBox="0 0 624.52 125.06">
  <defs>
    <style>
      .cls-1 {
        fill: url(#linear-gradient);
      }

      .cls-2 {
        fill: #444;
      }

      .cls-3 {
        fill: url(#linear-gradient-3);
      }

      .cls-4 {
        fill: url(#linear-gradient-4);
      }

      .cls-5 {
        fill: url(#linear-gradient-2);
      }

      .cls-6 {
        fill: url(#linear-gradient-5);
      }
    </style>
    <linearGradient id="linear-gradient" x1="-.91" y1="41.2" x2="52.42" y2="101.2" gradientUnits="userSpaceOnUse">
      <stop offset="0" stop-color="#d3539e"/>
      <stop offset="1" stop-color="#89277e"/>
    </linearGradient>
    <linearGradient id="linear-gradient-2" x1="11.62" y1="30.05" x2="64.96" y2="90.05" xlink:href="#linear-gradient"/>
    <linearGradient id="linear-gradient-3" x1="51.3" y1="-5.21" x2="56.24" y2=".35" xlink:href="#linear-gradient"/>
    <linearGradient id="linear-gradient-4" x1="29.84" y1="13.86" x2="83.17" y2="73.86" xlink:href="#linear-gradient"/>
    <linearGradient id="linear-gradient-5" x1="32.91" y1="11.13" x2="86.24" y2="71.13" xlink:href="#linear-gradient"/>
  </defs>
  <g>
    <polygon class="cls-1" points="11.77 82 39.51 82 25.64 44.54 11.77 82"/>
    <path class="cls-5" d="m50.19,43.5c-7.97-.43-15.87-1.68-23.58-3.76l15.65,42.26h6.01l-3.09,1.84c-5.76,3.43-12.51,5.24-19.52,5.24s-13.76-1.81-19.52-5.24l-3.09-1.84h5.98l15.83-42.76c-.85-.25-1.71-.48-2.56-.75l-.71-.22.97-3.02.7.22c8.85,2.77,17.93,4.39,27.04,4.89.54-1.73,1.87-3.12,3.56-3.75L55.93,0,0,32.29v64.58l48.82,28.19,4.41-77.68c-1.51-.78-2.64-2.19-3.05-3.87Z"/>
    <polygon class="cls-3" points="55.93 0 55.93 0 55.93 0 55.93 0"/>
    <path class="cls-4" d="m111.86,32.29L55.93,0h0s2.08,36.6,2.08,36.6c1.7.64,3.04,2.05,3.57,3.8,9.1-.43,18.17-1.97,27.03-4.66l.7-.21.97,3.02-.72.22c-.83.25-1.66.47-2.49.71l15.74,42.52h6.01l-3.09,1.84c-5.76,3.43-12.51,5.24-19.52,5.24s-13.76-1.81-19.52-5.24l-3.09-1.84h5.98l15.54-41.99c-7.68,2-15.54,3.18-23.46,3.54-.42,1.67-1.54,3.05-3.03,3.82l4.41,77.68,48.82-28.19V32.29Z"/>
    <polygon class="cls-6" points="100.06 82 86.19 44.54 72.32 82 100.06 82"/>
  </g>
  <g>
    <path class="cls-2" d="m141.47,20.32h11.59c6.85,0,11.17,3.91,11.17,9.83v.08c0,6.59-5.29,10.04-11.76,10.04h-5.84v9.45h-5.17v-29.41Zm11.17,15.29c3.91,0,6.34-2.18,6.34-5.25v-.08c0-3.45-2.48-5.25-6.34-5.25h-6.01v10.59h6.01Z"/>
    <path class="cls-2" d="m167.84,41.66v-14.11h5.08v12.6c0,3.45,1.72,5.42,4.75,5.42s5-2.06,5-5.5v-12.52h5.08v22.18h-5.08v-3.44c-1.43,2.1-3.49,3.91-6.93,3.91-5,0-7.9-3.36-7.9-8.53Z"/>
    <path class="cls-2" d="m198.17,46.28v3.44h-5.08v-30.67h5.08v12.18c1.64-2.31,3.95-4.16,7.52-4.16,5.25,0,10.33,4.16,10.33,11.51v.08c0,7.35-5.04,11.51-10.33,11.51-3.65,0-5.96-1.85-7.52-3.91Zm12.69-7.6v-.08c0-4.29-2.9-7.1-6.34-7.1s-6.47,2.86-6.47,7.1v.08c0,4.28,3.02,7.1,6.47,7.1s6.34-2.73,6.34-7.1Z"/>
    <path class="cls-2" d="m220.47,19.06h5.08v30.67h-5.08v-30.67Z"/>
    <path class="cls-2" d="m231.22,19.32h5.46v4.83h-5.46v-4.83Zm.21,8.23h5.08v22.18h-5.08v-22.18Z"/>
    <path class="cls-2" d="m240.88,38.76v-.08c0-6.3,4.87-11.59,11.51-11.59,4.2,0,6.81,1.55,8.86,3.82l-3.15,3.4c-1.55-1.64-3.19-2.77-5.75-2.77-3.7,0-6.38,3.19-6.38,7.06v.08c0,3.95,2.73,7.14,6.64,7.14,2.39,0,4.16-1.13,5.75-2.77l3.07,3.02c-2.18,2.44-4.75,4.16-9.07,4.16-6.59,0-11.47-5.17-11.47-11.47Z"/>
    <path class="cls-2" d="m141.47,57.32h11.59c6.85,0,11.17,3.91,11.17,9.83v.08c0,6.59-5.29,10.04-11.76,10.04h-5.84v9.45h-5.17v-29.41Zm11.17,15.29c3.91,0,6.34-2.18,6.34-5.25v-.08c0-3.45-2.48-5.25-6.34-5.25h-6.01v10.59h6.01Z"/>
    <path class="cls-2" d="m167.88,64.55h5.08v5c1.39-3.32,3.95-5.59,7.86-5.42v5.38h-.29c-4.45,0-7.56,2.9-7.56,8.78v8.44h-5.08v-22.18Z"/>
    <path class="cls-2" d="m182.21,75.76v-.08c0-6.34,5.04-11.59,11.85-11.59s11.8,5.17,11.8,11.51v.08c0,6.3-5.04,11.55-11.89,11.55s-11.76-5.17-11.76-11.47Zm18.57,0v-.08c0-3.91-2.81-7.14-6.81-7.14s-6.68,3.19-6.68,7.06v.08c0,3.86,2.81,7.14,6.76,7.14s6.72-3.24,6.72-7.06Z"/>
    <path class="cls-2" d="m208.16,83.83l2.27-3.44c2.39,1.81,5,2.73,7.27,2.73s3.44-.92,3.44-2.39v-.08c0-1.72-2.35-2.31-4.96-3.11-3.28-.92-6.93-2.27-6.93-6.51v-.08c0-4.2,3.49-6.76,7.9-6.76,2.77,0,5.8.97,8.15,2.52l-2.02,3.61c-2.14-1.3-4.41-2.1-6.26-2.1-1.97,0-3.11.92-3.11,2.23v.08c0,1.6,2.39,2.27,5,3.11,3.23,1.01,6.89,2.48,6.89,6.47v.08c0,4.66-3.61,6.97-8.23,6.97-3.15,0-6.64-1.13-9.41-3.32Z"/>
    <path class="cls-2" d="m228.7,75.72v-.08c0-6.34,4.49-11.55,10.84-11.55,7.06,0,10.63,5.54,10.63,11.93,0,.46-.04.92-.08,1.43h-16.3c.55,3.61,3.11,5.63,6.38,5.63,2.48,0,4.24-.92,6.01-2.65l2.98,2.65c-2.1,2.52-5,4.16-9.07,4.16-6.43,0-11.38-4.66-11.38-11.51Zm16.42-1.64c-.34-3.28-2.27-5.84-5.63-5.84-3.11,0-5.29,2.39-5.75,5.84h11.38Z"/>
    <path class="cls-2" d="m253.02,75.76v-.08c0-6.3,4.87-11.59,11.51-11.59,4.2,0,6.81,1.55,8.86,3.82l-3.15,3.4c-1.55-1.64-3.19-2.77-5.75-2.77-3.7,0-6.38,3.19-6.38,7.06v.08c0,3.95,2.73,7.14,6.64,7.14,2.39,0,4.16-1.13,5.75-2.77l3.07,3.02c-2.18,2.44-4.75,4.16-9.07,4.16-6.59,0-11.47-5.17-11.47-11.47Z"/>
    <path class="cls-2" d="m276.92,78.66v-14.11h5.08v12.6c0,3.45,1.72,5.42,4.75,5.42s5-2.06,5-5.5v-12.52h5.08v22.18h-5.08v-3.44c-1.43,2.1-3.49,3.91-6.93,3.91-5,0-7.9-3.36-7.9-8.53Z"/>
    <path class="cls-2" d="m303.21,80.6v-11.68h-2.81v-4.37h2.81v-6.09h5.08v6.09h5.97v4.37h-5.97v10.88c0,1.97,1.01,2.77,2.73,2.77,1.13,0,2.14-.25,3.15-.76v4.16c-1.26.71-2.69,1.13-4.58,1.13-3.74,0-6.38-1.64-6.38-6.51Z"/>
    <path class="cls-2" d="m318.41,56.32h5.46v4.83h-5.46v-4.83Zm.21,8.23h5.08v22.18h-5.08v-22.18Z"/>
    <path class="cls-2" d="m328.07,75.76v-.08c0-6.34,5.04-11.59,11.85-11.59s11.8,5.17,11.8,11.51v.08c0,6.3-5.04,11.55-11.89,11.55s-11.76-5.17-11.76-11.47Zm18.57,0v-.08c0-3.91-2.81-7.14-6.81-7.14s-6.68,3.19-6.68,7.06v.08c0,3.86,2.81,7.14,6.76,7.14s6.72-3.24,6.72-7.06Z"/>
    <path class="cls-2" d="m355.83,64.55h5.08v3.44c1.43-2.1,3.49-3.91,6.93-3.91,5,0,7.9,3.36,7.9,8.53v14.11h-5.08v-12.6c0-3.44-1.72-5.42-4.75-5.42s-5,2.06-5,5.5v12.52h-5.08v-22.18Z"/>
    <path class="cls-2" d="m139.49,119.44l3.11-3.7c2.81,2.44,5.63,3.82,9.28,3.82,3.19,0,5.21-1.47,5.21-3.7v-.08c0-2.1-1.18-3.23-6.64-4.5-6.26-1.51-9.79-3.36-9.79-8.78v-.08c0-5.04,4.2-8.53,10.04-8.53,4.28,0,7.69,1.3,10.67,3.7l-2.77,3.91c-2.65-1.97-5.29-3.02-7.98-3.02-3.02,0-4.79,1.55-4.79,3.49v.08c0,2.27,1.34,3.28,6.97,4.62,6.22,1.51,9.45,3.74,9.45,8.61v.08c0,5.5-4.33,8.78-10.5,8.78-4.49,0-8.74-1.55-12.27-4.71Z"/>
    <path class="cls-2" d="m165.49,112.72v-.08c0-6.34,4.49-11.55,10.84-11.55,7.06,0,10.63,5.54,10.63,11.93,0,.46-.04.92-.08,1.43h-16.3c.55,3.61,3.11,5.63,6.38,5.63,2.48,0,4.24-.92,6.01-2.65l2.98,2.65c-2.1,2.52-5,4.16-9.07,4.16-6.43,0-11.38-4.66-11.38-11.51Zm16.42-1.64c-.34-3.28-2.27-5.84-5.63-5.84-3.11,0-5.29,2.39-5.75,5.84h11.38Z"/>
    <path class="cls-2" d="m191.03,101.55h5.08v5c1.39-3.32,3.95-5.59,7.86-5.42v5.38h-.29c-4.45,0-7.56,2.9-7.56,8.78v8.44h-5.08v-22.18Z"/>
    <path class="cls-2" d="m205.22,101.55h5.46l5.97,16.3,6.01-16.3h5.33l-9.07,22.35h-4.58l-9.12-22.35Z"/>
    <path class="cls-2" d="m231.34,93.32h5.46v4.83h-5.46v-4.83Zm.21,8.23h5.08v22.18h-5.08v-22.18Z"/>
    <path class="cls-2" d="m241,112.76v-.08c0-6.3,4.87-11.59,11.51-11.59,4.2,0,6.81,1.55,8.86,3.82l-3.15,3.4c-1.55-1.64-3.19-2.77-5.75-2.77-3.7,0-6.38,3.19-6.38,7.06v.08c0,3.95,2.73,7.14,6.64,7.14,2.39,0,4.16-1.13,5.75-2.77l3.07,3.02c-2.18,2.44-4.75,4.16-9.07,4.16-6.59,0-11.47-5.17-11.47-11.47Z"/>
    <path class="cls-2" d="m263.31,112.72v-.08c0-6.34,4.49-11.55,10.84-11.55,7.06,0,10.63,5.54,10.63,11.93,0,.46-.04.92-.08,1.43h-16.3c.55,3.61,3.11,5.63,6.38,5.63,2.48,0,4.24-.92,6.01-2.65l2.98,2.65c-2.1,2.52-5,4.16-9.07,4.16-6.43,0-11.38-4.66-11.38-11.51Zm16.42-1.64c-.34-3.28-2.27-5.84-5.63-5.84-3.11,0-5.29,2.39-5.75,5.84h11.38Z"/>
  </g>
  <g>
    <path class="cls-2" d="m435.57,27.33h2.53v22.4h-2.53v-22.4Z"/>
    <path class="cls-2" d="m443.44,33.19h2.46v2.88c1.09-1.79,2.82-3.23,5.66-3.23,4,0,6.34,2.69,6.34,6.62v10.27h-2.46v-9.66c0-3.07-1.66-4.99-4.58-4.99s-4.96,2.08-4.96,5.18v9.47h-2.46v-16.54Z"/>
    <path class="cls-2" d="m461.39,41.51v-.06c0-5.41,3.94-8.61,7.9-8.61,3.07,0,5.06,1.66,6.34,3.52v-9.98h2.46v23.36h-2.46v-3.33c-1.34,1.98-3.3,3.68-6.34,3.68-3.97,0-7.9-3.14-7.9-8.58Zm14.33-.03v-.06c0-3.81-2.91-6.37-5.98-6.37s-5.82,2.37-5.82,6.37v.06c0,3.9,2.72,6.4,5.82,6.4s5.98-2.59,5.98-6.4Z"/>
    <path class="cls-2" d="m481.77,41.51v-.06c0-4.77,3.36-8.61,7.94-8.61,4.9,0,7.71,3.9,7.71,8.74,0,.32,0,.51-.03.8h-13.12c.35,3.58,2.88,5.6,5.82,5.6,2.27,0,3.87-.93,5.22-2.34l1.54,1.38c-1.66,1.86-3.68,3.1-6.82,3.1-4.54,0-8.26-3.49-8.26-8.61Zm13.15-.96c-.26-3.01-1.98-5.63-5.28-5.63-2.88,0-5.06,2.4-5.38,5.63h10.66Z"/>
    <path class="cls-2" d="m500.94,33.19h2.46v3.33c1.34-1.98,3.3-3.68,6.33-3.68,3.97,0,7.9,3.14,7.9,8.58v.06c0,5.41-3.9,8.61-7.9,8.61-3.07,0-5.06-1.66-6.33-3.52v8.29h-2.46v-21.66Zm14.17,8.32v-.06c0-3.9-2.69-6.4-5.82-6.4s-5.98,2.59-5.98,6.37v.06c0,3.84,2.91,6.4,5.98,6.4s5.82-2.37,5.82-6.37Z"/>
    <path class="cls-2" d="m520.36,41.51v-.06c0-4.77,3.36-8.61,7.94-8.61,4.9,0,7.71,3.9,7.71,8.74,0,.32,0,.51-.03.8h-13.12c.35,3.58,2.88,5.6,5.82,5.6,2.27,0,3.87-.93,5.22-2.34l1.54,1.38c-1.66,1.86-3.68,3.1-6.82,3.1-4.54,0-8.26-3.49-8.26-8.61Zm13.15-.96c-.26-3.01-1.98-5.63-5.28-5.63-2.88,0-5.06,2.4-5.38,5.63h10.66Z"/>
    <path class="cls-2" d="m539.53,33.19h2.46v2.88c1.09-1.79,2.82-3.23,5.66-3.23,4,0,6.34,2.69,6.34,6.62v10.27h-2.46v-9.66c0-3.07-1.66-4.99-4.58-4.99s-4.96,2.08-4.96,5.18v9.47h-2.46v-16.54Z"/>
    <path class="cls-2" d="m557.48,41.51v-.06c0-5.41,3.94-8.61,7.9-8.61,3.07,0,5.06,1.66,6.34,3.52v-9.98h2.46v23.36h-2.46v-3.33c-1.34,1.98-3.3,3.68-6.34,3.68-3.97,0-7.9-3.14-7.9-8.58Zm14.33-.03v-.06c0-3.81-2.91-6.37-5.98-6.37s-5.82,2.37-5.82,6.37v.06c0,3.9,2.72,6.4,5.82,6.4s5.98-2.59,5.98-6.4Z"/>
    <path class="cls-2" d="m577.87,41.51v-.06c0-4.77,3.36-8.61,7.94-8.61,4.9,0,7.71,3.9,7.71,8.74,0,.32,0,.51-.03.8h-13.12c.35,3.58,2.88,5.6,5.82,5.6,2.27,0,3.87-.93,5.22-2.34l1.54,1.38c-1.66,1.86-3.68,3.1-6.82,3.1-4.54,0-8.26-3.49-8.26-8.61Zm13.15-.96c-.26-3.01-1.98-5.63-5.28-5.63-2.88,0-5.06,2.4-5.38,5.63h10.66Z"/>
    <path class="cls-2" d="m597.03,33.19h2.46v2.88c1.09-1.79,2.82-3.23,5.66-3.23,4,0,6.34,2.69,6.34,6.62v10.27h-2.46v-9.66c0-3.07-1.66-4.99-4.58-4.99s-4.96,2.08-4.96,5.18v9.47h-2.46v-16.54Z"/>
    <path class="cls-2" d="m616.81,45.35v-9.98h-2.3v-2.18h2.3v-4.99h2.46v4.99h5.25v2.18h-5.25v9.66c0,2.02,1.12,2.75,2.78,2.75.83,0,1.54-.16,2.4-.58v2.11c-.86.45-1.79.7-2.98.7-2.66,0-4.67-1.31-4.67-4.67Z"/>
    <path class="cls-2" d="m435.34,64.33h16.09v2.34h-13.57v8h12.13v2.3h-12.13v9.76h-2.53v-22.4Z"/>
    <path class="cls-2" d="m453.07,81.93v-.06c0-3.49,2.88-5.34,7.07-5.34,2.11,0,3.62.29,5.09.7v-.58c0-2.98-1.82-4.51-4.93-4.51-1.95,0-3.49.51-5.02,1.22l-.74-2.02c1.82-.83,3.62-1.38,6.02-1.38s4.13.61,5.34,1.82c1.12,1.12,1.7,2.72,1.7,4.83v10.11h-2.37v-2.5c-1.15,1.5-3.07,2.85-5.98,2.85-3.07,0-6.18-1.76-6.18-5.15Zm12.19-1.28v-1.6c-1.22-.35-2.85-.7-4.86-.7-3.1,0-4.83,1.34-4.83,3.42v.06c0,2.08,1.92,3.3,4.16,3.3,3.04,0,5.54-1.86,5.54-4.48Z"/>
    <path class="cls-2" d="m472.11,63.85h2.82v2.72h-2.82v-2.72Zm.16,6.33h2.46v16.54h-2.46v-16.54Z"/>
    <path class="cls-2" d="m479.66,70.19h2.46v4.32c1.22-2.75,3.62-4.74,6.75-4.61v2.66h-.19c-3.62,0-6.56,2.59-6.56,7.58v6.59h-2.46v-16.54Z"/>
    <path class="cls-2" d="m435.34,101.33h16.19v2.3h-13.66v7.65h12.22v2.3h-12.22v7.84h13.82v2.3h-16.35v-22.4Z"/>
    <path class="cls-2" d="m456.49,109.36h-2.27v-2.14h2.27v-1.44c0-1.89.51-3.33,1.44-4.25.83-.83,2.05-1.28,3.55-1.28,1.15,0,1.92.13,2.72.42v2.14c-.9-.26-1.57-.42-2.4-.42-1.92,0-2.88,1.15-2.88,3.52v1.34h5.25v2.11h-5.22v14.37h-2.46v-14.37Zm11.78,0h-2.27v-2.14h2.27v-1.44c0-1.89.48-3.33,1.41-4.25.86-.83,2.05-1.28,3.55-1.28,1.15,0,1.95.13,2.72.42v2.14c-.86-.26-1.54-.42-2.37-.42-1.95,0-2.88,1.15-2.88,3.52v1.34h5.22v2.11h-5.22v14.37h-2.43v-14.37Z"/>
    <path class="cls-2" d="m476.94,115.51v-.06c0-4.77,3.36-8.61,7.94-8.61,4.9,0,7.71,3.9,7.71,8.74,0,.32,0,.51-.03.8h-13.12c.35,3.58,2.88,5.6,5.82,5.6,2.27,0,3.87-.93,5.22-2.34l1.54,1.38c-1.66,1.86-3.68,3.1-6.82,3.1-4.54,0-8.26-3.49-8.26-8.61Zm13.15-.96c-.26-3.01-1.98-5.63-5.28-5.63-2.88,0-5.06,2.4-5.38,5.63h10.66Z"/>
    <path class="cls-2" d="m495.08,115.54v-.06c0-4.67,3.65-8.64,8.48-8.64,3.14,0,5.09,1.31,6.62,2.94l-1.63,1.73c-1.31-1.38-2.78-2.5-5.02-2.5-3.36,0-5.92,2.85-5.92,6.4v.06c0,3.58,2.62,6.43,6.08,6.43,2.11,0,3.74-1.06,5.06-2.46l1.57,1.47c-1.66,1.86-3.65,3.2-6.75,3.2-4.83,0-8.48-3.94-8.48-8.58Z"/>
    <path class="cls-2" d="m514.44,119.35v-9.98h-2.3v-2.18h2.3v-4.99h2.46v4.99h5.25v2.18h-5.25v9.66c0,2.02,1.12,2.75,2.78,2.75.83,0,1.54-.16,2.4-.58v2.11c-.86.45-1.79.7-2.98.7-2.66,0-4.67-1.31-4.67-4.67Z"/>
    <path class="cls-2" d="m525.77,100.85h2.82v2.72h-2.82v-2.72Zm.16,6.33h2.46v16.54h-2.46v-16.54Z"/>
    <path class="cls-2" d="m531.69,107.19h2.72l5.57,13.73,5.6-13.73h2.66l-7.2,16.67h-2.18l-7.17-16.67Z"/>
    <path class="cls-2" d="m549.32,115.51v-.06c0-4.77,3.36-8.61,7.94-8.61,4.9,0,7.71,3.9,7.71,8.74,0,.32,0,.51-.03.8h-13.12c.35,3.58,2.88,5.6,5.82,5.6,2.27,0,3.87-.93,5.22-2.34l1.54,1.38c-1.66,1.86-3.68,3.1-6.82,3.1-4.54,0-8.26-3.49-8.26-8.61Zm13.15-.96c-.26-3.01-1.98-5.63-5.28-5.63-2.88,0-5.06,2.4-5.38,5.63h10.66Z"/>
  </g>
  <rect class="cls-2" x="404.72" y="19.16" width="1.42" height="105.9"/>
</svg>