<?xml version="1.0" encoding="utf-8"?>
<!-- Generator: Adobe Illustrator 25.2.3, SVG Export Plug-In . SVG Version: 6.00 Build 0)  -->
<svg version="1.0" id="Layer_1" xmlns="http://www.w3.org/2000/svg" xmlns:xlink="http://www.w3.org/1999/xlink" x="0px" y="0px"
	 viewBox="0 0 740 210" style="enable-background:new 0 0 740 210;" xml:space="preserve">
<style type="text/css">
	.st0{fill:url(#SVGID_1_);}
	.st1{fill:url(#SVGID_2_);}
	.st2{fill:#020203;}
</style>
<g>
	<g>
		<g>
			
				<linearGradient id="SVGID_1_" gradientUnits="userSpaceOnUse" x1="3.0603" y1="107" x2="247.4397" y2="107" gradientTransform="matrix(1 0 0 -1 0 212)">
				<stop  offset="0" style="stop-color:#D8952B"/>
				<stop  offset="0" style="stop-color:#D4962C"/>
				<stop  offset="0.3198" style="stop-color:#FFCE3E"/>
				<stop  offset="0.6802" style="stop-color:#F4EE95"/>
				<stop  offset="1" style="stop-color:#E7BC3B"/>
			</linearGradient>
			<path class="st0" d="M120.64,11.32c-4.3,0.5-8.6,0.7-12.9,1.5c-25.8,4.8-50.4,12.8-71.8,28.4c-24.6,18-36.1,42.2-32.1,72.8
				c4.8,37.1,21.1,67.1,54.8,85.8c17.6,9.7,36.7,11.3,56.1,7.3c19.6-4,37.6-12.2,52.9-25.1c21.8-18.4,32.4-42.9,35.9-70.7
				c2.4-18.6,3.7-37.4,6.1-56c3-23.1,12.5-42,35.6-51.2c0.3-0.1,0.5-0.7,2.2-2.9c-7,0-12.9-0.9-18.5,0.1
				c-15.5,2.8-26.4,12.6-35.5,24.7c-11.8,15.8-19.5,33.7-25.7,52.2c-6,17.8-14,34.4-27.3,48c-22.9,23.4-59.3,22.4-78.8-2
				c-12.6-15.8-12.8-42.4-0.7-62.7c12.3-20.5,30.6-34.1,51.4-44.8c2.8-1.4,5.6-2.8,8.3-4.2C120.84,12.22,120.74,11.72,120.64,11.32z
				"/>
		</g>
		
			<linearGradient id="SVGID_2_" gradientUnits="userSpaceOnUse" x1="68.8397" y1="116.6844" x2="139.114" y2="116.6844" gradientTransform="matrix(1 0 0 -1 0 212)">
			<stop  offset="0" style="stop-color:#D8952B"/>
			<stop  offset="0" style="stop-color:#D4962C"/>
			<stop  offset="0.3198" style="stop-color:#FFCE3E"/>
			<stop  offset="0.6802" style="stop-color:#F4EE95"/>
			<stop  offset="1" style="stop-color:#E7BC3B"/>
		</linearGradient>
		<circle class="st1" cx="103.94" cy="95.32" r="35.1"/>
	</g>
	<g>
		<path class="st2" d="M264.44,105.02v-23.8c0-1.7,0-3.6,0.1-5h-0.1c-0.4,1-2.3,3.8-3.1,5l-7.6,11.5h-4.7l-8.7-11.9
			c-1-1.3-2.1-2.8-3.1-4.5h-0.1c0.1,1.6,0.1,3.4,0.1,4.7v24.1h-10.8v-46.6h9.8l11.7,16.3c1.4,2,2.5,3.7,3.6,5.5h0.1
			c0.8-1.7,2-3.7,3.4-5.9l10.5-15.9h9.8v46.6h-10.9V105.02z"/>
		<path class="st2" d="M282.94,105.02v-46.6h28l-2.6,8.7h-14.6v9.8h14.7v8.8h-14.7v10.7h17.1v8.7h-27.9V105.02z"/>
		<path class="st2" d="M351.44,105.02l-19.4-24.6c-1.5-1.9-2.8-3.8-4.4-5.8h-0.1c0.2,1.6,0.2,4.7,0.2,6.7v23.7h-10.8v-46.6h10.8
			l18.8,23.6c1.5,1.9,2.8,3.7,4.2,5.7h0.1c-0.1-2.4-0.1-5.8-0.1-7.6v-21.6h10.8v46.6h-10.1V105.02z"/>
		<path class="st2" d="M403.04,67.12h-12.3v37.9h-11v-37.9h-13.7v-8.7h39.2L403.04,67.12z"/>
		<path class="st2" d="M433.84,105.02l-4.5-11.1h-15.1l-4.2,11.1h-10.6l18.3-46.9h8.5l19.3,46.9H433.84z M423.64,77.92
			c-0.8-2.3-1.4-4.2-1.7-5.7h-0.1c-0.3,1.6-0.9,3.5-1.7,5.6l-2.8,7.5h8.8L423.64,77.92z"/>
		<path class="st2" d="M449.64,105.02v-46.6h10.8v37.9h16.1v8.8h-26.9V105.02z"/>
		<path class="st2" d="M528.44,105.02v-19.1h-20.6v19.1h-10.8v-46.6h10.8v18.3h20.6v-18.3h10.8v46.6H528.44z"/>
		<path class="st2" d="M547.04,105.02v-46.6h28l-2.6,8.7h-14.6v9.8h14.7v8.8h-14.7v10.7h17.1v8.7h-27.9V105.02z"/>
		<path class="st2" d="M611.84,105.02l-4.5-11.1h-15.1l-4.2,11.1h-10.6l18.3-46.9h8.5l19.3,46.9H611.84z M601.54,77.92
			c-0.8-2.3-1.4-4.2-1.7-5.7h-0.1c-0.3,1.6-0.9,3.5-1.7,5.6l-2.8,7.5h8.8L601.54,77.92z"/>
		<path class="st2" d="M627.54,105.02v-46.6h10.8v37.9h16.1v8.8h-26.9V105.02z"/>
		<path class="st2" d="M688.54,67.12h-12.3v37.9h-11v-37.9h-13.7v-8.7h39.2L688.54,67.12z"/>
		<path class="st2" d="M726.14,105.02v-19.1h-20.6v19.1h-10.8v-46.6h10.8v18.3h20.6v-18.3h10.8v46.6H726.14z"/>
		<path class="st2" d="M256.34,175.62c-20.1,0-31.3-13.6-31.3-30.4c0-17.3,13.2-31.4,34.5-31.4c5.9,0,11.6,1,15.8,3.1l-0.3,12.1
			c-5.5-3.2-10.8-4-14.9-4c-14.4,0-19.8,9.6-19.8,19.2c0,10.8,7.1,19.5,18.5,19.5c5.7,0,10.3-1.5,15.2-4.1l3.7,9.6
			C270.34,173.82,263.54,175.62,256.34,175.62z"/>
		<path class="st2" d="M333.34,174.72v-24.7h-26.6v24.7h-14v-60.2h14v23.7h26.6v-23.7h14v60.2H333.34z"/>
		<path class="st2" d="M405.14,174.72l-5.8-14.4h-19.6l-5.5,14.4h-13.7l23.7-60.5h11l25,60.5H405.14z M391.94,139.72
			c-1-2.9-1.8-5.5-2.2-7.4h-0.1c-0.4,2-1.2,4.6-2.2,7.2l-3.7,9.7h11.4L391.94,139.72z"/>
		<path class="st2" d="M482.84,174.72v-30.7c0-2.2,0-4.7,0.1-6.5h-0.1c-0.5,1.3-3,4.8-4,6.4l-9.9,14.8h-6.1l-11.2-15.4
			c-1.3-1.7-2.7-3.6-4-5.9h-0.2c0.1,2,0.1,4.4,0.1,6v31.2h-13.9v-60.2h12.6l15.1,21c1.8,2.6,3.3,4.8,4.7,7.1h0.2
			c1.1-2.2,2.6-4.8,4.4-7.6l13.5-20.6h12.6v60.2h-13.9V174.72z"/>
		<path class="st2" d="M530.54,154.32h-1.6v20.4h-14v-60.2h17.5c13.4,0,22.6,6.7,22.6,19.7
			C555.04,141.42,549.24,154.32,530.54,154.32z M530.94,125.92h-2v18h2c6.9,0,10.2-3.3,10.2-9.1
			C541.24,130.02,537.84,125.92,530.94,125.92z"/>
		<path class="st2" d="M570.24,174.72v-60.2h14v60.2H570.24z"/>
		<path class="st2" d="M654.74,166.42c-5.7,5.8-13.5,9.2-23.1,9.2c-9.1,0-16.5-2.6-21.8-7.3c-6.2-5.6-9.6-13.7-9.6-22.9
			c0-8.9,3.1-16.8,8.8-22.6c5.5-5.6,13.3-9,22.7-9c10.1,0,18.3,3.4,23.8,9.2c5.1,5.5,7.6,13,7.6,21.4
			C662.94,152.92,660.24,160.92,654.74,166.42z M631.54,125.02c-9.5,0-16.8,7.1-16.8,19.8s7.3,19.8,16.8,19.8
			c9.3,0,16.6-7.1,16.6-19.8S640.84,125.02,631.54,125.02z"/>
		<path class="st2" d="M723.44,174.72l-25-31.7c-1.9-2.5-3.7-4.8-5.7-7.5h-0.2c0.3,2,0.3,6,0.3,8.6v30.6h-13.9v-60.2h14l24.2,30.4
			c1.9,2.5,3.7,4.8,5.4,7.3h0.2c-0.2-3.1-0.2-7.5-0.2-9.9v-27.9h13.9v60.2h-13V174.72z"/>
	</g>
</g>
<g>
</g>
<g>
</g>
<g>
</g>
<g>
</g>
<g>
</g>
<g>
</g>
</svg>
