<?xml version="1.0" encoding="utf-8"?>
<!-- Generator: Adobe Illustrator 25.2.3, SVG Export Plug-In . SVG Version: 6.00 Build 0)  -->
<svg version="1.1" id="Layer_1" xmlns="http://www.w3.org/2000/svg" xmlns:xlink="http://www.w3.org/1999/xlink" x="0px" y="0px"
	 viewBox="0 0 250 250" style="enable-background:new 0 0 250 250;" xml:space="preserve">
<style type="text/css">
	.st0{fill:#FEFFFD;}
	.st1{clip-path:url(#SVGID_2_);fill:#FEFFFD;}
	.st2{clip-path:url(#SVGID_4_);fill:#FEFFFD;}
	.st3{clip-path:url(#SVGID_6_);fill:#FEFFFD;}
	.st4{clip-path:url(#SVGID_8_);fill:#FEFFFD;}
	.st5{fill:#CCD8D6;}
	.st6{clip-path:url(#SVGID_10_);fill:#CCD8D6;}
	.st7{clip-path:url(#SVGID_12_);fill:#CCD8D6;}
	.st8{clip-path:url(#SVGID_14_);fill:#CCD8D6;}
	.st9{clip-path:url(#SVGID_16_);fill:#CCD8D6;}
	.st10{clip-path:url(#SVGID_18_);fill:#ACCDC8;}
	.st11{fill:#ACCDC8;}
	.st12{clip-path:url(#SVGID_20_);fill:#ACCDC8;}
	.st13{fill:#7AC0B5;}
	.st14{clip-path:url(#SVGID_22_);fill:#7AC0B5;}
	.st15{fill:#87898A;}
	.st16{fill:#138789;}
	.st17{fill:#007F82;}
	.st18{clip-path:url(#SVGID_24_);fill:#007F82;}
	.st19{clip-path:url(#SVGID_26_);fill:#007F82;}
	.st20{clip-path:url(#SVGID_28_);fill:#007F82;}
	.st21{clip-path:url(#SVGID_30_);fill:#007F82;}
	.st22{clip-path:url(#SVGID_32_);fill:#007F82;}
	.st23{clip-path:url(#SVGID_34_);fill:#007F82;}
	.st24{clip-path:url(#SVGID_36_);fill:#007F82;}
	.st25{clip-path:url(#SVGID_38_);fill:#007F82;}
	.st26{clip-path:url(#SVGID_40_);fill:#007F82;}
	.st27{clip-path:url(#SVGID_42_);fill:#007F82;}
	.st28{clip-path:url(#SVGID_44_);fill:#007F82;}
	.st29{display:none;fill:#87898A;}
	.st30{display:none;}
	.st31{display:inline;}
	.st32{clip-path:url(#SVGID_48_);fill:none;stroke:#020203;stroke-width:0.75;stroke-miterlimit:11.3386;}
</style>
<g transform="translate(28.653053 -27.109209)">
	<g>
		<path class="st0" d="M120.2,411.2C120.2,411.2,120.2,411.2,120.2,411.2C120.1,411.2,120.2,411.2,120.2,411.2z"/>
		<path class="st0" d="M154.3,430.1C154.2,430.1,154.2,430.1,154.3,430.1c-0.1,0.2-0.1,0.3-0.2,0.4c0,0,0,0,0,0
			C154.1,430.5,154.2,430.3,154.3,430.1L154.3,430.1z"/>
		<path class="st0" d="M129,433.9C129,433.9,128.9,433.9,129,433.9c-0.1,0.2-0.1,0.2-0.1,0.3C128.9,434.1,129,434,129,433.9
			L129,433.9z"/>
		<path class="st0" d="M120.2,411.2C120.2,411.2,120.2,411.2,120.2,411.2C120.1,411.2,120.2,411.2,120.2,411.2z"/>
		<path class="st0" d="M120.2,411.2C120.2,411.2,120.2,411.2,120.2,411.2C120.1,411.2,120.2,411.2,120.2,411.2z"/>
		<path class="st0" d="M120.2,411.2C120.2,411.2,120.2,411.2,120.2,411.2C120.1,411.2,120.2,411.2,120.2,411.2z"/>
		<path class="st0" d="M120.2,411.2C120.2,411.2,120.2,411.2,120.2,411.2C120.1,411.2,120.2,411.2,120.2,411.2z"/>
		<path class="st0" d="M120.2,411.2C120.2,411.2,120.2,411.2,120.2,411.2C120.1,411.2,120.2,411.2,120.2,411.2z"/>
		<path class="st0" d="M120.2,411.2C120.2,411.2,120.2,411.2,120.2,411.2C120.1,411.2,120.2,411.2,120.2,411.2z"/>
		<path class="st0" d="M103.5,401.5c0.1,0.5,0.1,1,0.2,1.5c0.1,0.7,0.1,0.7,0.2,1.2c0.1,0.1,0.2,0.2,0.3,0.4
			c-0.2-1.2-0.3-2.1-0.5-2.8C103.6,401.7,103.5,401.6,103.5,401.5z"/>
		<g>
			<defs>
				<path id="SVGID_1_" d="M73.4,397.2v1h1.2v-0.6c0,0,0,0,0,0v0c0,0,0,0,0,0c0,0-0.1,0-0.1,0c0,0,0,0,0,0.1c0,0,0,0-0.1,0
					c0,0,0,0-0.1,0c0,0,0,0,0,0c0,0-0.1,0-0.1,0c-0.1,0,0,0-0.2,0c-0.1,0-0.1,0-0.1,0c0,0,0,0,0,0h-0.1h-0.1h-0.1h0
					c-0.2,0-0.2-0.4,0-0.4h0h0.1h0c0,0,0,0,0,0c0,0,0,0,0,0h0c0,0,0,0,0,0c0,0,0,0,0,0h0c0,0,0,0,0,0c0,0,0,0,0,0c0,0,0,0,0.1,0
					c0,0,0-0.1,0-0.1L73.4,397.2z M74,397.2C74,397.2,74,397.2,74,397.2L74,397.2z M74.5,397.2C74.5,397.2,74.5,397.2,74.5,397.2
					C74.5,397.2,74.5,397.2,74.5,397.2L74.5,397.2z M73.8,397.3C73.8,397.3,73.8,397.3,73.8,397.3L73.8,397.3
					C73.8,397.3,73.8,397.3,73.8,397.3L73.8,397.3z M74.5,397.5C74.5,397.5,74.5,397.5,74.5,397.5C74.5,397.5,74.5,397.5,74.5,397.5
					L74.5,397.5z"/>
			</defs>
			<clipPath id="SVGID_2_">
				<use xlink:href="#SVGID_1_"  style="overflow:visible;"/>
			</clipPath>
			<path class="st1" d="M74.3,397.2c-0.4,0-0.7,0-0.9,0.5c0.2,0.1,0.5,0.3,0.7,0.4c0.2-0.4,0.3-0.7,0.4-1
				C74.5,397.2,74.4,397.2,74.3,397.2C74.4,397.2,74.3,397.2,74.3,397.2L74.3,397.2z"/>
		</g>
		<path class="st0" d="M64.1,397.2c0,0.1,0.1,0.3,0.1,0.4c0.1-0.1,0.2-0.1,0.3-0.1C64.4,397.4,64.2,397.3,64.1,397.2z"/>
		<path class="st0" d="M50.5,399.5c0,0,0.1,0.3,0.2,0.8c0,0,0,0,0,0c0-0.2-0.1-0.3-0.1-0.5C50.6,399.6,50.5,399.5,50.5,399.5
			L50.5,399.5z"/>
		<path class="st0" d="M49.8,398.6c0,0-0.1,0-0.1,0c0,0.1,0,0.2,0,0.3C49.7,398.8,49.8,398.7,49.8,398.6L49.8,398.6z"/>
		<path class="st0" d="M209.6,404.8c-0.1,0.9-0.2,1.7-0.2,2.6C209.4,408.4,209.5,406.6,209.6,404.8z"/>
		<g>
			<defs>
				<path id="SVGID_3_" d="M-18.8,381.5v14.2c0.1-0.2,0.1-0.4,0.2-0.6c0-0.1,0.1-0.1,0.1-0.2c0.2-0.4,0.4-0.8,0.6-1.3
					c0.7-1.5,1.3-3.1,2-4.7c-0.1-0.6-0.2-1.4-0.1-1.6c0.2-0.7,0.8-1.9,1.3-1.9c0-0.9,0.1-1.5,0.6-1c0,0,0-0.1,0-0.1
					c0-0.2,0-0.4,0.1-0.6c0.6-0.4,1.2-1.1,1.8-1.2c0.1,0,0.2,0.2,0.3,0.4c0.4-0.2,0.7-0.5,1.1-0.6c0.2-0.1,0.6,0,0.8-0.1
					c0.2,0,0.4,0,0.6,0.1c0.1,0,0.2,0.1,0.3,0.1c0.4,0.2,0.7,0.4,1,0.8c-0.2-0.2-0.1-0.1,0,0.1c0.2,0,0.5-0.1,0.7-0.2
					c0.1-0.1,0.1-0.1,0.2-0.1c0,0,0.1,0,0.1,0.1c0.1,0,0.1,0,0.2,0c0,0,0.1,0,0.1,0c0.1,0,0.2-0.1,0.2-0.1c0.1,0-0.1,0-0.2,0.1
					c0.2,0,0.5-0.1,0.7-0.1c0,0,0.1,0,0.1,0c0.1,0,0.1,0,0.2,0c0.3,0,0.6,0,1,0c0.5,0,0.6,0,0.7,0.4c0.1,0.1,0.2,0.2,0.4,0.4
					c0.1,0.1,0.2,0.2,0.2,0.3c0,0.2,0,0.4,0,0.6c0.1,0.2,0.2,0.4,0.3,0.6c-0.1,0.8-0.1,0.7-0.5,1.4c0,0.2,0,0.3,0,0.5
					c-0.1,0.2-0.2,0.4-0.3,0.6c-0.2,0.2-0.4,0.4-0.7,0.7c0.2,1.4-0.7,2.6-2.1,1.7c-0.3,0.2-0.6,0.3-0.9,0.4
					c-0.3,0.1-0.5,0.2-0.8,0.2c-0.2,0-0.4-0.1-0.6-0.1c0,0.1-0.1,0.1-0.1,0.2c-0.3,0.3-0.6,0.5-0.8,0.7c0,0,0,0,0,0c0,0,0,0,0,0
					c-0.2,0.1-0.3,0.2-0.5,0.3c-0.2,0.1-0.3,0.2-0.5,0.3c-0.1,0.1-0.2,0.1-0.3,0.2c-0.2,0.1-0.4,0.1-0.6,0.1
					c-0.1-0.2-0.3-0.4-0.4-0.6c0,0,0,0-0.1,0.1c-0.1,0.1-0.2,0.3-0.3,0.4c-0.6,0.6-1.3,1.2-1.9,1.7c0,0-0.1,0-0.1,0
					c-0.2,0.8-0.4,1.6-0.6,2.3c-0.2,0.7-0.4,1.3-0.7,1.9c-0.1,0.4-0.3,0.8-0.4,1.1c0.1,0.2,0.1,0.4,0.1,0.7c0.4,0.3,0.8,0.6,1.1,1.1
					c0.2,0.2,0.1,0.6,0.1,1c0,0.5,0.2,1.9,0.2,3c0.1,0.3,0.2,0.7,0.2,1c0.1,0.5,0.1,1,0.1,1.5c0,0.6,0,1.4-0.1,2
					c0,0.2,0,0.5-0.1,0.7c0,0.5,0,1.5,0,2c0.6,0.6,0.6,0.6,0.6,1.5c0,0.2,0,0.2,0,0.2c0-0.1,0-0.2-0.1-0.3c-0.2-0.1-0.3-0.2-0.5-0.3
					c0,0.1,0,0.2,0,0.3c0.1,0.2,0.2,0.3,0.4,0.5c0-0.1,0-0.2,0-0.3c0-0.1,0,0.2,0,0.3c0,0,0,0.1,0,0.1c0,0,0.1,0.1,0.1,0.1
					c0-0.1,0-0.2,0-0.4c0,0,0,0.1,0,0.2c0,0,0,0.1,0,0.1c0,0,0.1,0.1,0.1,0.1c0.1,0.1-0.1,0.4-0.1,0.5c-0.1,0.4-0.1,0.5-0.1,0.6
					c-0.2,1.4-0.2,1.3-0.4,2.6c0,0.1,0,0.2,0,0.3c0,0.2,0,0.4,0,0.6c0.7,1.5,0.8,1.8,1.5,3.6c0.1,0.1,0,0.1,0.6,1
					c0.3,0.5,0.6,1,0.9,1.5c0,0,0.1,0.1,0,0.1c0,0,0,0,0,0c0.1,0.1,0.2,0.1,0.3,0.2c0.1,0.1,0.3,0.5,0.5,0.8c0,0,0,0,0,0
					c0.6-0.2,1.1-0.5,1.7-0.4l0,0c0.9,0.1,1.4,0.7,1.6,1.4c0.2-0.5,0.3-0.6,0.1,0.1c0,0,0.1,0,0.1,0.1c0.2,0.1,0.4,0.2,0.6,0.3
					c0,0,0,0,0,0c0.1-0.3,0.1-0.5,0.2-0.8c0-0.2,0.2-0.2,0.4-0.1c-0.1-0.4,0.6-1.5,0.8-1c0.1-0.1,0.3-0.2,0.4-0.2
					c0.5,0,0.9,0.5,1,1.4c0,0,0,0,0,0c0.2-0.4,0.4-0.8,0.7-1.3c0,0,0-0.1,0-0.1c0,0,0,0,0.1,0c0,0,0,0,0,0c0.1-0.2,0.3-0.2,0.4,0
					c0.1,0,0.2,0,0.3,0c1.5,0,3.1,0,4.6,0c0.2,0,0.4,0,0.5,0c0.1,0,0.3,0,0.4,0.1c0,0,0.1,0,0,0c0,0-0.1,0-0.1,0
					c-0.2,0.2-0.9,0.6-0.7,0.6c0.4,0,0.8-0.5,1.2-0.6c0.3,0,1.2,1.1,1.5,1.4c0.2,0.3,0.4,0.6,0.6,1c0.1,0.1,0.1,0.3,0.2,0.5
					c0.1,0.2,0.2,0.3,0.3,0.4c0.4,0.8,0.4,0.6,0.6,1.3c0,0.1,0,0.1,0,0.2c0.2,0.4,0.3,1.1,0.4,1.6c-0.1,0.7-0.2,1.5-0.4,2.2
					c-0.1,0.3-0.3,0.4-0.5,0.6c-0.3,0.2-0.5,0.3-0.8,0.4c-0.2,0.1-0.3,0-0.5,0c-0.7,0-0.5,0-1,0c-1.7-0.2-3.5-0.3-5.2-0.6
					c0.1,0.4,0.2,0.9,0.5,1.8c0,0.1,0,0.3-0.1,0.5c0,0,0,0,0,0h9.9v-37.5c0,0.1-0.1,0.1-0.1,0.2c-0.3,0.4-0.2,0.3-0.4,0.7l0,0
					c0,0,0,0,0,0c0,0,0,0,0,0c-0.1,1.1-0.4,1.8-0.7,2.2c0.2,0.4,0.2,0.7-0.4,0.8c-0.2,0-0.5,0.4-0.7,0.1c-0.2-0.2-0.3-0.4-0.4-0.5
					c-0.7,0.1-1.4-1.1-1.4-2.3c0-0.6,0-1.2,0-1.8c0-0.1,0-0.2,0-0.3c0-0.3,0-0.5,0-0.8c-0.2-0.5-0.4-1.2-0.5-2.2
					c0-0.8-0.1-1.1-0.1-1.4c-0.1-0.2-0.2-0.3-0.3-0.4c0-1.1,0-1.5,0.3-1.8c0-0.9,0.1-1.6,0.5-2.4c0,0,0,0,0,0c0-0.2-0.1-0.4-0.1-0.6
					c-0.1-0.1-0.3-0.3-0.5-0.4c-0.1-0.1-0.1-0.3-0.2-0.4c-0.1,0,0.1,0.2,0.1,0.3c-0.4-0.3-0.9-0.5-1.3-0.7c-1.2-0.5-0.6-0.3-1.7-0.6
					c-0.4,0-0.8-0.1-1.2-0.3c-2.1-0.6-1.9-4-0.1-4c0.2,0,0.3,0,0.5,0.1c0.4,0.1,0.8,0.2,1.2,0.3c1.2,0.4,0.8,0.2,1.9,0.7
					c0.6,0.3,1.2,0.5,1.7,1c0.1,0.1,0.1,0.1,0.2,0.2c0.2,0,0.4,0.1,0.7,0.3c0.1,0.1,0.3,0.5,0.5,0.9c0,0,0.1,0,0.1,0
					c0,0,0,0.1,0,0.1c0,0.2,0.1,0.3,0.1,0.5c0.2,0,0.5,0,0.7,0c0,0,0,0.1,0.1,0.1c0,0,0,0,0,0.1c0,0.7,0,1.4-0.1,2.2
					c0-0.1,0-0.1,0,0c0,0,0,0,0,0c0,0.1,0,0.2,0,0.4c0,0.1-0.1,0.1-0.1,0.2c0,0.1,0,0.2-0.1,0.2c0.1,0.8,0.2,1.7,0.3,2.6
					c0,0.1,0,0.3,0,0.4c0.3,0.2,0.5,0.5,0.7,0.7c0.5,0.3,0.9,0.7,0.5,0.5c0.1,0.1,0.1,0.1,0.2,0.2c0,0.5,0,0.9,0,1.3
					c0.1,0,0.1,0,0.2,0.1v-14.6L-18.8,381.5z M8.8,394.5c-0.2-0.2-0.3-0.3-0.5-0.5c-0.3-0.2-0.5-0.3-0.7-0.5c0,0.1,0,0.3,0,0.4
					C8.2,394.2,8.6,394.4,8.8,394.5L8.8,394.5z M7.5,389.5C7.5,389.5,7.5,389.5,7.5,389.5C7.5,389.5,7.5,389.5,7.5,389.5
					C7.5,389.5,7.5,389.5,7.5,389.5L7.5,389.5z M-6,427.1c0,0.1,0.1,0.1,0.1,0.2c0,0,0,0,0,0C-5.9,427.1-5.9,427.1-6,427.1z
					 M-6.5,428C-6.5,428-6.5,428-6.5,428c0,0,0.1,0.1,0.1,0.1c0.1-0.1,0.2-0.2,0.3-0.3c0-0.1,0.1-0.2,0.1-0.3c0,0,0,0,0,0
					C-6.1,427.6-6.4,427.8-6.5,428L-6.5,428z M-7.3,427.7C-7.3,427.6-7.3,427.6-7.3,427.7C-7.3,427.7-7.3,427.7-7.3,427.7
					C-7.3,427.7-7.3,427.7-7.3,427.7L-7.3,427.7z M-14,384c0,0,0,0.1,0,0.1c0,0,0,0,0,0C-14,384.1-14,384.1-14,384
					C-14,384-14,384-14,384L-14,384z M5.6,385.7c0.1,0.1,0.2,0.2,0.3,0.3c0,0-0.1-0.1-0.1-0.2C5.8,385.8,5.7,385.8,5.6,385.7z
					 M4.5,387.3c-0.1,0-0.1,0-0.2,0.1c-0.2,0.1,0,1,0.3,1.5c0-0.2-0.1-0.3-0.1-0.5c0-0.2-0.1-0.3-0.1-0.5c0,0,0-0.1,0-0.1
					c0.3,0,0.6-0.1,0.9-0.1C5.1,387.5,4.8,387.4,4.5,387.3L4.5,387.3z M-10.9,391.4C-10.9,391.4-10.9,391.4-10.9,391.4
					C-10.9,391.4-10.9,391.4-10.9,391.4C-10.9,391.4-10.9,391.4-10.9,391.4L-10.9,391.4z M-18.8,396.6L-18.8,396.6
					c0.1,0.4,0.1,0.8,0.2,1.2c0,0.1,0,0.2,0.1,0.2C-18.6,397.5-18.7,397.1-18.8,396.6z M-18.6,397.7c-0.1-0.3-0.1-0.6-0.2-0.9v1.7
					c0.1-0.2,0.2-0.3,0.3-0.5C-18.6,397.9-18.6,397.8-18.6,397.7z M-18.5,398.1c0,0.1,0,0.2,0.1,0.4c0,0,0,0.1,0,0
					C-18.5,398.3-18.5,398.2-18.5,398.1C-18.5,398-18.5,398-18.5,398.1z M-18.5,398L-18.5,398C-18.5,398-18.5,398-18.5,398
					C-18.5,398-18.5,398-18.5,398L-18.5,398z M8.7,399.5C8.7,399.5,8.7,399.6,8.7,399.5c0,0.1,0,0.1,0,0.1
					C8.7,399.6,8.7,399.5,8.7,399.5L8.7,399.5z M-18.8,419.4v18h11.9c-0.2-0.2-0.4-0.3-0.6-0.6c-0.2-0.1-0.3-0.1-0.5-0.2
					c-0.6-0.2-1.3-0.5-1.9-0.8c-0.1,0-0.1,0-0.2,0.1c-0.1,0-0.2,0.1-0.3,0.1c0,0-0.1,0.2-0.1,0.1c0-0.2,0-0.4,0-0.6
					c-0.1,0-0.1-0.1-0.2-0.1c0,0.2-0.1,0.5-0.1,0.7c0-0.3,0-0.5-0.1-0.8c-0.1,0-0.2-0.1-0.3-0.1c0,0-0.1,0-0.1,0
					c0,0.1,0,0.2-0.1,0.4c0,0.1,0,0.3,0,0.4c0,0,0,0-0.1-0.1c0-0.1,0-0.2,0.1-0.3c0-0.1,0-0.3,0-0.4c-0.4-0.2-0.9-0.5-1.2-0.8
					c-0.3-0.2-0.5-0.3-0.6-0.4c-0.3,0-0.5,0-0.8,0c-0.5-0.1-1.3-0.4-1.7-1.1c-0.1-0.3-0.2-0.7-0.3-1c1,1.8,0.5,1.6,1.7,1.3
					c0.1,0,0.1,0,0.2-0.1c0,0-0.1-0.1-0.1-0.1c-0.1-0.2-0.3-0.3-0.4-0.6c-0.1-0.2-0.1-0.5-0.1-0.8c-0.1-0.1-0.1-0.1-0.2-0.2
					c0,0,0,0.1,0,0.1c0,0,0.1,0.1,0,0c0,0,0,0,0,0.1c0,0.1-0.1-0.1-0.1-0.2c0,0,0,0,0.1,0c0-0.1-0.1-0.2-0.1-0.2
					c-0.8-0.7-1.5-1.3-0.6-1.6c0,0,0-0.1,0-0.2c0,0,0,0,0,0c0,0.1,0-0.2-0.1-0.2c0-0.2-0.1-0.3-0.1-0.5c0,0,0-0.1,0-0.2
					c0,0,0,0,0-0.1c-0.3,0.2-0.8,0.3-1.5,0.3c-0.1,0-0.2-0.2-0.2-0.5c-0.2,0.1-0.1,0-0.1-0.5c0,0,0-0.1,0-0.1
					c-0.1-0.2-0.1-0.5,0-0.5c0,0,0,0,0,0c0,0,0,0,0,0c0-1.7,0-3.3,0-5c0-0.1,0-0.2,0-0.3c-0.2-0.5-0.4-1-0.6-1.5
					C-18.4,420-18.6,419.7-18.8,419.4L-18.8,419.4z M-14.9,431.5C-14.9,431.5-14.9,431.5-14.9,431.5
					C-14.9,431.5-14.9,431.5-14.9,431.5C-14.9,431.5-14.9,431.5-14.9,431.5L-14.9,431.5z M-15.1,421.7
					C-15.1,421.7-15.1,421.8-15.1,421.7C-15.1,421.8-15.1,421.8-15.1,421.7C-15.1,421.8-15.1,421.8-15.1,421.7z M-15.1,428.4
					C-15.1,428.4-15.1,428.4-15.1,428.4C-15.1,428.4-15.1,428.4-15.1,428.4C-15.1,428.4-15.1,428.4-15.1,428.4L-15.1,428.4z
					 M-15.5,429.1c0,0,0,0.1,0,0.2C-15.5,429.2-15.5,429.1-15.5,429.1C-15.5,429.1-15.5,429.1-15.5,429.1L-15.5,429.1z M-15.3,429.3
					C-15.4,429.3-15.4,429.3-15.3,429.3c0,0.1,0.1,0.2,0.1,0.1C-15.3,429.4-15.3,429.3-15.3,429.3L-15.3,429.3z M2.9,429.9
					C2.9,429.9,2.8,429.9,2.9,429.9C2.9,429.9,2.9,429.9,2.9,429.9C2.9,429.9,2.9,429.9,2.9,429.9L2.9,429.9z M2.9,429.9
					C2.9,429.9,2.9,429.9,2.9,429.9C3,430,2.9,429.9,2.9,429.9c-0.2,0-0.4,0-0.5,0c-0.2,0-0.3,0-0.5,0c0.3,0.4,0.5,0.9,0.4,1.5
					c0.6,0.1,1.3,0.1,1.9,0.2c0.1,0,0.1,0,0.1,0c-0.1-0.2-0.2-0.4-0.3-0.7c-0.3-0.6-0.1-0.6-0.3-0.5c-0.2-0.2-0.2-0.2-0.5-0.5
					C3.2,430,3.1,430,2.9,429.9C2.9,429.9,2.9,429.9,2.9,429.9L2.9,429.9z M5.5,431.4C5.5,431.4,5.5,431.4,5.5,431.4
					c-0.1,0.1-0.1,0.2-0.2,0.2c0,0,0.1,0,0.1,0C5.5,431.6,5.6,431.5,5.5,431.4C5.6,431.4,5.5,431.4,5.5,431.4L5.5,431.4z M6.9,431.6
					c0,0.4,0,0.7,0,1.1c0,0.2,0.2-0.5,0.1-0.7C7.1,431.9,7,431.7,6.9,431.6z M5,432.5c0,0,0,0.1,0,0.1c-0.3,0.3,0.7,1.7,0.6,1.2
					C5.5,433.3,5.3,432.9,5,432.5z"/>
			</defs>
			<clipPath id="SVGID_4_">
				<use xlink:href="#SVGID_3_"  style="overflow:visible;"/>
			</clipPath>
			<path class="st2" d="M-3.3,381.5c5.4,0.4,10.5,5.8,11.9,15.9c0.5,3.3-2.9,3-3.6-0.3c-4.1-20-20.2-10.3-20.2,12.2
				c0,23.8,16.4,32,20.5,10.3c0.8-4,0.8-4.1,2.4-4.1c3.9,0-0.8,15.4-5.9,19.5c-12.9,10.3-25.3-15.6-18.8-39.5
				C-14.4,385.7-8.7,381.1-3.3,381.5z"/>
		</g>
		<g>
			<defs>
				<path id="SVGID_5_" d="M246.1,329.3v0.3h0.6c-0.1-0.1-0.1-0.2,0-0.3H246.1z M247.7,329.3C247.7,329.3,247.7,329.3,247.7,329.3
					C247.7,329.3,247.7,329.3,247.7,329.3L247.7,329.3z M247.9,329.3C247.9,329.3,247.9,329.4,247.9,329.3L247.9,329.3L247.9,329.3z
					 M246.9,329.5c0,0,0,0.1,0,0.1h0C246.9,329.6,246.9,329.6,246.9,329.5C246.9,329.5,246.9,329.5,246.9,329.5L246.9,329.5z"/>
			</defs>
			<clipPath id="SVGID_6_">
				<use xlink:href="#SVGID_5_"  style="overflow:visible;"/>
			</clipPath>
			<path class="st3" d="M246.1,329.3c0,0-0.1,0.1-0.1,0.1c0.8,0.2,1.5,0.4,1.8-0.1c0,0-0.1,0-0.1,0
				C247.2,329.3,246.7,329.3,246.1,329.3L246.1,329.3z"/>
		</g>
		<g>
			<defs>
				<path id="SVGID_7_" d="M248.4,329.4C248.4,329.4,248.4,329.4,248.4,329.4L248.4,329.4C248.5,329.4,248.5,329.4,248.4,329.4
					C248.5,329.4,248.5,329.4,248.4,329.4C248.5,329.4,248.5,329.4,248.4,329.4C248.5,329.4,248.5,329.4,248.4,329.4L248.4,329.4
					L248.4,329.4z M248.3,329.4L248.3,329.4C248.3,329.5,248.3,329.5,248.3,329.4C248.3,329.4,248.3,329.4,248.3,329.4z"/>
			</defs>
			<clipPath id="SVGID_8_">
				<use xlink:href="#SVGID_7_"  style="overflow:visible;"/>
			</clipPath>
			<path class="st4" d="M248.3,329.4c0.1,0.2,0.1,0.3,0.2,0.5c0,0,0,0,0-0.1C248.5,329.7,248.4,329.5,248.3,329.4
				C248.3,329.4,248.3,329.4,248.3,329.4L248.3,329.4z"/>
		</g>
		<path class="st0" d="M246.4,308.5C246.4,308.5,246.3,308.5,246.4,308.5c0.2,0.3,0.6,0.6,0.9,0.8
			C247.7,309.4,246.7,308.8,246.4,308.5C246.4,308.5,246.4,308.5,246.4,308.5L246.4,308.5z"/>
		<path class="st0" d="M192.3,345.4c0,0.1,0.6,0.4,0.8,0.5c0.2,0,0.3,0,0.4,0C193.1,345.8,192.7,345.6,192.3,345.4L192.3,345.4z"/>
		<path class="st0" d="M199.2,344.5c-0.2,0.1-0.3,0.1-0.4,0.2c0,0,0,0.1,0,0.1c0.1,0,0.2-0.1,0.2-0.2
			C199.1,344.5,199.2,344.5,199.2,344.5L199.2,344.5z"/>
		<path class="st0" d="M202.8,343.3C202.7,343.3,202.7,343.3,202.8,343.3c-0.1,0.1-0.1,0.1-0.1,0.2
			C202.7,343.4,202.7,343.4,202.8,343.3L202.8,343.3z"/>
		<path class="st0" d="M52.8,342.1c-0.2,0-0.4,0.1-0.6,0.1c0.2,0.5,0.4,1,0.5,1.5C52.8,343.3,52.8,342.7,52.8,342.1z"/>
		<path class="st0" d="M81,357.8c0.3,0.5,0.7,0.8,1.2,0.9c-0.1-0.1-0.2-0.2-0.3-0.3c-0.2-0.2-0.5-0.3-0.7-0.6
			C81.2,357.8,81.1,357.8,81,357.8L81,357.8z"/>
		<path class="st0" d="M73.4,355.4c0,0,0.3,0.9,0.6,1.9c0,0,0-0.1,0-0.1C73.7,356.3,73.4,355.5,73.4,355.4
			C73.4,355.4,73.4,355.4,73.4,355.4L73.4,355.4z"/>
		<path class="st0" d="M80.4,346.5c0,0.1,0,0.2,0,0.3c0.1-0.1,0.2-0.2,0.2-0.3C80.6,346.5,80.6,346.5,80.4,346.5
			C80.5,346.5,80.4,346.5,80.4,346.5L80.4,346.5z"/>
		<path class="st0" d="M121.7,319.6C121.2,319.9,121.1,320,121.7,319.6C121.7,319.6,121.7,319.6,121.7,319.6z"/>
		<path class="st0" d="M122.2,319.3C122.1,319.3,122.1,319.3,122.2,319.3C122.1,319.3,122.1,319.3,122.2,319.3
			C122.1,319.3,122.2,319.3,122.2,319.3C122.2,319.3,122.2,319.3,122.2,319.3L122.2,319.3z"/>
		<path class="st0" d="M121.7,319.6C121.2,319.9,121.1,320,121.7,319.6C121.7,319.6,121.7,319.6,121.7,319.6z"/>
		<path class="st0" d="M122.2,319.3C122.1,319.3,122.1,319.3,122.2,319.3C122.1,319.3,122.1,319.3,122.2,319.3
			C122.1,319.3,122.2,319.3,122.2,319.3C122.2,319.3,122.2,319.3,122.2,319.3L122.2,319.3z"/>
		<path class="st0" d="M234.4,340.1c0,0.2,0.1,0.5,0.1,0.8c0,0,0-0.1,0-0.1C234.5,340.5,234.5,340.3,234.4,340.1L234.4,340.1z"/>
		<path class="st0" d="M185.1,222.8c0.1,0.3,0.1,0.7,0.1,1c0.1,0,0.3,0.1,0.4,0.1c0-0.3-0.1-0.7-0.1-0.8
			C185.4,222.8,185.3,222.8,185.1,222.8z"/>
		<path class="st0" d="M185.1,222.8C185,222.8,185,222.8,185.1,222.8C185.1,222.8,185.1,222.8,185.1,222.8z"/>
		<path class="st0" d="M-22.7,210.2C-22.7,210.2-22.7,210.2-22.7,210.2L-22.7,210.2C-22.7,210.2-22.7,210.2-22.7,210.2
			C-22.7,210.2-22.7,210.2-22.7,210.2L-22.7,210.2z"/>
		<path class="st0" d="M-22.7,210.2C-22.7,210.2-22.7,210.2-22.7,210.2C-22.7,210.2-22.7,210.2-22.7,210.2
			C-22.7,210.2-22.7,210.2-22.7,210.2C-22.7,210.2-22.7,210.2-22.7,210.2C-22.7,210.2-22.7,210.2-22.7,210.2L-22.7,210.2z"/>
		<path class="st0" d="M-22.7,210.2C-22.7,210.2-22.7,210.2-22.7,210.2C-22.7,210.2-22.7,210.2-22.7,210.2
			C-22.7,210.2-22.7,210.2-22.7,210.2C-22.7,210.2-22.7,210.2-22.7,210.2C-22.7,210.2-22.7,210.2-22.7,210.2L-22.7,210.2z"/>
		<path class="st0" d="M7.2,189.5C7.2,189.5,7.2,189.5,7.2,189.5C7.2,189.5,7.2,189.5,7.2,189.5C7.2,189.5,7.1,189.5,7.2,189.5
			C7.1,189.5,7.2,189.5,7.2,189.5L7.2,189.5C7.2,189.5,7.2,189.5,7.2,189.5C7.2,189.6,7.2,189.6,7.2,189.5
			C7.2,189.5,7.2,189.5,7.2,189.5C7.2,189.5,7.2,189.5,7.2,189.5L7.2,189.5z"/>
		<path class="st0" d="M8,189.3C8,189.3,8,189.3,8,189.3C8,189.3,8,189.3,8,189.3C8,189.3,8,189.3,8,189.3L8,189.3z"/>
		<path class="st0" d="M15.9,189.3C15.9,189.3,15.9,189.3,15.9,189.3L15.9,189.3C15.9,189.3,15.9,189.3,15.9,189.3
			C15.9,189.3,15.9,189.3,15.9,189.3C15.9,189.3,15.9,189.3,15.9,189.3C15.9,189.3,15.9,189.3,15.9,189.3L15.9,189.3z"/>
		<path class="st0" d="M6.1,189.2C6.1,189.2,6.1,189.2,6.1,189.2C6.1,189.2,6.1,189.2,6.1,189.2C6.1,189.2,6.1,189.2,6.1,189.2
			L6.1,189.2z"/>
		<path class="st0" d="M8.6,189.2C8.6,189.2,8.6,189.2,8.6,189.2C8.6,189.2,8.6,189.2,8.6,189.2L8.6,189.2
			C8.6,189.3,8.6,189.3,8.6,189.2C8.6,189.3,8.6,189.3,8.6,189.2C8.6,189.3,8.6,189.2,8.6,189.2L8.6,189.2z"/>
		<path class="st0" d="M7,189.1C7,189.1,7,189.1,7,189.1C7,189.1,7,189.1,7,189.1C7,189.1,7,189.1,7,189.1L7,189.1z"/>
		<path class="st0" d="M146.8,141.6C146.8,141.7,146.8,141.7,146.8,141.6C146.8,141.6,146.8,141.6,146.8,141.6z"/>
		<path class="st0" d="M146.9,141.4C146.9,141.4,146.9,141.4,146.9,141.4C146.9,141.4,146.9,141.4,146.9,141.4L146.9,141.4z"/>
		<path class="st0" d="M147,140C147,140,147,140.1,147,140C147,140.1,147,140,147,140z"/>
		<path class="st0" d="M147,134.8C147,134.9,147,134.9,147,134.8C147,134.9,147,134.9,147,134.8z"/>
		<path class="st0" d="M146.9,134.6C146.9,134.6,146.9,134.6,146.9,134.6C146.9,134.6,146.9,134.6,146.9,134.6
			C146.9,134.6,146.9,134.6,146.9,134.6L146.9,134.6z"/>
		<path class="st0" d="M146.9,134.2L146.9,134.2C146.9,134.2,146.9,134.2,146.9,134.2C146.9,134.2,146.9,134.2,146.9,134.2
			L146.9,134.2z"/>
		<path class="st0" d="M146.9,134.1C146.9,134.1,146.9,134.1,146.9,134.1C146.9,134.1,146.9,134.1,146.9,134.1
			C146.9,134.1,146.9,134.1,146.9,134.1L146.9,134.1z"/>
		<path class="st0" d="M146.9,133.9C146.9,134,146.9,134,146.9,133.9C146.9,134,146.9,134,146.9,133.9
			C146.9,134,146.9,134,146.9,133.9L146.9,133.9z"/>
		<path class="st0" d="M146.9,137.4C146.9,137.5,146.9,137.5,146.9,137.4C146.9,137.5,146.9,137.5,146.9,137.4
			C146.9,137.5,146.9,137.5,146.9,137.4L146.9,137.4z"/>
		<path class="st0" d="M146.8,137C146.8,137,146.8,137,146.8,137C146.8,137,146.8,137,146.8,137C146.8,137,146.8,137,146.8,137
			L146.8,137z"/>
		<path class="st0" d="M144,94.6C144,94.6,143.9,94.6,144,94.6C143.9,94.6,143.9,94.6,144,94.6C143.9,94.6,144,94.6,144,94.6
			C144,94.6,144,94.6,144,94.6C144,94.6,144,94.6,144,94.6C144,94.6,144,94.6,144,94.6L144,94.6z"/>
		<path class="st0" d="M145.2,94.3C145.2,94.4,145.2,94.4,145.2,94.3C145.2,94.4,145.2,94.3,145.2,94.3z"/>
		<path class="st0" d="M137,94.9C137,94.9,137,94.9,137,94.9C137,94.9,137,94.9,137,94.9z"/>
		<path class="st0" d="M137.2,94.9C137.2,94.9,137.2,94.9,137.2,94.9C137.2,94.9,137.2,94.9,137.2,94.9
			C137.2,94.9,137.2,94.9,137.2,94.9L137.2,94.9z"/>
		<path class="st0" d="M137,94.8C137,94.8,137,94.8,137,94.8C137,94.8,137,94.8,137,94.8C137,94.8,137,94.8,137,94.8L137,94.8z"/>
		<path class="st5" d="M-3.7,431.7c-0.3,0-0.6,0-0.9,0.1c-0.5,0.2-0.2,0.3,0.8,0.3c1,0,1.4-0.1,1-0.3
			C-3.1,431.8-3.4,431.7-3.7,431.7z"/>
		<g>
			<defs>
				<path id="SVGID_9_" d="M2.7,426.5C2.6,426.6,2.6,426.6,2.7,426.5c0.1,0.1,0.2,0.1,0.3,0H2.7z"/>
			</defs>
			<clipPath id="SVGID_10_">
				<use xlink:href="#SVGID_9_"  style="overflow:visible;"/>
			</clipPath>
			<path class="st6" d="M3.3,426.5c0,0-0.2,0.2-0.5,0.6c-0.4,0.6-0.8,1.1-0.8,1.3c0,0.6,0.4,0.2,0.9-1
				C3.2,426.8,3.3,426.5,3.3,426.5z"/>
		</g>
		<path class="st5" d="M120.2,411.2C120.2,411.2,120.2,411.2,120.2,411.2C120.1,411.2,120.2,411.2,120.2,411.2z"/>
		<g>
			<defs>
				<path id="SVGID_11_" d="M-18.5,407.3c0,0.1-0.1,0.1-0.1,0.2C-18.6,407.4-18.5,407.4-18.5,407.3L-18.5,407.3z"/>
			</defs>
			<clipPath id="SVGID_12_">
				<use xlink:href="#SVGID_11_"  style="overflow:visible;"/>
			</clipPath>
			<path class="st7" d="M-18.6,407.2c-0.1-0.1-0.1,0.8-0.1,2.5c0,2.2,0.1,3.1,0.2,2c0.1-1.1,0.1-2.9,0-4
				C-18.6,407.4-18.6,407.2-18.6,407.2z"/>
		</g>
		<path class="st5" d="M120.2,411.2C120.2,411.2,120.2,411.2,120.2,411.2C120.1,411.2,120.2,411.2,120.2,411.2z"/>
		<path class="st5" d="M120.2,411.2C120.2,411.2,120.2,411.2,120.2,411.2C120.1,411.2,120.2,411.2,120.2,411.2z"/>
		<path class="st5" d="M120.2,411.2C120.2,411.2,120.2,411.2,120.2,411.2C120.1,411.2,120.2,411.2,120.2,411.2z"/>
		<g>
			<defs>
				<path id="SVGID_13_" d="M-3.5,386.3c-0.1,0.1-0.1,0.3-0.3,0.5h1v-0.5H-3.5z"/>
			</defs>
			<clipPath id="SVGID_14_">
				<use xlink:href="#SVGID_13_"  style="overflow:visible;"/>
			</clipPath>
			<path class="st8" d="M-3.7,386.3c-0.3,0-0.6,0-0.9,0.1v0c-0.5,0.2-0.2,0.3,0.8,0.3c1,0,1.4-0.1,1-0.3
				C-3.1,386.4-3.4,386.3-3.7,386.3L-3.7,386.3z"/>
		</g>
		<g>
			<defs>
				<path id="SVGID_15_" d="M4.6,387.3v0.4c0.3,0,0.5-0.1,0.7-0.1C5.1,387.5,4.8,387.4,4.6,387.3z M4.6,388.7L4.6,388.7
					c0,0.1,0,0.1,0,0.1C4.6,388.8,4.6,388.7,4.6,388.7L4.6,388.7z"/>
			</defs>
			<clipPath id="SVGID_16_">
				<use xlink:href="#SVGID_15_"  style="overflow:visible;"/>
			</clipPath>
			<path class="st9" d="M4.6,386.2c0,0,0.2,0.4,0.6,1.3c0.8,1.5,1.1,2,1.1,1.4c0-0.1-0.4-0.9-1-1.6C4.9,386.5,4.6,386.2,4.6,386.2z"
				/>
		</g>
		<path class="st5" d="M81.3,357.8C81.3,357.9,81.3,357.9,81.3,357.8c-0.1,0.1-0.2,0.1-0.2,0.1c0.1,0.1,0.1,0.2,0.2,0.2
			c0.1,0,0.2,0,0.3,0C81.5,358.1,81.4,358,81.3,357.8L81.3,357.8z"/>
		<path class="st5" d="M194,239.5L194,239.5C194,239.5,194,239.5,194,239.5C194,239.5,194,239.5,194,239.5
			C194,239.5,194,239.5,194,239.5L194,239.5z"/>
		<path class="st5" d="M194,239.5L194,239.5C194,239.5,194,239.5,194,239.5C194,239.5,194,239.5,194,239.5L194,239.5z"/>
		<path class="st5" d="M193.5,239.4C193.5,239.4,193.5,239.4,193.5,239.4C193.5,239.4,193.5,239.4,193.5,239.4
			C193.5,239.4,193.5,239.4,193.5,239.4L193.5,239.4z"/>
		<path class="st5" d="M193.4,239.3C193.4,239.3,193.4,239.3,193.4,239.3C193.4,239.3,193.4,239.3,193.4,239.3
			C193.4,239.3,193.4,239.3,193.4,239.3L193.4,239.3z"/>
		<path class="st5" d="M193.7,239.4C193.7,239.4,193.7,239.4,193.7,239.4C193.6,239.4,193.6,239.4,193.7,239.4
			C193.6,239.4,193.7,239.4,193.7,239.4L193.7,239.4z"/>
		<path class="st5" d="M185.5,238.7C185.5,238.7,185.5,238.7,185.5,238.7C185.5,238.7,185.5,238.7,185.5,238.7
			C185.5,238.7,185.5,238.7,185.5,238.7z"/>
		<path class="st5" d="M189,238.5C189,238.5,189,238.6,189,238.5C189.1,238.6,189,238.5,189,238.5z"/>
		<path class="st5" d="M187.9,238.4L187.9,238.4L187.9,238.4L187.9,238.4C187.9,238.4,187.9,238.4,187.9,238.4L187.9,238.4z"/>
		<path class="st5" d="M187.4,238.4C187.4,238.4,187.4,238.4,187.4,238.4C187.5,238.4,187.5,238.4,187.4,238.4
			C187.5,238.4,187.5,238.4,187.4,238.4z"/>
		<path class="st5" d="M187.4,238.4C187.4,238.4,187.4,238.4,187.4,238.4C187.4,238.4,187.4,238.4,187.4,238.4z"/>
		<path class="st5" d="M186.8,238.4C186.8,238.4,186.9,238.4,186.8,238.4C186.9,238.4,186.9,238.4,186.8,238.4
			C186.9,238.4,186.8,238.4,186.8,238.4L186.8,238.4z"/>
		<path class="st5" d="M186.4,238.4C186.4,238.4,186.4,238.4,186.4,238.4C186.4,238.4,186.4,238.4,186.4,238.4
			C186.4,238.4,186.4,238.4,186.4,238.4C186.5,238.4,186.5,238.4,186.4,238.4L186.4,238.4z"/>
		<path class="st5" d="M186.4,238.3C186.4,238.3,186.4,238.3,186.4,238.3C186.4,238.3,186.4,238.3,186.4,238.3
			C186.4,238.3,186.4,238.3,186.4,238.3C186.4,238.3,186.5,238.3,186.4,238.3c0.1,0,0.1,0,0.2,0
			C186.5,238.3,186.5,238.3,186.4,238.3L186.4,238.3z"/>
		<path class="st5" d="M-15.1,211C-15.1,211-15.1,211-15.1,211C-15.1,211-15.1,211-15.1,211z"/>
		<path class="st5" d="M146.4,134.3L146.4,134.3C146.4,134.3,146.4,134.3,146.4,134.3C146.4,134.3,146.4,134.3,146.4,134.3
			L146.4,134.3z"/>
		<path class="st5" d="M144.3,95.4C144.3,95.4,144.3,95.4,144.3,95.4C144.3,95.4,144.3,95.4,144.3,95.4
			C144.3,95.4,144.3,95.4,144.3,95.4z"/>
		<path class="st5" d="M137,94.9C137,94.9,137,94.9,137,94.9C137,94.9,137,94.9,137,94.9z"/>
		<path class="st5" d="M137.2,94.9C137.2,94.9,137.2,94.9,137.2,94.9C137.2,94.9,137.2,94.9,137.2,94.9
			C137.2,94.9,137.2,94.9,137.2,94.9L137.2,94.9z"/>
		<path class="st5" d="M63.8,64.8c0,0,0.2,0.5,0.8,1.5c0.6,1.1,1.1,2,1.2,2c0.3,0,0.1-0.6-1.1-2.3C64.1,65.2,63.8,64.7,63.8,64.8z"
			/>
		<path class="st5" d="M55.5,59.6c-0.3,0-0.6,0-0.8,0.1c-0.4,0.2-0.1,0.3,0.8,0.3c0.8,0,1.2-0.2,0.8-0.3
			C56,59.7,55.7,59.6,55.5,59.6z"/>
		<g>
			<defs>
				<path id="SVGID_17_" d="M-15,431.4v0.3h0.1c0,0-0.1-0.1-0.1-0.2c0,0,0,0,0.1,0C-14.9,431.5-14.9,431.4-15,431.4L-15,431.4z
					 M-14.9,431.5C-14.9,431.5-14.9,431.5-14.9,431.5C-14.9,431.5-14.9,431.5-14.9,431.5C-14.9,431.5-14.9,431.5-14.9,431.5
					L-14.9,431.5z M-14.9,431.5C-14.8,431.6-14.8,431.6-14.9,431.5c0,0.1,0,0.1,0,0.1c0,0,0,0,0,0h0.1c0,0,0-0.1,0-0.1
					c-0.1-0.1-0.1-0.1-0.2-0.2C-14.9,431.4-14.9,431.5-14.9,431.5L-14.9,431.5z"/>
			</defs>
			<clipPath id="SVGID_18_">
				<use xlink:href="#SVGID_17_"  style="overflow:visible;"/>
			</clipPath>
			<path class="st10" d="M-15,428.7c0,0,0.2,0.4,0.6,1.3c0.5,0.9,0.9,1.6,1,1.6c0.3,0,0.1-0.6-0.8-1.9
				C-14.7,429-14.9,428.7-15,428.7z"/>
		</g>
		<path class="st11" d="M120.2,411.2C120.2,411.2,120.2,411.2,120.2,411.2C120.1,411.2,120.2,411.2,120.2,411.2z"/>
		<g>
			<defs>
				<path id="SVGID_19_" d="M-14.9,386.9L-14.9,386.9C-14.9,387-14.9,387-14.9,386.9L-14.9,386.9z"/>
			</defs>
			<clipPath id="SVGID_20_">
				<use xlink:href="#SVGID_19_"  style="overflow:visible;"/>
			</clipPath>
			<path class="st12" d="M-13.3,386.9c-0.1,0-0.6,0.7-1,1.5s-0.7,1.5-0.6,1.5s0.6-0.7,1-1.5S-13.2,386.9-13.3,386.9z"/>
		</g>
		<path class="st11" d="M73.9,357.1c0,0.1,0,0.1,0.1,0.2c0,0,0-0.1,0-0.1C74,357.2,74,357.2,73.9,357.1
			C73.9,357.1,73.9,357.1,73.9,357.1L73.9,357.1z"/>
		<path class="st11" d="M-15.1,211C-15.1,211-15.1,211-15.1,211C-15.1,211-15.1,211-15.1,211z"/>
		<path class="st13" d="M120.2,411.2C120.2,411.2,120.2,411.2,120.2,411.2C120.1,411.2,120.2,411.2,120.2,411.2z"/>
		<path class="st13" d="M7.2,398.8c-0.3,0-0.6,0-0.8,0.1c-0.4,0.2-0.1,0.3,0.8,0.3c0.8,0,1.2-0.2,0.8-0.3
			C7.8,398.8,7.5,398.8,7.2,398.8z"/>
		<g>
			<defs>
				<path id="SVGID_21_" d="M73.7,397.3L73.7,397.3C73.7,397.4,73.7,397.3,73.7,397.3L73.7,397.3l0.1,0.1h0c0,0,0,0,0,0c0,0,0,0,0,0
					L73.7,397.3L73.7,397.3L73.7,397.3z M74.5,397.6C74.5,397.6,74.5,397.6,74.5,397.6c-0.1,0-0.1,0-0.1,0.1c0,0,0,0-0.1,0
					c0,0,0,0-0.1,0c0,0,0,0,0,0c0,0-0.1,0-0.1,0c0,0-0.1,0-0.1,0h0.4L74.5,397.6z M73.7,397.7L73.7,397.7l0.3,0c0,0,0,0,0,0
					c0,0,0,0,0,0h-0.1h-0.1L73.7,397.7L73.7,397.7C73.7,397.7,73.7,397.7,73.7,397.7L73.7,397.7z"/>
			</defs>
			<clipPath id="SVGID_22_">
				<use xlink:href="#SVGID_21_"  style="overflow:visible;"/>
			</clipPath>
			<path class="st14" d="M74.5,397.3c-0.2,0-0.5,0.1-0.7,0.1c-0.4,0.2-0.2,0.3,0.5,0.3C74.4,397.6,74.4,397.4,74.5,397.3
				C74.5,397.3,74.5,397.3,74.5,397.3z"/>
		</g>
		<path class="st13" d="M93.3,254.4c-0.5,0-1,0-1.4,0.1c-0.8,0.2-0.1,0.3,1.4,0.3c1.6,0,2.2-0.1,1.4-0.3
			C94.3,254.5,93.8,254.4,93.3,254.4z"/>
		<path class="st13" d="M86.6,225.3C86.5,225.3,86.5,225.3,86.6,225.3C86.5,225.3,86.5,225.4,86.6,225.3
			C86.5,225.4,86.6,225.3,86.6,225.3L86.6,225.3z"/>
		<path class="st13" d="M89.1,225.3C89.1,225.3,89.1,225.3,89.1,225.3C89.1,225.3,89.1,225.3,89.1,225.3
			C89.1,225.3,89.1,225.3,89.1,225.3L89.1,225.3z"/>
		<path class="st13" d="M178.4,224.3c-11,0.2-23.1,6.5-38.4,19.3c-21.3,17.8-37.8,21.1-63.8,10.8c-7.6-3-10.2-5-2.7,2.1
			c9.3,8.8,20,15.6,31.1,17.9c13.1,2.8,26.7-2.5,44.1-17.1c16.1-13.5,27-19.5,38.2-19.1c0,0,0,0,0,0c0,0,0,0,0,0h0.1c0,0,0,0,0,0
			c7.5,0.3,15.1,3.4,24.5,9.2c7.8,4.8,13,10.2,3-1.3c-10.6-12.2-20.2-19.4-30.3-21.3c-0.1,0-0.2,0-0.3-0.1
			C182.3,224.5,180.3,224.3,178.4,224.3L178.4,224.3z"/>
		<path class="st13" d="M-15.1,211C-15.1,211-15.1,211-15.1,211C-15.1,211-15.1,211-15.1,211z"/>
		<path class="st13" d="M169.4,205.8C169.4,205.8,169.4,205.8,169.4,205.8C169.4,205.8,169.4,205.8,169.4,205.8
			C169.4,205.8,169.4,205.8,169.4,205.8L169.4,205.8z"/>
		<path class="st13" d="M170,205.4C170,205.4,170,205.5,170,205.4C170,205.5,170,205.5,170,205.4C170,205.4,170,205.4,170,205.4
			L170,205.4z"/>
		<path class="st13" d="M7.8,189.8C7.8,189.8,7.8,189.8,7.8,189.8C7.8,189.8,7.8,189.8,7.8,189.8C7.8,189.8,7.8,189.8,7.8,189.8
			L7.8,189.8z"/>
		<path class="st13" d="M7.6,189.4C7.6,189.4,7.6,189.4,7.6,189.4C7.6,189.4,7.6,189.4,7.6,189.4C7.6,189.4,7.6,189.4,7.6,189.4
			L7.6,189.4z"/>
		<path class="st13" d="M8,189.3C8,189.3,8,189.3,8,189.3C8,189.3,8,189.3,8,189.3C8,189.3,8,189.3,8,189.3L8,189.3z"/>
		<path class="st13" d="M33.3,161.9c-6.7-0.1-13.4,2.7-20.5,8.4c-2.6,2.1-4.6,3.8-4.6,3.9c0.1,0.1,2.4-0.5,5.1-1.3
			c17.8-5.3,30.3,0.5,46,21.1c12.3,16.1,19,21.9,28.9,24.9c8.3,2.5,24.7-1.9,33.4-6.7c4.8-2.7-0.2,0.1-10.2-0.3
			c-19.3-0.9-29.7-6.8-42.8-24.2C55.6,170.4,44.5,162.1,33.3,161.9z"/>
		<path class="st15" d="M74.2,28.8l-0.3,51.2l0.3,51.4H71c-2.5,0-4.2,0.6-8.3,2.9c-2.8,1.6-5.3,2.9-5.5,2.9c-0.2,0-0.3-7.3-0.3-16.1
			c0-9.8,0.2-16,0.4-16.1c4.3-1.9,4.5-1.7,7.1-6.5c1-1.8,1.7-4.1,2.3-6.2c6.1-21.4-5.9-39.7-17.1-31.4c-11.1,8.3-9.4,38.6,2.4,43.4
			c2.2,0.9,2.2,0.9,2.2,18v17.1l-9,4.9c-8.8,4.8-14.9,9.5-16.8,11.6c-2,2.2-1.3,1.8,0,0.8c19.1-13,34-2.5,53.9,23.6
			c8.8,11.6,16.1,17.5,25.3,20.7c10.5,3.6,22.1,1.2,35.4-7.4l3.5-2.3v-47.9V95.4h-2c0,0-0.1,0-0.2,0H144c0,0,0,0,0,0v0c0,0,0,0,0,0
			h-0.1h-0.1l0,0c-0.1,0-0.1,0-0.2,0h-5.6v0v0v0c0,0.2-0.1,0.2-0.1,0v0v0v0h-2.7h-11.1l-0.3,28.6c-0.3,28.6,0.2,27.1-1.7,27.1
			c-2,0-1.8,1.5-1.8-11v-12.5l-5.7-0.1l-5.7,0.1V91.9l0.2-35.7l-8.5-14.1l-8-13.4h-9.2L74.2,28.8z"/>
		<path class="st16" d="M120.2,411.2C120.2,411.2,120.2,411.2,120.2,411.2C120.1,411.2,120.2,411.2,120.2,411.2z"/>
		<path class="st17" d="M120.2,411.2C120.2,411.2,120.2,411.2,120.2,411.2C120.1,411.2,120.2,411.2,120.2,411.2z"/>
		<path class="st17" d="M154.3,430.1C154.2,430.1,154.2,430.1,154.3,430.1c-0.1,0.2-0.1,0.3-0.2,0.4c0,0,0,0,0,0
			C154.1,430.5,154.2,430.3,154.3,430.1L154.3,430.1z"/>
		<path class="st17" d="M129,433.9C129,433.9,128.9,433.9,129,433.9c-0.1,0.2-0.1,0.2-0.1,0.3C128.9,434.1,129,434,129,433.9
			L129,433.9z"/>
		<path class="st17" d="M120.2,411.2C120.2,411.2,120.2,411.2,120.2,411.2C120.1,411.2,120.2,411.2,120.2,411.2z"/>
		<path class="st17" d="M120.2,411.2C120.2,411.2,120.2,411.2,120.2,411.2C120.1,411.2,120.2,411.2,120.2,411.2z"/>
		<path class="st17" d="M120.2,411.2C120.2,411.2,120.2,411.2,120.2,411.2C120.1,411.2,120.2,411.2,120.2,411.2z"/>
		<path class="st17" d="M120.2,411.2C120.2,411.2,120.2,411.2,120.2,411.2C120.1,411.2,120.2,411.2,120.2,411.2z"/>
		<path class="st17" d="M120.2,411.2C120.2,411.2,120.2,411.2,120.2,411.2C120.1,411.2,120.2,411.2,120.2,411.2z"/>
		<path class="st17" d="M209.6,404.9c-0.1,0.8-0.2,1.6-0.2,2.5C209.4,408.4,209.5,406.7,209.6,404.9
			C209.6,404.9,209.6,404.9,209.6,404.9L209.6,404.9z"/>
		<path class="st17" d="M120.2,411.2C120.2,411.2,120.2,411.2,120.2,411.2C120.1,411.2,120.2,411.2,120.2,411.2z"/>
		<path class="st17" d="M50.5,399.5c0,0,0.1,0.3,0.2,0.8c0,0,0,0,0,0c0-0.2-0.1-0.3-0.1-0.5C50.6,399.6,50.5,399.5,50.5,399.5
			L50.5,399.5z"/>
		<path class="st17" d="M49.8,398.6c0,0-0.1,0-0.1,0c0,0.1,0,0.2,0,0.3C49.7,398.8,49.8,398.7,49.8,398.6L49.8,398.6z"/>
		<path class="st17" d="M-5.1,436c0,0.1,0.1,0.2,0.1,0.3c0,0.1,0.1,0.1,0.1,0.1C-4.9,436.3-5,436.2-5.1,436z"/>
		<path class="st17" d="M-6.5,436c0,0,0.2,0.2,0.2,0.2c0,0,0,0,0,0C-6.3,436.1-6.4,436-6.5,436C-6.5,436-6.5,436-6.5,436L-6.5,436z"
			/>
		<g>
			<defs>
				<path id="SVGID_23_" d="M-1.1,435.1c0,0.1,0.1,0.2,0.1,0.3L-1.1,435.1C-1,435.1-1.1,435.1-1.1,435.1z"/>
			</defs>
			<clipPath id="SVGID_24_">
				<use xlink:href="#SVGID_23_"  style="overflow:visible;"/>
			</clipPath>
			<path class="st18" d="M-1.2,434.8C-1.2,434.8-1.2,434.8-1.2,434.8c-0.1,0.4-0.2,0.7-0.3,0.9c0,0.1-0.1,0.1-0.1,0.2
				c0.2-0.1,0.4-0.1,0.5-0.2C-1.1,435.4-1.1,435.1-1.2,434.8L-1.2,434.8z"/>
		</g>
		<path class="st17" d="M3.8,431.8c-0.1,0-0.1,0-0.2,0c0,0.1,0,0.1,0,0.2C3.7,432,3.7,431.9,3.8,431.8L3.8,431.8z"/>
		<g>
			<defs>
				<rect id="SVGID_25_" x="2" y="429.2" width="0.2" height="0.2"/>
			</defs>
			<clipPath id="SVGID_26_">
				<use xlink:href="#SVGID_25_"  style="overflow:visible;"/>
			</clipPath>
			<path class="st19" d="M2.1,429.2c0,0.1-0.1,0.1-0.1,0.2c0.1,0,0.1,0,0.2-0.1C2.2,429.3,2.1,429.3,2.1,429.2L2.1,429.2z"/>
		</g>
		<path class="st17" d="M-1.7,432.2c0,0-0.1,0-0.2,0c0,0.1,0,0.1,0.1,0.2C-1.7,432.3-1.7,432.3-1.7,432.2
			C-1.7,432.2-1.7,432.2-1.7,432.2L-1.7,432.2z"/>
		<path class="st17" d="M-9.4,432C-9.4,432-9.4,432-9.4,432C-9.4,432-9.3,432-9.4,432c0.1,0.1,0.1,0,0.1,0C-9.3,432-9.4,432-9.4,432
			L-9.4,432z"/>
		<path class="st17" d="M-7.5,431.4c-0.1,0.3-0.1,0.6-0.2,0.8c0.1-0.1,0.3-0.3,0.4-0.7C-7.4,431.4-7.5,431.4-7.5,431.4z"/>
		<g>
			<defs>
				<rect id="SVGID_27_" x="-9.4" y="385.9" width="0.2" height="0.1"/>
			</defs>
			<clipPath id="SVGID_28_">
				<use xlink:href="#SVGID_27_"  style="overflow:visible;"/>
			</clipPath>
			<path class="st20" d="M-9.4,385.9C-9.4,385.9-9.4,385.9-9.4,385.9c0,0,0.1,0.1,0.1,0.1C-9.3,385.9-9.3,385.9-9.4,385.9
				C-9.4,385.9-9.4,385.9-9.4,385.9L-9.4,385.9z"/>
		</g>
		<g>
			<defs>
				<rect id="SVGID_29_" x="-7.4" y="386.8" width="0.1" height="0"/>
			</defs>
			<clipPath id="SVGID_30_">
				<use xlink:href="#SVGID_29_"  style="overflow:visible;"/>
			</clipPath>
			<path class="st21" d="M-7.3,386.8c0,0-0.1,0-0.1,0c0,0,0,0,0,0C-7.3,386.8-7.3,386.8-7.3,386.8z"/>
		</g>
		<g>
			<defs>
				<path id="SVGID_31_" d="M-7.1,385.8c-0.1,0.2-0.2,0.4-0.3,0.6c0,0.1,0.1,0.2,0.1,0.2c0.1,0,0.2,0,0.3-0.1c0-0.1,0.1-0.1,0.1-0.1
					v-0.7H-7.1z"/>
			</defs>
			<clipPath id="SVGID_32_">
				<use xlink:href="#SVGID_31_"  style="overflow:visible;"/>
			</clipPath>
			<path class="st22" d="M-7.4,385.8c-0.1,0.2-0.2,0.3-0.3,0.5c0,0.1,0.1,0.1,0.1,0.2c0,0,0.1-0.1,0.2-0.1c0,0,0-0.1,0.1-0.1
				c0,0.1-0.1,0.3-0.2,0.4c0,0,0,0.1,0.1,0.1c0,0,0,0,0,0c0.1,0,0.2,0,0.4,0.1c0,0,0,0,0,0c0,0,0,0,0.1,0c-0.1-0.1-0.1-0.3-0.3-0.5
				c0-0.1-0.1-0.1,0-0.1c0.1,0.1,0.3,0.3,0.4,0.4c0,0,0,0,0,0c0-0.1,0-0.1,0-0.2C-7,386.2-7.2,386.1-7.4,385.8
				C-7.3,385.9-7.4,385.8-7.4,385.8L-7.4,385.8z"/>
		</g>
		<g>
			<defs>
				<rect id="SVGID_33_" x="-7.4" y="385.8" width="0.1" height="0.1"/>
			</defs>
			<clipPath id="SVGID_34_">
				<use xlink:href="#SVGID_33_"  style="overflow:visible;"/>
			</clipPath>
			<path class="st23" d="M-7.4,385.8C-7.4,385.8-7.4,385.8-7.4,385.8c0,0.1,0.1,0.1,0.1,0.1c0,0,0,0,0,0
				C-7.3,385.8-7.3,385.8-7.4,385.8z"/>
		</g>
		<g>
			<defs>
				<path id="SVGID_35_" d="M-9.5,387.8c0.1,0,0.1,0.1,0.2,0.1v-0.1H-9.5z"/>
			</defs>
			<clipPath id="SVGID_36_">
				<use xlink:href="#SVGID_35_"  style="overflow:visible;"/>
			</clipPath>
			<path class="st24" d="M-9.7,387.8c0,0.1,0,0.1,0.1,0.2c0.1,0.1,0.2,0.1,0.2,0.2c0,0,0.1-0.1,0.1-0.1
				C-9.5,388-9.6,387.9-9.7,387.8z"/>
		</g>
		<g>
			<defs>
				<path id="SVGID_37_" d="M-18.5,383.9v11l0,0c0.2-0.4,0.4-0.8,0.6-1.3c0.2-0.3,0.3-0.7,0.5-1c0.3-1.8,0.3-1.5,0.6-3
					c0.2-0.2,0.4-0.4,0.5-0.6c0.1-0.2,0.1-0.2,0.1-0.1c0.1-0.1,0.1-0.1,0.2-0.2c-0.1-0.5-0.1-1.1-0.1-1.3c0.2-0.7,0.8-1.9,1.3-1.9
					c0-0.9,0.1-1.5,0.6-1c0,0,0-0.1,0-0.1c0-0.2,0-0.3,0-0.5L-18.5,383.9z M-14,384c0,0,0,0.1,0,0.1c0,0,0,0,0,0
					C-14,384.1-14,384.1-14,384C-14,384-14,384-14,384L-14,384z M-6.9,390.2c-0.3,0.2-0.6,0.3-0.9,0.4c-0.3,0.1-0.5,0.2-0.8,0.2
					c-0.2,0-0.4-0.1-0.6-0.1c0,0.1-0.1,0.1-0.1,0.2c-0.3,0.3-0.6,0.5-0.8,0.7c0,0,0,0,0,0c0,0,0,0,0,0c-0.2,0.1-0.3,0.2-0.5,0.3
					c-0.1,0.1-0.3,0.2-0.4,0.3c-0.2,0.6-0.3,1.1-0.5,1.6c0,0.1-0.1,0.2-0.1,0.4c-0.2,0.5-0.3,1-0.5,1.5c0,0.1-0.1,0.1-0.1,0.2
					c-0.1,0.4-0.1,0.4-0.3,0.9c0,0.1-0.1,0.3-0.2,0.4c0,0,0,0,0,0c-0.1,0.2-0.1,0.3-0.2,0.5c-0.1,0.2-0.1,0.4-0.3,0.8
					c-0.2,0.5-0.3,0.9-0.5,1.4c-0.3,1-0.7,1.9-1.1,2.9c0.1,0.6,0.1,1.6,0.2,2.5c0.1,0.3,0.2,0.7,0.2,1c0.1,0.5,0.1,1,0.1,1.5
					c0,0.6,0,1.4-0.1,2c0,0.2,0,0.5-0.1,0.7c0,0.5,0,1.5,0,2c0.6,0.6,0.6,0.6,0.6,1.5c0,0.2,0,0.2,0,0.2c0-0.1,0-0.2-0.1-0.3
					c-0.2-0.1-0.3-0.2-0.5-0.3c0,0.1,0,0.2,0,0.3c0.1,0.2,0.2,0.3,0.4,0.5c0-0.1,0-0.2,0-0.3c0-0.1,0,0.2,0,0.3c0,0,0,0.1,0,0.1
					c0,0,0.1,0.1,0.1,0.1c0-0.1,0-0.2,0-0.4c0,0,0,0.1,0,0.2c0,0,0,0.1,0,0.1c0,0,0.1,0.1,0.1,0.1c0.1,0.1-0.1,0.4-0.1,0.5
					c-0.1,0.4-0.1,0.5-0.1,0.6c-0.2,1.4-0.2,1.3-0.4,2.6c0,0.1,0,0.2,0,0.3c0,0.2,0,0.4,0,0.6c0.7,1.5,0.8,1.8,1.5,3.6
					c0.1,0.1,0,0.1,0.6,1c0.3,0.5,0.6,1,0.9,1.5c0,0,0.1,0.1,0,0.1c0,0,0,0,0,0c0.1,0.1,0.2,0.1,0.3,0.2c0.1,0.1,0.3,0.5,0.5,0.8
					c0,0,0,0,0,0c0.6-0.2,1.1-0.5,1.7-0.4l0,0c0.9,0.1,1.4,0.7,1.6,1.4c0.2-0.5,0.3-0.6,0.1,0.1c0,0,0.1,0,0.1,0.1
					c0.2,0.1,0.4,0.2,0.6,0.3c0,0,0,0,0,0c0.1-0.3,0.1-0.5,0.2-0.8c0-0.2,0.2-0.2,0.4-0.1c0-0.3,0.3-1,0.6-1.1v-35.7
					C-5.7,390.6-6.3,390.6-6.9,390.2L-6.9,390.2z M-6,427.1c0,0.1,0.1,0.1,0.1,0.2c0,0,0,0,0-0.1C-5.9,427.1-5.9,427.1-6,427.1
					L-6,427.1z M-6.5,428C-6.5,428-6.5,428-6.5,428c0,0,0.1,0.1,0.1,0.1c0.1-0.1,0.2-0.2,0.3-0.3c0-0.1,0.1-0.2,0.1-0.3c0,0,0,0,0,0
					C-6.1,427.6-6.4,427.8-6.5,428L-6.5,428z M-7.3,427.7C-7.3,427.6-7.3,427.6-7.3,427.7C-7.3,427.7-7.3,427.7-7.3,427.7
					C-7.3,427.7-7.3,427.7-7.3,427.7L-7.3,427.7z M-18.5,398.3v0.1c0,0,0,0,0,0.1c0,0,0,0.1,0,0C-18.5,398.4-18.5,398.3-18.5,398.3z
					 M-18.5,420v16.3h9.7c-0.4-0.1-0.7-0.3-1.1-0.4c-0.1,0-0.1,0-0.2,0.1c-0.1,0-0.2,0.1-0.3,0.1c0,0-0.1,0.2-0.1,0.1
					c0-0.2,0-0.4,0-0.6c-0.1,0-0.1-0.1-0.2-0.1c0,0.2-0.1,0.5-0.1,0.7c0-0.3,0-0.5-0.1-0.8c-0.1,0-0.2-0.1-0.3-0.1c0,0-0.1,0-0.1,0
					c0,0.1,0,0.2-0.1,0.4c0,0.1,0,0.3,0,0.4c0,0,0,0-0.1-0.1c0-0.1,0-0.2,0.1-0.3c0-0.1,0-0.3,0-0.4c-0.4-0.2-0.9-0.5-1.2-0.8
					c-0.3-0.2-0.5-0.3-0.6-0.4c-0.3,0-0.5,0-0.8,0c-0.5-0.1-1.3-0.4-1.7-1.1c-0.1-0.3-0.2-0.7-0.3-1c1,1.8,0.5,1.6,1.7,1.3
					c0.1,0,0.1,0,0.2-0.1c0,0-0.1-0.1-0.1-0.1c-0.1-0.2-0.3-0.3-0.4-0.6c-0.1-0.2-0.1-0.5-0.1-0.8c-0.1-0.1-0.1-0.1-0.2-0.2
					c0,0,0,0.1,0,0.1c0,0,0.1,0.1,0,0c0,0,0,0,0,0.1c0,0.1-0.1-0.1-0.1-0.2c0,0,0,0,0.1,0c0-0.1-0.1-0.2-0.1-0.2
					c-0.8-0.7-1.5-1.3-0.6-1.6c0,0,0-0.1,0-0.2c0,0,0,0,0,0c0,0.1,0-0.2-0.1-0.2c0-0.2-0.1-0.3-0.1-0.5c0,0,0-0.1,0-0.2
					c0,0,0,0,0-0.1c-0.3,0.2-0.8,0.3-1.5,0.3c-0.1,0-0.2-0.2-0.2-0.5c-0.2,0.1-0.1,0-0.1-0.5c0,0,0-0.1,0-0.1
					c-0.1-0.2-0.1-0.5,0-0.5c0,0,0,0,0,0c0,0,0,0,0,0c0-1.7,0-3.3,0-5c0-0.1,0-0.2,0-0.3c-0.2-0.5-0.4-1-0.6-1.5
					C-18.3,420.3-18.4,420.1-18.5,420L-18.5,420z M-14.9,431.5C-14.9,431.5-14.9,431.5-14.9,431.5
					C-14.9,431.5-14.9,431.5-14.9,431.5C-14.9,431.5-14.9,431.5-14.9,431.5L-14.9,431.5z M-15.1,421.7
					C-15.1,421.7-15.1,421.8-15.1,421.7C-15.1,421.8-15.1,421.8-15.1,421.7C-15.1,421.8-15.1,421.8-15.1,421.7z M-15.1,428.4
					C-15.1,428.4-15.1,428.4-15.1,428.4C-15.1,428.4-15.1,428.4-15.1,428.4C-15.1,428.4-15.1,428.4-15.1,428.4L-15.1,428.4z
					 M-15.5,429.1c0,0,0,0.1,0,0.2C-15.5,429.2-15.5,429.1-15.5,429.1C-15.5,429.1-15.5,429.1-15.5,429.1L-15.5,429.1z M-15.3,429.3
					C-15.4,429.3-15.4,429.3-15.3,429.3c0,0.1,0.1,0.2,0.1,0.1C-15.3,429.4-15.3,429.3-15.3,429.3L-15.3,429.3z"/>
			</defs>
			<clipPath id="SVGID_38_">
				<use xlink:href="#SVGID_37_"  style="overflow:visible;"/>
			</clipPath>
			<path class="st25" d="M-9.3,383.9c-3.1,2-5.7,5.6-7.3,11.1c-4.7,16.8-0.5,36.3,8.7,40.7c0.6,0.3,1.2,0.5,1.8,0.6
				c0,0-0.1,0-0.1-0.1c0,0,0,0,0,0c0.1,0,0.2-0.1,0.3-0.1c0.3-0.1,0.5-0.3,0.5-0.4c-0.1-0.2-0.2-0.3-0.4-0.5c0-0.1,0-0.2,0-0.4
				c-0.4-0.4-0.9-0.8-1.3-1.2c-0.1-0.1-0.3-0.2-0.4-0.2c-0.1-0.1-1.1-0.7-1.5-1.3c0,0,0,0,0,0c-0.1,0-0.2-0.1-0.3-0.1c0,0,0,0,0,0
				c-0.1,0-0.4,0.1-0.6,0.1c-0.1,0-0.2,0-0.3,0c-0.1,0-0.1,0-0.2,0c-2.2,0-2.3-3.4-0.5-3.9c-0.3-0.4-0.6-0.8-0.9-1.3
				c-6.2-10.4-4.5-32.2,2.2-38.6c0-0.1-0.1-0.2-0.1-0.3c-1-0.9-0.7-0.6-0.1-0.2c-0.1-0.4-0.3-0.8-0.4-1.1c-0.1,0.2-0.2,0.4-0.3,0.6
				c0,0,0,0,0,0l0,0c-0.3,0.6-0.3,0.8-0.1-0.5c0-0.1,0.1-0.2,0.1-0.4c0,0,0-0.1,0-0.1c0.2-0.7,0.3-0.9,0.5-1.1
				c0.1-0.4,0.2-0.4,0.3-0.8C-9.5,384.3-9.4,384.1-9.3,383.9L-9.3,383.9z"/>
		</g>
		<g>
			<defs>
				<rect id="SVGID_39_" x="-5.7" y="382.5" width="0" height="0"/>
			</defs>
			<clipPath id="SVGID_40_">
				<use xlink:href="#SVGID_39_"  style="overflow:visible;"/>
			</clipPath>
			<path class="st26" d="M-5.7,382.5L-5.7,382.5L-5.7,382.5C-5.7,382.5-5.7,382.5-5.7,382.5C-5.7,382.5-5.7,382.5-5.7,382.5
				C-5.7,382.5-5.7,382.5-5.7,382.5C-5.7,382.5-5.7,382.5-5.7,382.5L-5.7,382.5L-5.7,382.5z"/>
		</g>
		<g>
			<defs>
				<path id="SVGID_41_" d="M247.7,329.3C247.7,329.3,247.7,329.3,247.7,329.3C247.7,329.3,247.7,329.3,247.7,329.3L247.7,329.3z
					 M247.9,329.3C247.9,329.3,247.9,329.4,247.9,329.3L247.9,329.3L247.9,329.3z M246.9,329.5L246.9,329.5L246.9,329.5
					C246.9,329.6,246.9,329.6,246.9,329.5C246.9,329.5,246.9,329.5,246.9,329.5L246.9,329.5z"/>
			</defs>
			<clipPath id="SVGID_42_">
				<use xlink:href="#SVGID_41_"  style="overflow:visible;"/>
			</clipPath>
			<path class="st27" d="M246.7,329.3c0.1,0.1,0.2,0.1,0.3,0.2c0.1,0.1,0.2,0.1,0.3,0.2c0.2,0,0.4-0.1,0.5-0.3c0,0-0.1,0-0.1,0
				C247.4,329.3,247.1,329.3,246.7,329.3L246.7,329.3z"/>
		</g>
		<g>
			<defs>
				<path id="SVGID_43_" d="M248.4,329.4C248.4,329.4,248.4,329.4,248.4,329.4L248.4,329.4C248.5,329.4,248.5,329.4,248.4,329.4
					C248.5,329.4,248.5,329.4,248.4,329.4C248.5,329.4,248.5,329.4,248.4,329.4C248.5,329.4,248.5,329.4,248.4,329.4L248.4,329.4
					L248.4,329.4z M248.3,329.4L248.3,329.4C248.3,329.5,248.3,329.5,248.3,329.4C248.3,329.4,248.3,329.4,248.3,329.4z"/>
			</defs>
			<clipPath id="SVGID_44_">
				<use xlink:href="#SVGID_43_"  style="overflow:visible;"/>
			</clipPath>
			<path class="st28" d="M248.3,329.4c0.1,0.2,0.1,0.3,0.2,0.5c0,0,0,0,0-0.1C248.5,329.7,248.4,329.5,248.3,329.4
				C248.3,329.4,248.3,329.4,248.3,329.4L248.3,329.4z"/>
		</g>
		<path class="st17" d="M246.9,308.9C246.9,308.9,246.9,308.9,246.9,308.9c0.1,0.1,0.2,0.3,0.4,0.3
			C247.5,309.4,247.2,309.2,246.9,308.9L246.9,308.9z"/>
		<path class="st17" d="M192.3,345.4c0,0.1,0.6,0.4,0.8,0.5c0.2,0,0.3,0,0.4,0C193.1,345.8,192.7,345.6,192.3,345.4L192.3,345.4z"/>
		<path class="st17" d="M199.2,344.5c-0.2,0.1-0.3,0.1-0.4,0.2c0,0,0,0.1,0,0.1c0.1,0,0.2-0.1,0.2-0.2
			C199.1,344.5,199.2,344.5,199.2,344.5L199.2,344.5z"/>
		<path class="st17" d="M202.8,343.3C202.7,343.3,202.7,343.3,202.8,343.3c-0.1,0.1-0.1,0.1-0.1,0.2
			C202.7,343.4,202.7,343.4,202.8,343.3L202.8,343.3z"/>
		<path class="st17" d="M52.4,342.2c-0.1,0-0.1,0-0.2,0c0.1,0.1,0.1,0.3,0.2,0.4C52.4,342.5,52.4,342.4,52.4,342.2L52.4,342.2z"/>
		<path class="st17" d="M121.7,319.6C121.2,319.9,121.1,320,121.7,319.6C121.7,319.6,121.7,319.6,121.7,319.6z"/>
		<path class="st17" d="M122.2,319.3C122.1,319.3,122.1,319.3,122.2,319.3C122.1,319.3,122.1,319.3,122.2,319.3
			C122.1,319.3,122.2,319.3,122.2,319.3C122.2,319.3,122.2,319.3,122.2,319.3L122.2,319.3z"/>
		<path class="st17" d="M121.7,319.6C121.2,319.9,121.1,320,121.7,319.6C121.7,319.6,121.7,319.6,121.7,319.6z"/>
		<path class="st17" d="M122.2,319.3C122.1,319.3,122.1,319.3,122.2,319.3C122.1,319.3,122.1,319.3,122.2,319.3
			C122.1,319.3,122.2,319.3,122.2,319.3C122.2,319.3,122.2,319.3,122.2,319.3L122.2,319.3z"/>
		<path class="st17" d="M-15.1,211C-15.1,211-15.1,211-15.1,211C-15.1,211-15.1,211-15.1,211z"/>
		<path class="st17" d="M-16.1,210.6C-16.1,210.6-16.1,210.6-16.1,210.6C-16.1,210.6-16.1,210.6-16.1,210.6z"/>
		<path class="st17" d="M159.1,196.6c-11.1-0.4-22.4,7.3-36,24.8c-14.6,18.7-24.9,24.4-44,24.5c-5.3,0-9.4,0.3-9.1,0.5
			c2.2,2.1,11.3,5.9,16.6,7.5c2.7,0.8,8.7,2.5,17.8-1.6c9.6-4.3,16.1-9,25.9-22c16.4-21.7,28.3-30.1,44.2-24
			c13.7,5.3,11.3,4.1,5.2-0.7C172.4,199.9,165.8,196.8,159.1,196.6z"/>
		<path class="st17" d="M10.4,189.7c-11.7,0.4-22.3,7.5-33.1,21.2c0,0,0,0.1-0.1,0.1c-1.1,1.4-2.2,2.7-3.3,4.3
			c-1.7,2.3-1.7,2.3,4.7-1.7c1.9-1.2,3.5-2,5.2-3l0,0c0,0,0-0.1,0-0.1c0,0,0.1,0,0.1,0c0,0,0.1,0,0.1,0c0,0,0,0,0,0
			c21.1-11.6,33.5-8.4,60,13.8C55.8,234,62,237.5,71.8,240c13.1,3.3,32-3.9,45.8-17.6c4.8-4.8,4.8-5,0.1-3.1
			C91,230,75.4,228,52.9,210.6c0,0,0,0,0,0c-1.5-1.1-2.9-2.1-4.4-3.4C34,195.2,21.7,189.4,10.4,189.7L10.4,189.7z"/>
	</g>
	<path class="st15" d="M124.2,95.4h22.2v0L124.2,95.4L124.2,95.4z"/>
	<path class="st29" d="M135.5,95.4h10.9v4.4h-10.9V95.4z"/>
	<g class="st30">
		<defs>
			<path id="SVGID_45_" d="M257.9,295.4l-320.7,0V436h21.2c-0.4-0.2-0.9-0.3-1.3-0.5c-0.1,0-0.1,0-0.2,0.1c-0.1,0-0.2,0.1-0.3,0.1
				c0,0-0.1,0.2-0.1,0.1c0-0.2,0-0.4,0-0.6c-0.1,0-0.1-0.1-0.2-0.1c0,0.2-0.1,0.5-0.1,0.7c0-0.3,0-0.5-0.1-0.8
				c-0.1,0-0.2-0.1-0.3-0.1c0,0-0.1,0-0.1,0c0,0.1,0,0.2-0.1,0.4c0-0.1,0-0.3,0-0.4c-0.4-0.2-0.9-0.5-1.2-0.8
				c-0.3-0.2-0.5-0.3-0.6-0.4c-0.3,0-0.5,0-0.8,0c-0.5-0.1-1.3-0.4-1.7-1.1c-0.1-0.3-0.2-0.7-0.3-1c1,1.8,0.5,1.6,1.7,1.3
				c0.1,0,0.1,0,0.2-0.1c0,0-0.1-0.1-0.1-0.1c-0.1-0.2-0.3-0.3-0.4-0.6c-0.1-0.2-0.1-0.5-0.1-0.8c-0.1-0.1-0.1-0.1-0.2-0.2
				c0,0,0,0.1,0,0.1c0,0,0.1,0.1,0,0c0,0,0,0,0,0.1c0,0.1-0.1-0.1-0.1-0.2c0,0,0,0,0.1,0c0-0.1-0.1-0.2-0.1-0.2
				c-0.8-0.7-1.5-1.3-0.6-1.6c0-0.1,0-0.1,0-0.2c0,0,0,0,0,0c0,0.1,0-0.2-0.1-0.2c0-0.2-0.1-0.3-0.1-0.5c0,0,0-0.1,0-0.2
				c0,0,0,0,0-0.1c-0.3,0.2-0.8,0.3-1.5,0.3c-0.1,0-0.2-0.2-0.2-0.5c-0.2,0.1-0.1,0-0.1-0.5c0,0,0-0.1,0-0.1c-0.1-0.2-0.1-0.5,0-0.5
				c0,0,0,0,0,0c0,0,0,0,0,0c0-1.7,0-3.3,0-5c0-0.1,0-0.2,0-0.3c-0.2-0.5-0.4-1-0.6-1.5c-0.4-0.8-0.8-1.4-1.1-2.3
				c-0.3-0.8-0.3-1.8-0.4-2.7c-0.2-0.6-0.4-1.3-0.5-2c0-0.3,0-0.7,0-1c0-0.2,0-0.4,0.1-0.6c0-0.4,0-0.8,0.1-1.2
				c0-0.2,0.1-0.3,0.1-0.5c0-0.1,0,0.2-0.1,0.3c0.1-0.7,0.1-1.3,0.2-2c0.1-0.5,0.2-0.9,0.2-1.4c0.1-1.4,0.2-2.7,0.3-4
				c-0.2-0.3-0.4-0.5-0.5-0.8c0,0,0,0,0,0c-0.1,0.2-0.1,0.1-0.1-0.2c-0.1-0.1,0-0.3,0-0.5c0-0.1,0-0.2,0.1-0.3
				c0-0.5,0.1-0.9,0.2-0.9c0.2-0.7,0.2-0.7,0.6-1.4c0.1-0.1,0.2-0.2,0.2-0.4c0.1-0.2,0.2-0.4,0.4-0.6c0,0.1,0,0.2,0.1,0.4
				c0,0,0,0.1,0,0c0-0.1-0.1-0.3-0.1-0.4c0,0,0,0,0,0c0-0.1,0-0.2-0.1-0.3c-0.1-0.4-0.2-0.9-0.3-1.3c0-0.1,0-0.2,0-0.2
				c0.1,0.5,0.2,1,0.3,1.5c0,0.1,0,0.2,0.1,0.2c-0.1-0.7-0.3-1.3-0.4-1.9c0.1-0.3,0.2-0.6,0.3-0.9c0-0.1,0.1-0.1,0.1-0.2
				c0.2-0.4,0.4-0.8,0.6-1.3c0.7-1.5,1.3-3.1,2-4.7c-0.1-0.6-0.2-1.3-0.1-1.6c0.2-0.7,0.8-1.9,1.3-1.9c0-0.9,0.1-1.5,0.6-1
				c0,0,0-0.1,0-0.1c0-0.2,0-0.4,0.1-0.6c0.6-0.4,1.2-1.1,1.8-1.2c0.1,0,0.2,0.2,0.3,0.4c0.4-0.2,0.7-0.5,1.1-0.6
				c0.2-0.1,0.6,0,0.8-0.1c0.2,0,0.4,0,0.6,0.1c0.1,0,0.2,0.1,0.3,0.1c0.4,0.2,0.7,0.3,1,0.8c-0.2-0.2-0.1-0.1,0,0.1
				c0.2,0,0.5-0.1,0.7-0.2c0.1-0.1,0.1-0.1,0.2-0.1c0,0,0.1,0,0.1,0.1c0.1,0,0.1,0,0.2,0c0,0,0.1,0,0.1,0c0.1,0,0.2-0.1,0.2-0.1
				c0.1,0-0.1,0-0.2,0.1c0.2,0,0.5-0.1,0.7-0.1c0,0,0.1,0,0.1,0v0c0.1,0,0.2,0,0.2,0c0.3,0,0.6,0,0.9,0c0.5,0,0.6,0,0.7,0.4
				c0.1,0.1,0.2,0.2,0.4,0.4c0.1,0.1,0.2,0.2,0.2,0.3c0,0.2,0,0.4,0,0.5c0.1,0.2,0.2,0.4,0.3,0.6c-0.1,0.8-0.1,0.7-0.5,1.4
				c0,0.2,0,0.3,0,0.5c-0.1,0.2-0.2,0.4-0.3,0.6c-0.1,0.2-0.5,0.5-0.7,0.7c0.2,1.4-0.7,2.6-2.1,1.7c-0.3,0.2-0.6,0.3-0.9,0.5
				c-0.3,0.1-0.5,0.2-0.8,0.2c-0.2,0-0.4-0.1-0.6-0.1c0,0.1-0.1,0.1-0.1,0.2c-0.3,0.3-0.6,0.5-0.8,0.7c0,0,0,0,0,0c0,0,0,0,0,0
				c-0.2,0.1-0.3,0.2-0.5,0.3c-0.2,0.1-0.3,0.2-0.5,0.3c-0.1,0.1-0.2,0.1-0.3,0.2c-0.2,0.1-0.4,0.1-0.6,0.1
				c-0.1-0.2-0.3-0.4-0.4-0.6c0,0,0,0-0.1,0.1c-0.1,0.1-0.2,0.3-0.3,0.4c-0.6,0.6-1.3,1.2-1.9,1.7c0,0-0.1,0-0.1,0
				c-0.2,0.8-0.4,1.6-0.6,2.3c-0.2,0.7-0.4,1.3-0.7,1.9c-0.1,0.4-0.3,0.8-0.4,1.1c0.1,0.2,0.1,0.4,0.1,0.7c0.4,0.3,0.8,0.6,1.1,1.1
				c0.2,0.2,0.1,0.6,0.1,1c0,0.5,0.2,1.9,0.2,3c0.1,0.3,0.2,0.7,0.2,1c0.1,0.5,0.1,1,0.1,1.5c0,0.6,0,1.4-0.1,2c0,0.2,0,0.5-0.1,0.7
				c0,0.5,0,1.5,0,2c0.6,0.6,0.6,0.6,0.6,1.5c0,0.2,0,0.2,0,0.2c0-0.1,0-0.2-0.1-0.3c-0.2-0.1-0.3-0.2-0.5-0.3c0,0.1,0,0.2,0,0.3
				c0.1,0.2,0.2,0.3,0.4,0.5c0-0.1,0-0.2,0-0.3c0-0.1,0,0.2,0,0.3c0,0,0,0.1,0,0.1c0,0,0.1,0.1,0.1,0.1c0-0.1,0-0.2,0-0.4
				c0,0,0,0.1,0,0.2c0,0,0,0.1,0,0.1c0,0,0.1,0.1,0.1,0.1c0.1,0.1-0.1,0.4-0.1,0.5c-0.1,0.4-0.1,0.5-0.1,0.6
				c-0.2,1.4-0.2,1.3-0.4,2.6c0,0.1,0,0.2,0,0.3c0,0.2,0,0.4,0,0.6c0.7,1.5,0.8,1.8,1.5,3.6c0.1,0.1,0,0.1,0.6,1
				c0.3,0.5,0.6,1,0.9,1.5c0,0,0.1,0.1,0,0.1c0,0,0,0,0,0c0.1,0.1,0.2,0.1,0.3,0.2c0.1,0.1,0.3,0.5,0.5,0.8c0,0,0,0,0,0
				c0.6-0.2,1.1-0.5,1.7-0.4l0,0c0.9,0.1,1.4,0.7,1.6,1.4c0.2-0.5,0.3-0.6,0.1,0.1c0,0,0.1,0,0.1,0.1c0.2,0.1,0.4,0.2,0.6,0.3
				c0,0,0,0,0,0c0.1-0.3,0.1-0.5,0.2-0.8c0-0.2,0.2-0.2,0.4-0.1c-0.1-0.4,0.6-1.5,0.8-1c0.1-0.1,0.3-0.2,0.4-0.2
				c0.5,0,0.9,0.5,1,1.4c0,0,0,0,0,0c0.2-0.4,0.4-0.8,0.7-1.3c0,0,0-0.1,0-0.1c0,0,0,0,0.1,0h0c0.1-0.2,0.3-0.2,0.4,0
				c0.1,0,0.2,0,0.3,0c1.5,0,3.1,0,4.6,0c0.2,0,0.4,0,0.5,0c0.1,0,0.3,0,0.4,0.1c0,0,0.1,0,0,0c0,0-0.1,0-0.1,0
				c-0.2,0.2-0.9,0.6-0.7,0.6c0.4,0,0.8-0.5,1.2-0.6c0.3,0,1.2,1.1,1.5,1.4c0.2,0.3,0.4,0.6,0.6,1c0.1,0.1,0.1,0.3,0.2,0.5
				c0.1,0.2,0.2,0.3,0.3,0.4c0.4,0.8,0.4,0.6,0.6,1.3c0,0.1,0,0.1,0,0.2c0.2,0.4,0.3,1.1,0.4,1.6c-0.1,0.7-0.2,1.5-0.4,2.2
				c-0.1,0.3-0.3,0.4-0.5,0.6c-0.3,0.2-0.5,0.3-0.8,0.4c-0.2,0.1-0.3,0-0.5,0.1c-0.7,0-0.5,0.1-1,0c-1.7-0.2-3.5-0.3-5.2-0.6
				c0.1,0.3,0.2,0.7,0.3,1.3h291.7L257.9,295.4z M-51.6,397.6C-51.6,397.6-51.6,397.6-51.6,397.6C-51.6,397.6-51.6,397.6-51.6,397.6
				C-51.6,397.6-51.6,397.6-51.6,397.6L-51.6,397.6z M-47.9,431.1L-47.9,431.1C-47.9,431.1-47.9,431.1-47.9,431.1
				C-47.9,431.1-47.9,431.1-47.9,431.1C-47.9,431.1-47.9,431.1-47.9,431.1z M246.8,329.1C246.9,329.1,246.9,329.1,246.8,329.1
				c0,0.1,0,0.1,0,0.2c0,0,0,0,0,0c0,0,0,0,0,0C246.9,329.2,246.9,329.2,246.8,329.1C246.9,329.2,246.9,329.2,246.8,329.1
				C246.9,329.2,246.9,329.2,246.8,329.1C246.9,329.2,246.9,329.2,246.8,329.1L246.8,329.1C246.9,329.2,246.9,329.2,246.8,329.1
				C246.9,329.2,246.9,329.2,246.8,329.1C246.9,329.2,246.9,329.2,246.8,329.1c0.1,0.1,0.1,0.1,0.2,0.1c0,0,0,0,0,0c0,0,0,0,0,0l0,0
				c0,0,0,0,0,0c0,0,0.1,0,0.1,0c0,0,0.1,0,0.1,0c0.1,0,0.1,0,0.1,0.1c0,0,0.1,0,0.1,0c0,0,0,0,0,0c0,0,0,0,0,0c0,0,0,0,0,0
				c0,0,0,0,0,0c0.1,0,0.1,0,0.2,0.1c0-0.5,0.3,0.7,0.3,0.2c0-0.2,0-0.1-0.2-0.3c0,0,0,0,0.1,0c0.1,0,0.1,0,0.1,0.1c0,0,0,0,0,0
				c0,0,0,0,0,0c0,0,0.1,0,0.1,0c0,0,0,0,0.1-0.1c0.1,0.1,0.1,0,0.1,0.1c0,0,0,0,0,0v0c0,0,0,0,0.1,0c0,0,0,0,0,0c0,0,0,0,0,0
				c0.1,0.1,0.2,0.2,0.2,0.3c0,0.1,0,0.2,0,0.2c0.1,0.3,0,0.3-0.3,0.3c0,0,0,0,0-0.1c0,0-0.1,0-0.1-0.1c0,0,0,0,0-0.1c0,0,0,0,0,0
				c0,0,0,0,0,0c0,0-0.1,0-0.1,0c0,0.5-0.1,0.2-0.1-0.1c0,0.1,0,0.2-0.1,0.3c-0.1,0.3-0.2,0.6-0.1,0.2c0,0,0,0,0,0c0,0,0,0,0,0
				c-0.1,0-0.1,0-0.2,0c0,0,0,0,0-0.1c0,0,0,0,0,0c0,0,0,0,0,0c0,0,0,0,0,0c0,0,0,0-0.1,0c-0.1,0-0.1,0-0.3-0.1c0,0,0-0.1-0.1-0.1
				c-0.1,0-0.1,0,0-0.2v0c0,0,0,0,0,0c0,0,0,0-0.1,0c0,0,0,0,0,0c0,0,0,0,0,0c0,0,0,0-0.1,0C246.6,329.8,246.5,329.3,246.8,329.1
				C246.8,329.1,246.8,329.1,246.8,329.1L246.8,329.1z M246.9,329.2L246.9,329.2C246.9,329.2,246.9,329.2,246.9,329.2
				C246.9,329.2,246.9,329.2,246.9,329.2C246.9,329.2,246.9,329.2,246.9,329.2L246.9,329.2z M248.4,329.3
				C248.3,329.3,248.3,329.3,248.4,329.3C248.3,329.3,248.3,329.3,248.4,329.3C248.3,329.3,248.3,329.3,248.4,329.3
				C248.3,329.3,248.3,329.3,248.4,329.3C248.3,329.3,248.3,329.3,248.4,329.3C248.3,329.3,248.4,329.4,248.4,329.3
				C248.4,329.4,248.4,329.4,248.4,329.3C248.4,329.3,248.4,329.3,248.4,329.3L248.4,329.3z M248.3,329.4L248.3,329.4
				c0,0-0.1,0.1-0.1,0.1c0,0,0.1,0,0.1,0C248.3,329.4,248.3,329.4,248.3,329.4C248.3,329.4,248.3,329.4,248.3,329.4L248.3,329.4z
				 M248.1,329.4C248.1,329.4,248.1,329.4,248.1,329.4C248.1,329.4,248.1,329.4,248.1,329.4C248.1,329.4,248.1,329.4,248.1,329.4z
				 M248.2,329.4C248.2,329.4,248.2,329.4,248.2,329.4L248.2,329.4C248.2,329.4,248.2,329.4,248.2,329.4L248.2,329.4z M248.2,329.5
				C248.2,329.5,248.2,329.5,248.2,329.5C248.2,329.5,248.2,329.5,248.2,329.5C248.2,329.5,248.2,329.5,248.2,329.5L248.2,329.5z
				 M246.9,329.5L246.9,329.5C246.9,329.5,246.9,329.5,246.9,329.5L246.9,329.5z M246.9,329.5c0,0,0,0.1,0,0.1c0,0,0,0,0,0
				C246.9,329.6,246.9,329.6,246.9,329.5C246.9,329.6,246.9,329.6,246.9,329.5L246.9,329.5z M247.9,329.7L247.9,329.7L247.9,329.7
				C247.9,329.7,247.9,329.7,247.9,329.7L247.9,329.7z M247.9,329.7L247.9,329.7C247.9,329.7,247.9,329.7,247.9,329.7L247.9,329.7
				C247.9,329.7,247.9,329.7,247.9,329.7C247.9,329.8,248,329.8,247.9,329.7c0.1,0.1,0.1,0.2,0.1,0.1
				C248,329.7,247.9,329.7,247.9,329.7L247.9,329.7z M248.3,329.9C248.3,329.9,248.3,329.9,248.3,329.9
				C248.3,329.9,248.3,329.9,248.3,329.9C248.3,329.9,248.3,329.9,248.3,329.9L248.3,329.9z M248.3,330
				C248.3,330,248.3,330,248.3,330C248.3,330,248.3,330,248.3,330z M-33.2,382.8L-33.2,382.8L-33.2,382.8c0.2,0,0.3,0,0.5,0.1
				c0.4,0.1,0.8,0.2,1.2,0.3c1.2,0.4,0.8,0.2,1.9,0.7c0.6,0.3,1.2,0.5,1.7,1c0.1,0.1,0.1,0.1,0.2,0.2c0.2,0,0.4,0.1,0.7,0.3
				c0.1,0.1,0.3,0.5,0.5,0.9c0,0,0.1,0,0.1,0c0,0,0,0.1,0,0.1c0,0.2,0.1,0.3,0.1,0.5c0.2,0,0.5,0,0.7,0c0,0,0,0.1,0.1,0.1
				c0,0,0,0,0,0.1c0,0.7,0,1.4-0.1,2.2c0-0.1,0-0.1,0,0c0,0,0,0,0,0c0,0.1,0,0.2,0,0.4c0,0.1-0.1,0.1-0.1,0.2c0,0.1,0,0.2-0.1,0.2
				c0.1,0.8,0.2,1.7,0.3,2.6c0,0.1,0,0.3,0,0.4c0.3,0.2,0.5,0.5,0.7,0.7c-0.3-0.2-0.5-0.3-0.7-0.5c0,0.1,0,0.3,0,0.4
				c0.6,0.3,1,0.5,1.2,0.5c-0.2-0.2-0.3-0.3-0.5-0.5c0.5,0.3,0.9,0.7,0.5,0.5c0.1,0.1,0.1,0.1,0.2,0.2c0,0.5,0,0.9,0,1.4
				c1,0.2,1.4,2.2,0.1,4c-0.3,0.4-0.2,0.3-0.4,0.7l0,0c0,0,0,0,0,0c-0.1,1.1-0.4,1.8-0.7,2.2c0.2,0.4,0.2,0.7-0.4,0.8
				c-0.2,0-0.5,0.4-0.7,0.1c-0.2-0.2-0.3-0.4-0.4-0.6c-0.7,0.1-1.4-1.1-1.4-2.2c0-0.6,0-1.2,0-1.8c0-0.1,0-0.2,0-0.3
				c0-0.3,0-0.5,0-0.8c-0.2-0.5-0.4-1.2-0.5-2.2c0-0.8-0.1-1.1-0.1-1.4c-0.1-0.2-0.2-0.3-0.3-0.4c0-1.1,0-1.5,0.3-1.8
				c0-0.9,0.1-1.6,0.5-2.4c0,0,0,0,0,0c0-0.2-0.1-0.4-0.1-0.6c-0.1-0.1-0.3-0.3-0.5-0.4c-0.1-0.1-0.1-0.3-0.2-0.4
				c-0.1,0,0.1,0.2,0.1,0.3c-0.4-0.3-0.9-0.5-1.3-0.7c-1.2-0.5-0.6-0.3-1.7-0.6c-0.4,0-0.8-0.1-1.2-0.3
				C-35.2,386.1-35,382.7-33.2,382.8L-33.2,382.8z M-47.1,383.6c0,0,0,0.1,0,0.1c0,0,0,0,0,0C-47.1,383.7-47.1,383.7-47.1,383.6
				C-47.1,383.6-47.1,383.6-47.1,383.6L-47.1,383.6z M-27.4,385.3c0.1,0.1,0.2,0.2,0.3,0.3c0,0-0.1-0.1-0.1-0.2
				C-27.3,385.4-27.3,385.4-27.4,385.3L-27.4,385.3z M-28.5,386.9c-0.1,0-0.1,0-0.2,0.1c-0.2,0.1,0,1,0.3,1.5c0-0.2-0.1-0.3-0.1-0.5
				c0-0.2-0.1-0.3-0.1-0.5c0,0,0-0.1,0-0.1c0.3,0,0.6-0.1,0.9-0.1C-28,387.1-28.3,387-28.5,386.9L-28.5,386.9z M-25.5,389.1
				C-25.5,389.1-25.5,389.1-25.5,389.1C-25.5,389.1-25.5,389.1-25.5,389.1C-25.5,389.1-25.5,389.1-25.5,389.1z M-43.9,391
				C-43.9,391-43.9,391-43.9,391C-43.9,391-43.9,391-43.9,391C-43.9,391-43.9,391-43.9,391z M74.4,397c0.1,0,0.1,0.1,0.1,0.2
				c0,0,0.1,0,0.1,0l0,0c0,0,0,0,0.1,0c0.2,0,0.2,0.3,0,0.4c0,0,0,0-0.1,0v0c0,0,0,0,0,0c0,0-0.1,0-0.1,0c0,0,0,0,0,0.1
				c0,0,0,0-0.1,0c0,0,0,0-0.1,0c0,0,0,0,0,0c0,0-0.1,0-0.1,0c-0.1,0,0,0-0.2,0c-0.1,0-0.1,0-0.1,0c0,0,0,0,0,0h-0.1h-0.1h-0.1h0
				c-0.2,0-0.2-0.4,0-0.4h0h0.1h0c0,0,0,0,0,0c0,0,0,0,0,0h0c0,0,0,0,0,0c0,0,0,0,0,0h0c0,0,0,0,0,0c0,0,0,0,0,0c0,0,0,0,0.1,0
				c0-0.1,0-0.1,0.1-0.1c0,0,0,0,0,0c0,0,0,0,0,0l0,0c0,0,0,0,0,0c0,0,0,0.1,0,0h0c0,0,0,0,0,0c0,0,0,0,0,0c0,0,0,0,0,0
				c0.1,0,0.1-0.1,0.2,0c0,0,0,0,0,0c0,0,0,0,0,0C74.2,397.1,74.3,397.1,74.4,397L74.4,397C74.3,397.1,74.3,397,74.4,397L74.4,397z
				 M74.6,397.4C74.6,397.4,74.6,397.4,74.6,397.4c0,0.1,0,0.1,0,0.2c0,0,0,0,0-0.1C74.6,397.5,74.6,397.4,74.6,397.4z M-24.4,399.2
				C-24.4,399.1-24.4,399.2-24.4,399.2c0,0.1,0,0.1,0,0.1C-24.4,399.2-24.4,399.2-24.4,399.2L-24.4,399.2z M-48.1,421.3
				C-48.1,421.3-48.1,421.3-48.1,421.3C-48.1,421.4-48.1,421.4-48.1,421.3C-48.1,421.4-48.1,421.4-48.1,421.3L-48.1,421.3z
				 M-39,426.7L-39,426.7c0,0.1,0.1,0.1,0.1,0.2c0,0,0,0,0,0C-38.9,426.7-39,426.7-39,426.7L-39,426.7z M-39,427.1
				C-39,427.1-39,427.1-39,427.1c-0.2,0.1-0.4,0.4-0.6,0.5c0,0,0,0,0,0c0.1,0,0.1,0.1,0.2,0.1c0.1-0.1,0.2-0.2,0.3-0.3
				C-39,427.3-39,427.2-39,427.1L-39,427.1z M-40.4,427.2c0,0,0,0.1,0,0.1C-40.3,427.3-40.3,427.3-40.4,427.2
				C-40.3,427.2-40.3,427.2-40.4,427.2L-40.4,427.2z M-48.2,428C-48.2,428-48.2,428-48.2,428C-48.2,428-48.2,428-48.2,428
				C-48.2,428-48.2,428-48.2,428L-48.2,428z M-48.6,428.7L-48.6,428.7c0,0,0,0.1,0,0.2C-48.6,428.8-48.6,428.7-48.6,428.7
				C-48.6,428.7-48.6,428.7-48.6,428.7L-48.6,428.7z M-48.4,428.9L-48.4,428.9C-48.4,428.9-48.4,428.9-48.4,428.9
				c0,0.1,0.1,0.2,0.1,0.1C-48.3,429-48.4,428.9-48.4,428.9L-48.4,428.9z M-30.2,429.4L-30.2,429.4L-30.2,429.4
				C-30.2,429.4-30.2,429.5-30.2,429.4C-30.2,429.5-30.1,429.5-30.2,429.4C-30.1,429.5-30.2,429.4-30.2,429.4L-30.2,429.4z
				 M-30.1,429.5L-30.1,429.5C-30.1,429.5-30.1,429.5-30.1,429.5C-30.1,429.6-30.2,429.5-30.1,429.5c-0.2,0-0.4,0-0.5,0
				c-0.2,0-0.3,0-0.5,0c0.3,0.4,0.5,0.9,0.4,1.5c0.6,0.1,1.3,0.1,1.9,0.2c0.1,0,0.1,0,0.1,0c-0.1-0.2-0.2-0.4-0.3-0.7
				c-0.3-0.6-0.1-0.6-0.3-0.5c-0.2-0.2-0.2-0.2-0.5-0.5C-29.9,429.6-29.9,429.6-30.1,429.5C-30.1,429.5-30.1,429.5-30.1,429.5
				L-30.1,429.5z M-27.5,431C-27.5,431-27.6,431-27.5,431c-0.1,0.1-0.1,0.2-0.2,0.2c0,0,0.1,0,0.1,0
				C-27.5,431.2-27.5,431.1-27.5,431C-27.5,431-27.5,431-27.5,431z M-26.1,431.2c0,0.4,0,0.7,0,1.1c0,0.2,0.2-0.5,0.1-0.7
				C-26,431.4-26,431.3-26.1,431.2z M-28,432.1c0,0,0,0.1,0,0.1c-0.3,0.3,0.7,1.7,0.6,1.2C-27.5,432.9-27.8,432.5-28,432.1z
				 M-44.4,435.1c0,0.1,0,0.3,0,0.4c0,0,0,0-0.1-0.1C-44.5,435.3-44.5,435.2-44.4,435.1L-44.4,435.1z"/>
		</defs>
		<clipPath id="SVGID_46_" class="st31">
			<use xlink:href="#SVGID_45_"  style="overflow:visible;"/>
		</clipPath>
		
			<text transform="matrix(0.6147 0 0 1 -72.115 346.0887)" style="display:inline;fill:#007F82; font-family:'ArialMT'; font-size:71.0507px;">Planning Appeals</text>
		
			<text transform="matrix(0.6147 0 0 1 -23.4758 434.9022)" style="display:inline;fill:#007F82; font-family:'ArialMT'; font-size:71.0507px;">Commission</text>
	</g>
	<g>
		<defs>
			<path id="SVGID_47_" d="M-6,438.1L-6,438.1L-6,438.1C-5.9,438.2-5.9,438.2-6,438.1z"/>
		</defs>
		<clipPath id="SVGID_48_">
			<use xlink:href="#SVGID_47_"  style="overflow:visible;"/>
		</clipPath>
		<path class="st32" d="M-6,437.2c0.2,0,0.4,0,0.4,0c0.1,0,0.1,0.1,0.5,0.2c0.4,0.1,1.3,0.1,1.8,0.2c0.5,0.1,0.6,0.2,0.7,0.3"/>
	</g>
</g>
</svg>
