<svg height="480" viewBox="0 0 640 480" width="640" xmlns="http://www.w3.org/2000/svg" xmlns:xlink="http://www.w3.org/1999/xlink"><clipPath id="a"><path d="m644.91211 529.41211v1.30469h2.68164v-.76172c-.0131.002-.0258.006-.0391.008v.002c-.002.006-.007.0113-.01.0176-.0786.037-.15345.0355-.23047.0312-.0296.0239-.0591.0466-.0898.0684-.0367.0265-.0866.0256-.13086.0332-.0411.008-.0818.0128-.12305.0176-.008.006-.0156.0119-.0234.0176-.0748.0274-.13527.0165-.20508.006-.30047.0299-.0433-.007-.35157.041-.12246.0381-.1332.0174-.15429-.0391-.0117.00001-.0235 0-.0352 0h-.20898-.13477-.15039-.0195c-.53964 0-.53964-.54492 0-.54492h.0195.15039.0859c-.0152-.0154-.0362-.0323-.0664-.0527-.0349-.0228-.0442-.0313-.0547-.0352h-.002c-.0112-.004-.025-.002-.0762-.008.0278.00018.0687.00033.0996.002h.002c.002-.00041.004.0004.006 0 .0128-.002.0259-.005.0332-.006.0554-.004.10758-.004.15625.002.0341-.0485.0569-.0811.0762-.10351zm1.37891 0c-.003.007.00097.008.0137 0zm1.16015 0c.00014.004.00009.008 0 .0117.021-.004.0429-.008.0664-.0117zm-1.63672.11523c-.0103.004-.0201.01-.0312.01 0 0 .002-.002.002-.002.006-.002.0167-.005.0293-.008zm1.7793.31641c-.004.0118-.008.0233-.0117.0352.004-.002.008-.005.0117-.008z" transform="matrix(3.78 0 0 3.78 -538.255 -632.7568)"/></clipPath><clipPath id="b"><path d="m316.89987 829.38979v19.41211c.14297-.26321.28703-.52545.45117-.77539.0771-.11792.21121-.18803.30078-.29688.46768-.56867.92701-1.14564 1.36914-1.73437 1.5662-2.08556 3.07487-4.21877 4.50977-6.39844-.20706-.82203-.44425-1.85982-.30078-2.16406.46904-.9942 1.73868-2.54724 3.05468-2.5918.0313-1.2206.27899-2.07057 1.36329-1.35937.00051-.0361-.002-.0813 0-.11133.0193-.28294.0798-.56293.11914-.84375 1.39464-.54097 2.68958-1.54746 4.18359-1.62305.31437-.0159.53581.23124.71289.54297.8317-.32833 1.66931-.63359 2.55664-.87305.53681-.14513 1.34477-.0174 1.88086-.10547.47573.0287.95395.0345 1.42773.0859.20259.0219.4015.078.59766.13281.96386.26952 1.50291.47783 2.28516 1.10743-.40066-.2651-.30712-.15643-.10547.13281.55989-.0611 1.1246-.17944 1.68359-.23242.17272-.13765.3011-.20198.39063-.19922.0866.003.13797.0647.16015.17578.16617.007.33262.0107.4961.0469.11004-.0139.22061-.0262.33008-.041.183-.0249.36048-.094.54492-.10156.13319-.006-.25904.0635-.38867.0937.5577-.0646 1.11612-.13069 1.67382-.19532.075-.004.14933-.003.22461-.002.16014.003.3216.0206.48242.0352.7451-.0286 1.49311.0282 2.24219.0449 1.1701-.0235 1.30765.0182 1.66602.57617.25712.1366.53525.29944.9082.52539.15307.0929.36681.22357.35547.40234-.0169.2572-.0485.5121-.0801.76758.20098.25892.40781.52493.68164.84571-.22742 1.04644-.18385.95989-1.14453 1.91796-.037.20635-.0787.41226-.11133.61915-.2666.26307-.48635.58465-.79882.79101-.35683.23557-.98782.60759-1.67969 1.00195.34519 1.85962-1.58873 3.50444-4.73633 2.26563-.6901.22832-1.38751.43521-2.0918.61328-.59338.15005-1.20059.28185-1.8125.29687-.42489.0104-.84487-.0688-1.26562-.14062-.0872.0859-.17472.17173-.25977.25977-.616.38813-1.27588.69657-1.94336.99023.0118.008.0179.0158.008.0195-.0113.005-.0236.00096-.0351-.006-.3491.1532-.69923.30705-1.04883.45508-.35357.14956-.70962.29344-1.06641.43555-.19475.0775-.38266.17957-.58789.22265-.42206.0888-.85371.11481-1.28125.17188-.27937-.26813-.5908-.51312-.90234-.75781-.065.0511-.0846.0677-.16016.12695-.20885.1638-.40761.34327-.63476.48047-1.41925.8564-2.90151 1.58425-4.41211 2.25976-.092.0243-.15377.0405-.23438.0625-.41821 1.08016-.83785 2.16022-1.33203 3.20703-.4312.9134-1.00648 1.7512-1.50976 2.62696-.29047.53054-.60468 1.02617-.93555 1.50586.13552.3006.24298.6094.33008.92773.88283.44433 1.77702.87293 2.53125 1.49805.34582.28671.22739.87081.29883 1.31445.10633.66174.36095 2.55573.54296 4.11524.17376.44531.34784.89269.45704 1.35742.15798.67204.25486 1.35941.31836 2.04687.0767.8352-.0741 1.96884-.15235 2.78125-.0416.32421-.1061.64649-.125.97266-.0399.68407-.0273 1.98327-.0195 2.75586 1.30775.80748 1.2768.82696 1.31055 2.01562-.0212.27692-.0276.28219-.0312.33789.02-.15776.0103-.29371-.11719-.34961-.40481-.17759-.78443-.31795-1.14063-.43164.002.11518.006.23053.008.34571.26167.212.55663.44315.88476.6914.008-.15977.005-.32558.0723-.46289.0643-.12741.0217.28248.0293.42383.004.0625.004.0721.008.12109.0632.0475.12751.0957.19336.14454-.007-.14452.0423-.32316.0625-.48047-.004.0481-.005.15105-.0274.29297-.007.0459-.0147.14023-.0215.19726.0874.0647.16378.12444.25586.19141.20054.14593-.12546.47931-.20899.71289-.18489.51697-.26243.70586-.29296.75195-.41582 1.8757-.46785 1.80885-1.01368 3.48438-.008.15227-.015.30472-.0215.45703-.0282.30456-.0566.5719-.084.82422 1.53722 2.08115 1.75973 2.42071 3.44531 4.86132.15072.14208.0834.0836 1.42969 1.3711.72873.69709 1.46 1.39312 2.18359 2.0957.0401.0389.15687.11001.10547.12891-.006.002-.0117.005-.0176.008.20738.0794.41322.15976.61523.25195.16614.0758.78233.71556 1.07813 1.04102.0103-.002.0213-.002.0312-.004 1.29796-.21898 2.58765-.6682 3.92383-.55859l-.002.004c1.99581.16384 3.24164.95566 3.7461 1.88476.50261-.68428.69606-.84728.19336.17969.0798.0241.14961.0468.23632.0723.47945.12498.95209.26535 1.42188.41211.0117-.007.0133-.0104.0254-.0176.11677-.34259.2495-.71132.40234-1.10937.11107-.28927.44422-.29244.8418-.1543-.1301-.6091 1.46984-2.11136 1.92383-1.32031.32894-.15612.66183-.2401.98242-.25391 1.06684-.0459 2.00382.6679 2.28516 1.91993.0312.003.0625.005.0937.008.41366-.50367.95871-1.07096 1.68945-1.72461-.002-.0493-.008-.0998-.008-.14844-.00038-.0472.0953.00004.14258 0 .0106-.00001.0188.00002.0293 0 .28943-.25446.59385-.21204.89258-.002.21744-.00012.42648.00013.6836 0 3.54676.0003 7.09372.0113 10.64062 0 .41393-.004.82871-.0384 1.24219-.0195.3133.0155.62495.048.9375.0742.0399.009.12173.0145.0898.0215-.0911.0189-.18474.008-.27734.0117-.50336.26245-2.07711.80601-1.50977.78711.92625-.0311 1.73122-.7434 2.6543-.82617.74687-.067 2.79512 1.54778 3.46875 1.93359.45445.44425.92879.87016 1.36328 1.33399.17492.18657.20807.47552.37891.66601.19487.21744.44503.38014.64648.5918 1.02803 1.08068.81974.82095 1.37695 1.8164.002.0746-.0007.14983 0 .22461.51371.59733.70434 1.47032.96094 2.14649-.31279.98086-.43523 2.0438-.93945 2.9414-.23033.41012-.73514.60154-1.16211.79883-.59664.27579-1.23519.46374-1.87695.60547-.37724.0835-.77217.0494-1.15821.0644-1.60346.062-1.18851.0658-2.29297.0117-4.00683-.23353-8.02815-.43766-12.03711-.75976.25249.52203.54942 1.26045 1.06641 2.49023.0858.20421-.091.46519-.25391.61524-.005.004-.005.005-.01.01h22.77539v-51.23633c-.10142.0906-.20633.18187-.31836.27149-.65647.5252-.53641.35825-.99219.94922l-.006.006c-.003.017-.006.0337-.01.0508-.001.005-.003.0102-.004.0156-.29744 1.47131-.93301 2.43005-1.66406 2.95703.54218.52647.46467.94257-1.01563 1.10742-.56863.0635-1.2439.53006-1.70507.19141-.34856-.25594-.64204-.48542-.89649-.70117-1.61113.18423-3.20342-1.56532-3.18555-3.07813-.004-.83856-.007-1.67713.008-2.51562.0193-.12495-.012-.29381-.0195-.41211-.0206-.37258-.0273-.7464-.0156-1.11914-.55777-.63159-.97128-1.61103-1.07422-2.94922-.0808-1.05074-.11728-1.44386-.14062-1.91797-.2415-.20964-.48657-.41087-.74219-.58594-.0745-1.49088-.063-1.99663.68555-2.52148.0268-1.20084.21529-2.20528 1.07226-3.33398.004-.005.01-.009.0137-.0137-.0763-.27841-.15297-.55673-.22851-.83398-.3228-.14402-.66328-.34486-1.07617-.58789-.18429-.1084-.21262-.46157-.42579-.48047-.18944-.0157.21455.31385.32227.4707-.9942-.47486-1.98935-.69555-3.06641-.98242-2.72337-.7251-1.30873-.41994-3.92968-.88086-.93313-.0472-1.85528-.20278-2.77344-.36719-4.8822-.87374-4.42958-5.5195-.18555-5.46679.35967.004.74697.042 1.16016.11914.91529.17083 1.83654.29764 2.76562.36719 2.73581.50619 1.82117.27315 4.40625.98828 1.40157.38774 2.68404.70819 3.97657 1.32422.11887.0804.2374.16253.35547.24414.52684.001.9896.14239 1.64453.44726.2579.12006.78746.62951 1.1914 1.17774.0754-.005.15125-.009.22657-.0137.0446-.003.0239.0882.0391.13282.0712.23921.13643.46186.20117.68164.52205-.0189 1.046-.0326 1.56836-.0312.0692.00038.0846.10926.12695.16406.0242.0314.0738.0541.0723.0937-.0376.98296-.0195 1.97532-.13281 2.95117.0507-.13141.0533-.12805.043.043-.0168.00097-.0322.003-.0488.004-.02.16534-.0416.32988-.0703.49414-.11313.10803-.19382.17925-.26172.23633-.0513.10693-.10337.21452-.15429.32226.26582 1.14994.48853 2.30845.625 3.50195.0203.17804.0241.35809.0312.53711.58983.28389 1.14966.63117 1.70312.98828 1.17347.46925 2.10039.898 1.05664.67774.15258.0953.30606.19059.46094.28125.0309.61607.008 1.22842-.0488 1.83789.15126.0155.29751.0391.43555.0762v-19.9082zm63.45898 17.71289c-.35432-.22135-.70505-.45084-1.05664-.67774-.57701-.23068-1.19892-.4647-1.68554-.64062.003.19302.007.38525.0117.57812 1.39922.41059 2.26644.64231 2.73047.74024zm-2.92968-6.75781c.002-.0157.004-.0312.006-.0469-.004.0111-.0125.0338-.0176.0469.004-.00024.008.00023.0117 0zm-31.02149 51.2539c.0248.1159.13297.18582.30274.21485.0124-.0197.0245-.0392.0371-.0586-.11482-.0563-.23133-.11854-.33985-.15625zm-1.24414 1.26367c-.003.008-.005.0154-.008.0234.1156.0362.23054.0739.3457.11133.26691-.10501.52746-.2397.7832-.38672.0741-.1649.15161-.32069.23243-.46875-.0288.005-.0597-.002-.084.0137-.28193.17292-.88282.47841-1.26953.70703zm-1.68359-.46679c-.0427-.0129-.0838-.0245-.12696-.0371.0234.0513.0494.1024.0684.1543.0185-.0379.0406-.0805.0586-.11719zm-15.56055-59.57813c-.0149.0289-.0576.14738-.0566.19727.00021.0116.002.032.002.0449.0215-.0781.0387-.15745.0566-.23633.004-.0161.003-.0152-.002-.006zm45.23047 2.32422c.19996.13595.40053.27009.60547.39844.0899.0563-.13019-.17881-.22657-.22266-.14487-.066-.26756-.12321-.3789-.17578zm-2.58008 2.16602c-.13484.0169-.26815.0405-.40234.0723-.55392.13096.086 1.37212.63476 1.99024-.0672-.22851-.13564-.45708-.20312-.68555-.0695-.23543-.13907-.46961-.20899-.70508-.0113-.0268-.0538-.0796-.0273-.0801.76091-.012 1.43455-.0866 2.02344-.18164-.60646-.14762-1.21552-.31253-1.81641-.41015zm-35.38672 5.58008c-.004.007-.009.0128-.0137.0195-.005.008.0203-.0244.0176-.0195-.001-.00014-.003.00013-.004 0zm-18.2832 7.10351v.041c.17094.5076.32765 1.02002.48242 1.5332.0492.11441.0993.22779.15234.33984-.2072-.6396-.42192-1.27648-.63476-1.91406zm.48242 1.57422c-.17059-.39688-.3247-.80197-.48242-1.20508v2.2793c.21232-.21972.42333-.43818.61133-.66016-.043-.13818-.0871-.27547-.12891-.41406zm.12891.41406c.0524.16844.10423.33665.16015.50391.008.0257.0701.0714.0625.0449-.0619-.19695-.1259-.39342-.18945-.58984-.0113.0134-.0219.0276-.0332.041zm.0332-.041.004-.004c-.004-.008-.008-.0155-.0117-.0234.003.009.005.0186.008.0273zm62.52539 2.05468c-.005.005-.0152.0392-.0254.0723.006.0426.0144.0848.0176.12695.0107-.10839.0182-.21067.008-.19922zm-63.16992 27.07813v24.54492h27.37109c-.46576-.2338-.85861-.47493-1.28515-.7793-.38324-.0807-.76744-.15884-1.15039-.24023-1.38662-.29469-2.89758-.65374-4.38868-1.03711-.12252.0256-.24507.0506-.36718.0762-.24469.051-.48348.12527-.72461.19141-.10734.0295-.30142.20569-.32032.0957-.0411-.25189-.062-.50661-.0937-.75976-.15775-.0431-.30707-.0874-.46289-.13086-.0979.33196-.19523.66413-.29296.99609-.0463-.3757-.10913-.75014-.16602-1.125-.23383-.0665-.47774-.13237-.70508-.19922-.0567-.0167-.12594-.0418-.18555-.0605-.0549.16128-.10922.32295-.16406.48437-.006.17299-.012.34511-.0234.51758-.003.0495-.0827-.0524-.125-.0781.0497-.1464.0987-.29304.14844-.43945.006-.17917-.00023-.35943.002-.53906-.87601-.28946-1.96733-.74447-2.6914-1.03321-.74117-.31178-1.06114-.43803-1.39844-.59765-.61921-.002-1.2384-.009-1.85742-.006-1.16693-.16067-3.05271-.50739-3.85352-1.51172-.32927-.41299-.4962-.93208-.74414-1.39844 2.41369 2.46459 1.04661 2.14144 3.81836 1.79297.18975-.0239.30673-.0576.45117-.0879-.0988-.0629-.19889-.1232-.29296-.19336-.31907-.23781-.74814-.42535-.89063-.79687-.12944-.33751-.16891-.70299-.19531-1.07227-.14214-.0729-.26665-.14156-.41016-.21484.003.0611.0116.14792.0117.19922.0971.0549.17247.10755.0352.0625.0193.0293.0398.0582.0586.0879.0586.0922-.16855-.14171-.24414-.22071-.0186-.0194.0634.0214.14062.0645-.0734-.1081-.15456-.21122-.23242-.31641-1.7922-.92-3.36421-1.82381-1.27539-2.23242-.0227-.0682-.0229-.14549-.0117-.22852-.001.002-.002.004-.004.006-.0824.0894-.10592-.21858-.1543-.33008-.0933-.21475-.18153-.43224-.27148-.64843-.0214-.0547-.0537-.13784-.084-.21485-.0161-.0316-.0287-.065-.043-.0976-.70951.23587-1.77756.35166-3.43359.40625-.30321.01-.44999-.29739-.5625-.64258-.3834.12356-.27609.009-.28711-.65625-.0632-.005-.0264-.11054-.0117-.19336-.13323-.29306-.28805-.66122-.0469-.70899.0161-.003.0327-.005.0488-.008-.00007-.0117.00008-.0236 0-.0351.00065-2.2749.005-4.54936.004-6.82422-.00018-.11779.00008-.23572 0-.35352-.49382-.67839-.94762-1.38307-1.4082-2.08594-.40478-.48959-.8284-.95053-1.23047-1.42773zm9.0039 16.5918c.003.005.006.0105.01.0156 0-.003.00001-.007 0-.01-.003-.002-.006-.004-.01-.006zm-.38867-13.34571c-.002.01-.004.0195-.006.0293-.00033.0123.00039.0248 0 .0371.004-.0236.005-.0454.006-.0664zm-.10156 9.03125c-.003.006-.007.0118-.01.0176.009.0179.0206.0386.0293.0566-.006-.0244-.0135-.0497-.0195-.0742zm-.98633.98243c.004.0445.0117.13314.0137.23046.0104-.0783.014-.15488-.004-.22461-.003-.002-.007-.004-.01-.006zm.42578.27734c-.002.006-.004.0117-.006.0176-.0253.0952.33637.20437.25586.14843-.0819-.0569-.16656-.11138-.25-.16601zm41.87305.78711c-.0151-.00008-.0233.008-.0195.0273.0101.0599.12277.0264.18945.0371-.0596-.023-.13405-.0643-.16992-.0645zm.20117.0762c.007.005.013.0122.0156.0215.0208.068-.14184.007-.21289.008-.3041.004-.60786.006-.91211.01-.35549.001-.71094-.00077-1.06641 0 .74786.53603 1.26004 1.19977.86719 2.07032 1.45214.0859 2.90394.16927 4.35547.2539.12729.006.18441.007.26953.0117-.24088-.26993-.46246-.56835-.70313-.89648-.5845-.79703-.17164-.84751-.65625-.71485-.55304-.28319-.40394-.20948-1.08007-.66015-.35995-.0222-.46086-.0211-.86329-.0996-.004-.00065-.01-.003-.0137-.004zm5.95899 2.03906c-.0638-.0133-.15733.0249-.19532.0742-.0528.0684-.10066.14036-.15039.21094.088-.008.17555-.0189.26172-.0391.0816-.0193.18088-.1426.13477-.21289-.0114-.0174-.0295-.0288-.0508-.0332zm3.24023.27344c-.005.49454.005.9877.0918 1.47266.0578.32107.39085-.65511.24609-.94727-.0924-.18643-.20798-.36069-.33789-.52539zm-4.36133 1.24219c-.0341.0552-.0667.11135-.10156.16601-.7443.36117 1.6637 2.36927 1.4082 1.67969-.26159-.70573-.81842-1.25704-1.30664-1.8457z" transform="matrix(3.78 0 0 3.78 -356.899 -648.95)"/></clipPath><clipPath id="c"><path d="m1042.0469 436.74218v.45117h1.373c-.143-.10877-.1704-.29471-.057-.45117zm3.8554 0c.01.006.013.0147.02.0215.0009-.007 0-.0149 0-.0215zm.3028 0c.021.0241.043.0494.064.0762v-.0762zm-2.2071.29297c0 .0536-.01.10677 0 .1582h.035c0-.0501-.0004-.0974.016-.14063-.016-.006-.032-.0125-.047-.0176z" transform="matrix(3.78 0 0 3.78 -936.3648 -539.6466)"/></clipPath><clipPath id="d"><path d="m1047.4688 436.80663c.023.005.046.009.068.0137v-.002c.043.009.082.019.1191.0312 0-.008 0-.019 0-.0137 0 .005 0 .0103.01.0156.01.003.016.005.023.008v-.0527zm-.3126.0254v.0937c.014.00018.027.002.041.002-.015-.0317-.028-.0633-.041-.0957z" transform="matrix(3.78 0 0 3.78 -939.6076 -539.8186)"/></clipPath><clipPath id="e"><path d="m366.28659 890.81752c-.14867.0804-.22111.14077-.041.13477.23503-.008.46223-.0606.68555-.13477z" transform="matrix(3.78 0 0 3.78 -374.1212 -673.8142)"/></clipPath><clipPath id="f"><path d="m317.62253 864.59877c-.11465.0807-.22921.16144-.34376.24219.11509-.0653.22887-.13176.34376-.19726z" transform="matrix(3.78 0 0 3.78 -325.171 -649.2816)"/></clipPath><clipPath id="g"><path d="m352.15573 835.94057c-.13022.14416-.33583.3621-.60352.62891h2.30469v-.62891z" transform="matrix(3.78 0 0 3.78 -359.226 -617.7228)"/></clipPath><clipPath id="h"><path d="m370.75338 837.34096v.54492c.6017-.027 1.1476-.0897 1.63282-.16797-.54483-.13261-1.0916-.27775-1.63282-.37695zm0 1.86524v.10351c.0163.0192.0327.0424.0488.0605-.0161-.0547-.0326-.10935-.0488-.16406z" transform="matrix(3.78 0 0 3.78 -380.6146 -619.2908)"/></clipPath><clipPath id="i"><path d="m325.75338 897.45815v.36328h.23633c-.0522-.0431-.17404-.16777-.22656-.22266-.0186-.0194.0634.0214.14062.0645-.0475-.07-.1007-.13645-.15039-.20508zm.15039.20508c.003.005.006.0105.01.0156 0-.003.00001-.007 0-.01-.003-.002-.006-.004-.01-.006zm.01.006c.0971.0549.17291.10755.0352.0625.0193.0293.0398.0582.0586.0879.00088.001.001.00071.002.002h.31055c-.004-.0467-.006-.0937-.01-.14063-.1358-.0699-.27094-.14067-.40821-.21093.003.0611.0116.14792.0117.19922z" transform="matrix(3.78 0 0 3.78 -335.6012 -677.3092)"/></clipPath><clipPath id="j"><path d="m325.85885 836.82143v.0762c.0172-.0256.0349-.0509.0527-.0762z" transform="matrix(3.78 0 0 3.78 -335.6042 -620.2708)"/></clipPath><clipPath id="k"><path d="m645.5625 529.53711v.0879c.038-.007.0792-.0117.125-.0117h.0195.15039.0859c-.0152-.0154-.0362-.0323-.0664-.0527-.0164-.0107-.0272-.018-.0352-.0234h-.0508-.008zm1.93945.46094c-.0634.0199-.12458.0191-.1875.0156-.0293.0236-.0594.0469-.0898.0684-.0367.0265-.0866.0256-.13086.0332-.0411.008-.0818.0128-.12305.0176-.008.006-.0156.0119-.0234.0176-.0748.0274-.13527.0165-.20508.006-.0683.007-.11588.0119-.14063.0137h.90039zm-1.93945.14843v.0234h.67773c-.001-.004-.004-.008-.006-.0117-.0111.00001-.0222 0-.0332 0h-.20898-.13477-.15039-.0195c-.0458 0-.087-.005-.125-.0117z" transform="matrix(3.78 0 0 3.78 -538.5334 -632.553)"/></clipPath><clipPath id="l"><path d="m473.61523 581.0918c.0605.12215.12471.25762.19336.41406v-.40039c-.0644-.005-.12896-.009-.19336-.0137z" transform="matrix(3.78 0 0 3.78 -365.1138 -684.234)"/></clipPath><clipPath id="m"><path d="m480.74805 573.09375v.30273h.4707v-.30273z" transform="matrix(3.78 0 0 3.78 -372.9044 -675.995)"/></clipPath><clipPath id="n"><path d="m454.57031 513.92188v.10546h.35547v-.10546z" transform="matrix(3.78 0 0 3.78 -346.675 -616.6566)"/></clipPath><clipPath id="o"><path d="m459.13867 515.2207v.0586h.30469v-.0586z" transform="matrix(3.78 0 0 3.78 -351.2062 -617.955)"/></clipPath><clipPath id="p"><path d="m459.85938 513.85352c-.20984.27962-.41943.55942-.63086.83789.0779.10694.16784.21195.26367.3164.21644-.0299.43319-.0553.64843-.0703.0715-.0729.12887-.12936.19336-.19336v-.89062z" transform="matrix(3.78 0 0 3.78 -351.3384 -617.1954)"/></clipPath><clipPath id="q"><path d="m459.20117 513.80469v.17383h.14258v-.17383z" transform="matrix(3.78 0 0 3.78 -351.1806 -616.5842)"/></clipPath><clipPath id="r"><path d="m454.26953 516.60352c.13405.0504.26704.10326.39844.16015v-.16015z" transform="matrix(3.78 0 0 3.78 -346.1166 -619.5504)"/></clipPath><clipPath id="s"><path d="m433.63281 511.24609v15.08008l.006-.006c.46768-.56867.92701-1.14564 1.36914-1.73437.34962-.46555.69275-.93645 1.03711-1.40625.77607-2.5139.60668-2.03004 1.48047-4.11328.41617-.20586.82387-.55089 1.23242-.8711.14835-.25282.17924-.27128.26172-.19922.12925-.0952.26001-.17486.39063-.25-.16923-.71796-.31176-1.47156-.19336-1.72265.46812-.99224 1.73364-2.5414 3.04687-2.5918.0297-1.2314.27568-2.09478 1.3711-1.37109.00059-.0318-.002-.0728 0-.0996.0163-.23975.062-.47703.0996-.71485zm10.27344.16211c-.0149.0289-.0576.14738-.0566.19727.00021.0116.002.032.002.0449.0215-.0781.0387-.15745.0566-.23633.004-.0161.003-.0152-.002-.006zm16.28711 8.44727c-.6901.22832-1.38751.43521-2.0918.61328-.59338.15005-1.20059.28182-1.8125.29687-.42489.0104-.84487-.0688-1.26562-.14062-.0872.0859-.17472.17173-.25977.25977-.616.38813-1.27588.69657-1.94336.99023.0118.008.0179.0158.008.0195-.0113.005-.0236.00096-.0351-.006-.3491.1532-.69923.30705-1.04883.45508-.31349.13261-.62913.26032-.94531.38672-.34544.75887-.79007 1.46847-1.25391 2.16015-.11263.16381-.22488.32854-.33789.49219-.42712.61845-.59797 1.40381-1.07226 1.99024-.0768.0949-.15973.18526-.24415.27343-.25649.61316-.23477.53612-.70898 1.20508-.0396.18796-.32203.46512-.4082.56641-.0263.031-.0248.0257-.0469.0508-.13762.23659-.28576.47333-.45703.64063-.14711.26155-.27261.49037-.62305 1.07421-.38857.64736-.80095 1.27971-1.20117 1.91993-.76747 1.36263-1.68822 2.63036-2.51367 3.95703.12415.84965.30502 2.16152.45898 3.48047.17376.44531.34784.89269.45704 1.35742.15798.67204.25486 1.35941.31836 2.04687.0767.8352-.0741 1.96884-.15235 2.78125-.0416.32421-.1061.64649-.125.97266-.0399.68407-.0273 1.98327-.0195 2.75586 1.30775.80748 1.2768.82696 1.31055 2.01562-.0212.27692-.0276.28219-.0312.33789.02-.15776.0103-.29371-.11719-.34961-.40481-.17759-.78443-.31795-1.14063-.43164.002.11518.006.23053.008.34571.26167.212.55663.44315.88476.6914.008-.15977.005-.32558.0723-.46289.0643-.12741.0217.28248.0293.42383.004.0625.004.0721.008.12109.0632.0475.12751.0957.19336.14454-.007-.14452.0423-.32316.0625-.48047-.004.0481-.005.15105-.0274.29297-.007.0459-.0147.14023-.0215.19726.0874.0647.16378.12444.25586.19141.20054.14593-.12546.47931-.20899.71289-.18489.51697-.26243.70586-.29296.75195-.41582 1.8757-.46785 1.80885-1.01368 3.48438-.008.15227-.015.30472-.0215.45703-.0282.30456-.0566.5719-.084.82422 1.53726 2.08115 1.75973 2.42071 3.44531 4.86132.15072.14208.0834.0836 1.42969 1.3711.72877.69709 1.46 1.39312 2.18359 2.0957.0401.0389.15687.11001.10547.12891-.006.002-.0117.005-.0176.008.20738.0794.41322.15976.61523.25195.16614.0758.78233.71556 1.07813 1.04102.0103-.002.0213-.002.0312-.004 1.29796-.21898 2.58765-.6682 3.92383-.55859l-.002.004c1.99581.16388 3.24164.95566 3.7461 1.88476.50261-.68428.69606-.84728.19336.17969.0798.0241.14957.0468.23632.0723.47945.12498.95209.26535 1.42188.41211.0117-.007.0133-.0104.0254-.0176.11677-.34263.2495-.71132.40234-1.10937.11107-.28927.44422-.29244.8418-.1543-.0974-.45621.7778-1.41411 1.41406-1.53515v-48.73438c-.83473.45831-2.08081.53945-3.61523-.0644zm2.20117 50.33398c.0252.11809.11872.19913.29492.22657.0149-.0238.0298-.047.0449-.0703-.11482-.0563-.23133-.11854-.33985-.15625zm-1.24414 1.26367c-.003.008-.005.0154-.008.0234.1156.0362.23054.0739.3457.11133.26691-.10501.52746-.2397.7832-.38672.0741-.1649.15161-.32069.23243-.46875-.0288.005-.0597-.002-.084.0137-.28193.17292-.88282.47837-1.26953.70703zm-1.68359-.46679c-.0427-.0129-.0838-.0245-.12696-.0371.0234.0513.0494.1024.0684.1543.0185-.0379.0406-.0805.0586-.11719zm-25.83399-40.14063v.14844c.009.0266.0165.0535.0254.0801.008.0257.0701.0714.0625.0449-.0287-.0913-.0585-.18229-.0879-.27344zm0 29.68164v22.22461h22.24414c-.80629-.18803-1.62618-.39146-2.44336-.60156-.12252.0256-.24507.0506-.36718.0762-.24469.051-.48348.12527-.72461.19141-.10734.0295-.30142.20569-.32032.0957-.0414-.25369-.0751-.50869-.10742-.76367-.15304-.0418-.29801-.0848-.44922-.12695-.0979.33196-.19519.66413-.29296.99609-.0463-.3757-.10913-.75014-.16602-1.125-.23383-.0665-.47774-.13237-.70508-.19922-.0567-.0167-.12594-.0418-.18555-.0605-.0549.16132-.10922.32295-.16406.48437-.006.17299-.012.34511-.0234.51758-.003.0495-.0827-.0524-.125-.0781.0497-.1464.0987-.29304.14844-.43945.006-.17917-.00007-.35943.002-.53906-.87605-.28946-1.96733-.74447-2.6914-1.03321-.74117-.31178-1.06114-.43803-1.39844-.59765-.61921-.002-1.2384-.009-1.85742-.006-1.16693-.16067-3.05271-.50739-3.85352-1.51172-.32927-.41299-.4962-.93208-.74414-1.39844 2.41369 2.46459 1.04661 2.14144 3.81836 1.79297.18975-.0239.30673-.0576.45117-.0879-.0988-.0629-.19889-.1232-.29296-.19336-.31907-.23781-.74814-.42535-.89063-.79687-.12944-.33751-.16891-.70299-.19531-1.07227-.14214-.0729-.26665-.14156-.41016-.21484.003.0611.0116.14792.0117.19922.0971.0549.17263.10755.0352.0625.0193.0293.0398.0582.0586.0879.0586.0922-.16855-.14171-.24414-.22071-.0186-.0194.0634.0214.14062.0645-.0734-.1081-.15456-.21122-.23242-.31641-1.7922-.92-3.36421-1.82381-1.27539-2.23242-.0227-.0682-.0229-.14549-.0117-.22852-.001.002-.002.004-.004.006-.0824.0894-.10592-.21858-.1543-.33008-.0933-.21475-.18153-.43224-.27148-.64843-.0214-.0547-.0537-.13784-.084-.21485-.015-.0295-.0256-.0613-.0391-.0918-.70962.2345-1.78613.34596-3.4375.40039-.30321.01-.44999-.29739-.5625-.64258-.3834.12356-.27609.009-.28711-.65625-.0632-.005-.0264-.11054-.0117-.19336-.13323-.29306-.28817-.66122-.0469-.70899.0161-.003.0327-.005.0488-.008-.00007-.0117.00008-.0236 0-.0351.00065-2.2749.005-4.54936.004-6.82422-.00018-.11779.00008-.23572 0-.35352-.49382-.67839-.94762-1.38307-1.4082-2.08594-.15942-.19282-.32136-.37586-.48438-.5625zm8.25781 15.72657c.003.005.006.0105.01.0156 0-.003.00001-.007 0-.01-.003-.002-.006-.004-.01-.006zm-.38867-13.34571c-.002.01-.004.0195-.006.0293-.00033.0123.00039.0248 0 .0371.004-.0236.005-.0454.006-.0664zm-.10156 9.03321c-.003.005-.007.0103-.01.0156.008.016.0177.0347.0254.0508-.006-.0217-.0103-.0446-.0156-.0664zm-.98633.98047c.004.0445.0117.13314.0137.23046.0104-.0783.0136-.15488-.004-.22461-.003-.002-.007-.004-.01-.006zm.42578.27734c-.002.006-.004.0117-.006.0176-.0253.0952.33637.20437.25586.14843-.0819-.0569-.16656-.11138-.25-.16601z" transform="matrix(3.78 0 0 3.78 -340.6316 -649.72)"/></clipPath><clipPath id="t"><path d="m463.02148 509.35742v.0234h.0117v-.0234z" transform="matrix(3.78 0 0 3.78 -354.9634 -612.0686)"/></clipPath><clipPath id="u"><path d="m1045.9082 436.74804c0 .004.01.0109.014.0156.0006-.005 0-.0108 0-.0156zm.3027 0c.019.0217.038.0445.057.0684v-.0684zm-2.2129.28711v.13476h.033c0-.0416.01-.0805.018-.11719-.016-.006-.032-.0125-.047-.0176z" transform="matrix(3.78 0 0 3.78 -937.0814 -539.6288)"/></clipPath><clipPath id="v"><path d="m1047.4688 436.80663c.023.005.046.009.068.0137v-.002c.043.009.082.019.1191.0312 0-.008 0-.019 0-.0137 0 .005 0 .0103.01.0156.01.003.016.005.023.008v-.0527zm-.3126.0254v.0937c.014.00018.027.002.041.002-.015-.0317-.028-.0633-.041-.0957z" transform="matrix(3.78 0 0 3.78 -939.6076 -539.8186)"/></clipPath><clipPath id="w"><path d="m269.61798 132.84036-191.76659.00054v51.68298h12.692251c-.260876-.0612-.528463-.12794-.796788-.1993-.03406.007-.06865.011-.102582.0184-.06362.0137-.12571.0337-.188406.0515-.02791.008-.07835.0554-.08329.0258-.01069-.0678-.01612-.1364-.02436-.20456-.04102-.0116-.07984-.0235-.120359-.0352-.02545.0894-.05073.17881-.07617.26818-.01204-.10114-.02839-.20196-.04317-.30289-.0608-.0179-.124218-.0356-.183328-.0536-.01461-.004-.03239-.0113-.04774-.0163-.0143.0435-.02889.0869-.04317.13041.0016-.0482-.000145-.0968.00052-.14514-.227771-.0779-.511528-.20043-.699793-.27817-.192712-.0839-.275908-.11792-.363609-.16092-.161001-.00053-.321996-.002-.482948-.002-.303414-.0433-.793733-.13661-1.001954-.40701-.08561-.11119-.129017-.25094-.193484-.37651.627584.66357.272129.57656.992812.48273.04934-.006.07975-.0154.117312-.0237-.02569-.0169-.05172-.0332-.07618-.0521-.08296-.064-.194524-.11452-.231572-.21455-.03372-.091-.04443-.1896-.05129-.28922-.03691-.0196-.06888-.0387-.106139-.0584.00078.0168.003.0406.003.0547.02525.0148.04382.029.0092.0168.005.008.01035.0157.01524.0237.01524.0248-.04382-.0382-.06348-.0594-.0048-.005.01648.006.03657.0173-.01929-.0294-.04047-.0576-.06094-.0862-.465585-.24752-.87383-.49006-.331108-.6-.0059-.0184-.0061-.0392-.003-.0615-.00026.00054-.00052.001-.001.002-.02143.0241-.02754-.0589-.04012-.0889-.02426-.0578-.0472-.11639-.07059-.17458-.0056-.0147-.01396-.0367-.02184-.0578-.0041-.008-.007-.0172-.01066-.0258-.184472.0636-.462358.0952-.893278.1099-.07884.003-.117002-.0801-.146256-.173-.09969.0333-.07179.001-.07465-.17722-.01643-.001-.0069-.0298-.003-.0521-.03464-.0789-.07491-.17804-.0122-.19088.0042-.00081.0085-.00054.01269-.002-.000011-.003.000026-.006 0-.009.000169-.61249.0013-1.22486.001-1.83734-.000047-.0317.00002-.064 0-.0957-.128399-.18261-.246391-.3724-.366147-.56162-.222251-.27831-.467698-.52204-.631744-.84609-.150769-.29788-.176879-.65007-.230046-.97599-.09527-.23023-.253479-.46532-.276771-.71989-.01082-.11945-.0088-.23998-.0026-.35968.0046-.0702.02706-.13819.04063-.20719-.0096-.15195.01095-.29538.04367-.4454.01308-.0602.03878-.11686.05332-.17669.0079-.0322-.02504.0624-.02996.0952.04633-.24153.08793-.48406.138638-.72463.03699-.17554.09504-.34616.12442-.52323.08767-.52751.117576-.97414.164537-1.48816-.113523-.0935-.218053-.19655-.307239-.28186-.001.002-.0016.004-.0026.005-.03233.0567-.04702.0211-.05027-.0563-.04542-.0436-.01664-.12845-.02538-.19246.01004-.0197.02654-.0615.0457-.11095.02262-.17567.0595-.3426.09395-.32919.139573-.25051.127685-.25177.340246-.50639.04183-.05.09343-.0905.138638-.13725.07692-.0795.146734-.15661.211768-.23611.01362.0454.0271.0906.04164.13567.0021.007.01823.0192.01625.0121-.01609-.053-.03274-.10593-.04926-.15881-.0028.004-.0058.007-.0086.0105-.01118-.0372-.02265-.0742-.03352-.11148-.0652-.15707-.119839-.3209-.184342-.47695-.0081-.0196.01141-.081.01828-.061.06321.17653.113539.35762.166061.53795.01279.0308.02582.0613.03961.0915-.07477-.23898-.15319-.47655-.22903-.71516.06034-.10968.114371-.22367.181295-.32918.02005-.0318.05492-.0506.07821-.0799.121601-.15312.241032-.30845.35599-.46696.408182-.56282.796689-1.14124 1.170555-1.72953-.0534-.22013-.113019-.49429-.07618-.57529.121955-.26768.452077-.6858.794248-.6978.0082-.32865.07263-.55732.354469-.366.00013-.01-.00052-.0219 0-.03.005-.0762.02075-.15159.03098-.22717.362618-.14566.699318-.41664 1.087776-.43699.08174-.004.139316.0623.185359.14619.21631-.0884.433975-.1711.664752-.23558.139576-.0391.349654-.005.489043-.0284.123694.008.248028.009.371226.0231.05268.006.104392.0209.155395.0358.250614.0726.390772.12865.594165.29816-.103986-.0712-.08012-.0414-.02793.0363.145611-.0164.292366-.0483.43775-.0626.04505-.0372.07875-.0544.102075-.0536.02252.00081.03587.0174.04164.0473.04441.002.08887.004.132545.0137.02743-.004.05498-.006.08227-.01.04758-.007.09373-.0247.141685-.0268.03463-.002-.06735.0167-.101059.0247.145006-.0174.290206-.0357.435211-.0531.0195-.001.03883-.0008.0584-.00053v-.00054c.04928.0008.09877.004.148289.008.18617-.006.373027.009.560138.0131.309386-.006.342095.006.439276.16459.06834.0371.130239.0694.230047.13199.0398.025.09537.0602.09243.10832-.0043.0671-.01802.13313-.0259.19983.05323.0712.109113.14576.182311.23453-.05911.28164-.04757.2582-.297082.51586-.0096.0558-.02096.11184-.02945.16775-.06932.0709-.126441.15743-.207702.21297-.08619.0589-.273431.16716-.437243.2645.09331.50221-.409802.94797-1.22997.6142-.17981.0616-.361388.1176-.544906.16564-.154282.0404-.312165.0754-.471268.0794-.110473.003-.219675-.019-.329074-.0384-.02259.023-.04551.0453-.06754.0689-.160166.10449-.331742.18807-.505293.26713.0031.002.0038.004.0021.005-.0029.001-.006-.00027-.0092-.002-.09077.0412-.181806.0827-.272706.12253-.09193.0403-.184508.079-.277275.11726-.05064.0209-.09949.0482-.15286.0599-.10974.0239-.221968.0309-.333138.0463-.07265-.0722-.153606-.13816-.234617-.20404-.0169.0138-.022.0182-.04164.0342-.0543.0441-.105983.0924-.165045.12935-.369019.23058-.754421.42655-1.147193.60842-.02415.007-.04031.0114-.06145.0173-.108604.29045-.217504.58092-.345834.8624-.112117.24591-.261695.47149-.392553.70727-.07583.14342-.157842.27741-.244269.40701.03529.081.06417.16346.08684.24925.229544.11963.462043.23503.65815.40333.08992.0772.05912.23446.0777.3539.02765.17817.09382.6881.141178 1.10798.04518.11989.09044.24035.118832.36547.04108.18093.06627.36599.08278.55109.01994.22487-.01927.53006-.03961.74881-.01082.0873-.02759.17406-.0325.26188-.01037.18418-.0071.53398-.0051.74198.340028.21741.331978.22265.340756.54268-.0055.0746-.007.076-.0081.091.0052-.0425.0027-.0786-.03047-.0936-.105254-.0478-.203959-.0856-.296572-.11621.00052.031.0021.0626.0026.0936.06804.0571.144729.11931.230049.18615.0021-.043.0013-.0882.0188-.12515.01672-.0343.0056.0761.0076.11411.001.0168.0016.0194.0026.0326.01643.0128.03318.0258.05028.0389-.0018-.0389.011-.087.01625-.12936-.001.0129-.0013.0412-.0071.0794-.0018.0123-.0038.0372-.0056.0526.02272.0174.04257.033.06653.051.05214.0393-.03262.12906-.05434.19194-.04807.13919-.06825.19006-.07618.20245-.108138.50503-.12164.487-.263564.93812-.0021.041-.0039.082-.0056.12305-.0073.082-.01472.15399-.02184.22191.399258.55969.457558.65245.894294 1.30727.03897.038.022.0223.373255.37021.189495.18769.379615.37509.567758.56424.01043.0105.04028.0296.02691.0347-.0016.00054-.003.00054-.0046.002.05392.0214.107446.0425.159968.0673.0432.0204.203411.19263.280322.28027.0027-.00053.0054.00017.0081-.00053.337482-.059.672812-.17993 1.020235-.1504l-.001.00054c.52222.0444.840527.26122.969453.51323.13475-.19075.187319-.238.05485.0426.02075.006.03938.0125.06196.0195.124664.0336.24755.0714.3697.11096.003-.002.003-.003.0061-.005.03036-.0923.06487-.19204.104615-.29921.02888-.0779.115499-.0781.218874-.041-.03379-.1638.38055-.56608.499198-.35495.08587-.0424.173274-.0652.256966-.0689.277384-.0124.52101.17928.594162.51639.0096.001.01929.002.02895.003.107613-.1358.244347-.28643.434703-.46276-.00052-.0133-.0026-.0274-.0026-.0405-.000099-.0127.02478 0 .03707 0h.0076c.07525-.0685.154407-.0581.23208-.001.05654-.00002.110884.00005.177743 0 .922175.00009 1.844436.003 2.766666 0 .107626-.001.215473-.01.322982-.005.08146.004.162494.0129.24376.02.01037.002.03173.004.02335.006-.02369.005-.04803.002-.07211.003-.130878.0707-.540069.21701-.392555.21192.240834-.008.450135-.20013.690145-.22243.194194-.018.726759.41724.90191.52112.118161.11963.241495.23378.354466.35863.04548.0503.0541.12803.09852.17932.05067.0585.115712.10233.168091.15933.267298.29094.213146.22102.358021.48904.00052.0201-.000182.0408 0 .061.133575.16081.183076.39587.249856.57792-.08133.26407-.113166.55026-.244268.79193-.05989.11042-.191144.16196-.302161.21508-.155132.0743-.321161.12486-.488026.16301-.09809.0225-.200769.0144-.301146.0184-.416913.0167-.309022.0185-.596195.003-1.044011-.063-2.091816-.11803-3.136372-.20508.05574.11431.116853.25643.209227.48642h174.428151zm-185.053048 37.5838c.00026-.00027.00078-.00081.001-.001-.001-.002-.0021-.004-.003-.006.00078.002.0013.005.0021.007zm2.173523 12.31023v.001c.00078.001.0016.003.0026.004 0-.00081.000003-.002 0-.003-.00078-.00054-.0016-.001-.0026-.002zm176.282295-37.48967c.005-.00001.0101.002.0143.008.0107.0142.009.0337.0117.051.009-.003.0187-.007.0274-.009 0-.007-.00003-.0104 0-.0105-.003-.002-.003-.004-.005-.006-.005.00003-.0107-.00011-.0159-.00054-.005-.00027.0109-.006.0143-.002 0 .00054.00021.002.003.003v.00054c.003-.00001.005.00006.008 0-.0242-.008-.0415-.0152-.0255-.0163.005-.00027.0122.00027.0234.001.0182.001.0308.003.0391.004.004-.001.01-.00019.0143-.00054.009-.002.0195-.004.026-.004l-.004-.00053c.003-.00009.003-.00001.004 0 .0226.00053.0367.002.0477.004.0297.00022.0596.00001.0894 0 .0352 0 .0416-.00054.0706.0195.004-.002.0571.005.0838.008.003.00012.003.00018.005.00054.003.00015.003.00054.004.00054 0 .00007.00003-.00004.003 0 .003.00015.003.00054.003.00054.0517-.003.0677.008.0935.0352.0205-.18357.19883.25774.194.0552-.003-.0717.007-.023-.0985-.1078.0151-.002.0279-.003.0386-.004.0308-.002.0463.003.0625.0205.0101.005.0198.0104.0244.0158 0 .002.003.003.004.005.0179-.00054.0353.002.0528.004.009-.007.0195-.0171.032-.0284.0884.0232.0753.0127.0828.0473.009.002.0177.004.0264.006v-.00053c.0109.002.0211.005.0305.008.00002-.002 0-.004 0-.003 0 .00081.0001.002.003.004.0634.0223.0938.0646.0949.10465.0138.03.0174.0584.009.0815.0779.11987.003.0944-.17875.0941-.004 0-.0148-.0172-.0274-.0389-.0252-.01-.0511-.0173-.0741-.031-.0101-.006-.0164-.0164-.0213-.0268-.003-.005-.004-.009-.005-.0137-.007.00024-.0172-.00006-.0198 0-.0187-.00022-.0381-.00054-.0569-.00054-.0177.17939-.0616.0723-.0868-.03-.004.0408-.0156.0757-.0528.10727-.0449.11918-.12751.21286-.0817.0657.00008 0 .003-.00027 0-.001-.007.001-.0135.003-.0203.004-.033.004-.0861.0138-.11274-.0116-.006-.006-.0114-.0119-.0161-.0184 0 .00006-.003-.00013-.003 0-.004.00027-.009.00054-.0127.00054-.003-.00003-.003.00007-.005 0-.014.00081-.0284.00027-.0427.002-.0691.002-.072-.008-.15793-.0447-.014-.015-.0244-.0251-.0325-.0347-.0427.00008-.0411-.007-.0279-.0626v-.004c0-.003-.003-.007-.003-.009-.0125-.00025-.0198-.005-.03-.006.005.002.009.005.0148.007-.0112-.005-.0164-.006-.0203-.008-.012-.002-.027-.002-.0366-.007-.15345.011-.18125-.16176-.009-.20772.0109-.01.0221-.0163.0315-.0163zm.0564.0405v.00054c0 .001.003.004.003.006 0-.00027.003-.00019.003-.00054-.003-.002-.003-.004-.005-.006zm.84604.0347c-.009-.003-.0203-.002-.0376.002-.003.00054-.004.003-.006.004.004.001.008.002.0107.003.003-.00027.005-.00081.008-.001 0 .00081.003.002.003.003.0101.002.0195.004.0295.005.005.00081.0107.002.0159.003-.008-.009-.0143-.0161-.0218-.0184zm-.0604.0147v.00054c-.0159.01-.0359.0231-.0472.0368.0237.00016.0474.001.0711.002-.005-.012-.0104-.0239-.0148-.0363-.003-.001-.006-.001-.009-.003zm-.068.006c.00003.00027 0 .00081 0 .002 0 .0008.003.002.003.003 0-.002-.003-.004-.003-.005zm.0107.00054c-.00026.00007-.00013.00081-.003.001v.00054c0-.00027.00013-.00012.003-.002zm.0101.0457c.003.008.005.0155.008.0231 0-.007-.003-.0129-.003-.0195-.003-.002-.004-.003-.005-.004zm-.75717.0168-.003.00054c0 .00011.00021.00021.003.00053zm0 .002c-.00018.0183-.003.037-.003.0542.004-.002.009-.004.0133-.007 0-.0158.0109-.0259.0143-.0394-.009-.003-.0164-.006-.0239-.008zm.59365.0431-.003.00054v.00054c0 .00014.00016.0008.003.001zm-.003.003v.00054c.003.006.004.0119.006.0173v.00054c.003.002.003.003.004.005.0101.0103.0645.009.008.0121.0172.0133.0567.0254.0452.0142-.0305-.0297-.0494-.0427-.0625-.0494zm.22548.0847c0 .00081.00011.002.003.003.006.00027.008-.00027.0138 0-.005-.001-.0101-.002-.0153-.003zm.007.0189c.003.006.005.0118.008.0163-.003-.005-.005-.0109-.008-.0163zm-168.322194 19.40847v.00053h.001c.09352.001.194214.0113.30165.0321.237985.046.477527.0802.719092.0989.711338.13629.473523.0736 1.14567.26608.364422.10437.697875.19065 1.033946.35653.03091.0216.0617.0437.09242.0657.137005.00027.257309.0383.427595.12042.06706.0323.204755.16946.309778.31709.0196-.001.03933-.002.05891-.004.0116-.0008.0062.0247.01017.0368.01851.0644.03547.12383.05231.183.135741-.005.271942-.009.407783-.008.018.00011.022.0294.033.0442.006.008.0192.0148.0188.0252-.01.26449-.005.53148-.034.79404.0127-.034.0133-.0333.0107.0121-.004.00027-.008.00081-.0127.001-.005.0445-.0108.0888-.0183.13304-.0294.0291-.0512.0483-.068.0636-.0133.0288-.0269.0577-.0401.0868.0691.30961.12703.62152.16251.94286.005.0474.004.0954.006.14303.15434.0766.30063.17095.44537.26766-.15209-.063-.31567-.12652-.44283-.17406.00078.0523.005.10441.006.1567.36465.11081.59067.17341.71148.19983-.0917-.0593-.18224-.12117-.27322-.18195.30421.12603.54405.24111.27322.18195.0397.0257.0796.0513.11985.0757.008.16818.002.33532-.0132.50167.5874.0626.809.81019.032 1.45398-.17072.1414-.13951.0965-.25798.25557l-.001.00053c-.001.005-.002.01-.003.0147-.0771.39942-.24341.65882-.4347.80088.14128.14186.12107.25425-.26408.29868-.147837.0171-.323422.14313-.443331.0515-.09746-.0741-.179561-.14072-.248838-.20245-.413582.0383-.817622-.41317-.813038-.8156-.001-.22576-.00078-.45155.003-.6773.005-.0336-.0031-.0791-.0051-.11095-.0054-.10031-.0076-.20096-.0046-.30131-.145033-.17004-.252545-.43375-.279308-.79404-.02101-.28289-.03098-.38874-.03707-.51639-.06279-.0565-.126513-.11062-.192977-.15776-.01937-.4014-.01638-.53755.17825-.67887.007-.32332.05598-.59375.278801-.89764.001-.001.0036-.002.0046-.004-.01984-.075-.03978-.1499-.05941-.22454-.08393-.0388-.172463-.0928-.279816-.15828-.04792-.0292-.05528-.12428-.110709-.12936-.04928-.004.05579.0845.08379.12673-.258504-.12785-.517248-.18724-.797297-.2645-.708102-.1952-.340289-.11305-1.021757-.23716-.242626-.0127-.482392-.0547-.721122-.0989-1.268579-.2351-1.151788-1.48439-.05028-1.47187zm-8.296962.31446c-.0039.008-.01498.0397-.01472.0531.000057.003.001.009.001.0121.0056-.021.0096-.0424.01422-.0636.00052-.002-.000188-.002-.00052-.002zm11.760377.62576c.05199.0366.104142.0727.157428.10728.02338.0152-.03385-.048-.05891-.0599-.03769-.0178-.06957-.0332-.09852-.0473zm-.670847.58318c-.03506.005-.06972.0107-.104612.0195-.144025.0353.02236.36943.165046.53585-.01747-.0615-.03526-.12306-.05282-.18458-.01807-.0634-.03616-.12643-.05434-.18983-.0029-.007-.01404-.0213-.0071-.0216.197844-.003.373-.0233.526115-.0489-.157683-.0397-.316045-.0841-.472285-.11043zm1.785036.80613c-.001.003-.003.009-.005.0116.001-.00007.002.00004.003 0 .00052-.004.001-.007.002-.0116zm-10.985936.69623c-.001.002-.0028.003-.0041.005s.0058-.007.0051-.005c-.00026-.00004-.00078.00004-.001 0zm70.718686 2.22488c.0495-.003.0676.029.0665.0647.0144-.004.0303-.005.0503-.009l.00052.00053c.0107-.002.0206-.004.03-.004.11042-.005.12479.12203-.002.1483-.0146.003-.0271.006-.0401.008v.00054c-.00052.002-.002.003-.003.005-.0218.0106-.0426.01-.064.008-.007.006-.0122.0132-.0193.0184-.01.007-.0225.007-.034.009-.0101.002-.0203.002-.0305.004-.003.002-.005.004-.008.006-.0193.007-.0349.004-.0528.002-.0604.006-.0159-.002-.0919.011-.0313.0101-.0343.004-.0396-.0105-.003 0-.006 0-.01 0h-.0543-.035-.0391-.005c-.14031 0-.14031-.14671 0-.14671h.005.0391.0223c-.004-.004-.008-.009-.0167-.0147-.009-.006-.0115-.008-.0142-.009h-.00052c-.003-.001-.007-.00054-.0198-.002.007.00005.0179.00008.0259.00054h.00052c.00052-.00011.001.0001.002 0 .003-.00054.007-.001.009-.002.0144-.001.028-.001.0406.00054.0293-.0431.0266-.0411.0635-.0394.003.00081.006.001.0102.002.00078.0002.003.00053.005.001l-.00052.00054c-.001-.00054-.003-.00081-.004-.002-.004.001-.0178.0217.005.002h.00052c.002.00026.003.00081.005.001-.002-.00054-.003-.001-.005-.002.001-.001.003-.002.004-.003.0365-.0127.0587-.0217.098-.0116.00026.00013.00078-.0001.001 0 .008-.004.0163-.007.0244-.0105.0107-.004.0213-.01.032-.0137h.00052c.0179-.008.034-.0107.0487-.0116zm.14016.12253c-.00078-.0001-.002.0008-.003.002-.0125.0179-.0189.0391-.0254.0605.009-.005.0171-.0109.0234-.0189.008-.009.01-.043.005-.0436zm-59.18582.65574c.00052-.0147-.004-.002-.008.01.001.0102.003.0204.004.0305.001-.0123.004-.0331.004-.0405zm-14.186796 8.15178c-.00052.003-.0013.005-.0021.008-.000081.003.000104.007 0 .01.001-.006.0018-.0122.0021-.0179zm5.432789 1.96038-.00052.00054c.0066.0308.03466.049.07821.0573.0032-.005.0064-.0106.0096-.0158-.0295-.015-.05942-.0319-.08735-.0421zm.02793.14619c-.0075.002-.01552.0008-.02184.004-.07331.0466-.229543.12878-.330094.19036-.00078.002-.0018.004-.0026.006.03006.01.05993.0199.08989.03.06939-.0283.137158-.064.20364-.10359.01927-.0444.03943-.0863.06043-.12621zm-.828275.0557c.0069.0156.01695.0305.02233.0463.0052-.0111.01121-.0235.01625-.0342-.01303-.004-.02556-.008-.0386-.0121zm-4.659867.27449c-.00052.00027-.0013.00017-.0021.003.0018.004.0042.009.0061.0121-.0013-.005-.0028-.01-.0041-.0147zm-.255439.25872v.00054c.001.012.0035.0363.0041.062.0027-.0211.0034-.0422-.001-.061-.00078-.00054-.0023-.00054-.003-.002zm.110707.0757v.00054c-.00052.002-.0013.002-.0021.004-.0066.0256.08745.0555.06653.0405-.02111-.0152-.04299-.0301-.06449-.0447zm10.887411.20982v.00054.00054c-.0039-.00002-.0061.002-.0051.007.0026.0161.03192.007.04926.01-.0155-.006-.03485-.0178-.04418-.0179zm.05332.0221v.00054c.0013.001.0023.003.003.005.0054.0183-.03684.002-.05535.002-.07907.001-.158055.002-.237158.003-.09243.00025-.184849-.00021-.277275 0 .192582.14293.325226.3195.228523.55057.376617.0231.752958.0525 1.129419.0752.0331.002.04795.002.07008.003-.06263-.0727-.120236-.15303-.182818-.24137-.151973-.2146-.04463-.22817-.170632-.19246-.143796-.0762-.105033-.0564-.280831-.17774-.09359-.006-.119829-.006-.224462-.0268-.00052-.00013-.0018-.00017-.0026-.00054zm1.548381.54846c-.01659-.004-.04085.007-.05078.02-.01373.0184-.02617.0378-.0391.0568.02288-.002.04564-.005.06805-.0105.02122-.005.04703-.0384.03504-.0573-.003-.005-.0077-.008-.01321-.009zm.842495.0736c-.0013.13314.0013.26593.02387.3965.01503.0864.10156-.17638.06399-.25504-.02403-.0502-.05407-.0971-.08786-.14146zm-1.13399.33445c-.0089.0149-.01734.03-.02641.0447-.193523.0972.432592.6379.366149.45224-.06802-.19002-.2128-.33843-.33974-.49693zm-9.828582 1.10534c-.0016.0464-.0031.0925-.0061.13883-.00078.0133-.0215-.0136-.0325-.0205.01292-.0394.02566-.0789.0386-.11832z" transform="matrix(.98 0 0 1.02 -311.4754 -143.5336)"/></clipPath><clipPath id="x"><path d="m93.702785 181.97365v.0202h.04341c-.01445-.007-.02909-.0129-.04341-.0202z" transform="translate(-94.78 -181.75)"/></clipPath><path d="m752.56055 548.46875c.14132.0186.0003.0231-.21094.0215.0771-.008.12992-.0133.21094-.0215z" fill="#fdfdfc" transform="matrix(.19 0 0 .42 178.095 77.03)"/><path d="m830.91211 574.3418c-.0461.0236-.0924.047-.13867.0703-.0805.15362-.15952.30681-.23438.46289-.0191.0399-.0213.0565-.0156.0566.0382-.0233.25283-.33662.38867-.58984z" fill="#fdfdfc" transform="matrix(.19 0 0 .42 178.095 77.03)"/><path d="m772.79102 579.49023c-.0678.034-.13571.0669-.20313.10157-.0102.10654-.0175.19004-.0273.29297.0948-.14937.17294-.28399.23047-.39454z" fill="#fdfdfc" transform="matrix(.19 0 0 .42 178.095 77.03)"/><path d="m752.56055 548.46875c.14132.0186.0003.0231-.21094.0215.0771-.008.12992-.0133.21094-.0215z" fill="#fdfdfc" transform="matrix(.19 0 0 .42 178.095 77.03)"/><path d="m752.56055 548.46875c.14132.0186.0003.0231-.21094.0215.0771-.008.12992-.0133.21094-.0215z" fill="#fdfdfc" transform="matrix(.19 0 0 .42 178.095 77.03)"/><path d="m752.56055 548.46875c.14132.0186.0003.0231-.21094.0215.0771-.008.12992-.0133.21094-.0215z" fill="#fdfdfc" transform="matrix(.19 0 0 .42 178.095 77.03)"/><path d="m752.56055 548.46875c.14132.0186.0003.0231-.21094.0215.0771-.008.12992-.0133.21094-.0215z" fill="#fdfdfc" transform="matrix(.19 0 0 .42 178.095 77.03)"/><path d="m752.56055 548.46875c.14132.0186.0003.0231-.21094.0215.0771-.008.12992-.0133.21094-.0215z" fill="#fdfdfc" transform="matrix(.19 0 0 .42 178.095 77.03)"/><path d="m752.56055 548.46875c.14132.0186.0003.0231-.21094.0215.0771-.008.12992-.0133.21094-.0215z" fill="#fdfdfc" transform="matrix(.19 0 0 .42 178.095 77.03)"/><path d="m714.1875 535.22852c.15736.68975.28711 1.38504.35156 2.0957.21018.95655.19957.91394.34766 1.58984.26814.15902.53375.32312.80078.48438-.35198-1.57003-.76883-2.87295-1.26367-3.7793-.0731-.13392-.1577-.26024-.23633-.39062z" fill="#fdfdfc" transform="matrix(.19 0 0 .42 178.095 77.03)"/><g clip-path="url(#a)" transform="matrix(.19 0 0 .42 300.8825 299.6552)"><path d="m647.02734 529.41211c-.95481.003-1.63272.0492-2.11523.72656.55971.19141 1.1176.38781 1.67773.57813.36801-.49047.7013-.92672 1.00391-1.30078-.12886-.00075-.23131-.004-.37109-.004-.0661 0-.13166-.00021-.19532 0z" fill="#fdfdfc" transform="translate(-646.25 -530.06)"/></g><path d="m623.59375 529.47266c.0757.18752.14927.37121.22266.55468.22696-.0711.45664-.13855.6875-.20312-.29852-.12386-.60211-.24191-.91016-.35156z" fill="#fdfdfc" transform="matrix(.19 0 0 .42 178.095 77.03)"/><path d="m592.35742 532.55273c-.0198-.0428.17207.47431.38867 1.05274.003-.00088.005-.003.008-.004-.0849-.22599-.1723-.45133-.25586-.67773-.0864-.23415-.13107-.35045-.14063-.3711z" fill="#fdfdfc" transform="matrix(.19 0 0 .42 178.095 77.03)"/><path d="m590.64062 531.33594c-.0924.003-.18468.005-.27734.008.0321.11631.0614.22952.0937.34375.0609-.11736.12594-.23878.18359-.35156z" fill="#fdfdfc" transform="matrix(.19 0 0 .42 178.095 77.03)"/><path d="m958.24609 539.78125c-.19028 1.16565-.38988 2.33248-.4414 3.50586-.0648 1.47689.1917-1.05706.4414-3.50586z" fill="#fdfdfc" transform="matrix(.19 0 0 .42 178.095 77.03)"/><g clip-path="url(#b)" transform="matrix(.19 0 0 .42 266.4526 306.3878)"><path d="m352.65039 829.41992c12.40917.52863 24.11818 7.85499 27.45703 21.65235 1.09811 4.53781-6.68692 4.15211-8.27734-.41016-9.5238-27.31998-46.56445-14.06748-46.56446 16.66016 0 32.43378 37.73335 43.72292 47.07618 14.08398 1.72928-5.48606 1.82401-5.58398 5.55078-5.58398 8.95941 0-1.82042 21.00835-13.65625 26.61328-29.75448 14.0903-58.15284-21.29892-43.23633-53.88086 6.13193-13.39389 19.24122-19.6634 31.65039-19.13477z" fill="#fdfdfc" transform="translate(-349.05 -867.5)"/></g><g clip-path="url(#c)" transform="matrix(.19 0 0 .42 376.4854 260.5574)"><path d="m1042.252 436.74219c-.068.0537-.1366.10616-.2051.16015 1.7532.30319 3.4491.51598 4.2187-.13476-.07-.004-.137-.003-.207-.008-1.2692.005-2.5379-.009-3.8066-.0176z" fill="#fdfdfc" transform="translate(-1044.16 -436.97)"/></g><g clip-path="url(#d)" transform="matrix(.19 0 0 .42 377.1048 260.6288)"><path d="m1047.1562 436.80664c.1624.21772.3295.44073.4981.66406.01-.0271.019-.0568.029-.0859-.1128-.17167-.2158-.36262-.3106-.57227-.072-.001-.1446-.004-.2168-.006z" fill="#fdfdfc" transform="translate(-1047.42 -437.14)"/></g><g fill="#fdfdfc"><path d="m1042.8164 408.28125c-.073.006-.1458.0145-.2187.0215.7772.38027 1.5392.79993 2.3613 1.06446.7583.24385-1.4706-.63179-2.1406-1.0625-.014-.01-.011-.0165 0-.0234z" transform="matrix(.19 0 0 .42 178.095 77.03)"/><path d="m918.48047 458.64648c.0499.14781 1.40896.60569 1.94336.73047.40132.0171.60967.023.85742.0312-.95912-.12568-1.82994-.38284-2.80078-.76172z" transform="matrix(.19 0 0 .42 178.095 77.03)"/><path d="m934.32617 457.40039c-.35155.0803-.68766.17198-.98437.28516.0148.0365.0287.0728.043.10937.21683-.0642.44623-.1411.56835-.20508.12237-.0642.24821-.12629.37305-.18945z" transform="matrix(.19 0 0 .42 178.095 77.03)"/><path d="m942.45898 455.82812c-.0758.025-.15177.0498-.22851.0742.0263.0566.0526.11323.0781.16993.0494-.0814.10023-.16285.15039-.24415z" transform="matrix(.19 0 0 .42 178.095 77.03)"/><path d="m597.65234 454.24219c-.45242.0411-.90302.10001-1.35546.14062.39928.66011.82715 1.34633 1.26367 2.03711.0398-.64138.0692-1.3608.0918-2.17773z" transform="matrix(.19 0 0 .42 178.095 77.03)"/><path d="m662.51367 475.61719c.72858.68413 1.65889 1.14026 2.86719 1.23828-.23339-.12611-.47013-.24621-.70313-.37305-.51299-.27926-1.24542-.37178-1.55468-.8418-.20364-.005-.40677-.0125-.60938-.0234z" transform="matrix(.19 0 0 .42 178.095 77.03)"/><path d="m644.91211 472.28125c-.0477-.0661.62657 1.24991 1.3457 2.6582-.003-.0592-.006-.11847-.008-.17773-.65593-1.22489-1.22895-2.29336-1.31836-2.44922-.01-.0171-.0163-.0269-.0195-.0312z" transform="matrix(.19 0 0 .42 178.095 77.03)"/><path d="m661.11719 460.20117c-.0259.12821-.046.24857-.0742.39453.18912-.12943.37989-.25332.56836-.38476-.19126-.006-.13504-.003-.35156-.01-.0475-.00099-.0951.00085-.14258 0z" transform="matrix(.19 0 0 .42 178.095 77.03)"/><path d="m756.04492 423.44336c-1.16597.45776-1.48008.58244.0117.0195-.004-.006-.007-.0133-.0117-.0195z" transform="matrix(.19 0 0 .42 178.095 77.03)"/><path d="m757.07812 423.03711c-.0214.008-.0237.009-.0449.0176-.00066.0117-.001.0245 0 .041.0154-.006.0528-.0195.0684-.0254-.009-.0139-.0165-.0248-.0234-.0332z" transform="matrix(.19 0 0 .42 178.095 77.03)"/><path d="m756.04492 423.44336c-1.16597.45776-1.48008.58244.0117.0195-.004-.006-.007-.0133-.0117-.0195z" transform="matrix(.19 0 0 .42 178.095 77.03)"/><path d="m757.07812 423.03711c-.0214.008-.0237.009-.0449.0176-.00066.0117-.001.0245 0 .041.0154-.006.0528-.0195.0684-.0254-.009-.0139-.0165-.0248-.0234-.0332z" transform="matrix(.19 0 0 .42 178.095 77.03)"/><path d="m1015.25 451.47656c.08.2818.1931.67709.2949 1.03321 0-.054 0-.12111.01-.17579-.089-.27823-.1867-.56983-.3008-.85742z" transform="matrix(.19 0 0 .42 178.095 77.03)"/><path d="m785.97852 612.70117c.13204.43099.146.95937.23046 1.42969.29223.0314.57763.0951.86914.12891-.0677-.42488-.19617-.88759-.30859-1.15235-.1339-.31529-.51804-.39459-.79101-.40625z" transform="matrix(.19 0 0 .42 200.1331 -57.9622)"/><path d="m785.82617 612.70117c-.16346.007-.2163.0327.01 0-.003.00012-.007-.00013-.01 0z" transform="matrix(.19 0 0 .42 200.1331 -57.9622)"/><path d="m307.84375 595.5332c-.00036.008-.002.0156-.002.0234l.0137-.0137c.003-.002.007-.006.0156-.008-.0102-.00046-.0183-.0004-.0273-.002z" transform="matrix(.19 0 0 .42 200.1312 -57.958)"/><path d="m307.95117 595.52539c-.0295.003-.0576.006-.0762.01.0321.001.0701.004.10938.008.004-.003.008-.005.0117-.008-.0118-.004-.0249-.006-.0371-.01-.003.00023-.005-.00024-.008 0z" transform="matrix(.19 0 0 .42 200.1312 -57.958)"/><path d="m307.8457 595.49414c-.00044.0118-.00025.0234-.002.0352.0149-.00055.0296-.00032.0508-.002.00027 0 .0221-.004.0293-.008.01-.00007.008.00003.0156 0-.0312-.009-.062-.0179-.0937-.0254z" transform="matrix(.19 0 0 .42 200.1331 -57.9622)"/><path d="m376.62891 567.22852c-.004.00029-.0152.0006-.0234.002-.00012.002.00012.004 0 .006-.00038.008-.0283-.008-.0274 0 .004.0221.0929.008.0176.0352v.002c.0148.0276.0311.0547.0469.082.0273-.002.0547-.004.082-.006-.031-.0484-.0616-.0879-.0898-.11914-.002-.00036-.004-.002-.006-.002z" transform="matrix(.19 0 0 .42 200.1331 -57.9622)"/><path d="m378.48047 567.02344c-.0111.001-.0251.003-.0312.004-.00011.004-.002.008 0 .008.0105-.003.0209-.008.0312-.0117z" transform="matrix(.19 0 0 .42 200.1331 -57.9622)"/><path d="m396.78906 566.95117c-.004.00025-.01.00056-.0117.002l.002.002c.01.004.0178.008.0254.01.007.00006.0144-.00005.0215 0-.005-.003-.009-.007-.0137-.01-.004-.004-.0145-.004-.0234-.004z" transform="matrix(.19 0 0 .42 200.1331 -57.9622)"/><path d="m374.26758 566.9082c.007.00088.0139.002.0215.002-.008.00056-.0146.0006-.0234.002-.002.00011-.00019-.004.002-.004z" transform="matrix(.19 0 0 .42 200.1312 -57.9622)"/><path d="m380.00195 566.8418c-.002-.00007-.003.002-.006.006-.0133.0254-.0227.0534-.0293.082v.002c.003.0137.006.0282.006.043.006-.005.0131-.01.0195-.0156.0231-.0212.0216-.11671.01-.11718z" transform="matrix(.19 0 0 .42 200.1331 -57.9622)"/><path d="m376.24219 566.76758c-.0156.002-.0365.005-.0469.006-.009.008-.0178.0143-.0273.0215.024-.009.0493-.0186.0742-.0273z" transform="matrix(.19 0 0 .42 200.1312 -57.9622)"/><path d="m697.73047 501.88086c.0102.0606.0373.0794.0977.0254-.0325-.009-.0647-.0177-.0977-.0254z" transform="matrix(.19 0 0 .42 200.1331 -57.9622)"/><path d="m698.02344 501.54492c-.00002.01.00009.0183 0 .0274.002-.0101.003-.02.002-.0274z" transform="matrix(.19 0 0 .42 200.1331 -57.9622)"/><path d="m698.19727 499.73828c-.00005.0182.00014.0365 0 .0547.061-.0355.0533-.0511 0-.0547z" transform="matrix(.19 0 0 .42 200.1331 -57.9622)"/><path d="m698.16016 492.62891c.0239.0346.0446.0668.0644.0976-.007-.0317-.0168-.0413-.0644-.0976z" transform="matrix(.19 0 0 .42 200.1331 -57.9622)"/><path d="m698.08984 492.29688c.0104.0158.0204.0316.0293.0449-.0009-.004-.00048-.008-.002-.0117-.004-.009-.0181-.0236-.0274-.0332z" transform="matrix(.19 0 0 .42 200.1331 -57.9622)"/><path d="m698.01953 491.70898v.004c.004.005.009.0105.0137.0156-.004-.006-.009-.0132-.0137-.0195z" transform="matrix(.19 0 0 .42 200.1312 -57.9622)"/><path d="m697.99609 491.67969c.004.006.008.0118.0117.0176-.00033-.001.00033-.003 0-.004-.005-.006-.009-.01-.0117-.0137z" transform="matrix(.19 0 0 .42 200.1331 -57.9622)"/><path d="m697.91992 491.42578c.0101.0152.0179.029.0273.043-.001-.005-.003-.009-.004-.0137-.006-.006-.0163-.0194-.0234-.0293z" transform="matrix(.19 0 0 .42 200.1331 -57.9622)"/><path d="m698.00781 496.20703c-.003.0117-.006.015-.0117.0391.004-.0108.01-.0225.0117-.0293.00074-.002.00017-.006 0-.01z" transform="matrix(.19 0 0 .42 200.1331 -57.9622)"/><path d="m697.8418 495.55273c.0103.0144.0204.0289.0312.043-.003-.011-.0121-.0258-.0215-.0391-.004-.00003-.006-.004-.01-.004z" transform="matrix(.19 0 0 .42 200.1312 -57.9622)"/><path d="m691.33008 437.66211c-.0377.003-.10951.0163-.125.0273-.01.007-.0195.0175-.0312.0293.0515-.0136.10131-.0296.15234-.0449.0135-.004.0238-.008.0273-.01.001-.002-.005-.003-.0156-.002-.002.00012-.005-.00021-.008 0z" transform="matrix(.19 0 0 .42 200.1331 -57.9622)"/><path d="m694.09375 437.36719c-.007.002.003.0182.0469.0371-.0212-.0276-.0404-.039-.0469-.0371z" transform="matrix(.19 0 0 .42 200.1312 -57.9622)"/><path d="m675.25977 438.14844c.0185.0238.0181.0272.0273.0293-.008-.008-.0154-.0182-.0273-.0293z" transform="matrix(.19 0 0 .42 200.1331 -57.9622)"/><path d="m675.61719 438.11914c-.003-.004-.004.0119 0 .0156.0137.0134.027.0248.0391.0351-.0108-.0144-.0228-.0319-.0391-.0508z" transform="matrix(.19 0 0 .42 200.1312 -57.9622)"/><path d="m675.26562 437.93359c.004.003.008.007.0117.01.004-.00049.0147.00028.0117-.002-.004-.004-.031-.007-.0234-.008z" transform="matrix(.19 0 0 .42 200.1312 -57.9622)"/></g><path d="m351.60547 897.94141c-.725-.004-1.48547.0542-2.10742.17382-1.24391.23929-.46172.44374 1.73828.45508 2.19998.0111 3.21781-.18534 2.26172-.43554-.47805-.12454-1.16758-.18987-1.89258-.19336z" fill="#cbd7d5" transform="matrix(.19 0 0 .42 200.1331 -57.9622)"/><g clip-path="url(#e)" transform="matrix(.19 0 0 .42 269.7187 316.8122)"><path d="m367.73633 890.82422c-.0516-.0516-.45697.24917-1.25.87109-.9625.75485-1.75 1.54251-1.75 1.75 0 .82307.82058.29466 2.12695-1.37109.62193-.79302.92467-1.19838.87305-1.25z" fill="#cbd7d5" transform="translate(-366.24 -892.32)"/></g><path d="m752.56055 548.46875c.14132.0186.0003.0231-.21094.0215.0771-.008.12992-.0133.21094-.0215z" fill="#cbd7d5" transform="matrix(.19 0 0 .42 178.095 77.03)"/><g clip-path="url(#f)" transform="matrix(.19 0 0 .42 260.4258 306.5222)"><path d="m317.29102 864.43945c-.14939-.14824-.25586 1.11408-.25586 3.38282 0 3.02517.1869 4.26249.41601 2.75.22912-1.5125.22912-3.98751 0-5.5-.0573-.37813-.11036-.5834-.16015-.63282z" fill="#cbd7d5" transform="translate(-317.33 -867.82)"/></g><path d="m752.56055 548.46875c.14132.0186.0003.0231-.21094.0215.0771-.008.12992-.0133.21094-.0215z" fill="#cbd7d5" transform="matrix(.19 0 0 .42 178.095 77.03)"/><path d="m752.56055 548.46875c.14132.0186.0003.0231-.21094.0215.0771-.008.12992-.0133.21094-.0215z" fill="#cbd7d5" transform="matrix(.19 0 0 .42 178.095 77.03)"/><path d="m752.56055 548.46875c.14132.0186.0003.0231-.21094.0215.0771-.008.12992-.0133.21094-.0215z" fill="#cbd7d5" transform="matrix(.19 0 0 .42 178.095 77.03)"/><g clip-path="url(#g)" transform="matrix(.19 0 0 .42 266.8953 293.267)"><path d="m351.60547 835.94141c-.725-.004-1.48547.0542-2.10742.17382v-.002c-1.24391.23925-.46172.44374 1.73828.45508 2.19998.0111 3.21781-.18339 2.26172-.43359-.47805-.12454-1.16758-.18987-1.89258-.19336z" fill="#cbd7d5" transform="translate(-351.38 -836.25)"/></g><g clip-path="url(#h)" transform="matrix(.19 0 0 .42 270.9537 293.9264)"><path d="m370.75586 835.8418c-.0431.0431.43251.60547 1.38476 1.73047 1.79025 2.11438 2.59571 2.70453 2.59571 1.90429 0-.18977-1.01251-1.20224-2.25-2.25-1.12502-.95246-1.68734-1.4279-1.73047-1.38476z" fill="#cbd7d5" transform="translate(-372.74 -837.83)"/></g><path d="m663.16016 475.68555c-.0647.0137-.12735.0272-.1875.043-.10955.0286-.19466.0568-.25977.084.13805.11458.29479.20696.44727.30469.19803.023.44256.0432.73046.0547-.29932-.11106-.55782-.2608-.73046-.48633z" fill="#cbd7d5" transform="matrix(.19 0 0 .42 178.095 77.03)"/><path d="m806.24609 635.55664-.002.002c.002.004.002.009.004.0137.007-.00011.0133.00013.0195 0-.007-.005-.0143-.011-.0215-.0156z" fill="#cbd7d5" transform="matrix(.19 0 0 .42 200.1312 -57.958)"/><path d="m806.27734 635.5332-.002.002c.0175.0113.0346.0227.0527.0332-.009-.006-.0371-.0269-.0508-.0352z" fill="#cbd7d5" transform="matrix(.19 0 0 .42 200.1331 -57.9622)"/><path d="m805.2832 635.38281c.004.001.008.003.0117.004-.0009-.00097-.0001-.003-.002-.004-.003-.0002-.007.00023-.01 0z" fill="#cbd7d5" transform="matrix(.19 0 0 .42 200.1331 -57.958)"/><path d="m804.91406 635.23242c-.006-.0003-.01.00028-.006.002.007.00082.0141.003.0215.004-.002-.003-.01-.006-.0156-.006z" fill="#cbd7d5" transform="matrix(.19 0 0 .42 200.1312 -57.9622)"/><path d="m805.54492 635.39844c-.003-.0002-.007.00021-.01 0-.001.002-.003.003-.006.004.005-.0003.0102-.003.0156-.004z" fill="#cbd7d5" transform="matrix(.19 0 0 .42 200.1312 -57.9622)"/><path d="m786.77148 634.40234c-.004.006-.008.0143-.0117.0215.012.00024.0255-.00026.0371 0 .016-.0149.0135-.0244-.0254-.0215z" fill="#cbd7d5" transform="matrix(.19 0 0 .42 200.1331 -57.9622)"/><path d="m794.76172 634.17578c.0462.0258.0837.0559.11133.0879.1178-.0276.0816-.0558-.11133-.0879z" fill="#cbd7d5" transform="matrix(.19 0 0 .42 200.1331 -57.9622)"/><path d="m792.24414 634.03711.002.002h.006.0918c-.0317-.001-.0677.00024-.0996-.002z" fill="#cbd7d5" transform="matrix(.19 0 0 .42 200.1331 -57.9622)"/><path d="m791.27148 634.03125c.00026.002-.00018.005 0 .008.005-.0003.0104.00016.0156 0-.005-.002-.0104-.006-.0156-.008z" fill="#cbd7d5" transform="matrix(.19 0 0 .42 200.1331 -57.9622)"/><path d="m791.21094 634.02344c-.0107.002-.0223.004-.0332.006.0224-.002.0262-.002.0332-.006z" fill="#cbd7d5" transform="matrix(.19 0 0 .42 200.1331 -57.9622)"/><path d="m789.87109 633.9707c.0179.007.0355.015.0527.0234.00006-.007.00005-.0142.002-.0215-.0175-.00063-.0372-.00024-.0547-.002z" fill="#cbd7d5" transform="matrix(.19 0 0 .42 200.1331 -57.9622)"/><path d="m788.9668 633.95898c-.005.00021-.009.002-.0137.002.007.004.0138.009.0215.0137.0001-.001-.0001-.003 0-.004.0115-.0113.003-.0122-.008-.0117z" fill="#cbd7d5" transform="matrix(.19 0 0 .42 200.1312 -57.9622)"/><path d="m788.83008 633.94141c.002.002.002.004.004.006.0269-.00003.0594.00029.0977 0 .004.002.009.005.0137.008.025-.00095.0497-.0002.0762-.002.0733-.004.14543.003.21875 0-.13835-.003-.25844-.0114-.41015-.0117z" fill="#cbd7d5" transform="matrix(.19 0 0 .42 200.1312 -57.9622)"/><path d="m325.35938 596.65039c-.004.002-.009.003-.0117.004.002-.001.008-.002.0117-.004z" fill="#cbd7d5" transform="matrix(.19 0 0 .42 200.1331 -57.9622)"/><path d="m696.93164 491.85156v.10547c.0121-.0185.0258-.0345.0391-.0508-.0129-.0183-.0267-.0366-.0391-.0547z" fill="#cbd7d5" transform="matrix(.19 0 0 .42 200.1331 -57.9622)"/><path d="m692.08398 438.76172c-.004.003-.008.006-.0117.01-.036.0351.001.0283.0703 0-.021-.002-.0386-.007-.0586-.01z" fill="#cbd7d5" transform="matrix(.19 0 0 .42 200.1331 -57.9622)"/><path d="m675.25977 438.14844c.0185.0238.0181.0272.0273.0293-.008-.008-.0154-.0182-.0273-.0293z" fill="#cbd7d5" transform="matrix(.19 0 0 .42 200.1331 -57.9622)"/><path d="m675.61719 438.11914c-.003-.004-.004.0119 0 .0156.0137.0134.027.0248.0391.0351-.0108-.0144-.0228-.0319-.0391-.0508z" fill="#cbd7d5" transform="matrix(.19 0 0 .42 200.1312 -57.9622)"/><path d="m506.88281 396.9707c-.0407.0407.5652.72657 1.77735 2.10157 1.33338 1.51249 2.57085 2.75 2.75 2.75.78425 0 .14647-.80834-2.42383-3.07422-1.37505-1.21216-2.06279-1.81806-2.10352-1.77735z" fill="#cbd7d5" transform="matrix(.19 0 0 .42 200.1331 -57.9622)"/><path d="m487.73633 389.94531c-.63438 0-1.26875.0617-1.75.1875-.9625.25153-.17503.45899 1.75.45899 1.92499 0 2.71249-.20746 1.75-.45899-.48125-.12576-1.11563-.1875-1.75-.1875z" fill="#cbd7d5" transform="matrix(.19 0 0 .42 200.1312 -57.9622)"/><g clip-path="url(#i)" transform="matrix(.19 0 0 .42 262.4037 318.2864)"><path d="m325.75586 893.8418c-.0431.0431.4325.60547 1.38476 1.73047 1.04774 1.23749 2.06046 2.25 2.25 2.25.80026 0 .21015-.80354-1.90429-2.59375-1.125-.95246-1.68735-1.42986-1.73047-1.38672z" fill="#abcdc7" transform="translate(-327.74 -895.83)"/></g><path d="m752.56055 548.46875c.14132.0186.0003.0231-.21094.0215.0771-.008.12992-.0133.21094-.0215z" fill="#abcdc7" transform="matrix(.19 0 0 .42 178.095 77.03)"/><g clip-path="url(#j)" transform="matrix(.19 0 0 .42 262.4018 294.3422)"><path d="m329.54492 836.82227c-.275 0-1.3131.9-2.30859 2-.99549 1.09999-1.58555 2-1.31055 2s1.31506-.90001 2.31055-2c.99548-1.1 1.58359-2 1.30859-2z" fill="#abcdc7" transform="translate(-327.74 -838.82)"/></g><path d="m646.09375 474.61523c.0916.17937.0693.13874.16406.32422-.003-.0592-.006-.11847-.008-.17773-.0146-.0273-.0148-.0275-.0293-.0547-.0456-.0338-.0876-.0636-.12695-.0918z" fill="#abcdc7" transform="matrix(.19 0 0 .42 178.095 77.03)"/><path d="m325.35938 596.65039c-.004.002-.009.003-.0117.004.002-.001.008-.002.0117-.004z" fill="#abcdc7" transform="matrix(.19 0 0 .42 200.1331 -57.9622)"/><path d="m752.56055 548.46875c.14132.0186.0003.0231-.21094.0215.0771-.008.12992-.0133.21094-.0215z" fill="#79c0b5" transform="matrix(.19 0 0 .42 178.095 77.03)"/><path d="m492.72266 531.53516c-.63438 0-1.26875.0616-1.75.1875-.96253.25172-.17503.45898 1.75.45898 1.92499 0 2.71249-.20726 1.75-.45898-.48125-.12586-1.11563-.1875-1.75-.1875z" fill="#79c0b5" transform="matrix(.19 0 0 .42 178.095 77.03)"/><g clip-path="url(#k)" transform="matrix(.19 0 0 .42 300.9357 299.567)"><path d="m647.48438 529.53711c-.55299.0136-1.09062.0756-1.51172.18555-.83411.21781-.35279.40178 1.04296.44726.16124-.21077.33733-.44658.48633-.63281-.006.00013-.0118-.00014-.0176 0z" fill="#79c0b5" transform="translate(-646.53 -529.85)"/></g><path d="m690.72266 334.52344c-1.17812 0-2.35624.0551-3.25.16601-1.78749.2219-.32502.40235 3.25.40235s5.03753-.18049 3.25-.40235c-.89375-.11093-2.07188-.16601-3.25-.16601z" fill="#79c0b5" transform="matrix(.19 0 0 .42 178.095 77.03)"/><path d="m675.20898 294.75586c-.0326.004-.0619.007-.0898.0117.0236.0269.0462.0529.0684.0762.008-.0332.0141-.0574.0215-.0879z" fill="#79c0b5" transform="matrix(.19 0 0 .42 178.095 77.03)"/><path d="m681.06836 294.70117c-.0199.0196-.0344.0386-.043.0566.0125-.008.0254-.0169.0371-.0254.002-.0106.004-.0206.006-.0312z" fill="#79c0b5" transform="matrix(.19 0 0 .42 178.095 77.03)"/><path d="m886.38281 293.39062c-25.3618.29206-53.22053 8.84311-88.36133 26.33008-48.91113 24.33944-86.94807 28.83732-146.69336 14.75196-17.54588-4.13658-23.50579-6.88197-6.18554 2.89257 21.36476 12.05703 46.05587 21.23434 71.58008 24.42774 30.03983 3.75867 61.33175-3.44447 101.5-23.36719 37.08566-18.39377 62.1263-26.64827 87.96679-26.09375.0199-.003.0404-.006.0625-.008.0152-.001.0307 0 .0469 0h.23437c.0181.005.0366.009.0547.0137 17.1597.42867 34.69848 4.70081 56.38672 12.60156 18.04743 6.57445 29.98407 13.91085 6.98633-1.70703-24.47835-16.62337-46.3512-26.4261-69.64258-29.04297-.21254-.0102-.40924-.0359-.58789-.0762-4.39373-.46994-8.82215-.77468-13.34766-.72266z" fill="#79c0b5" transform="matrix(.19 0 0 .42 178.095 77.03)"/><path d="m441.3457 275.24023c-.004.002-.009.003-.0117.004.002-.001.008-.002.0117-.004z" fill="#79c0b5" transform="matrix(.19 0 0 .42 178.095 77.03)"/><path d="m865.83789 268.05664c-.00051.005.002.0211.01.0391-.00076-.0118-.003-.0238-.004-.0352-.003-.002-.004-.004-.006-.004z" fill="#79c0b5" transform="matrix(.19 0 0 .42 178.095 77.03)"/><path d="m867.125 267.61914c-.0423.008-.10866.0294-.125.0352.057-.0118.0987-.0215.13867-.0293-.005-.002-.009-.004-.0137-.006z" fill="#79c0b5" transform="matrix(.19 0 0 .42 178.095 77.03)"/><path d="m494.02734 246.25586c-.009.004-.0167.009-.0254.0137.008-.003.0213-.008.0312-.0137-.001-.00001-.003 0-.004 0z" fill="#79c0b5" transform="matrix(.19 0 0 .42 178.095 77.03)"/><path d="m493.60742 245.7168c-.003.00096-.005.00074-.008.002.0153.002.0313.006.0449.008-.008-.001-.0266-.008-.0371-.01z" fill="#79c0b5" transform="matrix(.19 0 0 .42 178.095 77.03)"/><path d="m494.4668 245.61328c-.0111.001-.025.003-.0312.004-.00011.004-.002.01 0 .01.0105-.003.021-.008.0312-.0117z" fill="#79c0b5" transform="matrix(.19 0 0 .42 178.095 77.03)"/><path d="m552.69727 208.14453c-15.43035-.14625-30.88095 3.73685-47.23243 11.48828-5.91636 2.80464-10.64136 5.20008-10.5 5.32227.14131.1222 5.43282-.68723 11.75782-1.79688 40.8655-7.1694 69.63274.64875 105.80664 28.75391 28.21644 21.92267 43.80009 29.90495 66.37109 33.99414 19.03144 3.44795 56.80587-2.53691 76.84961-9.17383 10.99998-3.64232-.52737.1997-23.52734-.46875-44.39275-1.29016-68.31641-9.32246-98.45508-33.05664-29.69159-23.38212-55.35307-34.81876-81.07031-35.0625z" fill="#79c0b5" transform="matrix(.19 0 0 .42 178.095 77.03)"/><path d="m530.73633 347.82227-.61914 69.87695.61914 70.12305h-7.29688c-5.86193 0-9.63816.7866-19.20312 4-6.54849 2.19999-12.26489 4-12.70313 4-.43816 0-.79687-9.90001-.79687-22 0-13.42837.39242-21.85196.96094-22 9.96052-2.59386 10.35057-2.36485 16.41211-8.9375 2.25906-2.4496 3.94393-5.5512 5.31835-8.40625 14.08007-29.24775-13.53551-54.24674-39.23437-42.87891-25.49953 11.27964-21.54212 52.72536 5.57422 59.23047 4.96728 1.19163 4.96875 1.19289 4.96875 24.52148v23.32813l-20.75 6.73047c-20.26961 6.57398-34.34084 13.021-38.75 15.8457-4.65827 2.98428-3.06229 2.39261 0 1.15625 43.92-17.73215 78.30895-3.39087 123.87305 32.18164 20.25649 15.81453 36.97085 23.93363 58.12695 28.23242 24.09706 4.89639 50.86263 1.5764 81.44922-10.10351l8.05078-3.07422v-65.41211-65.41406h-4.54883c-.0943.0596-.18695.06-.35547.0586h-.37695c-.0109 0-.0229.00012-.0332-.002v.002c-.00001.0151-.0279 0-.043 0h-.17383-.26172l.002-.006c-.14049 0-.26083-.0195-.36328-.0527h-12.82812v.0195.0645.0449c0 .25928-.26172.25928-.26172 0v-.0449-.0645-.0195h-6.25586-25.5l-.78711 39c-.78588 38.99208.52541 36.99218-3.97461 36.99218-4.49987 0-4.23828 2.00781-4.23828-14.99218v-17l-13-.0859-13 .0859v-48.74024l.48047-48.75976-19.49024-19.25-18.4707-18.25h-21.25977z" fill="#868989" transform="matrix(.19 0 0 .42 200.1331 -57.9622)"/><path d="m752.56055 548.46875c.14132.0186.0003.0231-.21094.0215.0771-.008.12992-.0133.21094-.0215z" fill="#118789" transform="matrix(.19 0 0 .42 178.095 77.03)"/><path d="m752.56055 548.46875c.14132.0186.0003.0231-.21094.0215.0771-.008.12992-.0133.21094-.0215z" fill="#007e81" transform="matrix(.19 0 0 .42 178.095 77.03)"/><path d="m830.91211 574.3418c-.0461.0236-.0924.047-.13867.0703-.0805.15362-.15952.30681-.23438.46289-.0191.0399-.0213.0565-.0156.0566.0382-.0233.25283-.33662.38867-.58984z" fill="#007e81" transform="matrix(.19 0 0 .42 178.095 77.03)"/><path d="m772.79102 579.49023c-.0678.034-.13571.0669-.20313.10157-.0102.10654-.0175.19004-.0273.29297.0948-.14937.17294-.28399.23047-.39454z" fill="#007e81" transform="matrix(.19 0 0 .42 178.095 77.03)"/><path d="m752.56055 548.46875c.14132.0186.0003.0231-.21094.0215.0771-.008.12992-.0133.21094-.0215z" fill="#007e81" transform="matrix(.19 0 0 .42 178.095 77.03)"/><path d="m752.56055 548.46875c.14132.0186.0003.0231-.21094.0215.0771-.008.12992-.0133.21094-.0215z" fill="#007e81" transform="matrix(.19 0 0 .42 178.095 77.03)"/><path d="m752.56055 548.46875c.14132.0186.0003.0231-.21094.0215.0771-.008.12992-.0133.21094-.0215z" fill="#007e81" transform="matrix(.19 0 0 .42 178.095 77.03)"/><path d="m752.56055 548.46875c.14132.0186.0003.0231-.21094.0215.0771-.008.12992-.0133.21094-.0215z" fill="#007e81" transform="matrix(.19 0 0 .42 178.095 77.03)"/><path d="m752.56055 548.46875c.14132.0186.0003.0231-.21094.0215.0771-.008.12992-.0133.21094-.0215z" fill="#007e81" transform="matrix(.19 0 0 .42 178.095 77.03)"/><path d="m958.22656 539.91211c-.18363 1.12221-.37228 2.24544-.42187 3.375-.0633 1.4429.18169-.96328.42578-3.35742-.001-.006-.002-.0115-.004-.0176z" fill="#007e81" transform="matrix(.19 0 0 .42 178.095 77.03)"/><path d="m752.56055 548.46875c.14132.0186.0003.0231-.21094.0215.0771-.008.12992-.0133.21094-.0215z" fill="#007e81" transform="matrix(.19 0 0 .42 178.095 77.03)"/><path d="m592.35742 532.55273c-.0198-.0428.17207.47431.38867 1.05274.003-.00088.005-.003.008-.004-.0849-.22599-.1723-.45133-.25586-.67773-.0864-.23415-.13107-.35045-.14063-.3711z" fill="#007e81" transform="matrix(.19 0 0 .42 178.095 77.03)"/><path d="m590.64062 531.33594c-.0924.003-.18468.005-.27734.008.0321.11631.0614.22952.0937.34375.0609-.11736.12594-.23878.18359-.35156z" fill="#007e81" transform="matrix(.19 0 0 .42 178.095 77.03)"/><path d="m464.45117 582.43555c.0884.12043.18312.23705.28516.34765.0641.0695.17901.10676.3125.12696-.19338-.1644-.39397-.3215-.59766-.47461z" fill="#007e81" transform="matrix(.19 0 0 .42 178.095 77.03)"/><path d="m461.14648 582.32617c-.024.016.37255.23742.5293.29102.0431.0147.0683.0212.0977.0312-.19624-.0823-.36169-.24338-.58985-.31641-.0225-.007-.0341-.008-.0371-.006z" fill="#007e81" transform="matrix(.19 0 0 .42 178.095 77.03)"/><g clip-path="url(#l)" transform="matrix(.19 0 0 .42 268.0011 321.2558)"><path d="m473.45312 580.72656c-.0281.0323-.0572.0639-.0859.0957-.13034.41499-.30391.88222-.56641 1.1875-.0735.0854-.15256.16669-.23437.24414.41652-.0922.83054-.19507 1.24218-.30469-.1311-.38917-.2445-.80636-.35547-1.22266z" fill="#007e81" transform="translate(-473.19 -581.49)"/></g><path d="m484.87695 576.70898c-.14752.0222-.28419.0396-.43945.0645-.002.0789-.004.15175-.006.24804.14869-.10397.29854-.20622.44531-.3125z" fill="#007e81" transform="matrix(.19 0 0 .42 178.095 77.03)"/><g clip-path="url(#m)" transform="matrix(.19 0 0 .42 269.4812 317.795)"><path d="m481.01172 573.09375c-.0912.0986-.17601.2015-.26367.30273.16333-.0268.32093-.0545.4707-.082-.0687-.0736-.13345-.14905-.20703-.2207z" fill="#007e81" transform="translate(-480.98 -573.25)"/></g><path d="m472.17188 577.12891c-.0835.001-.31676.007-.42579.01.0513.0752.10514.14743.15625.22266.22124-.0593.3326-.09.45118-.12305-.0622-.0334-.12167-.072-.18164-.10937z" fill="#007e81" transform="matrix(.19 0 0 .42 178.095 77.03)"/><path d="m454.57812 576.89258c-.038-.00043-.0349.0232-.0273.0859.0529.001.10724.00093.16016.002.0328-.0123.0653-.0283.0976-.043-.12258-.0248-.19761-.0445-.23047-.0449z" fill="#007e81" transform="matrix(.19 0 0 .42 178.095 77.03)"/><path d="m458.80078 576.04297c-.12641.39092-.26922.77422-.46289 1.13476.32582-.15038.63696-.4632.91797-.98828-.15163-.0492-.30401-.0942-.45508-.14648z" fill="#007e81" transform="matrix(.19 0 0 .42 178.095 77.03)"/><g clip-path="url(#n)" transform="matrix(.19 0 0 .42 264.4975 292.8974)"><path d="m454.625 513.92188c-.0181.001-.0364.005-.0547.01.11821.0304.22637.0587.35547.0957-.0954-.0605-.19013-.1055-.2832-.10546-.006 0-.0116-.0004-.0176 0z" fill="#007e81" transform="translate(-454.75 -513.97)"/></g><g clip-path="url(#o)" transform="matrix(.19 0 0 .42 265.3601 293.435)"><path d="m459.44336 515.2207c-.0955.008-.19697.008-.30469.002.0213.0204.0416.0376.0625.0566.0808-.0197.1613-.0396.24219-.0586z" fill="#007e81" transform="translate(-459.29 -515.25)"/></g><g clip-path="url(#p)" transform="matrix(.19 0 0 .42 265.3848 293.1158)"><path d="m459.16992 513.85352c-.19373.20682-.41285.42466-.6582.65234.0648.0816.13209.17037.19531.24609.10309-.0606.21952-.12709.35352-.20312.0473-.0269.1125-.11348.16015-.18164-.11344.1784-.25027.35488-.39062.52734.047.0538.0929.10517.13867.1543.0214.00018.0431.001.0645.002.27637.0105.5518.0413.82618.0781.008-.002.0157-.002.0234-.004.0415-.0175.0813-.0372.11914-.0586-.19655-.17625-.32549-.3651-.61523-.73243-.0669-.0847-.11608-.1146-.082-.0957.32863.19564.65431.39606.98047.5957.002-.002.004-.005.006-.008.0166-.0944.0312-.19625.043-.31055-.31974-.14077-.65263-.31098-.99023-.5371-.0584-.0391-.11574-.083-.17383-.125z" fill="#007e81" transform="translate(-459.42 -514.49)"/></g><g clip-path="url(#q)" transform="matrix(.19 0 0 .42 265.3563 292.8638)"><path d="m459.21484 513.80469c-.005.005-.009.0106-.0137.0156.0714.0837.13027.14932.14258.15821-.00032-.003-.008-.0148-.0234-.0371-.0419-.0601-.067-.0844-.10547-.13672z" fill="#007e81" transform="translate(-459.27 -513.89)"/></g><g clip-path="url(#r)" transform="matrix(.19 0 0 .42 264.3911 294.1112)"><path d="m453.7207 516.60352c.0505.0782.0982.15458.14844.23242.13297.0731.36611.20247.51953.28711.0936-.051.18484-.10683.2793-.15625-.32795-.11967-.6586-.24355-.94727-.36328z" fill="#007e81" transform="translate(-454.19 -516.86)"/></g><g clip-path="url(#s)" transform="matrix(.19 0 0 .42 263.3518 306.77)"><path d="m454.77539 511.24609c-7.03592 2.67068-13.20725 7.69127-16.70898 15.16602-10.73454 22.91376-1.15863 49.59427 19.92773 55.52344 1.34711.37878 2.7067.63999 4.06836.8164-.0715-.0254-.11578-.0412-.20508-.0723.0295.008.0582.0142.0899.0176.20322-.0488.40799-.0974.61132-.14649.72892-.17596 1.11256-.37299 1.25-.58594-.2851-.20636-.56941-.41466-.84375-.63281 0-.1616-.0007-.32278-.002-.48437-.84798-.51576-2.08277-1.05919-2.90039-1.58594-.3127-.10523-.62465-.21409-.93359-.33008-.20667-.0776-2.43189-.99373-3.4336-1.75976-.0163-.004-.0651-.0168-.0762-.0195-.23782-.0586-.46951-.14266-.70898-.19336-.0237.006-.0571.0175-.0762.0215-.32711.0677-.99034.11053-1.43164.0879-.20999-.004-.41876.006-.6289.006-.16872-.001-.33729-.002-.50586-.002-4.9613.003-5.34654-4.61428-1.1582-5.33594-.67739-.55309-1.33871-1.14339-1.97657-1.78125-14.15544-14.15546-10.40886-43.99461 5.00196-52.68946-.091-.14506-.16966-.28088-.26563-.42968-2.23067-1.22655-1.55302-.81506-.14844-.23242-.33063-.51225-.65921-1.02539-.87695-1.47461-.30591.27975-.55465.54846-.75195.78125-.0149.0229-.032.0439-.0508.0644l-.006.006c-.71046.85565-.68908 1.13453-.24219-.67969.10867-.16354.21756-.32659.32617-.49023.0131-.0324.0271-.0693.0391-.0957.44968-.99194.72081-1.25464 1.23438-1.54492.30932-.55066.35153-.59154.77539-1.15039.20296-.2612.40185-.5216.60742-.77344z" fill="#007e81" transform="translate(-448.72 -547)"/></g><g clip-path="url(#t)" transform="matrix(.19 0 0 .42 266.0707 290.9654)"><path d="m463.02148 509.35742v.002s.002.002.002.002c.00092.002.005.007.006.01.001.002.003.008.004.01.00061-.003-.0006-.007 0-.01-.003-.004-.008-.0107-.01-.0137h-.002z" fill="#007e81" transform="translate(-463.03 -509.37)"/></g><g clip-path="url(#u)" transform="matrix(.19 0 0 .42 376.6241 260.5532)"><path d="m1043.5176 436.74805c.2527.0695.5084.13818.7734.20703.2787.0724.5292.14247.8047.21484.483-.0451.8868-.16702 1.168-.40234-.069-.004-.1358-.003-.2051-.008-.8472.003-1.694-.008-2.541-.0117z" fill="#007e81" transform="translate(-1044.89 -436.96)"/></g><g clip-path="url(#v)" transform="matrix(.19 0 0 .42 377.1048 260.6288)"><path d="m1047.1562 436.80664c.1624.21772.3295.44073.4981.66406.01-.0271.019-.0568.029-.0859-.1128-.17167-.2158-.36262-.3106-.57227-.072-.001-.1446-.004-.2168-.006z" fill="#007e81" transform="translate(-1047.42 -437.14)"/></g><path d="m1044.002 408.89648c-.062.002-.1239.003-.1856.006.3726.1755.7508.3388 1.1426.46485.47.15114-.2144-.13422-.957-.47071z" fill="#007e81" transform="matrix(.19 0 0 .42 178.095 77.03)"/><path d="m918.48047 458.64648c.0499.14781 1.40896.60569 1.94336.73047.40132.0171.60967.023.85742.0312-.95912-.12568-1.82994-.38284-2.80078-.76172z" fill="#007e81" transform="matrix(.19 0 0 .42 178.095 77.03)"/><path d="m934.32617 457.40039c-.35155.0803-.68766.17198-.98437.28516.0148.0365.0287.0728.043.10937.21683-.0642.44623-.1411.56835-.20508.12237-.0642.24821-.12629.37305-.18945z" fill="#007e81" transform="matrix(.19 0 0 .42 178.095 77.03)"/><path d="m942.45898 455.82812c-.0758.025-.15177.0498-.22851.0742.0263.0566.0526.11323.0781.16993.0494-.0814.10023-.16285.15039-.24415z" fill="#007e81" transform="matrix(.19 0 0 .42 178.095 77.03)"/><path d="m596.66797 454.34375c-.12392.0109-.24729.0272-.37109.0391.12332.20388.22581.39217.35351.59961.006-.21232.0128-.41206.0176-.63867z" fill="#007e81" transform="matrix(.19 0 0 .42 178.095 77.03)"/><path d="m756.04492 423.44336c-1.16597.45776-1.48008.58244.0117.0195-.004-.006-.007-.0133-.0117-.0195z" fill="#007e81" transform="matrix(.19 0 0 .42 178.095 77.03)"/><path d="m757.07812 423.03711c-.0214.008-.0237.009-.0449.0176-.00066.0117-.001.0245 0 .041.0154-.006.0528-.0195.0684-.0254-.009-.0139-.0165-.0248-.0234-.0332z" fill="#007e81" transform="matrix(.19 0 0 .42 178.095 77.03)"/><path d="m756.04492 423.44336c-1.16597.45776-1.48008.58244.0117.0195-.004-.006-.007-.0133-.0117-.0195z" fill="#007e81" transform="matrix(.19 0 0 .42 178.095 77.03)"/><path d="m757.07812 423.03711c-.0214.008-.0237.009-.0449.0176-.00066.0117-.001.0245 0 .041.0154-.006.0528-.0195.0684-.0254-.009-.0139-.0165-.0248-.0234-.0332z" fill="#007e81" transform="matrix(.19 0 0 .42 178.095 77.03)"/><path d="m441.3457 275.24023c-.004.002-.009.003-.0117.004.002-.001.008-.002.0117-.004z" fill="#007e81" transform="matrix(.19 0 0 .42 178.095 77.03)"/><path d="m439.19336 274.63281c-.0798.0142-.0646.0171-.0176.0156.006-.005.0119-.0103.0176-.0156z" fill="#007e81" transform="matrix(.19 0 0 .42 178.095 77.03)"/><path d="m842.01367 255.54492c-25.64063-.49314-51.40369 10.00736-82.79101 33.82227-33.68659 25.55947-57.25268 33.35845-101.17578 33.48242-12.19646.0344-21.64645.35251-21 .70703 5.10531 2.80029 25.91295 8.07087 38.17578 10.23438 6.13844 1.08303 19.95274 3.39377 40.89567-2.19116 22.17823-5.91455 36.98969-12.34674 59.48128-29.97877 37.77778-29.6154 65.17204-41.12605 101.62305-32.8164 31.49733 7.18036 26.0152 5.55895 12-.99805-16.48388-7.71198-31.82461-11.96584-47.20899-12.26172z" fill="#007e81" transform="matrix(.19 0 0 .42 178.095 77.03)"/><path d="m499.98242 246.19531c-26.799.54628-51.23705 10.21756-76.23828 28.99805-.0378.0589-.0872.0916-.13867.10547-2.49567 1.87792-4.98997 3.74303-7.5 5.80469-3.86346 3.17333-3.80651 3.16058 10.86328-2.26758 4.27182-1.58066 8.10293-2.75632 12.07422-4.06641l.008-.008c-.0584-.0613-.0567-.11603.0937-.15234.0778-.0179.14815-.0233.22461-.008.0665-.0328.15713-.063.21094-.0547.0238.004.0472.0104.0703.0176 48.48339-15.88067 77.05893-11.49283 138.07227 18.7793 26.66381 13.22944 40.91883 18.04382 63.5 21.44336 30.16577 4.5414 73.61174-5.37654 105.33203-24.04492 11.09329-6.52875 11.11026-6.88421.1875-4.27539-61.35753 14.65485-97.22563 11.97964-148.98438-11.78321-.0425.0252-.0748.02-.0898-.041-3.37474-1.55042-6.6036-2.90741-10.12695-4.64063-33.22301-16.34323-61.50885-24.33765-87.5586-23.80664z" fill="#007e81" transform="matrix(.19 0 0 .42 178.095 77.03)"/><path d="m-6.746873-.000013h13.493745v.000026h-13.493745z" fill="#868989" transform="matrix(.7182 0 0 1.5876 327.6668 126.3422)"/><path d="m-3.308896-.792501h6.617793v1.585002h-6.617793z" fill="#868989" transform="matrix(.7182 0 0 1.5876 330.1368 127.6022)"/><text transform="matrix(.7315 0 0 1.5582 311.9367 257.1974)"/><g clip-path="url(#w)" transform="matrix(.7315 0 0 1.5582 426.6245 257.315)"><text fill="#007e81" font-family="'HelveticaNeue LT 45 Light'" font-size="26.1156" stroke-width=".272037"><tspan x="-158.51" y="8.2">Planning AppealsCommission</tspan></text></g><g clip-path="url(#x)" transform="matrix(.7182 0 0 1.5876 266.7338 322.5116)"><path d="m93.702579 181.62241c.11158 0 .220517 0 .273662.0122.05314.0122.05314.034.326853.0545.27371.0206.818384.0424 1.123551.076s.370537.0772.432844.11877" fill="none" stroke="#000" stroke-width=".264583" transform="translate(-94.78 -181.75)"/></g><ellipse fill="#868989" rx="8.226652" ry="8.59639" transform="matrix(.7182 0 0 1.5876 292.7296 118.7024)"/></svg>