<?xml version="1.0" encoding="utf-8"?>
<!-- Generator: Adobe Illustrator 25.2.3, SVG Export Plug-In . SVG Version: 6.00 Build 0)  -->
<svg version="1.0" id="Layer_1" xmlns="http://www.w3.org/2000/svg" xmlns:xlink="http://www.w3.org/1999/xlink" x="0px" y="0px"
	 viewBox="0 0 250 250" style="enable-background:new 0 0 250 250;" xml:space="preserve">
<style type="text/css">
	.st0{fill-rule:evenodd;clip-rule:evenodd;fill:#4E225D;}
	.st1{fill-rule:evenodd;clip-rule:evenodd;fill:#C9B57B;}
</style>
<path class="st0" d="M55.46,144.96L9.6,91.4l-7.87,0.08l-0.07,68.83h9.13l0.07-53.04l45.42,52.96l8.32,0.08l0.07-68.83l-9.2-0.08
	V144.96z M121.36,150.53c-20.61-7.66-17.14-27.24-17.14-27.24c2.96-23.64,25.9-23.47,25.9-23.47c15.26-0.02,24.41,6.92,24.41,6.92
	V96.22c-10.05-4.46-19.22-5.64-19.22-5.64c-20.92-1.81-31.02,10.53-31.02,10.53c-18.96,19.62-5.87,42.05-5.87,42.05
	c10.24,19.29,32.5,17.97,32.5,17.97c16.17-0.54,24.34-5.95,24.34-5.95l0.07-10.83C135.67,156.66,121.36,150.53,121.36,150.53z
	 M75.94,160.23h9.58V91.47l-9.5,0.08L75.94,160.23z"/>
<g>
	<path class="st1" d="M185.49,114.49l13.5,11.43l49.58-62.29l-49.58,78.83L185.49,114.49z"/>
	<path class="st0" d="M211.68,103.35l5.93-7.52c0,0-7-5.5-21.89-5.34c0,0-16.58-0.22-27.16,13.47c0,0-14.91,17.09-1.86,41.44
		c0,0,9.58,16.04,29.98,15.8c0,0,29.48,1.53,36.89-26.92c0,0,2.13-8.31-0.37-17.9c0,0-2.28-6.95-5.93-11.89l-5.72,9.1
		c0,0,5.38,9.56,1.41,21.29c0,0-4.3,16.26-24.56,17.3c0,0-14.39,1.06-22.41-10.68c0,0-10.7-14.41-0.15-30.7
		c0,0,5.52-9.73,19.74-10.91C195.58,99.89,201.88,98.59,211.68,103.35L211.68,103.35z"/>
</g>
</svg>
