<?xml version="1.0" standalone="no"?>
<!DOCTYPE svg PUBLIC "-//W3C//DTD SVG 20010904//EN"
 "http://www.w3.org/TR/2001/REC-SVG-20010904/DTD/svg10.dtd">
<svg version="1.0" xmlns="http://www.w3.org/2000/svg"
 width="700.000000pt" height="700.000000pt" viewBox="0 0 700.000000 700.000000"
 preserveAspectRatio="xMidYMid meet">
<metadata>
Created by potrace 1.14, written by Peter Selinger 2001-2017
</metadata>
<g transform="translate(0.000000,700.000000) scale(0.100000,-0.100000)"
fill="#000000" stroke="none">
<path d="M3256 6898 c-79 -82 -81 -157 -10 -305 27 -54 55 -103 63 -110 26
-20 142 -16 192 6 44 20 98 68 117 106 5 11 10 69 10 130 l0 109 -45 46 -45
45 -126 2 -127 2 -29 -31z"/>
<path d="M4081 6664 c-67 -97 -242 -251 -361 -316 -50 -28 -152 -68 -190 -75
-14 -2 -41 -8 -60 -12 -68 -14 -192 -1 -285 31 -166 57 -323 161 -458 303
l-47 50 15 -43 c48 -139 164 -330 260 -427 134 -135 268 -196 430 -196 62 0
74 2 160 22 95 22 234 109 301 189 12 14 32 36 44 50 33 37 89 126 127 202 36
71 96 235 91 249 -2 5 -14 -8 -27 -27z"/>
<path d="M4257 6587 c-2 -23 -3 -112 -2 -197 2 -123 7 -172 24 -234 54 -197
167 -342 326 -420 196 -95 452 -59 699 99 77 49 260 195 244 195 -3 0 -31 -11
-63 -25 -58 -26 -191 -67 -255 -80 -19 -4 -85 -8 -147 -11 -282 -10 -505 105
-659 341 -30 45 -54 86 -54 89 0 3 -11 29 -24 58 -25 57 -51 134 -61 185 -10
48 -22 49 -28 0z"/>
<path d="M4841 6606 c-7 -8 -22 -17 -35 -20 -16 -4 -32 -23 -50 -59 -37 -77
-37 -179 0 -243 38 -65 87 -88 193 -90 80 -2 87 0 130 31 41 28 47 37 53 80 4
26 12 53 17 58 21 21 13 122 -13 167 -36 64 -94 90 -200 90 -60 0 -87 -4 -95
-14z"/>
<path d="M2512 6544 c-37 -202 -119 -381 -239 -519 -37 -42 -131 -112 -198
-147 -121 -62 -207 -82 -355 -83 -147 0 -238 15 -385 65 l-60 20 45 -40 c108
-97 280 -192 426 -236 73 -22 110 -27 204 -27 178 -1 301 45 408 154 100 100
160 229 187 394 18 114 10 371 -14 461 -6 23 -9 17 -19 -42z"/>
<path d="M1781 6509 c-133 -71 -151 -168 -70 -364 7 -16 13 -34 13 -38 2 -22
44 -37 104 -37 52 0 77 6 136 34 87 42 126 78 127 120 5 106 -8 151 -54 198
-12 13 -31 34 -42 48 -36 46 -66 60 -125 59 -32 -1 -69 -9 -89 -20z"/>
<path d="M5623 5832 c-71 -107 -96 -153 -136 -257 -165 -419 10 -782 423 -876
63 -14 233 -17 334 -6 69 7 250 47 244 53 -2 1 -35 5 -73 9 -110 9 -186 23
-269 50 -284 93 -453 275 -512 554 -15 73 -21 266 -10 321 3 13 8 40 11 60 3
19 14 64 25 99 11 36 18 66 17 68 -2 1 -26 -32 -54 -75z"/>
<path d="M1184 5765 c48 -126 73 -375 52 -528 -10 -71 -52 -195 -86 -254 -110
-192 -379 -356 -658 -403 -75 -12 -83 -17 -41 -25 13 -3 47 -9 74 -14 280 -54
537 -10 695 118 89 73 139 141 183 252 90 227 34 498 -165 797 -46 68 -67 91
-54 57z"/>
<path d="M6045 5575 c-28 -20 -52 -41 -54 -48 -2 -7 -10 -19 -17 -28 -9 -10
-14 -44 -15 -98 -1 -78 1 -85 32 -129 55 -80 75 -91 152 -92 80 0 108 12 164
73 46 50 54 76 50 164 -4 66 -26 109 -86 166 -26 24 -36 27 -103 27 -68 0 -77
-3 -123 -35z"/>
<path d="M673 5403 c-26 -13 -63 -39 -81 -58 -33 -33 -33 -36 -33 -119 0 -96
23 -158 66 -178 13 -6 26 -19 28 -29 3 -12 14 -19 29 -20 12 0 43 -1 67 -3 29
-1 50 4 64 16 11 10 28 18 38 18 10 0 27 13 38 29 12 16 31 31 44 35 23 5 24
10 24 82 0 46 -6 92 -16 117 -18 47 -60 111 -68 103 -3 -3 -22 3 -42 13 -47
24 -98 22 -158 -6z"/>
<path d="M6486 4570 c-322 -180 -499 -417 -500 -665 0 -326 224 -567 638 -687
118 -34 143 -35 96 -7 -19 12 -37 24 -40 28 -3 3 -21 18 -41 33 -150 112 -298
316 -349 483 -73 241 26 558 255 813 26 28 43 52 38 52 -4 0 -48 -23 -97 -50z"/>
<path d="M421 4380 c203 -184 322 -416 322 -625 0 -109 -34 -248 -85 -348 -60
-119 -212 -293 -315 -362 -24 -15 -43 -29 -43 -31 0 -7 113 31 192 66 517 226
646 688 298 1064 -89 97 -266 221 -395 279 -38 17 -37 16 26 -43z"/>
<path d="M6628 4119 c-20 -11 -55 -40 -77 -64 -38 -41 -41 -49 -41 -99 0 -68
25 -120 85 -175 44 -41 45 -41 121 -41 l77 0 44 47 c64 69 73 87 73 142 0 61
-25 112 -80 166 -37 36 -45 39 -102 41 -47 2 -73 -3 -100 -17z"/>
<path d="M126 3923 c-73 -57 -89 -90 -88 -188 0 -81 1 -85 37 -128 52 -62 83
-78 157 -79 98 -1 106 1 112 20 4 11 17 24 29 31 41 22 61 74 62 164 2 79 1
84 -32 126 -51 68 -117 99 -168 81 -11 -4 -30 -4 -42 1 -16 6 -31 0 -67 -28z"/>
<path d="M6534 3083 c-278 -40 -467 -138 -582 -300 -65 -92 -111 -235 -111
-343 0 -66 24 -175 51 -239 32 -72 121 -200 187 -268 67 -69 192 -175 199
-169 2 3 -10 25 -28 51 -43 63 -114 217 -133 290 -94 355 17 644 326 849 82
54 220 126 244 126 6 0 14 4 17 9 7 11 -72 9 -170 -6z"/>
<path d="M345 2911 c2 -5 26 -16 52 -26 252 -94 439 -248 537 -443 107 -211
86 -513 -55 -795 l-41 -82 38 35 c220 204 347 427 361 636 12 174 -53 345
-175 461 -94 89 -260 168 -397 189 -16 2 -37 6 -45 9 -43 14 -283 27 -275 16z"/>
<path d="M6492 2591 c-45 -18 -107 -72 -126 -111 -17 -35 -11 -126 12 -180 21
-49 91 -119 120 -121 116 -5 174 11 230 64 46 43 59 73 59 132 1 84 -31 148
-106 210 -30 26 -130 29 -189 6z"/>
<path d="M414 2390 c-34 -17 -64 -38 -68 -48 -3 -9 -17 -37 -32 -62 -30 -53
-37 -105 -19 -140 7 -14 15 -41 19 -60 7 -41 23 -57 89 -89 60 -29 93 -33 136
-15 18 8 45 16 59 19 34 6 59 31 87 88 33 64 31 102 -5 180 -16 36 -30 74 -30
84 0 26 -92 73 -140 73 -19 0 -63 -14 -96 -30z"/>
<path d="M5565 1760 c-233 -35 -412 -181 -481 -394 -33 -100 -40 -259 -19
-381 17 -90 67 -249 99 -312 l21 -42 1 172 c1 156 4 180 28 262 115 386 402
579 848 571 65 -1 118 -1 118 1 0 6 -78 38 -160 66 -152 52 -334 75 -455 57z"/>
<path d="M1284 1640 c-142 -32 -322 -102 -384 -150 l-25 -19 40 11 c45 12 292
17 370 6 149 -19 323 -93 417 -178 164 -147 272 -420 271 -688 0 -46 3 -80 7
-75 8 9 52 143 69 208 53 211 42 425 -31 570 -71 141 -213 259 -374 311 -74
24 -260 26 -360 4z"/>
<path d="M5648 1230 c-66 -41 -88 -90 -88 -195 0 -61 4 -88 15 -99 8 -8 15
-19 15 -25 0 -5 14 -18 30 -28 17 -9 30 -20 30 -24 0 -29 206 -42 229 -15 7 8
22 17 34 20 40 10 74 89 76 178 2 68 -1 83 -25 123 -38 65 -95 92 -195 92 -66
1 -82 -3 -121 -27z"/>
<path d="M1351 1114 c-46 -16 -75 -34 -106 -67 -40 -41 -43 -48 -41 -93 4 -73
32 -143 79 -197 41 -46 44 -48 102 -51 101 -4 207 51 237 124 25 59 9 163 -34
219 -10 13 -18 32 -18 42 0 46 -117 59 -219 23z"/>
<path d="M4193 1015 c-104 -27 -156 -51 -234 -111 -159 -122 -272 -375 -295
-661 l-6 -78 37 75 c157 322 437 523 730 522 183 0 384 -69 543 -186 59 -44
62 -45 48 -18 -56 108 -226 295 -332 363 -167 109 -317 138 -491 94z"/>
<path d="M2725 986 c-114 -25 -223 -78 -327 -157 -91 -71 -251 -244 -292 -318
-8 -15 -8 -15 10 0 99 84 305 190 419 215 145 33 315 31 405 -5 132 -52 225
-115 332 -223 64 -65 189 -241 202 -285 4 -11 13 -27 22 -34 12 -9 14 -9 10 2
-3 8 -7 43 -11 79 -7 81 -36 204 -67 291 -79 215 -228 366 -418 423 -73 22
-210 28 -285 12z"/>
<path d="M4322 519 c-37 -8 -100 -60 -124 -103 -12 -22 -17 -55 -18 -120 l0
-88 45 -45 c59 -58 94 -71 185 -69 70 1 78 3 118 36 64 52 82 94 82 187 0 72
-2 81 -30 113 -16 19 -30 38 -30 41 0 4 -18 16 -39 28 -42 21 -135 31 -189 20z"/>
<path d="M2733 440 c-106 -57 -130 -108 -114 -247 0 -6 26 -36 55 -66 41 -41
65 -57 93 -61 130 -22 245 65 245 186 0 87 -1 90 -62 150 l-60 58 -62 -1 c-38
-1 -75 -8 -95 -19z"/>
</g>
</svg>
