<?xml version="1.0" standalone="no"?>
<!DOCTYPE svg PUBLIC "-//W3C//DTD SVG 20010904//EN"
 "http://www.w3.org/TR/2001/REC-SVG-20010904/DTD/svg10.dtd">
<svg version="1.0" xmlns="http://www.w3.org/2000/svg"
 width="700.000000pt" height="700.000000pt" viewBox="0 0 700.000000 700.000000"
 preserveAspectRatio="xMidYMid meet">
<metadata>
Created by potrace 1.14, written by Peter Selinger 2001-2017
</metadata>
<g transform="translate(0.000000,700.000000) scale(0.100000,-0.100000)"
fill="#000000" stroke="none">
<path d="M987 4444 c-1 -1 -27 -5 -57 -8 -53 -6 -80 -10 -145 -22 -59 -11 -64
-14 -63 -42 1 -15 -2 -88 -6 -162 -4 -74 -9 -166 -11 -205 -5 -97 -8 -586 -3
-590 2 -2 83 -6 179 -9 l175 -5 0 192 c1 296 15 695 29 819 l4 38 -50 -2 c-28
-2 -51 -4 -52 -4z"/>
<path d="M1414 4369 c4 -46 9 -115 11 -153 3 -38 6 -71 8 -72 1 -1 80 -4 175
-6 148 -3 172 -1 173 12 1 20 -3 116 -6 160 -2 19 -4 49 -4 66 -1 30 -4 32
-44 38 -44 7 -75 12 -132 21 -16 3 -65 8 -108 11 l-79 6 6 -83z"/>
<path d="M2644 4395 c-82 -24 -124 -60 -157 -135 -54 -119 3 -267 121 -317 77
-32 208 -9 256 46 19 21 19 21 -4 45 l-22 25 -40 -26 c-54 -36 -129 -38 -177
-4 -63 45 -85 145 -48 217 44 84 145 107 227 51 l34 -24 23 28 c13 15 23 30
23 33 0 12 -78 55 -111 61 -64 12 -85 12 -125 0z"/>
<path d="M3082 4395 c-171 -39 -241 -258 -124 -387 97 -108 272 -107 365 3
103 119 63 308 -77 370 -56 24 -100 28 -164 14z m134 -90 c127 -75 93 -279
-51 -302 -47 -7 -116 19 -142 55 -108 147 40 336 193 247z"/>
<path d="M3449 4396 c-1 -1 -2 -106 -3 -234 l-2 -232 40 2 41 3 -1 158 c-1 86
2 157 5 156 3 0 35 -45 71 -99 36 -55 67 -100 70 -100 3 0 36 47 74 105 38 58
70 105 70 105 1 0 2 -73 1 -162 l0 -163 41 -3 41 -3 0 230 c0 163 -3 231 -11
232 -78 8 -70 14 -146 -104 l-71 -109 -66 103 c-36 57 -67 106 -69 108 -3 3
-81 10 -85 7z"/>
<path d="M3984 4388 c-4 -6 -6 -96 -6 -202 0 -287 -5 -256 41 -256 l39 0 -2
139 c0 77 1 149 4 160 4 15 20 -3 70 -79 36 -55 68 -99 71 -100 3 0 37 46 75
103 l69 102 3 -162 2 -163 40 0 40 0 0 230 c0 177 -3 230 -12 232 -70 8 -69 8
-144 -105 l-71 -109 -70 109 c-67 104 -71 108 -106 109 -21 1 -40 -3 -43 -8z"/>
<path d="M4507 4386 c-10 -26 0 -321 12 -351 17 -41 49 -74 91 -92 47 -19 141
-18 182 3 88 44 100 76 104 282 2 89 1 162 -3 163 -30 4 -73 4 -74 -1 -1 -3
-2 -72 -3 -155 -3 -173 -13 -206 -70 -225 -65 -21 -134 9 -153 69 -5 14 -9 90
-8 169 0 78 -2 142 -5 143 -43 7 -69 5 -73 -5z"/>
<path d="M4975 4391 c-3 -2 -5 -107 -5 -233 l0 -228 40 0 40 0 2 162 3 162
125 -161 c115 -149 127 -161 157 -161 l32 0 3 142 c2 77 2 182 0 232 l-3 92
-37 -3 -37 -2 0 -156 c0 -184 16 -186 -142 18 -100 129 -111 140 -141 141 -18
0 -35 -2 -37 -5z"/>
<path d="M5450 4164 l0 -234 40 0 40 0 0 230 c0 127 -3 230 -7 231 -5 0 -23 2
-40 4 l-33 3 0 -234z"/>
<path d="M5584 4391 c-2 -2 -4 -19 -4 -38 0 -35 1 -36 67 -33 84 3 81 11 81
-178 0 -231 -3 -210 35 -207 17 2 35 3 40 4 4 0 7 86 7 191 l0 189 72 3 73 3
1 33 c1 17 -2 33 -5 33 -19 4 -363 4 -367 0z"/>
<path d="M6006 4391 c-3 -4 35 -68 83 -143 72 -110 89 -142 89 -174 0 -21 1
-62 1 -89 l1 -51 40 1 40 0 0 92 0 91 90 136 c50 75 90 138 90 139 0 1 -21 3
-46 3 l-45 0 -62 -98 c-34 -54 -65 -98 -68 -98 -4 0 -33 42 -64 93 -32 50 -60
93 -61 95 -5 7 -84 10 -88 3z"/>
<path d="M1115 4087 c-11 -29 -11 -339 -1 -342 6 -2 180 -6 386 -9 206 -3 411
-8 455 -11 44 -3 108 -7 142 -9 l62 -4 -4 36 c-2 21 -7 62 -10 92 -3 30 -11
87 -17 125 -6 39 -11 75 -12 82 -3 21 -11 24 -87 29 -41 2 -103 7 -139 10 -36
3 -224 7 -418 9 -274 4 -354 2 -357 -8z"/>
<path d="M628 4085 c-2 -1 -54 -5 -117 -9 -63 -3 -115 -7 -117 -9 -6 -6 -34
-184 -42 -270 l-8 -88 90 6 c50 4 120 8 155 10 35 2 65 5 66 7 2 2 5 81 7 177
3 157 1 174 -14 177 -9 1 -18 1 -20 -1z"/>
<path d="M4845 3783 c-119 -14 -204 -105 -211 -226 -8 -144 92 -247 240 -249
202 -3 312 224 188 389 -40 53 -143 94 -217 86z m115 -103 c71 -50 88 -167 35
-236 -120 -157 -347 7 -256 185 40 78 148 103 221 51z"/>
<path d="M5744 3778 c-75 -16 -127 -93 -110 -164 13 -51 52 -75 183 -115 55
-16 77 -40 69 -74 -13 -52 -114 -59 -185 -12 l-39 26 -21 -23 c-28 -30 -27
-38 11 -61 54 -33 90 -43 151 -44 105 -2 167 50 167 140 0 56 -44 100 -125
124 -99 29 -116 37 -124 59 -26 68 55 98 149 55 l45 -20 17 22 c27 33 22 45
-29 67 -60 25 -106 31 -159 20z"/>
<path d="M2466 3771 c-2 -3 -3 -107 -2 -231 l1 -225 30 -1 c49 -2 51 2 50 81
-2 81 -5 77 60 77 14 0 29 0 34 -1 5 -1 34 -37 65 -80 54 -77 56 -79 95 -77
21 0 42 3 44 6 3 3 -21 41 -53 85 l-58 80 34 18 c95 49 99 192 7 248 -30 19
-51 22 -169 24 -74 1 -136 -1 -138 -4z m261 -86 c41 -28 37 -101 -6 -125 -11
-5 -54 -12 -95 -14 -88 -5 -89 -4 -77 142 2 18 150 16 178 -3z"/>
<path d="M2910 3770 c-5 -3 -8 -103 -7 -230 l2 -225 170 0 170 0 3 38 3 37
-133 0 -134 0 0 60 1 60 116 0 117 0 -3 33 c-2 17 -3 34 -4 37 -1 3 -51 6
-113 5 l-112 0 -2 53 c-1 40 3 55 14 59 8 4 58 6 111 5 129 -1 136 1 139 38 1
16 -1 31 -5 31 -25 5 -325 4 -333 -1z"/>
<path d="M3309 3766 c0 -13 0 -389 0 -427 l1 -25 160 0 160 0 0 38 0 38 -120
0 -120 0 0 193 0 192 -40 1 c-23 1 -40 -4 -41 -10z"/>
<path d="M3747 3555 c-53 -122 -97 -227 -97 -233 0 -13 72 -10 77 4 2 5 14 29
26 54 l22 45 105 0 105 0 27 -56 c26 -55 28 -57 65 -55 21 1 37 6 36 12 -1 5
-45 109 -98 231 l-97 222 -37 -1 -38 0 -96 -223z m175 30 c40 -95 44 -88 -42
-87 -86 1 -82 -8 -41 87 20 46 38 85 41 85 3 0 22 -38 42 -85z"/>
<path d="M4074 3771 c-2 -2 -4 -19 -4 -37 l0 -33 73 -3 72 -3 0 -190 0 -190
40 0 40 0 2 145 c1 80 2 166 2 193 l1 47 73 0 73 0 -2 33 c-1 17 -2 34 -3 37
-1 6 -361 7 -367 1z"/>
<path d="M4499 3770 c-4 -23 -3 -444 1 -450 3 -4 22 -7 42 -7 l37 1 -2 231 -2
230 -37 0 c-21 1 -38 -2 -39 -5z"/>
<path d="M5165 3766 c-2 -6 -3 -110 -2 -231 l2 -220 38 -1 c43 -1 39 -18 39
179 0 75 3 135 8 132 5 -3 51 -60 102 -127 152 -198 146 -193 208 -179 9 2 5
446 -3 452 -5 3 -23 6 -40 5 l-32 -1 0 -158 c0 -86 -1 -157 -2 -157 0 0 -54
69 -119 153 -64 83 -119 154 -121 156 -8 10 -75 7 -78 -3z"/>
<path d="M1451 3691 c-4 -4 -8 -96 -8 -206 0 -202 -9 -529 -19 -685 -11 -166
-13 -155 26 -155 36 -1 198 19 260 31 19 3 41 7 48 7 6 0 12 3 13 6 4 24 20
299 24 418 5 132 7 575 3 579 -6 5 -338 10 -347 5z"/>
<path d="M2087 3384 c-2 -2 -175 -13 -219 -14 l-26 0 -2 -132 c-1 -73 -3 -152
-4 -175 -2 -47 5 -53 55 -47 19 2 74 5 122 8 49 2 91 6 93 9 5 5 8 17 24 107
8 46 13 95 24 228 1 13 -7 17 -32 18 -18 0 -33 -1 -35 -2z"/>
<path d="M344 3349 c3 -19 8 -65 11 -102 4 -37 8 -78 11 -90 2 -12 8 -46 14
-76 5 -30 11 -55 12 -56 18 -15 977 -39 991 -25 7 7 14 350 8 351 -3 0 -132 2
-286 4 -295 4 -450 9 -647 21 l-119 6 5 -33z"/>
<path d="M2665 3162 c-67 -12 -127 -50 -159 -101 -83 -133 -28 -311 113 -359
80 -28 199 -4 247 49 17 19 17 21 -7 44 l-24 25 -39 -27 c-49 -36 -128 -37
-174 -5 -72 52 -90 169 -36 239 50 66 134 79 209 33 l37 -23 26 26 c21 21 23
28 13 41 -32 39 -142 70 -206 58z"/>
<path d="M3087 3158 c-56 -12 -91 -33 -129 -78 -104 -120 -64 -302 79 -370 66
-31 169 -25 230 13 62 39 99 93 110 162 3 17 5 32 6 35 0 3 -2 26 -6 51 -21
131 -154 216 -290 187z m120 -85 c74 -35 109 -140 73 -221 -24 -53 -69 -83
-130 -87 -130 -7 -210 143 -136 255 44 66 121 88 193 53z"/>
<path d="M4517 3155 c-60 -15 -114 -58 -147 -116 -20 -36 -25 -57 -24 -114 1
-81 24 -136 75 -179 87 -74 228 -76 311 -5 l33 28 -26 27 -27 27 -35 -27 c-57
-44 -144 -41 -194 6 -79 74 -64 222 28 268 51 27 91 25 151 -5 53 -27 67 -24
89 16 8 15 3 23 -29 42 -62 40 -132 51 -205 32z"/>
<path d="M3435 2995 c2 -188 15 -235 80 -275 79 -49 211 -35 265 26 42 48 50
90 50 260 l0 150 -40 0 c-35 0 -40 -3 -40 -23 -1 -13 -1 -79 -1 -148 0 -69 -5
-139 -10 -155 -28 -78 -156 -88 -204 -14 -16 24 -18 49 -19 184 l0 156 -41 0
-41 0 1 -161z"/>
<path d="M3897 3152 c-3 -4 -5 -109 -6 -233 l-1 -225 40 0 40 0 0 158 c0 87 3
158 8 158 4 -1 36 -40 72 -88 156 -207 176 -230 209 -228 l31 1 0 232 0 231
-37 -2 -38 -2 -3 -158 -3 -157 -74 98 c-147 195 -168 217 -202 220 -18 2 -34
-1 -36 -5z"/>
<path d="M4806 3151 c-2 -3 -3 -107 -2 -231 l1 -225 40 0 40 0 0 231 0 231
-38 0 c-21 0 -39 -3 -41 -6z"/>
<path d="M4949 3147 c-4 -41 -3 -440 1 -446 3 -4 76 -7 163 -7 l157 0 0 38 0
38 -120 0 -120 0 -1 28 c0 15 -1 101 -2 191 l-2 164 -37 3 c-25 2 -38 -1 -39
-9z"/>
<path d="M723 2963 c-7 -2 -10 -10 -8 -16 2 -7 6 -65 9 -130 3 -65 7 -121 10
-126 7 -10 142 -32 289 -46 l68 -7 -6 88 c-8 110 -13 194 -14 214 -1 14 -25
16 -163 18 -89 2 -164 4 -167 6 -3 2 -11 1 -18 -1z"/>
<path d="M3443 2343 c1 -71 6 -118 12 -118 6 0 11 48 13 118 2 98 0 117 -12
117 -13 0 -15 -19 -13 -117z"/>
<path d="M4599 2458 c-1 -2 -2 -54 -3 -115 -1 -84 2 -114 11 -117 10 -4 13 21
13 114 0 73 -4 120 -10 120 -5 0 -11 -1 -11 -2z"/>
<path d="M3049 2443 c0 -5 -1 -47 -2 -96 -2 -77 0 -87 16 -87 15 0 17 10 17
79 0 44 -3 86 -6 95 -6 16 -23 22 -25 9z"/>
<path d="M5318 2443 c-3 -4 -4 -20 -3 -34 2 -25 0 -26 -37 -21 -46 6 -67 -15
-68 -63 0 -55 39 -83 84 -60 14 8 24 10 21 5 -4 -6 2 -10 12 -10 16 0 18 9 18
85 0 49 -5 89 -11 95 -7 7 -14 8 -16 3z m-12 -99 c16 -24 16 -26 -3 -46 -17
-16 -24 -18 -42 -9 -25 14 -27 43 -5 65 21 22 31 20 50 -10z"/>
<path d="M6038 2437 c0 -7 -2 -16 -3 -22 -2 -5 -3 -15 -4 -22 -1 -9 -8 -10
-23 -4 -16 6 -32 4 -50 -7 -23 -13 -28 -23 -28 -53 0 -51 32 -80 75 -69 6 2
21 2 35 1 25 -1 25 -1 25 89 0 63 -3 91 -12 95 -7 2 -14 -1 -15 -8z m-11 -94
c12 -17 11 -23 -5 -43 -16 -19 -22 -21 -40 -11 -27 14 -29 56 -4 70 22 13 32
10 49 -16z"/>
<path d="M2469 2431 c-1 -3 -2 -43 -3 -88 l-1 -83 67 0 c52 0 68 3 68 14 0 10
-12 14 -45 12 -75 -3 -85 40 -11 46 58 5 59 28 2 28 -34 0 -46 4 -46 15 0 31
0 31 78 34 14 1 22 6 20 13 -4 12 -127 21 -129 9z"/>
<path d="M3097 2433 c-13 -12 -7 -23 13 -23 11 0 20 7 20 15 0 15 -21 21 -33
8z"/>
<path d="M3561 2430 c-15 -9 -13 -167 2 -173 7 -2 23 -3 37 -1 14 1 33 3 43 3
32 2 67 47 67 86 0 39 -35 84 -67 86 -10 1 -30 2 -45 3 -15 2 -32 0 -37 -4z
m86 -35 c46 -13 40 -87 -8 -104 -48 -16 -57 -7 -54 57 2 31 3 58 4 60 1 3 8 2
58 -13z"/>
<path d="M3730 2425 c0 -8 9 -15 20 -15 13 0 18 5 14 15 -4 8 -12 15 -20 15
-8 0 -14 -7 -14 -15z"/>
<path d="M4250 2424 c0 -9 7 -14 17 -12 25 5 28 28 4 28 -12 0 -21 -6 -21 -16z"/>
<path d="M4708 2423 c-2 -10 -3 -52 -3 -93 1 -58 5 -75 16 -75 11 0 14 18 14
89 0 57 -4 91 -11 93 -6 2 -13 -4 -16 -14z"/>
<path d="M3156 2422 c-3 -2 -2 -10 1 -18 3 -8 0 -14 -6 -14 -6 0 -11 -7 -11
-16 0 -8 4 -13 9 -10 5 3 9 -15 8 -40 0 -35 4 -50 18 -60 21 -15 37 -14 42 3
2 6 -4 14 -15 17 -13 4 -18 15 -16 35 2 36 12 53 25 46 5 -4 9 1 9 9 0 9 -7
16 -15 16 -13 0 -19 11 -17 31 1 7 -26 8 -32 1z"/>
<path d="M4311 2413 c-4 -32 4 -141 11 -149 2 -2 15 -5 28 -6 28 -4 38 18 13
26 -14 4 -19 16 -19 41 0 32 6 40 29 36 4 0 7 6 7 14 0 8 -9 15 -20 15 -11 0
-19 3 -19 8 3 18 -2 29 -14 29 -8 0 -15 -6 -16 -14z"/>
<path d="M4910 2409 c0 -9 -6 -19 -12 -22 -10 -4 -10 -7 0 -18 6 -7 12 -32 12
-56 0 -47 26 -72 57 -55 14 9 14 11 -5 21 -30 16 -31 80 -2 88 11 3 20 9 20
14 0 5 -9 9 -20 9 -13 0 -20 7 -20 18 0 10 -7 19 -15 19 -8 0 -15 -8 -15 -18z"/>
<path d="M2647 2392 c-10 -2 -25 -18 -32 -35 -25 -59 18 -116 73 -96 19 7 22
5 22 -17 0 -18 5 -25 17 -22 9 2 16 6 15 11 -1 4 -2 40 -2 81 l0 75 -29 -1
c-15 -1 -32 1 -37 4 -5 2 -17 3 -27 0z m51 -35 c16 -11 16 -52 -1 -65 -18 -15
-54 -4 -60 18 -6 22 18 59 35 56 7 -1 19 -5 26 -9z"/>
<path d="M2772 2391 c-14 -8 -14 -86 -1 -113 7 -13 21 -17 59 -16 l50 1 0 67
c0 53 -3 67 -15 67 -11 0 -15 -12 -15 -47 0 -52 -14 -74 -40 -60 -12 6 -17 23
-19 56 -2 54 -2 56 -19 45z"/>
<path d="M2938 2393 c-10 -3 -18 -11 -18 -20 0 -11 6 -14 23 -9 14 3 32 -1 43
-9 18 -13 16 -14 -24 -15 -36 0 -44 -4 -54 -25 -9 -21 -9 -29 4 -41 18 -19 48
-24 69 -13 10 5 21 3 27 -3 14 -14 13 -16 16 45 4 69 -29 103 -86 90z m47 -93
c0 -18 -33 -26 -47 -12 -6 6 -7 15 -3 22 10 16 50 8 50 -10z"/>
<path d="M3933 2374 c-54 -54 1 -141 72 -114 37 14 31 32 -8 25 -24 -5 -37 -2
-46 9 -12 14 -10 16 10 17 13 1 36 0 52 -1 31 -2 37 22 12 57 -22 32 -64 35
-92 7z m65 -16 c19 -19 14 -24 -18 -24 -16 0 -30 5 -30 11 0 26 28 33 48 13z"/>
<path d="M4101 2383 c-14 -9 -21 -11 -17 -5 4 8 0 12 -11 12 -17 0 -19 -8 -18
-62 0 -50 4 -63 16 -66 13 -2 16 4 14 25 -3 38 11 73 30 73 8 0 15 9 15 20 0
24 0 24 -29 3z"/>
<path d="M4498 2386 c-9 -8 -19 -29 -23 -46 -10 -46 -22 -44 -36 5 -9 32 -19
45 -31 45 -22 0 -23 3 8 -65 25 -57 26 -88 3 -83 -20 5 -20 -19 0 -25 27 -7
46 17 76 97 28 74 29 98 3 72z"/>
<path d="M4825 2390 c-11 -5 -29 -6 -40 -4 -18 5 -20 0 -20 -61 0 -36 3 -65 7
-65 5 0 11 0 15 0 4 0 8 21 8 46 3 82 55 84 55 2 0 -41 3 -49 17 -46 13 2 17
13 16 40 -1 78 -18 103 -58 88z"/>
<path d="M5030 2392 c-55 -17 -68 -86 -23 -122 19 -15 35 -19 53 -15 32 8 44
20 35 35 -5 8 -10 9 -18 1 -16 -16 -42 -14 -57 4 -14 16 -4 19 53 15 34 -2 45
22 24 54 -17 25 -42 36 -67 28z m39 -36 c13 -15 5 -23 -19 -21 -8 1 -21 3 -29
3 -11 2 -11 5 -1 17 16 19 34 19 49 1z"/>
<path d="M5171 2383 c-14 -9 -21 -11 -17 -5 4 8 0 12 -11 12 -16 0 -19 -8 -18
-65 0 -52 3 -65 15 -65 11 0 16 9 15 28 -1 35 15 72 32 72 7 0 13 9 13 20 0
24 0 24 -29 3z"/>
<path d="M5413 2392 c-29 -4 -53 -38 -53 -73 0 -49 67 -81 112 -53 21 13 5 24
-25 19 -24 -5 -37 -2 -46 9 -15 17 -6 20 52 17 32 -1 43 18 28 48 -14 26 -39
38 -68 33z m37 -37 c13 -16 13 -16 -22 -19 -32 -3 -41 3 -27 20 15 18 33 18
49 -1z"/>
<path d="M5514 2392 c-16 -10 -13 -174 4 -180 10 -3 17 23 13 50 0 4 11 3 26
-3 22 -8 32 -6 52 9 63 46 15 152 -52 117 -22 -11 -26 -11 -29 1 -2 7 -8 10
-14 6z m80 -38 c19 -19 21 -48 3 -62 -14 -12 -56 -5 -58 9 -1 5 -2 15 -3 22
-2 13 23 47 35 47 4 0 15 -7 23 -16z"/>
<path d="M5689 2386 c-76 -38 -23 -156 56 -126 33 12 33 34 1 26 -29 -7 -56 2
-56 18 0 9 14 11 45 9 39 -4 45 -2 45 14 0 25 -25 59 -49 66 -11 2 -30 -1 -42
-7z m49 -28 c19 -19 14 -24 -23 -24 -19 1 -35 3 -35 6 0 10 24 30 35 30 6 0
16 -5 23 -12z"/>
<path d="M6117 2383 c-32 -16 -42 -48 -28 -85 13 -35 41 -49 76 -39 44 11 43
31 -1 28 -28 -1 -39 2 -41 14 -3 12 5 15 42 12 38 -3 45 -1 45 15 0 24 -25 58
-48 64 -10 3 -31 -1 -45 -9z m53 -28 c13 -16 10 -17 -30 -17 -11 0 -23 0 -26
1 -11 2 18 31 31 31 7 0 18 -7 25 -15z"/>
<path d="M6234 2392 c-12 -8 -12 -127 -1 -139 13 -12 26 19 22 54 -3 37 17 65
40 57 10 -4 15 -21 15 -55 0 -40 3 -49 18 -49 13 0 17 7 16 28 -1 15 -3 39 -3
54 -1 40 -26 60 -58 47 -17 -6 -28 -6 -32 0 -4 6 -11 7 -17 3z"/>
<path d="M6404 2389 c-70 -26 -59 -115 17 -132 30 -8 66 14 55 32 -6 9 -11 9
-21 1 -21 -17 -65 5 -65 34 0 35 28 52 56 33 7 -4 17 0 24 8 13 15 12 16 -32
29 -7 2 -23 0 -34 -5z"/>
<path d="M6523 2389 c-46 -17 -56 -77 -19 -114 23 -23 60 -26 88 -9 19 12 7
26 -17 20 -26 -7 -69 9 -61 23 3 4 25 6 50 4 39 -3 46 -1 46 15 0 24 -25 58
-48 64 -10 3 -27 1 -39 -3z m45 -31 c23 -23 15 -27 -52 -19 -12 1 14 31 28 31
7 0 17 -5 24 -12z"/>
<path d="M3095 2328 c1 -49 4 -64 16 -66 13 -2 16 9 17 63 1 55 -1 65 -16 65
-14 0 -17 -10 -17 -62z"/>
<path d="M3260 2326 c24 -55 27 -66 14 -77 -8 -6 -14 -8 -14 -3 0 5 -4 2 -10
-6 -11 -18 4 -30 30 -23 19 5 35 33 68 121 19 49 19 52 2 52 -12 0 -21 -13
-30 -46 -14 -50 -22 -48 -40 9 -8 25 -17 37 -30 37 -18 0 -17 -5 10 -64z"/>
<path d="M3730 2325 c0 -51 3 -65 15 -65 12 0 15 14 15 65 0 51 -3 65 -15 65
-12 0 -15 -14 -15 -65z"/>
<path d="M3786 2353 c9 -21 20 -50 26 -65 6 -17 17 -28 28 -28 11 0 22 11 28
28 6 15 17 44 26 65 16 35 15 37 -3 37 -13 0 -22 -12 -31 -46 -14 -50 -22 -48
-40 9 -8 26 -17 37 -31 37 -18 0 -19 -2 -3 -37z"/>
<path d="M4153 2384 c-7 -3 -13 -16 -13 -30 0 -18 9 -27 37 -39 27 -12 34 -18
25 -27 -8 -8 -18 -9 -36 0 -19 8 -25 8 -30 -3 -6 -16 14 -25 55 -25 22 0 32 6
38 23 10 26 1 41 -39 57 -37 15 -28 33 12 25 23 -6 29 -4 26 6 -5 14 -53 22
-75 13z"/>
<path d="M4255 2378 c-8 -25 1 -108 13 -120 15 -15 14 -18 16 65 2 50 -1 67
-11 67 -8 0 -15 -6 -18 -12z"/>
<path d="M5799 2386 c-6 -4 -2 -126 3 -126 5 0 11 -1 16 -2 4 -2 7 19 8 45 1
49 15 70 41 60 12 -5 17 -33 13 -80 -1 -15 4 -23 14 -23 13 0 16 11 16 53 0
70 -7 78 -63 76 -26 -1 -48 -3 -48 -3z"/>
</g>
</svg>
