<?xml version="1.0" encoding="utf-8"?>
<!-- Generator: Adobe Illustrator 27.0.1, SVG Export Plug-In . SVG Version: 6.00 Build 0)  -->
<svg version="1.1" id="Layer_1" xmlns="http://www.w3.org/2000/svg" xmlns:xlink="http://www.w3.org/1999/xlink" x="0px" y="0px"
	 viewBox="0 0 328.8 149.8" style="enable-background:new 0 0 328.8 149.8;" xml:space="preserve">
<style type="text/css">
	.st0{fill:#0071CE;}
	.st1{fill:#A81B8D;}
	.st2{fill:#00205C;}
	.st3{fill:#0D2D6C;}
	.st4{fill:#93D500;}
</style>
<g>
	<g>
		<path class="st0" d="M55.1,92.6l-2.2,0c-1.5,0-3-0.1-4.5-0.1l-0.8,0c-1.2,0-2.5-0.1-3.7-0.1l-2.3-0.1c-0.5,0-1,0-1.5-0.1
			c0.2,4.4,0.5,8.8,0.7,13.1c5.4,1.1,11.1,1.8,16.9,2.2c-0.4-5-0.7-10-0.9-14.9C56.2,92.6,55.7,92.6,55.1,92.6z"/>
		<path class="st1" d="M75.3,36.9l2.2,0c1.5,0,3,0.1,4.5,0.1l0.8,0c1.2,0,2.5,0.1,3.7,0.1l2.2,0.1c0.5,0,1,0,1.6,0.1
			c-0.2-4.3-0.4-8.6-0.7-12.8c-5.5-1.1-11.1-1.8-16.9-2.2c0.4,4.8,0.7,9.7,0.9,14.5C74.2,36.9,74.8,36.9,75.3,36.9z"/>
		<path class="st2" d="M92.6,89.9c4.3-0.2,8.7-0.4,13-0.7c1.1-5.4,1.8-11.1,2.2-16.9c-4.9,0.4-9.8,0.7-14.7,0.9l0,0.3
			c-0.1,5.3-0.2,10.8-0.4,16.2L92.6,89.9z"/>
		<path class="st2" d="M71.9,82c0-1.5,0.1-2.9,0.1-4.4l0-1.5c0-0.7,0-1.5,0-2.2l-3.1,0c-1.3,0-2.5,0-3.8,0c-2.3,0-4.6,0-6.9,0v0
			l-1.1,0v0l-1,0v0c-5.8-0.1-11.8-0.3-17.8-0.5l-1,0c-4.8-0.2-9.8-0.5-14.7-0.9c0.3,5.8,1.1,11.4,2.2,16.9c4.7,0.3,9.4,0.6,14.2,0.8
			c6.3,0.3,12.6,0.5,18.8,0.5c4.6,0.1,9.3,0.1,13.8,0c0-0.8,0.1-1.7,0.1-2.5l0.1-1.4C71.8,85.1,71.9,83.6,71.9,82L71.9,82z"/>
		<polygon class="st3" points="57.2,73.6 57.2,73.6 57.2,73.6 		"/>
		<path class="st1" d="M74.3,72.8L74.3,72.8L74.3,72.8l0,1h0c0,0.1,0,0.2,0,0.4c0,1.8-0.1,3.6-0.1,5.5c0,0.6,0,1.1,0,1.7
			c0,0.7,0,1.4-0.1,2.1c0,0,0,0,0,0c0,0,0,0,0,0c0,1.1-0.1,2.2-0.1,3.3c-0.1,1.6-0.1,3.2-0.2,4.8l0,1h0c-0.2,4.9-0.5,9.9-0.9,14.8
			c5.7-0.3,11.4-1.1,16.9-2.2c0.3-4.8,0.6-9.6,0.8-14.3c0.3-6.3,0.4-12.6,0.5-18.8c0-2.5,0-4.9,0-7.4c0-2.1,0-4.3,0-6.4
			c-0.9,0-1.7-0.1-2.6-0.1L87,58.2c-1.5-0.1-3-0.1-4.5-0.2L82,58c-1.3,0-2.7-0.1-4-0.1l-1.5,0c-0.7,0-1.5,0-2.2,0l0,3.2
			c0,1.3,0,2.5,0,3.7c0,2.2,0,4.6,0,6.9h0L74.3,72.8L74.3,72.8z"/>
		<path class="st4" d="M37.7,41.3c0-0.6,0-1.1,0.1-1.7c-4.3,0.2-8.6,0.4-12.9,0.7c-1.1,5.5-1.9,11.1-2.2,16.9
			c4.9-0.4,9.8-0.7,14.7-0.9c0-0.9,0-1.8,0-2.8l0-1c0-1.5,0.1-3,0.1-4.6l0-0.4c0-1.4,0.1-2.8,0.1-4.1L37.7,41.3z"/>
		<path class="st0" d="M47.9,71.5l0.5,0c1.3,0,2.7,0.1,4,0.1l1.5,0c0.3,0,0.5,0,0.8,0c0.5,0,0.9,0,1.4,0c0-0.6,0-1.1,0-1.7l0-1.4
			c0-1.3,0-2.6,0-3.8c0-2.3,0-4.6,0-6.9h0l0-1.1h0l0-1h0c0.1-5.8,0.3-11.8,0.5-17.8l0-1c0.2-4.8,0.5-9.7,0.9-14.5
			c-5.7,0.3-11.4,1.1-16.9,2.2c-0.3,4.6-0.6,9.3-0.8,14c-0.3,6.3-0.5,12.7-0.5,18.8c0,2.5,0,4.9,0,7.4c0,2.1,0,4.3,0,6.4
			c0.8,0,1.7,0.1,2.5,0.1l0,0l1.4,0.1C44.9,71.4,46.4,71.4,47.9,71.5z"/>
		<polygon class="st3" points="42,71.6 42,71.6 42,71.6 		"/>
		<path class="st4" d="M58.5,47.6c0,1.5-0.1,2.9-0.1,4.4l0,1.6c0,0,0,0,0,0l0,0c0,0.7,0,1.4,0,2.1l3.1,0c1.3,0,2.5,0,3.8,0
			c2.2,0,4.6,0,6.9,0v0l1.1,0l1,0v0c5.8,0.1,11.8,0.3,17.8,0.5h0l0,0l1,0v0c4.8,0.2,9.8,0.5,14.7,0.9c-0.3-5.7-1.1-11.4-2.2-16.9
			c-4.6-0.3-9.4-0.6-14.1-0.8c-6.3-0.3-12.6-0.5-18.8-0.5C68,39,63.3,39,58.8,39c0,0.8-0.1,1.6-0.1,2.4l-0.1,1.5
			C58.6,44.5,58.5,46,58.5,47.6L58.5,47.6z"/>
	</g>
	<g>
		<path class="st2" d="M122.3,35.9L122.3,35.9c0-6.2,4.6-11.3,11.2-11.3c4,0,6.4,1.4,8.5,3.4l-2.4,2.8c-1.7-1.6-3.6-2.7-6.1-2.7
			c-4.1,0-7.1,3.4-7.1,7.6v0.1c0,4.2,3,7.7,7.1,7.7c2.7,0,4.4-1.1,6.2-2.8l2.4,2.5c-2.3,2.4-4.7,3.8-8.8,3.8
			C127,47.1,122.3,42.1,122.3,35.9z"/>
		<path class="st2" d="M142.7,35.9L142.7,35.9c0-6.2,4.7-11.3,11.4-11.3c6.7,0,11.3,5,11.3,11.1v0.1c0,6.1-4.7,11.2-11.4,11.2
			C147.4,47.1,142.7,42,142.7,35.9z M161.4,35.9L161.4,35.9c0-4.3-3.1-7.8-7.4-7.8c-4.3,0-7.3,3.4-7.3,7.6v0.1
			c0,4.2,3.1,7.7,7.4,7.7C158.4,43.6,161.4,40.1,161.4,35.9z"/>
		<path class="st2" d="M168.2,25h4.1l6.6,10.2l6.6-10.2h4.1v21.7h-3.8V31.2l-6.8,10.2h-0.1L172,31.2v15.5h-3.7V25z"/>
		<path class="st2" d="M193.3,25h4.1l6.6,10.2l6.6-10.2h4.1v21.7h-3.8V31.2L204,41.4h-0.1l-6.8-10.1v15.5h-3.7V25z"/>
		<path class="st2" d="M218.1,37.5V25h3.8v12.3c0,4,2.1,6.2,5.5,6.2c3.4,0,5.4-2,5.4-6V25h3.8v12.3c0,6.5-3.7,9.7-9.3,9.7
			C221.7,47,218.1,43.8,218.1,37.5z"/>
		<path class="st2" d="M240.1,25h3.5l11.6,15V25h3.7v21.7h-3.2l-11.9-15.4v15.4h-3.7V25z"/>
		<path class="st2" d="M262.5,25h3.8v21.7h-3.8V25z"/>
		<path class="st2" d="M275.6,28.6h-6.9V25h17.6v3.5h-6.9v18.1h-3.8V28.6z"/>
		<path class="st2" d="M296.7,38.1L288.1,25h4.5l6.1,9.6l6.1-9.6h4.4l-8.6,13v8.6h-3.8V38.1z"/>
	</g>
	<g>
		<path class="st1" d="M122.3,54.1h9.7c2.7,0,4.9,0.8,6.2,2.2c1.1,1.2,1.8,2.8,1.8,4.7V61c0,3.6-2.1,5.7-5.2,6.6l5.8,8.2h-4.5
			l-5.3-7.5h-4.8v7.5h-3.8V54.1z M131.6,64.9c2.7,0,4.5-1.4,4.5-3.6v-0.1c0-2.3-1.7-3.6-4.5-3.6h-5.5v7.3H131.6z"/>
		<path class="st1" d="M142.9,54.1h16.1v3.4h-12.3v5.6h10.9v3.4h-10.9v5.8h12.4v3.4h-16.2V54.1z"/>
		<path class="st1" d="M161.9,54.1h3.8v18.2h11.4v3.5h-15.2V54.1z"/>
		<path class="st1" d="M187.1,54h3.5l9.5,21.8h-4l-2.2-5.2h-10.2l-2.2,5.2h-3.9L187.1,54z M192.5,67.2l-3.7-8.7l-3.7,8.7H192.5z"/>
		<path class="st1" d="M204.6,57.7h-6.9v-3.5h17.6v3.5h-6.9v18.1h-3.8V57.7z"/>
		<path class="st1" d="M217.8,54.1h3.8v21.7h-3.8V54.1z"/>
		<path class="st1" d="M224.1,65L224.1,65c0-6.2,4.7-11.3,11.4-11.3s11.3,5,11.3,11.1V65c0,6.1-4.7,11.2-11.4,11.2
			S224.1,71.1,224.1,65z M242.8,65L242.8,65c0-4.3-3.1-7.8-7.4-7.8s-7.3,3.4-7.3,7.6V65c0,4.2,3.1,7.7,7.4,7.7
			C239.8,72.7,242.8,69.2,242.8,65z"/>
		<path class="st1" d="M249.1,54.1h3.5l11.6,15v-15h3.7v21.7h-3.2l-11.9-15.4v15.4h-3.7V54.1z"/>
		<path class="st1" d="M270.3,72.6l2.3-2.7c2.1,1.8,4.1,2.8,6.8,2.8c2.4,0,3.8-1.1,3.8-2.7v-0.1c0-1.5-0.9-2.4-4.9-3.3
			c-4.6-1.1-7.2-2.5-7.2-6.5v-0.1c0-3.7,3.1-6.3,7.4-6.3c3.2,0,5.7,1,7.9,2.7l-2,2.9c-1.9-1.5-3.9-2.2-5.9-2.2
			c-2.2,0-3.5,1.1-3.5,2.6v0.1c0,1.7,1,2.4,5.1,3.4c4.6,1.1,7,2.8,7,6.3v0.1c0,4.1-3.2,6.5-7.7,6.5C276,76.1,272.9,74.9,270.3,72.6z
			"/>
	</g>
	<g>
		<path class="st0" d="M122.3,94.1L122.3,94.1c0-6.2,4.6-11.3,11.2-11.3c4,0,6.4,1.4,8.5,3.4l-2.4,2.8c-1.7-1.6-3.6-2.7-6.1-2.7
			c-4.1,0-7.1,3.4-7.1,7.6v0.1c0,4.2,3,7.7,7.1,7.7c2.7,0,4.4-1.1,6.2-2.8l2.4,2.5c-2.3,2.4-4.7,3.8-8.8,3.8
			C127,105.3,122.3,100.3,122.3,94.1z"/>
		<path class="st0" d="M142.7,94.1L142.7,94.1c0-6.2,4.7-11.3,11.4-11.3c6.7,0,11.3,5,11.3,11.1v0.1c0,6.1-4.7,11.2-11.4,11.2
			C147.4,105.3,142.7,100.2,142.7,94.1z M161.4,94.1L161.4,94.1c0-4.3-3.1-7.8-7.4-7.8c-4.3,0-7.3,3.4-7.3,7.6v0.1
			c0,4.2,3.1,7.7,7.4,7.7C158.4,101.8,161.4,98.3,161.4,94.1z"/>
		<path class="st0" d="M167.9,95.7V83.2h3.8v12.3c0,4,2.1,6.2,5.5,6.2c3.4,0,5.4-2,5.4-6V83.2h3.8v12.3c0,6.5-3.7,9.7-9.3,9.7
			C171.5,105.2,167.9,102,167.9,95.7z"/>
		<path class="st0" d="M189.3,83.2h3.5l11.6,15v-15h3.7v21.7H205l-11.9-15.4v15.4h-3.7V83.2z"/>
		<path class="st0" d="M210.5,94.1L210.5,94.1c0-6.2,4.6-11.3,11.2-11.3c4,0,6.4,1.4,8.5,3.4l-2.4,2.8c-1.7-1.6-3.6-2.7-6.1-2.7
			c-4.1,0-7.1,3.4-7.1,7.6v0.1c0,4.2,3,7.7,7.1,7.7c2.7,0,4.4-1.1,6.2-2.8l2.4,2.5c-2.3,2.4-4.7,3.8-8.8,3.8
			C215.2,105.3,210.5,100.3,210.5,94.1z"/>
		<path class="st0" d="M232.2,83.2h3.8v21.7h-3.8V83.2z"/>
		<path class="st0" d="M238.9,83.2h3.8v18.2h11.4v3.5h-15.2V83.2z"/>
	</g>
	<g>
		<g>
			<path class="st2" d="M173.4,117.1h3.1c2.6,0,4.4,1.8,4.4,4.2v0c0,2.4-1.8,4.2-4.4,4.2h-3.1V117.1z M176.5,124.1
				c1.8,0,2.9-1.2,2.9-2.8v0c0-1.6-1.1-2.8-2.9-2.8h-1.6v5.7H176.5z"/>
			<path class="st2" d="M181.7,116.8h1.6v1.4h-1.6V116.8z M181.8,119.1h1.4v6.3h-1.4V119.1z"/>
			<path class="st2" d="M183.7,119.1h1.6l1.7,4.6l1.7-4.6h1.5l-2.6,6.4h-1.3L183.7,119.1z"/>
			<path class="st2" d="M190.2,122.3L190.2,122.3c0-1.8,1.3-3.3,3.1-3.3c2,0,3,1.6,3,3.4c0,0.1,0,0.3,0,0.4h-4.6
				c0.2,1,0.9,1.6,1.8,1.6c0.7,0,1.2-0.3,1.7-0.8l0.8,0.8c-0.6,0.7-1.4,1.2-2.6,1.2C191.6,125.6,190.2,124.2,190.2,122.3z
				 M194.9,121.8c-0.1-0.9-0.6-1.7-1.6-1.7c-0.9,0-1.5,0.7-1.6,1.7H194.9z"/>
			<path class="st2" d="M197,119.1h1.4v1.4c0.4-0.9,1.1-1.6,2.2-1.5v1.5h-0.1c-1.3,0-2.1,0.8-2.1,2.5v2.4H197V119.1z"/>
			<path class="st2" d="M200.6,124.6l0.6-1c0.7,0.5,1.4,0.8,2.1,0.8c0.6,0,1-0.3,1-0.7v0c0-0.5-0.7-0.7-1.4-0.9
				c-0.9-0.3-2-0.6-2-1.8v0c0-1.2,1-1.9,2.2-1.9c0.8,0,1.6,0.3,2.3,0.7l-0.6,1c-0.6-0.4-1.3-0.6-1.8-0.6c-0.6,0-0.9,0.3-0.9,0.6v0
				c0,0.5,0.7,0.6,1.4,0.9c0.9,0.3,2,0.7,2,1.8v0c0,1.3-1,2-2.3,2C202.4,125.5,201.4,125.2,200.6,124.6z"/>
			<path class="st2" d="M206.3,116.8h1.6v1.4h-1.6V116.8z M206.4,119.1h1.4v6.3h-1.4V119.1z"/>
			<path class="st2" d="M209.2,123.7v-3.3h-0.8v-1.2h0.8v-1.7h1.4v1.7h1.7v1.2h-1.7v3.1c0,0.6,0.3,0.8,0.8,0.8
				c0.3,0,0.6-0.1,0.9-0.2v1.2c-0.4,0.2-0.8,0.3-1.3,0.3C209.9,125.5,209.2,125.1,209.2,123.7z"/>
			<path class="st2" d="M213.1,127l0.5-1.1c0.3,0.1,0.5,0.2,0.8,0.2c0.4,0,0.7-0.2,0.9-0.7l-2.6-6.3h1.5l1.8,4.7l1.6-4.7h1.5
				l-2.5,6.5c-0.5,1.3-1.1,1.8-2.1,1.8C214,127.4,213.5,127.2,213.1,127z"/>
		</g>
		<path class="st2" d="M222.4,115.9h1.2v11.1h-1.2V115.9z"/>
		<path class="st2" d="M168.2,115.9h1.2v11.1h-1.2V115.9z"/>
		<g>
			<g>
				<path class="st2" d="M227.6,117.1h1.5v8.4h-1.5V117.1z"/>
				<path class="st2" d="M230.3,119.1h1.4v1c0.4-0.6,1-1.1,2-1.1c1.4,0,2.2,1,2.2,2.4v4h-1.4v-3.6c0-1-0.5-1.5-1.3-1.5
					c-0.8,0-1.4,0.6-1.4,1.6v3.6h-1.4V119.1z"/>
				<path class="st2" d="M237.2,123.7v-3.3h-0.8v-1.2h0.8v-1.7h1.4v1.7h1.7v1.2h-1.7v3.1c0,0.6,0.3,0.8,0.8,0.8
					c0.3,0,0.6-0.1,0.9-0.2v1.2c-0.4,0.2-0.8,0.3-1.3,0.3C238,125.5,237.2,125.1,237.2,123.7z"/>
				<path class="st2" d="M240.5,122.3L240.5,122.3c0-1.8,1.3-3.3,3.1-3.3c2,0,3,1.6,3,3.4c0,0.1,0,0.3,0,0.4H242
					c0.2,1,0.9,1.6,1.8,1.6c0.7,0,1.2-0.3,1.7-0.8l0.8,0.8c-0.6,0.7-1.4,1.2-2.6,1.2C241.9,125.6,240.5,124.2,240.5,122.3z
					 M245.2,121.8c-0.1-0.9-0.6-1.7-1.6-1.7c-0.9,0-1.5,0.7-1.6,1.7H245.2z"/>
				<path class="st2" d="M247.3,119.1h1.4v1.4c0.4-0.9,1.1-1.6,2.2-1.5v1.5h-0.1c-1.3,0-2.1,0.8-2.1,2.5v2.4h-1.4V119.1z"/>
			</g>
			<path class="st2" d="M251.2,122.3L251.2,122.3c0-2.1,1.4-3.3,2.9-3.3c1,0,1.7,0.5,2.1,1.1v-3.4h1.4v8.7h-1.4v-1.1
				c-0.5,0.7-1.1,1.2-2.1,1.2C252.6,125.5,251.2,124.4,251.2,122.3z M256.3,122.3L256.3,122.3c0-1.2-0.9-2-1.8-2c-1,0-1.8,0.8-1.8,2
				v0c0,1.2,0.8,2,1.8,2C255.4,124.3,256.3,123.5,256.3,122.3z"/>
			<path class="st2" d="M258.3,122.3L258.3,122.3c0-1.8,1.3-3.3,3.1-3.3c2,0,3,1.6,3,3.4c0,0.1,0,0.3,0,0.4h-4.6
				c0.2,1,0.9,1.6,1.8,1.6c0.7,0,1.2-0.3,1.7-0.8l0.8,0.8c-0.6,0.7-1.4,1.2-2.6,1.2C259.7,125.6,258.3,124.2,258.3,122.3z
				 M263,121.8c-0.1-0.9-0.6-1.7-1.6-1.7c-0.9,0-1.5,0.7-1.6,1.7H263z"/>
			<path class="st2" d="M265.1,119.1h1.4v1.1c0.5-0.7,1.1-1.2,2.1-1.2c1.5,0,2.9,1.2,2.9,3.3v0c0,2.1-1.4,3.3-2.9,3.3
				c-1,0-1.7-0.5-2.1-1.1v2.9h-1.4V119.1z M270.1,122.3L270.1,122.3c0-1.2-0.8-2-1.8-2c-1,0-1.8,0.8-1.8,2v0c0,1.2,0.9,2,1.8,2
				C269.3,124.3,270.1,123.5,270.1,122.3z"/>
			<path class="st2" d="M272,122.3L272,122.3c0-1.8,1.3-3.3,3.1-3.3c2,0,3,1.6,3,3.4c0,0.1,0,0.3,0,0.4h-4.6c0.2,1,0.9,1.6,1.8,1.6
				c0.7,0,1.2-0.3,1.7-0.8l0.8,0.8c-0.6,0.7-1.4,1.2-2.6,1.2C273.4,125.6,272,124.2,272,122.3z M276.6,121.8
				c-0.1-0.9-0.6-1.7-1.6-1.7c-0.9,0-1.5,0.7-1.6,1.7H276.6z"/>
			<path class="st2" d="M278.7,119.1h1.4v1c0.4-0.6,1-1.1,2-1.1c1.4,0,2.2,1,2.2,2.4v4h-1.4v-3.6c0-1-0.5-1.5-1.3-1.5
				c-0.8,0-1.4,0.6-1.4,1.6v3.6h-1.4V119.1z"/>
			<path class="st2" d="M285,122.3L285,122.3c0-2.1,1.4-3.3,2.9-3.3c1,0,1.7,0.5,2.1,1.1v-3.4h1.4v8.7h-1.4v-1.1
				c-0.5,0.7-1.1,1.2-2.1,1.2C286.4,125.5,285,124.4,285,122.3z M290.1,122.3L290.1,122.3c0-1.2-0.9-2-1.8-2c-1,0-1.8,0.8-1.8,2v0
				c0,1.2,0.8,2,1.8,2C289.2,124.3,290.1,123.5,290.1,122.3z"/>
			<path class="st2" d="M292.2,122.3L292.2,122.3c0-1.8,1.3-3.3,3.1-3.3c2,0,3,1.6,3,3.4c0,0.1,0,0.3,0,0.4h-4.6
				c0.2,1,0.9,1.6,1.8,1.6c0.7,0,1.2-0.3,1.7-0.8l0.8,0.8c-0.6,0.7-1.4,1.2-2.6,1.2C293.6,125.6,292.2,124.2,292.2,122.3z
				 M296.8,121.8c-0.1-0.9-0.6-1.7-1.6-1.7c-0.9,0-1.5,0.7-1.6,1.7H296.8z"/>
			<path class="st2" d="M298.9,119.1h1.4v1c0.4-0.6,1-1.1,2-1.1c1.4,0,2.2,1,2.2,2.4v4h-1.4v-3.6c0-1-0.5-1.5-1.3-1.5
				c-0.8,0-1.4,0.6-1.4,1.6v3.6h-1.4V119.1z"/>
			<path class="st2" d="M305.2,122.3L305.2,122.3c0-1.8,1.4-3.3,3.3-3.3c1.2,0,1.9,0.4,2.5,1.1l-0.9,1c-0.4-0.5-0.9-0.8-1.6-0.8
				c-1.1,0-1.8,0.9-1.8,2v0c0,1.1,0.8,2,1.9,2c0.7,0,1.2-0.3,1.6-0.8l0.9,0.9c-0.6,0.7-1.3,1.2-2.6,1.2
				C306.6,125.6,305.2,124.1,305.2,122.3z"/>
			<path class="st2" d="M311,122.3L311,122.3c0-1.8,1.3-3.3,3.1-3.3c2,0,3,1.6,3,3.4c0,0.1,0,0.3,0,0.4h-4.6c0.2,1,0.9,1.6,1.8,1.6
				c0.7,0,1.2-0.3,1.7-0.8l0.8,0.8c-0.6,0.7-1.4,1.2-2.6,1.2C312.4,125.6,311,124.2,311,122.3z M315.7,121.8
				c-0.1-0.9-0.6-1.7-1.6-1.7c-0.9,0-1.5,0.7-1.6,1.7H315.7z"/>
		</g>
		<g>
			<path class="st2" d="M122.3,117.1h6.2v1.3h-4.7v2.2h4.2v1.3h-4.2v2.2h4.8v1.3h-6.3V117.1z"/>
			<path class="st2" d="M133.9,124.4c-0.5,0.7-1.1,1.2-2.1,1.2c-1.5,0-2.9-1.2-2.9-3.3v0c0-2.1,1.4-3.3,2.9-3.3c1,0,1.7,0.5,2.1,1.1
				v-1h1.4v8.2h-1.4V124.4z M133.9,122.3L133.9,122.3c0-1.2-0.9-2-1.8-2c-1,0-1.8,0.8-1.8,2v0c0,1.2,0.8,2,1.8,2
				C133.1,124.3,133.9,123.5,133.9,122.3z"/>
			<path class="st2" d="M136.3,123.1v-4h1.4v3.6c0,1,0.5,1.5,1.3,1.5c0.8,0,1.4-0.6,1.4-1.6v-3.6h1.4v6.3h-1.4v-1
				c-0.4,0.6-1,1.1-2,1.1C137.1,125.5,136.3,124.6,136.3,123.1z"/>
			<path class="st2" d="M151.9,116.8h1.6v1.4h-1.6V116.8z M152,119.1h1.4v6.3H152V119.1z"/>
			<path class="st2" d="M154.8,123.7v-3.3H154v-1.2h0.8v-1.7h1.4v1.7h1.7v1.2h-1.7v3.1c0,0.6,0.3,0.8,0.8,0.8c0.3,0,0.6-0.1,0.9-0.2
				v1.2c-0.4,0.2-0.8,0.3-1.3,0.3C155.5,125.5,154.8,125.1,154.8,123.7z"/>
			<path class="st2" d="M158.8,127l0.5-1.1c0.3,0.1,0.5,0.2,0.8,0.2c0.4,0,0.7-0.2,0.9-0.7l-2.6-6.3h1.5l1.8,4.7l1.6-4.7h1.5
				l-2.5,6.5c-0.5,1.3-1.1,1.8-2.1,1.8C159.7,127.4,159.2,127.2,158.8,127z"/>
			<g>
				<path class="st2" d="M147.2,125.5v-0.8c-0.4,0.5-1.1,0.9-2.1,0.9c-1.2,0-2.3-0.7-2.3-2v0c0-1.4,1.1-2.1,2.6-2.1
					c0.8,0,1.3,0.1,1.8,0.3v-0.1c0-0.9-0.6-1.4-1.6-1.4c-0.7,0-1.2,0.2-1.8,0.4l-0.4-1.2c0.7-0.3,1.4-0.5,2.4-0.5
					c1.9,0,2.8,1,2.8,2.7v3.8H147.2z M147.2,122.8c-0.4-0.1-0.9-0.3-1.5-0.3c-0.9,0-1.5,0.4-1.5,1v0c0,0.6,0.5,0.9,1.2,0.9
					c1,0,1.7-0.5,1.7-1.3V122.8z"/>
				<path class="st2" d="M149.6,116.6h1.5v8.8h-1.5V116.6z"/>
			</g>
		</g>
	</g>
</g>
</svg>
