<?xml version="1.0" standalone="no"?>
<!DOCTYPE svg PUBLIC "-//W3C//DTD SVG 20010904//EN"
 "http://www.w3.org/TR/2001/REC-SVG-20010904/DTD/svg10.dtd">
<svg version="1.0" xmlns="http://www.w3.org/2000/svg"
 width="700.000000pt" height="700.000000pt" viewBox="0 0 700.000000 700.000000"
 preserveAspectRatio="xMidYMid meet">
<metadata>
Created by potrace 1.14, written by Peter Selinger 2001-2017
</metadata>
<g transform="translate(0.000000,700.000000) scale(0.100000,-0.100000)"
fill="#000000" stroke="none">
<path d="M3417 6914 c-1 -1 -62 -5 -135 -8 -74 -4 -139 -9 -145 -11 -7 -2 -36
-6 -66 -9 -29 -3 -79 -10 -110 -15 -31 -6 -72 -13 -91 -16 -117 -20 -354 -80
-435 -112 -22 -8 -47 -16 -55 -18 -24 -5 -181 -64 -227 -85 -24 -11 -64 -30
-90 -41 -214 -96 -501 -267 -663 -396 -94 -75 -141 -113 -175 -143 -73 -64
-291 -284 -351 -355 -87 -101 -228 -292 -279 -377 -5 -9 -29 -49 -53 -88 -126
-206 -254 -500 -328 -750 -64 -215 -111 -464 -131 -695 -10 -115 -10 -496 0
-600 20 -205 26 -246 72 -477 2 -10 17 -69 34 -131 293 -1098 1131 -1976 2233
-2338 81 -26 178 -55 215 -64 37 -9 84 -20 103 -25 43 -11 123 -28 168 -35 17
-3 45 -7 61 -10 16 -3 49 -7 72 -10 24 -3 58 -8 74 -10 165 -20 504 -26 665
-11 152 14 165 15 195 20 17 3 48 8 70 11 22 3 60 10 85 15 25 5 56 12 70 14
311 60 690 200 993 369 280 156 517 337 752 572 322 322 548 659 728 1085 82
194 174 514 202 701 4 24 8 46 10 49 2 3 6 34 10 70 4 36 9 74 11 85 25 131
25 706 0 842 -2 10 -7 43 -11 73 -5 46 -20 126 -49 275 -12 60 -59 232 -86
315 -337 1022 -1142 1819 -2180 2160 -114 38 -368 103 -445 114 -22 4 -78 13
-125 20 -110 19 -170 25 -305 32 -120 6 -285 11 -288 8z"/>
</g>
</svg>
