<?xml version="1.0" encoding="UTF-8" standalone="no" ?>
<!DOCTYPE svg PUBLIC "-//W3C//DTD SVG 1.1//EN" "http://www.w3.org/Graphics/SVG/1.1/DTD/svg11.dtd">
<svg xmlns="http://www.w3.org/2000/svg" xmlns:xlink="http://www.w3.org/1999/xlink" version="1.1" width="250" height="250" viewBox="0 0 250 250" xml:space="preserve">
<desc>Created with Fabric.js 3.6.6</desc>
<defs>
</defs>
<g transform="matrix(1.65 0 0 1.65 543.49 125.02)"  >
<g style=""   >
		<g transform="matrix(1 0 0 1 -286.62 0.74)" id="Layer_1"  >
<linearGradient id="SVGID_linear-gradient_11" gradientUnits="userSpaceOnUse" gradientTransform="matrix(1 0 0 1 -25.64 -63.27)"  x1="-0.91" y1="41.2" x2="52.42" y2="101.2">
<stop offset="0%" style="stop-color:rgb(211,83,158);stop-opacity: 1"/>
<stop offset="100%" style="stop-color:rgb(137,39,126);stop-opacity: 1"/>
</linearGradient>
<polygon style="stroke: none; stroke-width: 1; stroke-dasharray: none; stroke-linecap: butt; stroke-dashoffset: 0; stroke-linejoin: miter; stroke-miterlimit: 4; fill: url(#SVGID_linear-gradient_11); fill-rule: nonzero; opacity: 1;"  points="-13.87,18.73 13.87,18.73 0,-18.73 -13.87,18.73 " />
</g>
		<g transform="matrix(1 0 0 1 -284.3 0)" id="Layer_1"  >
<linearGradient id="SVGID_linear-gradient-2_12" gradientUnits="userSpaceOnUse" gradientTransform="matrix(1 0 0 1 0 0)"  x1="11.62" y1="30.05" x2="64.96" y2="90.05">
<stop offset="0%" style="stop-color:rgb(211,83,158);stop-opacity: 1"/>
<stop offset="100%" style="stop-color:rgb(137,39,126);stop-opacity: 1"/>
</linearGradient>
<path style="stroke: none; stroke-width: 1; stroke-dasharray: none; stroke-linecap: butt; stroke-dashoffset: 0; stroke-linejoin: miter; stroke-miterlimit: 4; fill: url(#SVGID_linear-gradient-2_12); fill-rule: nonzero; opacity: 1;"  transform=" translate(-27.96, -62.53)" d="m 50.19 43.5 c -7.97 -0.43 -15.87 -1.68 -23.58 -3.76 l 15.65 42.26 h 6.01 l -3.09 1.84 c -5.76 3.43 -12.51 5.24 -19.52 5.24 s -13.76 -1.81 -19.52 -5.24 l -3.09 -1.84 h 5.98 l 15.83 -42.76 c -0.85 -0.25 -1.71 -0.48 -2.56 -0.75 l -0.71 -0.22 l 0.97 -3.02 l 0.7 0.22 c 8.85 2.77 17.93 4.39 27.04 4.89 c 0.54 -1.73 1.87 -3.12 3.56 -3.75 L 55.93 0 L 0 32.29 v 64.58 l 48.82 28.19 l 4.41 -77.68 c -1.51 -0.78 -2.64 -2.19 -3.05 -3.87 Z" stroke-linecap="round" />
</g>
		<g transform="matrix(1 0 0 1 -256.33 -62.53)" id="Layer_1"  >
<linearGradient id="SVGID_linear-gradient-3_13" gradientUnits="userSpaceOnUse" gradientTransform="matrix(1 0 0 1 -55.93 0)"  x1="51.3" y1="-5.21" x2="56.24" y2="0.35">
<stop offset="0%" style="stop-color:rgb(211,83,158);stop-opacity: 1"/>
<stop offset="100%" style="stop-color:rgb(137,39,126);stop-opacity: 1"/>
</linearGradient>
<polygon style="stroke: none; stroke-width: 1; stroke-dasharray: none; stroke-linecap: butt; stroke-dashoffset: 0; stroke-linejoin: miter; stroke-miterlimit: 4; fill: url(#SVGID_linear-gradient-3_13); fill-rule: nonzero; opacity: 1;"  points="0,0 0,0 0,0 0,0 " />
</g>
		<g transform="matrix(1 0 0 1 -228.36 0)" id="Layer_1"  >
<linearGradient id="SVGID_linear-gradient-4_14" gradientUnits="userSpaceOnUse" gradientTransform="matrix(1 0 0 1 0 0)"  x1="29.84" y1="13.86" x2="83.17" y2="73.86">
<stop offset="0%" style="stop-color:rgb(211,83,158);stop-opacity: 1"/>
<stop offset="100%" style="stop-color:rgb(137,39,126);stop-opacity: 1"/>
</linearGradient>
<path style="stroke: none; stroke-width: 1; stroke-dasharray: none; stroke-linecap: butt; stroke-dashoffset: 0; stroke-linejoin: miter; stroke-miterlimit: 4; fill: url(#SVGID_linear-gradient-4_14); fill-rule: nonzero; opacity: 1;"  transform=" translate(-83.9, -62.53)" d="m 111.86 32.29 L 55.93 0 h 0 s 2.08 36.6 2.08 36.6 c 1.7 0.64 3.04 2.05 3.57 3.8 c 9.1 -0.43 18.17 -1.97 27.03 -4.66 l 0.7 -0.21 l 0.97 3.02 l -0.72 0.22 c -0.83 0.25 -1.66 0.47 -2.49 0.71 l 15.74 42.52 h 6.01 l -3.09 1.84 c -5.76 3.43 -12.51 5.24 -19.52 5.24 s -13.76 -1.81 -19.52 -5.24 l -3.09 -1.84 h 5.98 l 15.54 -41.99 c -7.68 2 -15.54 3.18 -23.46 3.54 c -0.42 1.67 -1.54 3.05 -3.03 3.82 l 4.41 77.68 l 48.82 -28.19 V 32.29 Z" stroke-linecap="round" />
</g>
		<g transform="matrix(1 0 0 1 -226.07 0.74)" id="Layer_1"  >
<linearGradient id="SVGID_linear-gradient-5_15" gradientUnits="userSpaceOnUse" gradientTransform="matrix(1 0 0 1 -86.19 -63.27)"  x1="32.91" y1="11.13" x2="86.24" y2="71.13">
<stop offset="0%" style="stop-color:rgb(211,83,158);stop-opacity: 1"/>
<stop offset="100%" style="stop-color:rgb(137,39,126);stop-opacity: 1"/>
</linearGradient>
<polygon style="stroke: none; stroke-width: 1; stroke-dasharray: none; stroke-linecap: butt; stroke-dashoffset: 0; stroke-linejoin: miter; stroke-miterlimit: 4; fill: url(#SVGID_linear-gradient-5_15); fill-rule: nonzero; opacity: 1;"  points="13.87,18.73 0,-18.73 -13.87,18.73 13.87,18.73 " />
</g>
		<g transform="matrix(1 0 0 1 -159.41 -27.52)" id="Layer_1"  >
<path style="stroke: none; stroke-width: 1; stroke-dasharray: none; stroke-linecap: butt; stroke-dashoffset: 0; stroke-linejoin: miter; stroke-miterlimit: 4; fill: rgb(68,68,68); fill-rule: nonzero; opacity: 1;"  transform=" translate(-152.84, -35.02)" d="m 141.47 20.32 h 11.59 c 6.85 0 11.17 3.91 11.17 9.83 v 0.08 c 0 6.59 -5.29 10.04 -11.76 10.04 h -5.84 v 9.45 h -5.17 v -29.41 Z m 11.17 15.29 c 3.91 0 6.34 -2.18 6.34 -5.25 v -0.08 c 0 -3.45 -2.48 -5.25 -6.34 -5.25 h -6.01 v 10.59 h 6.01 Z" stroke-linecap="round" />
</g>
		<g transform="matrix(1 0 0 1 -134.46 -23.66)" id="Layer_1"  >
<path style="stroke: none; stroke-width: 1; stroke-dasharray: none; stroke-linecap: butt; stroke-dashoffset: 0; stroke-linejoin: miter; stroke-miterlimit: 4; fill: rgb(68,68,68); fill-rule: nonzero; opacity: 1;"  transform=" translate(-177.8, -38.88)" d="m 167.84 41.66 v -14.11 h 5.08 v 12.6 c 0 3.45 1.72 5.42 4.75 5.42 s 5 -2.06 5 -5.5 v -12.52 h 5.08 v 22.18 h -5.08 v -3.44 c -1.43 2.1 -3.49 3.91 -6.93 3.91 c -5 0 -7.9 -3.36 -7.9 -8.53 Z" stroke-linecap="round" />
</g>
		<g transform="matrix(1 0 0 1 -107.7 -27.92)" id="Layer_1"  >
<path style="stroke: none; stroke-width: 1; stroke-dasharray: none; stroke-linecap: butt; stroke-dashoffset: 0; stroke-linejoin: miter; stroke-miterlimit: 4; fill: rgb(68,68,68); fill-rule: nonzero; opacity: 1;"  transform=" translate(-204.56, -34.61)" d="m 198.17 46.28 v 3.44 h -5.08 v -30.67 h 5.08 v 12.18 c 1.64 -2.31 3.95 -4.16 7.52 -4.16 c 5.25 0 10.33 4.16 10.33 11.51 v 0.08 c 0 7.35 -5.04 11.51 -10.33 11.51 c -3.65 0 -5.96 -1.85 -7.52 -3.91 Z m 12.69 -7.6 v -0.08 c 0 -4.29 -2.9 -7.1 -6.34 -7.1 s -6.47 2.86 -6.47 7.1 v 0.08 c 0 4.28 3.02 7.1 6.47 7.1 s 6.34 -2.73 6.34 -7.1 Z" stroke-linecap="round" />
</g>
		<g transform="matrix(1 0 0 1 -89.25 -28.13)" id="Layer_1"  >
<path style="stroke: none; stroke-width: 1; stroke-dasharray: none; stroke-linecap: butt; stroke-dashoffset: 0; stroke-linejoin: miter; stroke-miterlimit: 4; fill: rgb(68,68,68); fill-rule: nonzero; opacity: 1;"  transform=" translate(-223.01, -34.4)" d="m 220.47 19.06 h 5.08 v 30.67 h -5.08 v -30.67 Z" stroke-linecap="round" />
</g>
		<g transform="matrix(1 0 0 1 -78.31 -28)" id="Layer_1"  >
<path style="stroke: none; stroke-width: 1; stroke-dasharray: none; stroke-linecap: butt; stroke-dashoffset: 0; stroke-linejoin: miter; stroke-miterlimit: 4; fill: rgb(68,68,68); fill-rule: nonzero; opacity: 1;"  transform=" translate(-233.95, -34.53)" d="m 231.22 19.32 h 5.46 v 4.83 h -5.46 v -4.83 Z m 0.21 8.23 h 5.08 v 22.18 h -5.08 v -22.18 Z" stroke-linecap="round" />
</g>
		<g transform="matrix(1 0 0 1 -61.1 -23.87)" id="Layer_1"  >
<path style="stroke: none; stroke-width: 1; stroke-dasharray: none; stroke-linecap: butt; stroke-dashoffset: 0; stroke-linejoin: miter; stroke-miterlimit: 4; fill: rgb(68,68,68); fill-rule: nonzero; opacity: 1;"  transform=" translate(-251.16, -38.66)" d="m 240.88 38.76 v -0.08 c 0 -6.3 4.87 -11.59 11.51 -11.59 c 4.2 0 6.81 1.55 8.86 3.82 l -3.15 3.4 c -1.55 -1.64 -3.19 -2.77 -5.75 -2.77 c -3.7 0 -6.38 3.19 -6.38 7.06 v 0.08 c 0 3.95 2.73 7.14 6.64 7.14 c 2.39 0 4.16 -1.13 5.75 -2.77 l 3.07 3.02 c -2.18 2.44 -4.75 4.16 -9.07 4.16 c -6.59 0 -11.47 -5.17 -11.47 -11.47 Z" stroke-linecap="round" />
</g>
		<g transform="matrix(1 0 0 1 -159.41 9.49)" id="Layer_1"  >
<path style="stroke: none; stroke-width: 1; stroke-dasharray: none; stroke-linecap: butt; stroke-dashoffset: 0; stroke-linejoin: miter; stroke-miterlimit: 4; fill: rgb(68,68,68); fill-rule: nonzero; opacity: 1;"  transform=" translate(-152.84, -72.02)" d="m 141.47 57.32 h 11.59 c 6.85 0 11.17 3.91 11.17 9.83 v 0.08 c 0 6.59 -5.29 10.04 -11.76 10.04 h -5.84 v 9.45 h -5.17 v -29.41 Z m 11.17 15.29 c 3.91 0 6.34 -2.18 6.34 -5.25 v -0.08 c 0 -3.45 -2.48 -5.25 -6.34 -5.25 h -6.01 v 10.59 h 6.01 Z" stroke-linecap="round" />
</g>
		<g transform="matrix(1 0 0 1 -137.91 12.9)" id="Layer_1"  >
<path style="stroke: none; stroke-width: 1; stroke-dasharray: none; stroke-linecap: butt; stroke-dashoffset: 0; stroke-linejoin: miter; stroke-miterlimit: 4; fill: rgb(68,68,68); fill-rule: nonzero; opacity: 1;"  transform=" translate(-174.35, -75.43)" d="m 167.88 64.55 h 5.08 v 5 c 1.39 -3.32 3.95 -5.59 7.86 -5.42 v 5.38 h -0.29 c -4.45 0 -7.56 2.9 -7.56 8.78 v 8.44 h -5.08 v -22.18 Z" stroke-linecap="round" />
</g>
		<g transform="matrix(1 0 0 1 -118.22 13.13)" id="Layer_1"  >
<path style="stroke: none; stroke-width: 1; stroke-dasharray: none; stroke-linecap: butt; stroke-dashoffset: 0; stroke-linejoin: miter; stroke-miterlimit: 4; fill: rgb(68,68,68); fill-rule: nonzero; opacity: 1;"  transform=" translate(-194.04, -75.66)" d="m 182.21 75.76 v -0.08 c 0 -6.34 5.04 -11.59 11.85 -11.59 s 11.8 5.17 11.8 11.51 v 0.08 c 0 6.3 -5.04 11.55 -11.89 11.55 s -11.76 -5.17 -11.76 -11.47 Z m 18.57 0 v -0.08 c 0 -3.91 -2.81 -7.14 -6.81 -7.14 s -6.68 3.19 -6.68 7.06 v 0.08 c 0 3.86 2.81 7.14 6.76 7.14 s 6.72 -3.24 6.72 -7.06 Z" stroke-linecap="round" />
</g>
		<g transform="matrix(1 0 0 1 -95.28 13.14)" id="Layer_1"  >
<path style="stroke: none; stroke-width: 1; stroke-dasharray: none; stroke-linecap: butt; stroke-dashoffset: 0; stroke-linejoin: miter; stroke-miterlimit: 4; fill: rgb(68,68,68); fill-rule: nonzero; opacity: 1;"  transform=" translate(-216.98, -75.67)" d="m 208.16 83.83 l 2.27 -3.44 c 2.39 1.81 5 2.73 7.27 2.73 s 3.44 -0.92 3.44 -2.39 v -0.08 c 0 -1.72 -2.35 -2.31 -4.96 -3.11 c -3.28 -0.92 -6.93 -2.27 -6.93 -6.51 v -0.08 c 0 -4.2 3.49 -6.76 7.9 -6.76 c 2.77 0 5.8 0.97 8.15 2.52 l -2.02 3.61 c -2.14 -1.3 -4.41 -2.1 -6.26 -2.1 c -1.97 0 -3.11 0.92 -3.11 2.23 v 0.08 c 0 1.6 2.39 2.27 5 3.11 c 3.23 1.01 6.89 2.48 6.89 6.47 v 0.08 c 0 4.66 -3.61 6.97 -8.23 6.97 c -3.15 0 -6.64 -1.13 -9.41 -3.32 Z" stroke-linecap="round" />
</g>
		<g transform="matrix(1 0 0 1 -72.83 13.14)" id="Layer_1"  >
<path style="stroke: none; stroke-width: 1; stroke-dasharray: none; stroke-linecap: butt; stroke-dashoffset: 0; stroke-linejoin: miter; stroke-miterlimit: 4; fill: rgb(68,68,68); fill-rule: nonzero; opacity: 1;"  transform=" translate(-239.44, -75.67)" d="m 228.7 75.72 v -0.08 c 0 -6.34 4.49 -11.55 10.84 -11.55 c 7.06 0 10.63 5.54 10.63 11.93 c 0 0.46 -0.04 0.92 -0.08 1.43 h -16.3 c 0.55 3.61 3.11 5.63 6.38 5.63 c 2.48 0 4.24 -0.92 6.01 -2.65 l 2.98 2.65 c -2.1 2.52 -5 4.16 -9.07 4.16 c -6.43 0 -11.38 -4.66 -11.38 -11.51 Z m 16.42 -1.64 c -0.34 -3.28 -2.27 -5.84 -5.63 -5.84 c -3.11 0 -5.29 2.39 -5.75 5.84 h 11.38 Z" stroke-linecap="round" />
</g>
		<g transform="matrix(1 0 0 1 -48.96 13.13)" id="Layer_1"  >
<path style="stroke: none; stroke-width: 1; stroke-dasharray: none; stroke-linecap: butt; stroke-dashoffset: 0; stroke-linejoin: miter; stroke-miterlimit: 4; fill: rgb(68,68,68); fill-rule: nonzero; opacity: 1;"  transform=" translate(-263.3, -75.66)" d="m 253.02 75.76 v -0.08 c 0 -6.3 4.87 -11.59 11.51 -11.59 c 4.2 0 6.81 1.55 8.86 3.82 l -3.15 3.4 c -1.55 -1.64 -3.19 -2.77 -5.75 -2.77 c -3.7 0 -6.38 3.19 -6.38 7.06 v 0.08 c 0 3.95 2.73 7.14 6.64 7.14 c 2.39 0 4.16 -1.13 5.75 -2.77 l 3.07 3.02 c -2.18 2.44 -4.75 4.16 -9.07 4.16 c -6.59 0 -11.47 -5.17 -11.47 -11.47 Z" stroke-linecap="round" />
</g>
		<g transform="matrix(1 0 0 1 -25.38 13.35)" id="Layer_1"  >
<path style="stroke: none; stroke-width: 1; stroke-dasharray: none; stroke-linecap: butt; stroke-dashoffset: 0; stroke-linejoin: miter; stroke-miterlimit: 4; fill: rgb(68,68,68); fill-rule: nonzero; opacity: 1;"  transform=" translate(-286.88, -75.88)" d="m 276.92 78.66 v -14.11 h 5.08 v 12.6 c 0 3.45 1.72 5.42 4.75 5.42 s 5 -2.06 5 -5.5 v -12.52 h 5.08 v 22.18 h -5.08 v -3.44 c -1.43 2.1 -3.49 3.91 -6.93 3.91 c -5 0 -7.9 -3.36 -7.9 -8.53 Z" stroke-linecap="round" />
</g>
		<g transform="matrix(1 0 0 1 -4.93 10.25)" id="Layer_1"  >
<path style="stroke: none; stroke-width: 1; stroke-dasharray: none; stroke-linecap: butt; stroke-dashoffset: 0; stroke-linejoin: miter; stroke-miterlimit: 4; fill: rgb(68,68,68); fill-rule: nonzero; opacity: 1;"  transform=" translate(-307.33, -72.78)" d="m 303.21 80.6 v -11.68 h -2.81 v -4.37 h 2.81 v -6.09 h 5.08 v 6.09 h 5.97 v 4.37 h -5.97 v 10.88 c 0 1.97 1.01 2.77 2.73 2.77 c 1.13 0 2.14 -0.25 3.15 -0.76 v 4.16 c -1.26 0.71 -2.69 1.13 -4.58 1.13 c -3.74 0 -6.38 -1.64 -6.38 -6.51 Z" stroke-linecap="round" />
</g>
		<g transform="matrix(1 0 0 1 8.88 8.99)" id="Layer_1"  >
<path style="stroke: none; stroke-width: 1; stroke-dasharray: none; stroke-linecap: butt; stroke-dashoffset: 0; stroke-linejoin: miter; stroke-miterlimit: 4; fill: rgb(68,68,68); fill-rule: nonzero; opacity: 1;"  transform=" translate(-321.14, -71.52)" d="m 318.41 56.32 h 5.46 v 4.83 h -5.46 v -4.83 Z m 0.21 8.23 h 5.08 v 22.18 h -5.08 v -22.18 Z" stroke-linecap="round" />
</g>
		<g transform="matrix(1 0 0 1 27.63 13.13)" id="Layer_1"  >
<path style="stroke: none; stroke-width: 1; stroke-dasharray: none; stroke-linecap: butt; stroke-dashoffset: 0; stroke-linejoin: miter; stroke-miterlimit: 4; fill: rgb(68,68,68); fill-rule: nonzero; opacity: 1;"  transform=" translate(-339.89, -75.66)" d="m 328.07 75.76 v -0.08 c 0 -6.34 5.04 -11.59 11.85 -11.59 s 11.8 5.17 11.8 11.51 v 0.08 c 0 6.3 -5.04 11.55 -11.89 11.55 s -11.76 -5.17 -11.76 -11.47 Z m 18.57 0 v -0.08 c 0 -3.91 -2.81 -7.14 -6.81 -7.14 s -6.68 3.19 -6.68 7.06 v 0.08 c 0 3.86 2.81 7.14 6.76 7.14 s 6.72 -3.24 6.72 -7.06 Z" stroke-linecap="round" />
</g>
		<g transform="matrix(1 0 0 1 53.52 12.87)" id="Layer_1"  >
<path style="stroke: none; stroke-width: 1; stroke-dasharray: none; stroke-linecap: butt; stroke-dashoffset: 0; stroke-linejoin: miter; stroke-miterlimit: 4; fill: rgb(68,68,68); fill-rule: nonzero; opacity: 1;"  transform=" translate(-365.78, -75.4)" d="m 355.83 64.55 h 5.08 v 3.44 c 1.43 -2.1 3.49 -3.91 6.93 -3.91 c 5 0 7.9 3.36 7.9 8.53 v 14.11 h -5.08 v -12.6 c 0 -3.44 -1.72 -5.42 -4.75 -5.42 s -5 2.06 -5 5.5 v 12.52 h -5.08 v -22.18 Z" stroke-linecap="round" />
</g>
		<g transform="matrix(1 0 0 1 -161.39 46.48)" id="Layer_1"  >
<path style="stroke: none; stroke-width: 1; stroke-dasharray: none; stroke-linecap: butt; stroke-dashoffset: 0; stroke-linejoin: miter; stroke-miterlimit: 4; fill: rgb(68,68,68); fill-rule: nonzero; opacity: 1;"  transform=" translate(-150.87, -109.01)" d="m 139.49 119.44 l 3.11 -3.7 c 2.81 2.44 5.63 3.82 9.28 3.82 c 3.19 0 5.21 -1.47 5.21 -3.7 v -0.08 c 0 -2.1 -1.18 -3.23 -6.64 -4.5 c -6.26 -1.51 -9.79 -3.36 -9.79 -8.78 v -0.08 c 0 -5.04 4.2 -8.53 10.04 -8.53 c 4.28 0 7.69 1.3 10.67 3.7 l -2.77 3.91 c -2.65 -1.97 -5.29 -3.02 -7.98 -3.02 c -3.02 0 -4.79 1.55 -4.79 3.49 v 0.08 c 0 2.27 1.34 3.28 6.97 4.62 c 6.22 1.51 9.45 3.74 9.45 8.61 v 0.08 c 0 5.5 -4.33 8.78 -10.5 8.78 c -4.49 0 -8.74 -1.55 -12.27 -4.71 Z" stroke-linecap="round" />
</g>
		<g transform="matrix(1 0 0 1 -136.03 50.14)" id="Layer_1"  >
<path style="stroke: none; stroke-width: 1; stroke-dasharray: none; stroke-linecap: butt; stroke-dashoffset: 0; stroke-linejoin: miter; stroke-miterlimit: 4; fill: rgb(68,68,68); fill-rule: nonzero; opacity: 1;"  transform=" translate(-176.23, -112.67)" d="m 165.49 112.72 v -0.08 c 0 -6.34 4.49 -11.55 10.84 -11.55 c 7.06 0 10.63 5.54 10.63 11.93 c 0 0.46 -0.04 0.92 -0.08 1.43 h -16.3 c 0.55 3.61 3.11 5.63 6.38 5.63 c 2.48 0 4.24 -0.92 6.01 -2.65 l 2.98 2.65 c -2.1 2.52 -5 4.16 -9.07 4.16 c -6.43 0 -11.38 -4.66 -11.38 -11.51 Z m 16.42 -1.64 c -0.34 -3.28 -2.27 -5.84 -5.63 -5.84 c -3.11 0 -5.29 2.39 -5.75 5.84 h 11.38 Z" stroke-linecap="round" />
</g>
		<g transform="matrix(1 0 0 1 -114.76 49.9)" id="Layer_1"  >
<path style="stroke: none; stroke-width: 1; stroke-dasharray: none; stroke-linecap: butt; stroke-dashoffset: 0; stroke-linejoin: miter; stroke-miterlimit: 4; fill: rgb(68,68,68); fill-rule: nonzero; opacity: 1;"  transform=" translate(-197.5, -112.43)" d="m 191.03 101.55 h 5.08 v 5 c 1.39 -3.32 3.95 -5.59 7.86 -5.42 v 5.38 h -0.29 c -4.45 0 -7.56 2.9 -7.56 8.78 v 8.44 h -5.08 v -22.18 Z" stroke-linecap="round" />
</g>
		<g transform="matrix(1 0 0 1 -95.65 50.19)" id="Layer_1"  >
<path style="stroke: none; stroke-width: 1; stroke-dasharray: none; stroke-linecap: butt; stroke-dashoffset: 0; stroke-linejoin: miter; stroke-miterlimit: 4; fill: rgb(68,68,68); fill-rule: nonzero; opacity: 1;"  transform=" translate(-216.61, -112.72)" d="m 205.22 101.55 h 5.46 l 5.97 16.3 l 6.01 -16.3 h 5.33 l -9.07 22.35 h -4.58 l -9.12 -22.35 Z" stroke-linecap="round" />
</g>
		<g transform="matrix(1 0 0 1 -78.19 45.99)" id="Layer_1"  >
<path style="stroke: none; stroke-width: 1; stroke-dasharray: none; stroke-linecap: butt; stroke-dashoffset: 0; stroke-linejoin: miter; stroke-miterlimit: 4; fill: rgb(68,68,68); fill-rule: nonzero; opacity: 1;"  transform=" translate(-234.07, -108.52)" d="m 231.34 93.32 h 5.46 v 4.83 h -5.46 v -4.83 Z m 0.21 8.23 h 5.08 v 22.18 h -5.08 v -22.18 Z" stroke-linecap="round" />
</g>
		<g transform="matrix(1 0 0 1 -60.98 50.13)" id="Layer_1"  >
<path style="stroke: none; stroke-width: 1; stroke-dasharray: none; stroke-linecap: butt; stroke-dashoffset: 0; stroke-linejoin: miter; stroke-miterlimit: 4; fill: rgb(68,68,68); fill-rule: nonzero; opacity: 1;"  transform=" translate(-251.28, -112.66)" d="m 241 112.76 v -0.08 c 0 -6.3 4.87 -11.59 11.51 -11.59 c 4.2 0 6.81 1.55 8.86 3.82 l -3.15 3.4 c -1.55 -1.64 -3.19 -2.77 -5.75 -2.77 c -3.7 0 -6.38 3.19 -6.38 7.06 v 0.08 c 0 3.95 2.73 7.14 6.64 7.14 c 2.39 0 4.16 -1.13 5.75 -2.77 l 3.07 3.02 c -2.18 2.44 -4.75 4.16 -9.07 4.16 c -6.59 0 -11.47 -5.17 -11.47 -11.47 Z" stroke-linecap="round" />
</g>
		<g transform="matrix(1 0 0 1 -38.22 50.14)" id="Layer_1"  >
<path style="stroke: none; stroke-width: 1; stroke-dasharray: none; stroke-linecap: butt; stroke-dashoffset: 0; stroke-linejoin: miter; stroke-miterlimit: 4; fill: rgb(68,68,68); fill-rule: nonzero; opacity: 1;"  transform=" translate(-274.04, -112.67)" d="m 263.31 112.72 v -0.08 c 0 -6.34 4.49 -11.55 10.84 -11.55 c 7.06 0 10.63 5.54 10.63 11.93 c 0 0.46 -0.04 0.92 -0.08 1.43 h -16.3 c 0.55 3.61 3.11 5.63 6.38 5.63 c 2.48 0 4.24 -0.92 6.01 -2.65 l 2.98 2.65 c -2.1 2.52 -5 4.16 -9.07 4.16 c -6.43 0 -11.38 -4.66 -11.38 -11.51 Z m 16.42 -1.64 c -0.34 -3.28 -2.27 -5.84 -5.63 -5.84 c -3.11 0 -5.29 2.39 -5.75 5.84 h 11.38 Z" stroke-linecap="round" />
</g>
		<g transform="matrix(1 0 0 1 124.57 -24)" id="Layer_1"  >
<path style="stroke: none; stroke-width: 1; stroke-dasharray: none; stroke-linecap: butt; stroke-dashoffset: 0; stroke-linejoin: miter; stroke-miterlimit: 4; fill: rgb(68,68,68); fill-rule: nonzero; opacity: 1;"  transform=" translate(-436.83, -38.53)" d="m 435.57 27.33 h 2.53 v 22.4 h -2.53 v -22.4 Z" stroke-linecap="round" />
</g>
		<g transform="matrix(1 0 0 1 138.41 -21.24)" id="Layer_1"  >
<path style="stroke: none; stroke-width: 1; stroke-dasharray: none; stroke-linecap: butt; stroke-dashoffset: 0; stroke-linejoin: miter; stroke-miterlimit: 4; fill: rgb(68,68,68); fill-rule: nonzero; opacity: 1;"  transform=" translate(-450.67, -41.29)" d="m 443.44 33.19 h 2.46 v 2.88 c 1.09 -1.79 2.82 -3.23 5.66 -3.23 c 4 0 6.34 2.69 6.34 6.62 v 10.27 h -2.46 v -9.66 c 0 -3.07 -1.66 -4.99 -4.58 -4.99 s -4.96 2.08 -4.96 5.18 v 9.47 h -2.46 v -16.54 Z" stroke-linecap="round" />
</g>
		<g transform="matrix(1 0 0 1 157.48 -24.3)" id="Layer_1"  >
<path style="stroke: none; stroke-width: 1; stroke-dasharray: none; stroke-linecap: butt; stroke-dashoffset: 0; stroke-linejoin: miter; stroke-miterlimit: 4; fill: rgb(68,68,68); fill-rule: nonzero; opacity: 1;"  transform=" translate(-469.74, -38.23)" d="m 461.39 41.51 v -0.06 c 0 -5.41 3.94 -8.61 7.9 -8.61 c 3.07 0 5.06 1.66 6.34 3.52 v -9.98 h 2.46 v 23.36 h -2.46 v -3.33 c -1.34 1.98 -3.3 3.68 -6.34 3.68 c -3.97 0 -7.9 -3.14 -7.9 -8.58 Z m 14.33 -0.03 v -0.06 c 0 -3.81 -2.91 -6.37 -5.98 -6.37 s -5.82 2.37 -5.82 6.37 v 0.06 c 0 3.9 2.72 6.4 5.82 6.4 s 5.98 -2.59 5.98 -6.4 Z" stroke-linecap="round" />
</g>
		<g transform="matrix(1 0 0 1 177.33 -21.05)" id="Layer_1"  >
<path style="stroke: none; stroke-width: 1; stroke-dasharray: none; stroke-linecap: butt; stroke-dashoffset: 0; stroke-linejoin: miter; stroke-miterlimit: 4; fill: rgb(68,68,68); fill-rule: nonzero; opacity: 1;"  transform=" translate(-489.59, -41.48)" d="m 481.77 41.51 v -0.06 c 0 -4.77 3.36 -8.61 7.94 -8.61 c 4.9 0 7.71 3.9 7.71 8.74 c 0 0.32 0 0.51 -0.03 0.8 h -13.12 c 0.35 3.58 2.88 5.6 5.82 5.6 c 2.27 0 3.87 -0.93 5.22 -2.34 l 1.54 1.38 c -1.66 1.86 -3.68 3.1 -6.82 3.1 c -4.54 0 -8.26 -3.49 -8.26 -8.61 Z m 13.15 -0.96 c -0.26 -3.01 -1.98 -5.63 -5.28 -5.63 c -2.88 0 -5.06 2.4 -5.38 5.63 h 10.66 Z" stroke-linecap="round" />
</g>
		<g transform="matrix(1 0 0 1 197.02 -18.68)" id="Layer_1"  >
<path style="stroke: none; stroke-width: 1; stroke-dasharray: none; stroke-linecap: butt; stroke-dashoffset: 0; stroke-linejoin: miter; stroke-miterlimit: 4; fill: rgb(68,68,68); fill-rule: nonzero; opacity: 1;"  transform=" translate(-509.28, -43.85)" d="m 500.94 33.19 h 2.46 v 3.33 c 1.34 -1.98 3.3 -3.68 6.33 -3.68 c 3.97 0 7.9 3.14 7.9 8.58 v 0.06 c 0 5.41 -3.9 8.61 -7.9 8.61 c -3.07 0 -5.06 -1.66 -6.33 -3.52 v 8.29 h -2.46 v -21.66 Z m 14.17 8.32 v -0.06 c 0 -3.9 -2.69 -6.4 -5.82 -6.4 s -5.98 2.59 -5.98 6.37 v 0.06 c 0 3.84 2.91 6.4 5.98 6.4 s 5.82 -2.37 5.82 -6.37 Z" stroke-linecap="round" />
</g>
		<g transform="matrix(1 0 0 1 215.93 -21.05)" id="Layer_1"  >
<path style="stroke: none; stroke-width: 1; stroke-dasharray: none; stroke-linecap: butt; stroke-dashoffset: 0; stroke-linejoin: miter; stroke-miterlimit: 4; fill: rgb(68,68,68); fill-rule: nonzero; opacity: 1;"  transform=" translate(-528.19, -41.48)" d="m 520.36 41.51 v -0.06 c 0 -4.77 3.36 -8.61 7.94 -8.61 c 4.9 0 7.71 3.9 7.71 8.74 c 0 0.32 0 0.51 -0.03 0.8 h -13.12 c 0.35 3.58 2.88 5.6 5.82 5.6 c 2.27 0 3.87 -0.93 5.22 -2.34 l 1.54 1.38 c -1.66 1.86 -3.68 3.1 -6.82 3.1 c -4.54 0 -8.26 -3.49 -8.26 -8.61 Z m 13.15 -0.96 c -0.26 -3.01 -1.98 -5.63 -5.28 -5.63 c -2.88 0 -5.06 2.4 -5.38 5.63 h 10.66 Z" stroke-linecap="round" />
</g>
		<g transform="matrix(1 0 0 1 234.5 -21.24)" id="Layer_1"  >
<path style="stroke: none; stroke-width: 1; stroke-dasharray: none; stroke-linecap: butt; stroke-dashoffset: 0; stroke-linejoin: miter; stroke-miterlimit: 4; fill: rgb(68,68,68); fill-rule: nonzero; opacity: 1;"  transform=" translate(-546.76, -41.29)" d="m 539.53 33.19 h 2.46 v 2.88 c 1.09 -1.79 2.82 -3.23 5.66 -3.23 c 4 0 6.34 2.69 6.34 6.62 v 10.27 h -2.46 v -9.66 c 0 -3.07 -1.66 -4.99 -4.58 -4.99 s -4.96 2.08 -4.96 5.18 v 9.47 h -2.46 v -16.54 Z" stroke-linecap="round" />
</g>
		<g transform="matrix(1 0 0 1 253.57 -24.3)" id="Layer_1"  >
<path style="stroke: none; stroke-width: 1; stroke-dasharray: none; stroke-linecap: butt; stroke-dashoffset: 0; stroke-linejoin: miter; stroke-miterlimit: 4; fill: rgb(68,68,68); fill-rule: nonzero; opacity: 1;"  transform=" translate(-565.83, -38.23)" d="m 557.48 41.51 v -0.06 c 0 -5.41 3.94 -8.61 7.9 -8.61 c 3.07 0 5.06 1.66 6.34 3.52 v -9.98 h 2.46 v 23.36 h -2.46 v -3.33 c -1.34 1.98 -3.3 3.68 -6.34 3.68 c -3.97 0 -7.9 -3.14 -7.9 -8.58 Z m 14.33 -0.03 v -0.06 c 0 -3.81 -2.91 -6.37 -5.98 -6.37 s -5.82 2.37 -5.82 6.37 v 0.06 c 0 3.9 2.72 6.4 5.82 6.4 s 5.98 -2.59 5.98 -6.4 Z" stroke-linecap="round" />
</g>
		<g transform="matrix(1 0 0 1 273.44 -21.05)" id="Layer_1"  >
<path style="stroke: none; stroke-width: 1; stroke-dasharray: none; stroke-linecap: butt; stroke-dashoffset: 0; stroke-linejoin: miter; stroke-miterlimit: 4; fill: rgb(68,68,68); fill-rule: nonzero; opacity: 1;"  transform=" translate(-585.7, -41.48)" d="m 577.87 41.51 v -0.06 c 0 -4.77 3.36 -8.61 7.94 -8.61 c 4.9 0 7.71 3.9 7.71 8.74 c 0 0.32 0 0.51 -0.03 0.8 h -13.12 c 0.35 3.58 2.88 5.6 5.82 5.6 c 2.27 0 3.87 -0.93 5.22 -2.34 l 1.54 1.38 c -1.66 1.86 -3.68 3.1 -6.82 3.1 c -4.54 0 -8.26 -3.49 -8.26 -8.61 Z m 13.15 -0.96 c -0.26 -3.01 -1.98 -5.63 -5.28 -5.63 c -2.88 0 -5.06 2.4 -5.38 5.63 h 10.66 Z" stroke-linecap="round" />
</g>
		<g transform="matrix(1 0 0 1 292 -21.24)" id="Layer_1"  >
<path style="stroke: none; stroke-width: 1; stroke-dasharray: none; stroke-linecap: butt; stroke-dashoffset: 0; stroke-linejoin: miter; stroke-miterlimit: 4; fill: rgb(68,68,68); fill-rule: nonzero; opacity: 1;"  transform=" translate(-604.26, -41.29)" d="m 597.03 33.19 h 2.46 v 2.88 c 1.09 -1.79 2.82 -3.23 5.66 -3.23 c 4 0 6.34 2.69 6.34 6.62 v 10.27 h -2.46 v -9.66 c 0 -3.07 -1.66 -4.99 -4.58 -4.99 s -4.96 2.08 -4.96 5.18 v 9.47 h -2.46 v -16.54 Z" stroke-linecap="round" />
</g>
		<g transform="matrix(1 0 0 1 307.25 -23.42)" id="Layer_1"  >
<path style="stroke: none; stroke-width: 1; stroke-dasharray: none; stroke-linecap: butt; stroke-dashoffset: 0; stroke-linejoin: miter; stroke-miterlimit: 4; fill: rgb(68,68,68); fill-rule: nonzero; opacity: 1;"  transform=" translate(-619.51, -39.11)" d="m 616.81 45.35 v -9.98 h -2.3 v -2.18 h 2.3 v -4.99 h 2.46 v 4.99 h 5.25 v 2.18 h -5.25 v 9.66 c 0 2.02 1.12 2.75 2.78 2.75 c 0.83 0 1.54 -0.16 2.4 -0.58 v 2.11 c -0.86 0.45 -1.79 0.7 -2.98 0.7 c -2.66 0 -4.67 -1.31 -4.67 -4.67 Z" stroke-linecap="round" />
</g>
		<g transform="matrix(1 0 0 1 131.12 13)" id="Layer_1"  >
<path style="stroke: none; stroke-width: 1; stroke-dasharray: none; stroke-linecap: butt; stroke-dashoffset: 0; stroke-linejoin: miter; stroke-miterlimit: 4; fill: rgb(68,68,68); fill-rule: nonzero; opacity: 1;"  transform=" translate(-443.38, -75.53)" d="m 435.34 64.33 h 16.09 v 2.34 h -13.57 v 8 h 12.13 v 2.3 h -12.13 v 9.76 h -2.53 v -22.4 Z" stroke-linecap="round" />
</g>
		<g transform="matrix(1 0 0 1 148.07 15.98)" id="Layer_1"  >
<path style="stroke: none; stroke-width: 1; stroke-dasharray: none; stroke-linecap: butt; stroke-dashoffset: 0; stroke-linejoin: miter; stroke-miterlimit: 4; fill: rgb(68,68,68); fill-rule: nonzero; opacity: 1;"  transform=" translate(-460.33, -78.52)" d="m 453.07 81.93 v -0.06 c 0 -3.49 2.88 -5.34 7.07 -5.34 c 2.11 0 3.62 0.29 5.09 0.7 v -0.58 c 0 -2.98 -1.82 -4.51 -4.93 -4.51 c -1.95 0 -3.49 0.51 -5.02 1.22 l -0.74 -2.02 c 1.82 -0.83 3.62 -1.38 6.02 -1.38 s 4.13 0.61 5.34 1.82 c 1.12 1.12 1.7 2.72 1.7 4.83 v 10.11 h -2.37 v -2.5 c -1.15 1.5 -3.07 2.85 -5.98 2.85 c -3.07 0 -6.18 -1.76 -6.18 -5.15 Z m 12.19 -1.28 v -1.6 c -1.22 -0.35 -2.85 -0.7 -4.86 -0.7 c -3.1 0 -4.83 1.34 -4.83 3.42 v 0.06 c 0 2.08 1.92 3.3 4.16 3.3 c 3.04 0 5.54 -1.86 5.54 -4.48 Z" stroke-linecap="round" />
</g>
		<g transform="matrix(1 0 0 1 161.26 12.75)" id="Layer_1"  >
<path style="stroke: none; stroke-width: 1; stroke-dasharray: none; stroke-linecap: butt; stroke-dashoffset: 0; stroke-linejoin: miter; stroke-miterlimit: 4; fill: rgb(68,68,68); fill-rule: nonzero; opacity: 1;"  transform=" translate(-473.52, -75.28)" d="m 472.11 63.85 h 2.82 v 2.72 h -2.82 v -2.72 Z m 0.16 6.33 h 2.46 v 16.54 h -2.46 v -16.54 Z" stroke-linecap="round" />
</g>
		<g transform="matrix(1 0 0 1 172 15.78)" id="Layer_1"  >
<path style="stroke: none; stroke-width: 1; stroke-dasharray: none; stroke-linecap: butt; stroke-dashoffset: 0; stroke-linejoin: miter; stroke-miterlimit: 4; fill: rgb(68,68,68); fill-rule: nonzero; opacity: 1;"  transform=" translate(-484.26, -78.31)" d="m 479.66 70.19 h 2.46 v 4.32 c 1.22 -2.75 3.62 -4.74 6.75 -4.61 v 2.66 h -0.19 c -3.62 0 -6.56 2.59 -6.56 7.58 v 6.59 h -2.46 v -16.54 Z" stroke-linecap="round" />
</g>
		<g transform="matrix(1 0 0 1 131.25 49.99)" id="Layer_1"  >
<path style="stroke: none; stroke-width: 1; stroke-dasharray: none; stroke-linecap: butt; stroke-dashoffset: 0; stroke-linejoin: miter; stroke-miterlimit: 4; fill: rgb(68,68,68); fill-rule: nonzero; opacity: 1;"  transform=" translate(-443.51, -112.52)" d="m 435.34 101.33 h 16.19 v 2.3 h -13.66 v 7.65 h 12.22 v 2.3 h -12.22 v 7.84 h 13.82 v 2.3 h -16.35 v -22.4 Z" stroke-linecap="round" />
</g>
		<g transform="matrix(1 0 0 1 152.83 49.46)" id="Layer_1"  >
<path style="stroke: none; stroke-width: 1; stroke-dasharray: none; stroke-linecap: butt; stroke-dashoffset: 0; stroke-linejoin: miter; stroke-miterlimit: 4; fill: rgb(68,68,68); fill-rule: nonzero; opacity: 1;"  transform=" translate(-465.09, -111.99)" d="m 456.49 109.36 h -2.27 v -2.14 h 2.27 v -1.44 c 0 -1.89 0.51 -3.33 1.44 -4.25 c 0.83 -0.83 2.05 -1.28 3.55 -1.28 c 1.15 0 1.92 0.13 2.72 0.42 v 2.14 c -0.9 -0.26 -1.57 -0.42 -2.4 -0.42 c -1.92 0 -2.88 1.15 -2.88 3.52 v 1.34 h 5.25 v 2.11 h -5.22 v 14.37 h -2.46 v -14.37 Z m 11.78 0 h -2.27 v -2.14 h 2.27 v -1.44 c 0 -1.89 0.48 -3.33 1.41 -4.25 c 0.86 -0.83 2.05 -1.28 3.55 -1.28 c 1.15 0 1.95 0.13 2.72 0.42 v 2.14 c -0.86 -0.26 -1.54 -0.42 -2.37 -0.42 c -1.95 0 -2.88 1.15 -2.88 3.52 v 1.34 h 5.22 v 2.11 h -5.22 v 14.37 h -2.43 v -14.37 Z" stroke-linecap="round" />
</g>
		<g transform="matrix(1 0 0 1 172.5 52.95)" id="Layer_1"  >
<path style="stroke: none; stroke-width: 1; stroke-dasharray: none; stroke-linecap: butt; stroke-dashoffset: 0; stroke-linejoin: miter; stroke-miterlimit: 4; fill: rgb(68,68,68); fill-rule: nonzero; opacity: 1;"  transform=" translate(-484.76, -115.48)" d="m 476.94 115.51 v -0.06 c 0 -4.77 3.36 -8.61 7.94 -8.61 c 4.9 0 7.71 3.9 7.71 8.74 c 0 0.32 0 0.51 -0.03 0.8 h -13.12 c 0.35 3.58 2.88 5.6 5.82 5.6 c 2.27 0 3.87 -0.93 5.22 -2.34 l 1.54 1.38 c -1.66 1.86 -3.68 3.1 -6.82 3.1 c -4.54 0 -8.26 -3.49 -8.26 -8.61 Z m 13.15 -0.96 c -0.26 -3.01 -1.98 -5.63 -5.28 -5.63 c -2.88 0 -5.06 2.4 -5.38 5.63 h 10.66 Z" stroke-linecap="round" />
</g>
		<g transform="matrix(1 0 0 1 190.44 52.95)" id="Layer_1"  >
<path style="stroke: none; stroke-width: 1; stroke-dasharray: none; stroke-linecap: butt; stroke-dashoffset: 0; stroke-linejoin: miter; stroke-miterlimit: 4; fill: rgb(68,68,68); fill-rule: nonzero; opacity: 1;"  transform=" translate(-502.7, -115.48)" d="m 495.08 115.54 v -0.06 c 0 -4.67 3.65 -8.64 8.48 -8.64 c 3.14 0 5.09 1.31 6.62 2.94 l -1.63 1.73 c -1.31 -1.38 -2.78 -2.5 -5.02 -2.5 c -3.36 0 -5.92 2.85 -5.92 6.4 v 0.06 c 0 3.58 2.62 6.43 6.08 6.43 c 2.11 0 3.74 -1.06 5.06 -2.46 l 1.57 1.47 c -1.66 1.86 -3.65 3.2 -6.75 3.2 c -4.83 0 -8.48 -3.94 -8.48 -8.58 Z" stroke-linecap="round" />
</g>
		<g transform="matrix(1 0 0 1 204.89 50.57)" id="Layer_1"  >
<path style="stroke: none; stroke-width: 1; stroke-dasharray: none; stroke-linecap: butt; stroke-dashoffset: 0; stroke-linejoin: miter; stroke-miterlimit: 4; fill: rgb(68,68,68); fill-rule: nonzero; opacity: 1;"  transform=" translate(-517.15, -113.1)" d="m 514.44 119.35 v -9.98 h -2.3 v -2.18 h 2.3 v -4.99 h 2.46 v 4.99 h 5.25 v 2.18 h -5.25 v 9.66 c 0 2.02 1.12 2.75 2.78 2.75 c 0.83 0 1.54 -0.16 2.4 -0.58 v 2.11 c -0.86 0.45 -1.79 0.7 -2.98 0.7 c -2.66 0 -4.67 -1.31 -4.67 -4.67 Z" stroke-linecap="round" />
</g>
		<g transform="matrix(1 0 0 1 214.92 49.75)" id="Layer_1"  >
<path style="stroke: none; stroke-width: 1; stroke-dasharray: none; stroke-linecap: butt; stroke-dashoffset: 0; stroke-linejoin: miter; stroke-miterlimit: 4; fill: rgb(68,68,68); fill-rule: nonzero; opacity: 1;"  transform=" translate(-527.18, -112.28)" d="m 525.77 100.85 h 2.82 v 2.72 h -2.82 v -2.72 Z m 0.16 6.33 h 2.46 v 16.54 h -2.46 v -16.54 Z" stroke-linecap="round" />
</g>
		<g transform="matrix(1 0 0 1 227.71 52.99)" id="Layer_1"  >
<path style="stroke: none; stroke-width: 1; stroke-dasharray: none; stroke-linecap: butt; stroke-dashoffset: 0; stroke-linejoin: miter; stroke-miterlimit: 4; fill: rgb(68,68,68); fill-rule: nonzero; opacity: 1;"  transform=" translate(-539.97, -115.53)" d="m 531.69 107.19 h 2.72 l 5.57 13.73 l 5.6 -13.73 h 2.66 l -7.2 16.67 h -2.18 l -7.17 -16.67 Z" stroke-linecap="round" />
</g>
		<g transform="matrix(1 0 0 1 244.89 52.95)" id="Layer_1"  >
<path style="stroke: none; stroke-width: 1; stroke-dasharray: none; stroke-linecap: butt; stroke-dashoffset: 0; stroke-linejoin: miter; stroke-miterlimit: 4; fill: rgb(68,68,68); fill-rule: nonzero; opacity: 1;"  transform=" translate(-557.15, -115.48)" d="m 549.32 115.51 v -0.06 c 0 -4.77 3.36 -8.61 7.94 -8.61 c 4.9 0 7.71 3.9 7.71 8.74 c 0 0.32 0 0.51 -0.03 0.8 h -13.12 c 0.35 3.58 2.88 5.6 5.82 5.6 c 2.27 0 3.87 -0.93 5.22 -2.34 l 1.54 1.38 c -1.66 1.86 -3.68 3.1 -6.82 3.1 c -4.54 0 -8.26 -3.49 -8.26 -8.61 Z m 13.15 -0.96 c -0.26 -3.01 -1.98 -5.63 -5.28 -5.63 c -2.88 0 -5.06 2.4 -5.38 5.63 h 10.66 Z" stroke-linecap="round" />
</g>
		<g transform="matrix(1 0 0 1 93.17 9.58)" id="Layer_1"  >
<rect style="stroke: none; stroke-width: 1; stroke-dasharray: none; stroke-linecap: butt; stroke-dashoffset: 0; stroke-linejoin: miter; stroke-miterlimit: 4; fill: rgb(68,68,68); fill-rule: nonzero; opacity: 1;"  x="-0.71" y="-52.95" rx="0" ry="0" width="1.42" height="105.9" />
</g>
</g>
</g>
</svg>