<?xml version="1.0" encoding="utf-8"?>
<!-- Generator: Adobe Illustrator 25.2.3, SVG Export Plug-In . SVG Version: 6.00 Build 0)  -->
<svg version="1.0" id="Layer_1" xmlns="http://www.w3.org/2000/svg" xmlns:xlink="http://www.w3.org/1999/xlink" x="0px" y="0px"
	 viewBox="0 0 250 250" style="enable-background:new 0 0 250 250;" xml:space="preserve">
<style type="text/css">
	.st0{fill:#1E325C;}
	.st1{fill:#BA5A17;}
	.st2{display:none;fill:#BA5A17;}
	.st3{display:none;fill:#1E325C;}
</style>
<path class="st0" d="M121.86,36.5c-18.62,1.09-26.29-24.08-26.29-24.08s10.96,14.23,26.29,14.23c15.34-1.09,25.2-16.42,25.2-16.42
	S141.58,35.41,121.86,36.5"/>
<path class="st0" d="M164.59,45.26c-17.53-8.76-12.05-32.84-12.05-32.84s2.19,17.51,16.43,24.08c14.24,6.57,29.58-2.19,29.58-2.19
	S181.02,52.92,164.59,45.26"/>
<path class="st0" d="M197.45,73.72c-10.96-15.32,5.48-35.03,5.48-35.03s-6.57,16.42,2.19,29.55c8.76,13.14,27.39,12.04,27.39,12.04
	S208.41,89.04,197.45,73.72"/>
<path class="st0" d="M213.89,113.12c-2.19-18.61,21.91-28.46,21.91-28.46s-13.15,12.04-12.05,27.37
	c2.19,15.32,17.53,24.08,17.53,24.08S216.08,132.83,213.89,113.12"/>
<path class="st0" d="M209.51,156.91c5.48-18.61,30.68-17.51,30.68-17.51s-17.53,5.47-21.91,19.7c-4.38,15.32,6.57,28.46,6.57,28.46
	S204.03,174.42,209.51,156.91"/>
<path class="st0" d="M186.5,193.03c13.15-13.14,35.06-1.09,35.06-1.09s-17.53-3.28-28.49,7.66c-10.96,10.95-7.67,28.46-7.67,28.46
	S173.35,206.16,186.5,193.03"/>
<path class="st0" d="M149.25,213.83c18.62-5.47,30.68,17.51,30.68,17.51s-13.15-12.04-28.49-7.66s-20.82,20.8-20.82,20.8
	S130.62,218.2,149.25,213.83"/>
<path class="st0" d="M106.52,214.92c18.62,4.38,18.62,29.55,18.62,29.55s-6.57-16.42-21.91-20.8c-15.34-3.28-28.49,8.76-28.49,8.76
	S87.9,210.54,106.52,214.92"/>
<path class="st0" d="M67.08,196.31c14.24,12.04,3.29,35.03,3.29,35.03s2.19-17.51-9.86-28.46c-12.05-9.85-29.58-5.47-29.58-5.47
	S52.84,183.18,67.08,196.31"/>
<path class="st0" d="M42.98,161.29c6.57,17.51-13.15,32.84-13.15,32.84s9.86-15.32,4.38-29.55s-23.01-18.61-23.01-18.61
	S36.4,143.77,42.98,161.29"/>
<path class="st0" d="M35.31,118.6c-1.1,18.61-25.2,24.08-25.2,24.08s15.34-8.76,16.43-25.18c1.1-15.32-14.24-26.27-14.24-26.27
	S35.31,99.99,35.31,118.6"/>
<path class="st0" d="M48.46,78.1c-9.86,16.42-33.96,8.76-33.96,8.76s17.53-1.09,26.29-14.23c7.67-13.14,1.1-29.55,1.1-29.55
	S58.32,61.68,48.46,78.1"/>
<path class="st0" d="M80.23,48.54c-17.53,8.76-35.06-8.76-35.06-8.76s16.43,7.66,29.58,0c14.24-7.66,15.34-26.27,15.34-26.27
	S96.66,38.69,80.23,48.54"/>
<g>
	<path class="st1" d="M129.53,10.23v3.28c0,1.09-1.1,2.19-1.1,2.19c-1.1,1.09-1.1,1.09-2.19,2.19c-1.1,0-2.19,1.09-3.29,1.09
		c-1.1,0-2.19,0-3.29,0s-2.19-1.09-2.19-1.09c-1.1-3.28-2.19-4.38-2.19-4.38c0-1.09-1.1-2.19-1.1-3.28s0-2.19,0-3.28
		s1.1-2.19,1.1-2.19c1.1-1.09,1.1-1.09,2.19-2.19c2.19,0,3.29,0,4.38,0h3.29c1.1,0,2.19,1.09,2.19,1.09c1.1,1.09,1.1,1.09,2.19,2.19
		L129.53,10.23z"/>
	<path class="st1" d="M183.21,25.55c0,1.09-1.1,2.19-2.19,2.19c-1.1,1.09-1.1,1.09-2.19,1.09s-2.19,0-3.29,0
		c-1.1,0-2.19,0-3.29-1.09c-1.1,0-2.19-1.09-2.19-2.19c-1.1-1.09-1.1-1.09-1.1-2.19s0-2.19,0-3.28c0-1.09,0-2.19,1.1-3.28
		c0-1.09,1.1-2.19,2.19-2.19c1.1-1.09,1.1-1.09,2.19-1.09h3.29c1.1,0,2.19,0,3.29,1.09c1.1,0,2.19,1.09,2.19,2.19
		c1.1,1.09,1.1,1.09,1.1,2.19v3.28C183.21,23.37,183.21,24.46,183.21,25.55"/>
	<path class="st1" d="M223.75,63.87c-1.1,1.09-2.19,1.09-2.19,1.09c-1.1,0-2.19,0-3.29,0s-2.19,0-2.19-1.09
		c-1.1,0-1.1-1.09-2.19-2.19c-1.1-1.09-1.1-2.19-1.1-2.19c0-1.09,0-2.19,0-3.28c0-1.09,0-2.19,1.1-3.28c0-1.09,1.1-1.09,2.19-2.19
		s2.19-1.09,2.19-1.09h3.29c1.1,0,2.19,0,2.19,1.09c1.1,0,1.1,1.09,2.19,2.19s1.1,2.19,1.1,2.19v3.28c0,1.09,0,2.19-1.1,3.28
		C224.84,62.77,223.75,63.87,223.75,63.87"/>
	<path class="st1" d="M241.28,116.41c-1.1,0-2.19,0-3.29,0s-2.19-1.09-2.19-1.09c-1.1-1.09-1.1-1.09-2.19-2.19
		c0-1.09-1.1-2.19-1.1-2.19c0-1.09,0-2.19,0-3.28c0-1.09,1.1-2.19,1.1-2.19c1.1-1.09,1.1-1.09,2.19-2.19c1.1,0,2.19-1.09,2.19-1.09
		h3.29c1.1,0,2.19,1.09,2.19,1.09c1.1,1.09,1.1,1.09,2.19,2.19c0,1.09,1.1,2.19,1.1,2.19v3.28c0,1.09-1.1,2.19-1.1,2.19
		c-1.1,1.09-1.1,1.09-2.19,2.19C243.47,116.41,242.37,116.41,241.28,116.41"/>
	<path class="st1" d="M232.51,172.23c-1.1,0-2.19-1.09-2.19-1.09c-1.1-1.09-1.1-1.09-2.19-2.19c0-1.09-1.1-2.19-1.1-3.28
		c0-1.09,0-2.19,0-3.28s1.1-2.19,1.1-2.19c1.1-1.09,1.1-1.09,2.19-2.19c1.1,0,2.19-1.09,3.29-1.09h3.29c1.1,0,2.19,1.09,2.19,1.09
		c1.1,1.09,1.1,1.09,2.19,2.19c0,1.09,1.1,2.19,1.1,3.28v3.28c0,1.09-1.1,2.19-1.1,2.19c-1.1,1.09-1.1,1.09-2.19,2.19
		c-1.1,0-2.19,1.09-3.29,1.09C234.7,172.23,233.61,172.23,232.51,172.23"/>
	<path class="st1" d="M199.65,217.11c-1.1-1.09-1.1-1.09-1.1-2.19s0-2.19,0-3.28s0-2.19,1.1-3.28c0-1.09,1.1-2.19,2.19-2.19
		c1.1-1.09,1.1-1.09,2.19-1.09h3.29c1.1,0,2.19,0,3.29,1.09c1.1,0,2.19,1.09,2.19,2.19c1.1,1.09,1.1,1.09,1.1,2.19v3.28
		c0,1.09,0,2.19-1.1,3.28c0,1.09-1.1,2.19-2.19,2.19c-1.1,1.09-1.1,1.09-2.19,1.09c-1.1,0-2.19,0-3.29,0c-1.1,0-2.19,0-3.29-1.09
		C200.74,218.2,199.65,218.2,199.65,217.11"/>
	<path class="st1" d="M149.25,241.19c0-1.09,0-2.19,0-3.28s0-2.19,1.1-3.28c0-1.09,1.1-1.09,2.19-2.19s1.1-1.09,2.19-1.09h3.29
		c1.1,0,2.19,0,3.29,1.09c1.1,0,1.1,1.09,2.19,2.19c1.1,1.09,1.1,1.09,1.1,2.19v3.28c0,1.09,0,2.19-1.1,3.28
		c0,1.09-1.1,1.09-2.19,2.19c-1.1,1.09-1.1,1.09-2.19,1.09c-1.1,0-2.19,0-3.29,0s-2.19,0-3.29-1.09c-1.1,0-1.1-1.09-2.19-2.19
		C149.25,243.38,149.25,242.29,149.25,241.19"/>
	<path class="st1" d="M93.37,239c0-1.09,1.1-2.19,1.1-2.19c0-1.09,1.1-1.09,2.19-2.19c1.1,0,2.19-1.09,2.19-1.09h3.29
		c1.1,0,2.19,1.09,2.19,1.09l2.19,2.19c1.1,1.09,1.1,2.19,1.1,2.19v3.28c0,1.09-1.1,2.19-1.1,2.19c0,1.09-1.1,1.09-2.19,2.19
		c-1.1,1.09-2.19,1.09-2.19,1.09c-1.1,0-2.19,0-3.29,0c-1.1,0-2.19-1.09-2.19-1.09c-1.1-1.09-1.1-1.09-2.19-2.19s-1.1-2.19-1.1-2.19
		C93.37,241.19,93.37,240.1,93.37,239"/>
	<path class="st1" d="M45.17,211.64c0,0,1.1-1.09,2.19-1.09s2.19-1.09,3.29-1.09h3.29c1.1,0,2.19,1.09,2.19,1.09
		c0,1.09,0,2.19,1.1,2.19c0,1.09,1.1,2.19,1.1,3.28v3.28c0,1.09-1.1,2.19-1.1,2.19c-1.1,1.09-1.1,1.09-2.19,2.19
		c-1.1,0-2.19,1.09-3.29,1.09c-1.1,0-2.19,0-3.29,0c-1.1,0-2.19-1.09-2.19-1.09c-1.1-2.19-2.19-2.19-2.19-3.28
		c0-1.09-1.1-2.19-1.1-3.28c0-1.09,0-2.19,0-3.28C44.07,213.83,44.07,212.73,45.17,211.64"/>
	<path class="st1" d="M14.49,164.57c1.1,0,2.19-1.09,3.29-1.09s2.19,0,3.29,1.09c1.1,0,2.19,1.09,2.19,1.09c0,1.09,0,2.19,1.1,3.28
		c0,1.09,1.1,2.19,1.1,3.28c0,1.09,0,2.19-1.1,3.28c0,1.09-1.1,2.19-1.1,2.19c-1.1,1.09-1.1,1.09-2.19,1.09s-2.19,1.09-3.29,1.09
		c-1.1,0-2.19,0-3.29-1.09c-1.1,0-2.19-1.09-2.19-1.09c-1.1-1.09-1.1-1.09-1.1-2.19s-1.1-2.19-1.1-3.28s0-2.19,1.1-3.28
		c0-1.09,1.1-2.19,1.1-2.19C12.3,165.66,13.4,165.66,14.49,164.57"/>
	<path class="st1" d="M9.01,108.74c1.1,0,2.19,0,3.29,1.09c1.1,0,1.1,1.09,2.19,2.19s1.1,1.09,1.1,2.19v3.28c0,1.09,0,2.19-1.1,3.28
		c0,1.09-1.1,1.09-2.19,2.19c0,0,0,1.09-1.1,1.09s-2.19,0-3.29,0s-2.19,0-3.29-1.09c-1.1,0-1.1-1.09-2.19-2.19s-1.1-1.09-1.1-2.19
		s0-2.19,0-3.28c0-1.09,0-2.19,1.1-3.28c0-1.09,1.1-1.09,2.19-2.19s1.1-1.09,2.19-1.09C7.92,109.84,7.92,108.74,9.01,108.74"/>
	<path class="st1" d="M30.93,57.3c1.1,0,1.1,1.09,2.19,2.19c0,1.09,1.1,2.19,1.1,3.28v3.28c0,1.09,0,2.19-1.1,2.19
		s-1.1,1.09-2.19,2.19c-1.1,0-2.19,0-2.19,1.09c-1.1,0-2.19,0-3.29,0c-1.1,0-2.19,0-2.19-1.09c-1.1-1.09-2.19-1.09-2.19-2.19
		c-1.1-1.09-1.1-2.19-1.1-3.28c0-1.09,0-2.19,0-3.28c0-1.09,0-2.19,1.1-2.19c0-1.09,1.1-1.09,2.19-2.19c0,0,1.1,0,2.19-1.09h3.29
		C28.74,56.2,29.83,57.3,30.93,57.3"/>
	<path class="st1" d="M73.65,21.18c0,1.09,1.1,2.19,1.1,3.28v3.28c0,1.09-1.1,2.19-1.1,2.19c-1.1,1.09-2.19,1.09-3.29,2.19
		c-1.1,0-2.19,1.09-3.29,1.09c-1.1,0-2.19,0-3.29,0s-2.19-1.09-2.19-1.09c0-1.09-1.1-2.19-1.1-3.28c0-1.09-1.1-2.19-1.1-3.28
		s0-2.19,0-3.28s1.1-2.19,1.1-2.19c1.1-1.09,1.1-1.09,2.19-2.19c1.1,0,2.19-1.09,2.19-1.09h3.29c1.1,0,2.19,1.09,2.19,1.09
		C72.56,20.08,72.56,21.18,73.65,21.18"/>
	<path class="st2" d="M350.84,397.72c1.1-5.47,3.29-8.76,3.29-9.85c0-1.09-1.1-2.19-2.19-2.19l-3.29-1.09c-1.1-1.09,0-2.19,0-2.19
		h4.38h4.38h5.48v1.09c0,1.09,1.1,4.38,4.38,12.04l8.76,21.89c2.19,4.38,3.29,7.66,4.38,9.85c1.1,0,1.1-1.09,1.1-2.19l6.57-21.89
		c2.19-8.76,4.38-14.23,4.38-16.42c0-1.09,0-2.19-2.19-2.19h-3.29c0-1.09,0-2.19,0-2.19h9.86h8.76c0,0,1.1,2.19,0,2.19h-2.19
		c-2.19,0-3.29,1.09-4.38,1.09c-1.1,1.09-4.38,8.76-6.57,17.51l-6.57,19.7c-3.29,8.76-4.38,12.04-5.48,17.51c0,0-1.1,1.09-2.19,0
		c-1.1-3.28-2.19-7.66-7.67-20.8l-7.67-15.32c-2.19-5.47-4.38-10.95-5.48-14.23c0,0-1.1,3.28-3.29,7.66l-6.57,22.99
		c-2.19,5.47-3.29,13.14-3.29,14.23c-1.1,3.28,1.1,3.28,4.38,3.28h2.19v2.19c-2.19,0-5.48,0-9.86,0c-3.29,0-6.57,0-8.76,0
		c0,0-1.1-1.09,0-2.19h2.19c1.1,0,3.29,0,4.38-1.09c1.1-1.09,3.29-5.47,6.57-16.42L350.84,397.72z"/>
	<path class="st2" d="M411.09,410.85c-5.48,6.57-8.76,17.51-8.76,21.89c0,3.28,1.1,5.47,3.29,5.47s4.38-1.09,6.57-4.38
		c3.29-5.47,7.67-16.42,7.67-20.8c0-2.19,0-5.47-3.29-5.47C415.47,407.57,413.28,407.57,411.09,410.85 M426.43,415.23
		c0,4.38-3.29,13.14-8.76,19.7c-5.48,5.47-9.86,5.47-12.05,5.47c-5.48,0-8.76-4.38-8.76-12.04c0-5.47,3.29-14.23,9.86-19.7
		c4.38-4.38,8.76-5.47,12.05-5.47C424.24,404.29,427.53,408.67,426.43,415.23"/>
	<path class="st2" d="M446.15,413.04l-3.29,10.95c2.19-4.38,6.57-12.04,8.76-14.23c2.19-2.19,4.38-4.38,6.57-4.38
		c3.29,0,3.29,3.28,3.29,4.38c0,1.09-1.1,3.28-2.19,5.47c-1.1,1.09-2.19,1.09-3.29,0c0-2.19-1.1-3.28-2.19-3.28
		s-2.19,1.09-3.29,2.19c-5.48,6.57-9.86,17.51-14.24,27.37c0,1.09-1.1,1.09-1.1,1.09c-1.1,0-3.29,0-3.29-2.19
		c1.1-3.28,6.57-18.61,8.76-27.37c0-1.09,0-2.19-1.1-2.19c-2.19,0-4.38,2.19-6.57,4.38c-1.1,0-1.1,0-1.1-1.09
		c3.29-4.38,6.57-8.76,9.86-8.76C448.34,404.29,447.25,410.85,446.15,413.04"/>
	<path class="st2" d="M477.92,409.76l-7.67,22.99c0,2.19,0,2.19,1.1,2.19c1.1,0,6.57-4.38,9.86-7.66c1.1,0,1.1,0,1.1,1.09
		c-4.38,7.66-13.15,12.04-16.43,12.04c-1.1,0-2.19-1.09-2.19-2.19s0-2.19,1.1-5.47l7.67-24.08h-6.57c0-1.09,0-2.19,1.1-2.19
		l6.57-1.09l4.38-8.76h3.29l-2.19,8.76h9.86c1.1,1.09,0,2.19-1.1,3.28h-9.86L477.92,409.76z"/>
	<path class="st2" d="M511.89,378.02c-2.19,4.38-4.38,13.14-6.57,17.51l-8.76,26.27c6.57-8.76,10.96-12.04,14.24-14.23
		c3.29-2.19,5.48-3.28,8.76-3.28s5.48,3.28,5.48,5.47c0,5.47-3.29,14.23-6.57,20.8c-2.19,3.28-3.29,4.38-5.48,6.57
		c-3.29,3.28-5.48,3.28-6.57,3.28c-3.29,0-3.29-2.19-3.29-2.19c0-1.09,1.1-3.28,2.19-3.28h1.1c1.1,0,2.19,1.09,2.19,1.09
		c1.1,0,2.19-1.09,3.29-4.38c2.19-5.47,6.57-17.51,6.57-21.89c0-2.19-1.1-2.19-2.19-2.19c-1.1,0-3.29,1.09-4.38,2.19
		c-3.29,3.28-6.57,5.47-10.96,12.04c-4.38,5.47-8.76,13.14-10.96,17.51c0,1.09-1.1,1.09-1.1,1.09c-1.1,0-3.29,0-2.19-2.19
		l16.43-49.26c2.19-5.47,2.19-6.57,1.1-7.66l-2.19-1.09v-1.09C503.12,379.11,508.6,378.02,511.89,378.02z"/>
	<path class="st2" d="M542.56,411.95c-3.29,3.28-5.48,7.66-6.57,9.85c5.48-2.19,8.76-3.28,12.05-6.57c2.19-2.19,3.29-5.47,3.29-5.47
		c0-1.09,0-2.19-2.19-2.19C548.04,407.57,545.85,407.57,542.56,411.95 M556.8,409.76c0,6.57-8.76,10.95-20.82,14.23
		c-1.1,1.09-1.1,4.38-1.1,7.66c0,3.28,2.19,5.47,4.38,5.47c3.29,0,5.48-2.19,8.76-5.47c1.1,0,1.1,1.09,1.1,1.09
		c-5.48,6.57-9.86,7.66-14.24,7.66c-5.48,0-6.57-4.38-6.57-8.76c0-5.47,3.29-16.42,13.15-22.99c4.38-3.28,7.67-4.38,10.96-4.38
		C554.61,404.29,556.8,407.57,556.8,409.76"/>
	<path class="st2" d="M572.14,413.04l-3.29,10.95c2.19-4.38,6.57-12.04,8.76-14.23c2.19-2.19,4.38-4.38,6.57-4.38
		c3.29,0,3.29,3.28,3.29,4.38c0,1.09-1.1,3.28-2.19,5.47c-1.1,1.09-2.19,1.09-3.29,0c0-2.19-1.1-3.28-2.19-3.28
		s-2.19,1.09-3.29,2.19c-5.48,6.57-9.86,17.51-14.24,27.37c0,1.09-1.1,1.09-1.1,1.09c-1.1,0-3.29,0-3.29-2.19
		c1.1-3.28,6.57-18.61,8.76-27.37c0-1.09,0-2.19-1.1-2.19c-2.19,0-4.38,2.19-6.57,4.38c-1.1,0-1.1,0-1.1-1.09
		c3.29-4.38,6.57-8.76,9.86-8.76C574.33,404.29,573.24,410.85,572.14,413.04"/>
	<path class="st2" d="M599.53,422.9c6.57-8.76,15.34-18.61,21.91-18.61c3.29,0,4.38,2.19,4.38,4.38c0,1.09-1.1,4.38-1.1,6.57
		c-1.1,4.38-7.67,18.61-7.67,19.7v2.19c1.1,0,5.48-3.28,7.67-5.47c1.1,0,1.1,0,1.1,1.09c-3.29,5.47-9.86,9.85-15.34,9.85
		c-1.1,0-2.19-1.09-2.19-2.19c0-1.09,0-1.09,2.19-5.47c2.19-4.38,5.48-13.14,6.57-17.51c1.1-1.09,2.19-4.38,2.19-6.57
		c0-1.09,0-2.19-1.1-2.19c-2.19,0-7.67,4.38-12.05,9.85c-4.38,5.47-7.67,12.04-13.15,21.89c0,1.09-1.1,1.09-1.1,1.09
		c-1.1,0-3.29,0-2.19-2.19c0-1.09,9.86-26.27,9.86-27.37c0-1.09,0-2.19,0-2.19c-2.19,0-5.48,2.19-7.67,4.38
		c-1.1,0-1.1-1.09-1.1-1.09c3.29-4.38,8.76-7.66,13.15-7.66c2.19,0,3.29,1.09,2.19,3.28L599.53,422.9z"/>
	<path class="st2" d="M670.74,395.53c2.19-7.66,3.29-9.85-2.19-9.85h-2.19c0-1.09,0-2.19,0-2.19h9.86h10.96c1.1,0,1.1,2.19,0,2.19
		h-2.19c-4.38,0-4.38,1.09-7.67,9.85l-9.86,32.84c-2.19,7.66-3.29,9.85,1.1,9.85h2.19v2.19c-4.38,0-7.67,0-10.96,0s-6.57,0-9.86,0
		c-1.1,0-1.1-2.19,0-2.19h2.19c4.38,0,5.48-1.09,7.67-9.85L670.74,395.53z"/>
	<path class="st2" d="M695.94,413.04l-3.29,10.95c2.19-4.38,6.57-12.04,8.76-14.23c2.19-2.19,4.38-4.38,6.57-4.38
		c3.29,0,3.29,3.28,3.29,4.38c0,1.09-1.1,3.28-2.19,5.47c-1.1,1.09-2.19,1.09-3.29,0c0-2.19-1.1-3.28-2.19-3.28
		c-1.1,0-2.19,1.09-3.29,2.19c-5.48,6.57-9.86,17.51-14.24,27.37c0,1.09-1.1,1.09-1.1,1.09c-1.1,0-3.29,0-3.29-2.19
		c1.1-3.28,6.57-18.61,8.76-27.37c0-1.09,0-2.19-1.1-2.19c-2.19,0-4.38,2.19-6.57,4.38c-1.1,0-1.1,0-1.1-1.09
		c3.29-4.38,6.57-8.76,9.86-8.76C699.23,404.29,697.04,410.85,695.94,413.04"/>
	<path class="st2" d="M724.43,411.95c-3.29,3.28-5.48,7.66-6.57,9.85c5.48-2.19,8.76-3.28,12.05-6.57c2.19-2.19,3.29-5.47,3.29-5.47
		c0-1.09,0-2.19-2.19-2.19C729.91,407.57,727.71,407.57,724.43,411.95 M738.67,409.76c0,6.57-8.76,10.95-20.82,14.23
		c-1.1,1.09-1.1,4.38-1.1,7.66c0,3.28,2.19,5.47,4.38,5.47c3.29,0,5.48-2.19,8.76-5.47c1.1,0,1.1,1.09,1.1,1.09
		c-5.48,6.57-9.86,7.66-14.24,7.66c-5.48,0-6.57-4.38-6.57-8.76c0-5.47,3.29-16.42,13.15-22.99c4.38-3.28,7.67-4.38,10.96-4.38
		C736.48,404.29,738.67,407.57,738.67,409.76"/>
	<path class="st2" d="M746.34,433.84c-1.1,2.19-1.1,3.28,0,3.28c2.19,0,5.48-4.38,9.86-8.76c1.1,0,1.1,0,1.1,1.09
		c-2.19,4.38-7.67,12.04-15.34,12.04c-2.19,0-3.29-1.09-3.29-2.19c0-1.09,0-3.28,2.19-7.66l14.24-41.59c2.19-6.57,1.1-6.57,0-7.66
		l-1.1-1.09v-1.09c1.1-1.09,6.57-2.19,10.96-2.19c-1.1,3.28-2.19,5.47-5.48,15.32L746.34,433.84z"/>
	<path class="st2" d="M777.02,411.95c-5.48,5.47-10.96,16.42-10.96,22.99c0,1.09,0,2.19,1.1,2.19c1.1,0,3.29-1.09,8.76-5.47
		c6.57-6.57,9.86-13.14,12.05-18.61c-1.1-2.19-2.19-3.28-4.38-3.28C781.4,408.67,780.3,409.76,777.02,411.95 M792.35,402.1
		c1.1-1.09,3.29,0,4.38,1.09c-1.1,3.28-8.76,21.89-12.05,30.65c0,1.09,0,2.19,1.1,2.19c1.1,0,4.38-1.09,8.76-5.47
		c1.1,0,1.1,0,1.1,1.09c-3.29,4.38-9.86,9.85-14.24,9.85c-2.19,0-2.19-2.19-2.19-2.19c0-1.09,0-1.09,1.1-3.28l3.29-7.66
		c-6.57,7.66-15.34,13.14-18.62,13.14c-2.19,0-3.29-2.19-3.29-4.38c0-2.19,2.19-8.76,7.67-16.42c4.38-5.47,7.67-8.76,10.96-10.95
		c3.29-2.19,5.48-2.19,7.67-2.19h2.19c0,0,1.1,1.09,2.19,2.19L792.35,402.1z"/>
	<path class="st2" d="M810.98,422.9c6.57-8.76,15.34-18.61,21.91-18.61c3.29,0,4.38,2.19,4.38,4.38c0,1.09-1.1,4.38-1.1,6.57
		c-1.1,4.38-7.67,18.61-7.67,19.7v2.19c1.1,0,5.48-3.28,7.67-5.47c1.1,0,1.1,0,1.1,1.09c-3.29,5.47-9.86,9.85-15.34,9.85
		c-1.1,0-2.19-1.09-2.19-2.19c0-1.09,0-1.09,2.19-5.47c2.19-4.38,5.48-13.14,6.57-17.51c1.1-1.09,2.19-4.38,2.19-6.57
		c0-1.09,0-2.19-1.1-2.19c-2.19,0-7.67,4.38-12.05,9.85c-4.38,5.47-7.67,12.04-13.15,21.89c0,1.09-1.1,1.09-1.1,1.09
		c-1.1,0-3.29,0-2.19-2.19c0-1.09,9.86-26.27,9.86-27.37c0-1.09,0-2.19,0-2.19c-2.19,0-5.48,2.19-7.67,4.38
		c-1.1,0-1.1-1.09-1.1-1.09c3.29-4.38,8.76-7.66,13.15-7.66c2.19,0,3.29,1.09,2.19,3.28L810.98,422.9z"/>
	<path class="st2" d="M862.47,410.85c-3.29,3.28-9.86,10.95-12.05,16.42c-2.19,5.47-2.19,6.57-2.19,8.76c0,1.09,1.1,2.19,2.19,2.19
		c1.1,0,5.48-1.09,12.05-7.66c6.57-6.57,8.76-12.04,10.96-16.42c1.1-3.28,0-6.57-2.19-6.57
		C866.85,407.57,864.66,408.67,862.47,410.85 M880,388.96c2.19-4.38,2.19-6.57,1.1-7.66h-3.29v-1.09c1.1-1.09,6.57-2.19,9.86-2.19
		c-1.1,4.38-3.29,7.66-5.48,15.32c-8.76,24.08-13.15,37.22-13.15,40.5v2.19c1.1,0,6.57-4.38,9.86-7.66c1.1,0,1.1,0,1.1,1.09
		c-2.19,4.38-9.86,12.04-14.24,12.04c-2.19,0-3.29-1.09-3.29-3.28c0-1.09,0-2.19,1.1-5.47l3.29-8.76
		c-5.48,7.66-12.05,16.42-20.82,16.42c-3.29,0-5.48-3.28-5.48-6.57c0-6.57,4.38-16.42,12.05-22.99c5.48-5.47,10.96-7.66,15.34-7.66
		c1.1,0,3.29,1.09,4.38,2.19L880,388.96z"/>
	<path class="st2" d="M924.92,395.53c2.19-7.66,2.19-9.85-2.19-9.85h-2.19c0-1.09,0-2.19,0-2.19h9.86h9.86c1.1,0,1.1,2.19,0,2.19
		h-2.19c-4.38,1.09-4.38,2.19-7.67,9.85l-12.05,39.41c-1.1,4.38-3.29,8.76-5.48,13.14c-3.29,6.57-8.76,9.85-16.43,9.85
		c-2.19,0-5.48-1.09-5.48-2.19s1.1-3.28,3.29-3.28c1.1,0,2.19,1.09,3.29,1.09c1.1,1.09,2.19,1.09,4.38,1.09
		c2.19,0,4.38-3.28,5.48-7.66c1.1-2.19,3.29-7.66,5.48-17.51L924.92,395.53z"/>
	<path class="st2" d="M941.35,432.75c-1.1,2.19,0,3.28,1.1,3.28c1.1,0,4.38-3.28,8.76-7.66c7.67-7.66,12.05-17.51,15.34-22.99
		c2.19,0,4.38,0,4.38,1.09c-1.1,2.19-6.57,16.42-9.86,27.37v2.19c2.19,0,6.57-4.38,8.76-6.57c1.1,0,1.1,0,1.1,1.09
		c-2.19,4.38-10.96,10.95-15.34,10.95c-1.1,0-2.19-2.19-2.19-3.28l5.48-16.42c-6.57,7.66-17.53,18.61-21.91,18.61
		c-3.29,0-4.38-3.28-2.19-7.66l7.67-20.8c1.1-2.19,1.1-2.19,0-2.19c-1.1,0-6.57,3.28-8.76,5.47c-1.1,0-1.1,0-1.1-1.09
		c2.19-3.28,10.96-9.85,15.34-9.85c1.1,0,3.29,1.09,2.19,2.19L941.35,432.75z"/>
	<path class="st2" d="M993.94,410.85c-3.29,3.28-9.86,10.95-12.05,16.42c-2.19,5.47-2.19,6.57-2.19,8.76c0,1.09,1.1,2.19,2.19,2.19
		c1.1,0,5.48-1.09,12.05-7.66c6.57-6.57,8.76-12.04,10.96-16.42c1.1-3.28,0-6.57-2.19-6.57
		C999.42,407.57,997.23,408.67,993.94,410.85 M1011.47,388.96c2.19-4.38,2.19-6.57,1.1-7.66l-2.19-1.09v-1.09
		c2.19-1.09,6.57-2.19,9.86-2.19c-1.1,4.38-3.29,7.66-5.48,15.32c-8.76,24.08-13.15,37.22-13.15,40.5v2.19
		c1.1,0,6.57-4.38,9.86-7.66c1.1,0,1.1,0,1.1,1.09c-2.19,4.38-9.86,12.04-14.24,12.04c-2.19,0-3.29-1.09-3.29-3.28
		c0-1.09,0-2.19,1.1-5.47l3.29-8.76c-5.48,7.66-12.05,16.42-20.82,16.42c-3.29,0-5.48-3.28-5.48-6.57c0-6.57,4.38-16.42,12.05-22.99
		c5.48-5.47,10.96-7.66,15.34-7.66c1.1,0,3.29,1.09,4.38,2.19L1011.47,388.96z"/>
	<path class="st2" d="M1038.86,390.06c0,2.19-2.19,5.47-4.38,5.47s-3.29-2.19-3.29-3.28c0-2.19,1.1-5.47,4.38-5.47
		C1037.76,386.77,1038.86,387.87,1038.86,390.06 M1027.9,411.95c0-1.09,0-1.09,0-1.09c-1.1,0-3.29,1.09-7.67,4.38
		c-1.1,0-1.1-1.09-1.1-1.09c4.38-5.47,10.96-8.76,14.24-8.76c1.1,0,1.1,0,1.1,1.09v3.28l-9.86,25.18v2.19c1.1,0,6.57-3.28,8.76-6.57
		c1.1,0,1.1,1.09,1.1,1.09c-1.1,2.19-9.86,9.85-16.43,9.85c0,0-1.1,0-1.1-1.09s-1.1-1.09,0-2.19L1027.9,411.95z"/>
	<path class="st2" d="M1069.53,409.76c0,3.28-3.29,4.38-4.38,4.38c-1.1,0-1.1,0-2.19-1.09c0-2.19,0-4.38-3.29-4.38
		c-2.19,0-4.38,2.19-7.67,5.47c-3.29,4.38-5.48,10.95-5.48,17.51c0,4.38,1.1,5.47,3.29,5.47c3.29,0,6.57-2.19,9.86-5.47
		c1.1,0,1.1,1.09,1.1,1.09c-3.29,4.38-8.76,7.66-14.24,7.66c-3.29,0-6.57-2.19-6.57-8.76c0-5.47,3.29-15.32,10.96-21.89
		c3.29-3.28,7.67-5.47,10.96-5.47C1067.34,404.29,1069.53,406.48,1069.53,409.76"/>
	<path class="st2" d="M1092.54,390.06c0,2.19-2.19,5.47-4.38,5.47s-3.29-2.19-3.29-3.28c0-2.19,1.1-5.47,4.38-5.47
		C1091.45,386.77,1092.54,387.87,1092.54,390.06 M1081.59,411.95c0-1.09,0-1.09,0-1.09c-1.1,0-3.29,1.09-7.67,4.38
		c-1.1,0-1.1-1.09-1.1-1.09c4.38-5.47,10.96-8.76,14.24-8.76c1.1,0,1.1,0,1.1,1.09v3.28l-9.86,25.18v2.19c1.1,0,6.57-3.28,8.76-6.57
		c1.1,0,1.1,1.09,1.1,1.09c-1.1,2.19-9.86,9.85-16.43,9.85c0,0-1.1,0-1.1-1.09s-1.1-1.09,0-2.19L1081.59,411.95z"/>
	<path class="st2" d="M1110.07,411.95c-5.48,5.47-10.96,16.42-10.96,22.99c0,1.09,0,2.19,1.1,2.19s3.29-1.09,8.76-5.47
		c6.57-6.57,9.86-13.14,12.05-18.61c-1.1-2.19-2.19-3.28-4.38-3.28C1114.45,408.67,1113.36,409.76,1110.07,411.95 M1125.41,402.1
		c1.1-1.09,3.29,0,4.38,1.09c-1.1,3.28-8.76,21.89-12.05,30.65c0,1.09,0,2.19,1.1,2.19s4.38-1.09,8.76-5.47c1.1,0,1.1,0,1.1,1.09
		c-3.29,4.38-9.86,9.85-14.24,9.85c-2.19,0-2.19-2.19-2.19-2.19c0-1.09,0-1.09,1.1-3.28l3.29-7.66
		c-6.57,7.66-15.34,13.14-18.62,13.14c-2.19,0-3.29-2.19-3.29-4.38c0-2.19,2.19-8.76,7.67-16.42c4.38-5.47,7.67-8.76,10.96-10.95
		s5.48-2.19,7.67-2.19h2.19c0,0,1.1,1.09,2.19,2.19L1125.41,402.1z"/>
	<path class="st2" d="M1139.65,433.84c-1.1,2.19-1.1,3.28,0,3.28c2.19,0,5.48-4.38,9.86-8.76c1.1,0,1.1,0,1.1,1.09
		c-2.19,4.38-7.67,12.04-15.34,12.04c-2.19,0-3.29-1.09-3.29-2.19c0-1.09,0-3.28,2.19-7.66l14.24-41.59c2.19-6.57,1.1-6.57,0-7.66
		l-1.1-1.09v-1.09c1.1-1.09,6.57-2.19,10.96-2.19c-1.1,3.28-2.19,5.47-5.48,15.32L1139.65,433.84z"/>
	<path class="st2" d="M367.27,518.13c1.1,0,1.1,0,2.19-2.19l1.1-18.61c0-1.09,0-2.19,0-2.19s-1.1,0-3.29,4.38l-12.05,17.51
		c-1.1,1.09,0,1.09,1.1,1.09L367.27,518.13z M380.42,542.21v2.19c-2.19,0-5.48,0-9.86,0s-7.67,0-9.86,0c-1.1,0-1.1-2.19,0-2.19h2.19
		c2.19,0,3.29-1.09,3.29-1.09s1.1-1.09,1.1-5.47l1.1-12.04c0-2.19,0-2.19-2.19-2.19h-12.05c-2.19,0-3.29,0-4.38,2.19l-6.57,9.85
		c-3.29,4.38-4.38,6.57-4.38,6.57s0,1.09,2.19,1.09h3.29c1.1,0,0,2.19,0,2.19c-2.19,0-5.48,0-8.76,0c-3.29,0-6.57,0-9.86,0v-2.19
		h2.19c2.19,0,4.38-1.09,6.57-3.28c2.19-3.28,7.67-9.85,14.24-19.7l15.34-21.89c3.29-5.47,4.38-7.66,5.48-8.76
		c3.29,0,6.57-3.28,6.57-3.28s1.1,0,1.1,1.09s0,5.47-1.1,13.14l-2.19,32.84c0,9.85,0,9.85,4.38,9.85L380.42,542.21z"/>
	<path class="st2" d="M393.56,537.83v2.19c0,1.09,2.19,2.19,3.29,2.19c1.1,0,5.48-1.09,9.86-6.57c4.38-6.57,5.48-12.04,5.48-16.42
		s-3.29-6.57-6.57-6.57c-1.1,0-2.19,0-2.19,0L393.56,537.83z M403.42,510.46h3.29c4.38,0,12.05,1.09,12.05,9.85
		c0,7.66-4.38,15.32-10.96,20.8c-5.48,4.38-12.05,5.47-12.05,5.47c-1.1,0-1.1,0-2.19,0s-1.1,1.09-1.1,1.09l-3.29,9.85
		c-2.19,6.57-2.19,7.66,1.1,7.66h3.29v2.19c-6.57,0-13.15,0-18.62,0c-1.1,0-1.1-1.09,0-2.19h2.19c4.38-1.09,5.48-3.28,6.57-6.57
		l16.43-44.88c-3.29,1.09-5.48,2.19-8.76,3.28c-1.1,0-1.1-1.09-1.1-1.09c3.29-2.19,6.57-3.28,10.96-4.38l2.19-6.57
		c1.1-1.09,4.38,0,5.48,1.09L403.42,510.46z"/>
	<path class="st2" d="M433,537.83v2.19c0,1.09,2.19,2.19,3.29,2.19c1.1,0,5.48-1.09,9.86-6.57c4.38-6.57,5.48-12.04,5.48-16.42
		s-3.29-6.57-6.57-6.57c-1.1,0-1.1,0-2.19,0L433,537.83z M442.86,510.46h3.29c4.38,0,12.05,1.09,12.05,9.85
		c0,7.66-4.38,15.32-10.96,20.8c-5.48,4.38-12.05,5.47-12.05,5.47c-1.1,0-1.1,0-2.19,0s-1.1,1.09-1.1,1.09l-3.29,9.85
		c-2.19,6.57-2.19,7.66,1.1,7.66H433v2.19c-6.57,0-13.15,0-18.62,0c-1.1,0-1.1-1.09,0-2.19h2.19c4.38-1.09,5.48-3.28,6.57-6.57
		l16.43-44.88c-3.29,1.09-5.48,2.19-8.76,3.28c-1.1,0-1.1-1.09-1.1-1.09c3.29-2.19,6.57-3.28,10.96-4.38l2.19-6.57
		c1.1-1.09,4.38,0,5.48,1.09L442.86,510.46z"/>
	<path class="st2" d="M476.83,515.94c-5.48,6.57-8.76,17.51-8.76,21.89c0,3.28,1.1,5.47,3.29,5.47s4.38-1.09,6.57-4.38
		c3.29-5.47,7.67-16.42,7.67-20.8c0-2.19,0-5.47-3.29-5.47C482.3,511.56,480.11,511.56,476.83,515.94 M493.26,519.22
		c0,4.38-3.29,13.14-8.76,19.7c-5.48,5.47-9.86,5.47-12.05,5.47c-5.48,0-8.76-4.38-8.76-12.04c0-5.47,3.29-14.23,9.86-19.7
		c4.38-4.38,8.76-5.47,12.05-5.47C489.97,508.27,493.26,513.75,493.26,519.22"/>
	<path class="st2" d="M519.55,494.04c0,2.19-2.19,5.47-4.38,5.47s-3.29-2.19-3.29-3.28c0-2.19,1.1-5.47,4.38-5.47
		C518.46,490.76,519.55,491.86,519.55,494.04 M509.69,515.94c0-1.09,0-2.19,0-2.19c-1.1,0-3.29,1.09-7.67,4.38
		c-1.1,0-1.1-1.09-1.1-1.09c4.38-5.47,10.96-8.76,14.24-8.76c1.1,0,1.1,0,1.1,1.09v3.28l-9.86,25.18v2.19c1.1,0,6.57-3.28,8.76-6.57
		c1.1,0,1.1,1.09,1.1,1.09c-1.1,2.19-9.86,9.85-16.43,9.85c0,0-1.1,0-1.1-1.09s-1.1-1.09,0-2.19L509.69,515.94z"/>
	<path class="st2" d="M533.8,527.98c6.57-8.76,15.34-18.61,21.91-18.61c3.29,0,4.38,2.19,4.38,4.38c0,1.09-1.1,4.38-1.1,6.57
		c-1.1,4.38-7.67,18.61-7.67,19.7v1.09c1.1,0,5.48-3.28,7.67-5.47c1.1,0,1.1,0,1.1,1.09c-3.29,5.47-9.86,9.85-15.34,9.85
		c-1.1,0-2.19-1.09-2.19-2.19c0-1.09,0-1.09,2.19-5.47c2.19-4.38,5.48-13.14,6.57-17.51c1.1-1.09,2.19-4.38,2.19-6.57
		c0-1.09,0-2.19-1.1-2.19c-2.19,0-7.67,4.38-12.05,9.85c-4.38,5.47-7.67,12.04-13.15,21.89c0,1.09-1.1,1.09-1.1,1.09
		c-1.1,0-3.29,0-2.19-2.19c0-1.09,9.86-26.27,9.86-27.37c0-1.09,0-2.19,0-2.19c-2.19,0-5.48,2.19-7.67,4.38
		c-1.1,0-1.1-1.09-1.1-1.09c3.29-4.38,8.76-7.66,13.15-7.66c2.19,0,3.29,1.09,2.19,3.28L533.8,527.98z"/>
	<path class="st2" d="M582,513.75l-7.67,22.99c0,2.19,0,2.19,1.1,2.19c1.1,0,6.57-4.38,9.86-7.66c1.1,0,1.1,0,1.1,1.09
		c-4.38,7.66-13.15,12.04-16.43,12.04c-1.1,0-2.19-1.09-2.19-2.19c0-1.09,0-2.19,1.1-5.47l7.67-24.08h-6.57c0-1.09,0-2.19,1.1-2.19
		l6.57-1.09l4.38-8.76h3.29l-3.29,9.85h9.86c1.1,1.09,0,2.19-1.1,3.28H582z"/>
	<path class="st2" d="M625.83,520.31l-3.29,7.66c8.76-13.14,15.34-19.7,20.82-19.7c3.29,0,4.38,2.19,4.38,4.38
		c0,1.09-1.1,4.38-1.1,6.57c-1.1,4.38-7.67,18.61-7.67,19.7v1.09c1.1,0,5.48-3.28,7.67-5.47c1.1,0,1.1,0,1.1,1.09
		c-3.29,5.47-9.86,9.85-15.34,9.85c-1.1,0-2.19-1.09-2.19-2.19c0-1.09,0-1.09,2.19-5.47c2.19-4.38,5.48-13.14,6.57-17.51
		c1.1-1.09,2.19-4.38,2.19-6.57c0-1.09,0-2.19-1.1-2.19c-2.19,0-6.57,4.38-10.96,10.95c-4.38,5.47-8.76,12.04-13.15,21.89
		c0,1.09-1.1,1.09-1.1,1.09c-1.1,0-3.29,0-2.19-2.19l8.76-22.99c0-1.09,3.29-8.76,1.1-8.76c-2.19,0-7.67,4.38-12.05,10.95
		c-4.38,5.47-7.67,12.04-13.15,21.89c0,1.09-1.1,1.09-1.1,1.09c-1.1,0-3.29,0-2.19-2.19c0-1.09,9.86-26.27,9.86-27.37
		c0-1.09,0-2.19-1.1-2.19c-3.29,0-5.48,2.19-7.67,4.38c-1.1,0-1.1-1.09-1.1-1.09c2.19-4.38,6.57-7.66,13.15-7.66
		c2.19,0,3.29,1.09,2.19,3.28l-7.67,15.32c6.57-9.85,14.24-19.7,20.82-19.7S626.92,515.94,625.83,520.31"/>
	<path class="st2" d="M668.55,515.94c-3.29,3.28-5.48,7.66-6.57,9.85c5.48-2.19,8.76-3.28,12.05-6.57c2.19-2.19,3.29-5.47,3.29-5.47
		c0-1.09,0-2.19-2.19-2.19C674.03,511.56,671.84,512.65,668.55,515.94 M682.8,513.75c0,6.57-8.76,10.95-20.82,14.23
		c-1.1,1.09-1.1,4.38-1.1,7.66s2.19,5.47,4.38,5.47c3.29,0,5.48-2.19,8.76-5.47c1.1,0,1.1,1.09,1.1,1.09
		c-5.48,6.57-9.86,7.66-14.24,7.66c-5.48,0-6.57-4.38-6.57-8.76c0-5.47,3.29-16.42,13.15-22.99c4.38-3.28,7.67-4.38,10.96-4.38
		C680.6,508.27,682.8,511.56,682.8,513.75"/>
	<path class="st2" d="M694.85,527.98c6.57-8.76,15.34-18.61,21.91-18.61c3.29,0,4.38,2.19,4.38,4.38c0,1.09-1.1,4.38-1.1,6.57
		c-1.1,4.38-7.67,18.61-7.67,19.7v1.09c1.1,0,5.48-3.28,7.67-5.47c1.1,0,1.1,0,1.1,1.09c-3.29,5.47-9.86,9.85-15.34,9.85
		c-1.1,0-2.19-1.09-2.19-2.19c0-1.09,0-1.09,2.19-5.47c2.19-4.38,5.48-13.14,6.57-17.51c1.1-1.09,2.19-4.38,2.19-6.57
		c0-1.09,0-2.19-1.1-2.19c-2.19,0-7.67,4.38-12.05,9.85s-7.67,12.04-13.15,21.89c0,1.09-1.1,1.09-1.1,1.09c-1.1,0-3.29,0-2.19-2.19
		c0-1.09,9.86-26.27,9.86-27.37c0-1.09,0-2.19,0-2.19c-2.19,0-5.48,2.19-7.67,4.38c-1.1,0-1.1-1.09-1.1-1.09
		c3.29-4.38,8.76-7.66,13.15-7.66c2.19,0,3.29,1.09,2.19,3.28L694.85,527.98z"/>
	<path class="st2" d="M743.05,513.75l-7.67,22.99c0,2.19,0,2.19,1.1,2.19s6.57-4.38,9.86-7.66c1.1,0,1.1,0,1.1,1.09
		c-4.38,7.66-13.15,12.04-16.43,12.04c-1.1,0-2.19-1.09-2.19-2.19c0-1.09,0-2.19,1.1-5.47l7.67-24.08H731c0-1.09,0-2.19,1.1-2.19
		l6.57-1.09l4.38-8.76h3.29l-2.19,8.76h9.86c1.1,1.09,0,2.19-1.1,3.28h-9.86L743.05,513.75z"/>
	<path class="st2" d="M772.63,513.75c0,1.09-1.1,2.19-1.1,2.19c-1.1,0-1.1,0-2.19-1.09c-1.1-1.09-2.19-3.28-5.48-3.28
		c-2.19,0-3.29,2.19-3.29,3.28c0,2.19,0,3.28,3.29,7.66c2.19,3.28,3.29,5.47,3.29,9.85c0,2.19-1.1,5.47-4.38,8.76
		c-2.19,2.19-5.48,3.28-8.76,3.28c-3.29,0-5.48-2.19-5.48-4.38c0-1.09,0-2.19,1.1-3.28c1.1-1.09,1.1-1.09,2.19,0
		c1.1,1.09,3.29,3.28,5.48,3.28c2.19,0,4.38-2.19,4.38-5.47c0-1.09-1.1-4.38-3.29-7.66c-2.19-3.28-3.29-6.57-3.29-7.66
		c0-3.28,1.1-5.47,5.48-8.76c2.19-2.19,5.48-3.28,6.57-3.28C770.44,508.27,772.63,511.56,772.63,513.75"/>
	<path class="st2" d="M856.99,488.57c-1.1,3.28-3.29,8.76-4.38,12.04c0,1.09-2.19,1.09-2.19,0c2.19-7.66,0-12.04-9.86-12.04
		c-6.57,0-14.24,2.19-21.91,9.85c-4.38,4.38-9.86,14.23-9.86,26.27s5.48,18.61,16.43,18.61c8.76,0,14.24-5.47,18.62-12.04
		c1.1,0,2.19,0,2.19,1.09c-1.1,2.19-2.19,6.57-5.48,12.04c-2.19,0-4.38,0-6.57,1.09c-2.19,0-5.48,1.09-8.76,1.09
		c-10.96,0-24.1-5.47-24.1-22.99c0-9.85,5.48-19.7,12.05-26.27c7.67-6.57,17.53-10.95,29.58-10.95
		C849.32,485.29,854.8,487.48,856.99,488.57"/>
	<path class="st2" d="M866.85,515.94c-5.48,6.57-8.76,17.51-8.76,21.89c0,3.28,1.1,5.47,3.29,5.47s4.38-1.09,6.57-4.38
		c3.29-5.47,7.67-16.42,7.67-20.8c0-2.19,0-5.47-3.29-5.47C871.24,511.56,869.04,511.56,866.85,515.94 M883.29,519.22
		c0,4.38-3.29,13.14-8.76,19.7c-5.48,5.47-9.86,5.47-12.05,5.47c-5.48,0-8.76-4.38-8.76-12.04c0-5.47,3.29-14.23,9.86-19.7
		c4.38-4.38,8.76-5.47,12.05-5.47C880,508.27,883.29,513.75,883.29,519.22"/>
	<path class="st2" d="M922.73,520.31l-3.29,7.66c8.76-13.14,15.34-19.7,20.82-19.7c3.29,0,4.38,2.19,4.38,4.38
		c0,1.09-1.1,4.38-1.1,6.57c-1.1,4.38-7.67,18.61-7.67,19.7v1.09c1.1,0,5.48-3.28,7.67-5.47c1.1,0,1.1,0,1.1,1.09
		c-3.29,5.47-9.86,9.85-15.34,9.85c-1.1,0-2.19-1.09-2.19-2.19c0-1.09,0-1.09,2.19-5.47s5.48-13.14,6.57-17.51
		c1.1-1.09,2.19-4.38,2.19-6.57c0-1.09,0-2.19-1.1-2.19c-2.19,0-6.57,4.38-10.96,10.95c-4.38,5.47-8.76,12.04-13.15,21.89
		c0,1.09-1.1,1.09-1.1,1.09c-1.1,0-3.29,0-2.19-2.19l8.76-22.99c0-1.09,3.29-8.76,1.1-8.76c-2.19,0-7.67,4.38-12.05,10.95
		c-4.38,5.47-7.67,12.04-13.15,21.89c0,1.09-1.1,1.09-1.1,1.09c-1.1,0-3.29,0-2.19-2.19c0-1.09,9.86-26.27,9.86-27.37
		c0-1.09,0-2.19-1.1-2.19c-3.29,0-5.48,2.19-7.67,4.38c-1.1,0-1.1-1.09-1.1-1.09c2.19-4.38,6.57-7.66,13.15-7.66
		c2.19,0,3.29,1.09,2.19,3.28l-7.67,15.32c6.57-9.85,14.24-19.7,20.82-19.7C926.01,508.27,924.92,515.94,922.73,520.31"/>
	<path class="st2" d="M986.27,520.31l-3.29,7.66c8.76-13.14,15.34-19.7,20.82-19.7c3.29,0,4.38,2.19,4.38,4.38
		c0,1.09-1.1,4.38-1.1,6.57c-1.1,4.38-7.67,18.61-7.67,19.7v1.09c1.1,0,5.48-3.28,7.67-5.47c1.1,0,1.1,0,1.1,1.09
		c-3.29,5.47-9.86,9.85-15.34,9.85c-1.1,0-2.19-1.09-2.19-2.19c0-1.09,0-1.09,2.19-5.47c2.19-4.38,5.48-13.14,6.57-17.51
		c1.1-1.09,2.19-4.38,2.19-6.57c0-1.09,0-2.19-1.1-2.19c-2.19,0-6.57,4.38-10.96,10.95c-4.38,5.47-8.76,12.04-13.15,21.89
		c0,1.09-1.1,1.09-1.1,1.09c-1.1,0-3.29,0-2.19-2.19l8.76-22.99c0-1.09,3.29-8.76,1.1-8.76c-2.19,0-7.67,4.38-12.05,10.95
		c-4.38,5.47-7.67,12.04-13.15,21.89c0,1.09-1.1,1.09-1.1,1.09c-1.1,0-3.29,0-2.19-2.19c0-1.09,9.86-26.27,9.86-27.37
		c0-1.09,0-2.19-1.1-2.19c-3.29,0-5.48,2.19-7.67,4.38c-1.1,0-1.1-1.09-1.1-1.09c2.19-4.38,6.57-7.66,13.15-7.66
		c2.19,0,3.29,1.09,2.19,3.28l-7.67,15.32c6.57-9.85,14.24-19.7,20.82-19.7C989.56,508.27,988.46,515.94,986.27,520.31"/>
	<path class="st2" d="M1036.67,494.04c0,2.19-2.19,5.47-4.38,5.47c-2.19,0-3.29-2.19-3.29-3.28c0-2.19,1.1-5.47,4.38-5.47
		C1035.57,490.76,1036.67,491.86,1036.67,494.04 M1025.71,515.94c0-1.09,0-2.19,0-2.19c-1.1,0-3.29,1.09-7.67,4.38
		c-1.1,0-1.1-1.09-1.1-1.09c4.38-5.47,10.96-8.76,14.24-8.76c1.1,0,1.1,0,1.1,1.09v3.28l-9.86,25.18v2.19c1.1,0,6.57-3.28,8.76-6.57
		c1.1,0,1.1,1.09,1.1,1.09c-1.1,2.19-9.86,9.85-16.43,9.85c0,0-1.1,0-1.1-1.09s-1.1-1.09,0-2.19L1025.71,515.94z"/>
	<path class="st2" d="M1059.67,513.75c0,1.09-1.1,2.19-1.1,2.19c-1.1,0-1.1,0-2.19-1.09c-1.1-1.09-2.19-3.28-5.48-3.28
		c-2.19,0-3.29,2.19-3.29,3.28c0,2.19,0,3.28,3.29,7.66c2.19,3.28,3.29,5.47,3.29,9.85c0,2.19-1.1,5.47-4.38,8.76
		c-2.19,2.19-5.48,3.28-8.76,3.28c-3.29,0-5.48-2.19-5.48-4.38c0-1.09,0-2.19,1.1-3.28s2.19-1.09,2.19,0
		c1.1,1.09,3.29,3.28,5.48,3.28s4.38-2.19,4.38-5.47c0-1.09-1.1-4.38-3.29-7.66c-2.19-3.28-3.29-6.57-3.29-7.66
		c0-3.28,1.1-5.47,5.48-8.76c2.19-2.19,5.48-3.28,6.57-3.28C1057.48,508.27,1059.67,511.56,1059.67,513.75"/>
	<path class="st2" d="M1081.59,513.75c0,1.09-1.1,2.19-1.1,2.19c-1.1,0-1.1,0-1.1-1.09c-1.1-1.09-2.19-3.28-5.48-3.28
		c-2.19,0-3.29,2.19-3.29,3.28c0,2.19,0,3.28,3.29,7.66c2.19,3.28,3.29,5.47,3.29,9.85c0,2.19-1.1,5.47-4.38,8.76
		c-2.19,2.19-5.48,3.28-8.76,3.28s-5.48-2.19-5.48-4.38c0-1.09,0-2.19,1.1-3.28s2.19-1.09,2.19,0c1.1,1.09,3.29,3.28,5.48,3.28
		c2.19,0,4.38-2.19,4.38-5.47c0-1.09-1.1-4.38-3.29-7.66c-2.19-3.28-3.29-6.57-3.29-7.66c0-3.28,1.1-5.47,5.48-8.76
		c2.19-2.19,5.48-3.28,6.57-3.28C1080.49,508.27,1081.59,511.56,1081.59,513.75"/>
	<path class="st2" d="M1105.69,494.04c0,2.19-2.19,5.47-4.38,5.47c-2.19,0-3.29-2.19-3.29-3.28c0-2.19,1.1-5.47,4.38-5.47
		C1104.59,490.76,1105.69,491.86,1105.69,494.04 M1095.83,515.94c0-1.09,0-2.19,0-2.19c-1.1,0-3.29,1.09-7.67,4.38
		c-1.1,0-1.1-1.09-1.1-1.09c4.38-5.47,10.96-8.76,14.24-8.76c1.1,0,1.1,0,1.1,1.09v3.28l-9.86,25.18v2.19c1.1,0,6.57-3.28,8.76-6.57
		c1.1,0,1.1,1.09,1.1,1.09c-1.1,2.19-9.86,9.85-16.43,9.85c0,0-1.1,0-1.1-1.09s-1.1-1.09,0-2.19L1095.83,515.94z"/>
	<path class="st2" d="M1123.22,515.94c-5.48,6.57-8.76,17.51-8.76,21.89c0,3.28,1.1,5.47,3.29,5.47s4.38-1.09,6.57-4.38
		c3.29-5.47,7.67-16.42,7.67-20.8c0-2.19,0-5.47-3.29-5.47C1127.6,511.56,1125.41,511.56,1123.22,515.94 M1138.56,519.22
		c0,4.38-3.29,13.14-8.76,19.7c-5.48,5.47-9.86,5.47-12.05,5.47c-5.48,0-8.76-4.38-8.76-12.04c0-5.47,3.29-14.23,9.86-19.7
		c4.38-4.38,8.76-5.47,12.05-5.47C1136.37,508.27,1138.56,513.75,1138.56,519.22"/>
	<path class="st2" d="M1154.99,527.98c6.57-8.76,15.34-18.61,21.91-18.61c3.29,0,4.38,2.19,4.38,4.38c0,1.09-1.1,4.38-1.1,6.57
		c-1.1,4.38-7.67,18.61-7.67,19.7v1.09c1.1,0,5.48-3.28,7.67-5.47c1.1,0,1.1,0,1.1,1.09c-3.29,5.47-9.86,9.85-15.34,9.85
		c-1.1,0-2.19-1.09-2.19-2.19c0-1.09,0-1.09,2.19-5.47c2.19-4.38,5.48-13.14,6.57-17.51c1.1-1.09,2.19-4.38,2.19-6.57
		c0-1.09,0-2.19-1.1-2.19c-2.19,0-7.67,4.38-12.05,9.85s-7.67,12.04-13.15,21.89c0,1.09-1.1,1.09-1.1,1.09c-1.1,0-3.29,0-2.19-2.19
		c0-1.09,9.86-26.27,9.86-27.37c0-1.09,0-2.19,0-2.19c-2.19,0-5.48,2.19-7.67,4.38c-1.1,0-1.1-1.09-1.1-1.09
		c3.29-4.38,8.76-7.66,13.15-7.66c2.19,0,3.29,1.09,2.19,3.28L1154.99,527.98z"/>
</g>
<path class="st3" d="M119.37,105.29c0,0.9,0,4.3,0.1,5c-0.1,0.2-0.2,0.3-0.5,0.3c-0.3-0.5-1.2-1.5-3.7-4.3l-6.7-7.5
	c-0.8-0.9-2.7-3.2-3.3-3.9h-0.1c-0.1,0.3-0.1,1-0.1,1.9v6.2c0,1.3,0,5.1,0.5,5.9c0.2,0.3,0.7,0.5,1.5,0.5l0.9,0.1
	c0.2,0.2,0.1,0.6-0.1,0.7c-1.3,0-2.3-0.1-3.3-0.1c-1.2,0-2,0-3,0.1c-0.2-0.1-0.2-0.5-0.1-0.7l0.8-0.1c0.7-0.1,1.1-0.3,1.3-0.6
	c0.4-1,0.4-4.5,0.4-5.9v-8.2c0-0.8,0-1.4-0.6-2.1c-0.4-0.4-1.1-0.6-1.8-0.7l-0.5-0.1c-0.2-0.2-0.2-0.6,0.1-0.7
	c1.2,0.1,2.7,0.1,3.2,0.1s0.9,0,1.3-0.1c0.6,1.5,3.9,5.2,4.9,6.3l2.8,3.1c2,2.2,3.4,3.8,4.7,5.2h0.1c0.1-0.1,0.1-0.6,0.1-1.2v-6.1
	c0-1.3,0-5.1-0.6-5.9c-0.2-0.3-0.6-0.4-1.8-0.6l-0.5-0.1c-0.2-0.2-0.2-0.6,0.1-0.7c1.3,0.1,2.3,0.1,3.4,0.1c1.2,0,2,0,2.9-0.1
	c0.2,0.1,0.2,0.5,0.1,0.7l-0.4,0.1c-0.9,0.1-1.5,0.4-1.6,0.6c-0.5,1-0.4,4.6-0.4,5.9v6.9H119.37z"/>
<path class="st3" d="M126.27,95.59c0-3-0.1-3.5-1.7-3.7l-0.7-0.1c-0.2-0.1-0.1-0.6,0.1-0.7c1.4,0.1,2.4,0.1,3.6,0.1
	c1.1,0,2.1,0,3.5-0.1c0.2,0.1,0.2,0.6,0.1,0.7l-0.7,0.1c-1.7,0.1-1.7,0.6-1.7,3.7v10.2c0,3,0.1,3.4,1.7,3.6l0.7,0.1
	c0.2,0.1,0.1,0.6-0.1,0.7c-1.4-0.1-2.4-0.1-3.5-0.1c-1.2,0-2.2,0-3.6,0.1c-0.2-0.1-0.2-0.5-0.1-0.7l0.7-0.1c1.7-0.2,1.7-0.6,1.7-3.6
	V95.59z"/>
<path class="st3" d="M136.37,95.59c0-3.2-0.3-3.5-2-3.7l-0.7-0.1c-0.1,0-0.1-0.5,0.1-0.6c1.7,0.1,2.6,0.1,3.8,0.1
	c1.1,0,2.1,0,3.3-0.1c0.2,0.1,0.2,0.6,0.1,0.7l-0.4,0.1c-1.7,0.2-1.7,0.6-1.7,3.7v10.6c0,2.3-0.1,4.2-0.7,5.5
	c-0.9,2.3-3,4.1-5.6,4.1c-0.3,0-1.2,0-1.2-0.6c0-0.5,0.4-1.3,1-1.3c0.3,0,0.7,0.1,1.1,0.2c0.4,0.1,0.8,0.2,1.2,0.2
	c0.6,0,0.9-0.3,1.1-0.7c0.7-1.3,0.7-5.6,0.7-7.2v-10.9H136.37z"/>
<path class="st3" d="M148.17,100.99c-0.2,0.7-0.2,0.7,0.6,0.7h3.5c0.8,0,0.9-0.1,0.6-0.9l-1.5-4.7c-0.2-0.7-0.5-1.5-0.7-1.8h-0.1
	c-0.1,0.1-0.4,0.8-0.7,1.7L148.17,100.99z M153.77,103.49c-0.2-0.6-0.3-0.7-1.2-0.7h-4.3c-0.7,0-0.9,0.1-1.1,0.7l-1,3
	c-0.4,1.3-0.6,2-0.6,2.4c0,0.3,0.1,0.5,0.8,0.6l0.9,0.1c0.2,0.1,0.2,0.6-0.1,0.7c-0.7-0.1-1.6-0.1-3-0.1c-0.9,0-2,0.1-2.7,0.1
	c-0.2-0.1-0.2-0.6-0.1-0.7l0.9-0.1c0.7-0.1,1.3-0.4,1.7-1.4c0.5-1.3,1.3-3.2,2.5-6.4l3.1-7.7c0.4-1,0.6-1.6,0.5-2
	c0.7-0.2,1.2-0.7,1.5-1.1c0.2,0,0.4,0.1,0.4,0.3c0.4,1.3,0.8,2.6,1.3,3.8l3.9,11.5c0.8,2.5,1.2,2.9,2.4,3l0.8,0.1
	c0.2,0.1,0.1,0.6,0,0.7c-1.2-0.1-2.2-0.1-3.5-0.1c-1.4,0-2.5,0.1-3.3,0.1c-0.2-0.1-0.3-0.6-0.1-0.7l0.8-0.1c0.6-0.1,1-0.2,1-0.5
	c0-0.3-0.1-0.8-0.4-1.5L153.77,103.49z"/>
<path class="st3" d="M164.47,93.29c2.1-1.6,4.7-2.4,7.7-2.4c1.5,0,3.7,0.3,5.1,0.7c0.3,0.1,0.5,0.1,0.8,0.1c0,0.7,0.2,2.5,0.4,4.2
	c-0.1,0.2-0.6,0.2-0.8,0.1c-0.4-1.9-1.7-4.2-5.9-4.2c-4.4,0-8.1,2.8-8.1,8.7c0,6,3.8,9.3,8.5,9.3c3.7,0,5.3-2.4,6-4.1
	c0.2-0.1,0.6-0.1,0.7,0.1c-0.2,1.5-0.9,3.4-1.4,3.9c-0.3,0.1-0.7,0.2-1,0.3c-0.6,0.2-2.7,0.7-4.5,0.7c-2.6,0-5-0.5-7.1-1.9
	c-2.3-1.6-4.1-4.2-4.1-7.8C160.87,97.69,162.27,94.99,164.47,93.29"/>
</svg>
